<?xml version="1.0" encoding="UTF-8" standalone="no"?>
<!-- Created with Inkscape (http://www.inkscape.org/) -->

<svg
   xmlns:dc="http://purl.org/dc/elements/1.1/"
   xmlns:cc="http://creativecommons.org/ns#"
   xmlns:rdf="http://www.w3.org/1999/02/22-rdf-syntax-ns#"
   xmlns:svg="http://www.w3.org/2000/svg"
   xmlns="http://www.w3.org/2000/svg"
   xmlns:sodipodi="http://sodipodi.sourceforge.net/DTD/sodipodi-0.dtd"
   xmlns:inkscape="http://www.inkscape.org/namespaces/inkscape"
   width="744.09448819"
   height="1052.3622047"
   id="svg2"
   version="1.1"
   inkscape:version="0.48.5 r10040"
   sodipodi:docname="New document 1">
  <defs
     id="defs4">
    <inkscape:path-effect
       effect="skeletal"
       id="path-effect3050"
       is_visible="true"
       pattern="M 0,5 C 0,2.24 2.24,0 5,0 7.76,0 10,2.24 10,5 10,7.76 7.76,10 5,10 2.24,10 0,7.76 0,5 z"
       copytype="single_stretched"
       prop_scale="1"
       scale_y_rel="false"
       spacing="0"
       normal_offset="0"
       tang_offset="0"
       prop_units="false"
       vertical_pattern="false"
       fuse_tolerance="0" />
    <inkscape:path-effect
       effect="skeletal"
       id="path-effect3046"
       is_visible="true"
       pattern="M 0,5 C 0,2.24 2.24,0 5,0 7.76,0 10,2.24 10,5 10,7.76 7.76,10 5,10 2.24,10 0,7.76 0,5 z"
       copytype="single_stretched"
       prop_scale="1"
       scale_y_rel="false"
       spacing="0"
       normal_offset="0"
       tang_offset="0"
       prop_units="false"
       vertical_pattern="false"
       fuse_tolerance="0" />
    <inkscape:path-effect
       effect="skeletal"
       id="path-effect3042"
       is_visible="true"
       pattern="M 0,5 C 0,2.24 2.24,0 5,0 7.76,0 10,2.24 10,5 10,7.76 7.76,10 5,10 2.24,10 0,7.76 0,5 z"
       copytype="single_stretched"
       prop_scale="1"
       scale_y_rel="false"
       spacing="0"
       normal_offset="0"
       tang_offset="0"
       prop_units="false"
       vertical_pattern="false"
       fuse_tolerance="0" />
    <inkscape:path-effect
       effect="skeletal"
       id="path-effect3038"
       is_visible="true"
       pattern="M 0,5 C 0,2.24 2.24,0 5,0 7.76,0 10,2.24 10,5 10,7.76 7.76,10 5,10 2.24,10 0,7.76 0,5 z"
       copytype="single_stretched"
       prop_scale="1"
       scale_y_rel="false"
       spacing="0"
       normal_offset="0"
       tang_offset="0"
       prop_units="false"
       vertical_pattern="false"
       fuse_tolerance="0" />
    <inkscape:path-effect
       effect="skeletal"
       id="path-effect3034"
       is_visible="true"
       pattern="M 0,5 C 0,2.24 2.24,0 5,0 7.76,0 10,2.24 10,5 10,7.76 7.76,10 5,10 2.24,10 0,7.76 0,5 z"
       copytype="single_stretched"
       prop_scale="1"
       scale_y_rel="false"
       spacing="0"
       normal_offset="0"
       tang_offset="0"
       prop_units="false"
       vertical_pattern="false"
       fuse_tolerance="0" />
    <inkscape:path-effect
       effect="skeletal"
       id="path-effect3030"
       is_visible="true"
       pattern="M 0,5 C 0,2.24 2.24,0 5,0 7.76,0 10,2.24 10,5 10,7.76 7.76,10 5,10 2.24,10 0,7.76 0,5 z"
       copytype="single_stretched"
       prop_scale="1"
       scale_y_rel="false"
       spacing="0"
       normal_offset="0"
       tang_offset="0"
       prop_units="false"
       vertical_pattern="false"
       fuse_tolerance="0" />
    <inkscape:path-effect
       effect="skeletal"
       id="path-effect3026"
       is_visible="true"
       pattern="M 0,5 C 0,2.24 2.24,0 5,0 7.76,0 10,2.24 10,5 10,7.76 7.76,10 5,10 2.24,10 0,7.76 0,5 z"
       copytype="single_stretched"
       prop_scale="1"
       scale_y_rel="false"
       spacing="0"
       normal_offset="0"
       tang_offset="0"
       prop_units="false"
       vertical_pattern="false"
       fuse_tolerance="0" />
    <inkscape:path-effect
       effect="skeletal"
       id="path-effect3022"
       is_visible="true"
       pattern="M 0,5 C 0,2.24 2.24,0 5,0 7.76,0 10,2.24 10,5 10,7.76 7.76,10 5,10 2.24,10 0,7.76 0,5 z"
       copytype="single_stretched"
       prop_scale="1"
       scale_y_rel="false"
       spacing="0"
       normal_offset="0"
       tang_offset="0"
       prop_units="false"
       vertical_pattern="false"
       fuse_tolerance="0" />
    <inkscape:path-effect
       effect="skeletal"
       id="path-effect3018"
       is_visible="true"
       pattern="M 0,5 C 0,2.24 2.24,0 5,0 7.76,0 10,2.24 10,5 10,7.76 7.76,10 5,10 2.24,10 0,7.76 0,5 z"
       copytype="single_stretched"
       prop_scale="1"
       scale_y_rel="false"
       spacing="0"
       normal_offset="0"
       tang_offset="0"
       prop_units="false"
       vertical_pattern="false"
       fuse_tolerance="0" />
    <inkscape:path-effect
       effect="skeletal"
       id="path-effect3014"
       is_visible="true"
       pattern="M 0,5 C 0,2.24 2.24,0 5,0 7.76,0 10,2.24 10,5 10,7.76 7.76,10 5,10 2.24,10 0,7.76 0,5 z"
       copytype="single_stretched"
       prop_scale="1"
       scale_y_rel="false"
       spacing="0"
       normal_offset="0"
       tang_offset="0"
       prop_units="false"
       vertical_pattern="false"
       fuse_tolerance="0" />
    <inkscape:path-effect
       effect="skeletal"
       id="path-effect3010"
       is_visible="true"
       pattern="M 0,5 C 0,2.24 2.24,0 5,0 7.76,0 10,2.24 10,5 10,7.76 7.76,10 5,10 2.24,10 0,7.76 0,5 z"
       copytype="single_stretched"
       prop_scale="1"
       scale_y_rel="false"
       spacing="0"
       normal_offset="0"
       tang_offset="0"
       prop_units="false"
       vertical_pattern="false"
       fuse_tolerance="0" />
    <inkscape:path-effect
       effect="skeletal"
       id="path-effect3006"
       is_visible="true"
       pattern="M 0,5 C 0,2.24 2.24,0 5,0 7.76,0 10,2.24 10,5 10,7.76 7.76,10 5,10 2.24,10 0,7.76 0,5 z"
       copytype="single_stretched"
       prop_scale="1"
       scale_y_rel="false"
       spacing="0"
       normal_offset="0"
       tang_offset="0"
       prop_units="false"
       vertical_pattern="false"
       fuse_tolerance="0" />
    <inkscape:path-effect
       effect="skeletal"
       id="path-effect3002"
       is_visible="true"
       pattern="M 0,5 C 0,2.24 2.24,0 5,0 7.76,0 10,2.24 10,5 10,7.76 7.76,10 5,10 2.24,10 0,7.76 0,5 z"
       copytype="single_stretched"
       prop_scale="1"
       scale_y_rel="false"
       spacing="0"
       normal_offset="0"
       tang_offset="0"
       prop_units="false"
       vertical_pattern="false"
       fuse_tolerance="0" />
    <inkscape:path-effect
       effect="skeletal"
       id="path-effect2998"
       is_visible="true"
       pattern="M 0,5 C 0,2.24 2.24,0 5,0 7.76,0 10,2.24 10,5 10,7.76 7.76,10 5,10 2.24,10 0,7.76 0,5 z"
       copytype="single_stretched"
       prop_scale="1"
       scale_y_rel="false"
       spacing="0"
       normal_offset="0"
       tang_offset="0"
       prop_units="false"
       vertical_pattern="false"
       fuse_tolerance="0" />
  </defs>
  <sodipodi:namedview
     id="base"
     pagecolor="#ffffff"
     bordercolor="#666666"
     borderopacity="1.0"
     inkscape:pageopacity="0.0"
     inkscape:pageshadow="2"
     inkscape:zoom="0.98994949"
     inkscape:cx="302.46059"
     inkscape:cy="750.01742"
     inkscape:document-units="px"
     inkscape:current-layer="layer1"
     showgrid="false"
     inkscape:window-width="1848"
     inkscape:window-height="1055"
     inkscape:window-x="67"
     inkscape:window-y="-5"
     inkscape:window-maximized="1" />
  <metadata
     id="metadata7">
    <rdf:RDF>
      <cc:Work
         rdf:about="">
        <dc:format>image/svg+xml</dc:format>
        <dc:type
           rdf:resource="http://purl.org/dc/dcmitype/StillImage" />
        <dc:title></dc:title>
      </cc:Work>
    </rdf:RDF>
  </metadata>
  <g
     inkscape:label="Layer 1"
     inkscape:groupmode="layer"
     id="layer1">
    <path
       style="fill:#000000;fill-rule:evenodd;stroke:none"
       d="M 131.42857,38.076468 C 133.56675,36.33125 231.94209,153.31484 351.01637,299.20056 470.09066,445.08627 564.99532,564.90268 562.85714,566.6479 560.71896,568.39312 462.34362,451.40953 343.26934,305.52381 224.19505,159.63809 129.29039,39.821686 131.42857,38.076468 z"
       id="path2996"
       inkscape:path-effect="#path-effect2998"
       inkscape:original-d="M 131.42857,38.076468 562.85714,566.6479"
       inkscape:connector-curvature="0" />
    <path
       style="fill:#000000;fill-rule:evenodd;stroke:none"
       d="m 713.62219,500.58698 c 0.21734,0.2862 -1.6701,2.19568 -5.57599,5.43238 -3.90589,3.23671 -9.83938,7.79359 -17.82797,13.15146 -7.98859,5.35786 -18.04194,11.50991 -30.15743,17.8184 -12.11549,6.30849 -26.30085,12.76739 -42.39111,18.71708 0,0 -10e-6,0 -2e-5,10e-6 -15.22584,5.63042 -32.13979,10.82463 -50.51057,15.19616 -18.37078,4.37153 -38.19877,7.91796 -59.11455,10.42424 -17.63828,2.11522 -36.05593,3.50852 -55.06148,4.1205 -19.00555,0.61197 -38.59856,0.44291 -58.56377,-0.48593 -4.76652,-0.22149 -9.55485,-0.4858 -14.36254,-0.79291 -33.1721,-2.11895 -65.11757,-6.14164 -95.14075,-11.23895 -35.46059,-6.01939 -68.26473,-13.5443 -97.47046,-21.48158 -29.93019,-8.13311 -56.11106,-16.71348 -77.59554,-24.74019 -10.868116,-4.06029 -20.545966,-7.98629 -28.90408,-11.65662 -4e-6,0 -8e-6,0 -1.2e-5,0 -8.3502,-3.66607 -15.407657,-7.0904 -21.011469,-10.14669 -2.769166,-1.51007 -5.194766,-2.93785 -7.244583,-4.26384 -1.988724,-1.28493 -3.649197,-2.49495 -4.914177,-3.59525 -2e-6,0 -3e-6,0 -4e-6,0 -0.602696,-0.52357 -1.125972,-1.03432 -1.549546,-1.52003 -0.39392,-0.44733 -0.716853,-0.90493 -0.926636,-1.33207 0,0 -1e-6,0 -1e-6,0 -0.204661,-0.38091 -0.289001,-0.82275 -0.245605,-1.16476 0.02936,-0.20088 0.110693,-0.35848 0.199126,-0.46882 1e-6,0 1e-6,0 1e-6,-1e-5 0.225592,-0.27217 0.410231,-0.25919 0.461262,-0.19738 0.05103,0.0618 -0.02733,0.21106 -0.03197,0.40805 0,0 0,0 0,0 -0.0033,0.0766 0.0076,0.16516 0.03871,0.25414 0.04651,0.17363 0.200166,0.35724 0.416699,0.62182 0,1e-5 10e-7,1e-5 10e-7,1e-5 0.248248,0.27479 0.588981,0.55824 1.021026,0.88887 0.460917,0.34739 1.01104,0.71334 1.652851,1.11147 1e-6,0 2e-6,0 4e-6,0 1.349857,0.83629 3.058961,1.76256 5.132424,2.80414 2.127017,1.06617 4.613557,2.23073 7.453675,3.49194 5.748719,2.55249 12.899174,5.47064 21.360473,8.67202 4e-6,0 8e-6,10e-6 1.2e-5,10e-6 8.459806,3.19975 18.207427,6.66863 29.135957,10.30142 10.8028,3.59092 22.74471,7.34863 35.72402,11.1374 12.97932,3.78877 26.99648,7.60774 41.92857,11.35959 29.13448,7.31926 61.75491,14.34241 96.94151,20.02235 29.79096,4.80804 61.41603,8.66011 94.20585,10.75394 4.75229,0.30347 9.48449,0.56722 14.19434,0.79117 19.72843,0.93693 39.06443,1.1749 57.80951,0.68631 18.74507,-0.4886 36.89891,-1.70411 54.28796,-3.59543 20.61767,-2.24447 40.16041,-5.44345 58.29125,-9.40876 18.13084,-3.96532 34.85059,-8.69493 49.95328,-13.82889 0,0 1e-5,0 1e-5,0 15.9525,-5.42312 30.09318,-11.30754 42.26011,-17.03149 12.16694,-5.72395 22.36791,-11.28181 30.58744,-16.05537 8.21953,-4.77355 14.46721,-8.756 18.7418,-11.42603 4.27459,-2.67003 6.58506,-4.02008 6.8024,-3.73388 z"
       id="path3000"
       inkscape:path-effect="#path-effect3002"
       inkscape:original-d="M 713.62219,500.58698 C 477.14553,680.16657 31.614634,504.00348 45.714286,492.36218"
       inkscape:connector-curvature="0"
       sodipodi:nodetypes="cc" />
    <path
       style="fill:#000000;fill-rule:evenodd;stroke:none"
       d="m 608.57143,620.93361 c -0.34735,0.46412 -1.27531,0.5224 -2.66357,-0.0765 -0.69413,-0.29944 -1.49746,-0.76974 -2.34294,-1.47419 -0.84547,-0.70445 -1.73388,-1.64384 -2.54691,-2.89121 -1.34373,-2.14419 -2.32758,-5.04322 -2.41456,-8.27775 -0.0855,-2.9081 0.39072,-6.01949 1.32893,-9.00912 0.9351,-3.03766 2.27541,-6.08333 3.87334,-9.01411 0.68325,-1.25534 1.41234,-2.50528 2.18164,-3.74496 3.20857,-5.17038 6.72938,-9.58002 9.94974,-13.26305 3.82858,-4.39509 7.27693,-7.77308 9.90343,-10.01152 2.62649,-2.23844 4.47788,-3.31644 5.27115,-2.75757 0.79327,0.55887 0.40309,2.70821 -1.03338,5.9179 -1.43648,3.20969 -3.95325,7.44147 -7.02805,12.2099 -2.60801,4.05354 -5.65383,8.47414 -8.5718,13.17454 -0.69962,1.12699 -1.37242,2.24125 -2.01414,3.34267 -1.49181,2.56496 -2.79586,4.98835 -3.79462,7.30306 -0.96946,2.29028 -1.69287,4.36063 -2.01391,6.24785 -0.34465,2.01071 -0.34338,3.83667 -0.0338,5.3466 0.31313,1.79121 1.07234,3.31554 1.56233,4.49057 0.49,1.17503 0.73445,2.02273 0.3871,2.48685 z"
       id="path3004"
       inkscape:path-effect="#path-effect3006"
       inkscape:original-d="m 608.57143,620.93361 c -18.04008,-13.50126 9.36288,-41.81578 22.54025,-60.51994"
       inkscape:connector-curvature="0"
       sodipodi:nodetypes="cc" />
    <path
       style="fill:#000000;fill-rule:evenodd;stroke:none"
       d="m 71.91878,504.45428 c 0.394143,-0.74654 3.425004,-0.1017 8.383145,1.95135 4.958142,2.05305 11.859426,5.51934 19.573013,10.89239 4.015552,2.79423 8.238922,6.12862 12.400262,10.07587 4.16134,3.94725 8.25881,8.50907 11.96701,13.72265 1.63413,2.30443 3.17737,4.73231 4.6056,7.26938 2.52049,4.47733 4.56209,9.08433 6.13348,13.67038 1.57139,4.58605 2.67281,9.15042 3.35621,13.55777 1.01765,6.69818 1.11415,12.9285 0.73497,18.4223 -0.37918,5.49379 -1.23022,10.25316 -2.18601,14.11463 -0.9558,3.86147 -2.0148,6.82887 -2.92777,8.7981 -0.91298,1.96923 -1.67884,2.94393 -2.18348,2.82104 -0.50464,-0.12289 -0.71382,-1.33339 -0.73436,-3.45723 -0.0205,-2.12384 0.14592,-5.16487 0.28437,-8.957 0.13845,-3.79214 0.24825,-8.33784 0.0204,-13.42999 -0.22787,-5.09215 -0.79536,-10.73055 -2.08748,-16.64975 -1.66822,-7.76438 -4.6466,-16.03167 -9.12454,-23.98399 -1.26871,-2.25308 -2.62119,-4.42001 -4.03959,-6.491 -3.2242,-4.72315 -6.78971,-8.97606 -10.41407,-12.79793 -3.62437,-3.82188 -7.305664,-7.21296 -10.799178,-10.21272 -6.722337,-5.76571 -12.758669,-10.11222 -16.914521,-13.31334 -4.155852,-3.20112 -6.441584,-5.25637 -6.047441,-6.00291 z"
       id="path3008"
       inkscape:path-effect="#path-effect3010"
       inkscape:original-d="m 71.91878,504.45428 c 32.83939,17.33786 75.87332,49.52239 59.85643,115.29586"
       inkscape:connector-curvature="0"
       sodipodi:nodetypes="cc" />
    <path
       style="fill:#000000;fill-rule:evenodd;stroke:none"
       d="m 148.57143,623.79075 c -0.0216,-0.68966 6.27703,-1.54397 17.68593,-2.50909 11.40889,-0.96512 27.9285,-2.04701 48.35416,-3.15503 20.42565,-1.10801 44.75811,-2.24461 71.78823,-3.21388 27.03012,-0.96927 56.75843,-1.76733 87.96134,-2.10303 31.20291,-0.33571 60.93905,-0.15511 87.97585,0.49682 27.0368,0.65194 51.37354,1.7729 71.79051,3.10138 20.41697,1.32849 36.91416,2.8531 48.2907,4.19906 11.37654,1.34596 17.6333,2.49569 17.58185,3.18377 -0.0515,0.68808 -6.40404,0.84978 -17.83674,0.69801 -11.43271,-0.15178 -27.94615,-0.59945 -48.3387,-1.02209 -20.39254,-0.42264 -44.66514,-0.80891 -71.62323,-0.95218 -26.95809,-0.14327 -56.60245,-0.0413 -87.73226,0.29597 -31.12982,0.33729 -60.81218,0.85576 -87.82513,1.31845 -27.01294,0.46268 -51.35572,0.86576 -71.8058,1.06793 -20.45008,0.20217 -37.00725,0.20595 -48.45587,-0.0252 -11.44862,-0.23113 -17.78919,-0.69124 -17.81084,-1.3809 z"
       id="path3012"
       inkscape:path-effect="#path-effect3014"
       inkscape:original-d="m 148.57143,623.79075 c 152.87537,-4.79836 306.3752,-10.84564 451.42857,0"
       inkscape:connector-curvature="0"
       sodipodi:nodetypes="cc" />
    <path
       style="fill:#000000;fill-rule:evenodd;stroke:none"
       d="m 211.42857,166.6479 c 0.71184,-0.10547 2.06695,4.47953 4.05831,12.79257 0.99568,4.15652 2.15451,9.24666 3.41782,15.17409 1.2633,5.92742 2.63436,12.69194 3.94052,20.22255 2.79696,16.13248 5.12868,35.73868 5.57362,57.58218 0.31377,15.59981 -0.2557,32.26895 -1.66074,49.50031 -0.91177,11.18186 -2.11935,22.05385 -3.484,32.49284 0,0 0,0 0,10e-6 -2.29161,17.54389 -5.0134,33.89766 -7.78509,48.54872 -2.7717,14.65106 -5.59051,27.60044 -8.13807,38.34393 -2.54756,10.74349 -4.82395,19.28181 -6.59203,25.10583 -1.76809,5.82403 -3.02869,8.93411 -3.61605,8.8084 -0.58736,-0.12571 -0.45339,-3.47685 0.26796,-9.51126 0.72136,-6.03441 2.03091,-14.75245 3.72445,-25.62262 1.69353,-10.87018 3.77107,-23.89242 5.94877,-38.54393 2.17769,-14.65152 4.45268,-30.93216 6.48186,-48.32957 0,-10e-6 0,-10e-6 1e-5,-2e-5 1.20604,-10.34969 2.32372,-21.09168 3.22358,-32.10595 1.38668,-16.97312 2.12472,-33.31438 2.13756,-48.59419 0.0241,-21.33641 -1.51391,-40.62083 -3.30773,-56.64303 -0.83881,-7.49321 -1.70597,-14.29941 -2.42958,-20.30243 -0.7236,-6.00302 -1.30684,-11.20203 -1.69411,-15.47071 -0.77455,-8.53736 -0.7789,-13.34225 -0.0671,-13.44772 z"
       id="path3016"
       inkscape:path-effect="#path-effect3018"
       inkscape:original-d="m 211.42857,166.6479 c 9.83336,66.36899 27.58021,112.95425 -14.28571,308.57143"
       inkscape:connector-curvature="0"
       sodipodi:nodetypes="cc" />
    <path
       style="fill:#000000;fill-rule:evenodd;stroke:none"
       d="m 477.05365,512.9416 c -0.21957,-0.14758 0.18111,-1.19414 1.108,-3.09126 0.9269,-1.89712 2.38061,-4.64648 4.18122,-8.24293 1.8006,-3.59645 3.94981,-8.04171 6.16348,-13.3482 2.21368,-5.3065 4.49372,-11.47574 6.42405,-18.51319 1.57926,-5.74695 2.91318,-12.0777 3.76775,-18.92116 0.85457,-6.84346 1.22947,-14.20053 0.87186,-21.93019 -0.28648,-6.28923 -1.05635,-12.82722 -2.35101,-19.53376 -1.29466,-6.70654 -3.11432,-13.5817 -5.46065,-20.52093 -3.79988,-14.1591 -9.40997,-28.73133 -16.47008,-43.35343 28.17824,1.76676 58.62101,3.65304 90.33235,5.6634 35.2119,2.23228 68.85049,4.42615 99.55827,6.56497 0,10e-6 0,10e-6 10e-6,2e-5 6.21386,14.3422 10.91254,28.66618 13.89422,42.4081 2.98168,13.74192 4.24911,26.90069 4.00842,39.05842 -0.5705,13.73129 -3.05888,25.92659 -6.17533,36.33453 -3.11645,10.40793 -6.86152,19.0381 -10.3154,25.87085 -3.45387,6.83276 -6.61907,11.87985 -8.91956,15.19064 -2.3005,3.31079 -3.73682,4.89569 -4.04907,4.70277 -0.31225,-0.19292 0.51364,-2.15354 2.19245,-5.76938 1.6788,-3.61584 4.21022,-8.89799 7.02094,-15.83276 2.81073,-6.93477 5.90336,-15.53363 8.39436,-25.70853 2.491,-10.1749 4.38175,-21.93437 4.44528,-34.9636 0.31378,-11.24461 -0.69664,-23.32848 -3.22046,-35.93194 -2.52382,-12.60346 -6.56329,-25.72681 -11.91937,-38.92172 0,-10e-6 -1e-5,-10e-6 -1e-5,-2e-5 -29.58572,-2.49914 -61.6673,-5.36066 -95.22631,-8.41845 -30.22278,-2.75381 -59.23982,-5.44136 -86.31163,-7.9246 8.81966,12.56537 15.95649,25.47258 20.97538,38.35149 2.31605,7.35547 4.0535,14.65556 5.22382,21.77819 1.17032,7.12263 1.77379,14.0678 1.86195,20.73928 0.1031,8.20817 -0.58622,15.95796 -1.78881,23.11243 -1.2026,7.15446 -2.91798,13.71458 -4.89018,19.61668 -2.41567,7.21779 -5.17709,13.43916 -7.86162,18.70966 -2.68452,5.2705 -5.29403,9.59179 -7.54445,13.00972 -2.25043,3.41792 -4.14353,5.93409 -5.50581,7.5699 -1.36229,1.63581 -2.19449,2.39258 -2.41406,2.245 z"
       id="path3020"
       inkscape:path-effect="#path-effect3022"
       inkscape:original-d="m 477.05365,512.9416 c 38.24494,-56.90105 31.75372,-112.08148 0.0892,-166.2937 l 185.71428,14.28571 c 21.47451,51.11052 25.66046,103.86756 -9.23495,160.34664"
       inkscape:connector-curvature="0"
       sodipodi:nodetypes="cccc" />
    <path
       style="fill:#000000;fill-rule:evenodd;stroke:none"
       d="m 182.83761,515.97118 c -0.18589,-0.66449 3.94128,-2.52259 11.61688,-5.20357 7.67561,-2.68097 18.90374,-6.18303 32.9481,-9.92779 14.04435,-3.74477 30.90872,-7.72742 49.82468,-11.20309 18.91597,-3.47567 39.88581,-6.43188 62.06281,-8.08613 1.27306,-0.095 2.54319,-0.18514 3.81021,-0.27055 21.7654,-1.46885 42.60898,-1.40377 61.44284,-0.17334 18.83386,1.23043 35.65451,3.6144 49.59583,6.36191 13.94131,2.74751 25.01056,5.83258 32.5348,8.32871 3.76212,1.24806 6.64036,2.34915 8.55589,3.21106 1.91553,0.86192 2.86882,1.48349 2.77555,1.8105 -0.18654,0.65401 -4.52942,0.0323 -12.2651,-1.30016 -7.73569,-1.33245 -18.87781,-3.33962 -32.73327,-5.15831 -13.85546,-1.81869 -30.43321,-3.42478 -48.9336,-4.11381 -18.50039,-0.68902 -38.92303,-0.45184 -60.29584,1.00773 -1.24538,0.0851 -2.49401,0.17412 -3.74571,0.26695 -21.80495,1.61705 -42.4907,4.25468 -61.25826,7.19565 -18.76755,2.94096 -35.6166,6.17316 -49.76171,9.01238 -14.14511,2.83921 -25.58785,5.28083 -33.54768,6.79809 -7.95984,1.51725 -12.44053,2.10826 -12.62642,1.44377 z"
       id="path3024"
       inkscape:path-effect="#path-effect3026"
       inkscape:original-d="M 182.83761,515.97118 C 291.34389,485.61734 397.54541,472.16515 498.0052,500.81889"
       inkscape:connector-curvature="0"
       sodipodi:nodetypes="cc" />
    <path
       style="fill:#000000;fill-rule:evenodd;stroke:none"
       d="m 472.75139,519.00164 c -0.1075,-0.40393 0.76839,-1.04417 2.46104,-1.95154 1.69265,-0.90737 4.19835,-2.09117 7.35651,-3.65434 3.15817,-1.56316 6.96623,-3.51535 11.3178,-5.88522 4.35156,-2.36986 9.2459,-5.16404 14.65585,-8.21212 5.20124,-2.95412 10.92983,-6.15473 17.25563,-9.22126 6.32581,-3.06652 13.25144,-5.99626 20.88257,-8.1897 5.39685,-1.53618 11.09996,-2.64599 16.99488,-3.16993 1.80826,-0.16072 3.61279,-0.26443 5.4094,-0.31081 8.96603,-0.21862 17.57223,0.97945 25.43889,3.00872 11.11008,2.87037 20.73593,7.21526 28.77621,11.60967 0,0 0,1e-5 0,1e-5 5.302,2.89561 9.94297,5.8213 13.92284,8.55541 3.97987,2.7341 7.29917,5.27693 9.9419,7.46289 5.28545,4.37193 7.89017,7.28089 7.41394,7.93791 -0.47623,0.65702 -3.98367,-1.00826 -9.93292,-4.19276 -2.97462,-1.59225 -6.56498,-3.55573 -10.72563,-5.72556 -4.16064,-2.16983 -8.89154,-4.54614 -14.16523,-6.91159 0,0 0,0 -1e-5,0 -7.99351,-3.58188 -17.22295,-7.18126 -27.46759,-9.45913 -7.22898,-1.61001 -14.98245,-2.55187 -22.92621,-2.30267 -1.59047,0.0473 -3.19157,0.14281 -4.8002,0.2859 -5.24413,0.46646 -10.3634,1.42028 -15.26187,2.71947 -6.94641,1.82125 -13.47475,4.37601 -19.64046,7.06331 -6.16571,2.68729 -11.96821,5.50348 -17.37766,8.0507 -5.62165,2.67149 -10.87069,5.05008 -15.60545,6.94433 -4.73476,1.89425 -8.95207,3.31012 -12.4733,4.26873 -3.52123,0.95862 -6.34313,1.46947 -8.29921,1.64825 -1.95609,0.17878 -3.04422,0.0353 -3.15172,-0.36867 z"
       id="path3028"
       inkscape:path-effect="#path-effect3030"
       inkscape:original-d="m 472.75139,519.00164 c 53.7887,-14.31434 86.23841,-71.30667 181.82746,-2.02031"
       inkscape:connector-curvature="0"
       sodipodi:nodetypes="cc" />
    <path
       style="fill:#000000;fill-rule:evenodd;stroke:none"
       d="M 219.2031,496.77828 C 217.01479,498.46021 173.15177,445.0669 121.29458,377.5968 69.437387,310.12669 29.126415,254.0033 31.314729,252.32137 c 2.188314,-1.68193 46.051333,51.71138 97.908521,119.18148 51.85719,67.47011 92.16816,123.5935 89.97985,125.27543 z"
       id="path3032"
       inkscape:path-effect="#path-effect3034"
       inkscape:original-d="M 219.2031,496.77828 31.314729,252.32137"
       inkscape:connector-curvature="0" />
    <path
       style="fill:#000000;fill-rule:evenodd;stroke:none"
       d="m 179.80715,463.44325 c -0.085,0.384 -1.60448,0.41531 -4.38572,0.27867 -2.78125,-0.13664 -6.82838,-0.4289 -11.99808,-0.52152 -5.16969,-0.0926 -11.46707,0.0262 -18.70661,0.69793 -7.23954,0.67174 -15.42529,1.905 -24.25938,3.87267 -11.02675,1.97836 -23.118818,4.88174 -35.893528,8.84479 -12.77471,3.96304 -26.232305,8.98618 -39.992607,14.84346 3.974509,-6.29255 7.863768,-12.8499 11.526939,-19.66612 6.734315,-12.53084 12.267182,-25.19847 16.227602,-37.75763 2.861815,-7.3685 5.053132,-14.73767 6.566464,-21.92961 1.513333,-7.19194 2.348715,-14.20643 2.571623,-20.90578 0.250116,-7.02727 -0.162833,-13.72828 -0.864292,-19.99648 -0.70146,-6.26821 -1.69188,-12.10355 -2.716722,-17.42367 -10e-7,0 -10e-7,-1e-5 -2e-6,-1e-5 -1.092669,-5.65085 -2.210797,-10.7488 -3.156552,-15.23385 -0.945754,-4.48504 -1.723643,-8.35582 -2.275225,-11.53132 -1.103165,-6.351 -1.319521,-9.90539 -0.730229,-10.04365 0.589292,-0.13826 1.929748,3.12764 4.06386,9.17309 1.067057,3.02272 2.33841,6.74161 3.760366,11.11372 1.421956,4.37211 2.999139,9.39655 4.544762,15.0768 0,10e-6 10e-7,10e-6 2e-6,10e-6 1.462053,5.36076 2.867791,11.31689 3.94974,17.83082 1.081949,6.51394 1.840427,13.58631 1.886428,21.15289 0.02827,7.21683 -0.620299,14.79071 -2.030189,22.54801 -1.409889,7.75731 -3.581382,15.6975 -6.520614,23.60544 -5.311234,11.85674 -12.440042,23.54974 -20.84176,34.88509 -4.570164,6.16593 -9.356856,12.03099 -14.190921,17.61849 12.839515,-7.3817 25.550328,-13.77893 37.780485,-18.80787 12.230156,-5.02894 23.97717,-8.6894 34.8232,-11.03712 9.27141,-1.61333 17.87413,-2.36136 25.44148,-2.47066 7.56735,-0.10929 14.1022,0.41069 19.39444,1.1785 5.29224,0.76781 9.34683,1.77145 12.04999,2.63766 2.70317,0.8662 4.06008,1.58325 3.97505,1.96725 z"
       id="path3036"
       inkscape:path-effect="#path-effect3038"
       inkscape:original-d="m 179.80715,463.44325 c -35.639,-7.89114 -79.858582,0.15309 -134.350285,27.27412 60.889205,-82.12074 37.657623,-125.1854 26.263966,-173.74624"
       inkscape:connector-curvature="0"
       sodipodi:nodetypes="ccc" />
    <path
       style="fill:#000000;fill-rule:evenodd;stroke:none"
       d="m 346.48232,119.99138 c 2.75999,-0.006 5.22626,100.22817 5.50507,223.7375 0.2788,123.50934 -1.73492,223.75385 -4.49491,223.76008 -2.75999,0.006 -5.22626,-100.22817 -5.50507,-223.7375 -0.2788,-123.50934 1.73492,-223.75385 4.49491,-223.76008 z"
       id="path3040"
       inkscape:path-effect="#path-effect3042"
       inkscape:original-d="m 346.48232,119.99138 1.01016,447.49758"
       inkscape:connector-curvature="0" />
    <path
       style="fill:#000000;fill-rule:evenodd;stroke:none"
       d="m 551.54329,559.40774 c -2.75225,-0.20669 -0.68675,-57.6218 4.61049,-128.15873 5.29724,-70.53694 11.83016,-127.61655 14.58241,-127.40986 2.75225,0.20669 0.68675,57.6218 -4.61049,128.15873 -5.29724,70.53694 -11.83016,127.61655 -14.58241,127.40986 z"
       id="path3044"
       inkscape:path-effect="#path-effect3046"
       inkscape:original-d="m 551.54329,559.40774 19.1929,-255.56859"
       inkscape:connector-curvature="0" />
    <path
       style="fill:#000000;fill-rule:evenodd;stroke:none"
       d="m 119.198,286.66655 c 2.75653,-0.1384 7.709,53.8288 11.05462,120.4625 3.34563,66.6337 3.82374,120.82556 1.06721,120.96396 -2.75653,0.1384 -7.709,-53.8288 -11.05462,-120.4625 -3.34563,-66.6337 -3.82374,-120.82556 -1.06721,-120.96396 z"
       id="path3048"
       inkscape:path-effect="#path-effect3050"
       inkscape:original-d="m 119.198,286.66655 12.12183,241.42646"
       inkscape:connector-curvature="0" />
  </g>
</svg>
