<?xml version="1.0" encoding="UTF-8" standalone="no"?>
<!-- Created with Inkscape (http://www.inkscape.org/) -->

<svg
   xmlns:dc="http://purl.org/dc/elements/1.1/"
   xmlns:cc="http://creativecommons.org/ns#"
   xmlns:rdf="http://www.w3.org/1999/02/22-rdf-syntax-ns#"
   xmlns:svg="http://www.w3.org/2000/svg"
   xmlns="http://www.w3.org/2000/svg"
   xmlns:sodipodi="http://sodipodi.sourceforge.net/DTD/sodipodi-0.dtd"
   xmlns:inkscape="http://www.inkscape.org/namespaces/inkscape"
   width="744.09448819"
   height="1052.3622047"
   id="svg3112"
   version="1.1"
   inkscape:version="0.48.5 r10040"
   sodipodi:docname="galleon.svg">
  <defs
     id="defs3114">
    <inkscape:path-effect
       effect="skeletal"
       id="path-effect3189"
       is_visible="true"
       pattern="M 0,5 C 0,2.24 2.24,0 5,0 7.76,0 10,2.24 10,5 10,7.76 7.76,10 5,10 2.24,10 0,7.76 0,5 z"
       copytype="single_stretched"
       prop_scale="1"
       scale_y_rel="false"
       spacing="0"
       normal_offset="0"
       tang_offset="0"
       prop_units="false"
       vertical_pattern="false"
       fuse_tolerance="0" />
    <inkscape:path-effect
       effect="skeletal"
       id="path-effect3185"
       is_visible="true"
       pattern="M 0,5 C 0,2.24 2.24,0 5,0 7.76,0 10,2.24 10,5 10,7.76 7.76,10 5,10 2.24,10 0,7.76 0,5 z"
       copytype="single_stretched"
       prop_scale="1"
       scale_y_rel="false"
       spacing="0"
       normal_offset="0"
       tang_offset="0"
       prop_units="false"
       vertical_pattern="false"
       fuse_tolerance="0" />
    <inkscape:path-effect
       effect="skeletal"
       id="path-effect3181"
       is_visible="true"
       pattern="M 0,5 C 0,2.24 2.24,0 5,0 7.76,0 10,2.24 10,5 10,7.76 7.76,10 5,10 2.24,10 0,7.76 0,5 z"
       copytype="single_stretched"
       prop_scale="1"
       scale_y_rel="false"
       spacing="0"
       normal_offset="0"
       tang_offset="0"
       prop_units="false"
       vertical_pattern="false"
       fuse_tolerance="0" />
    <inkscape:path-effect
       effect="skeletal"
       id="path-effect3177"
       is_visible="true"
       pattern="M 0,5 C 0,2.24 2.24,0 5,0 7.76,0 10,2.24 10,5 10,7.76 7.76,10 5,10 2.24,10 0,7.76 0,5 z"
       copytype="single_stretched"
       prop_scale="1"
       scale_y_rel="false"
       spacing="0"
       normal_offset="0"
       tang_offset="0"
       prop_units="false"
       vertical_pattern="false"
       fuse_tolerance="0" />
    <inkscape:path-effect
       effect="skeletal"
       id="path-effect3173"
       is_visible="true"
       pattern="M 0,5 C 0,2.24 2.24,0 5,0 7.76,0 10,2.24 10,5 10,7.76 7.76,10 5,10 2.24,10 0,7.76 0,5 z"
       copytype="single_stretched"
       prop_scale="1"
       scale_y_rel="false"
       spacing="0"
       normal_offset="0"
       tang_offset="0"
       prop_units="false"
       vertical_pattern="false"
       fuse_tolerance="0" />
    <inkscape:path-effect
       effect="skeletal"
       id="path-effect3169"
       is_visible="true"
       pattern="M 0,5 C 0,2.24 2.24,0 5,0 7.76,0 10,2.24 10,5 10,7.76 7.76,10 5,10 2.24,10 0,7.76 0,5 z"
       copytype="single_stretched"
       prop_scale="1"
       scale_y_rel="false"
       spacing="0"
       normal_offset="0"
       tang_offset="0"
       prop_units="false"
       vertical_pattern="false"
       fuse_tolerance="0" />
    <inkscape:path-effect
       effect="skeletal"
       id="path-effect3165"
       is_visible="true"
       pattern="M 0,5 C 0,2.24 2.24,0 5,0 7.76,0 10,2.24 10,5 10,7.76 7.76,10 5,10 2.24,10 0,7.76 0,5 z"
       copytype="single_stretched"
       prop_scale="1"
       scale_y_rel="false"
       spacing="0"
       normal_offset="0"
       tang_offset="0"
       prop_units="false"
       vertical_pattern="false"
       fuse_tolerance="0" />
    <inkscape:path-effect
       effect="skeletal"
       id="path-effect3161"
       is_visible="true"
       pattern="M 0,5 C 0,2.24 2.24,0 5,0 7.76,0 10,2.24 10,5 10,7.76 7.76,10 5,10 2.24,10 0,7.76 0,5 z"
       copytype="single_stretched"
       prop_scale="1"
       scale_y_rel="false"
       spacing="0"
       normal_offset="0"
       tang_offset="0"
       prop_units="false"
       vertical_pattern="false"
       fuse_tolerance="0" />
    <inkscape:path-effect
       effect="skeletal"
       id="path-effect3157"
       is_visible="true"
       pattern="M 0,5 C 0,2.24 2.24,0 5,0 7.76,0 10,2.24 10,5 10,7.76 7.76,10 5,10 2.24,10 0,7.76 0,5 z"
       copytype="single_stretched"
       prop_scale="1"
       scale_y_rel="false"
       spacing="0"
       normal_offset="0"
       tang_offset="0"
       prop_units="false"
       vertical_pattern="false"
       fuse_tolerance="0" />
    <inkscape:path-effect
       effect="skeletal"
       id="path-effect3153"
       is_visible="true"
       pattern="M 0,5 C 0,2.24 2.24,0 5,0 7.76,0 10,2.24 10,5 10,7.76 7.76,10 5,10 2.24,10 0,7.76 0,5 z"
       copytype="single_stretched"
       prop_scale="1"
       scale_y_rel="false"
       spacing="0"
       normal_offset="0"
       tang_offset="0"
       prop_units="false"
       vertical_pattern="false"
       fuse_tolerance="0" />
    <inkscape:path-effect
       effect="skeletal"
       id="path-effect3149"
       is_visible="true"
       pattern="M 0,5 C 0,2.24 2.24,0 5,0 7.76,0 10,2.24 10,5 10,7.76 7.76,10 5,10 2.24,10 0,7.76 0,5 z"
       copytype="single_stretched"
       prop_scale="1"
       scale_y_rel="false"
       spacing="0"
       normal_offset="0"
       tang_offset="0"
       prop_units="false"
       vertical_pattern="false"
       fuse_tolerance="0" />
    <inkscape:path-effect
       effect="skeletal"
       id="path-effect3145"
       is_visible="true"
       pattern="M 0,5 C 0,2.24 2.24,0 5,0 7.76,0 10,2.24 10,5 10,7.76 7.76,10 5,10 2.24,10 0,7.76 0,5 z"
       copytype="single_stretched"
       prop_scale="1"
       scale_y_rel="false"
       spacing="0"
       normal_offset="0"
       tang_offset="0"
       prop_units="false"
       vertical_pattern="false"
       fuse_tolerance="0" />
    <inkscape:path-effect
       effect="skeletal"
       id="path-effect3141"
       is_visible="true"
       pattern="M 0,5 C 0,2.24 2.24,0 5,0 7.76,0 10,2.24 10,5 10,7.76 7.76,10 5,10 2.24,10 0,7.76 0,5 z"
       copytype="single_stretched"
       prop_scale="1"
       scale_y_rel="false"
       spacing="0"
       normal_offset="0"
       tang_offset="0"
       prop_units="false"
       vertical_pattern="false"
       fuse_tolerance="0" />
    <inkscape:path-effect
       effect="skeletal"
       id="path-effect3137"
       is_visible="true"
       pattern="M 0,5 C 0,2.24 2.24,0 5,0 7.76,0 10,2.24 10,5 10,7.76 7.76,10 5,10 2.24,10 0,7.76 0,5 z"
       copytype="single_stretched"
       prop_scale="1"
       scale_y_rel="false"
       spacing="0"
       normal_offset="0"
       tang_offset="0"
       prop_units="false"
       vertical_pattern="false"
       fuse_tolerance="0" />
    <inkscape:path-effect
       effect="skeletal"
       id="path-effect3133"
       is_visible="true"
       pattern="M 0,5 C 0,2.24 2.24,0 5,0 7.76,0 10,2.24 10,5 10,7.76 7.76,10 5,10 2.24,10 0,7.76 0,5 z"
       copytype="single_stretched"
       prop_scale="1"
       scale_y_rel="false"
       spacing="0"
       normal_offset="0"
       tang_offset="0"
       prop_units="false"
       vertical_pattern="false"
       fuse_tolerance="0" />
  </defs>
  <sodipodi:namedview
     id="base"
     pagecolor="#ffffff"
     bordercolor="#666666"
     borderopacity="1.0"
     inkscape:pageopacity="0.0"
     inkscape:pageshadow="2"
     inkscape:zoom="0.98994949"
     inkscape:cx="460.20451"
     inkscape:cy="567.6526"
     inkscape:document-units="px"
     inkscape:current-layer="layer1"
     showgrid="false"
     inkscape:window-width="1848"
     inkscape:window-height="1055"
     inkscape:window-x="67"
     inkscape:window-y="-5"
     inkscape:window-maximized="1" />
  <metadata
     id="metadata3117">
    <rdf:RDF>
      <cc:Work
         rdf:about="">
        <dc:format>image/svg+xml</dc:format>
        <dc:type
           rdf:resource="http://purl.org/dc/dcmitype/StillImage" />
        <dc:title></dc:title>
      </cc:Work>
    </rdf:RDF>
  </metadata>
  <g
     inkscape:label="Layer 1"
     inkscape:groupmode="layer"
     id="layer1">
    <path
       style="fill:#000000;fill-rule:evenodd;stroke:none"
       d="m 305.06607,599.81384 c 0.0703,-0.25145 1.80884,-0.0235 5.09998,0.60143 3.29113,0.62496 8.13577,1.64583 14.43673,2.89861 6.30097,1.25279 14.05941,2.73669 23.18052,4.22057 9.1211,1.48387 19.60601,2.96707 31.34492,4.16212 10.00595,1.0176 20.92485,1.83539 32.65023,2.17615 11.72538,0.34075 24.25768,0.20488 37.4524,-0.76879 9.53177,-0.70782 19.41693,-1.83081 29.48704,-3.64972 10.0701,-1.8189 20.32521,-4.33369 30.54541,-7.89817 10e-6,-1e-5 2e-5,-1e-5 3e-5,-1e-5 7.74388,-2.71537 15.49528,-6.02713 22.87201,-10.16508 7.37674,-4.13795 14.37862,-9.10219 20.54477,-15.15845 3.3408,-3.23341 7.21194,-5.81763 11.32301,-7.78452 1e-5,-10e-6 2e-5,-10e-6 3e-5,-2e-5 4.27694,-2.04889 8.75399,-3.51157 13.24782,-4.59079 9.69174,-2.32759 19.60213,-3.19641 29.36345,-3.9647 9.78305,-0.79404 19.54267,-1.40373 29.03645,-3.14278 9.66739,-0.88459 19.20876,-2.44079 27.06987,-6.31491 -0.41617,21.18817 -0.83095,42.87078 -1.26334,64.90616 -0.0346,1.76286 -0.0692,3.52338 -0.10385,5.28147 -11.27368,4.26066 -22.44067,8.47683 -33.48263,12.64332 0.97953,9.87005 1.94878,19.64187 2.90863,29.30381 -55.72443,0.21925 -107.94005,0.38099 -154.42149,0.50566 -46.48143,0.12467 -87.22778,0.21242 -120.15094,0.26281 0.96297,-3.89069 1.50633,-7.76925 1.27452,-11.49601 0.19735,-2.7023 -0.22382,-5.39802 -1.15813,-7.80333 -1.07879,-2.92756 -2.89981,-5.4652 -5.01531,-7.72457 -2.1155,-2.25937 -4.52654,-4.24021 -6.91541,-6.02584 -3.70682,-2.7217 -7.45316,-4.95063 -11.03896,-6.91069 -3.5858,-1.96006 -7.01249,-3.6493 -10.16396,-5.18663 0,0 -10e-6,-10e-6 -10e-6,-10e-6 -3.92156,-1.90952 -7.43588,-3.55438 -10.47456,-4.9969 -3.03869,-1.44253 -5.60298,-2.68004 -7.65704,-3.71553 -4.10812,-2.07098 -6.17715,-3.32323 -6.05311,-3.60374 0.12404,-0.28051 2.4302,0.41995 6.75874,1.95103 2.16427,0.76554 4.83577,1.73658 7.98955,2.92153 3.15378,1.18494 6.79096,2.58106 10.86516,4.26094 10e-6,0 10e-6,1e-5 10e-6,1e-5 3.26661,1.34383 6.83661,2.86087 10.62561,4.69329 3.78899,1.83242 7.79845,3.97829 11.87006,6.69227 2.66057,1.74299 5.39516,3.80948 7.90217,6.34628 2.50702,2.53679 4.78753,5.54366 6.41173,9.20418 1.33472,3.12505 2.0129,6.62123 1.87071,10.21159 -0.61181,3.31614 -2.16009,6.52109 -4.31801,9.39271 32.64974,-0.43895 72.53835,-0.95296 117.66138,-1.5119 45.12303,-0.55895 95.48139,-1.16268 149.20792,-1.7602 -1.56005,-9.56555 -3.13879,-19.23528 -4.73234,-28.99826 11.01323,-4.48225 22.15876,-9.01572 33.41867,-13.5914 0.15092,-1.5385 0.30212,-3.07899 0.45358,-4.62145 1.89328,-19.28044 3.76623,-38.23981 5.58901,-56.82682 -7.1231,6.40882 -15.3538,9.8974 -23.20103,12.15095 -10.25882,1.80009 -20.32992,2.39282 -30.02368,3.10043 -9.74742,0.73584 -19.15105,1.45139 -27.92198,3.52279 -4.04065,0.95423 -7.90632,2.15892 -11.42814,3.82797 -10e-6,0 -2e-5,10e-6 -2e-5,10e-6 -3.35358,1.59178 -6.43115,3.5729 -8.94772,5.99537 -6.94453,6.60341 -14.63192,11.94978 -22.60975,16.32818 -7.97782,4.37841 -16.24595,7.78901 -24.43227,10.48733 -10e-6,0 -2e-5,10e-6 -3e-5,10e-6 -10.77554,3.57067 -21.48716,6.02764 -31.93133,7.73811 -10.44418,1.71048 -20.62104,2.67449 -30.3798,3.18647 -13.5161,0.71536 -26.29376,0.55925 -38.20372,-0.0976 -11.90996,-0.65687 -22.95277,-1.81485 -33.03718,-3.1885 -11.83317,-1.61063 -22.36112,-3.52891 -31.48328,-5.46063 -9.12216,-1.93171 -16.83968,-3.87619 -23.06899,-5.59843 -6.2293,-1.72224 -10.97155,-3.22146 -14.14259,-4.3326 -3.17103,-1.11114 -4.77178,-1.83311 -4.70152,-2.08456 z"
       id="path3131"
       inkscape:path-effect="#path-effect3133"
       inkscape:original-d="m 305.06607,599.81384 c 97.4807,27.23877 203.98797,24.92433 250.80225,-20.27955 23.50405,-22.6955 77.54496,-7.82018 105.7816,-27.19762 l -3.70489,65.81795 -33.45065,13.11736 3.8205,29.15102 -270.72088,2.0203 c 13.83509,-29.97775 -25.88005,-42.10542 -58.58885,-56.56854"
       inkscape:connector-curvature="0"
       sodipodi:nodetypes="cscccccc" />
    <path
       style="fill:#000000;fill-rule:evenodd;stroke:none"
       d="m 275.77164,336.16403 c -0.19167,-0.85869 10.92012,-4.15051 30.89357,-8.84395 19.97345,-4.69345 48.81209,-10.78431 83.72586,-17.65552 -2.64533,9.23053 -4.22146,19.40796 -3.92215,30.12179 -0.51815,8.13273 0.24836,16.62467 2.21065,25.09066 1.38139,8.50905 3.79328,17.00503 6.89668,25.52638 3.1034,8.52134 6.89723,17.0684 10.91664,25.69839 -8.76466,-2.23076 -17.93241,-3.62845 -27.33434,-4.16492 -18.22671,-1.04001 -36.39197,1.2076 -53.22047,5.84873 -15.03909,3.09694 -29.09886,7.88818 -42.17248,13.4179 -13.07362,5.52972 -25.16113,11.79438 -36.25176,18.06891 -1.62134,-11.12122 -1.93151,-21.69197 -1.38841,-31.47597 0.5431,-9.784 1.93877,-18.78225 3.78885,-26.86947 0,0 0,-1e-5 0,-1e-5 2.56416,-9.19876 5.56797,-17.23625 8.51893,-24.11857 2.95095,-6.88233 5.851,-12.61091 8.36693,-17.18853 2.51594,-4.57762 4.64994,-8.00567 6.19625,-10.26235 1.5463,-2.25667 2.50593,-3.34316 2.77525,-3.19347 0.26932,0.14969 -0.16271,1.52925 -1.18479,4.04875 -1.02209,2.5195 -2.63517,6.18054 -4.63003,10.93319 -1.99486,4.75266 -4.37364,10.59835 -6.80471,17.50435 -2.43107,6.90599 -4.9164,14.8734 -6.97008,23.86755 0,0 0,10e-6 0,10e-6 -2.11887,7.54924 -3.99364,15.82215 -5.24826,24.67953 -1.25462,8.85738 -1.88872,18.3 -1.45255,28.09181 10.37651,-7.04063 21.68744,-14.16711 34.01487,-20.62738 12.32742,-6.46027 25.67266,-12.25079 40.11647,-16.37328 16.61617,-3.5484 34.62151,-4.33751 52.76615,-1.52821 9.35959,1.44913 18.50657,3.81705 27.27074,7.04973 -5.12242,-7.47783 -10.01884,-15.09348 -14.19733,-22.89275 -4.17849,-7.79927 -7.6379,-15.78222 -10.0129,-23.96024 -2.04509,-9.3361 -2.72628,-18.75596 -1.993,-27.82706 1.78362,-9.69157 5.41212,-18.79023 9.98018,-26.97417 -33.15691,8.32314 -60.88681,14.85919 -80.46424,18.99407 -19.57743,4.13488 -30.99885,5.87279 -31.19052,5.0141 z"
       id="path3135"
       inkscape:path-effect="#path-effect3137"
       inkscape:original-d="m 275.77164,336.16403 113.13709,-25.25382 c -16.45364,39.72216 -1.8654,72.28082 16.16244,104.04572 -55.30368,-17.23722 -106.62738,1.34532 -156.57364,32.32488 -3.64404,-37.03893 6.68766,-74.07785 27.27411,-111.11678 z"
       inkscape:connector-curvature="0"
       sodipodi:nodetypes="ccccc" />
    <path
       style="fill:#000000;fill-rule:evenodd;stroke:none"
       d="m 150.51273,456.37218 c -0.1505,-0.84925 7.64254,-3.01503 21.71323,-5.65805 14.07068,-2.64301 34.42158,-5.7581 59.1377,-9.00626 -2.67192,3.38052 -5.29061,7.0063 -7.4345,10.93065 -2.14389,3.92436 -3.81275,8.1472 -4.46914,12.74024 -0.71421,2.61441 -0.99183,5.37594 -0.68709,8.05507 0.26411,2.53591 1.06976,5.11953 2.24145,7.62633 2.5379,5.52594 7.00792,10.51381 12.05585,15.43697 4.56347,6.60127 9.85295,12.90241 15.36164,19.4204 -2.77292,-1.64104 -5.65962,-3.17613 -8.6522,-4.53993 -6.53229,-2.97696 -13.38708,-5.04287 -20.41986,-5.70636 -7.99051,-2.01006 -16.41462,-1.69297 -24.19786,0.18889 -8.74737,2.0993 -16.86035,6.08969 -24.39203,10.47903 -1e-5,0 -1e-5,0 -2e-5,0 -10.34616,4.79028 -19.60887,10.33141 -28.08688,15.67643 -1.59415,-6.92573 -3.24512,-13.6016 -4.45386,-19.93691 -1.20873,-6.3353 -1.97843,-12.32923 -2.1402,-17.88455 0.28292,-7.35792 1.57922,-13.83307 3.33145,-19.1305 1.19337,-3.05347 2.4838,-5.7093 3.71875,-7.98586 1.23496,-2.27656 2.41504,-4.17458 3.43955,-5.71458 2.04902,-3.08001 3.44054,-4.74666 3.8642,-5.03625 0.0696,0.0451 0.0698,0.0452 0.0698,0.0452 0,0 2.1e-4,1.4e-4 0.0698,0.0452 -0.0901,0.50334 -1.10262,2.38693 -2.48017,5.6796 -0.68877,1.64633 -1.462,3.64844 -2.202,6.01647 -0.73999,2.36802 -1.44734,5.10269 -1.96302,8.20433 -1.12153,5.05233 -1.80339,11.09874 -1.61029,17.91584 -0.22793,4.88405 -0.0526,10.13894 0.3643,15.78876 0.41691,5.64982 1.07868,11.69502 1.50893,18.18863 6.59593,-6.40512 13.71079,-13.26348 21.87235,-19.65006 1e-5,0 1e-5,0 1e-5,-1e-5 7.84035,-4.89385 16.69015,-9.41149 26.73049,-12.05155 9.09259,-2.37523 19.09282,-2.82229 28.91171,-0.48423 6.94531,2.74921 13.4322,7.0294 19.29287,12.30123 2.68489,2.41513 5.20449,5.00498 7.55546,7.6984 -7.67025,-3.88364 -15.31919,-7.85977 -22.32817,-12.47653 -5.46645,-5.26918 -10.56368,-11.3412 -13.86914,-18.506 -1.52826,-3.35699 -2.54384,-6.97833 -2.887,-10.70761 -0.34045,-3.97728 0.13055,-7.88509 1.23239,-11.50459 1.98465,-4.4728 4.87107,-8.28338 8.12263,-11.58188 3.25156,-3.29851 6.86808,-6.08516 10.432,-8.49599 -23.41969,5.28223 -42.96982,9.23821 -56.76621,11.53366 -13.79638,2.29546 -21.83646,2.93554 -21.98696,2.08629 z"
       id="path3139"
       inkscape:path-effect="#path-effect3141"
       inkscape:original-d="m 150.51273,456.37218 79.80205,-14.14213 c -33.96153,31.5408 -8.4318,52.7353 18.18275,73.74113 -38.40026,-32.48398 -71.95439,-11.66048 -105.05587,14.14214 -3.59587,-23.83627 -10.05088,-47.31514 7.07107,-73.74114 z"
       inkscape:connector-curvature="0"
       sodipodi:nodetypes="ccccc" />
    <path
       style="fill:#000000;fill-rule:evenodd;stroke:none"
       d="m 252.53814,476.57523 c -0.12573,-0.99539 19.43978,-4.36362 53.52563,-8.93638 34.08586,-4.57276 82.6958,-10.34523 140.22355,-16.7129 -4.33078,13.80209 -7.31804,28.77013 -7.88404,44.47095 -1.18823,11.95059 -0.76019,24.37627 1.24296,36.81959 0.94521,9.51328 2.744,19.0333 5.09593,28.60252 2.35192,9.56921 5.25632,19.18779 8.35063,28.90661 1.39779,4.39024 2.82028,8.76048 4.23078,13.11545 -15.92201,-11.00801 -32.28053,-20.7254 -49.24917,-27.90432 -6.99115,-3.5819 -14.1143,-6.67135 -21.28336,-9.03697 -7.16906,-2.36561 -14.38399,-4.00715 -21.56954,-4.74686 -7.08763,-0.74773 -14.16023,-0.5622 -20.96576,0.45827 -6.80553,1.02047 -13.34386,2.87582 -19.41722,5.46291 0,0 -10e-6,0 -2e-5,10e-6 -8.52816,3.29992 -16.25092,7.74989 -23.24772,12.76705 -6.9968,5.01716 -13.26765,10.60148 -18.89094,16.30204 -8.87432,-11.40298 -15.94985,-22.86586 -21.10254,-33.93627 -4.23247,-10.75393 -6.80102,-21.07443 -8.27774,-30.44577 -1.36631,-8.73647 -1.79957,-16.56941 -1.97279,-23.3865 -0.17321,-6.81709 -0.0725,-12.62022 0.0565,-17.32708 0.12894,-4.70686 0.29956,-8.31888 0.48543,-10.75833 0.18588,-2.43944 0.39636,-3.70677 0.64948,-3.71402 0.25312,-0.007 0.54028,1.24701 0.84157,3.6787 0.30129,2.43168 0.60755,6.04269 0.93966,10.73058 0.33212,4.6879 0.67671,10.45464 1.26851,17.15004 0.59179,6.6954 1.41688,14.32108 3.13154,22.65183 1.83157,8.95513 4.6795,18.7495 9.05839,28.87103 3.68111,10.34425 8.78398,21.02771 15.20776,31.70525 4.9014,-6.17193 10.46241,-12.2656 16.81089,-17.82867 6.34848,-5.56307 13.48466,-10.59549 21.53817,-14.51152 10e-6,0 2e-5,-10e-6 2e-5,-10e-6 6.72356,-2.98182 13.95937,-5.15612 21.50533,-6.39688 7.54596,-1.24076 15.40194,-1.54787 23.3106,-0.80223 7.93618,0.76617 15.835,2.47027 23.59837,4.93785 7.76336,2.46759 15.39117,5.69842 22.77739,9.46345 15.36424,9.34337 29.73699,21.33459 43.32798,34.60258 -1.90524,-3.99123 -3.83042,-8.02138 -5.73762,-12.09697 -4.22203,-9.02226 -8.26394,-18.08376 -11.74621,-27.23257 -3.48228,-9.14881 -6.40424,-18.385 -8.44859,-27.74049 -2.06921,-13.25962 -2.42145,-26.53903 -1.03972,-39.34853 2.56679,-14.48189 7.54332,-28.15294 13.76474,-40.67148 -55.79798,7.94716 -103.15253,14.29652 -136.69973,18.26688 -33.5472,3.97036 -53.28332,5.56655 -53.40905,4.57116 z"
       id="path3143"
       inkscape:path-effect="#path-effect3145"
       inkscape:original-d="M 252.53814,476.57523 444.46712,452.33157 C 420.238,512.76691 438.83416,557.14277 456.58895,601.83415 393.9061,550.2742 334.77944,535.16514 282.84271,593.75293 250.68819,547.3427 253.57018,512.6113 252.53814,476.57523 z"
       inkscape:connector-curvature="0"
       sodipodi:nodetypes="ccccc" />
    <path
       style="fill:#000000;fill-rule:evenodd;stroke:none"
       d="m 462.64987,561.42805 c -0.14992,-0.21025 0.42165,-0.93991 1.70773,-2.12248 1.28608,-1.18258 3.28753,-2.82265 6.05795,-4.74308 2.77043,-1.92043 6.31125,-4.12854 10.71967,-6.24466 4.40842,-2.11613 9.68616,-4.14788 15.95041,-5.39908 0,0 0,0 1e-5,0 4.32534,-0.83732 9.03984,-1.20683 14.02779,-0.99091 4.98796,0.21592 10.2501,1.01864 15.59203,2.44846 4.22319,1.12818 8.47691,2.5683 12.78054,4.1495 4.30363,1.58121 8.65697,3.30381 13.10889,4.9066 3.68362,1.73905 7.46495,3.41411 11.32039,4.7914 3.85544,1.37729 7.78495,2.45677 11.76211,2.94715 0.7434,-30.62129 1.69463,-65.08624 2.80537,-101.65831 0.36247,-11.93475 0.72837,-23.65254 1.09439,-35.09594 0,0 -10e-6,0 -10e-6,0 -26.48522,2.45891 -51.38574,4.69524 -73.88145,6.59006 -22.49572,1.89482 -42.58694,3.44783 -59.40837,4.58305 -16.82142,1.13523 -30.37295,1.85275 -39.74239,2.12116 -9.36943,0.2684 -14.55628,0.0882 -14.60574,-0.53169 -0.0495,-0.61984 5.04892,-1.62072 14.47067,-2.85161 9.42175,-1.23089 23.16735,-2.69133 40.36974,-4.27078 17.20239,-1.57944 37.86165,-3.2778 61.06383,-5.02909 23.20217,-1.75129 48.94694,-3.5558 76.27514,-5.39052 0,0 10e-6,0 2e-5,0 -0.31028,12.22721 -0.63815,24.79132 -0.98261,37.59914 -1.05554,39.24746 -2.14698,76.27612 -3.19885,108.48933 -5.60172,0.12279 -10.91928,-0.39629 -15.95301,-1.26741 -5.03373,-0.87112 -9.7837,-2.09425 -14.25622,-3.43611 -4.56997,-1.80515 -8.87307,-3.6818 -13.00953,-5.38557 -4.13645,-1.70378 -8.10623,-3.23506 -11.97819,-4.43923 -4.8314,-1.50129 -9.57248,-2.4733 -14.07013,-2.91971 -4.49765,-0.44641 -8.75276,-0.36844 -12.68147,0.14769 0,0 0,10e-6 -1e-5,10e-6 -5.76532,0.72133 -10.81637,2.23988 -15.15448,3.86459 -4.3381,1.6247 -7.96466,3.36318 -10.89592,4.83312 -2.93126,1.46993 -5.16908,2.67858 -6.72033,3.43878 -1.55124,0.7602 -2.41805,1.07639 -2.56797,0.86614 z"
       id="path3147"
       inkscape:path-effect="#path-effect3149"
       inkscape:original-d="m 462.64987,561.42805 c 52.74152,-37.6085 77.06721,0.55857 115.15739,2.0203 l 4.04061,-141.42136 -189.90868,15.15229"
       inkscape:connector-curvature="0"
       sodipodi:nodetypes="cccc" />
    <path
       style="fill:#000000;fill-rule:evenodd;stroke:none"
       d="m 415.1727,396.77318 c -0.17854,-0.19681 0.5059,-1.18929 2.06384,-2.8698 1.55794,-1.68051 3.99222,-4.05264 7.40683,-6.85914 3.41461,-2.8065 7.81316,-6.05348 13.34434,-9.25895 5.53118,-3.20547 12.19874,-6.3757 20.14039,-8.7091 6.31972,-1.83552 13.35686,-3.06972 20.95292,-3.45373 7.59605,-0.38401 15.75261,0.0845 24.16227,1.54878 10e-6,0 10e-6,0 2e-5,0 7.19497,1.25182 14.56872,3.14501 22.05469,5.60161 7.48598,2.4566 15.08402,5.477 22.73495,8.87682 6.71168,3.65283 13.46388,7.67838 20.2815,11.95397 6.81763,4.2756 13.70071,8.80108 20.69825,13.4067 -8.01674,-10.68178 -17.15958,-21.35432 -26.15114,-32.77611 -7.35593,-11.75112 -14.54681,-24.30786 -19.85362,-38.18908 -0.92699,-2.42534 -1.78451,-4.89182 -2.56449,-7.39433 -3.63943,-11.67684 -5.47269,-23.80063 -5.05559,-35.77498 0.83162,-8.44357 2.88418,-16.61383 5.7718,-24.3818 2.88761,-7.76798 6.60971,-15.13351 10.82006,-21.9987 -29.31904,7.5366 -56.53098,14.42892 -80.74693,20.38555 -24.21596,5.95663 -45.43629,10.97737 -62.66629,14.83233 0,0 0,0 0,1e-5 -2.52026,3.77013 -4.75815,7.36737 -6.55256,10.8097 -1.79441,3.44233 -3.14994,6.72882 -4.09176,9.82687 -1.0744,3.29758 -1.598,6.38969 -1.79384,9.07899 -0.19585,2.68931 -0.0684,4.98285 0.14052,6.83031 0.20896,1.84747 0.49524,3.25472 0.66434,4.22083 0.1691,0.96611 0.21748,1.4947 0.0568,1.56227 -0.16073,0.0676 -0.52758,-0.32828 -1.02576,-1.2129 -0.49818,-0.88461 -1.12517,-2.26208 -1.68019,-4.16597 -0.55502,-1.90389 -1.03448,-4.34038 -1.15783,-7.27325 -0.12336,-2.93286 0.11358,-6.36931 1.01233,-10.10219 0.92418,-3.55064 2.34331,-7.36717 4.27922,-11.36179 1.93591,-3.99462 4.39316,-8.16622 7.19873,-12.44833 0,0 0,0 1e-5,-1e-5 17.29727,-4.24109 39.08688,-9.30544 64.3621,-14.95364 25.27522,-5.6482 54.0357,-11.88045 85.1689,-18.51886 -3.05958,7.49142 -5.62831,15.42231 -7.38303,23.66997 -1.75473,8.24765 -2.69492,16.81181 -2.45693,25.54347 -0.36717,10.7169 1.3505,21.71726 4.69368,32.45463 0.7165,2.30118 1.50268,4.57592 2.35072,6.81919 4.88747,12.93131 11.7553,24.95695 18.87728,36.55279 6.51576,13.58523 13.46999,26.6287 19.61629,39.71408 -8.13985,-3.48131 -16.04445,-6.9196 -23.76397,-10.16683 -7.71952,-3.24722 -15.25406,-6.30329 -22.63446,-9.06502 -7.40457,-3.45325 -14.67035,-6.54337 -21.77672,-9.08847 -7.10637,-2.5451 -14.05337,-4.54556 -20.81184,-5.92546 0,0 -10e-6,0 -10e-6,0 -7.85101,-1.60256 -15.46504,-2.3231 -22.57426,-2.25674 -7.10922,0.0664 -13.71545,0.91765 -19.68872,2.34602 -7.5275,1.77379 -14.01678,4.4006 -19.51703,7.09298 -5.50024,2.69238 -10.0149,5.45666 -13.62605,7.81109 -3.61116,2.35442 -6.3227,4.305 -8.19427,5.58133 -1.87156,1.27633 -2.9069,1.8817 -3.08544,1.68489 z"
       id="path3151"
       inkscape:path-effect="#path-effect3153"
       inkscape:original-d="m 415.1727,396.77318 c 58.25213,-52.84397 116.50426,-20.0086 174.75639,11.11168 -29.07273,-48.78723 -71.46989,-93.31065 -36.3655,-162.63456 l -146.47211,34.34519 c -9.79917,14.81557 -16.33003,29.63114 -10.10153,44.44671"
       inkscape:connector-curvature="0"
       sodipodi:nodetypes="ccccc" />
    <path
       style="fill:#000000;fill-rule:evenodd;stroke:none"
       d="m 594.97985,432.12852 c -1.91193,-1.99051 13.73319,-20.124 34.92215,-40.47656 21.18896,-20.35255 39.93751,-35.25509 41.84944,-33.26458 1.91193,1.99051 -13.73319,20.124 -34.92215,40.47656 -21.18896,20.35255 -39.93751,35.25509 -41.84944,33.26458 z"
       id="path3155"
       inkscape:path-effect="#path-effect3157"
       inkscape:original-d="m 594.97985,432.12852 76.77159,-73.74114"
       inkscape:connector-curvature="0" />
    <path
       style="fill:#000000;fill-rule:evenodd;stroke:none"
       d="m 624.27427,420.00669 c 0.5835,0.10641 0.81782,1.98992 0.74221,5.35378 -0.0756,3.36386 -0.4689,8.20824 -1.06777,14.2238 -0.59888,6.01555 -1.4082,13.20068 -2.14111,21.24518 -0.73292,8.0445 -1.38649,16.94613 -1.48232,26.42364 0,0 0,1e-5 0,1e-5 -0.065,6.18445 0.11076,12.60721 0.70775,19.12819 0.38147,4.1668 0.92372,8.2321 1.63414,12.16788 0.54441,6.23441 1.46062,12.17688 2.6924,17.69541 1.23178,5.51854 2.77898,10.61288 4.54818,15.20408 -4.72812,-0.0743 -8.85872,-0.60515 -12.56441,-1.06047 -3.70569,-0.45531 -6.98771,-0.83799 -9.96194,-0.94098 -1.69292,-0.26698 -3.28651,-0.41767 -4.75167,-0.42446 -1.46516,-0.007 -2.80253,0.12955 -4.00864,0.38932 -1.48836,0.29139 -2.80545,0.78525 -3.94332,1.30052 -1.13787,0.51526 -2.09767,1.0537 -2.89119,1.50305 -1.58703,0.89868 -2.53224,1.4179 -2.86765,1.13119 -0.16771,-0.14335 -0.17305,-0.47762 0.005,-0.99092 0.17776,-0.51331 0.53909,-1.20667 1.1365,-2.02884 0.59741,-0.82218 1.4318,-1.77479 2.57684,-2.74687 1.14503,-0.97207 2.60188,-1.9654 4.44953,-2.78326 1.48978,-0.63664 3.17561,-1.13987 5.01276,-1.45502 1.83716,-0.31515 3.82608,-0.44127 5.88056,-0.36147 3.01193,0.45096 6.14701,1.38797 9.29852,2.56172 3.15151,1.17376 6.31735,2.58662 9.44366,3.64191 -5.47513,-8.22904 -10.47934,-18.008 -13.77773,-28.80117 -0.83333,-4.24953 -1.45509,-8.62586 -1.86668,-13.08649 -0.64412,-6.98083 -0.74287,-13.7948 -0.49392,-20.2846 0,0 0,0 0,-10e-6 0.38465,-9.9217 1.50171,-19.09062 2.83827,-27.25312 1.33656,-8.16251 2.88991,-15.32137 4.34199,-21.23753 1.45207,-5.91616 2.8079,-10.59113 3.92466,-13.76742 1.11675,-3.17628 2.00217,-4.85346 2.58567,-4.74705 z"
       id="path3159"
       inkscape:path-effect="#path-effect3161"
       inkscape:original-d="m 624.27427,420.00669 c -8.23928,45.1795 -16.62703,90.38599 4.04061,130.30968 -13.62696,-1.95973 -28.26577,-9.99053 -39.39595,3.03046"
       inkscape:connector-curvature="0"
       sodipodi:nodetypes="ccc" />
    <path
       style="fill:#000000;fill-rule:evenodd;stroke:none"
       d="m 639.42656,457.38233 c -1.62981,-2.2274 15.60193,-17.6116 38.46371,-34.33973 22.86177,-16.72812 42.73899,-28.49682 44.3688,-26.26942 1.62981,2.2274 -15.60193,17.6116 -38.46371,34.33973 -22.86177,16.72812 -42.73899,28.49682 -44.3688,26.26942 z"
       id="path3163"
       inkscape:path-effect="#path-effect3165"
       inkscape:original-d="m 639.42656,457.38233 82.83251,-60.60915"
       inkscape:connector-curvature="0" />
    <path
       style="fill:#000000;fill-rule:evenodd;stroke:none"
       d="m 645.48748,439.19959 c -2.69164,-0.61047 0.10187,-23.05453 6.23552,-50.09833 6.13364,-27.04381 13.29619,-48.49694 15.98783,-47.88647 2.69164,0.61047 -0.10187,23.05453 -6.23552,50.09833 -6.13364,27.04381 -13.29619,48.49694 -15.98783,47.88647 z"
       id="path3167"
       inkscape:path-effect="#path-effect3169"
       inkscape:original-d="m 645.48748,439.19959 22.22335,-97.9848"
       inkscape:connector-curvature="0" />
    <path
       style="fill:#000000;fill-rule:evenodd;stroke:none"
       d="m 670.74129,453.34172 c 0.53697,0.18079 0.61685,1.60652 0.39036,4.06741 -0.22649,2.46089 -0.75491,5.96109 -1.32482,10.32095 -0.56992,4.35987 -1.1782,9.58215 -1.50952,15.46363 -0.33132,5.88148 -0.38239,12.42231 0.16987,19.37335 0,10e-6 0,10e-6 0,10e-6 0.0223,6.47139 0.43984,13.3185 1.36582,20.30707 1.27979,9.65889 3.4127,18.66609 5.98797,26.5466 -4.97278,-1.06725 -8.91703,-2.64391 -12.29309,-4.11186 -2.87802,-2.67137 -5.27428,-5.07756 -7.6285,-6.88514 -1.3349,-0.99927 -2.63036,-1.85786 -3.87722,-2.49999 -1.24686,-0.64213 -2.44554,-1.06885 -3.59238,-1.28119 0,0 0,0 0,0 -1.47244,-0.34393 -2.91342,-0.3264 -4.21189,-0.2025 -1.29846,0.1239 -2.45615,0.35708 -3.42296,0.55315 -0.96682,0.19607 -1.74497,0.35756 -2.31545,0.40539 -0.57048,0.0478 -0.93556,-0.0168 -1.07322,-0.23452 -0.13766,-0.21769 -0.0438,-0.58179 0.29903,-1.07421 0.3428,-0.49243 0.93518,-1.11518 1.82227,-1.79111 0.88709,-0.67593 2.07055,-1.40787 3.60509,-2.02237 1.53455,-0.61451 3.42233,-1.11432 5.6986,-1.18725 0,0 0,0 1e-5,0 1.74826,-0.003 3.60868,0.26017 5.4898,0.81204 1.88113,0.55187 3.78279,1.39358 5.5856,2.47264 3.13184,1.82622 6.13914,4.18956 9.10756,6.512 1.69845,2.8665 3.18511,5.90405 4.72861,8.28556 -4.03115,-7.41646 -7.88873,-15.80203 -10.7299,-24.86709 -2.0557,-6.55891 -3.42948,-13.02362 -4.1203,-19.19727 0,-10e-6 0,-10e-6 0,-10e-6 -0.26625,-7.56311 0.27698,-14.59011 1.2443,-20.79044 0.96732,-6.20033 2.35364,-11.57544 3.78396,-15.93649 1.43032,-4.36105 2.90054,-7.71179 4.11482,-9.92521 1.21428,-2.21343 2.16861,-3.29394 2.70558,-3.11315 z"
       id="path3171"
       inkscape:path-effect="#path-effect3173"
       inkscape:original-d="m 670.74129,453.34172 c -11.62737,34.53461 -8.54986,65.80147 4.04061,94.95434 -11.90847,-6.30259 -20.64333,-23.71283 -37.37564,-13.13198"
       inkscape:connector-curvature="0"
       sodipodi:nodetypes="ccc" />
    <path
       style="fill:#000000;fill-rule:evenodd;stroke:none"
       d="m 264.65997,569.50927 c -0.0808,0.24246 -0.34444,0.42326 -0.79158,0.51049 -0.44714,0.0872 -1.07956,0.0673 -1.79183,-0.006 0,0 0,0 0,0 -1.04362,-0.11582 -2.37635,-0.40015 -3.93792,-0.82979 -2.98362,-0.82134 -6.85911,-2.19735 -11.35143,-4.01552 -7.84181,-3.17413 -17.62133,-7.72023 -28.02897,-13.10916 -0.70285,-0.36393 -1.40082,-0.72762 -2.09356,-1.09082 -11.07097,-5.80428 -20.8134,-11.49953 -27.7846,-16.09902 0,0 0,0 0,0 -3.68264,-2.42974 -6.59221,-4.5543 -8.51542,-6.22956 0,0 0,0 0,0 -0.97805,-0.85196 -1.70108,-1.58776 -2.14099,-2.18848 0,0 0,0 0,0 -0.22147,-0.30243 -0.3712,-0.57063 -0.44559,-0.80218 0,0 0,0 0,0 0,0 0,0 0,0 -0.0373,-0.11615 -0.0557,-0.22308 -0.0546,-0.32048 0,0 0,0 0,0 0,0 0,0 0,0 0.041,-0.12589 0.0571,-0.19265 0.0627,-0.22775 0.006,-0.0348 9.7e-4,-0.0385 6.7e-4,-0.0387 0,0 0,0 0,0 0,0 0,0 0,0 0,0 0,0 0,0 0,0 0,0 0,0 0,0 0,0 0,0 0,0 0,0 0,0 0,0 0,0 0,0 -1e-5,-10e-6 -1e-5,-10e-6 -1e-5,-10e-6 0,0 0,0 1e-5,0 0,0 0,0 0,0 0,0 0,0 0,0 0,0 0,0 0,0 0,0 0,0 0,0 0,0 0,0 0,0 0,0 0,0 0,0 0,0 0,0 0,0 3.4e-4,1.4e-4 0.006,0.002 0.0315,-0.0225 0.0257,-0.0246 0.0715,-0.0757 0.15182,-0.18099 0,-1e-5 0,-1e-5 0,-1e-5 0,0 0,0 0,0 0.0796,-0.0562 0.17795,-0.10183 0.2947,-0.13713 0,0 0,0 0,0 0,0 0,0 0,0 0.23276,-0.0704 0.53842,-0.0996 0.91302,-0.0894 0,0 0,0 0,0 0.74406,0.0203 1.76001,0.19633 3.01669,0.51533 0,0 0,0 0,0 2.4711,0.62725 5.87267,1.80714 9.9675,3.44216 0,0 0,0 0,0 7.75175,3.0952 17.98561,7.82187 29.09736,13.50979 0.6957,0.35612 1.39478,0.71603 2.09684,1.07954 10.39608,5.38286 19.74882,10.66233 26.92395,15.08097 4.11664,2.53464 7.49833,4.77627 9.9582,6.59579 1.29087,0.9542 2.3127,1.78523 3.05711,2.48474 0,0 0,0 0,0 0.55515,0.50489 0.90042,0.92809 1.12545,1.28101 0.22503,0.35293 0.31982,0.645 0.239,0.88746 z"
       id="path3175"
       inkscape:path-effect="#path-effect3177"
       inkscape:original-d="m 264.65997,569.50927 c -6.06092,-2.02031 -86.87312,-44.44672 -86.87312,-44.44672"
       inkscape:connector-curvature="0" />
    <path
       style="fill:#000000;fill-rule:evenodd;stroke:none"
       d="m 331.33003,212.92542 c 1.37055,-0.16124 3.27784,5.37462 5.24989,14.44533 1.97204,9.07072 3.9983,21.66996 5.79083,35.60282 0.98131,7.62752 1.79935,14.86867 2.43861,21.37403 0.63926,6.50535 1.09923,12.27565 1.32494,16.96396 0,0 0,0 0,0 0.13394,2.61758 0.15461,4.83636 0.1508,6.66201 -0.004,1.82566 -0.0412,3.2613 -0.17188,4.28418 0,1e-5 0,1e-5 0,1e-5 -0.0267,0.35802 -0.10022,0.61211 -0.1681,0.82346 -0.0679,0.21135 -0.13374,0.38006 -0.20555,0.52536 0,0 0,0 0,0 -0.0722,0.18941 -0.21183,0.20737 -0.2487,0.24888 0,0 0,0 0,0 0,0 0,0 0,0 -0.0149,0.0428 -0.0192,0.0653 -0.0201,0.0759 0.001,0.009 0.001,0.009 0.001,0.009 0,0 1.1e-4,-3e-5 -0.008,0.0124 -0.0208,0.0133 -0.0409,0.0303 -0.0729,0.061 0,0 0,0 0,0 0,0 0,0 0,0 -0.0879,0.005 -0.28938,-0.0664 -0.42919,-0.009 0,0 0,0 0,0 -0.17811,-0.0619 -0.3817,-0.20023 -0.58708,-0.40394 -0.20539,-0.20372 -0.41017,-0.47551 -0.59778,-0.73039 0,0 0,0 0,0 -0.62851,-0.87367 -1.33226,-2.24008 -2.0276,-4.02985 -0.69535,-1.78978 -1.3727,-4.00435 -2.06728,-6.47997 0,0 0,0 0,0 -2.55504,-9.10513 -5.25505,-22.76711 -7.23033,-38.11105 -1.80409,-14.01406 -2.72128,-26.77317 -2.89549,-36.05808 -0.17421,-9.28491 0.40264,-15.10528 1.77319,-15.26652 z"
       id="path3179"
       inkscape:path-effect="#path-effect3181"
       inkscape:original-d="m 331.33003,212.92542 c 12.12184,103.03556 14.14214,101.01525 14.14214,101.01525"
       inkscape:connector-curvature="0" />
    <path
       style="fill:#000000;fill-rule:evenodd;stroke:none"
       d="m 469.72093,167.46855 c 2.75169,-0.21402 6.56886,19.97696 8.52048,45.06915 1.95162,25.09219 1.30228,45.63056 -1.44941,45.84458 -2.75169,0.21402 -6.56886,-19.97696 -8.52048,-45.06915 -1.95162,-25.09219 -1.30228,-45.63056 1.44941,-45.84458 z"
       id="path3183"
       inkscape:path-effect="#path-effect3185"
       inkscape:original-d="m 469.72093,167.46855 7.07107,90.91373"
       inkscape:connector-curvature="0" />
    <path
       style="fill:#000000;fill-rule:evenodd;stroke:none"
       d="m 186.87822,414.95593 c 2.75389,-0.18359 5.44148,6.45563 5.99908,14.81969 0.55761,8.36406 -1.22488,15.30129 -3.97877,15.48488 -2.75389,0.18359 -5.44148,-6.45563 -5.99908,-14.81969 -0.55761,-8.36406 1.22488,-15.30129 3.97877,-15.48488 z"
       id="path3187"
       inkscape:path-effect="#path-effect3189"
       inkscape:original-d="m 186.87822,414.95593 2.02031,30.30457"
       inkscape:connector-curvature="0" />
  </g>
</svg>
