<?xml version="1.0" encoding="UTF-8" standalone="no"?>
<!-- Created with Inkscape (http://www.inkscape.org/) -->

<svg
   xmlns:dc="http://purl.org/dc/elements/1.1/"
   xmlns:cc="http://creativecommons.org/ns#"
   xmlns:rdf="http://www.w3.org/1999/02/22-rdf-syntax-ns#"
   xmlns:svg="http://www.w3.org/2000/svg"
   xmlns="http://www.w3.org/2000/svg"
   xmlns:sodipodi="http://sodipodi.sourceforge.net/DTD/sodipodi-0.dtd"
   xmlns:inkscape="http://www.inkscape.org/namespaces/inkscape"
   width="744.09448819"
   height="1052.3622047"
   id="svg2"
   version="1.1"
   inkscape:version="0.48.5 r10040"
   sodipodi:docname="lod.svg">
  <defs
     id="defs4">
    <inkscape:path-effect
       effect="skeletal"
       id="path-effect3813"
       is_visible="true"
       pattern="m 92,3 c 0,-2.76 2.24,-5 5,-5 2.76,0 5,2.24 5,5 0,2.76 -2.24,5 -5,5 -2.76,0 -5,-2.24 -5,-5 z"
       copytype="single_stretched"
       prop_scale="1"
       scale_y_rel="false"
       spacing="0"
       normal_offset="0"
       tang_offset="0"
       prop_units="false"
       vertical_pattern="false"
       fuse_tolerance="0" />
    <inkscape:path-effect
       effect="skeletal"
       id="path-effect3809"
       is_visible="true"
       pattern="m 92,3 c 0,-2.76 2.24,-5 5,-5 2.76,0 5,2.24 5,5 0,2.76 -2.24,5 -5,5 -2.76,0 -5,-2.24 -5,-5 z"
       copytype="single_stretched"
       prop_scale="1"
       scale_y_rel="false"
       spacing="0"
       normal_offset="0"
       tang_offset="0"
       prop_units="false"
       vertical_pattern="false"
       fuse_tolerance="0" />
    <inkscape:path-effect
       effect="skeletal"
       id="path-effect3805"
       is_visible="true"
       pattern="m 92,3 c 0,-2.76 2.24,-5 5,-5 2.76,0 5,2.24 5,5 0,2.76 -2.24,5 -5,5 -2.76,0 -5,-2.24 -5,-5 z"
       copytype="single_stretched"
       prop_scale="1"
       scale_y_rel="false"
       spacing="0"
       normal_offset="0"
       tang_offset="0"
       prop_units="false"
       vertical_pattern="false"
       fuse_tolerance="0" />
    <inkscape:path-effect
       effect="skeletal"
       id="path-effect3801"
       is_visible="true"
       pattern="m 92,3 c 0,-2.76 2.24,-5 5,-5 2.76,0 5,2.24 5,5 0,2.76 -2.24,5 -5,5 -2.76,0 -5,-2.24 -5,-5 z"
       copytype="single_stretched"
       prop_scale="1"
       scale_y_rel="false"
       spacing="0"
       normal_offset="0"
       tang_offset="0"
       prop_units="false"
       vertical_pattern="false"
       fuse_tolerance="0" />
    <inkscape:path-effect
       effect="skeletal"
       id="path-effect3797"
       is_visible="true"
       pattern="m 92,3 c 0,-2.76 2.24,-5 5,-5 2.76,0 5,2.24 5,5 0,2.76 -2.24,5 -5,5 -2.76,0 -5,-2.24 -5,-5 z"
       copytype="single_stretched"
       prop_scale="1"
       scale_y_rel="false"
       spacing="0"
       normal_offset="0"
       tang_offset="0"
       prop_units="false"
       vertical_pattern="false"
       fuse_tolerance="0" />
    <inkscape:path-effect
       effect="skeletal"
       id="path-effect3793"
       is_visible="true"
       pattern="m 92,3 c 0,-2.76 2.24,-5 5,-5 2.76,0 5,2.24 5,5 0,2.76 -2.24,5 -5,5 -2.76,0 -5,-2.24 -5,-5 z"
       copytype="single_stretched"
       prop_scale="1"
       scale_y_rel="false"
       spacing="0"
       normal_offset="0"
       tang_offset="0"
       prop_units="false"
       vertical_pattern="false"
       fuse_tolerance="0" />
    <inkscape:path-effect
       effect="skeletal"
       id="path-effect3789"
       is_visible="true"
       pattern="m 92,3 c 0,-2.76 2.24,-5 5,-5 2.76,0 5,2.24 5,5 0,2.76 -2.24,5 -5,5 -2.76,0 -5,-2.24 -5,-5 z"
       copytype="single_stretched"
       prop_scale="1"
       scale_y_rel="false"
       spacing="0"
       normal_offset="0"
       tang_offset="0"
       prop_units="false"
       vertical_pattern="false"
       fuse_tolerance="0" />
    <inkscape:path-effect
       effect="skeletal"
       id="path-effect3785"
       is_visible="true"
       pattern="m 92,3 c 0,-2.76 2.24,-5 5,-5 2.76,0 5,2.24 5,5 0,2.76 -2.24,5 -5,5 -2.76,0 -5,-2.24 -5,-5 z"
       copytype="single_stretched"
       prop_scale="1"
       scale_y_rel="false"
       spacing="0"
       normal_offset="0"
       tang_offset="0"
       prop_units="false"
       vertical_pattern="false"
       fuse_tolerance="0" />
    <inkscape:path-effect
       effect="skeletal"
       id="path-effect3781"
       is_visible="true"
       pattern="M 0,5 C 0,2.24 2.24,0 5,0 7.76,0 10,2.24 10,5 10,7.76 7.76,10 5,10 2.24,10 0,7.76 0,5 z"
       copytype="single_stretched"
       prop_scale="1"
       scale_y_rel="false"
       spacing="0"
       normal_offset="0"
       tang_offset="0"
       prop_units="false"
       vertical_pattern="false"
       fuse_tolerance="0" />
    <inkscape:path-effect
       effect="skeletal"
       id="path-effect3777"
       is_visible="true"
       pattern="m 92,3 c 0,-2.76 2.24,-5 5,-5 2.76,0 5,2.24 5,5 0,2.76 -2.24,5 -5,5 -2.76,0 -5,-2.24 -5,-5 z"
       copytype="single_stretched"
       prop_scale="1"
       scale_y_rel="false"
       spacing="0"
       normal_offset="0"
       tang_offset="0"
       prop_units="false"
       vertical_pattern="false"
       fuse_tolerance="0" />
  </defs>
  <sodipodi:namedview
     id="base"
     pagecolor="#ffffff"
     bordercolor="#666666"
     borderopacity="1.0"
     inkscape:pageopacity="0.0"
     inkscape:pageshadow="2"
     inkscape:zoom="0.70710678"
     inkscape:cx="348.47737"
     inkscape:cy="367.53782"
     inkscape:document-units="px"
     inkscape:current-layer="layer1"
     showgrid="false"
     inkscape:window-width="1848"
     inkscape:window-height="1055"
     inkscape:window-x="67"
     inkscape:window-y="-5"
     inkscape:window-maximized="1" />
  <metadata
     id="metadata7">
    <rdf:RDF>
      <cc:Work
         rdf:about="">
        <dc:format>image/svg+xml</dc:format>
        <dc:type
           rdf:resource="http://purl.org/dc/dcmitype/StillImage" />
        <dc:title></dc:title>
      </cc:Work>
    </rdf:RDF>
  </metadata>
  <g
     inkscape:label="Layer 1"
     inkscape:groupmode="layer"
     id="layer1">
    <path
       style="fill:#000000;fill-rule:evenodd;stroke:none"
       d="m 35,694.36218 c 0.01542,-0.41993 3.68431,-0.70394 10.582592,-0.79375 6.898281,-0.0898 17.025649,0.0263 29.946397,0.43394 12.920749,0.40766 28.634101,1.11888 46.701251,2.06376 18.06715,0.94488 38.48721,2.13081 60.8311,3.18386 22.20848,1.04447 46.34881,1.90349 71.95218,2.01107 25.60338,0.10759 52.66882,-0.54141 80.69929,-2.7064 16.34239,-1.25944 33.01009,-3.04001 49.88809,-5.37931 43.7024,-6.05718 85.01187,-15.37518 122.35948,-26.30307 31.53196,-9.22262 60.26831,-19.46013 85.65759,-29.41252 25.38928,-9.95239 47.43473,-19.61254 65.60077,-27.87336 18.16605,-8.26081 32.4571,-15.12045 42.29634,-19.72899 9.83924,-4.60854 15.23252,-6.96392 15.48492,-6.49523 0.2524,0.46869 -4.65493,3.72798 -14.06815,9.20084 -9.41322,5.47286 -23.33808,13.15732 -41.23615,22.18913 -17.89806,9.03181 -39.77451,19.40918 -65.12437,30.00151 -25.34986,10.59233 -54.17762,21.39248 -85.93907,31.06749 -37.64252,11.46206 -79.41423,21.1263 -123.65864,27.25846 -17.08733,2.36826 -33.96839,4.13658 -50.52033,5.345 -28.38882,2.06779 -55.73146,2.51371 -81.53166,2.11205 -25.80019,-0.40166 -50.05798,-1.64561 -72.32646,-3.14901 -22.3928,-1.5097 -42.79338,-3.22143 -60.81547,-4.75132 -18.0221,-1.5299 -33.665823,-2.88541 -46.522677,-3.98609 C 62.400169,697.54955 52.330661,696.69172 45.476536,696.00277 38.622411,695.31382 34.984579,694.78211 35,694.36218 z"
       id="path3775"
       inkscape:path-effect="#path-effect3777"
       inkscape:original-d="m 35,694.36218 c 199.94528,7.34256 375.60951,53.99731 682,-111"
       inkscape:connector-curvature="0"
       sodipodi:nodetypes="cc" />
    <path
       style="fill:#000000;fill-rule:evenodd;stroke:none"
       d="m 528.61502,692.22267 c 0.57361,0.47944 -0.90108,3.28847 -3.88356,8.26743 -1.49125,2.48948 -3.35159,5.52622 -5.41845,9.12735 -2.06687,3.60115 -4.34327,7.76575 -6.54982,12.54918 0,0 0,0 0,2e-5 -2.80662,6.09211 -5.53166,13.20019 -6.87495,21.21141 -0.9106,5.28399 -1.15032,11.08856 -0.8698,17.30033 -0.81258,6.21576 -1.38584,13.00001 -2.45215,20.4874 -25.47516,-2.14297 -55.51786,-3.63656 -88.82607,-4.13296 -33.30819,-0.49638 -69.88354,0.002 -108.20376,0.9702 -0.77358,0.0196 -1.54649,0.0392 -2.31871,0.059 -44.39332,-0.10275 -86.4539,0.38455 -123.9249,0.85898 -37.47099,0.47445 -70.34783,0.92567 -96.480716,1.0401 -3.136621,-3.0181 -6.570953,-5.80128 -9.885854,-8.61395 -3.170316,-2.994 -6.127082,-6.1023 -8.650026,-9.36243 -4.503432,-5.92363 -7.557276,-11.66618 -9.864306,-16.7789 -2.307029,-5.11272 -3.857232,-9.60481 -4.973139,-13.27844 -1.115924,-3.67363 -1.787663,-6.53683 -2.108935,-8.51165 -0.321253,-1.97482 -0.284932,-3.0658 0.113777,-3.21802 0.39878,-0.15228 1.14822,0.64088 2.236716,2.3082 1.088478,1.66733 2.510847,4.21567 4.316821,7.50995 1.80599,3.2943 3.986482,7.3435 6.762413,11.82806 2.775913,4.48455 6.136972,9.4133 10.622761,14.14686 2.364635,2.53437 5.198452,4.99888 8.370432,7.55403 2.199168,2.01183 4.599162,4.18437 6.922646,6.92484 26.26984,-1.92394 58.77116,-4.06482 95.49765,-5.94761 36.72647,-1.88279 77.68298,-3.49602 120.97181,-3.96349 0.73838,0.014 1.47748,0.0273 2.21727,0.0415 36.64636,0.70337 71.77374,2.2413 104.11523,4.70133 32.34147,2.46005 61.89325,5.84117 87.37112,9.55853 -1.26741,-4.5027 -2.74847,-9.22338 -3.6974,-14.03488 0.11833,-6.90885 0.91466,-13.55121 2.4576,-19.66073 2.35664,-9.17013 6.09746,-16.72425 9.86516,-22.90308 0,0 0,0 0,0 2.9411,-4.82467 5.88882,-8.85974 8.59141,-12.23267 2.70259,-3.37291 5.16306,-6.08269 7.23896,-8.19511 4.15183,-4.22482 6.73709,-6.09032 7.3107,-5.61089 z"
       id="path3783"
       inkscape:connector-curvature="0" />
    <path
       style="fill:#000000;fill-rule:evenodd;stroke:none"
       d="m 417,326.36218 c 0.5369,-0.24112 3.01325,3.9096 7.12604,11.72166 4.11278,7.81206 9.86151,19.28618 17.01432,33.65609 7.1528,14.3699 15.70961,31.63564 25.51693,50.98766 9.80733,19.35203 20.86759,40.7887 33.08917,63.46874 0,0 0,1e-5 0,1e-5 8.43119,15.6422 17.36578,31.89176 26.98733,48.30667 8.35218,14.2493 16.83206,27.92983 25.44547,40.83673 4.66789,6.97983 9.29332,13.74805 14.04865,20.10494 4.75532,6.35688 9.64097,12.30213 14.77236,17.69709 2.16042,2.2652 4.27203,4.37075 6.48151,6.13182 1e-5,10e-6 1e-5,10e-6 1e-5,10e-6 0,0 0,0 0,0 0.49478,0.39349 0.9477,0.74321 1.37413,1.02636 0,0 0,0 0,0 10e-6,0 10e-6,0 10e-6,0 0,0 0,0 0,0 0.10059,0.0667 0.17723,0.11786 0.23161,0.15078 -5e-5,10e-5 -6e-5,1.3e-4 -7e-5,1.5e-4 -0.60583,1.34643 -1.22353,2.68556 -1.85291,4.01706 -4e-5,9e-5 -4e-5,9e-5 -4e-5,9e-5 0.008,0.006 0.0167,0.0118 0.0251,0.0176 0.003,0.002 0.006,0.004 0.009,0.006 -12.77366,-3.22281 -24.79237,-6.22823 -36.03297,-8.70474 -8.06475,-2.68573 -15.75681,-4.92903 -22.99465,-6.61683 -7.23783,-1.6878 -14.0217,-2.82275 -20.27381,-3.46296 -6.80382,-0.70725 -12.97442,-0.82306 -18.37465,-0.71139 -5.40024,0.11168 -10.03187,0.45215 -13.80486,0.77347 -3.77299,0.32131 -6.68925,0.62457 -8.67792,0.75906 -1.98868,0.1345 -3.05136,0.10034 -3.10954,-0.16613 -0.0582,-0.26647 0.89044,-0.7556 2.79268,-1.40554 1.90223,-0.64995 4.75936,-1.46106 8.52789,-2.27875 3.76853,-0.8177 8.45031,-1.64317 13.98769,-2.21666 5.53738,-0.57348 11.93228,-0.89621 19.08441,-0.58449 6.55518,0.29489 13.68453,1.11534 21.26307,2.52495 7.57855,1.40961 15.60601,3.41107 23.94103,5.89641 10.56411,4.39879 21.62991,9.85439 33.13481,15.93455 -0.003,-0.001 -0.007,-0.002 -0.01,-0.004 -0.009,-0.004 -0.0187,-0.007 -0.028,-0.011 0,0 0,0 0,0 -0.70017,1.2929 -1.38793,2.59207 -2.06348,3.89796 -10e-6,2e-5 -3e-5,4e-5 -4e-5,6e-5 -0.23118,-0.13303 -0.43449,-0.25779 -0.61125,-0.3713 0,0 0,0 0,0 -1e-5,0 -1e-5,-10e-6 -2e-5,-10e-6 0,0 0,0 0,0 -0.74724,-0.47942 -1.42188,-0.96852 -2.0359,-1.4425 0,0 0,0 0,0 0,0 -10e-6,-1e-5 -10e-6,-1e-5 -2.74162,-2.11242 -5.21364,-4.45368 -7.53485,-6.81921 -5.53415,-5.62539 -10.76783,-11.77393 -15.79174,-18.28345 -5.02391,-6.50951 -9.83831,-13.37957 -14.59532,-20.39117 -8.85708,-13.02837 -17.51318,-26.8515 -25.9543,-41.24775 -9.72401,-16.58419 -18.63894,-32.99848 -26.94117,-48.79735 0,-1e-5 0,-1e-5 0,-2e-5 -12.04938,-22.92364 -22.75915,-44.65475 -32.06679,-64.33393 -9.30764,-19.67918 -17.21598,-37.30549 -23.60667,-52.06306 -6.3907,-14.75756 -11.26394,-26.64691 -14.42367,-34.89807 -3.15972,-8.25115 -4.6054,-12.86481 -4.0685,-13.10593 z"
       id="path3787"
       inkscape:path-effect="#path-effect3789"
       inkscape:original-d="m 417,326.36218 c 123.05571,274 170,298 170,298 -12.71763,-4.8731 -24.0652,-9.00297 -34.5839,-12.31965 C 520.35153,601.93214 495.98928,599.37817 464,606.36218"
       inkscape:connector-curvature="0"
       sodipodi:nodetypes="ccsc" />
    <path
       style="fill:#000000;fill-rule:evenodd;stroke:none"
       d="m 390,293.36218 c 1.27874,-0.2545 7.51644,25.00341 16.68666,66.52933 9.17021,41.52592 21.2729,99.31969 34.30056,164.21182 0,0 0,10e-6 1e-5,2e-5 2.12567,7.55004 4.27025,15.198 6.43137,22.92739 12.0212,42.99467 23.18354,83.516 33.07357,118.80116 -10e-6,0 -10e-6,0 -2e-5,0 -12.85555,-3.10386 -25.1052,-5.80282 -36.626,-7.91125 -11.52081,-2.10843 -22.31293,-3.62834 -32.24893,-4.58491 -10.52802,-1.38012 -20.13321,-1.96731 -28.55698,-2.07761 -8.42377,-0.11031 -15.67004,0.24979 -21.57996,0.70782 -5.90991,0.45803 -10.48787,1.00639 -13.61115,1.32275 -3.12329,0.31637 -4.79536,0.3932 -4.86913,0.0735 -0.0738,-0.31972 1.4554,-1.02222 4.48835,-1.95303 3.03295,-0.93082 7.57358,-2.0828 13.52626,-3.12509 5.95268,-1.0423 13.3219,-1.96731 21.95082,-2.37962 8.62891,-0.41231 18.52122,-0.30514 29.39639,0.67276 9.63328,1.19941 19.98707,3.168 30.89698,5.91995 10.9099,2.75195 22.37535,6.28922 34.24902,10.3953 0,0 1e-5,0 1e-5,10e-6 -11.53411,-34.25736 -24.82227,-73.10205 -38.75296,-114.34694 -2.5044,-7.41483 -4.97682,-14.75359 -7.41076,-22.00399 0,-10e-6 0,-10e-6 0,-2e-5 C 418.50289,461.45496 407.52275,403.26861 400.07735,361.30908 392.63195,319.34956 388.72126,293.61668 390,293.36218 z"
       id="path3791"
       inkscape:path-effect="#path-effect3793"
       inkscape:original-d="M 390,293.36218 436.16567,525.32244 479,664.36218 c -44.30546,-12.91751 -89.05581,-21.83105 -136,-11"
       inkscape:connector-curvature="0"
       sodipodi:nodetypes="cccc" />
    <path
       style="fill:#000000;fill-rule:evenodd;stroke:none"
       d="m 327.45899,661.93818 c -1.70753,-0.21949 -2.42905,-7.47865 -2.25253,-20.48755 0.17663,-13.00886 1.20962,-31.77364 3.20169,-55.14965 1.99207,-23.37601 4.91344,-51.374 9.62337,-82.85838 4.70992,-31.48438 11.2132,-66.46306 21.3239,-103.66393 0,-3e-5 0,-3e-5 0,-3e-5 -29.60637,-13.8095 -60.58692,-28.5013 -92.66912,-43.82827 -13.74294,-6.56558 -27.28099,-13.05215 -40.59693,-19.4387 -3e-5,3e-5 -3e-5,3e-5 -3e-5,3e-5 -1.49158,46.05912 -3.98151,89.48132 -7.72522,128.58573 -3.7437,39.10438 -8.73209,73.88683 -14.21331,102.7854 -5.48126,28.89856 -11.41272,51.91943 -16.4289,67.60583 -5.01618,15.68642 -9.05527,24.05277 -10.94396,23.58849 -1.88869,-0.46428 -1.4403,-9.72084 0.77816,-26.35867 2.21843,-16.63783 6.14869,-40.67169 10.72358,-70.73524 4.57489,-30.06356 9.75445,-66.16994 14.72945,-106.78016 4.97504,-40.61025 9.73685,-85.72948 14.10311,-133.50524 0,-3e-5 0,-3e-5 0,-3e-5 16.25268,6.77626 32.85987,13.70918 49.71903,20.7665 39.35688,16.47494 77.32554,32.47662 112.65492,47.57402 0,0 0,3e-5 -3e-5,3e-5 -9.30985,38.64025 -15.68009,75.3949 -20.96015,108.51422 -5.28007,33.11932 -9.47186,62.59427 -13.33524,86.96812 -3.86334,24.37386 -7.3663,43.64902 -10.41704,56.71189 -3.05078,13.06284 -5.60723,19.925 -7.31475,19.70559 z"
       id="path3795"
       inkscape:connector-curvature="0" />
    <path
       style="fill:#000000;fill-rule:evenodd;stroke:none"
       d="m 254,157.36218 c 2.75442,-0.17544 7.22989,34.85017 9.98989,78.18217 2.76,43.332 2.76453,78.64239 0.0101,78.81783 -2.75442,0.17544 -7.22989,-34.85017 -9.98989,-78.18217 -2.76,-43.332 -2.76453,-78.64239 -0.0101,-78.81783 z"
       id="path3799"
       inkscape:path-effect="#path-effect3801"
       inkscape:original-d="m 254,157.36218 10,157"
       inkscape:connector-curvature="0" />
    <path
       style="fill:#000000;fill-rule:evenodd;stroke:none"
       d="m 389,154.36218 c 2.75799,-0.10527 6.11636,29.1533 7.49636,65.3093 1.38,36.156 0.26163,65.58543 -2.49636,65.6907 -2.75799,0.10527 -6.11636,-29.1533 -7.49636,-65.3093 -1.38,-36.156 -0.26163,-65.58543 2.49636,-65.6907 z"
       id="path3803"
       inkscape:path-effect="#path-effect3805"
       inkscape:original-d="m 389,154.36218 5,131"
       inkscape:connector-curvature="0" />
    <path
       style="fill:#000000;fill-rule:evenodd;stroke:none"
       d="m 150,214.36218 c 2.7577,-0.11256 5.89184,21.74809 6.99584,48.79609 1.104,27.048 -0.23814,49.09135 -2.99584,49.20391 -2.7577,0.11256 -5.89184,-21.74809 -6.99584,-48.79609 -1.104,-27.048 0.23814,-49.09135 2.99584,-49.20391 z"
       id="path3807"
       inkscape:path-effect="#path-effect3809"
       inkscape:original-d="m 150,214.36218 4,98"
       inkscape:connector-curvature="0" />
    <path
       style="fill:#000000;fill-rule:evenodd;stroke:none"
       d="m 202.97835,358.1361 c -0.67272,1.33082 -9.95341,-1.82918 -25.23561,-8.96959 -15.28219,-7.14038 -36.55886,-18.26517 -61.86767,-32.5009 -0.87793,22.92045 -1.35488,48.80899 -1.90688,76.82663 -0.552,28.01763 -1.19376,58.16836 -3.09567,89.58529 -0.13557,2.23977 -0.277,4.47294 -0.42457,6.69924 -1.94701,14.61823 -4.13031,28.99984 -6.65785,42.97536 -2.52753,13.97552 -5.400036,27.54435 -8.65024,40.55562 -3.250204,13.01127 -6.878258,25.46464 -10.835313,37.23535 -3.957056,11.77073 -8.242581,22.85873 -12.72939,33.169 0,0 0,0 1.9e-5,0 29.332434,1.12347 53.574544,2.76571 70.553104,4.65858 16.97854,1.89288 26.68935,4.02975 26.57304,5.52715 -0.11636,1.49741 -10.10336,2.10434 -28.19183,1.27357 -18.08848,-0.83076 -44.282572,-3.10592 -76.426748,-6.75733 -5e-6,0 -1.1e-5,0 -1.7e-5,0 3.592159,-10.37186 6.917958,-21.62584 9.883843,-33.68744 2.965886,-12.06157 5.571548,-24.93106 7.810617,-38.49405 2.239069,-13.56297 4.111907,-27.81944 5.698962,-42.61268 1.587054,-14.79323 2.889296,-30.12294 4.063839,-45.7919 0.318544,-2.29615 0.633665,-4.6002 0.945498,-6.91176 4.374016,-32.42395 7.770726,-63.68628 10.849346,-92.63135 3.07862,-28.94506 5.85047,-55.56669 8.50627,-78.77792 29.04808,13.24139 52.33154,24.64152 68.02026,33.15674 15.68871,8.51522 23.78971,14.14157 23.11699,15.47239 z"
       id="path3811"
       inkscape:connector-curvature="0" />
  </g>
</svg>
