<?xml version="1.0" encoding="UTF-8" standalone="no"?>
<!-- Created with Inkscape (http://www.inkscape.org/) -->

<svg
   xmlns:dc="http://purl.org/dc/elements/1.1/"
   xmlns:cc="http://creativecommons.org/ns#"
   xmlns:rdf="http://www.w3.org/1999/02/22-rdf-syntax-ns#"
   xmlns:svg="http://www.w3.org/2000/svg"
   xmlns="http://www.w3.org/2000/svg"
   xmlns:sodipodi="http://sodipodi.sourceforge.net/DTD/sodipodi-0.dtd"
   xmlns:inkscape="http://www.inkscape.org/namespaces/inkscape"
   width="744.09448819"
   height="1052.3622047"
   id="svg2"
   version="1.1"
   inkscape:version="0.48.5 r10040"
   sodipodi:docname="man-o-war.svg">
  <defs
     id="defs4">
    <inkscape:path-effect
       effect="skeletal"
       id="path-effect3110"
       is_visible="true"
       pattern="M 0,5 C 0,2.24 2.24,0 5,0 7.76,0 10,2.24 10,5 10,7.76 7.76,10 5,10 2.24,10 0,7.76 0,5 z"
       copytype="single_stretched"
       prop_scale="1"
       scale_y_rel="false"
       spacing="0"
       normal_offset="0"
       tang_offset="0"
       prop_units="false"
       vertical_pattern="false"
       fuse_tolerance="0" />
    <inkscape:path-effect
       effect="skeletal"
       id="path-effect3106"
       is_visible="true"
       pattern="M 0,5 C 0,2.24 2.24,0 5,0 7.76,0 10,2.24 10,5 10,7.76 7.76,10 5,10 2.24,10 0,7.76 0,5 z"
       copytype="single_stretched"
       prop_scale="1"
       scale_y_rel="false"
       spacing="0"
       normal_offset="0"
       tang_offset="0"
       prop_units="false"
       vertical_pattern="false"
       fuse_tolerance="0" />
    <inkscape:path-effect
       effect="skeletal"
       id="path-effect3102"
       is_visible="true"
       pattern="M 0,5 C 0,2.24 2.24,0 5,0 7.76,0 10,2.24 10,5 10,7.76 7.76,10 5,10 2.24,10 0,7.76 0,5 z"
       copytype="single_stretched"
       prop_scale="1"
       scale_y_rel="false"
       spacing="0"
       normal_offset="0"
       tang_offset="0"
       prop_units="false"
       vertical_pattern="false"
       fuse_tolerance="0" />
    <inkscape:path-effect
       effect="skeletal"
       id="path-effect3098"
       is_visible="true"
       pattern="M 0,5 C 0,2.24 2.24,0 5,0 7.76,0 10,2.24 10,5 10,7.76 7.76,10 5,10 2.24,10 0,7.76 0,5 z"
       copytype="single_stretched"
       prop_scale="1"
       scale_y_rel="false"
       spacing="0"
       normal_offset="0"
       tang_offset="0"
       prop_units="false"
       vertical_pattern="false"
       fuse_tolerance="0" />
    <inkscape:path-effect
       effect="skeletal"
       id="path-effect3094"
       is_visible="true"
       pattern="M 0,5 C 0,2.24 2.24,0 5,0 7.76,0 10,2.24 10,5 10,7.76 7.76,10 5,10 2.24,10 0,7.76 0,5 z"
       copytype="single_stretched"
       prop_scale="1"
       scale_y_rel="false"
       spacing="0"
       normal_offset="0"
       tang_offset="0"
       prop_units="false"
       vertical_pattern="false"
       fuse_tolerance="0" />
    <inkscape:path-effect
       effect="skeletal"
       id="path-effect3090"
       is_visible="true"
       pattern="M 0,5 C 0,2.24 2.24,0 5,0 7.76,0 10,2.24 10,5 10,7.76 7.76,10 5,10 2.24,10 0,7.76 0,5 z"
       copytype="single_stretched"
       prop_scale="1"
       scale_y_rel="false"
       spacing="0"
       normal_offset="0"
       tang_offset="0"
       prop_units="false"
       vertical_pattern="false"
       fuse_tolerance="0" />
    <inkscape:path-effect
       effect="skeletal"
       id="path-effect3086"
       is_visible="true"
       pattern="M 0,5 C 0,2.24 2.24,0 5,0 7.76,0 10,2.24 10,5 10,7.76 7.76,10 5,10 2.24,10 0,7.76 0,5 z"
       copytype="single_stretched"
       prop_scale="1"
       scale_y_rel="false"
       spacing="0"
       normal_offset="0"
       tang_offset="0"
       prop_units="false"
       vertical_pattern="false"
       fuse_tolerance="0" />
    <inkscape:path-effect
       effect="skeletal"
       id="path-effect3082"
       is_visible="true"
       pattern="M 0,5 C 0,2.24 2.24,0 5,0 7.76,0 10,2.24 10,5 10,7.76 7.76,10 5,10 2.24,10 0,7.76 0,5 z"
       copytype="single_stretched"
       prop_scale="1"
       scale_y_rel="false"
       spacing="0"
       normal_offset="0"
       tang_offset="0"
       prop_units="false"
       vertical_pattern="false"
       fuse_tolerance="0" />
    <inkscape:path-effect
       effect="skeletal"
       id="path-effect3078"
       is_visible="true"
       pattern="M 0,5 C 0,2.24 2.24,0 5,0 7.76,0 10,2.24 10,5 10,7.76 7.76,10 5,10 2.24,10 0,7.76 0,5 z"
       copytype="single_stretched"
       prop_scale="1"
       scale_y_rel="false"
       spacing="0"
       normal_offset="0"
       tang_offset="0"
       prop_units="false"
       vertical_pattern="false"
       fuse_tolerance="0" />
    <inkscape:path-effect
       effect="skeletal"
       id="path-effect3074"
       is_visible="true"
       pattern="M 0,5 C 0,2.24 2.24,0 5,0 7.76,0 10,2.24 10,5 10,7.76 7.76,10 5,10 2.24,10 0,7.76 0,5 z"
       copytype="single_stretched"
       prop_scale="1"
       scale_y_rel="false"
       spacing="0"
       normal_offset="0"
       tang_offset="0"
       prop_units="false"
       vertical_pattern="false"
       fuse_tolerance="0" />
    <inkscape:path-effect
       effect="skeletal"
       id="path-effect3070"
       is_visible="true"
       pattern="M 0,5 C 0,2.24 2.24,0 5,0 7.76,0 10,2.24 10,5 10,7.76 7.76,10 5,10 2.24,10 0,7.76 0,5 z"
       copytype="single_stretched"
       prop_scale="1"
       scale_y_rel="false"
       spacing="0"
       normal_offset="0"
       tang_offset="0"
       prop_units="false"
       vertical_pattern="false"
       fuse_tolerance="0" />
    <inkscape:path-effect
       effect="skeletal"
       id="path-effect3066"
       is_visible="true"
       pattern="M 0,5 C 0,2.24 2.24,0 5,0 7.76,0 10,2.24 10,5 10,7.76 7.76,10 5,10 2.24,10 0,7.76 0,5 z"
       copytype="single_stretched"
       prop_scale="1"
       scale_y_rel="false"
       spacing="0"
       normal_offset="0"
       tang_offset="0"
       prop_units="false"
       vertical_pattern="false"
       fuse_tolerance="0" />
    <inkscape:path-effect
       effect="skeletal"
       id="path-effect3062"
       is_visible="true"
       pattern="M 0,5 C 0,2.24 2.24,0 5,0 7.76,0 10,2.24 10,5 10,7.76 7.76,10 5,10 2.24,10 0,7.76 0,5 z"
       copytype="single_stretched"
       prop_scale="1"
       scale_y_rel="false"
       spacing="0"
       normal_offset="0"
       tang_offset="0"
       prop_units="false"
       vertical_pattern="false"
       fuse_tolerance="0" />
    <inkscape:path-effect
       effect="skeletal"
       id="path-effect3054"
       is_visible="true"
       pattern="M 0,5 C 0,2.24 2.24,0 5,0 7.76,0 10,2.24 10,5 10,7.76 7.76,10 5,10 2.24,10 0,7.76 0,5 z"
       copytype="single_stretched"
       prop_scale="1"
       scale_y_rel="false"
       spacing="0"
       normal_offset="0"
       tang_offset="0"
       prop_units="false"
       vertical_pattern="false"
       fuse_tolerance="0" />
    <inkscape:path-effect
       effect="skeletal"
       id="path-effect3050"
       is_visible="true"
       pattern="M 0,5 C 0,2.24 2.24,0 5,0 7.76,0 10,2.24 10,5 10,7.76 7.76,10 5,10 2.24,10 0,7.76 0,5 z"
       copytype="single_stretched"
       prop_scale="1"
       scale_y_rel="false"
       spacing="0"
       normal_offset="0"
       tang_offset="0"
       prop_units="false"
       vertical_pattern="false"
       fuse_tolerance="0" />
    <inkscape:path-effect
       effect="skeletal"
       id="path-effect3046"
       is_visible="true"
       pattern="M 0,5 C 0,2.24 2.24,0 5,0 7.76,0 10,2.24 10,5 10,7.76 7.76,10 5,10 2.24,10 0,7.76 0,5 z"
       copytype="single_stretched"
       prop_scale="1"
       scale_y_rel="false"
       spacing="0"
       normal_offset="0"
       tang_offset="0"
       prop_units="false"
       vertical_pattern="false"
       fuse_tolerance="0" />
    <inkscape:path-effect
       effect="skeletal"
       id="path-effect3042"
       is_visible="true"
       pattern="M 0,5 C 0,2.24 2.24,0 5,0 7.76,0 10,2.24 10,5 10,7.76 7.76,10 5,10 2.24,10 0,7.76 0,5 z"
       copytype="single_stretched"
       prop_scale="1"
       scale_y_rel="false"
       spacing="0"
       normal_offset="0"
       tang_offset="0"
       prop_units="false"
       vertical_pattern="false"
       fuse_tolerance="0" />
    <inkscape:path-effect
       effect="skeletal"
       id="path-effect3038"
       is_visible="true"
       pattern="M 0,5 C 0,2.24 2.24,0 5,0 7.76,0 10,2.24 10,5 10,7.76 7.76,10 5,10 2.24,10 0,7.76 0,5 z"
       copytype="single_stretched"
       prop_scale="1"
       scale_y_rel="false"
       spacing="0"
       normal_offset="0"
       tang_offset="0"
       prop_units="false"
       vertical_pattern="false"
       fuse_tolerance="0" />
    <inkscape:path-effect
       effect="skeletal"
       id="path-effect3034"
       is_visible="true"
       pattern="M 0,5 C 0,2.24 2.24,0 5,0 7.76,0 10,2.24 10,5 10,7.76 7.76,10 5,10 2.24,10 0,7.76 0,5 z"
       copytype="single_stretched"
       prop_scale="1"
       scale_y_rel="false"
       spacing="0"
       normal_offset="0"
       tang_offset="0"
       prop_units="false"
       vertical_pattern="false"
       fuse_tolerance="0" />
    <inkscape:path-effect
       effect="skeletal"
       id="path-effect3030"
       is_visible="true"
       pattern="M 0,5 C 0,2.24 2.24,0 5,0 7.76,0 10,2.24 10,5 10,7.76 7.76,10 5,10 2.24,10 0,7.76 0,5 z"
       copytype="single_stretched"
       prop_scale="1"
       scale_y_rel="false"
       spacing="0"
       normal_offset="0"
       tang_offset="0"
       prop_units="false"
       vertical_pattern="false"
       fuse_tolerance="0" />
    <inkscape:path-effect
       effect="skeletal"
       id="path-effect3026"
       is_visible="true"
       pattern="M 0,5 C 0,2.24 2.24,0 5,0 7.76,0 10,2.24 10,5 10,7.76 7.76,10 5,10 2.24,10 0,7.76 0,5 z"
       copytype="single_stretched"
       prop_scale="1"
       scale_y_rel="false"
       spacing="0"
       normal_offset="0"
       tang_offset="0"
       prop_units="false"
       vertical_pattern="false"
       fuse_tolerance="0" />
    <inkscape:path-effect
       effect="skeletal"
       id="path-effect3022"
       is_visible="true"
       pattern="M 0,5 C 0,2.24 2.24,0 5,0 7.76,0 10,2.24 10,5 10,7.76 7.76,10 5,10 2.24,10 0,7.76 0,5 z"
       copytype="single_stretched"
       prop_scale="1"
       scale_y_rel="false"
       spacing="0"
       normal_offset="0"
       tang_offset="0"
       prop_units="false"
       vertical_pattern="false"
       fuse_tolerance="0" />
  </defs>
  <sodipodi:namedview
     id="base"
     pagecolor="#ffffff"
     bordercolor="#666666"
     borderopacity="1.0"
     inkscape:pageopacity="0.0"
     inkscape:pageshadow="2"
     inkscape:zoom="1.4"
     inkscape:cx="454.73745"
     inkscape:cy="719.09988"
     inkscape:document-units="px"
     inkscape:current-layer="layer1"
     showgrid="false"
     inkscape:window-width="1848"
     inkscape:window-height="1055"
     inkscape:window-x="67"
     inkscape:window-y="-5"
     inkscape:window-maximized="1" />
  <metadata
     id="metadata7">
    <rdf:RDF>
      <cc:Work
         rdf:about="">
        <dc:format>image/svg+xml</dc:format>
        <dc:type
           rdf:resource="http://purl.org/dc/dcmitype/StillImage" />
        <dc:title></dc:title>
      </cc:Work>
    </rdf:RDF>
  </metadata>
  <g
     inkscape:label="Layer 1"
     inkscape:groupmode="layer"
     id="layer1">
    <path
       style="fill:#000000;fill-rule:evenodd;stroke:none"
       d="m 28.571429,350.21932 c 0.389537,-0.61397 17.128359,9.18955 46.783477,27.30028 29.655114,18.11073 72.225544,44.52834 124.366024,77.17235 1e-5,0 2e-5,10e-6 3e-5,2e-5 22.9028,1.86216 47.39315,3.62744 73.26762,5.01376 25.87446,1.38633 53.13301,2.39337 81.56886,2.64726 35.61311,0.39435 73.08507,-0.42544 111.83454,-3.46985 28.43891,-2.23196 57.58801,-5.77201 87.31422,-9.99881 22.02941,-2.32459 44.4154,-4.90174 67.17385,-7.12008 5.92261,-0.57729 11.83312,-1.12608 17.73159,-1.63599 0.0619,0.0647 0.12377,0.12937 0.18566,0.19403 0.17592,0.18384 0.35184,0.36768 0.52776,0.55151 0.68676,0.71763 1.3735,1.43512 2.06023,2.15248 0,1e-5 0,1e-5 0,1e-5 -0.0164,0.16392 -0.0328,0.32742 -0.0492,0.4905 0,0 0,10e-6 0,10e-6 -0.0622,0.61752 -0.12493,1.23403 -0.18805,1.84956 0,0 0,0 0,0 -0.22542,2.19808 -0.4562,4.39191 -0.69124,6.58152 0,0 0,0 0,0 -0.71714,6.68151 -1.4731,13.33895 -2.29528,19.96635 -0.82828,6.68788 -1.69786,13.40974 -2.86131,20.1165 -0.37905,2.21736 -0.80607,4.56983 -1.4626,7.00578 -0.15988,0.66317 -0.43665,1.55841 -0.91966,2.64223 -0.0943,0.30021 -0.42823,0.84935 -1.0299,1.62069 -0.11552,0.70212 -1.46047,1.35673 -4.03094,1.88312 0.35903,-0.0401 0.30992,0.006 -0.14962,0.0539 -1e-5,0 -3e-5,1e-5 -4e-5,1e-5 -0.51917,0.0888 -1.07596,0.20326 -1.67284,0.32755 -10e-6,1e-5 -3e-5,1e-5 -5e-5,1e-5 -1.84861,0.38673 -3.71602,0.81943 -5.60924,1.26235 -10e-6,0 -3e-5,10e-6 -5e-5,10e-6 -5.34794,1.25191 -10.67506,2.56699 -15.99285,3.88887 -6.9774,0.82229 -13.91536,1.64504 -20.81243,2.47007 1.69588,5.2863 3.38436,10.54661 5.06531,15.77988 -79.59993,-0.61816 -153.41472,-1.28252 -218.15032,-2.02132 -64.7356,-0.7388 -120.39133,-1.55242 -163.81698,-2.39302 -19.36472,-27.12069 -34.48337,-48.59929 -44.63936,-63.36301 -10.15598,-14.76372 -15.35009,-22.81296 -14.93581,-23.11138 0.41428,-0.29842 6.3977,7.16938 17.00905,21.23561 10.61135,14.06622 25.84984,34.73048 44.84434,60.86142 43.30284,0.30487 98.28665,0.95253 161.83155,1.908 63.54491,0.95547 135.6516,2.21838 213.34401,3.67766 -2.1095,-5.19047 -4.23079,-10.40704 -6.36323,-15.64868 8.01378,-2.96182 16.08598,-5.95115 24.21254,-8.96476 5.33172,-1.34043 10.70578,-2.68059 16.13487,-3.96435 10e-6,0 3e-5,-1e-5 4e-5,-1e-5 1.90838,-0.45154 3.85078,-0.90517 5.83494,-1.32528 2e-5,-1e-5 3e-5,-1e-5 5e-5,-1e-5 0.62893,-0.13375 1.30006,-0.27141 2.01618,-0.39736 2e-5,0 4e-5,0 6e-5,-10e-6 0.20287,-0.067 0.81817,-0.16246 1.84988,-0.20261 -2.34933,0.52639 -3.5083,1.01658 -3.47918,1.55136 -0.35495,0.48594 -0.5138,0.69511 -0.44782,0.6537 0.0661,-0.0863 0.14369,-0.44303 0.32299,-1.02839 0.51116,-1.86235 0.86651,-3.9103 1.24859,-6.09588 1.10644,-6.424 1.94271,-12.98698 2.76223,-19.64472 0.80615,-6.56053 1.54977,-13.16478 2.25836,-19.80732 0,0 0,0 0,0 0.23211,-2.17598 0.46,-4.35453 0.68258,-6.53567 0,0 0,0 0,0 0.0623,-0.61082 0.12418,-1.22119 0.18529,-1.83113 0,-10e-6 0,-10e-6 0,-10e-6 0.0161,-0.16109 0.0322,-0.32181 0.0481,-0.48215 10e-6,0 10e-6,0 10e-6,0 0.69505,0.63374 1.39011,1.2676 2.08516,1.90159 0.17805,0.16241 0.35609,0.32482 0.53414,0.48724 0.0626,0.0571 0.12526,0.11426 0.18788,0.1714 -5.47011,0.88239 -10.95636,1.80547 -16.45947,2.75841 -21.14645,3.66181 -42.03074,7.66709 -62.68767,11.37718 -29.86408,4.19762 -59.23939,7.67651 -87.96722,9.81645 -39.12035,2.91077 -76.88135,3.51945 -112.70848,2.84909 -28.96926,-0.60165 -56.67577,-1.97689 -82.9105,-3.74459 -26.23473,-1.7677 -50.99779,-3.92749 -74.09025,-6.19168 -1e-5,0 -2e-5,-10e-6 -3e-5,-2e-5 C 145.06242,427.80458 102.63286,400.29363 73.412977,381.05089 44.193091,361.80815 28.181892,350.83329 28.571429,350.21932 z"
       id="path3020"
       inkscape:path-effect="#path-effect3022"
       inkscape:original-d="M 28.571429,350.21932 198.57143,458.07647 c 245.44128,22.01914 323.77999,-1.74325 437.85714,-15.71429 0,0 -5.71428,57.85714 -8.57143,57.85714 -2.85714,0 -47.14285,11.42858 -47.14285,11.42858 l 5.71428,15.71428 -378.57143,-5 -60.71428,-84.28571"
       inkscape:connector-curvature="0"
       sodipodi:nodetypes="cccscccc" />
    <path
       style="fill:#000000;fill-rule:evenodd;stroke:none"
       d="m 211.42857,207.36218 c -0.30685,-0.93859 7.02343,-4.2668 20.30649,-8.9866 13.28307,-4.7198 32.52349,-10.82821 55.51691,-17.66517 1.15025,2.80613 3.15543,6.00529 5.08378,9.85281 1.16269,3.91008 2.13832,8.1517 2.44593,12.7361 0.33804,5.51282 -0.41798,11.18938 -2.29749,16.61134 -2.82166,7.35144 -7.28364,14.06138 -12.51655,19.97004 -1.35517,0.46607 -2.71577,0.93323 -4.08144,1.40143 -13.84783,4.74752 -27.2515,9.27438 -39.83213,13.54537 -12.58064,4.271 -24.33779,8.28644 -34.9328,11.98231 1e-5,0 1e-5,-1e-5 1e-5,-1e-5 2.67034,-5.9411 5.0913,-11.5339 6.99149,-16.79274 1.90018,-5.25885 3.28334,-10.1838 4.14937,-14.73824 1.12183,-4.16777 1.5463,-8.10854 1.56039,-11.54441 0.0141,-3.43587 -0.37737,-6.37565 -0.84811,-8.75174 -0.47075,-2.37609 -1.01486,-4.19764 -1.34804,-5.47057 -0.33317,-1.27293 -0.44909,-2.00413 -0.19781,-2.14992 0.25128,-0.14579 0.86198,0.30165 1.71508,1.38656 0.8531,1.08491 1.94414,2.81487 2.97592,5.25215 1.03179,2.43727 1.99886,5.59125 2.49928,9.41208 0.50042,3.82084 0.52853,8.31717 -0.33823,13.18973 -1.11982,4.4734 -2.97671,9.17722 -5.55035,13.96203 -2.57363,4.78482 -5.86744,9.64896 -9.56582,14.49267 0,1e-5 0,1e-5 0,1e-5 9.80376,-4.46364 20.47153,-9.41817 31.78529,-14.70494 11.31375,-5.28677 23.27393,-10.90544 35.70274,-16.66859 1.22573,-0.56836 2.44764,-1.13421 3.66558,-1.69738 3.96941,-4.81968 7.20603,-9.9428 8.88776,-15.35065 1.5111,-4.1845 2.18604,-8.58755 2.00799,-12.83036 -0.12225,-3.54122 -0.88661,-7.14352 -1.81778,-10.75295 0.2887,-2.04084 0.23122,-4.55829 0.78057,-7.61002 -20.97845,7.53845 -38.88088,13.5729 -51.74771,17.4021 -12.86683,3.82921 -20.69347,5.45615 -21.00032,4.51756 z"
       id="path3024"
       inkscape:path-effect="#path-effect3026"
       inkscape:original-d="m 211.42857,207.36218 74.28571,-24.28572 c 0.98651,9.61679 13.29321,27.3667 -8.57143,52.85714 l -74.99999,30.00001 c 11.96586,-20.26303 19.94829,-40.1941 9.28571,-58.57143 z"
       inkscape:connector-curvature="0"
       sodipodi:nodetypes="ccccc" />
    <path
       style="fill:#000000;fill-rule:evenodd;stroke:none"
       d="m 210,281.6479 c 0.32198,-0.0187 0.7077,1.08011 1.11429,3.21006 0.40658,2.12996 0.83539,5.29196 1.1642,9.39958 0.32881,4.10762 0.55991,9.16236 0.46282,15.05907 -0.0971,5.89672 -0.52053,12.63694 -1.64096,20.0739 -1.39657,6.94496 -3.59324,14.41591 -6.85359,22.13089 -3.26035,7.71498 -7.58636,15.67398 -13.17124,23.49991 0,0 0,0 -1e-5,10e-6 22.81152,-9.93288 48.49023,-21.32286 75.79463,-33.29753 8.71572,-3.82238 17.28129,-7.56334 25.6582,-11.1946 2.12604,-5.23808 3.30493,-10.79095 3.59036,-16.30408 0.28543,-5.51313 -0.32267,-10.98582 -1.74668,-16.1383 -1.00292,-6.34701 -3.0907,-12.27802 -5.71445,-17.81033 -2.62376,-5.53232 -5.78289,-10.66579 -9.06267,-15.41686 -21.72173,5.48485 -39.84043,9.75603 -52.65152,12.42769 -12.81109,2.67166 -20.3116,3.74484 -20.51481,2.93201 -0.20321,-0.81283 6.95518,-3.40437 20.04497,-7.20793 13.08979,-3.80355 32.11394,-8.81808 55.36014,-14.57521 4.21601,5.00577 8.42455,10.58687 12.19345,16.81366 3.7689,6.22679 7.09754,13.09972 9.41226,20.67647 1.35008,6.49006 1.71622,13.37495 0.98988,20.3456 -0.72634,6.97065 -2.54536,14.02631 -5.52903,20.7804 -9.0474,3.31492 -18.3451,6.69513 -27.82504,10.12643 -29.69857,10.74948 -57.76076,20.78323 -82.15071,29.66716 0,0 0,0 0,-10e-6 4.30892,-8.5605 7.62617,-17.1442 10.14844,-25.36417 2.52227,-8.21997 4.25099,-16.07638 5.42802,-23.29072 1.50796,-7.0238 2.38442,-13.48362 2.97804,-19.1877 0.59363,-5.70409 0.90239,-10.65352 1.14056,-14.70511 0.23816,-4.05158 0.40345,-7.2068 0.60882,-9.35145 0.20537,-2.14465 0.44965,-3.28014 0.77163,-3.29884 z"
       id="path3028"
       inkscape:path-effect="#path-effect3030"
       inkscape:original-d="m 210,281.6479 c 1.8258,31.42857 -1.02407,62.85714 -20,94.28571 l 105.71429,-42.14286 c 10.69213,-25.09376 2.81831,-48.94979 -15,-72.14285 l -74.28572,18.57142"
       inkscape:connector-curvature="0"
       sodipodi:nodetypes="ccccc" />
    <path
       style="fill:#000000;fill-rule:evenodd;stroke:none"
       d="m 279.28571,213.07647 c -0.25582,-0.51988 1.89033,-2.19228 6.13968,-4.76544 4.24935,-2.57317 10.60244,-6.04678 18.71263,-10.19813 8.11018,-4.15135 17.97761,-8.98035 29.20255,-14.29648 11.22493,-5.31613 23.80713,-11.11953 37.29447,-17.25144 0,0 0,-1e-5 10e-6,-1e-5 1.04998,11.31472 2.60127,23.35861 3.69423,35.93088 0.49313,5.67258 0.87092,11.297 1.05391,16.84548 -0.68136,10.07828 -2.07825,19.86048 -4.16063,29.02998 -2.08238,9.16949 -4.84989,17.72482 -8.13035,25.4538 -20.18561,3.52956 -37.01484,6.16641 -48.77273,7.64281 -11.7579,1.47639 -18.44693,1.79436 -18.60519,0.89426 -0.15826,-0.9001 6.19714,-2.87566 17.21147,-5.40317 11.01432,-2.52751 26.68509,-5.60495 45.41061,-8.9169 2.42142,-7.0437 4.27695,-14.74263 5.47092,-22.9697 1.19398,-8.22708 1.72697,-16.98186 1.64983,-26.04442 0.51222,-4.88089 0.87492,-9.86719 1.15088,-14.95203 0.61162,-11.26963 0.79697,-22.34857 1.32837,-33.05943 0,0 0,0 -1e-5,0 -12.40606,6.60929 -24.02057,12.7122 -34.52564,18.08862 -10.50508,5.37642 -19.90097,10.0262 -27.81743,13.76098 -7.91646,3.73477 -14.35334,6.55464 -18.8873,8.30342 -4.53396,1.74878 -7.16446,2.4268 -7.42028,1.90692 z"
       id="path3032"
       inkscape:path-effect="#path-effect3034"
       inkscape:original-d="m 279.28571,213.07647 90,-44.28572 c 0.7909,33.59161 5.09143,66.74453 -8.57142,102.14286 l -65,11.42857"
       inkscape:connector-curvature="0"
       sodipodi:nodetypes="cccc" />
    <path
       style="fill:#000000;fill-rule:evenodd;stroke:none"
       d="m 390.71429,178.79075 c -0.29418,-0.86417 6.1976,-3.94544 18.145,-8.3542 11.9474,-4.40876 29.35469,-10.14206 50.45252,-16.61294 0.65908,5.38921 1.62126,11.08332 2.60032,17.09218 0.97906,6.00887 1.97427,12.33284 2.56583,18.97685 -0.18804,6.05664 -0.91196,12.3535 -2.39564,18.67249 -1.48367,6.31898 -3.72788,12.65945 -6.96956,18.75377 -1.73469,0.46581 -3.47776,0.93288 -5.22852,1.40114 -27.06408,7.23867 -52.51753,13.87365 -73.99478,19.67923 0,-1e-5 0,-1e-5 0,-1e-5 2.94841,-6.96203 5.48392,-13.63067 7.49914,-19.9022 2.01523,-6.27153 3.51265,-12.14613 4.5578,-17.51695 1.41614,-4.66582 2.31029,-8.98541 2.81619,-12.80684 0.50591,-3.82143 0.6279,-7.14781 0.57482,-9.90682 -0.0531,-2.75902 -0.27619,-4.95389 -0.45649,-6.54352 -0.18029,-1.58964 -0.31282,-2.57651 -0.25676,-2.90699 0,0 0,0 0,0 0.0898,-0.0251 0.0901,-0.0252 0.0901,-0.0252 0,0 3.1e-4,-9e-5 0.0901,-0.0252 0,0 0,0 0,0 0.21983,0.25555 0.63865,1.18139 1.16739,2.76358 0.52874,1.58219 1.16305,3.82377 1.71287,6.69863 0.54982,2.87486 1.01023,6.38634 1.16063,10.44734 0.15041,4.06099 -0.0138,8.67431 -0.67135,13.64507 -1.22324,5.17076 -3.12585,10.70009 -5.76736,16.42128 -2.64152,5.72119 -6.02437,11.63326 -10.01034,17.58363 0,0 0,0 0,0 19.6383,-7.11645 42.07858,-15.53379 66.12723,-24.35912 1.55569,-0.57091 3.10561,-1.13878 4.64947,-1.70337 4.63548,-9.38361 5.92947,-20.14024 5.69541,-30.43088 0.6679,-5.39928 0.87754,-10.77105 1.02266,-16.08247 0.14513,-5.31142 0.22646,-10.56219 0.51144,-15.70564 -19.10235,7.21428 -35.26648,12.90955 -46.84046,16.50807 -11.57399,3.59852 -18.55354,5.10324 -18.84772,4.23907 z"
       id="path3036"
       inkscape:path-effect="#path-effect3038"
       inkscape:original-d="m 390.71429,178.79075 67.14285,-22.85714 c 0.80338,22.61905 5.94411,45.23809 -5.71428,67.85714 l -75,23.57143 c 13.20773,-24.59393 19.38131,-47.78102 13.57143,-68.57143 z"
       inkscape:connector-curvature="0"
       sodipodi:nodetypes="ccccc" />
    <path
       style="fill:#000000;fill-rule:evenodd;stroke:none"
       d="m 376.42857,261.6479 c -0.32818,-0.87515 10.92008,-5.98907 31.14543,-13.87677 20.22536,-7.88769 49.43232,-18.54581 84.54849,-30.86316 -0.1776,9.52878 -0.12055,19.54273 -0.13307,29.97447 -0.0125,10.43173 -0.0956,21.28139 -0.69,32.46204 -2.41957,18.92425 -6.73563,38.78686 -14.68381,58.09413 -0.64705,1.57177 -1.31534,3.13242 -2.00521,4.68125 -40.62688,14.04448 -78.80718,27.08903 -111.51474,38.48609 4.35739,-10.81263 7.23509,-21.63281 9.13468,-31.92833 1.89959,-10.29553 2.82201,-20.06711 3.19813,-28.96791 0.69578,-8.91506 0.78738,-17.01726 0.75239,-24.14116 -0.035,-7.1239 -0.20377,-13.26942 -0.3,-18.2908 -0.0962,-5.02138 -0.12795,-8.91897 -0.0433,-11.56467 0.0846,-2.64571 0.27965,-4.04026 0.59103,-4.06518 0.31138,-0.0249 0.72587,1.31998 1.23316,3.91815 0.50729,2.59817 1.11338,6.44935 1.76126,11.44867 0.64789,4.99932 1.34564,11.147 1.88071,18.34999 0.53507,7.203 0.91465,15.46189 0.65401,24.6892 -0.54664,8.60305 -1.87688,17.99661 -4.45866,27.85784 -2.58177,9.86123 -6.41672,20.19118 -12.02329,30.49238 30.59834,-12.65919 65.47815,-27.37747 102.77098,-42.94249 0.58051,-1.38709 1.14084,-2.78669 1.68141,-4.19825 6.64027,-17.33914 9.95626,-35.48011 11.72282,-53.02637 1.83613,-9.99453 3.1328,-19.85124 4.29482,-29.47609 1.16202,-9.62485 2.19033,-19.01755 3.3603,-28.0874 -33.08544,13.25825 -61.02134,24.02871 -80.88844,31.17569 -19.8671,7.14698 -31.6609,10.67383 -31.98908,9.79868 z"
       id="path3040"
       inkscape:path-effect="#path-effect3042"
       inkscape:original-d="m 376.42857,261.6479 114.28572,-42.85715 c -2.89822,40 -1.97746,80 -19.28572,120 l -107.14286,40.71429 c 19.1328,-40.54281 15.23926,-79.16676 12.14286,-117.85714 z"
       inkscape:connector-curvature="0"
       sodipodi:nodetypes="ccccc" />
    <path
       style="fill:#000000;fill-rule:evenodd;stroke:none"
       d="m 355,392.36218 c -0.31686,-0.86004 10.31603,-5.6722 29.46798,-13.24019 19.15195,-7.568 46.82687,-17.89048 80.19271,-29.90995 4.70664,7.00683 9.45685,14.44519 14.04762,22.34641 4.59077,7.90122 9.02173,16.26549 13.04231,25.12936 3.185,7.87312 5.99544,16.20053 7.95607,24.9915 1.09647,8.53436 1.46963,17.55049 0.40994,26.81859 -6.22595,1.15933 -12.52341,2.32824 -18.88145,3.50533 -26.36051,4.88021 -51.76291,9.53271 -75.43463,13.86606 -23.67171,4.33335 -45.61208,8.3477 -65.10711,11.93774 5.54924,-13.57008 9.66818,-26.36154 12.89005,-37.7885 3.22186,-11.42695 5.54828,-21.4909 7.35992,-29.76249 1.81163,-8.2716 3.10943,-14.75422 4.10354,-19.13698 0.99411,-4.38276 1.68674,-6.66887 2.09591,-6.61402 0.40917,0.0548 0.50968,2.44513 0.17985,6.85311 -0.32983,4.40798 -1.0922,10.83627 -2.57609,18.93694 -1.48389,8.10067 -3.69066,17.87713 -7.05196,28.90365 -3.36131,11.02653 -7.87948,23.30517 -14.10238,36.29003 18.76424,-3.99129 39.58973,-8.45128 61.9048,-13.23052 22.31507,-4.77924 46.12038,-9.87758 70.90285,-15.13169 5.97742,-1.26727 11.90285,-2.52041 17.76916,-3.75724 -0.30048,-6.5321 -1.89841,-13.13672 -4.07594,-19.58997 -1.73678,-8.13496 -4.31003,-15.99184 -7.24867,-23.55945 -2.74099,-8.18535 -5.95771,-15.98221 -9.42115,-23.42419 -3.46344,-7.44198 -7.1732,-14.52913 -10.94116,-21.28339 -31.60287,11.91637 -58.21366,21.59389 -77.10525,28.04193 -18.89159,6.44805 -30.06006,9.66797 -30.37692,8.80793 z"
       id="path3044"
       inkscape:path-effect="#path-effect3046"
       inkscape:original-d="m 355,392.36218 108.57143,-40 c 17.08569,27.74381 34.99347,63.97684 33.57143,93.57143 l -155,30.71429 c 13.61604,-30.71429 20.88245,-61.42857 25,-92.14286"
       inkscape:connector-curvature="0"
       sodipodi:nodetypes="ccccc" />
    <path
       style="fill:#000000;fill-rule:evenodd;stroke:none"
       d="m 172.85714,399.50504 c -0.33211,-0.94961 12.78935,-6.49728 36.01629,-15.06242 23.22693,-8.56514 56.56392,-20.1454 96.12664,-33.43541 2.72668,7.80083 5.68275,15.86241 8.62158,24.22494 2.93883,8.36253 5.85986,17.02626 8.4416,26.04529 1.49052,8.1911 2.63719,16.71767 3.11317,25.4844 0.47597,8.76673 0.28042,17.77347 -0.95174,26.90298 -0.14585,0.016 -0.29173,0.032 -0.43764,0.048 -30.38693,3.33587 -59.53584,6.46973 -86.33014,9.36043 -26.79431,2.89071 -51.23296,5.53866 -72.2913,7.86608 0,-10e-6 0,-10e-6 10e-6,-2e-5 4.68637,-7.04918 8.78469,-13.8851 12.1985,-20.4005 3.41381,-6.5154 6.1464,-12.70981 8.27024,-18.45564 2.36075,-5.57713 4.00082,-10.78999 5.1379,-15.40316 1.13708,-4.61317 1.77682,-8.63028 2.18169,-11.91539 0.40487,-3.28511 0.58076,-5.84159 0.74782,-7.57968 0.16707,-1.7381 0.33053,-2.65993 0.58395,-2.67994 0.25342,-0.02 0.58842,0.86363 0.90926,2.61411 0.32084,1.75048 0.62282,4.37046 0.67326,7.79936 0.0504,3.42889 -0.15637,7.67031 -0.91108,12.59187 -0.75472,4.92157 -2.06309,10.52686 -4.18731,16.55713 -2.23776,5.54228 -5.2451,11.3858 -9.0957,17.34873 -3.8506,5.96292 -8.5477,12.04427 -13.98259,18.08302 0,1e-5 -1e-5,1e-5 -1e-5,1e-5 20.40734,-2.8319 43.7199,-6.12534 69.07844,-9.7237 25.35854,-3.59836 52.7641,-7.50123 81.44934,-11.51536 0.13774,-0.0193 0.27545,-0.0385 0.41314,-0.0578 0.44847,-7.56956 -0.0829,-15.15175 -1.21943,-22.64371 -1.13658,-7.49197 -2.87762,-14.89344 -4.89095,-22.11175 -1.32546,-8.16429 -3.05035,-16.12399 -4.87044,-23.9247 -1.82008,-7.80072 -3.73475,-15.44251 -5.50885,-22.94795 -37.58533,13.69073 -69.60549,24.96762 -92.44869,32.51444 -22.84319,7.54682 -36.50485,11.36592 -36.83696,10.41631 z"
       id="path3048"
       inkscape:path-effect="#path-effect3050"
       inkscape:original-d="m 172.85714,399.50504 130.71429,-45.71429 c 9.52156,32.38095 21.11602,64.76191 17.85714,97.14286 l -155,19.28571 c 18.84526,-24.36904 29.93176,-49.44343 27.85714,-75.71428"
       inkscape:connector-curvature="0"
       sodipodi:nodetypes="ccccc" />
    <path
       style="fill:#000000;fill-rule:evenodd;stroke:none"
       d="m 505,237.36218 c -0.33861,-0.94402 6.11372,-4.21166 17.89152,-8.81387 11.7778,-4.60222 28.88577,-10.53609 49.30891,-17.15342 0.93545,3.98289 2.11613,8.15273 3.32111,12.54242 1.20497,4.38969 2.43375,8.99946 3.39286,13.86301 0.25485,9.50893 -1.13749,19.65706 -4.77061,29.51218 -0.14192,0.38497 -0.28696,0.7687 -0.43512,1.15111 -14.17178,3.09955 -27.82998,6.01739 -40.47099,8.7343 -12.641,2.71691 -24.26404,5.23327 -34.4352,7.49744 1.90392,-4.47291 3.57458,-8.7056 4.91729,-12.6722 1.3427,-3.96659 2.3596,-7.66716 3.08028,-11.06223 0.97636,-3.17572 1.54884,-6.1392 1.86431,-8.75102 0.31547,-2.61182 0.37729,-4.87555 0.36438,-6.73056 -0.0129,-1.85502 -0.0968,-3.30474 -0.0948,-4.3141 0.002,-1.00935 0.0934,-1.58066 0.35177,-1.6602 0.25834,-0.0795 0.67497,0.33709 1.18266,1.25822 0.50769,0.92113 1.10361,2.34971 1.62044,4.28882 0.51684,1.9391 0.95107,4.3924 1.08354,7.30709 0.13248,2.91469 -0.0404,6.29422 -0.73552,9.9757 -0.8934,3.22684 -2.2694,6.62531 -4.15577,10.08552 -1.88637,3.46022 -4.28518,6.9814 -7.08354,10.46576 9.38422,-2.87158 19.79924,-6.14301 30.967,-9.6789 11.16776,-3.53589 23.08901,-7.33589 35.55539,-11.23222 0.0855,-0.28476 0.16837,-0.57081 0.24854,-0.85811 2.05239,-7.35476 2.25136,-15.13718 1.21392,-22.57445 0.30642,-3.69536 0.28411,-7.40339 0.21031,-11.13005 -0.0738,-3.72666 -0.1986,-7.47182 -0.16453,-11.22581 -18.38071,7.30144 -34.12988,13.15329 -45.50827,16.85709 -11.37839,3.70381 -18.38127,5.2625 -18.71988,4.31848 z"
       id="path3052"
       inkscape:path-effect="#path-effect3054"
       inkscape:original-d="m 505,237.36218 65.71429,-23.57143 c 1.90829,16.37954 6.98263,31.49266 0,51.42857 L 500,283.79075 c 8.72343,-14.7619 13.83051,-29.52381 9.28571,-44.28571"
       inkscape:connector-curvature="0"
       sodipodi:nodetypes="ccccc" />
    <path
       style="fill:#000000;fill-rule:evenodd;stroke:none"
       d="m 492.85714,300.21932 c -0.27497,-0.80133 6.69408,-4.01785 19.54209,-8.8898 12.84802,-4.87196 31.57855,-11.3979 54.48542,-18.95827 3.34881,5.95535 6.76635,12.36457 9.94512,19.26798 3.17876,6.90341 6.11822,14.30136 8.40347,22.2388 1.37015,7.20513 2.03315,14.82027 1.78925,22.6357 -0.2439,7.81542 -1.39525,15.83053 -3.64887,23.77814 -5.72603,2.24327 -11.54158,4.51279 -17.42907,6.80409 -28.92259,11.25617 -56.28635,21.77442 -80.08742,31.0442 0,-10e-6 0,-10e-6 0,-2e-5 1.73921,-9.36337 3.16639,-18.284 4.23476,-26.64847 1.06838,-8.36446 1.77914,-16.17295 2.18977,-23.32378 1.01011,-7.10136 1.53382,-13.57945 1.73701,-19.29779 0.20319,-5.71833 0.089,-10.67861 -0.13542,-14.78792 -0.22441,-4.10931 -0.5553,-7.36956 -0.79609,-9.70376 -0.2408,-2.3342 -0.38769,-3.74392 -0.31212,-4.14151 0,0 0,0 0,0 0.0819,-0.0175 0.0821,-0.0176 0.0821,-0.0176 0,0 2.5e-4,-5e-5 0.0821,-0.0176 0,0 0,0 0,0 0.23198,0.33261 0.69287,1.68462 1.30833,3.99134 0.61547,2.30673 1.38202,5.56998 2.13475,9.72296 0.75273,4.15298 1.48798,9.19762 2.00443,15.0362 0.51645,5.83857 0.81083,12.47261 0.69794,19.7471 -0.68243,6.84163 -1.88957,14.21741 -3.66996,22.00193 -1.78038,7.78451 -4.1352,15.9774 -6.98613,24.45437 0,1e-5 -1e-5,1e-5 -1e-5,1e-5 21.8922,-10.062 46.40461,-21.49136 72.46298,-33.49637 5.30445,-2.44374 10.55217,-4.85485 15.73481,-7.22678 1.57342,-6.46079 2.18352,-13.05978 2.0216,-19.55787 -0.16191,-6.49809 -1.0955,-12.89461 -2.61539,-18.99871 -0.94184,-6.92401 -2.62267,-13.52301 -4.65168,-19.81977 -2.02902,-6.29676 -4.40565,-12.29117 -6.83698,-17.98875 -21.13709,7.55275 -38.83513,13.52681 -51.4047,17.37658 -12.56957,3.84976 -20.00712,5.57668 -20.28209,4.77535 z"
       id="path3060"
       inkscape:path-effect="#path-effect3062"
       inkscape:original-d="m 492.85714,300.21932 72.85715,-25 c 12.85202,25.91002 22.16908,52.46277 14.28571,82.14286 l -92.85714,39.28572 c 8.27004,-32.14286 12.59937,-64.28572 5.71428,-96.42858 z"
       inkscape:connector-curvature="0"
       sodipodi:nodetypes="ccccc" />
    <path
       style="fill:#000000;fill-rule:evenodd;stroke:none"
       d="m 542.14286,374.50504 c -0.59429,-0.73314 8.41297,-9.13249 24.97916,-23.04294 16.5662,-13.91045 40.69635,-33.33111 69.81312,-56.20303 8.75286,14.79216 17.39719,31.27523 25.33809,49.19107 7.94089,17.91584 15.17439,37.26384 21.15643,57.63529 2.61003,8.88829 4.91473,17.7381 6.91871,26.49821 -32.59436,0.87605 -63.24607,1.64305 -90.45649,2.26824 -27.21042,0.6252 -50.97829,1.10852 -69.96564,1.42384 1.94385,-16.60611 3.78166,-29.69645 5.31128,-38.5792 1.52961,-8.88275 2.74964,-13.55949 3.33391,-13.4772 0.58427,0.0823 0.46753,4.89661 -0.45695,13.43795 -0.92448,8.54135 -2.65811,20.80815 -5.18358,35.93423 18.73277,-0.71811 41.60833,-1.51268 67.39674,-2.33951 25.78841,-0.82683 54.49093,-1.68597 85.03827,-2.53983 -1.81052,-8.11841 -3.90083,-16.30314 -6.27927,-24.51733 -5.45125,-18.82645 -12.0962,-36.67939 -19.46053,-53.30059 -7.36433,-16.62121 -15.44475,-32.01026 -23.70411,-46.00037 -27.07181,22.67488 -50.08451,41.46851 -66.61402,54.38564 -16.52952,12.91713 -26.57083,19.95867 -27.16512,19.22553 z"
       id="path3064"
       inkscape:path-effect="#path-effect3066"
       inkscape:original-d="m 542.14286,374.50504 94.28571,-76.42857 c 23.67636,40.05707 41.08446,82.80054 51.42857,128.57143 l -156.42857,4.28571 7.14286,-50.71429"
       inkscape:connector-curvature="0"
       sodipodi:nodetypes="ccccc" />
    <path
       style="fill:#000000;fill-rule:evenodd;stroke:none"
       d="m 537.85714,434.50504 c -2.75999,0.007 -5.15998,-61.74705 -5.35712,-137.84419 -0.19714,-76.09715 1.88285,-137.86295 4.64284,-137.8701 2.75999,-0.007 5.15998,61.74705 5.35712,137.84419 0.19714,76.09715 -1.88285,137.86295 -4.64284,137.8701 z"
       id="path3068"
       inkscape:path-effect="#path-effect3070"
       inkscape:original-d="M 537.85714,434.50504 537.14286,158.79075"
       inkscape:connector-curvature="0" />
    <path
       style="fill:#000000;fill-rule:evenodd;stroke:none"
       d="m 440.71429,464.50504 c -2.75898,0.0752 -7.23815,-82.10386 -9.99815,-183.43529 -2.76,-101.33143 -2.76083,-183.632421 -0.002,-183.707568 2.75898,-0.07515 7.23815,82.103868 9.99815,183.435288 2.76,101.33143 2.76083,183.63242 0.002,183.70757 z"
       id="path3072"
       inkscape:path-effect="#path-effect3074"
       inkscape:original-d="m 440.71429,464.50504 -10,-367.142858"
       inkscape:connector-curvature="0" />
    <path
       style="fill:#000000;fill-rule:evenodd;stroke:none"
       d="m 262.14286,470.93361 c -2.75645,0.13986 -8.83358,-75.42663 -13.56501,-168.6752 -4.73143,-93.24857 -6.3343,-169.04208 -3.57785,-169.18194 2.75645,-0.13986 8.83358,75.42663 13.56501,168.6752 4.73143,93.24857 6.3343,169.04208 3.57785,169.18194 z"
       id="path3076"
       inkscape:path-effect="#path-effect3078"
       inkscape:original-d="M 262.14286,470.93361 245,133.07647"
       inkscape:connector-curvature="0" />
    <path
       style="fill:#000000;fill-rule:evenodd;stroke:none"
       d="m 38.571429,350.21932 c -0.214657,-0.38901 1.663792,-1.89001 5.278615,-4.47309 3.614823,-2.58308 8.958291,-6.26205 15.604259,-11.14446 6.645967,-4.88242 14.587924,-10.98159 23.439136,-18.33389 8.851211,-7.3523 18.607961,-15.96636 29.000631,-25.63976 10.67645,-9.12134 22.09723,-19.18858 34.2276,-29.86552 12.13037,-10.67694 24.9741,-21.96103 38.65808,-33.31272 -1.93218,4.11834 -3.92508,8.24014 -5.96337,12.36792 -4.37768,8.86532 -8.81927,17.47193 -13.15406,25.8673 -4.3348,8.39537 -8.56218,16.57996 -12.54993,24.58427 -6.9422,11.11764 -13.29447,21.92162 -18.70713,32.3451 -5.41265,10.42348 -9.88572,20.46689 -13.33257,30.00561 -7.27538,-2.91503 -14.64642,-4.48152 -21.611337,-5.22468 -6.964915,-0.74316 -13.525946,-0.66278 -19.407299,-0.17728 -5.840506,0.37966 -11.1234,1.10426 -15.770375,1.71446 -4.646975,0.6102 -8.656033,1.11846 -11.932918,1.41724 -6.553771,0.59754 -10.149905,0.40854 -10.207904,-0.1305 -0.029,-0.26952 0.819672,-0.6212 2.46163,-1.0909 1.641959,-0.46971 4.074973,-1.06665 7.234601,-1.84271 3.159627,-0.77606 7.043845,-1.74385 11.640538,-2.80366 4.596693,-1.0598 9.904465,-2.22418 15.989499,-3.05009 5.64344,-0.67955 11.932154,-0.82315 18.623949,0.0593 6.691796,0.88247 13.789326,2.79162 20.834236,6.32728 2.68196,-9.78269 6.24063,-19.98415 10.61069,-30.4241 4.37005,-10.43995 9.55135,-21.11762 15.23983,-31.92624 4.89624,-7.41784 10.09794,-14.91088 15.43636,-22.51907 5.33841,-7.60819 10.81281,-15.33187 16.21442,-23.23955 2.51505,-3.6819 4.97553,-7.34857 7.36306,-11.00654 -12.12644,12.33453 -23.56871,24.61193 -34.56591,36.16531 -10.9972,11.55337 -21.55202,22.37837 -31.66781,32.03214 -10.7938,9.45768 -21.042306,17.79048 -30.404533,24.77807 -9.362226,6.98759 -17.832906,12.63795 -24.981013,16.9854 -7.148108,4.34745 -12.966647,7.40513 -17.027909,9.3008 -4.061261,1.89567 -6.358409,2.64355 -6.573066,2.25454 z"
       id="path3080"
       inkscape:path-effect="#path-effect3082"
       inkscape:original-d="M 38.571429,350.21932 C 94.270718,319.48404 137.3796,271.1222 184.28571,228.07647 161.88508,268.40193 133.87332,306.48293 120,350.21932 c -28.839238,-12.99086 -52.510808,-2.72721 -77.857143,0"
       inkscape:connector-curvature="0"
       sodipodi:nodetypes="cccc" />
    <path
       style="fill:#000000;fill-rule:evenodd;stroke:none"
       d="m 92.142857,380.93361 c -0.242205,-0.37815 1.535803,-2.0132 5.008535,-4.81948 3.472728,-2.80628 8.634168,-6.79309 15.103218,-11.97389 6.46906,-5.1808 14.24063,-11.56451 22.96324,-19.12386 8.72261,-7.55935 18.39332,-16.30014 28.75158,-26.04227 10.13788,-8.83649 20.97008,-18.4782 32.46384,-28.64164 11.49375,-10.16345 23.65217,-20.84665 36.57534,-31.62345 1.47724,1.47544 2.57391,2.86009 3.29881,4.12662 0.38602,-0.16035 0.59372,-0.2517 0.61853,-0.29245 0,0 0,0 0,-10e-6 0.0694,-0.0764 -0.0217,0.044 -0.31195,0.29999 0,0 0,0 -1e-5,1e-5 -0.85769,0.83445 -1.70475,1.94947 -2.676,3.21262 -0.90188,1.19001 -1.78466,2.41081 -2.65513,3.65722 -2.166,3.10145 -4.22782,6.31953 -6.29451,9.5642 -8.84351,13.90665 -16.86284,27.75885 -24.40315,41.02769 -8.12632,14.30637 -15.61885,27.86253 -22.0214,40.58686 -1.24899,2.48218 -2.44603,4.91757 -3.56117,7.32019 -0.8564,1.84995 -1.65701,3.62848 -2.32439,5.37123 -0.23707,0.62214 -0.44825,1.19756 -0.60888,1.73514 -0.10923,0.41238 -0.19588,0.65907 -0.19808,0.75132 0.008,0.0289 -0.005,-0.0801 -0.0226,-0.32838 0.0469,-0.16012 -0.12453,-0.59203 -0.48834,-1.31273 -0.43988,-0.7209 -1.15372,-1.22849 -2.15434,-1.54453 -0.99947,-0.12642 -1.59589,-0.12133 -1.80728,0.0455 0.20175,-0.10681 0.10097,-0.0168 -0.33145,0.21073 -10e-6,0 -2e-5,0 -3e-5,0 -0.15061,0.002 -0.49559,0.38313 -1.05233,1.13164 -0.53893,0.82396 -0.62483,1.89582 -0.26806,3.22993 0.59173,1.08187 1.0152,1.64102 1.29286,1.67421 0.3533,0.21731 0.54971,0.32759 0.59792,0.32243 0.1548,0.0356 0.12061,0.0396 -0.0837,-0.0215 0,0 -1e-5,0 -1e-5,0 -0.62818,-0.14955 -1.39583,-0.22902 -2.27419,-0.32537 -1.29102,-0.13405 -2.59942,-0.2257 -3.91796,-0.30558 -9.00982,-0.54349 -17.35882,-0.54811 -24.8483,-0.53335 -5.54639,0.0134 -10.59023,0.064 -15.09072,0.1826 -4.50049,0.11865 -8.45814,0.30247 -11.83618,0.50324 -1.96021,0.11998 -3.70279,0.22746 -5.23079,0.36522 -1.52799,0.13777 -2.84213,0.30284 -3.9502,0.47026 -1.152047,0.18332 -2.00569,0.3382 -2.638757,0.53331 -0.324694,0.1042 -0.563558,0.18167 -0.745044,0.27131 -0.15308,0.0798 -0.274686,0.14329 -0.365212,0.19986 -0.09053,0.0566 -0.159919,0.10269 -0.228005,0.0951 -0.06809,-0.008 -0.135272,-0.0747 -0.156499,-0.22433 -0.02123,-0.14965 0.01139,-0.38865 0.155014,-0.62639 0.147548,-0.26246 0.404512,-0.55708 0.72697,-0.81392 0.616608,-0.50209 1.566044,-1.01297 2.695084,-1.4573 1.103979,-0.44123 2.444249,-0.88279 4.003269,-1.29151 1.55901,-0.40871 3.33769,-0.78166 5.28555,-1.14549 3.38984,-0.63707 7.3876,-1.24508 11.93697,-1.77008 4.54936,-0.52499 9.65067,-0.96403 15.22688,-1.33992 7.5278,-0.51082 16.00206,-0.96411 25.33482,-0.82712 1.37423,0.02 2.79141,0.0579 4.25189,0.1452 0.9211,0.0484 1.97043,0.12758 3.1412,0.32896 0,10e-6 1e-5,10e-6 1e-5,10e-6 0.30898,0.0391 0.79042,0.15373 1.43417,0.38106 0.19944,0.0542 0.54554,0.23153 1.03192,0.54237 0.36371,0.0937 0.87066,0.72632 1.49983,1.90655 0.38706,1.41364 0.28622,2.57729 -0.29597,3.47456 -0.62046,0.85649 -1.06803,1.317 -1.32303,1.38864 -2e-5,0 -4e-5,1e-5 -5e-5,1e-5 -0.82465,0.48894 -1.38301,0.72585 -1.63249,0.76135 -0.41191,0.2301 -1.22493,0.27328 -2.42875,0.0959 -1.16865,-0.35796 -2.02813,-0.97965 -2.56083,-1.84701 -0.48494,-0.91182 -0.70661,-1.57168 -0.68622,-1.95687 -0.0551,-0.57104 -0.0556,-1.0072 -0.018,-1.30273 0.0871,-0.88588 0.23915,-1.60145 0.39332,-2.14294 0.21805,-0.83378 0.46578,-1.61435 0.71711,-2.3445 0.70255,-2.05023 1.50761,-4.03889 2.33124,-5.9824 1.08127,-2.55681 2.23631,-5.1178 3.43225,-7.68963 6.10902,-13.13882 13.3775,-27.04547 21.32164,-41.54376 7.3708,-13.45781 15.35196,-27.53775 24.31006,-41.71933 2.06943,-3.28149 4.20932,-6.62599 6.53176,-9.94714 0.93334,-1.3347 1.89129,-2.65836 2.88038,-3.96542 1.00075,-1.34095 2.1594,-2.8078 3.60466,-4.26211 1e-5,-10e-6 1e-5,-10e-6 2e-5,-2e-5 0.4057,-0.43568 1.03653,-0.98926 1.92811,-1.59775 1e-5,-1e-5 2e-5,-2e-5 3e-5,-2e-5 0.3003,-0.21905 0.79625,-0.47261 1.49157,-0.74197 0.94938,1.18764 2.2857,2.52045 3.99893,4.02539 -12.32364,12.25191 -24.02358,24.41053 -35.22401,35.88241 -11.20042,11.47188 -21.9034,22.25342 -32.06439,31.93329 -10.74089,9.50422 -20.87037,17.94125 -30.07728,25.11934 -9.20692,7.17809 -17.48727,13.10252 -24.45746,17.74673 -6.97018,4.64421 -12.62474,8.01697 -16.579355,10.15003 -3.954612,2.13306 -6.203833,3.03604 -6.446038,2.65789 z"
       id="path3084"
       inkscape:path-effect="#path-effect3086"
       inkscape:original-d="M 92.142857,380.93361 C 147.01775,345.7859 188.83119,300.18904 235,258.07647 c -6.52294,-0.81537 -74.22611,121.03058 -66.42857,118.57143 9.72347,-3.06655 -71.445934,-1.98661 -72.142858,4.28571"
       inkscape:connector-curvature="0"
       sodipodi:nodetypes="ccsc" />
    <path
       style="fill:#000000;fill-rule:evenodd;stroke:none"
       d="m 304.28571,320.21932 c -0.4654,-0.91945 5.10933,-4.76465 15.47991,-10.34767 5.18529,-2.79151 11.56053,-6.02264 18.91117,-9.57871 7.35064,-3.55606 15.6766,-7.4371 24.72214,-11.55202 1.18074,13.35966 1.6178,28.24849 1.04239,43.83458 -0.48299,13.08271 -1.62141,25.59519 -3.11962,37.08048 -1.4982,11.48529 -3.35184,21.94361 -5.267,31.00779 -9.92448,8.16458 -18.16362,14.63812 -24.03089,18.88583 -5.86727,4.24771 -9.36352,6.27106 -9.88095,5.66972 -0.51743,-0.60134 1.98852,-3.74268 6.80093,-8.68445 4.8124,-4.94178 11.93039,-11.68252 20.71579,-19.61714 1.70271,-8.82744 3.59794,-18.73819 5.36436,-29.42465 1.76642,-10.68647 3.39952,-22.14806 4.51693,-34.09973 1.33122,-14.23862 1.76208,-27.8193 1.34592,-40.26705 -7.96157,4.49361 -15.37131,8.57755 -22.05772,12.12666 -6.68641,3.54911 -12.64957,6.56334 -17.67679,8.94113 -10.05443,4.75556 -16.40117,6.94468 -16.86657,6.02523 z"
       id="path3088"
       inkscape:path-effect="#path-effect3090"
       inkscape:original-d="m 304.28571,320.21932 57.85715,-29.28571 c 2.22464,35.95238 -2.01579,71.90476 -9.28572,107.85714 l -30.71428,26.42857"
       inkscape:connector-curvature="0"
       sodipodi:nodetypes="cccc" />
    <path
       style="fill:#000000;fill-rule:evenodd;stroke:none"
       d="m 623.57143,464.50504 c 0.615,2.69061 -10.08588,7.43429 -23.88588,10.58858 -13.8,3.15428 -25.49912,3.5306 -26.11412,0.83999 -0.615,-2.69061 10.08588,-7.43429 23.88588,-10.58858 13.8,-3.15428 25.49912,-3.5306 26.11412,-0.83999 z"
       id="path3092"
       inkscape:path-effect="#path-effect3094"
       inkscape:original-d="m 623.57143,464.50504 -50,11.42857"
       inkscape:connector-curvature="0" />
    <path
       style="fill:#000000;fill-rule:evenodd;stroke:none"
       d="m 617.85714,483.07647 c 0.55919,2.70276 -8.26697,6.8163 -19.70126,9.18202 -11.43428,2.36571 -21.16812,2.09217 -21.72731,-0.61059 -0.55919,-2.70276 8.26697,-6.8163 19.70126,-9.18202 11.43428,-2.36571 21.16812,-2.09217 21.72731,0.61059 z"
       id="path3096"
       inkscape:path-effect="#path-effect3098"
       inkscape:original-d="m 617.85714,483.07647 -41.42857,8.57143"
       inkscape:connector-curvature="0" />
    <path
       style="fill:#000000;fill-rule:evenodd;stroke:none"
       d="m 190.71429,473.07647 c 0.0345,-0.68914 5.23221,-1.08068 14.59724,-1.24044 9.36502,-0.15977 22.89763,-0.091 39.60672,0.092 33.41817,0.36597 79.54228,1.14999 130.45773,1.50066 25.45773,0.17534 49.71535,0.23217 71.78497,0.22832 22.06961,-0.004 41.95132,-0.0663 58.65669,-0.0734 16.70538,-0.007 30.23465,0.0447 39.59647,0.28182 9.36182,0.23708 14.55642,0.66449 14.58589,1.35386 0.0295,0.68937 -5.10979,1.5758 -14.43577,2.53441 -9.32597,0.9586 -22.83902,1.98425 -39.55209,2.89685 -16.71308,0.9126 -36.62631,1.70838 -58.7439,2.21914 -22.1176,0.51076 -46.4394,0.73435 -71.96109,0.55878 -51.04337,-0.35114 -97.25499,-2.25829 -130.65777,-4.43518 -16.70139,-1.08844 -30.20313,-2.23462 -39.52009,-3.27023 -9.31695,-1.03562 -14.44949,-1.95748 -14.415,-2.64662 z"
       id="path3100"
       inkscape:path-effect="#path-effect3102"
       inkscape:original-d="M 190.71429,473.07647 C 313.80953,479.23714 436.90476,480.48212 560,475.21932"
       inkscape:connector-curvature="0"
       sodipodi:nodetypes="cc" />
    <path
       style="fill:#000000;fill-rule:evenodd;stroke:none"
       d="m 195,486.6479 c 0.0393,-0.68888 5.09036,-1.05429 14.18703,-1.15757 9.09666,-0.10327 22.23913,0.0533 38.46527,0.36909 32.45229,0.63157 77.23876,1.87373 126.67853,2.92627 24.71989,0.52627 48.27486,0.9589 69.70542,1.32328 21.43056,0.36439 40.7368,0.66225 56.95751,0.97069 16.22071,0.30844 29.35604,0.63078 38.44136,1.05783 9.08533,0.42704 14.12073,0.96344 14.13631,1.65326 0.0156,0.68982 -4.9909,1.46811 -14.06302,2.2372 -9.07211,0.7691 -22.21005,1.52434 -38.45188,2.12102 -16.24183,0.59668 -35.58756,1.03144 -57.06809,1.17314 -21.48052,0.14169 -45.09567,-0.0115 -69.87041,-0.53867 -49.54949,-1.05443 -94.39031,-3.41974 -126.80037,-5.86155 -16.20503,-1.2209 -29.3045,-2.45437 -38.3424,-3.54599 -9.0379,-1.09162 -14.01454,-2.03912 -13.97526,-2.728 z"
       id="path3104"
       inkscape:path-effect="#path-effect3106"
       inkscape:original-d="m 195,486.6479 c 119.52381,6.81509 239.04762,9.84241 358.57143,7.14285"
       inkscape:connector-curvature="0"
       sodipodi:nodetypes="cc" />
    <path
       style="fill:#000000;fill-rule:evenodd;stroke:none"
       d="m 558.57143,510.93361 c 0.015,0.68984 -4.87338,1.46134 -13.73187,2.21963 -8.85848,0.75828 -21.68733,1.49943 -37.54814,2.07713 -15.86081,0.57771 -34.75371,0.98894 -55.73195,1.08812 -20.97824,0.0992 -44.04171,-0.11591 -68.23524,-0.75055 -24.19353,-0.63463 -47.23665,-1.62947 -68.18068,-2.83403 -20.94403,-1.20457 -39.78893,-2.61666 -55.59669,-4.03931 -15.80776,-1.42265 -28.57865,-2.85252 -37.38354,-4.08763 -8.80489,-1.23511 -13.6443,-2.27106 -13.59189,-2.95907 0.0524,-0.68801 4.99093,-0.96333 13.87198,-0.92206 8.88106,0.0413 21.70506,0.39472 37.53615,0.91213 15.8311,0.5174 34.6696,1.19548 55.58199,1.89182 20.91239,0.69633 43.89879,1.40879 68.02489,2.0416 24.1261,0.6328 47.11923,1.12682 68.04064,1.53347 20.92142,0.40665 39.77107,0.7281 55.60854,1.05563 15.83747,0.32753 28.66287,0.66415 37.53365,1.10211 8.87079,0.43796 13.78713,0.98117 13.80216,1.67101 z"
       id="path3108"
       inkscape:path-effect="#path-effect3110"
       inkscape:original-d="m 558.57143,510.93361 c -116.66667,2.54109 -233.33333,-0.39866 -350,-9.28571"
       inkscape:connector-curvature="0"
       sodipodi:nodetypes="cc" />
  </g>
</svg>
