<?xml version="1.0" encoding="UTF-8" standalone="no"?>
<!-- Created with Inkscape (http://www.inkscape.org/) -->

<svg
   xmlns:osb="http://www.openswatchbook.org/uri/2009/osb"
   xmlns:dc="http://purl.org/dc/elements/1.1/"
   xmlns:cc="http://creativecommons.org/ns#"
   xmlns:rdf="http://www.w3.org/1999/02/22-rdf-syntax-ns#"
   xmlns:svg="http://www.w3.org/2000/svg"
   xmlns="http://www.w3.org/2000/svg"
   xmlns:xlink="http://www.w3.org/1999/xlink"
   xmlns:sodipodi="http://sodipodi.sourceforge.net/DTD/sodipodi-0.dtd"
   xmlns:inkscape="http://www.inkscape.org/namespaces/inkscape"
   width="210mm"
   height="297mm"
   viewBox="0 0 210 297"
   version="1.1"
   id="svg865"
   inkscape:version="0.92.2 5c3e80d, 2017-08-06"
   sodipodi:docname="books.svg">
  <defs
     id="defs859">
    <linearGradient
       id="white"
       osb:paint="solid">
      <stop
         style="stop-color:#fffdfd;stop-opacity:1;"
         offset="0"
         id="stop827" />
    </linearGradient>
    <linearGradient
       inkscape:collect="always"
       xlink:href="#white"
       id="linearGradient831"
       x1="-127.51119"
       y1="148.26151"
       x2="369.41873"
       y2="148.26151"
       gradientUnits="userSpaceOnUse" />
  </defs>
  <sodipodi:namedview
     id="base"
     pagecolor="#ffffff"
     bordercolor="#666666"
     borderopacity="1.0"
     inkscape:pageopacity="0.0"
     inkscape:pageshadow="2"
     inkscape:zoom="0.35"
     inkscape:cx="828.59041"
     inkscape:cy="431.8491"
     inkscape:document-units="mm"
     inkscape:current-layer="layer1"
     showgrid="true"
     inkscape:window-width="1596"
     inkscape:window-height="1005"
     inkscape:window-x="84"
     inkscape:window-y="1"
     inkscape:window-maximized="1"
     inkscape:snap-global="false">
    <inkscape:grid
       type="xygrid"
       id="grid823" />
  </sodipodi:namedview>
  <metadata
     id="metadata862">
    <rdf:RDF>
      <cc:Work
         rdf:about="">
        <dc:format>image/svg+xml</dc:format>
        <dc:type
           rdf:resource="http://purl.org/dc/dcmitype/StillImage" />
        <dc:title></dc:title>
      </cc:Work>
    </rdf:RDF>
  </metadata>
  <g
     inkscape:label="main"
     inkscape:groupmode="layer"
     id="layer1">
    <path
       style="fill:url(#linearGradient831);fill-rule:evenodd;stroke:#000000;stroke-width:0.26458332px;stroke-linecap:butt;stroke-linejoin:miter;stroke-opacity:1;fill-opacity:1.0"
       d="m -122.84226,-14.074405 229.05357,0.755953 126.24404,0.377976 123.9762,-9.449405 0.37796,9.071429 6.42559,-0.377977 1.13395,180.672619 4.91369,140.98513 -7.9375,1.88986 -3.4018,4.91369 -240.39285,-1.13393 -3.40178,4.53573 -11.33929,0.75594 -11.339282,-0.75594 -4.157739,-4.91369 -210.154759,1.51189 -4.53571,-3.40178 z"
       id="path825"
       inkscape:connector-curvature="0"
       inkscape:export-filename="/Users/jan/Documents/repo/github/microcol/microcol-game/src/main/resources/images/book.png"
       inkscape:export-xdpi="43.279999"
       inkscape:export-ydpi="43.279999" />
    <path
       inkscape:connector-curvature="0"
       style="fill:#000000;stroke-width:0.26458332"
       d="m -128.45114,118.91853 c -0.01,0.60671 0.12145,1.27993 0.40195,1.48761 0.41349,0.30616 0.47502,0.92698 0.53089,5.33627 0.0348,2.74431 0.0812,5.70432 0.10283,6.57759 0.0242,0.97645 -0.0902,1.72241 -0.29631,1.93769 -0.18441,0.19255 -0.28101,0.43849 -0.21515,0.54649 0.261,0.42799 0.3536,1.61553 0.13632,1.74803 -0.12682,0.0773 -0.23527,0.88958 -0.24074,1.8052 -0.005,0.91564 -0.0479,1.79435 -0.0944,1.95233 -0.0464,0.15797 0.0346,0.3011 0.18,0.31837 0.14542,0.0174 0.30406,-0.56473 0.35241,-1.29396 0.12837,-1.93642 0.59104,-1.61943 0.579,0.39671 -0.009,1.52597 -0.0683,1.71943 -0.52392,1.7167 -0.74541,-0.004 -0.86507,0.36694 -0.39595,1.22704 l 0.41304,0.75747 -0.11347,-0.72829 c -0.0773,-0.49563 0.001,-0.72761 0.2467,-0.72615 0.43768,0.003 0.49189,1.73636 0.0625,1.99822 -0.16264,0.0992 -0.21589,0.46708 -0.12237,0.84937 0.0916,0.37446 0.0413,0.75039 -0.11357,0.84476 -0.24397,0.14881 -0.38493,3.51253 -0.36834,8.80621 0.003,0.69125 -10e-4,1.40561 -0.009,1.58747 -0.007,0.18186 0.10727,1.58155 0.25377,3.11042 0.1465,1.52888 0.30227,8.55462 0.34652,15.61277 0.0442,7.05815 0.12823,15.75037 0.18644,19.31604 0.0586,3.56567 0.048,11.90013 -0.0228,18.52103 -0.15929,14.91581 -0.18909,29.80059 -0.0682,33.99915 0.1091,3.788 0.0943,4.66102 -0.16162,9.66839 -0.10814,2.11613 -0.1264,4.37825 -0.0409,5.02692 0.0855,0.64868 0.0532,1.21829 -0.0717,1.26567 -0.12488,0.0473 -0.10431,0.31833 0.0455,0.60231 0.46581,0.883 0.54685,2.35666 0.12961,2.35417 -0.62257,-0.004 -1.00892,1.88822 -0.45623,2.23438 0.28901,0.18101 0.6566,-0.79345 0.43583,-1.15549 -0.0837,-0.13726 -0.0485,-0.31284 0.0783,-0.39021 0.12697,-0.0774 0.20984,1.63944 0.18442,3.81902 -0.0254,2.17801 -0.14423,3.9597 -0.26446,3.95898 -0.12021,-7.1e-4 -0.13011,0.14435 -0.0215,0.32234 0.21743,0.35662 0.16834,4.65351 -0.0842,7.35008 -0.0885,0.94538 -0.21609,3.42559 -0.28355,5.51176 -0.0675,2.08618 -0.18622,3.85602 -0.26378,3.93263 -0.0779,0.0766 -0.081,0.45264 -0.007,0.83609 0.0739,0.38346 0.16593,2.60264 0.20413,4.93124 0.0382,2.3286 0.12503,6.37733 0.19328,8.99715 0.0683,2.61984 0.12243,4.93431 0.12018,5.14365 -0.003,0.27124 0.1454,0.2222 0.51572,-0.17056 0.43821,-0.46478 0.50341,-0.83466 0.41823,-2.36225 -0.25439,-4.56276 -0.31329,-9.35341 -0.1152,-9.35223 0.1837,10e-4 0.95715,5.62692 1.2015,8.73858 0.27031,3.44215 0.30576,3.25208 -0.65236,3.4957 -1.15937,0.2948 -1.04449,1.02374 0.2096,1.33246 0.50769,0.125 1.04175,0.21768 1.18734,0.20605 1.92536,-0.15338 9.12846,-0.10768 8.95845,0.0565 -0.1256,0.12138 -1.77662,0.23552 -3.66854,0.25352 -3.89882,0.0371 -4.36632,0.1052 -4.36949,0.63641 -10e-4,0.20846 -0.22637,0.37796 -0.50043,0.37632 -0.27614,-0.002 -0.56125,0.23301 -0.63981,0.52639 -0.19685,0.73478 0.62907,0.90237 3.46232,0.70333 1.26476,-0.0888 3.49051,-0.20929 4.94609,-0.26759 1.45559,-0.0583 3.58112,-0.23491 4.72307,-0.39245 1.86806,-0.25773 9.17565,-0.1142 12.079202,0.237 0.50896,0.0615 1.97661,0.18291 3.2613,0.26959 1.28468,0.0867 2.45233,0.23041 2.59436,0.31936 0.58392,0.3657 1.74558,0.38591 2.04001,0.0355 0.25524,-0.30384 0.0679,-0.40064 -1.08085,-0.55837 -0.76428,-0.10495 -2.34217,-0.25179 -3.50592,-0.32584 -1.16375,-0.074 -2.65123,-0.21204 -3.30552,-0.30654 -0.654292,-0.0945 -1.487102,-0.20252 -1.850682,-0.23999 -5.03119,-0.51896 -5.4896,-0.61516 -4.57598,-0.96166 1.06484,-0.40384 7.352732,-0.5291 25.414842,-0.50503 9.86267,0.0131 23.09984,-0.0277 29.415808,-0.0905 10.83736,-0.10773 11.47342,-0.0881 11.30443,0.34451 -0.0985,0.25215 -0.0644,0.59827 0.0755,0.76889 0.18773,0.22902 0.0149,0.28085 -0.65853,0.19813 -0.59862,-0.0735 -0.91312,-0.001 -0.91438,0.20951 -10e-4,0.17692 -0.16532,0.25792 -0.3654,0.17972 -0.20009,-0.0782 -0.49816,-0.009 -0.66239,0.15315 -0.22068,0.21803 -0.29843,0.21463 -0.29707,-0.0132 10e-4,-0.16951 -0.23704,-0.43832 -0.52922,-0.59694 -0.40317,-0.21889 -0.51485,-0.20858 -0.46328,0.0422 0.0442,0.21512 -0.27105,0.33247 -0.90378,0.33671 -0.85795,0.005 -0.98539,0.0926 -1.08502,0.74438 -0.0848,0.55481 -0.0194,0.70317 0.26257,0.5969 0.20636,-0.0779 0.4971,-0.1407 0.64629,-0.1398 0.14918,8.9e-4 0.20368,-0.17739 0.12122,-0.39617 -0.0825,-0.21877 -0.0342,-0.39708 0.10676,-0.39624 0.14095,8.4e-4 0.2547,0.1837 0.25337,0.40614 -0.002,0.34841 0.64781,0.40534 4.69398,0.41201 2.58301,0.004 5.70833,0.0251 6.94516,0.0465 2.38778,0.0413 5.99566,-0.11142 9.26291,-0.39169 l 1.98543,-0.17005 -1.32158,-0.22804 c -1.38304,-0.23879 -1.69162,-0.26472 -2.77674,-0.23879 -1.15589,0.0277 -4.44549,-0.40488 -4.64939,-0.61121 -0.10787,-0.10919 0.4486,-0.20658 1.23691,-0.21638 0.78831,-0.01 1.73134,-0.11138 2.09582,-0.22571 0.62102,-0.19478 0.60449,-0.21275 -0.26287,-0.28683 -0.50907,-0.0431 -1.16381,-0.0638 -1.45496,-0.0449 -0.29116,0.0189 -2.13712,0.0952 -4.10213,0.16982 -1.96501,0.0746 -3.72286,0.18432 -3.90672,0.24383 -0.72087,0.23334 -1.9144,-0.21229 -1.91141,-0.71371 0.003,-0.45199 0.23814,-0.49468 2.64875,-0.48028 1.58747,0.009 2.64641,-0.09 2.64736,-0.24878 0.002,-0.2715 -0.93558,-0.34326 -4.62816,-0.35631 -6.87452,-0.0235 -38.983378,0.10596 -39.424568,0.15883 -0.32384,0.0389 -0.52863,-0.0907 -0.52718,-0.33336 0.001,-0.22799 0.1955,-0.36325 0.45614,-0.3182 0.24951,0.0431 1.17782,-0.10453 2.06285,-0.32823 0.88503,-0.22371 2.11037,-0.39748 2.72313,-0.38681 4.64744,0.0836 14.47816,-0.18059 15.07361,-0.40505 0.45602,-0.17189 0.9633,-0.18465 1.3531,-0.0338 0.60756,0.23516 5.699958,0.2394 20.541648,0.0162 4.00226,-0.0602 7.69351,-0.10164 8.20278,-0.0926 9.77552,0.18006 15.11937,0.35461 18.2530204,0.59581 2.10913,0.16237 6.335427,0.24489 9.39177698,0.18374 3.05636002,-0.0613 8.23573002,-0.0711 11.50971662,-0.0223 3.273987,0.0489 6.964712,0.0959 8.201598,0.10529 1.236896,0.009 3.975257,0.0307 6.085246,0.0472 2.109989,0.0166 4.984469,0.0117 6.387395,-0.012 1.405937,-0.0236 2.62024,0.0716 2.705596,0.2115 0.185744,0.30461 -1.470395,0.49701 -7.283302,0.84742 -6.340065,0.38218 -6.336815,0.38222 -6.521961,0.56516 -0.09365,0.092 2.98053,0.1059 6.831049,0.0305 3.850529,-0.0753 12.298862,-0.131 18.774606,-0.12403 6.475754,0.007 14.375222,0.006 17.554296,-0.002 5.852512,-0.0146 8.903443,0.18181 8.901109,0.57253 -7.04e-4,0.11799 -0.637186,0.15816 -1.414428,0.0892 -0.777262,-0.0689 -2.474284,-0.0118 -3.771144,0.12837 -5.226726,0.56308 -10.659656,0.78299 -12.612322,0.51017 -1.285158,-0.17992 -2.796521,-0.18732 -4.446704,-0.0226 -1.374875,0.13736 -4.107246,0.21301 -6.071541,0.16787 -4.777721,-0.10963 -4.5839,-0.11087 -11.377686,0.0674 -3.274792,0.086 -6.549455,0.15047 -7.277031,0.14412 -0.727585,-0.006 -3.100541,-0.0291 -5.273384,-0.0501 -2.172824,-0.021 -4.034002,0.0133 -4.136186,0.0756 -0.102174,0.0623 -1.419647,-0.0115 -2.927577,-0.16322 -1.50794,-0.15187 -3.753826,-0.29854 -4.9906056,-0.32592 -1.23923,-0.0274 -2.5516,-0.20489 -2.92361,-0.39574 -0.37127,-0.19048 -0.82018,-0.25827 -0.99751,-0.15014 -0.39967,0.24373 -1.89678,0.0365 -1.89499,-0.26246 0.002,-0.32689 0.30098,-0.45351 1.46462,-0.61863 0.5795,-0.0822 1.43311,-0.0374 1.89648,0.0992 0.90052,0.26542 3.0592,0.10187 2.86474,-0.21698 -0.30268,-0.49631 -24.9465174,-1.01661 -30.7891074,-0.65002 -3.32456,0.2086 -3.32525,0.67547 -5.1e-4,0.58757 1.50763,-0.0399 4.58677,-0.0523 6.84225,-0.0278 2.25546,0.0244 6.3328504,0.0695 9.0610204,0.10062 3.143367,0.0359 4.95986698,0.15441 4.95908698,0.32366 -0.003,0.70698 -1.13038998,0.88249 -5.59564698,0.87042 -2.52762,-0.007 -5.4292804,0.0273 -6.4482404,0.0757 -1.01895,0.0484 -3.0427,-0.0102 -4.49722,-0.12969 -1.51168,-0.12438 -2.75317,-0.11657 -2.89766,0.0184 -0.15362,0.14344 0.002,0.24951 0.39526,0.27057 0.45385,0.0242 0.50803,0.0703 0.18099,0.15353 -1.38975,0.35371 0.51102,0.47721 7.38389,0.48026 4.1977004,0.002 8.6449974,-0.11865 9.8828274,-0.26809 2.19570998,-0.26506 7.94009,-0.16981 9.25967,0.1535 0.36327,0.089 1.46373,0.2389 2.44545,0.33345 1.3175856,0.12692 1.7843286,0.2735 1.7826206,0.55947 -0.002,0.32692 0.441971,0.36277 2.842955,0.2304 2.407805,-0.1327 17.909962,-0.14947 19.116605,-0.0207 1.22643,0.13089 30.210337,-0.19402 39.074832,-0.43792 1.4805,-0.0408 3.504156,0.0345 4.496993,0.1669 1.412181,0.18827 1.864876,0.16361 2.079666,-0.11367 0.211183,-0.27266 1.295666,-0.34708 4.69835,-0.32075 2.433093,0.0185 4.423329,0.12884 4.422638,0.24448 -6.9e-4,0.11565 -0.328104,0.24599 -0.727283,0.28971 -1.61043,0.17613 -0.750774,1.57737 2.159758,3.52127 1.901649,1.27009 3.752605,1.92924 4.362109,1.55364 0.358885,-0.22078 1.105379,-0.21584 2.927406,0.0195 1.850925,0.23915 3.129589,0.24396 5.259083,0.02 1.54757,-0.16273 3.6571,-0.29081 4.68781,-0.28466 1.79089,0.0107 6.68995,-0.7024 8.47987,-1.23456 1.1714,-0.34826 3.11633,-1.71203 3.99744,-2.80288 l 0.73565,-0.91081 3.17649,0.019 c 1.74717,0.0104 3.59186,0.14572 4.09932,0.30044 1.34272,0.4094 7.5852,0.36717 15.74209,-0.10648 2.03803,-0.11834 4.77648,-0.11141 6.08543,0.0151 1.30895,0.12662 3.63048,0.16561 5.15894,0.0871 3.28196,-0.16846 11.52251,-0.29576 15.08291,-0.2329 1.38233,0.0244 6.85915,0.051 12.17072,0.0577 5.31156,0.007 10.252,0.13073 10.97875,0.27435 3.21067,0.63432 21.57455,0.633 23.25845,-0.002 1.0488,-0.39533 -0.1081,-0.48821 -4.11465,-0.3305 -2.3981,0.0944 -7.17374,0.0302 -10.71548,-0.1436 -3.51403,-0.17243 -12.20479,-0.33445 -19.31279,-0.3603 -7.108,-0.0257 -15.89961,-0.0769 -19.53748,-0.11369 -7.11141,-0.0719 -14.62159,-0.002 -24.39358,0.22587 -4.21031,0.0983 -6.47846,0.0489 -7.22666,-0.15737 -1.43631,-0.39598 -20.2012,-0.90357 -25.79161,-0.69769 -1.31,0.0482 -3.09564,-0.006 -3.9681,-0.1214 -0.96197,-0.12681 -1.847232,-0.10394 -2.249349,0.0584 l -0.663071,0.26786 0.711478,0.0207 c 1.054673,0.0311 1.198858,0.5481 0.160378,0.57509 -1.368897,0.0356 -2.368026,-0.0713 -2.967483,-0.31797 -0.432206,-0.17782 -0.293999,-0.23546 0.640329,-0.26748 l 1.190896,-0.041 -1.18939,-0.21123 c -0.654157,-0.11629 -1.36773,-0.25356 -1.585706,-0.30507 -0.217977,-0.0514 -0.782201,0.0647 -1.253684,0.25814 -0.471504,0.19341 -1.067253,0.2634 -1.323865,0.15591 -0.256643,-0.10749 -2.192708,-0.23636 -4.302495,-0.28666 -6.514058,-0.15539 -13.083201,-0.52103 -13.314382,-0.741 -0.121173,-0.1153 2.141984,-0.2738 5.029271,-0.35186 2.887278,-0.078 6.111863,-0.18317 7.165944,-0.23367 1.0541,-0.0505 2.259579,0.008 2.678691,0.13176 0.683634,0.20049 10.688748,0.7432 12.995738,0.70498 4.02955,-0.0667 15.72389,0.0177 17.85894,0.12886 5.8015,0.30215 39.68791,0.28794 40.66913,-0.017 0.27524,-0.0856 0.64295,-0.0357 0.81739,0.11082 0.20293,0.17046 0.77373,0.18386 1.58472,0.0374 0.69701,-0.12592 1.76901,-0.21234 2.38194,-0.19248 0.6129,0.0199 3.03789,-0.0887 5.38933,-0.24119 5.17707,-0.33568 30.66126,-0.2316 35.28185,0.14402 3.76662,0.30623 15.4533,0.26404 16.34279,-0.059 0.52322,-0.19001 -3.58783,-0.32922 -11.90818,-0.40341 -1.27326,-0.0116 -2.31438,-0.12635 -2.31361,-0.25566 0.003,-0.57512 2.7415,-0.6437 15.00417,-0.37549 1.34436,0.0294 2.56149,0.18267 2.71926,0.34232 0.18576,0.18793 0.7225,0.21954 1.53429,0.0908 1.81282,-0.28749 3.29446,-0.26512 3.09934,0.0464 -0.0909,0.14498 -0.42644,0.27585 -0.74539,0.29115 -1.02705,0.0493 0.87019,0.43734 2.35,0.48068 0.73964,0.0216 1.42707,0.12216 1.52728,0.22358 0.10022,0.10142 0.86331,0.22288 1.69601,0.26955 0.83269,0.0467 2.70404,0.21237 4.15834,0.36797 3.46934,0.37117 13.12029,0.65047 12.41902,0.35943 -0.29817,-0.12373 -2.38057,-0.3235 -4.62764,-0.44363 -2.24704,-0.12013 -4.38282,-0.24789 -4.74641,-0.28416 -6.93483,-0.69139 -6.42208,-0.95678 1.64895,-0.85367 3.67951,0.047 7.70238,0.0571 8.93953,0.0229 3.07423,-0.0849 16.69644,0.36268 23.27867,0.76484 1.87028,0.11426 6.22264,1.01909 6.56417,1.36473 0.16007,0.16198 -1.22354,0.0591 -5.90771,-0.44043 -3.56097,-0.37968 -12.64445,-0.69108 -13.83893,-0.47437 -1.63973,0.29749 -0.4292,0.61418 3.20157,0.83768 3.66491,0.2256 4.64011,0.6841 1.25894,0.592 -1.15289,-0.0314 -2.25484,0.0684 -2.44876,0.22154 -0.36125,0.28511 -5.09726,0.24222 -12.12442,-0.10961 -1.96397,-0.0983 -5.83678,-0.25209 -8.60585,-0.34183 -2.76909,-0.0897 -5.32825,-0.21117 -5.68703,-0.26962 -4.51366,-0.73483 -14.82256,-0.91021 -14.41705,-0.24527 0.0651,0.10674 2.77179,0.28935 6.0144,0.40542 3.24256,0.11607 6.90692,0.33825 8.14294,0.49357 3.62016,0.45495 7.33246,0.62405 23.40966,1.06795 1.6005,0.0442 3.86205,0.15692 5.02568,0.25068 1.16363,0.0937 3.00824,0.24206 4.09915,0.32937 1.09091,0.0873 6.15031,0.22834 11.24312,0.31365 5.09281,0.0853 9.46239,0.23674 9.71075,0.33603 0.24839,0.0993 1.26036,0.11159 2.24884,0.0279 0.98849,-0.0837 6.91686,-0.12901 13.17419,-0.10064 6.25735,0.0284 12.86638,-0.0458 14.68612,-0.16395 3.18408,-0.20665 6.84122,-0.32382 17.0687,-0.54764 4.80372,-0.10512 9.36161,-0.43082 12.04441,-0.86084 0.80114,-0.12841 2.11135,-0.29572 2.91218,-0.37174 0.80084,-0.076 1.93297,-0.24771 2.51586,-0.38134 0.5829,-0.13361 1.44677,-0.24365 1.91972,-0.24382 0.57498,-5.7e-4 0.86119,-0.12957 0.86273,-0.3881 10e-4,-0.21267 0.50778,-0.88133 1.12616,-1.48625 0.88147,-0.86236 1.10836,-1.26296 1.0498,-1.85514 -0.0916,-0.92536 0.44908,-1.50102 1.60911,-1.71383 0.48195,-0.0884 0.99592,-0.24098 1.14203,-0.3389 0.14611,-0.0979 0.77253,-0.33468 1.39223,-0.52603 0.89007,-0.27485 1.27223,-0.2805 1.82024,-0.0268 0.58289,0.2698 0.77572,0.24758 1.20751,-0.13852 l -1e-5,5.3e-4 c 0.34293,-0.30552 0.45797,-0.64052 0.34705,-0.99994 -0.0917,-0.29733 -0.25496,-1.62986 -0.36266,-2.96122 -0.10767,-1.33137 -0.25947,-2.52542 -0.33764,-2.65358 -0.0781,-0.12815 -0.26677,-2.13615 -0.41931,-4.46226 -0.15253,-2.3261 -0.44866,-5.59965 -0.65782,-7.27442 -0.27537,-2.20492 -0.3873,-6.403 -0.40625,-15.21624 -0.0144,-6.69416 -0.14316,-14.0174 -0.28574,-16.27386 -0.14261,-2.25647 -0.2131,-7.19807 -0.15662,-10.98134 0.19322,-12.94745 0.0783,-42.60561 -0.1712,-44.18723 -0.21626,-1.37093 -0.62415,-9.76574 -0.5035,-10.36018 0.0633,-0.3117 0.18981,-3.94242 0.28126,-8.06826 0.17598,-7.94258 -0.0194,-12.84564 -0.64071,-16.10546 -0.20827,-1.09267 -0.44478,-2.40378 -0.52575,-2.9136 -0.0808,-0.50982 -0.2701,-1.46347 -0.42039,-2.11922 -0.15028,-0.65576 -0.32861,-2.68092 -0.39636,-4.50037 -0.0677,-1.81945 -0.15774,-3.78454 -0.20027,-4.36689 -0.0425,-0.58235 -0.12403,-2.30929 -0.1812,-3.83761 -0.0572,-1.52834 -0.21347,-5.04169 -0.34767,-7.80743 -0.13418,-2.76575 -0.24,-6.39786 -0.23601,-8.07134 0.004,-1.6735 -0.11099,-3.75782 -0.25656,-4.63183 -0.32881,-1.97405 -0.61465,-8.1081 -0.49335,-10.58646 0.15237,-3.11372 0.11716,-8.02988 -0.0822,-11.51008 -0.31113,-5.43313 -0.12195,-18.69749 0.28991,-20.32814 0.44088,-1.745548 0.50642,-8.289728 0.12512,-12.478298 -0.15243,-1.67443 -0.32135,-5.36644 -0.37579,-8.20447 -0.0545,-2.83803 -0.22709,-6.64913 -0.3835,-8.46911 -0.54365,-6.324561 -0.21601,-27.098005 0.47988,-30.424749 0.13681,-0.654064 0.258,-1.80441 0.26847,-2.556431 0.0231,-1.604861 0.26049,-2.415148 0.56237,-1.920066 0.10953,0.179517 0.39029,0.254506 0.62378,0.166499 0.5025,-0.189413 0.56968,-1.460754 0.1497,-2.825857 -0.15669,-0.509315 -0.30858,-2.593279 -0.33771,-4.630749 -0.0291,-2.037531 -0.15742,-5.074441 -0.28527,-6.748724 -0.30507,-3.9966243 -0.0334,-15.4498951 0.44889,-18.9153671 0.0607,-0.436185 0.13841,-1.7355039 0.1728,-2.8872089 0.0594,-1.992601 0.0316,-2.105699 -0.57569,-2.33978 -0.63468,-0.244595 -3.451,-0.367488 -5.87676,-0.256264 -0.69829,0.03203 -1.43009,-0.07684 -1.62639,-0.241737 -0.24644,-0.207136 -0.38618,-0.212971 -0.45206,-0.0191 -0.0524,0.15426 -1.03573,0.336141 -2.18474,0.403969 -1.14901,0.06774 -2.17864,0.177462 -2.28818,0.244199 -0.10955,0.06675 -4.58644,0.09884 -9.94883,0.07081 -7.66366,-0.03977 -10.25366,-0.142242 -12.10309,-0.476923 -3.23234,-0.584966 -7.0189,-0.897146 -9.54632,-0.787199 -1.16449,0.05065 -3.07004,0.135917 -4.23454,0.189683 -1.16451,0.05375 -3.22063,0.147067 -4.56951,0.207322 -1.34886,0.06025 -2.59536,0.197013 -2.76964,0.303344 -0.62429,0.380668 0.98716,0.539465 3.3653,0.331705 1.3104,-0.114466 3.27507,-0.133022 4.36594,-0.04113 1.09088,0.09202 3.17408,0.16964 4.62927,0.172351 1.45522,0.0027 4.43061,0.206355 6.61199,0.451878 2.94761,0.33173 6.37838,0.451572 13.35891,0.467363 5.16601,0.01155 9.67759,-0.0335 10.0255,-0.09981 1.21761,-0.232202 12.33772,-0.196117 12.70205,0.04126 0.30309,0.197474 0.32337,0.802886 0.11483,3.4398269 -0.13917,1.760161 -0.27781,7.1325276 -0.30953,11.9387146 -0.0559,8.6887115 -0.0602,8.7423465 -0.65441,9.3729385 -0.67079,0.711437 -0.68105,0.777337 -0.35348,2.255669 0.45045,2.033267 0.30896,8.827103 -0.30292,14.55056 -0.32651,3.054045 -0.67177,6.504824 -0.76722,7.668465 -0.34028,4.148782 -0.28303,16.230449 0.10724,22.622918 0.37613,6.16022 0.81038,15.69088 1.0307,22.62843 0.0555,1.74661 -0.0409,4.90125 -0.21395,7.010308 -0.17315,2.10905 -0.38056,4.72724 -0.46057,5.81819 -0.20377,2.777286 -0.23253,10.0296 -0.0412,10.34349 0.0873,0.14316 0.16774,5.28644 0.17876,11.42951 0.011,6.14305 0.1374,11.94377 0.28063,12.89053 0.14322,0.94676 0.31919,3.98395 0.39117,6.74933 0.11856,4.55541 0.21943,7.22418 0.46549,12.30613 0.0459,0.94618 0.19813,5.05481 0.33823,9.13031 0.14007,4.07549 0.3353,9.01784 0.43413,10.983 0.25304,5.0314 0.073,16.20597 -0.29403,18.25482 -0.82154,4.58615 -1.045,9.96621 -0.67594,16.26812 0.32881,5.61475 0.37751,7.50293 0.52426,20.37641 0.0564,4.94814 0.16979,10.36625 0.25211,12.04027 0.18801,3.82486 0.11158,14.78657 -0.12259,17.59437 -0.37308,4.47201 -0.42873,5.07862 -0.6307,6.87552 -0.1144,1.01798 -0.27212,5.48196 -0.35072,9.91995 -0.4577,25.84813 -0.51438,27.72606 -1.02727,33.99343 -0.16663,2.03633 -0.33177,4.50607 -0.36714,5.48853 -0.0354,0.98244 -0.22585,2.01403 -0.42298,2.29195 -0.47481,0.66928 -3.00311,0.92622 -5.79707,0.58912 -1.15531,-0.1394 -3.58951,-0.17255 -5.40914,-0.0736 -1.81963,0.0989 -4.23134,0.20663 -5.35934,0.2393 -1.128,0.0327 -2.05137,0.13558 -2.05193,0.22908 -5.6e-4,0.0935 -0.88754,0.15223 -1.97121,0.13086 -1.64007,-0.0324 -1.99024,-0.11638 -2.08892,-0.50238 -0.0786,-0.3072 -0.37267,-0.4625 -0.87111,-0.46048 -0.63897,0.003 -0.6829,0.0449 -0.29105,0.27629 0.76218,0.45004 0.52767,0.69981 -0.79885,0.85151 -0.69171,0.0791 -1.61526,0.21182 -2.05232,0.29471 -0.43706,0.0828 -3.72039,0.19304 -7.29673,0.24478 l -6.50221,0.0938 -0.29527,-0.65755 c -0.25931,-0.57823 -0.41328,-0.63913 -1.27393,-0.50474 -0.75129,0.11731 -1.05651,0.0453 -1.31282,-0.30964 -0.30227,-0.41858 -0.55599,-0.43669 -2.67112,-0.1901 -1.28545,0.14986 -3.11133,0.26712 -4.05718,0.25947 -1.83193,-0.0139 -9.13013,0.90647 -9.79714,1.23549 -0.21893,0.10799 -1.22529,0.2189 -2.23649,0.24606 -1.01122,0.0272 -1.96448,0.148 -2.11832,0.26847 -0.15386,0.12012 -3.36181,0.15715 -7.12888,0.0815 -6.54039,-0.13136 -6.93977,-0.16893 -8.85872,-0.83427 -2.61066,-0.90517 -5.34218,-1.12769 -12.85571,-1.04728 -5.40853,0.0579 -26.91711,-0.26816 -37.83267,-0.57323 -5.96546,-0.16677 -12.15599,-0.30595 -13.75673,-0.30851 -6.33843,-0.0125 -15.84585,-0.0555 -20.24044,-0.0925 -5.09656,-0.0428 -11.02212,0.18903 -11.44662,0.44789 -0.14939,0.0911 -4.39228,0.0994 -9.42864,0.0181 -15.44273,-0.24919 -21.25315,-0.18674 -26.63364,0.28639 -0.97083,0.0854 -2.73805,-0.0462 -4.496,-0.33433 -2.43545,-0.39916 -4.02184,-0.45707 -9.96587,-0.36339 -4.33619,0.0683 -7.27974,0.22291 -7.61446,0.39947 -0.30009,0.15864 -0.63795,0.23021 -0.75028,0.15985 -0.11229,-0.0704 -3.88898,-0.22884 -8.39287,-0.35244 -4.5039,-0.1236 -8.2848,-0.28488 -8.40215,-0.35818 -0.11739,-0.0733 -4.34372,-0.1518 -9.391838,-0.17495 -5.048151,-0.0231 -10.190019,-0.16106 -11.4261,-0.30699 -1.23607,-0.14594 -4.628251,-0.34019 -7.538177,-0.43157 -2.909926,-0.0914 -8.147373,-0.32513 -11.638774,-0.51962 -3.491401,-0.19452 -6.824388,-0.33215 -7.406636,-0.30573 -0.582258,0.0264 -4.987856,0.0614 -9.79023,0.078 -4.802365,0.0165 -10.289619,0.17328 -12.193798,0.34834 -2.739343,0.25184 -3.954589,0.24924 -5.820853,-0.0136 -1.297282,-0.18269 -2.537237,-0.33298 -2.755516,-0.33375 -0.444498,-0.002 -3.044314,0.25943 -3.044591,0.30583 -4.44e-4,0.0743 -5.762448,0.20176 -7.541751,0.16683 -5.253857,-0.10318 -9.142193,-0.0335 -12.0400486,0.21594 -4.92925,0.42435 -7.14138002,0.462 -10.7169,0.18145 -1.81819,-0.14266 -4.555657,-0.31269 -6.083257,-0.37791 -1.5276104,-0.0652 -5.0388504,-0.26081 -7.8027504,-0.4347 -5.97243,-0.37575 -28.6488,-0.32782 -30.03113,0.0635 -0.53087,0.1502 -5.992988,0.28973 -12.763388,0.3258 -6.5097,0.0346 -12.40387,0.11527 -13.09818,0.17912 -7.38381,0.67896 -9.74619,0.92922 -9.95368,1.05575 -0.13446,0.082 -1.21225,0.18352 -2.39504,0.22496 -1.18279,0.0414 -2.92468,0.1399 -3.8709,0.21925 -1.29748,0.10885 -10.54869,0.0988 -15.611122,-0.0172 -0.21825,-0.005 -2.17435,-0.11932 -4.34713,-0.25386 -2.17277,-0.13458 -4.0755,-0.16857 -4.2283,-0.0754 -0.1528,0.0932 -0.45878,0.18415 -0.67973,0.20213 -0.22095,0.018 -1.23576,0.12754 -2.25511,0.24337 -2.6079,0.29632 -7.88182,0.12175 -8.12723,-0.26921 -0.10763,-0.17141 -0.18589,-2.28635 -0.17348,-4.69954 0.0124,-2.41319 -0.0643,-4.47519 -0.17004,-4.58221 -0.10575,-0.10703 -0.19548,-1.75787 -0.19927,-3.66873 -0.005,-2.29617 -0.10663,-3.50809 -0.30112,-3.57425 -0.19828,-0.0674 -0.21485,-0.30567 -0.0504,-0.73051 0.13417,-0.34672 0.18476,-1.40351 0.11223,-2.34858 -0.17343,-2.25847 -0.0573,-27.68821 0.13426,-29.39483 0.42286,-3.76748 0.53109,-9.43081 0.29552,-15.47663 -0.14464,-3.71171 -0.31724,-8.59218 -0.38379,-10.84575 -0.0989,-3.35167 -0.19873,-4.15748 -0.54821,-4.42686 -0.36228,-0.27924 -0.36713,-0.33113 -0.0306,-0.33969 0.28143,-0.007 0.30614,-0.0688 0.084,-0.21191 -0.23655,-0.15237 -0.21158,-0.4089 0.10236,-1.04739 0.2819,-0.5734 0.34946,-1.08303 0.20995,-1.58112 -0.19274,-0.68815 -0.2126,-0.69679 -0.31233,-0.13984 -0.0585,0.32708 -0.22525,0.59398 -0.37045,0.59311 -0.36626,-0.002 0.005,-1.11859 0.49992,-1.50444 0.28457,-0.22169 0.40579,-0.80528 0.41182,-1.98195 0.0112,-2.20619 -0.004,-2.32912 -0.30027,-2.33089 -0.14042,-8.4e-4 -0.24465,0.82541 -0.23328,1.85227 0.0204,1.84823 -0.30438,3.01427 -0.36122,1.29702 -0.33161,-10.00455 -0.23868,-25.32511 0.15558,-25.71476 0.32105,-0.31722 0.3359,0.19564 0.28334,9.66587 -0.0158,2.81792 0.0769,4.96149 0.21428,4.96231 0.26809,0.002 0.2847,-0.33129 0.38171,-7.58293 0.0374,-2.78897 0.14998,-5.15173 0.25048,-5.25098 0.10049,-0.0993 0.0613,-0.49655 -0.0867,-0.88266 -0.14795,-0.38611 -0.30391,-3.19475 -0.34721,-6.24159 -0.0433,-3.04686 -0.12181,-5.58359 -0.17459,-5.63698 -0.0528,-0.0534 -0.005,-0.49156 0.1071,-0.97399 0.11184,-0.48244 0.244,-2.41082 0.2938,-4.28489 0.1362,-5.12759 0.15008,-5.33159 0.3654,-5.54434 0.30074,-0.29712 0.2584,-3.28359 -0.0465,-3.28541 -0.26926,-0.002 -0.29596,0.11896 -0.43508,1.98181 -0.0435,0.58184 -0.18859,1.83114 -0.32251,2.77625 l -0.24333,1.71837 -0.19379,-1.98918 c -0.10655,-1.09391 -0.17324,-8.50006 -0.14821,-16.45806 0.0377,-12.00002 0.10786,-14.52721 0.41247,-14.81085 0.30941,-0.28817 0.34417,-0.19494 0.22075,0.59251 -0.1676,1.06927 0.0163,2.37209 0.33515,2.37399 0.1186,7.1e-4 0.17717,-4.79129 0.12971,-10.6489 -0.0848,-10.47443 0.0294,-12.83658 0.8817,-18.18517 0.37981,-2.38335 0.61199,-8.81358 0.31148,-8.63032 -0.13282,0.081 -0.33108,1.24269 -0.44021,2.58175 -0.10913,1.33907 -0.28075,2.5622 -0.38159,2.71802 -0.3379,0.52196 -0.48931,-2.01537 -0.26539,-4.44997 0.12189,-1.32531 0.25098,-5.0513 0.28716,-8.28009 0.0562,-5.02338 0.12414,-5.8821 0.46859,-5.95044 0.33378,-0.0662 0.41628,-0.713924 0.48205,-3.789204 0.0437,-2.040156 0.17039,-3.855136 0.28195,-4.033286 0.11155,-0.17813 0.0896,-0.32452 -0.0487,-0.32534 -0.13833,-8.3e-4 -0.24395,-0.56701 -0.23382,-1.25819 0.0366,-2.59647 -0.20094,-20.219288 -0.33092,-24.542518 -0.0744,-2.47433 -0.14575,-11.464145 -0.15871,-19.977344 -0.0466,-30.655505 0.0418,-39.0209263 0.42472,-40.2221013 0.1777,-0.557348 0.34619,-4.4127612 0.42974,-9.8264478 0.0757,-4.900176 0.21299,-9.1426009 0.30538,-9.4277549 0.12916,-0.398645 0.51794,-0.564396 1.68225,-0.717065 0.83274,-0.109199 1.57879,-0.185704 1.6578,-0.169912 0.079,0.01557 0.9715,0.100904 1.98327,0.189598 1.01176,0.08874 2.61329,0.232382 3.55867,0.31891 0.94539,0.08655 2.25438,0.204418 2.9089,0.261828 0.65451,0.05731 2.67895,0.0012 4.49874,-0.124554 1.81981,-0.125814 5.45218,-0.278852 8.071972,-0.340417 2.61979,-0.06155 5.00182,-0.18537 5.29341,-0.27533 0.80011,-0.246956 1.22246,-0.277794 6.08818,-0.444767 2.4744,-0.08492 4.53314,-0.24191 4.575,-0.348872 0.0418,-0.107062 0.75651,-0.149254 1.58809,-0.09389 8.98246,0.597748 54.758228,1.563598 76.2491054,1.608852 2.83768,0.0058 7.87107,0.02241 11.18587,0.03631 4.5689726,0.01929 6.1046216,-0.05624 6.3478516,-0.313513 0.20348,-0.215299 0.563849,-0.269268 0.985329,-0.147578 0.365527,0.105525 1.618092,0.09166 2.783015,-0.03098 2.311574,-0.243189 18.946481,0.120158 20.767451,0.45374 0.218046,0.0398 1.035844,0.05759 1.817778,0.03926 1.224132,-0.02859 1.37702,-0.08798 1.098623,-0.427526 -0.243064,-0.296517 -0.877008,-0.389795 -2.553194,-0.376995 -1.226308,0.0094 -2.303205,-0.05796 -2.393322,-0.149177 -0.09016,-0.09124 -0.324374,-0.03384 -0.520628,0.127123 -0.247166,0.202777 -0.457911,0.207979 -0.685865,0.0171 -0.180998,-0.151574 -0.626681,-0.286378 -0.990409,-0.299451 -0.363739,-0.01297 -2.327775,-0.101504 -4.364534,-0.19659 -3.735812,-0.173125 -4.969729,-0.200875 -9.788489,-0.211955 -3.978596,-0.0092 -3.35442,-0.04174 -7.68577,0.399034 -2.2561666,0.22957 -5.4785366,0.267505 -11.03078662,0.129462 -4.31390998,-0.107167 -8.05975698,-0.102038 -8.32425698,0.01128 -0.26451,0.113322 -0.58254,0.182334 -0.70683,0.153391 -0.12429,-0.02894 -0.41617,0.09938 -0.64818,0.285004 -0.2758,0.220637 -0.35595,0.229578 -0.23219,0.02601 0.13414,-0.220633 -0.13976,-0.309521 -0.9397504,-0.304298 -0.62088,0.0033 -3.89649,-0.06597 -7.27937,-0.155109 -3.38289,-0.08901 -6.15117,-0.09034 -6.15166,-0.0026 -4.9e-4,0.0878 -0.80441,0.127518 -1.7865,0.08853 -1.91127,-0.07602 -4.18018,-0.104568 -4.82836,-0.06084 -0.5795,0.03914 -9.82498,-0.364915 -12.30014,-0.537521 -1.16371,-0.08115 -7.35416,-0.232047 -13.756568,-0.335376 -6.40242,-0.10324 -12.95003,-0.260358 -14.55025,-0.349427 -5.3274,-0.296453 -10.29737,-0.349817 -12.038,-0.129299 -0.94661,0.119949 -2.73334,0.24615 -3.97049,0.280672 -1.23715,0.03451 -3.08327,0.138588 -4.1025,0.231302 -1.01921,0.09271 -3.63938,0.217818 -5.82259,0.27786 -2.18321,0.06006 -4.267452,0.161626 -4.631642,0.225572 -0.57353,0.100616 -6.02734,0.424119 -7.14641,0.423446 -0.21827,-0.0013 -1.6461,-0.159564 -3.17294,-0.354347 -1.52682,-0.194782 -4.5814,-0.412889 -6.7875,-0.484966 l -4.01093,-0.130928 -0.48179,0.804327 c -0.26501,0.442585 -0.62799,0.803954 -0.80631,0.802889 -0.54603,-0.0033 -0.65671,0.432305 -0.92766,3.6423939 -0.14381,1.703752 -0.35669,4.109013 -0.47324,5.345239 -0.11655,1.2362756 -0.21263,7.4270426 -0.21343,13.7573008 -8.1e-4,6.3302883 -0.002,11.8667923 -0.002,12.3033563 -6.1e-4,0.436574 0.005,2.758362 0.0121,5.159544 0.007,2.401173 -6.7e-4,5.437283 -0.0165,6.746892 -0.0158,1.309619 0.0278,2.173095 0.0966,1.918841 0.17745,-0.656312 0.6163,-0.57111 0.61218,0.118888 -0.002,0.318044 -0.2731,0.871295 -0.60267,1.229433 -0.47756,0.518917 -0.50501,0.617914 -0.1352,0.487541 0.48741,-0.171822 0.53036,-0.06483 0.51535,1.27538 -0.0223,1.995463 -0.092,2.533776 -0.31042,2.396999 -0.12923,-0.08087 -0.17602,-0.564351 -0.10417,-1.074471 0.0739,-0.525118 0.0157,-0.928033 -0.13399,-0.928927 -0.31667,-0.0019 -0.52452,3.135753 -0.3067,4.628461 l 0.15439,1.059271 0.0856,-0.925545 0.0856,-0.925545 0.10272,0.883779 c 0.0741,0.634844 -0.0327,0.986162 -0.38003,1.246242 -0.42153,0.315629 -0.42855,0.364077 -0.0523,0.373315 0.50138,0.01299 0.7275,2.366347 0.7001,7.288631 -0.009,1.600705 0.0339,5.689982 0.0951,9.087512 0.0882,4.89616 0.0425,6.15405 -0.22072,6.06457 -0.52502,-0.17851 -0.71787,-1.65098 -0.72899,-5.56586 -0.006,-2.00098 -0.1181,-3.63879 -0.24957,-3.63958 -0.13147,-7.8e-4 -0.24085,0.62366 -0.24342,1.38763 -0.0162,5.14564 -0.40513,17.82349 -0.6757,22.02292 -0.43489,6.749658 -0.52333,10.574278 -0.28145,12.168338 0.11041,0.72785 0.0918,1.709096 -0.0414,2.180526 -0.13322,0.47145 -0.15799,0.91009 -0.0554,0.97431 0.1518,0.0951 0.37451,9.602944 0.25778,11.002614 -0.12453,1.4932 -0.50329,3.70169 -0.53274,3.10573 -0.0198,-0.4003 -0.16463,-0.7286 -0.32172,-0.72954 -0.3629,-0.002 -0.0438,1.63849 0.37353,1.9205 0.21896,0.14783 0.2171,0.25165 -0.006,0.39684 -0.36342,0.23597 -0.4552,3.76766 -0.0979,3.7698 0.13463,8e-4 0.24388,0.18005 0.24258,0.39832 -0.001,0.21828 -0.15102,0.36624 -0.3327,0.32875 -0.2829,-0.0583 -0.43345,0.48156 -0.44318,1.08826 z m 1.46045,-25.70593 c 0.0191,-0.13691 0.13272,-0.42722 0.32434,-0.74738 0.26924,-0.44978 0.26803,-0.58259 -0.007,-0.68373 -0.25859,-0.0952 -0.26758,-0.21292 -0.0369,-0.48753 0.30709,-0.36558 0.34844,-0.98977 0.69509,-10.560768 0.22313,-6.16094 0.43173,-8.46839 0.73808,-8.15597 0.12075,0.12313 0.2687,2.96283 0.32871,6.31022 0.27055,15.098398 0.1893,23.503978 -0.32391,33.468448 -0.73231,14.21861 -0.70702,13.23748 -0.39342,15.07917 0.13645,0.8012 0.20123,1.53339 0.14377,1.62715 -0.0575,0.0938 -0.13262,1.43781 -0.16668,2.98699 -0.0341,1.54914 -0.16134,2.87729 -0.28324,2.95167 -0.12191,0.0744 -0.22859,-0.2588 -0.23691,-0.7404 -0.008,-0.48157 -0.0299,-1.85794 -0.0478,-3.05855 -0.018,-1.20063 -0.12806,-2.18358 -0.24481,-2.18432 -0.11674,-7.6e-4 -0.19698,-0.6858 -0.17798,-1.52244 0.019,-0.83665 0.0645,-4.25949 0.10123,-7.6063 0.22521,-20.526394 0.18212,-27.39583 -0.16831,-26.84895 -0.18786,0.29317 -0.26351,0.30961 -0.24444,0.17269 z m 0.40813,-37.186133 c -0.006,1.087395 0.10009,2.081125 0.32088,2.082445 0.15883,9.5e-4 0.26747,-1.02934 0.27172,-2.578115 0.006,-1.766258 -0.073,-2.443599 -0.24762,-2.148677 -0.22272,0.376157 -0.33941,1.556951 -0.34498,2.644347 z m -0.27928,235.298233 c 0.002,-0.38399 0.11814,-0.6057 0.26765,-0.51207 0.14497,0.0908 0.26222,0.39609 0.26054,0.67853 -0.002,0.28246 -0.12214,0.51295 -0.26765,0.51208 -0.14553,-8.7e-4 -0.26276,-0.30615 -0.26054,-0.67854 z m 1.32105,-221.187708 c 0.001,-0.22696 0.12109,-0.33826 0.26608,-0.24749 0.14497,0.0908 0.26293,0.27702 0.26211,0.41395 -8.2e-4,0.13694 -0.12056,0.24836 -0.26606,0.2475 -0.14553,-8.7e-4 -0.26348,-0.1871 -0.26213,-0.41396 z M -126.808,287.66834 c 0.007,-1.51062 0.0841,-3.296 0.22676,-4.39638 l 0.18853,-1.45411 0.19614,0.98924 c 0.19717,0.99425 0.14924,6.66321 -0.0616,7.27994 -0.0621,0.18153 -0.22205,0.32941 -0.35544,0.32861 -0.13767,-8.2e-4 -0.20127,-1.23668 -0.19443,-2.7473 z m 0.43193,-33.38305 c 3.9e-4,-0.0642 0.11976,-0.11608 0.26528,-0.11521 0.14552,8.7e-4 0.26382,0.12756 0.2629,0.28167 -9.2e-4,0.15409 -0.12028,0.206 -0.26527,0.11519 -0.14498,-0.0908 -0.26329,-0.21748 -0.26291,-0.28165 z m 1.87663,-249.3149925 c -0.008,-0.159891 0.0208,-0.414694 0.0796,-0.786569 0.0985,-0.622593 0.20665,-0.7792 0.36437,-0.527003 0.31133,0.497828 0.28292,1.219771 -0.0561,1.42648 -0.25697,0.156718 -0.37418,0.153608 -0.38793,-0.112909 z m 0.4369,-5.05711099 c 0.006,-1.01174201 0.1085,-1.55680001 0.27326,-1.45360401 0.145,0.09077 0.26014,0.74634701 0.2559,1.45676401 -0.004,0.710418 -0.12721,1.36456499 -0.27328,1.45360399 -0.16598,0.101221 -0.26192,-0.44501199 -0.25588,-1.45676399 z M -125.36173,217.52859 c -0.002,0.39441 0.11022,0.62295 0.26141,0.53074 0.14608,-0.089 0.26655,-0.32647 0.26775,-0.52758 0.001,-0.2011 -0.11642,-0.43992 -0.26142,-0.53074 -0.15009,-0.094 -0.26538,0.13317 -0.26774,0.52758 z m 0.43741,-64.33 c -0.0123,0.23534 0.0127,0.58257 0.0755,1.03037 0.2646,1.88583 0.43618,12.42562 0.26391,16.2076 -0.1007,2.21022 0.0321,4.20895 0.256,3.85976 0.1318,-0.2055 0.2642,-2.10352 0.29443,-4.21822 0.0303,-2.1147 0.10194,-3.89135 0.15898,-3.94771 h -5.3e-4 c 0.0571,-0.0564 0.0611,-0.56035 0.009,-1.12032 -0.0524,-0.55997 -0.14848,-2.78236 -0.21391,-4.93853 -0.15373,-5.06623 -0.36159,-7.22924 -0.69476,-7.23123 -0.0863,-5.1e-4 -0.13605,0.12293 -0.14839,0.35827 z m 1.43197,-40.14528 c -0.003,0.25579 0.0293,0.47634 0.10899,0.52621 0.12555,0.0787 0.23077,-0.22163 0.23343,-0.66679 0.003,-0.44513 -0.0412,-0.80952 -0.097,-0.80985 -0.14034,-8.4e-4 -0.24116,0.52413 -0.24546,0.95043 z m 0.13486,-6.57358 c 0.0127,0.64483 0.0405,0.6676 0.24479,0.1999 0.31486,-0.72081 0.31607,-0.92417 0.006,-0.92603 -0.14552,-8.7e-4 -0.25813,0.3259 -0.25032,0.72613 z m 0.0329,-3.0865 c -0.005,0.0919 0.0118,0.19656 0.0495,0.29227 0.0832,0.21157 0.14609,0.14945 0.16063,-0.15871 0.0132,-0.27881 -0.0485,-0.43547 -0.13693,-0.3481 -0.0442,0.0437 -0.0688,0.12266 -0.0731,0.21454 z m -0.0336,5.79852 c -7.2e-4,0.11989 0.0167,0.23989 0.0528,0.33105 0.0723,0.18234 0.13364,0.0339 0.13582,-0.32992 0.002,-0.36382 -0.0574,-0.51298 -0.13186,-0.33152 -0.0373,0.0907 -0.0561,0.21051 -0.0568,0.33039 z m 8.10142,203.68558 c 0.004,-0.024 0.0447,-0.0528 0.12401,-0.084 0.19144,-0.0753 0.41944,-0.0642 0.50681,0.0242 0.0874,0.0884 -0.0693,0.15009 -0.34809,0.13693 -0.19259,-0.009 -0.28905,-0.037 -0.28274,-0.0771 z m 1.91009,0.0703 c 0.001,-0.12733 0.53582,-0.25535 1.5628,-0.35912 0.96453,-0.0974 1.81395,-0.1164 1.88751,-0.0419 0.18271,0.18491 -2.3003,0.72558 -2.86665,0.6242 -0.39305,-0.0703 -0.58431,-0.14672 -0.58366,-0.22312 z m 24.176602,2.61871 c -9.9e-4,0.16599 1.87116,0.20399 5.22498,0.10611 2.87459,-0.0839 6.06012,-0.17646 7.07895,-0.20578 1.01885,-0.0293 2.15026,-0.0805 2.51427,-0.11366 l 0.66183,-0.0606 -0.66025,-0.20393 c -0.36314,-0.11218 -1.43434,-0.17625 -2.38044,-0.1429 -0.9461,0.0335 -3.26805,0.0655 -5.15989,0.0715 -4.47201,0.0141 -7.27752,0.22567 -7.27945,0.54927 z m 15.72801,-0.43473 c 0.002,0.12601 0.30371,0.20956 0.79405,0.21249 0.5179,0.003 0.94275,-0.11344 0.94362,-0.25896 8.7e-4,-0.14551 -0.34869,-0.26667 -0.77665,-0.26922 -0.42797,-0.003 -0.8523,0.11398 -0.94311,0.25895 -0.0123,0.0196 -0.0182,0.0388 -0.0179,0.0568 z m 2.2667,-0.0222 c -0.002,0.27841 1.51038,0.32496 2.97607,0.0917 l 1e-5,-5.3e-4 c 1.66013,-0.26423 1.1155,-0.48976 -0.98924,-0.41003 -1.09202,0.0414 -1.98604,0.18485 -1.98684,0.31887 z m 4.28308,-0.26949 c 9.1e-4,0.0161 0.005,0.033 0.0106,0.0513 0.12319,0.37291 0.50706,0.42636 3.47602,0.48379 1.57921,0.0305 1.77507,0.0868 1.48886,0.42748 -0.28975,0.34488 0.093,0.38295 3.17214,0.31454 2.25278,-0.05 3.56947,-0.18614 3.69152,-0.38104 0.21874,-0.34924 1.87571,-0.40478 4.948578,-0.1663 2.06332,0.16014 2.14866,0.14495 2.01864,-0.36467 -0.13175,-0.51634 -0.27798,-0.52795 -4.931318,-0.38809 -6.80979,0.20466 -7.61559,0.20071 -10.97648,-0.0537 -2.31071,-0.17489 -2.91183,-0.16547 -2.89852,0.0768 z m 19.793078,0.49649 c -3.4e-4,0.0572 0.17756,0.17358 0.39533,0.25869 0.21778,0.0851 0.39666,0.039 0.3975,-0.10202 8.4e-4,-0.14095 -0.17707,-0.25686 -0.39535,-0.25817 -0.21827,-0.001 -0.39714,0.0443 -0.39748,0.1015 z m 12.50836,-0.92886 c -0.002,-0.0447 0.0383,-0.10468 0.11736,-0.18276 0.16012,-0.15819 0.49263,-0.2455 0.73913,-0.19402 0.58053,0.12129 0.20719,0.48906 -0.49229,0.48489 -0.24337,-0.001 -0.36144,-0.0336 -0.3642,-0.10811 z m 1.68402,-2.22551 c 0.15736,0.20515 6.13333,0.28145 6.53418,0.0705 0.11187,-0.0588 0.14571,-0.20133 0.0753,-0.31685 -0.16868,-0.27663 -6.29017,-0.0671 -6.60623,0.22617 -0.007,0.007 -0.008,0.0136 -0.003,0.0202 z m 0.70529,1.92144 c 0.006,-0.10396 0.11619,-0.21126 0.3521,-0.28832 0.14259,-0.0466 0.47773,0.0772 0.74458,0.27471 0.44437,0.32901 0.41483,0.35854 -0.35094,0.35396 -0.47533,-0.003 -0.7557,-0.16709 -0.74574,-0.34035 z m 6.55374,-2.07859 c -3.4e-4,0.0572 0.17756,0.17357 0.39533,0.25867 0.21778,0.0851 0.39666,0.039 0.3975,-0.102 8.4e-4,-0.14096 -0.17707,-0.25687 -0.39535,-0.25817 -0.21827,-10e-4 -0.39714,0.0443 -0.39748,0.1015 z m 5.64911,3.15866 c -0.0164,0.12195 0.18745,0.21197 0.51084,0.2139 0.36047,0.002 0.84465,0.0777 1.07595,0.16818 0.3078,0.12023 0.37783,0.0498 0.25996,-0.26304 -0.17827,-0.47299 -1.55606,-0.60328 -1.82576,-0.17265 -0.0116,0.0185 -0.0186,0.0362 -0.021,0.0536 z m 11.1419404,0.29393 c 0.0667,0.10926 3.03789,0.2193 6.602907,0.24459 3.56501,0.0253 6.48271,-0.0509 6.48341,-0.16902 7.1e-4,-0.11815 -2.97106,-0.2279 -6.60342,-0.24459 -3.632357,-0.0167 -6.549547,0.0598 -6.482897,0.16902 z m 14.776177,-0.0136 c -0.003,0.004 -0.002,0.009 0.002,0.0129 0.1808,0.183 3.30938,0.13868 3.62082,-0.0513 0.5419396,-0.33048 0.0413,-0.39341 -1.83782,-0.23009 -0.97833,0.0851 -1.74497,0.20163 -1.785,0.2684 z m 8.4413976,-3.18355 c -0.0071,0.01 -0.0051,0.0201 0.0048,0.0305 0.188892,0.19112 1.851849,0.35231 2.119091,0.20542 0.440213,-0.24194 0.141013,-0.34333 -1.034556,-0.35035 -0.594199,-0.004 -1.042114,0.0461 -1.089523,0.11442 z m 3.076708,0.0264 c -0.02526,0.0433 0.187552,0.0755 0.569545,0.0778 0.509311,0.003 0.717992,-0.05 0.463734,-0.11816 -0.254268,-0.068 -0.670971,-0.0705 -0.926033,-0.006 -0.0638,0.0162 -0.09879,0.0315 -0.107246,0.0459 z m 2.248685,0.0527 c -0.0062,0.0401 0.09019,0.068 0.282734,0.0772 0.278836,0.0132 0.435477,-0.0485 0.348084,-0.13693 -0.08737,-0.0884 -0.315364,-0.099 -0.506807,-0.0237 -0.07929,0.0312 -0.120218,0.0595 -0.124011,0.0835 z m 17.404456,-1.13114 c -0.08779,-0.13643 1.215404,-0.29171 4.226639,-0.50962 2.684138,-0.19425 5.297038,-0.3303 5.806199,-0.30226 3.261865,0.17975 10.691507,0.10606 11.974352,-0.11865 0.842267,-0.1476 1.618305,-0.21525 1.724339,-0.15042 0.106035,0.0648 2.097541,0.21553 4.425202,0.33443 2.327661,0.11889 4.327754,0.27344 4.444786,0.34384 0.117001,0.0704 2.349101,0.1307 4.960221,0.1335 2.982893,0.003 4.746993,0.10245 4.746006,0.26761 -0.002,0.32948 0.743162,0.30328 -11.776673,0.41905 -13.047133,0.12066 -29.366071,-0.0724 -30.408942,-0.3599 -0.06839,-0.0188 -0.109585,-0.0381 -0.122129,-0.0575 z m 5.455331,-324.253144 c -0.01428,0.113557 0.04219,0.235546 0.152692,0.304768 0.147352,0.09228 0.26935,-0.01749 0.270705,-0.244378 0.0028,-0.464732 -0.156032,-0.534281 -0.38503,-0.168693 -0.0211,0.03377 -0.03362,0.0704 -0.03835,0.108303 z m 2.006241,-0.280523 c 0.02836,0.240684 0.494992,0.367883 1.063824,0.208428 0.479001,-0.134302 0.849143,-0.120161 0.944441,0.03614 0.16456,0.270168 2.434735,0.279386 2.891799,0.01227 0.146032,-0.08543 -0.0018,-0.195164 -0.32928,-0.243821 -0.327135,-0.04865 -0.594189,-0.189472 -0.593451,-0.31309 0.0015,-0.259445 -3.582551,-0.23314 -3.847037,0.02822 -0.100294,0.0991 -0.139758,0.191838 -0.130297,0.272066 z m 6.066878,0.0068 c -0.04645,0.108944 0.332761,0.230171 0.993457,0.309788 0.702867,0.0847 1.317944,0.04677 1.366851,-0.08484 0.05062,-0.13625 0.278461,-0.141579 0.529251,-0.01194 0.242176,0.125269 0.976425,0.202925 1.631458,0.172547 0.655034,-0.03039 1.756597,-0.06611 2.447912,-0.07998 0.691325,-0.01387 1.257539,-0.123352 1.258254,-0.2431 0.0017,-0.276675 -7.736844,-0.379095 -8.180919,-0.108262 -0.02439,0.01496 -0.03968,0.03016 -0.04627,0.04572 z m 11.998401,0.181233 c -0.05189,0.131902 0.50219,0.175692 1.421075,0.0085 0.49937,-0.09062 0.848581,-0.262197 0.775892,-0.381403 -0.07269,-0.119176 -0.701139,-0.08949 -1.39672,0.06606 -0.519484,0.11636 -0.76909,0.227161 -0.800244,0.306327 z m 1.088143,75.819246 c 0.0028,0.20468 0.08178,0.25521 0.247885,0.20095 0.19326,-0.0632 0.3997,-0.46102 0.459011,-0.88456 0.05923,-0.42358 0.349009,-1.47218 0.64386,-2.33042 0.29483,-0.85819 0.644576,-2.05029 0.777034,-2.649 0.132428,-0.59868 0.499552,-1.920869 0.81596,-2.937617 0.316408,-1.016799 0.706463,-2.324183 0.866407,-2.905298 0.159944,-0.581135 0.439767,-1.412948 0.621871,-1.848398 0.182094,-0.435511 0.482579,-1.624338 0.66794,-2.641899 0.339403,-1.863106 2.249489,-8.348154 2.693791,-9.145794 0.131421,-0.23597 0.323447,-0.865894 0.426949,-1.399985 0.150615,-0.777255 0.09113,-1.043355 -0.300034,-1.332986 -0.432227,-0.320037 -0.450386,-0.465898 -0.156801,-1.262909 0.182564,-0.495599 0.3332,-1.10405 0.334681,-1.351925 0.0015,-0.247966 0.301023,-0.562173 0.665642,-0.698327 0.737037,-0.275183 0.888973,-1.233433 0.40221,-2.537033 -0.18651,-0.499543 -0.184671,-0.807437 0.0059,-0.995792 0.151849,-0.150046 0.277635,-0.539212 0.279578,-0.864436 0.0019,-0.325214 0.144329,-0.925354 0.316473,-1.333964 0.361531,-0.858116 0.32369,-0.73923 0.611468,-1.923392 0.122441,-0.503808 0.321713,-1.097948 0.443003,-1.320298 0.662858,-1.214972 1.949599,-4.863093 2.517464,-7.137622 0.72767,-2.914586 1.199197,-4.448027 1.608412,-5.227917 0.229982,-0.4383143 0.859559,-2.0851933 1.399063,-3.6597093 0.539483,-1.5745162 1.072514,-2.9812682 1.184511,-3.1261212 0.111987,-0.144854 0.291894,-0.679569 0.399844,-1.188254 0.10794,-0.508694 0.350448,-1.28115899 0.538392,-1.71661499 0.305006,-0.706691 0.708134,-2.43968401 1.537069,-6.60551661 0.436663,-2.194402 1.40195,-5.4156839 1.622446,-5.4143669 0.113798,6.8e-4 0.14761,-0.155271 0.07547,-0.346815 -0.214819,-0.569964 0.902757,-1.366343 1.78063,-1.268888 0.431242,0.04788 0.960822,-0.05776 1.176541,-0.234308 0.458363,-0.375889 0.39106,-0.487843 -0.384772,-0.642069 -0.31711,-0.063 -0.503039,-5e-6 -0.417862,0.138077 0.08447,0.138407 0.0276,0.250789 -0.126555,0.249868 -0.154097,-9.2e-4 -0.2793,-0.13307 -0.278338,-0.294137 9.61e-4,-0.160998 -0.177247,-0.225433 -0.396024,-0.142948 -0.218776,0.0825 -0.397091,0.03423 -0.396249,-0.106749 0.0022,-0.368443 -0.844173,-0.305157 -1.389705,0.103832 -0.496231,0.372073 -0.629773,1.113649 -0.227162,1.262166 0.133698,0.0493 0.0056,0.564134 -0.285381,1.144486 -0.599369,1.196862 -1.633462,4.9332219 -2.105288,7.6067419 -0.333285,1.8885226 -3.758595,12.2409198 -4.648571,14.0491368 -0.285651,0.5803953 -0.81533,2.2361713 -1.176964,3.6791373 -0.361605,1.442966 -0.779623,2.744012 -0.928856,2.891484 -0.373722,0.369274 -0.332417,-0.332962 0.161611,-2.745704 0.223215,-1.090087 0.514193,-2.602506 0.646917,-3.361346 0.132695,-0.7588423 0.429681,-1.9477193 0.659681,-2.6419483 0.22999,-0.694228 0.621702,-2.6205732 0.87049,-4.2804072 0.248748,-1.659864 0.621134,-3.48811299 0.827851,-4.06309799 0.206738,-0.57495601 0.382648,-2.01274101 0.392709,-3.19494161 0.01711,-2.194867 0.561135,-5.045668 1.135768,-5.953663 0.248092,-0.3913549 0.250631,-0.7427959 0.01328,-1.5538779 -0.42147,-1.437853 -0.391808,-1.629029 0.293574,-1.911851 0.499448,-0.205941 0.428847,-0.237713 -0.431387,-0.19274 -0.934229,0.04892 -1.034811,0.126062 -1.103719,0.847104 -0.04171,0.436318 -0.143081,1.150105 -0.225487,1.586181 -0.232243,1.2287849 -1.018566,6.9698909 -1.176847,8.5920845 -0.07808,0.799938 -0.332055,2.44768001 -0.563969,3.661597 -0.572499,2.996854 -0.55695,2.910005 -1.168849,6.6469872 -0.297589,1.817295 -0.74245,4.3744943 -0.988418,5.6827383 -0.245998,1.308245 -0.547586,2.988133 -0.670326,3.732804 -0.122749,0.74464 -0.340783,1.576782 -0.484413,1.849219 -0.143629,0.272407 -0.350595,1.089866 -0.459929,1.816826 -0.109333,0.72694 -0.550815,2.363422 -0.981365,3.636354 -0.43055,1.272931 -0.784437,2.590631 -0.786452,2.927995 -0.002,0.337394 -0.0787,0.686982 -0.170005,0.777248 -0.359397,0.35512 -1.436977,3.916627 -1.555707,5.14189 -0.06916,0.71368 -0.268253,1.81477 -0.442502,2.446861 -0.175368,0.632114 -0.255296,1.466991 -0.180063,1.855198 0.116628,0.601807 -0.95155,6.269338 -1.741945,9.241391 -0.572814,2.153898 -1.130917,4.486796 -1.516878,6.341054 -0.226915,1.090074 -0.545212,2.516939 -0.70728,3.170825 -0.162079,0.65388 -0.355072,1.59995 -0.428564,2.10226 -0.0735,0.50231 -0.297427,1.07524 -0.497501,1.27294 -0.200074,0.19767 -0.364656,0.5741 -0.366223,0.83654 -0.0016,0.26246 -0.08297,0.86473 -0.180597,1.33839 -0.05036,0.2442 -0.07582,0.42247 -0.07406,0.54528 z m 1.715321,-76.081058 c -0.02516,0.04325 0.187552,0.07552 0.569535,0.0778 0.509311,0.003 0.718002,-0.05011 0.463734,-0.118172 -0.254257,-0.06812 -0.67097,-0.07061 -0.926023,-0.0055 -0.0638,0.01632 -0.09889,0.03151 -0.107246,0.04586 z m 24.734144,0.118326 c 0.01732,0.0308 0.09947,0.08829 0.240289,0.175058 0.252654,0.155712 0.60922,0.259593 0.792384,0.231087 0.183163,-0.02851 0.511292,0.01785 0.729067,0.103056 0.581614,0.227237 4.424852,0.468375 4.606347,0.288986 0.387183,-0.382854 0.07545,-0.59435 -0.884752,-0.600085 -0.57347,-0.0034 -1.115499,-0.125724 -1.204528,-0.271779 -0.218346,-0.35808 -2.699289,-0.354927 -2.923925,0.0037 -0.09915,0.158261 -0.488652,0.213136 -0.876153,0.12343 -0.356483,-0.08253 -0.507522,-0.104873 -0.478729,-0.05346 z m -0.473386,328.27916 c -0.01046,-0.17428 0.0466,-0.30097 0.194666,-0.32027 1.575134,-0.20527 2.464748,-0.16802 4.693194,0.19753 1.442733,0.23665 2.729493,0.4967 2.858951,0.57778 0.129458,0.0811 1.627183,0.0227 3.328282,-0.12999 1.70111,-0.15267 5.92074,-0.28864 9.37711,-0.3016 3.45637,-0.0131 6.28371,0.0616 6.28298,0.16568 -7.3e-4,0.10402 -0.26986,0.32843 -0.5983,0.49873 -0.32845,0.17032 -0.91905,0.57406 -1.31228,0.89703 -1.41577,1.16278 -3.89194,1.62558 -9.48563,1.77325 -3.10572,0.0819 -5.739016,0.0265 -6.613872,-0.1392 -0.79947,-0.15146 -2.345764,-0.41328 -3.436177,-0.58174 -1.835629,-0.2836 -2.784913,-0.58546 -4.489457,-1.42882 -0.426189,-0.21074 -0.776366,-0.82494 -0.799467,-1.20834 z m 8.685365,-327.921033 c -0.0106,0.101088 0.238755,0.22593 0.698144,0.262544 0.287948,0.02292 0.524353,-0.05757 0.525077,-0.178767 7.24e-4,-0.121158 -0.316516,-0.222565 -0.704569,-0.224882 -0.345554,-0.0021 -0.510552,0.06245 -0.518652,0.141105 z M 97.252379,311.83423 c 0.05958,-0.14691 1.277761,-0.21568 3.429411,-0.1914 1.97185,0.0222 3.58492,0.0774 3.58465,0.12218 -0.003,0.45499 -6.735042,0.55077 -7.010113,0.0997 -0.0059,-0.0104 -0.0079,-0.0207 -0.0038,-0.0305 z m 6.570491,-324.507995 c -8.6e-4,0.143897 0.3542,0.185999 0.81438,0.09687 1.42372,-0.275902 1.51724,0.04556 1.52224,5.2207639 0.002,2.567551 0.0478,5.6522566 0.10065,6.85507361 0.0528,1.202786 0.15595,3.67518599 0.22918,5.49466599 0.0732,1.8194802 0.18801,4.6187162 0.25535,6.2198765 0.11772,2.798133 -0.17666,8.66899 -0.76846,15.317224 -0.61885,6.951747 -0.79818,19.51762 -0.44185,30.977943 0.19065,6.13244 0.0371,16.80788 -0.25704,17.85868 -0.7016,2.50624 -1.1374,28.944398 -0.61034,37.038678 0.13747,2.11091 0.23231,4.31418 0.21054,4.89614 -0.0217,0.58196 0.015,4.15412 0.0813,7.93812 0.17525,9.99883 0.0793,21.13743 -0.38488,44.71308 -0.0573,2.91013 -0.0232,6.77993 0.0758,8.59957 0.33016,6.06238 0.47237,14.40318 0.27386,16.01386 -0.10785,0.87513 -0.23096,7.78014 -0.27614,15.34446 -0.0727,12.51325 -0.32167,24.57296 -0.60583,29.361 -0.0604,1.0183 -0.20173,4.94659 -0.31362,8.72953 -0.1119,3.78295 -0.2816,8.66358 -0.37743,10.84585 -0.0959,2.18228 -0.17325,8.61131 -0.17213,14.28673 0.003,15.19477 -4.8e-4,15.49995 -0.21007,20.20356 -0.17282,3.87852 -0.12503,4.75876 0.45897,8.46594 0.57649,3.65974 0.63987,5.20656 0.28876,7.02778 -0.0713,0.37007 0.11112,0.56156 0.68918,0.7245 0.89724,0.2529 1.11971,0.11042 1.2772,-0.81973 0.0616,-0.36344 0.18166,-0.83899 0.26677,-1.05675 0.34202,-0.87482 0.52496,-5.5911 0.23086,-5.94979 -0.47444,-0.57867 -0.78636,-6.90863 -0.90661,-18.39635 -0.12623,-12.06598 -0.0399,-21.71502 0.24862,-27.78026 0.2232,-4.69071 0.25176,-9.74989 0.0561,-10.07004 -0.073,-0.11963 0.002,-2.57578 0.16593,-5.45768 0.16424,-2.88189 0.38406,-8.02034 0.48886,-11.41933 0.18909,-6.13371 0.18639,-6.18448 -0.39184,-6.7297 l -0.58274,-0.54919 0.56866,-0.20641 c 0.54006,-0.19613 0.57016,-0.37351 0.5889,-3.5121 0.0109,-1.8181 0.26329,-5.12473 0.56118,-7.34775 0.95081,-7.09476 1.09738,-20.08242 0.27114,-24.02628 -0.35278,-1.68385 -0.87188,-14.52871 -0.91936,-22.75334 -0.029,-5.02074 -0.0727,-9.36686 -0.0973,-9.65805 -0.0247,-0.29119 0.0668,-3.92212 0.20375,-8.06871 0.28608,-8.66422 0.44283,-21.76941 0.37483,-31.35145 -0.0601,-8.47006 0.36899,-28.685558 0.67097,-31.614778 0.12743,-1.23619 0.27793,-7.78334 0.33443,-14.54983 0.14732,-17.633078 0.51825,-55.056021 0.66043,-66.6216085 0.11976,-9.7383476 0.0352,-10.9591846 -0.72955,-10.4927936 -0.23852,0.145478 -0.37118,-0.330803 -0.61267,-2.2004779 -0.15489,-1.199217 -0.0579,-1.279439 1.38147,-1.14726 0.32669,0.03005 0.84847,-0.07953 1.15955,-0.243689 0.39391,-0.207761 0.61767,-0.213035 0.73702,-0.0173 0.0953,0.156152 1.46116,0.346033 3.07277,0.42765 1.59572,0.08083 4.85305,0.2805 7.2389,0.443212 2.38585,0.162792 4.44766,0.228657 4.58187,0.146747 0.13422,-0.0818 0.90868,-0.136865 1.72107,-0.122013 0.81238,0.01485 1.58759,-0.04112 1.72262,-0.123544 0.36567,-0.22301 6.29053,-0.220194 6.28913,0.003 -7e-4,0.105567 0.28689,0.08432 0.63952,-0.04738 0.35264,-0.131646 0.8593,-0.237662 1.12589,-0.233049 0.44818,0.0057 4.36385,-0.216961 6.83769,-0.38912 0.58215,-0.04052 1.3266,-0.08418 1.65426,-0.09659 0.41584,-0.01602 0.59593,-0.186805 0.59821,-0.567458 0.002,-0.299634 -0.10006,-0.481566 -0.22654,-0.40443 -0.12649,0.07715 -2.71683,0.192727 -5.75632,0.256565 -3.03949,0.06385 -6.47941,0.173056 -7.64401,0.242721 -2.82806,0.169193 -2.76086,0.167474 -3.96938,0.09308 -0.58188,-0.03588 -2.01092,0.0081 -3.17564,0.0973 -1.61623,0.12393 -2.41337,0.05969 -3.36722,-0.270735 -1.10921,-0.384241 -1.31753,-0.389326 -1.85186,-0.04466 -0.69895,0.450864 -2.57236,0.608958 -3.12392,0.263497 -0.20835,-0.130496 -2.2792,-0.280107 -4.60195,-0.33237 -2.32274,-0.05227 -4.86619,-0.153916 -5.65215,-0.226002 -1.41368,-0.129765 -2.69928,0.200683 -2.70222,0.694404 z m 0.16494,286.209305 c 0.0181,-1.35133 0.0978,-1.81504 0.25053,-1.45374 0.30784,0.72832 0.29689,2.56147 -0.0182,3.04266 -0.17906,0.27358 -0.25066,-0.21576 -0.23236,-1.58892 z m -0.0118,2.64581 c 5.8e-4,-0.097 0.0627,-0.19345 0.18689,-0.31618 0.24837,-0.24547 0.31835,-0.1747 0.3154,0.31918 -0.003,0.49388 -0.0738,0.56433 -0.31919,0.31591 -0.12274,-0.12421 -0.18368,-0.22189 -0.1831,-0.31891 z m 0.12443,1.23015 c 0.009,-0.45686 0.0734,-0.56473 0.204,-0.4122 0.23432,0.27364 0.39604,3.1552 0.17702,3.15389 -0.13332,-8e-4 -0.28452,-0.68632 -0.33662,-1.52339 -0.0339,-0.54471 -0.0495,-0.94418 -0.0444,-1.2183 z m -0.073,18.45562 c 0.007,-1.66857 0.11875,-3.08912 0.3303,-2.86871 0.13345,0.13904 0.35911,1.62254 0.50122,3.29691 0.14214,1.67437 0.31874,4.05671 0.39265,5.2941 0.12243,2.0504 0.0986,2.20451 -0.26667,1.73425 -0.22045,-0.2838 -0.39991,-0.88019 -0.39725,-1.32531 0.002,-0.44512 -0.11464,-1.24386 -0.25863,-1.77459 -0.20938,-0.77159 -0.30823,-2.68809 -0.30162,-4.35665 z m 1.26556,-197.613374 c 0.024,-0.14538 0.0984,-2.64528 0.16495,-5.555356 0.13047,-5.704338 0.37621,-11.157828 0.56054,-12.432288 0.0631,-0.43619 0.20564,-1.98318 0.31664,-3.43775 0.11093,-1.45351 0.25435,-2.69724 0.31831,-2.76594 0.1134,-0.0969 0.0322,6.26015 -0.0821,6.39975 -0.15514,0.18948 -0.45433,8.950788 -0.41339,12.108118 0.0647,4.986936 0.008,6.768646 -0.23184,7.323876 -0.16959,0.392084 -0.24974,0.310134 -0.44174,-0.44861 -0.12909,-0.5101 -0.2152,-1.04641 -0.19133,-1.19179 z m -0.93916,159.673284 c 0.001,-0.21579 0.0181,-0.4315 0.0506,-0.59501 0.0649,-0.32704 0.11508,-0.0588 0.11116,0.59598 -0.004,0.65482 -0.0571,0.92241 -0.11827,0.59461 -0.0305,-0.16389 -0.0447,-0.37978 -0.0434,-0.59558 z m 0.0145,-2.09439 c 0.005,-0.0919 0.0289,-0.17085 0.0731,-0.21454 0.0884,-0.0874 0.15,0.0693 0.13694,0.34809 -0.0145,0.30814 -0.0774,0.37028 -0.16064,0.15872 -0.0376,-0.0957 -0.0537,-0.20038 -0.0494,-0.29227 z m 0.30201,-6.87181 c 0.003,-0.43158 0.0192,-0.853 0.0488,-1.15985 l -0.002,-2e-5 c 0.0592,-0.61373 0.1,-0.0446 0.0921,1.2651 -0.009,1.30966 -0.0569,1.81203 -0.10744,1.1161 -0.0244,-0.34796 -0.035,-0.78973 -0.032,-1.22133 z m 0.0255,-3.43534 c 0.003,-0.14386 0.0228,-0.27773 0.0596,-0.36707 l -5.3e-4,-1e-5 c 0.0736,-0.17869 0.12677,0.0319 0.11916,0.46839 -0.008,0.43652 -0.0682,0.58312 -0.13372,0.32529 -0.0326,-0.12892 -0.0471,-0.28276 -0.0445,-0.4266 z m 0.34261,-13.23718 c 0.004,-0.0919 0.0289,-0.17084 0.0731,-0.21454 0.0884,-0.0874 0.15,0.0693 0.13694,0.34808 -0.0145,0.30815 -0.0774,0.3703 -0.16063,0.15873 -0.0376,-0.0957 -0.0538,-0.20038 -0.0495,-0.29227 z m 1.39062,-193.292389 c 0.0196,-1.01302 0.0853,-2.994914 0.17099,-5.095399 0.33034,-8.095341 0.7191,-6.175525 0.61692,3.046449 -0.0496,4.474553 -0.0156,8.320935 0.0756,8.547363 0.0911,0.226449 0.11611,0.464752 0.0552,0.52951 -0.0899,0.09566 -0.42658,8.638447 -0.51531,13.080078 -0.0161,0.80592 -0.081,0.95449 -0.27244,0.62212 -0.14887,-0.2585 -0.22052,-4.304632 -0.17586,-9.923105 0.0414,-5.217667 0.0604,-9.784744 0.0415,-10.148664 -0.005,-0.09103 -0.003,-0.320694 0.003,-0.658351 z m -0.81461,141.414349 c 7.2e-4,-0.11989 0.0195,-0.23967 0.0568,-0.3304 0.0745,-0.18146 0.13404,-0.0323 0.13186,0.33153 -0.002,0.36379 -0.0635,0.51226 -0.13581,0.32991 -0.0362,-0.0911 -0.0535,-0.21115 -0.0528,-0.33104 z m 0.87942,-108.740438 c 0.007,-1.2347 0.1229,-2.11597 0.27723,-2.11505 0.15433,9.2e-4 0.25931,0.88351 0.25193,2.11821 -0.007,1.23471 -0.12289,2.11597 -0.27721,2.11505 -0.15433,-9.3e-4 -0.25932,-0.8835 -0.25195,-2.11821 z m 0.0792,-7.2757 c 0.029,-1.78074 0.10725,-2.38574 0.23999,-1.85068 0.28929,1.16597 0.27449,3.64433 -0.0245,4.10096 -0.17575,0.26834 -0.24472,-0.45456 -0.21549,-2.25028 z m 0.42703,-70.4951841 c 0.0424,-0.762841 0.32866,-0.859612 0.51009,0.252631 0.28824,1.766743 0.25537,4.7641096 -0.0522,4.7622726 -0.14551,-8.69e-4 -0.2643,-0.686171 -0.2653,-1.522962 -10e-6,-0.8367346 -0.0636,-1.9740446 -0.14045,-2.5273336 -0.053,-0.382283 -0.0663,-0.710338 -0.0521,-0.964608 z M 105.79336,205.80559 c 0.0126,-0.93943 0.032,-1.9805 0.0597,-3.08375 0.10902,-4.33886 0.2133,-9.91293 0.23109,-12.38672 l 0.0329,-4.4978 0.32713,2.41943 c 0.17992,1.33044 0.33655,3.53407 0.34851,4.89695 0.012,1.36288 0.0871,3.37093 0.16714,4.46282 0.0801,1.09191 0.0761,2.05217 -0.009,2.13371 -0.0849,0.0815 -0.21231,1.33095 -0.28325,2.77649 -0.22183,4.52327 -0.54462,7.79876 -0.78333,7.94433 -0.0964,0.0587 -0.12837,-1.84718 -0.0915,-4.66546 z M 107.19508,2.0015565 c 0.009,-1.45957399 0.0983,-2.82409299 0.26129,-2.82311999 0.16358,9.77e-4 0.24968,1.289974 0.22583,3.37483899 -0.0245,2.131032 -0.12132,3.1779122 -0.26296,2.84275 -0.16075,-0.380296 -0.23288,-1.934885 -0.22416,-3.394469 z m 13.60634,310.1567735 0.86045,-0.09 c 0.47324,-0.0495 1.24711,-0.0394 1.71969,0.0222 0.67832,0.0883 0.71693,0.11971 0.18411,0.14993 -0.37122,0.0211 -0.79934,0.16108 -0.95118,0.31111 -0.19063,0.18836 -0.5137,0.16991 -1.04455,-0.0599 z m 7.27541,0.12665 c 7.9e-4,-0.13189 0.23956,-0.23835 0.53059,-0.23661 0.29104,0.002 0.52889,0.0487 0.52856,0.10444 -3.3e-4,0.0558 -0.2391,0.16225 -0.53059,0.23661 -0.29149,0.0744 -0.52935,0.0274 -0.52856,-0.10444 z m 2.77752,0.11009 0.79479,-0.17095 c 0.43713,-0.0941 1.18784,-0.29367 1.66871,-0.44324 0.64034,-0.19917 0.97503,-0.18781 1.24931,0.0426 0.25013,0.21017 1.24872,0.29007 3.00774,0.24018 1.44854,-0.041 2.71276,0.005 2.8091,0.10258 0.0963,0.0975 0.56836,0.11591 1.04879,0.0409 0.48041,-0.075 1.09432,-0.006 1.36442,0.15285 0.3908,0.23024 0.11323,0.29879 -1.36116,0.33759 -4.30269,0.11323 -9.30756,0.0541 -9.92133,-0.11766 z m 15.34944,-325.122698 c -0.005,0.332116 0.52626,0.484111 1.49164,0.394415 0.68095,-0.06323 1.44675,-0.120841 1.70146,-0.12832 1.04077,-0.02959 0.36174,-0.459388 -1.13005,-0.715262 -1.22645,-0.210369 -1.66027,-0.196719 -1.87519,0.0591 -0.12469,0.148428 -0.18617,0.279353 -0.18786,0.390065 z m 3.9094,-0.0021 c 0.007,0.05124 0.0405,0.109094 0.10388,0.173214 0.0987,0.09989 1.48884,0.220826 3.0887,0.269092 1.59989,0.04826 3.04379,0.172512 3.20905,0.276 0.16525,0.103519 0.45438,-0.01979 0.64244,-0.273657 0.32515,-0.439126 1.05875,-0.337013 0.77968,0.108508 -0.0732,0.116795 0.16262,0.213885 0.52375,0.216042 0.36115,0.0022 0.65735,-0.08908 0.65803,-0.202774 0.001,-0.200966 0.7843,-0.09452 1.58624,0.215668 0.21778,0.0843 0.51523,0.118199 0.66101,0.07525 1.00075,-0.294678 2.67265,-0.417855 2.80424,-0.206485 0.0857,0.137704 0.47753,0.171635 0.87083,0.0755 0.39327,-0.09625 0.67173,-0.309994 0.61883,-0.474833 -0.13132,-0.408491 -1.80707,-0.530552 -2.97067,-0.216716 -0.76494,0.206316 -0.98178,0.18028 -1.09893,-0.130575 -0.0935,-0.248133 -0.25414,-0.301503 -0.44716,-0.148904 -0.16571,0.130953 -1.22368,0.201316 -2.35122,0.156481 -1.38764,-0.05519 -2.05178,0.01465 -2.05598,0.217174 -0.004,0.191219 -0.0754,0.203304 -0.19864,0.03341 -0.10605,-0.146156 -1.02607,-0.285264 -2.04458,-0.309337 -1.0185,-0.02408 -2.36362,-0.07552 -2.98885,-0.115053 -0.92357,-0.05832 -1.41866,0.03973 -1.39065,0.261969 z m 4.10963,325.208428 c 2.1e-4,-0.0363 0.0235,-0.0767 0.0689,-0.12051 0.0609,-0.0589 2.40122,-0.15554 5.20054,-0.21492 3.0169,-0.064 5.15094,-0.007 5.24026,0.1393 0.0829,0.13591 -0.0942,0.2603 -0.39388,0.27671 -0.29971,0.0164 -0.87246,0.0609 -1.27288,0.0988 -0.40042,0.038 -2.4851,0.0896 -4.63251,0.11444 -3.03972,0.0352 -4.20907,-0.0394 -4.21046,-0.29387 z m 13.37749,-325.039346 c -4.7e-4,0.0798 0.0241,0.173927 0.0665,0.286182 0.11732,0.311327 0.72164,0.365257 3.27204,0.291878 1.72052,-0.04953 3.84311,-0.202421 4.71706,-0.339764 1.25255,-0.196863 4.54488,-0.451994 6.61776,-0.512905 0.14556,-0.0041 1.60226,0.04317 3.23696,0.105134 1.6347,0.06186 3.00421,0.02694 3.04322,-0.07742 0.0391,-0.104279 0.66553,-0.07173 1.39228,0.07242 0.72677,0.144043 2.71351,0.298922 4.4148,0.344173 1.70132,0.04526 3.15001,0.139806 3.21929,0.209911 0.0693,0.07001 1.29635,0.07094 2.72701,0.0018 2.14871,-0.103639 20.78976,0.01669 33.15905,0.214144 2.89844,0.04621 8.53095,-0.176862 9.65974,-0.382604 1.96642,-0.358502 3.81791,-0.483997 4.81362,-0.326787 0.63788,0.100612 1.2078,0.105915 1.26654,0.01256 0.0587,-0.09385 1.27463,-0.11722 2.70252,-0.05256 3.92818,0.177874 4.63731,0.1769 5.57347,-0.0075 0.48593,-0.0957 0.86027,-0.06116 0.85943,0.07953 -0.003,0.580039 29.95443,0.553691 33.03492,-0.02905 0.7799,-0.147534 3.04316,-0.31984 5.02946,-0.382878 4.21963,-0.133791 5.85108,-0.24867 8.35301,-0.588323 1.0062,-0.136633 1.89975,-0.240488 1.98579,-0.229974 0.0859,0.01051 0.25542,0.0045 0.37678,-0.01175 v 0 c 0.12184,-0.01647 0.1725,-0.179343 0.1138,-0.361597 -0.152,-0.471716 -1.82414,-0.546954 -4.71378,-0.212626 -2.77655,0.321243 -4.63485,0.432306 -9.51149,0.567963 -1.81934,0.05063 -3.60599,0.163596 -3.97032,0.251722 -0.36434,0.08813 -3.52021,0.198799 -7.01306,0.245459 -3.49284,0.04664 -7.244,0.151609 -8.33591,0.233399 -2.35771,0.176502 -3.95676,0.159921 -12.17032,-0.123289 -9.88263,-0.34078 -18.36051,-0.285212 -22.49086,0.147307 -2.65479,0.27799 -4.97622,0.215024 -5.40717,-0.147026 -0.27671,-0.232477 -0.4114,-0.248102 -0.4126,-0.04796 -10e-4,0.170076 -0.45396,0.293923 -1.06009,0.290303 -0.58207,-0.0035 -1.0576,-0.125388 -1.05673,-0.270906 8.7e-4,-0.145517 -0.23655,-0.265997 -0.52758,-0.267735 -0.29104,-0.0017 -0.52835,-0.137678 -0.52737,-0.302345 0.001,-0.198227 -0.36834,-0.251865 -1.09358,-0.158995 -0.6025,0.0772 -1.39043,0.0258 -1.75118,-0.113801 -0.42276,-0.163767 -0.77002,-0.160341 -0.97675,0.0093 -0.2087,0.170977 -0.62617,0.172843 -1.19587,0.0059 -0.98479,-0.288797 -1.4354,-0.136625 -1.22772,0.414375 0.16023,0.425084 0.12921,0.429609 -2.35699,0.341979 -1.01845,-0.03578 -2.50656,-0.06967 -3.30692,-0.07145 -20.8886,-0.08736 -27.13214,-0.124147 -29.76514,-0.172773 -1.74608,-0.03243 -3.77008,-0.04952 -4.49777,-0.03826 -0.72768,0.01175 -1.79923,0.0073 -2.38124,-0.0082 -1.10876,-0.03022 -1.25181,-0.02228 -6.35206,0.325339 -1.74699,0.119088 -4.10234,0.253633 -5.23465,0.298971 -1.78552,0.07154 -2.29195,0.144614 -2.29791,0.490635 z m 5.25473,201.921386 c -0.0173,0.0594 0.0433,0.12295 0.17704,0.20673 0.19942,0.1249 0.42591,0.0857 0.53748,-0.0924 0.25867,-0.41297 0.12793,-0.50409 -0.42406,-0.29606 -0.17772,0.0669 -0.27312,0.12229 -0.29046,0.18172 z m 43.84191,125.56806 c -7.5e-4,0.0877 1.66588,0.1325 3.70364,0.10072 l -1e-5,5.3e-4 c 2.09979,-0.0329 3.70574,-0.16656 3.70658,-0.3086 8.3e-4,-0.13784 -0.57584,-0.25407 -1.28107,-0.25828 -2.08988,-0.0125 -6.12811,0.29419 -6.12914,0.46569 z m 16.38083,-329.510152 c -0.007,0.149322 0.33965,0.224763 1.04872,0.228998 0.95889,0.0057 1.20665,-0.08479 1.20879,-0.442368 0.002,-0.338034 -0.0728,-0.375042 -0.30196,-0.148577 -0.1677,0.165562 -0.62998,0.234392 -1.02722,0.152518 -0.39776,-0.08208 -0.8041,-0.0191 -0.90414,0.140833 -0.0152,0.02421 -0.0233,0.04726 -0.0242,0.06856 z m -1.69469,326.920982 c 0.0217,-0.12786 0.41334,-0.20425 1.05801,-0.2004 0.6634,0.004 1.2059,0.12628 1.20503,0.27179 -8.7e-4,0.14553 -0.47089,0.26178 -1.04439,0.25835 -0.57347,-0.003 -1.11549,-0.12571 -1.20453,-0.27178 -0.0123,-0.0203 -0.0173,-0.0397 -0.0142,-0.058 z m 2.39494,0.13832 1.58764,-0.0194 c 0.87323,-0.0108 1.76554,0.0968 1.98299,0.23923 0.49303,0.32282 -0.62575,0.32241 -2.38129,-8.2e-4 z m 10.38389,-327.990389 c -0.0165,0.0948 0.0416,0.161992 0.15718,0.162682 0.15409,9.2e-4 0.28079,-0.117385 0.28166,-0.262903 8.7e-4,-0.145517 -0.0505,-0.264886 -0.1147,-0.265269 -0.0642,-3.84e-4 -0.19142,0.117919 -0.28217,0.262899 -0.0227,0.03627 -0.0364,0.07098 -0.0419,0.102592 z M 255.06554,314.4573 c -7.3e-4,0.10913 1.03049,0.20458 2.29166,0.21212 1.26114,0.008 2.20412,-0.0761 2.09559,-0.18592 -0.10849,-0.10979 -1.13976,-0.20525 -2.29166,-0.21213 -1.15192,-0.007 -2.09485,0.0768 -2.09559,0.18593 z m 4.81056,0.27522 c 0.0722,0.41859 1.81466,0.35677 2.12987,-0.12887 0.29936,-0.46127 0.28226,-0.46814 -0.90578,-0.36457 -0.61103,0.0532 -1.15807,0.23464 -1.21527,0.40306 -0.011,0.0321 -0.0136,0.0624 -0.009,0.0904 z m 15.64337,1.53678 c 0.004,-0.024 0.0447,-0.0528 0.12401,-0.084 0.19145,-0.0753 0.41944,-0.0642 0.5068,0.0242 0.0874,0.0885 -0.0693,0.1501 -0.34808,0.13694 -0.1926,-0.009 -0.28903,-0.037 -0.28273,-0.0771 z m 2.55957,0.17859 c -0.007,-0.0326 0.0289,-0.0694 0.10244,-0.11153 0.35794,-0.20494 2.96572,-0.23057 8.86422,-0.0861 7.49129,0.1835 10.41987,0.42556 9.66614,0.79826 -0.1401,0.0694 -2.93287,0.0285 -6.20643,-0.0903 -3.27357,-0.11875 -7.49963,-0.24175 -9.39124,-0.27365 -2.16045,-0.0364 -3.00479,-0.0955 -3.03513,-0.23672 z m 7.75217,-336.420831 c 0.007,0.189835 0.52836,0.303571 1.86302,0.424045 1.41936,0.128099 2.1014,0.09185 2.23783,-0.118927 0.35142,-0.543011 0.21724,-0.773557 -0.23529,-0.404513 -0.31542,0.257201 -0.47054,0.273235 -0.54245,0.05566 -0.065,-0.196951 -0.35413,-0.237149 -0.81634,-0.113417 -0.39355,0.105421 -1.06591,0.09134 -1.49431,-0.03162 -0.53825,-0.154478 -0.84288,-0.122727 -0.98507,0.102648 -0.0192,0.03049 -0.0284,0.05903 -0.0274,0.08614 z m 5.36298,0.01853 c -0.002,0.336434 0.0654,0.348397 0.38666,0.06841 0.49433,-0.430705 0.49515,-0.470411 0.0128,-0.473292 -0.21831,-0.0013 -0.39797,0.180817 -0.39931,0.404843 z m 1.4438,0.271647 c -0.018,0.04769 0.13334,0.0824 0.40619,0.08403 0.36382,0.0022 0.51298,-0.05684 0.33152,-0.131342 -0.18146,-0.07449 -0.47911,-0.07626 -0.66145,-0.004 -0.0456,0.01793 -0.0702,0.03528 -0.0763,0.05124 z m 2.79433,-0.5435 c -0.0688,0.281904 1.10936,0.372822 4.09588,0.357269 2.25563,-0.01163 4.1016,-0.09542 4.10222,-0.185824 6e-4,-0.0903 0.56585,-0.05212 1.25629,0.08451 0.69418,0.137339 4.03505,0.190743 7.4739,0.11954 11.76522,-0.243428 16.27595,-0.327979 17.06785,-0.320259 0.43653,0.0056 0.97264,-0.05129 1.19138,-0.123617 0.34719,-0.114959 0.34467,-0.171725 -0.0216,-0.446127 -0.52708,-0.394765 -5.68664,-0.219147 -5.619,0.191234 0.0525,0.318219 -1.39751,0.289369 -2.16294,-0.04282 -0.58062,-0.251832 -6.85858,-0.295228 -8.33418,-0.05778 -1.40669,0.226602 -2.46733,0.237178 -2.94993,0.02938 -0.23934,-0.103061 -0.49564,-0.09056 -0.56964,0.0281 -0.074,0.11857 -1.96155,0.133467 -4.19434,0.03285 -4.35745,-0.196418 -10.69871,-0.135799 -11.09577,0.106324 -0.14178,0.08645 -0.22423,0.161933 -0.2401,0.22698 z m 4.96938,335.268444 c 0.0134,-0.12361 0.37845,-0.12645 1.31857,-0.0479 0.84975,0.071 1.62263,0.24947 1.71745,0.3968 0.0949,0.14736 0.47038,0.24101 0.83438,0.20808 1.0805,-0.0978 9.21295,-0.13591 11.6422,-0.0545 1.2367,0.0415 2.42004,0.0334 2.62998,-0.0179 0.20994,-0.0513 0.42064,0.0855 0.46793,0.30408 0.0751,0.34661 -0.93148,0.39012 -7.87507,0.33796 -4.73237,-0.0353 -8.03409,-0.16257 -8.14093,-0.31322 -0.0989,-0.1394 -0.62925,-0.26551 -1.17863,-0.27989 -0.54944,-0.0144 -1.14378,-0.17976 -1.32075,-0.36808 -0.0653,-0.0695 -0.0996,-0.12421 -0.0951,-0.16542 z m 1.93445,-1.1517 c -0.007,-0.009 -0.006,-0.0177 0.004,-0.0269 0.13399,-0.1324 0.83455,-0.29829 1.55718,-0.36898 0.72268,-0.0707 1.73102,-0.1956 2.24085,-0.27756 1.2366,-0.19873 1.79844,-0.21432 4.83002,-0.13341 2.09262,0.0559 2.57888,0.14352 2.57696,0.4655 -0.003,0.46618 0.25282,0.4459 -6.3211,0.50743 -2.9082,0.0272 -4.78583,-0.0376 -4.88767,-0.16613 z m 2.4919,1.11871 c 0.003,-0.0239 0.0453,-0.0514 0.12711,-0.0829 0.28178,-0.10842 0.89978,-0.20353 1.37278,-0.21091 0.47299,-0.007 0.85906,0.0758 0.8583,0.18496 -7.5e-4,0.10914 -0.61824,0.20422 -1.37228,0.21092 -0.65689,0.006 -0.99572,-0.0305 -0.98591,-0.10199 z m 9.50788,-0.21866 c -0.0331,-0.16356 0.45535,-0.30786 1.31959,-0.30269 0.72759,0.004 1.32277,0.11344 1.322,0.24199 -0.002,0.30938 -1.1577,0.51199 -1.987,0.34833 -0.42704,-0.0843 -0.6347,-0.18949 -0.65459,-0.28763 z m 5.71586,1.24339 c 0.008,-0.10519 0.10187,-0.24087 0.27373,-0.41023 0.39167,-0.38599 1.03254,-0.43255 4.94353,-0.35909 2.65662,0.05 4.60459,0.19676 4.7651,0.35919 0.18665,0.1889 -0.4686,0.28244 -2.09679,0.29961 -1.30252,0.0137 -2.5472,0.0409 -2.7656,0.06 -0.2184,0.0191 -1.37217,0.1256 -2.56411,0.23636 -1.81537,0.16869 -2.57805,0.12977 -2.55586,-0.18581 z m 0.075,-1.48993 c -0.005,-0.0511 0.0237,-0.11372 0.0951,-0.18443 0.0861,-0.0851 0.37438,-0.10976 0.6401,-0.0546 0.45986,0.0954 0.45856,0.10992 -0.0193,0.29444 -0.3821,0.14754 -0.70098,0.0978 -0.71591,-0.0555 z m 11.2883,-335.093825 c -0.002,0.295775 0.59001,0.34982 3.10722,0.283153 1.71017,-0.04529 3.64546,-0.12812 4.30066,-0.184108 3.58218,-0.306061 5.22007,-0.406481 8.33756,-0.510394 1.89218,-0.0631 4.63192,-0.271931 6.08831,-0.464396 1.45638,-0.192285 2.73487,-0.268071 2.84066,-0.168037 0.35648,0.337155 0.54132,1.887397 0.22491,1.885507 -0.16369,-9.78e-4 -0.28946,0.266166 -0.28004,0.593648 0.009,0.327432 0.0784,0.446966 0.15294,0.265498 0.27913,-0.680065 0.55746,-0.284486 0.72354,1.02754 0.0943,0.745166 0.23661,1.290386 0.31627,1.21164 0.0797,-0.07872 0.24265,-1.252643 0.36182,-2.608555 0.11918,-1.355943 0.23559,-2.745542 0.25822,-3.088263 0.0409,-0.615427 0.0161,-0.621845 -2.00988,-0.493633 -1.12823,0.07136 -3.1236,0.246299 -4.43417,0.388494 -4.96748,0.539032 -7.15185,0.679028 -13.36682,0.857573 -1.9649,0.05647 -4.21466,0.223942 -4.99942,0.371678 -0.78474,0.147746 -1.47008,0.268224 -1.52297,0.267909 -0.0529,-3.16e-4 -0.0976,0.16377 -0.0988,0.364746 z m -1.08883,335.198155 c -0.0365,-0.12231 0.81905,-0.27787 2.46266,-0.38269 1.78375,-0.11374 2.18438,-0.0163 1.7395,0.4233 -0.0976,0.0964 -1.19931,0.16152 -2.4483,0.14505 -1.15735,-0.0159 -1.72545,-0.0905 -1.75386,-0.18566 z m 8.69454,-0.66276 c -0.0362,-0.0947 0.82436,-0.219 2.34832,-0.27434 2.20376,-0.08 8.73476,-0.53086 9.48567,-0.65494 0.2185,-0.0361 1.64675,0.0514 3.17389,0.19466 1.52714,0.14315 3.2233,0.22978 3.76923,0.19304 0.58237,-0.0392 0.99139,0.0518 0.99038,0.22038 -0.002,0.3207 -0.42337,0.38232 -2.00631,0.29136 -0.59305,-0.034 -1.78426,0.0585 -2.64711,0.20589 -0.86286,0.14736 -3.05713,0.32779 -4.8766,0.40083 -1.81948,0.073 -3.50084,0.18811 -3.73575,0.25571 -0.23491,0.0676 -1.12205,-0.063 -1.9718,-0.2898 -0.8498,-0.22676 -2.25408,-0.41655 -3.12087,-0.42173 -0.93943,-0.006 -1.38425,-0.0563 -1.40905,-0.12106 z m 17.01946,-332.085559 c -0.005,0.09188 0.0118,0.196534 0.0494,0.29227 0.0832,0.211561 0.14609,0.149445 0.16063,-0.158713 0.0131,-0.278807 -0.0485,-0.435458 -0.13691,-0.348094 -0.0443,0.04364 -0.0687,0.122651 -0.0731,0.214537 z m 6.34935,323.987239 c 0.006,-2.0973 0.17185,-5.04066 0.42409,-6.19927 0.19583,-0.89976 0.31362,-3.72093 0.30883,-7.40662 -0.012,-9.27691 -0.008,-9.51473 0.19178,-12.03762 0.10372,-1.30908 0.18,-5.05916 0.16916,-8.3335 -0.0109,-3.27435 -0.0151,-6.66771 -0.0129,-7.54084 0.008,-1.84658 0.29834,-5.39566 0.70249,-8.59491 0.1561,-1.23602 0.27478,-3.31894 0.26381,-4.62872 -0.0112,-1.30978 0.0109,-6.70568 0.0494,-11.99091 0.0386,-5.28524 0.0189,-10.46228 -0.0434,-11.50468 -0.0623,-1.0424 -0.14293,-4.93388 -0.17936,-8.64772 -0.0754,-7.69759 -0.26647,-14.3697 -0.53784,-18.79413 -0.21751,-3.54591 -0.1008,-6.94361 0.34087,-9.92002 0.17258,-1.16316 0.35404,-2.59085 0.40292,-3.17265 0.0489,-0.5818 0.15398,-1.83136 0.23362,-2.77678 0.0797,-0.94543 0.16246,-3.71318 0.18404,-6.15058 0.0216,-2.43738 0.13995,-4.43101 0.26261,-4.43028 0.48187,0.003 0.59632,5.62138 0.29704,14.55413 -0.24803,7.40217 -0.23524,9.95788 0.0712,14.28818 0.35071,4.95475 0.43244,11.93969 0.45679,39.02946 0.009,10.47774 0.0752,19.58657 0.14628,20.24185 0.0711,0.65529 0.16034,4.58495 0.19849,8.73259 0.10282,11.19532 0.26169,16.70683 0.53883,18.71455 0.27025,1.95775 0.41782,4.06413 0.73862,10.53006 0.11555,2.32906 0.28821,4.89981 0.38345,5.71264 l 0.17307,1.47798 -1.68887,0.44106 c -2.71475,0.70846 -3.62149,0.87166 -3.89394,0.70021 -0.12912,-0.0813 -0.18425,-1.0351 -0.18113,-2.29348 z"
       id="path823"
       inkscape:export-filename="/Users/jan/Documents/repo/github/microcol/microcol-game/src/main/resources/images/book.png"
       inkscape:export-xdpi="43.279999"
       inkscape:export-ydpi="43.279999" />
    <path
       inkscape:connector-curvature="0"
       style="fill:#000000;stroke-width:0.26458332"
       d="m -136.28539,0.02349901 c -1.29757,0.003 -2.76827,0.0833 -4.00803,0.24289 -1.01865,0.13115 -3.75588,0.37563 -6.08283,0.54364 -4.60362,0.33241999 -5.90568,0.69769999 -6.4487,1.80918999 -1.35921,2.7820903 -1.65547,4.5914207 -1.4118,8.626341 0.044,0.72761 0.016,5.16269 -0.0625,9.85573 -0.11153,6.66883 -0.0714,8.54096 0.18449,8.57158 0.18006,0.0214 2.68926,0.0715 5.57588,0.1111 2.88661,0.0396 5.28801,0.11157 5.33611,0.15967 v 0 c 0.18986,0.18944 17.21779,0.0589 17.52761,-0.13435 0.1819,-0.11348 0.33073,-0.4427 0.33073,-0.73176 0,-0.50898 -0.16977,-0.52382 -5.35781,-0.46974 -2.94679,0.0307 -6.04871,0.13234 -6.89312,0.22585 -0.8444,0.0935 -3.10658,0.0797 -5.02708,-0.031 -1.92049,-0.11073 -4.8921,-0.24379 -6.60322,-0.2956 -1.71113,-0.0518 -3.22516,-0.2083 -3.36465,-0.34779 -0.1994,-0.19939 -0.66757,-7.56886 -0.55345,-8.71162 0.0145,-0.14552 0.0702,-3.24115 0.1235,-6.87917 0.0882,-6.0167503 0.14657,-6.7237203 0.64751,-7.8217407 0.95295,-2.0887003 1.11091,-2.1557703 5.93555,-2.5228303 2.3604,-0.1796 4.76797,-0.45085 5.35006,-0.60306 1.28508,-0.33608 9.86082,-0.17561 11.37709,0.21291 0.58208,0.14917 1.74293,0.2745 2.57968,0.27749 1.33171,0.006 1.52136,-0.0574 1.52136,-0.50694 0,-0.28244 -0.0893,-0.5669 -0.19844,-0.63147999 -0.10914,-0.0646 -1.64382,-0.19503 -3.41013,-0.28991 -1.76629,-0.0949 -3.61118,-0.28733 -4.09949,-0.42738 -0.54671,-0.15674 -1.67072,-0.23354 -2.96829,-0.23151 z"
       id="path823-4"
       inkscape:export-filename="/Users/jan/Documents/repo/github/microcol/microcol-game/src/main/resources/images/book.png"
       inkscape:export-xdpi="43.279999"
       inkscape:export-ydpi="43.279999" />
    <path
       inkscape:connector-curvature="0"
       style="fill:#000000;stroke-width:0.26458332"
       d="m -137.79733,40.088977 c -1.29757,0.003 -2.76827,0.0833 -4.00803,0.24289 -1.01865,0.13115 -3.75588,0.37563 -6.08283,0.54364 -4.60362,0.33242 -5.90568,0.6977 -6.4487,1.80919 -1.35921,2.78209 -1.65547,4.591421 -1.4118,8.626341 0.044,0.72761 0.016,5.16269 -0.0625,9.85573 -0.11153,6.66883 -0.0714,8.540961 0.18449,8.571579 0.18006,0.0214 2.68926,0.0715 5.57588,0.111101 2.88661,0.0396 5.28801,0.111569 5.33611,0.159671 v 0 c 0.18986,0.189439 17.21779,0.0589 17.52761,-0.13435 0.1819,-0.11348 0.33073,-0.442701 0.33073,-0.731761 0,-0.508979 -0.16977,-0.52382 -5.35781,-0.469739 -2.94679,0.0307 -6.04871,0.132339 -6.89312,0.225848 -0.8444,0.0935 -3.10658,0.0797 -5.02708,-0.031 -1.92049,-0.110731 -4.8921,-0.24379 -6.60322,-0.295601 -1.71113,-0.0518 -3.22516,-0.208301 -3.36465,-0.347789 -0.1994,-0.19939 -0.66757,-7.568861 -0.55345,-8.711621 0.0145,-0.14552 0.0702,-3.24115 0.1235,-6.87917 0.0882,-6.01675 0.14657,-6.72372 0.64751,-7.821741 0.95295,-2.088698 1.11091,-2.155768 5.93555,-2.522828 2.3604,-0.1796 4.76797,-0.45085 5.35006,-0.60306 1.28508,-0.33608 9.86082,-0.17561 11.37709,0.21291 0.58208,0.14917 1.74293,0.2745 2.57968,0.27749 1.33171,0.006 1.52136,-0.0574 1.52136,-0.50694 0,-0.28244 -0.0893,-0.5669 -0.19844,-0.63148 -0.10914,-0.0646 -1.64382,-0.19503 -3.41013,-0.28991 -1.76629,-0.0949 -3.61118,-0.28733 -4.09949,-0.42738 -0.54671,-0.15674 -1.67072,-0.23354 -2.96829,-0.23151 z"
       id="path823-4-2"
       inkscape:export-filename="/Users/jan/Documents/repo/github/microcol/microcol-game/src/main/resources/images/book.png"
       inkscape:export-xdpi="43.279999"
       inkscape:export-ydpi="43.279999" />
  </g>
</svg>
