<?xml version="1.0" encoding="UTF-8" standalone="no"?>
<!-- Created with Inkscape (http://www.inkscape.org/) -->

<svg
   xmlns:dc="http://purl.org/dc/elements/1.1/"
   xmlns:cc="http://creativecommons.org/ns#"
   xmlns:rdf="http://www.w3.org/1999/02/22-rdf-syntax-ns#"
   xmlns:svg="http://www.w3.org/2000/svg"
   xmlns="http://www.w3.org/2000/svg"
   xmlns:sodipodi="http://sodipodi.sourceforge.net/DTD/sodipodi-0.dtd"
   xmlns:inkscape="http://www.inkscape.org/namespaces/inkscape"
   width="595pt"
   height="841.88977pt"
   viewBox="0 0 209.90278 297"
   version="1.1"
   id="svg2168"
   inkscape:version="0.92.2 5c3e80d, 2017-08-06"
   sodipodi:docname="buildings.svg">
  <defs
     id="defs2162" />
  <sodipodi:namedview
     id="base"
     pagecolor="#ffffff"
     bordercolor="#666666"
     borderopacity="1.0"
     inkscape:pageopacity="0.0"
     inkscape:pageshadow="2"
     inkscape:zoom="0.24748737"
     inkscape:cx="1610.5786"
     inkscape:cy="341.50459"
     inkscape:document-units="mm"
     inkscape:current-layer="layer1"
     showgrid="true"
     inkscape:window-width="1596"
     inkscape:window-height="1005"
     inkscape:window-x="84"
     inkscape:window-y="1"
     inkscape:window-maximized="1"
     units="pt"
     inkscape:pagecheckerboard="true"
     showguides="true"
     inkscape:guide-bbox="true">
    <inkscape:grid
       type="xygrid"
       id="grid4103" />
    <sodipodi:guide
       position="0,317.50001"
       orientation="1,0"
       id="guide4105"
       inkscape:locked="false" />
    <sodipodi:guide
       position="0,296.33334"
       orientation="0,1"
       id="guide4107"
       inkscape:locked="false" />
    <sodipodi:guide
       position="84.666669,232.83334"
       orientation="0,1"
       id="guide4109"
       inkscape:locked="false" />
    <sodipodi:guide
       position="63.500002,306.91668"
       orientation="1,0"
       id="guide4111"
       inkscape:locked="false" />
    <sodipodi:guide
       position="127,243.41667"
       orientation="1,0"
       id="guide4113"
       inkscape:locked="false" />
    <sodipodi:guide
       position="190.50001,275.16667"
       orientation="1,0"
       id="guide4115"
       inkscape:locked="false" />
    <sodipodi:guide
       position="254.00001,243.41667"
       orientation="1,0"
       id="guide4117"
       inkscape:locked="false" />
    <sodipodi:guide
       position="317.50001,243.41667"
       orientation="1,0"
       id="guide4119"
       inkscape:locked="false" />
    <sodipodi:guide
       position="381.00001,232.83334"
       orientation="1,0"
       id="guide4121"
       inkscape:locked="false" />
    <sodipodi:guide
       position="444.50002,222.25001"
       orientation="1,0"
       id="guide4123"
       inkscape:locked="false" />
    <sodipodi:guide
       position="-10.583334,169.33334"
       orientation="0,1"
       id="guide4127"
       inkscape:locked="false" />
    <sodipodi:guide
       position="52.916668,105.83334"
       orientation="0,1"
       id="guide4129"
       inkscape:locked="false" />
    <sodipodi:guide
       position="31.750001,42.333335"
       orientation="0,1"
       id="guide4131"
       inkscape:locked="false" />
    <sodipodi:guide
       position="52.916668,-21.166667"
       orientation="0,1"
       id="guide4133"
       inkscape:locked="false" />
    <sodipodi:guide
       position="63.500002,-84.666669"
       orientation="0,1"
       id="guide4135"
       inkscape:locked="false" />
    <sodipodi:guide
       position="63.500002,-148.16667"
       orientation="0,1"
       id="guide4137"
       inkscape:locked="false" />
    <sodipodi:guide
       position="508.00002,74.083335"
       orientation="1,0"
       id="guide4139"
       inkscape:locked="false" />
  </sodipodi:namedview>
  <metadata
     id="metadata2165">
    <rdf:RDF>
      <cc:Work
         rdf:about="">
        <dc:format>image/svg+xml</dc:format>
        <dc:type
           rdf:resource="http://purl.org/dc/dcmitype/StillImage" />
        <dc:title></dc:title>
      </cc:Work>
    </rdf:RDF>
  </metadata>
  <g
     inkscape:label="Layer 1"
     inkscape:groupmode="layer"
     id="layer1"
     transform="translate(0,-6.080512e-6)">
    <path
       inkscape:connector-curvature="0"
       style="fill:#000000;stroke-width:0.09753982"
       d="m 172.65358,3.8074276 c -0.27983,0.00133 -0.95425,0.3201874 -1.18869,0.5871565 -0.24268,0.2763515 -0.41698,0.3730643 -0.98107,0.5448246 -0.15953,0.048576 -0.2923,0.1257035 -0.29557,0.1714683 -0.003,0.04566 -0.0736,0.079189 -0.156,0.073839 -0.0824,-0.00533 -0.26275,0.081372 -0.40068,0.192794 -0.13794,0.1114184 -0.41841,0.2703324 -0.62295,0.3532166 -0.20455,0.08286 -0.43471,0.2162722 -0.5117,0.2967229 -0.077,0.080418 -0.40762,0.2465627 -0.73493,0.3691612 -0.3273,0.1225892 -0.62163,0.273344 -0.65375,0.3349149 -0.0321,0.061613 -0.12287,0.107602 -0.20155,0.1024934 -0.0787,-0.00514 -0.1458,0.032442 -0.14942,0.083155 -0.004,0.050713 -0.12342,0.084356 -0.26641,0.075067 -0.14299,-0.00925 -0.29212,0.046022 -0.33145,0.1227055 -0.0393,0.076671 -0.27978,0.2115402 -0.53418,0.2997066 -0.25441,0.08819 -0.46522,0.1971384 -0.46844,0.2422358 -0.003,0.045098 -0.0765,0.077519 -0.1626,0.071931 -0.0861,-0.00562 -0.20934,0.093054 -0.2736,0.2193227 -0.0643,0.1263092 -0.16104,0.2008779 -0.2154,0.1658068 -0.13008,-0.083956 -0.33048,0.013809 -0.26295,0.1281429 0.0303,0.051371 0.1796,0.039871 0.35152,-0.026569 0.16435,-0.063301 0.32639,-0.086885 0.36008,-0.052181 0.0337,0.034674 0.12322,0.00201 0.1989,-0.072532 0.0757,-0.074554 0.34683,-0.1452793 0.60272,-0.1569563 0.33192,-0.015116 0.53004,-0.08471 0.69177,-0.2435397 0.1247,-0.1224495 0.26829,-0.2201614 0.31901,-0.2168675 0.0507,0.00334 0.19322,-0.066935 0.31676,-0.1562622 0.25078,-0.1813126 0.68092,-0.2459007 0.68431,-0.1027547 0.001,0.051009 -0.0929,0.099723 -0.20923,0.1084155 -0.15727,0.011796 -0.21691,0.085426 -0.23125,0.286284 -0.0288,0.4027313 0.34774,0.3845782 0.87991,-0.04215 0.23512,-0.1885227 0.48825,-0.3387493 0.56201,-0.3339602 0.12779,0.0083 0.52051,-0.2307193 1.06724,-0.648882 0.13815,-0.105689 0.29062,-0.1895699 0.3391,-0.186422 0.0485,0.00315 0.2301,-0.1098037 0.40332,-0.2514013 0.17322,-0.1415983 0.37559,-0.2536966 0.44975,-0.2488819 0.0742,0.00476 0.13982,-0.057684 0.14565,-0.1392172 0.007,-0.094187 0.0653,-0.1253259 0.16044,-0.085406 0.0827,0.034712 0.15268,0.030803 0.15549,-0.00869 0.003,-0.039498 0.15909,-0.1946402 0.34681,-0.3449682 0.53329,-0.427075 0.9588,-0.3242695 1.81368,0.4383279 0.08,0.071387 0.42705,0.3814581 0.77127,0.6887374 0.34421,0.307283 0.69484,0.6776439 0.77928,0.8231168 0.0845,0.1454729 0.34585,0.4188411 0.58076,0.6077102 0.2349,0.1888689 0.45941,0.3975846 0.49932,0.4641211 0.0399,0.066505 0.25847,0.2567436 0.48574,0.4222432 0.22727,0.1654893 0.56618,0.438425 0.7528,0.6065339 0.18662,0.1681079 0.39061,0.3088796 0.45314,0.3129409 0.13222,0.00887 1.28939,0.889405 1.73516,1.320339 0.16784,0.162263 0.38414,0.323649 0.48095,0.358709 0.0968,0.03506 0.17196,0.123365 0.16677,0.196055 -0.005,0.07265 0.0483,0.136036 0.11887,0.141572 0.0705,0.0053 0.53451,0.316775 1.03104,0.692271 1.71312,1.295588 2.65312,1.954392 2.8028,1.964111 0.28546,0.01853 0.63206,0.470909 0.99923,1.304658 0.40253,0.914032 1.07178,1.802213 1.54807,2.054527 0.36834,0.195171 0.57744,0.217691 0.58647,0.06325 0.01,-0.172949 -0.0994,-0.292847 -0.42654,-0.467789 -0.32303,-0.172771 -0.79608,-0.677518 -1.00593,-1.072947 -0.17048,-0.321225 -0.35479,-0.896465 -0.30072,-0.93874 0.0905,-0.07088 0.42655,0.115672 0.76272,0.423928 0.98262,0.901057 1.54124,1.282062 1.91641,1.306423 0.23772,0.01543 0.25608,0.04332 0.17832,0.266452 -0.0789,0.226366 -0.47424,0.557537 -0.6082,0.509267 -0.0529,-0.01905 -1.07056,0.58949 -1.18763,0.710217 -0.0315,0.03254 -0.14858,0.04633 -0.26006,0.02953 -0.17808,-0.02605 -0.20261,0.02023 -0.20244,0.376075 1.8e-4,0.377831 -0.0401,0.43791 -0.58809,0.887942 -0.32336,0.265559 -0.65007,0.572692 -0.72622,0.682386 -0.0761,0.109707 -0.20173,0.195342 -0.2793,0.190306 -0.0776,-0.005 -0.36841,0.163697 -0.64625,0.374919 -0.27785,0.211232 -0.54965,0.381188 -0.60398,0.377662 -0.0543,-0.0036 -0.10277,0.04647 -0.10738,0.111078 -0.005,0.06463 -0.37389,0.359708 -0.82067,0.656002 -0.84901,0.56303 -0.97074,0.759347 -0.67829,1.092006 0.15208,0.173021 0.13715,0.198117 -0.29295,0.490228 -0.24926,0.16929 -0.45688,0.35601 -0.4611,0.415094 -0.009,0.131391 -0.76876,0.737414 -0.91232,0.728093 -0.0567,-0.0037 -0.19149,0.05585 -0.2995,0.13219 -0.33566,0.237151 -0.83896,0.196521 -1.14124,-0.09188 -0.14606,-0.139323 -0.30588,-0.234035 -0.35529,-0.210764 -0.13148,0.06197 -0.70845,-0.195774 -0.75794,-0.338661 -0.0233,-0.06728 0.0274,-0.117752 0.11212,-0.112251 0.26847,0.01744 0.30477,-0.248343 0.0626,-0.456284 -0.12608,-0.108261 -0.28279,-0.201675 -0.34825,-0.207837 -0.0655,-0.0061 -0.22059,-0.132054 -0.34515,-0.280245 -0.27709,-0.329696 -1.27147,-1.036815 -1.74792,-1.243128 -0.38064,-0.16481 -2.19807,-1.423425 -2.2447,-1.554454 -0.0157,-0.04433 -0.0903,-0.0844 -0.16559,-0.08929 -0.0753,-0.0048 -0.14999,-0.04259 -0.16597,-0.08389 -0.0365,-0.09416 -1.03615,-0.735079 -1.15897,-0.743055 -0.10887,-0.0071 -1.74781,-0.900489 -2.44193,-1.331161 -0.77685,-0.481997 -2.4152,-1.301553 -2.77104,-1.386119 -0.17781,-0.04225 -0.3674,-0.109851 -0.42125,-0.150344 -0.0539,-0.04039 -0.21172,-0.103986 -0.35096,-0.140839 -1.11544,-0.295764 -2.02004,-0.61197 -2.66726,-0.931876 -0.41932,-0.207245 -0.78281,-0.377814 -0.80734,-0.379407 -0.0246,-0.0016 -0.54816,-0.260484 -1.16369,-0.575423 -0.61553,-0.314948 -1.23241,-0.607487 -1.37124,-0.650148 -0.42899,-0.131906 -1.04097,-0.425922 -1.28902,-0.619125 -0.27403,-0.21342 -0.44561,-0.134598 -0.41774,0.192183 0.0226,0.264526 0.59701,0.586934 1.57072,0.881421 0.36107,0.1092 1.28356,0.522276 2.0498,0.917961 0.76625,0.395683 1.71061,0.830506 2.09817,0.966049 0.38758,0.135536 0.79417,0.287437 0.90407,0.337776 0.10991,0.05034 0.3602,0.124171 0.55597,0.16403 0.63641,0.129489 0.74889,0.167965 1.56119,0.536033 0.16492,0.07469 0.33046,0.132865 0.3679,0.128603 0.0374,-0.0042 0.11998,0.05703 0.18349,0.135894 0.0635,0.07894 0.20658,0.149246 0.31825,0.156497 0.11166,0.0072 0.45445,0.1705 0.76141,0.362595 1.08662,0.680026 2.70707,1.622509 2.79984,1.628533 0.15655,0.01015 1.18939,0.649738 1.4489,0.897218 0.13359,0.127389 0.27817,0.233913 0.32133,0.236716 0.0432,0.0028 0.29122,0.177548 0.55082,0.388437 0.2596,0.210889 0.79532,0.56706 1.19073,0.791545 0.39541,0.224475 0.71645,0.440942 0.71359,0.480998 -0.003,0.04007 0.0784,0.07819 0.18041,0.08481 0.46393,0.03014 1.77816,1.448247 1.52544,1.646059 -0.21432,0.167746 -3.40402,0.138546 -7.29328,-0.06707 -0.31095,-0.01645 -0.77621,-0.0027 -1.03397,0.03067 -0.41641,0.05372 -1.40166,0.08249 -3.36034,0.09892 -1.16052,0.0097 -1.50951,0.03045 -1.94849,0.115008 -0.27894,0.05379 -1.20939,0.03665 -2.55428,-0.04781 -1.3724,-0.08596 -2.16896,-0.10019 -2.26733,-0.04051 -0.0888,0.0538 -0.74833,0.06405 -1.59141,0.02507 -0.79188,-0.0367 -1.90265,-0.08718 -2.46835,-0.112362 -1.02318,-0.04548 -2.2521,0.01062 -2.9501,0.134934 -0.20118,0.03588 -0.57405,0.05317 -0.82838,0.03858 -0.25433,-0.01469 -0.90751,0.02862 -1.45148,0.09642 -0.54397,0.06782 -1.29187,0.139972 -1.66219,0.160277 -0.37032,0.02034 -0.97706,0.06197 -1.3481,0.09225 -0.37104,0.03028 -1.00035,0.03433 -1.39858,0.0084 -0.39828,-0.02535 -0.77802,-0.0039 -0.84408,0.04794 -0.0666,0.05214 -0.65779,0.07915 -1.32671,0.06104 -0.96837,-0.02619 -1.29282,-0.06824 -1.64368,-0.214898 -0.2404,-0.100579 -0.4842,-0.160789 -0.5421,-0.133482 -0.19997,0.09424 0.0781,0.497165 0.47648,0.689843 0.34894,0.168804 0.48514,0.183547 1.24275,0.135522 0.46785,-0.02966 1.52661,-0.0945 2.35302,-0.144068 0.82642,-0.04959 1.61947,-0.09821 1.76207,-0.108352 0.1426,-0.0099 0.46778,-0.01561 0.72292,-0.01232 0.25514,0.0033 0.58809,-0.03916 0.73964,-0.09423 0.15723,-0.05718 0.31263,-0.0633 0.36202,-0.01402 0.0494,0.04918 0.25955,0.04433 0.48924,-0.01124 0.22154,-0.0536 0.68968,-0.107754 1.04039,-0.120636 0.35072,-0.0129 0.68609,-0.05197 0.74531,-0.08643 0.0592,-0.03448 0.17707,-0.05969 0.26195,-0.05611 0.0849,0.0038 0.55049,-0.01535 1.0348,-0.04246 1.69065,-0.09495 2.64849,-0.09744 4.07923,-0.01124 0.79258,0.04784 1.83598,0.065 2.3188,0.03796 0.48281,-0.02706 1.66337,0.0074 2.62319,0.07649 1.34015,0.09684 2.05523,0.101349 3.08107,0.01829 1.10755,-0.08961 1.34885,-0.08619 1.41249,0.02158 0.061,0.10327 0.14199,0.1124 0.39459,0.0449 0.17488,-0.04685 0.558,-0.05424 0.8517,-0.01683 0.2937,0.03745 0.58519,0.0375 0.64741,5.34e-4 0.10911,-0.06498 0.66822,-0.132891 1.98292,-0.241698 0.34252,-0.02841 1.20074,-0.02009 1.90739,0.01814 0.70664,0.03822 1.54026,0.07032 1.85231,0.07137 0.87128,0.0029 3.70247,0.118753 3.29238,0.134754 -0.19919,0.0078 -0.68887,0.03566 -1.08802,0.06223 -1.23066,0.08197 -1.42179,0.08838 -2.37881,0.07719 -0.51032,-0.0059 -1.06888,0.0169 -1.24155,0.05077 -0.17267,0.03392 -0.66271,0.06665 -1.08875,0.07254 -0.42604,0.0058 -0.915,0.02348 -1.08637,0.03911 -0.17138,0.01572 -0.78877,0.0053 -1.37203,-0.0224 -0.61732,-0.02943 -1.09278,-0.01104 -1.13797,0.04367 -0.0427,0.05167 -0.31044,0.102819 -0.59496,0.113499 -0.28451,0.01074 -0.98193,0.03596 -1.54962,0.05644 -0.56769,0.02047 -1.0584,0.06979 -1.09087,0.109453 -0.0325,0.03969 -0.36156,0.08122 -0.73122,0.09231 -0.87603,0.02632 -1.40297,0.13635 -1.27663,0.266315 0.064,0.06551 0.33339,0.08068 0.80633,0.04548 0.3904,-0.02906 1.26738,-0.06263 1.94922,-0.07446 0.68185,-0.01188 1.35706,-0.03565 1.50016,-0.05276 0.14309,-0.01707 0.77107,-0.03535 1.3957,-0.04076 0.62464,-0.0054 1.35917,-0.04189 1.6322,-0.08122 0.27304,-0.03942 0.56909,-0.04102 0.65808,-0.0038 0.089,0.03741 0.22725,0.02591 0.3069,-0.02551 0.12785,-0.0826 0.83362,-0.11456 1.59636,-0.07267 0.14203,0.008 0.88755,-0.03098 1.65692,-0.08654 2.07645,-0.150301 3.6181,-0.169427 3.73684,-0.0473 0.22847,0.234998 -0.07,0.298888 -0.99835,0.213754 -0.87841,-0.08056 -0.941,-0.07438 -0.95322,0.09665 -0.0119,0.1665 0.0678,0.190937 0.88107,0.268123 l 0.89365,0.0847 0.096,0.396441 c 0.1017,0.420848 0.0662,1.061419 -0.14951,2.696067 -0.0734,0.555662 -0.2045,1.714235 -0.29107,2.574752 -0.0866,0.860497 -0.23668,1.934521 -0.33358,2.386768 -0.21267,0.992544 -0.2282,1.116328 -0.23912,1.883652 l -0.009,0.601538 0.18897,-0.775065 c 0.10384,-0.42633 0.19971,-0.795274 0.2129,-0.819936 0.0685,-0.128402 0.12266,0.893926 0.0824,1.551367 -0.0256,0.418151 -1.8e-4,0.78527 0.0568,0.82214 0.0605,0.03906 0.0726,0.35805 0.0293,0.771946 -0.0406,0.387817 -0.062,1.018607 -0.0478,1.401649 0.0362,0.971809 -0.0221,1.923413 -0.22868,3.73214 -0.12149,1.063769 -0.14562,1.59859 -0.0758,1.685325 l -3e-5,5.04e-4 c 0.16346,0.203069 0.32336,0.162163 0.49119,-0.125673 0.12488,-0.214158 0.1509,-0.495758 0.1298,-1.404223 -0.0145,-0.625001 -0.006,-1.468748 0.0199,-1.874672 0.0254,-0.405952 0.0302,-1.114153 0.0109,-1.573958 -0.0962,-2.293303 0.095,-7.801841 0.30475,-8.780155 0.43914,-2.048507 0.47045,-2.34636 0.29732,-2.829217 -0.0984,-0.274313 -0.0971,-0.49716 0.005,-0.972747 0.0726,-0.339173 0.15839,-0.76074 0.19069,-0.936958 0.0433,-0.236049 0.11267,-0.324215 0.26477,-0.334984 0.13225,-0.0094 0.22059,0.04937 0.24523,0.163607 0.0463,0.214579 0.82829,0.637988 1.11954,0.606145 1.41855,-0.155046 1.65164,-0.145254 2.26251,0.09357 1.17438,0.45913 1.13898,0.451873 1.23115,0.239976 0.0661,-0.151947 -0.001,-0.266988 -0.31921,-0.549237 -0.26311,-0.233415 -0.36542,-0.386093 -0.29535,-0.440996 0.17859,-0.13978 0.29256,-0.760862 0.16794,-0.915719 -0.0622,-0.07737 -0.28461,-0.151843 -0.49423,-0.165454 -0.49006,-0.03183 -0.56663,-0.118534 -0.29753,-0.337905 0.35578,-0.290028 0.58874,-0.500661 1.05594,-0.954872 0.24393,-0.237157 0.59154,-0.549556 0.77212,-0.694223 0.18058,-0.144665 0.64618,-0.553348 1.03496,-0.907826 0.38879,-0.354458 0.80782,-0.697621 0.93138,-0.76291 0.12357,-0.06533 0.26401,-0.169052 0.31219,-0.230153 0.16061,-0.203733 0.42478,-0.376456 0.56234,-0.367524 0.10325,0.0067 0.12434,0.258977 0.0878,1.047903 -0.075,1.618827 -0.18073,2.637746 -0.33193,3.190505 -0.18755,0.685402 -0.386,2.409822 -0.31425,2.732787 0.0873,0.392764 0.20291,0.149092 0.27741,-0.584584 0.0364,-0.3591 0.10242,-0.698177 0.14652,-0.753618 0.0756,-0.09507 0.0966,0.423381 0.0954,2.377577 -8.5e-4,1.431221 0.0511,2.206975 0.18639,2.772209 0.15978,0.667438 0.15859,0.690809 -0.0392,0.744778 -0.10798,0.02946 -0.19807,-0.05483 -0.28214,-0.263312 l -0.12365,-0.306257 -0.0494,0.575683 c -0.0272,0.316664 -0.007,0.578438 0.0455,0.581844 0.0524,0.0035 0.0794,0.230415 0.0598,0.504242 -0.0196,0.273794 0.005,0.5778 0.0533,0.675213 0.15649,0.312878 0.19141,1.537527 0.0815,2.863196 -0.0588,0.709456 -0.14068,1.331111 -0.18204,1.381568 -0.0931,0.113749 -0.13411,1.829095 -0.0619,2.585685 0.0333,0.349127 0.005,0.707756 -0.076,0.954781 -0.13612,0.417216 -0.0532,0.657922 0.23294,0.676503 0.215,0.01395 0.43456,-0.397551 0.3008,-0.563809 -0.0702,-0.08724 -0.0686,-0.333521 0.004,-0.720369 0.14831,-0.787141 0.36252,-3.685725 0.31975,-4.325864 -0.0188,-0.281427 -0.0238,-1.094591 -0.0108,-1.807024 0.013,-0.712444 0.002,-1.33226 -0.0239,-1.377159 -0.0261,-0.04493 -0.0473,-1.004804 -0.0471,-2.133398 2e-4,-1.128582 -0.004,-2.198247 -0.01,-2.376935 -0.006,-0.17868 0.007,-1.048614 0.0277,-1.932942 0.0226,-0.957504 -0.008,-1.727091 -0.0755,-1.902603 -0.0625,-0.162109 -0.0733,-0.355376 -0.0242,-0.42932 0.0919,-0.138502 0.26835,-1.022256 0.42958,-2.149866 0.0505,-0.353357 0.0705,-1.103804 0.0439,-1.667142 l -0.0486,-1.024118 0.40359,-0.34227 c 0.62103,-0.526717 0.66711,-0.57035 1.10251,-1.048655 0.22418,-0.246276 0.41083,-0.494579 0.41493,-0.551949 0.004,-0.05734 0.0432,-0.101913 0.0868,-0.09907 0.0436,0.0029 0.17718,-0.134696 0.29632,-0.305275 0.21554,-0.308587 0.61076,-0.406312 0.74239,-0.183451 0.0878,0.148771 0.45382,0.139356 0.53241,-0.01381 0.0421,-0.08213 -0.034,-0.236436 -0.19003,-0.385259 -0.21307,-0.20318 -0.24409,-0.297417 -0.172,-0.521896 0.1436,-0.447156 -0.21489,-0.728926 -0.57184,-0.449567 -0.14329,0.112163 -0.1939,0.09484 -0.43537,-0.148296 -1.18621,-1.194485 -2.79966,-3.110725 -2.78878,-3.312166 0.005,-0.09386 -1.90111,-2.119835 -2.21793,-2.35734 -1.28437,-0.9628771 -1.7315,-1.4551433 -2.97349,-3.273255 -0.31484,-0.4608683 -1.06553,-1.0307605 -2.10981,-1.601018 -0.50523,-0.27589 -0.91643,-0.5345349 -0.91358,-0.5744941 0.003,-0.039985 -0.15597,-0.1107367 -0.3529,-0.1572653 -0.25555,-0.060354 -0.45518,-0.2070115 -0.69787,-0.5125743 -0.35046,-0.4412364 -0.6759,-0.5646197 -0.80841,-0.3063763 -0.0509,0.099131 0.0157,0.2163158 0.2029,0.3574481 0.15304,0.1154119 0.38979,0.3179987 0.52622,0.450061 0.13643,0.1320651 0.39396,0.3069187 0.57255,0.3888571 0.17859,0.081944 0.32208,0.1899455 0.31851,0.2399892 -0.004,0.050046 0.0646,0.095572 0.15178,0.1012319 0.0872,0.00571 0.27595,0.1222028 0.41919,0.2588766 0.14325,0.1366741 0.34374,0.2539734 0.44601,0.2606144 0.10227,0.00667 0.47471,0.3017672 0.82748,0.6558374 0.35278,0.3540695 0.66943,0.6455736 0.70324,0.6477698 0.0338,0.00218 0.24019,0.2032132 0.45913,0.4466939 0.21895,0.243489 0.44559,0.4458145 0.50347,0.4495728 0.0579,0.00372 0.10136,0.060363 0.0967,0.1263014 -0.005,0.065885 0.19514,0.3541522 0.44427,0.6403366 0.24913,0.2861978 0.5155,0.6348639 0.59161,0.7748728 0.60525,1.113272 1.13753,2.119941 1.4124,2.670546 0.17915,0.358833 0.39714,0.735761 0.48457,0.837566 0.15512,0.180668 0.15124,0.180512 -0.17133,0.0056 -0.1818,-0.09855 -0.52679,-0.333856 -0.76653,-0.522962 -0.23974,-0.189125 -0.59243,-0.42321 -0.78383,-0.520135 -0.1914,-0.09692 -0.38899,-0.256548 -0.43875,-0.354977 -0.0498,-0.09846 -0.14628,-0.184942 -0.21469,-0.192252 -0.15366,-0.01582 -1.01219,-0.670204 -1.89561,-1.445352 -0.36546,-0.320675 -0.86506,-0.7024906 -1.11,-0.8485402 -0.69298,-0.4131888 -1.28165,-0.847598 -1.85699,-1.3697389 -0.29044,-0.2635982 -0.58759,-0.4831898 -0.65975,-0.487875 -0.0721,-0.00467 -0.20433,-0.1280445 -0.2938,-0.2739479 -0.0895,-0.1459222 -0.2188,-0.3262429 -0.28788,-0.4005055 -0.18249,-0.1961482 -0.0362,-0.2582378 0.16345,-0.069394 1.07965,1.0212336 1.5598,1.3601052 1.73321,1.2243877 0.12417,-0.097172 0.0734,-0.1600917 -0.25075,-0.3111597 -0.3973,-0.1851536 -2.21986,-1.7861855 -2.20885,-1.94036 0.004,-0.061078 -0.0817,-0.1693724 -0.19104,-0.2406044 -0.10928,-0.071217 -0.26059,-0.2995941 -0.33618,-0.5073675 -0.0756,-0.2077887 -0.16936,-0.3799657 -0.20836,-0.3824976 -0.039,-0.00248 -0.12017,-0.1571718 -0.18054,-0.3441424 -0.1052,-0.3256923 -0.12552,-0.3383725 -0.48912,-0.3024357 -0.2087,0.020616 -0.42623,0.072494 -0.48324,0.1158147 -0.20787,0.1578326 -0.37055,0.060936 -0.35124,-0.2095129 0.0106,-0.1491443 -0.0291,-0.3025617 -0.0881,-0.3406079 -0.0214,-0.013837 -0.0534,-0.020084 -0.0934,-0.019892 z M 156.6807,2.8354658 c -0.30728,-0.019959 -0.33072,0.3836724 -0.15628,2.710937 0.12058,1.6087091 0.0795,1.9081392 -0.26364,1.9077463 -0.36932,-4.205e-4 -0.42308,0.00696 -0.56901,0.07666 -0.0774,0.036942 -0.16615,0.040557 -0.19743,0.00839 -0.0313,-0.032137 -0.11607,-0.020332 -0.18834,0.026291 -0.16241,0.1048896 -1.11438,-0.1220709 -1.45453,-0.3468464 -0.29876,-0.1974679 -1.2315,-0.3044528 -1.31059,-0.1502965 -0.0909,0.1771294 0.12425,0.5089171 0.33923,0.522876 0.10765,0.00696 0.22147,0.055796 0.25276,0.1087729 0.0313,0.052973 0.18197,0.1046744 0.33471,0.114593 0.18947,0.012301 0.30507,0.086045 0.36413,0.2320839 0.0828,0.2046561 0.14007,0.2180622 1.31886,0.2955604 l 1.2327,0.080553 0.0138,1.4817161 c 0.008,0.8148865 0.0313,1.6444125 0.0523,1.8433015 0.0395,0.374693 0.24203,0.759664 0.41589,0.791119 0.0549,0.0099 0.14684,0.02605 0.20406,0.03647 0.0572,0.01015 0.14914,0.125318 0.20442,0.25629 l -7e-5,10e-4 c 0.1888,0.447171 0.56237,0.278665 0.38962,-0.17573 -0.11122,-0.292592 0.11792,-4.3770032 0.24513,-4.3687429 0.039,0.00248 0.0979,0.050236 0.13074,0.1057957 0.0402,0.067697 0.10237,0.0732 0.19048,0.016288 0.072,-0.046508 0.32715,-0.1001261 0.56685,-0.1187812 0.23971,-0.018662 0.43852,-0.069833 0.44168,-0.1140676 0.003,-0.044239 0.13923,-0.071969 0.30221,-0.061384 0.16297,0.010584 0.53728,-0.03412 0.83218,-0.099089 0.44365,-0.097813 0.53891,-0.1554944 0.5517,-0.334626 0.0166,-0.2323248 -0.17003,-0.297181 -0.38057,-0.1323892 -0.18147,0.1420168 -0.27788,-4.014e-4 -0.29326,-0.4339485 -0.003,-0.080829 -0.65592,-0.046794 -0.99196,0.051667 -0.41044,0.1205102 -1.52586,0.1545943 -1.55887,0.0479 -0.0465,-0.1502228 -0.15233,-1.4923316 -0.18057,-2.2877763 -0.0136,-0.3829915 -0.0732,-0.7904404 -0.13216,-0.9055654 -0.059,-0.115109 -0.10222,-0.2804532 -0.096,-0.3677929 0.015,-0.2100078 -0.42987,-0.8073421 -0.61021,-0.8190517 z m 17.12347,2.1007243 c 0.13405,0.024794 0.24105,0.1244889 0.43037,0.3707365 0.16983,0.2208894 0.38215,0.524851 0.47183,0.6752228 0.0897,0.1503438 0.14208,0.2895135 0.11672,0.3093725 -0.0511,0.039957 -1.37067,-1.1334249 -1.40997,-1.2537804 -0.0136,-0.041588 0.0965,-0.088628 0.24414,-0.1041729 0.0549,-0.00571 0.10223,-0.00562 0.14691,0.00268 z m -9.88459,3.4286886 c -0.0737,-0.00153 -0.16345,0.024479 -0.30281,0.077148 -0.49005,0.18517 -3.1787,1.5728873 -3.50041,1.8067323 -0.15292,0.111145 -0.32162,0.199444 -0.37509,0.196929 -0.1252,-0.0066 -0.61241,0.283198 -1.15704,0.687999 -0.2364,0.175698 -0.45404,0.317753 -0.48354,0.315837 -0.0897,-0.0057 -0.34847,0.294218 -0.36083,0.41815 -0.006,0.06397 0.0822,0.266977 0.19671,0.451386 0.25783,0.415205 0.39392,0.440294 0.32922,0.0609 -0.0522,-0.306185 0.17215,-0.529381 0.51572,-0.512804 0.10072,0.0048 0.19782,-0.0962 0.24503,-0.254272 0.0807,-0.27041 0.82234,-0.879214 1.49878,-1.230378 0.71819,-0.372857 1.56709,-0.708557 1.62942,-0.6444847 0.0345,0.035531 0.0685,0.00601 0.0756,-0.065723 0.0225,-0.2303751 0.41912,-0.5210536 0.68756,-0.5036236 0.14295,0.00925 0.29185,-0.022963 0.33037,-0.071406 0.0385,-0.048445 0.14835,-0.084747 0.24394,-0.079503 0.0956,0.00467 0.31735,-0.09003 0.49311,-0.2105016 0.30218,-0.2071392 0.31007,-0.2268075 0.14085,-0.3548846 -0.0754,-0.057093 -0.13295,-0.085988 -0.20664,-0.087503 z m 19.13663,2.2482393 c 0.0248,-0.009 0.092,0.0281 0.22465,0.103498 0.28258,0.160584 1.86409,1.683738 1.85664,1.78808 -0.002,0.0329 0.10748,0.179776 0.24395,0.326526 0.13647,0.146747 0.35881,0.440878 0.49461,0.653487 0.2738,0.428665 0.59139,0.807372 1.5842,1.889427 0.36857,0.401703 0.70459,0.794014 0.7468,0.871881 0.0422,0.07788 0.0557,0.15846 0.0297,0.178758 -0.0642,0.05026 -0.75862,-0.484651 -1.04428,-0.804264 -0.1274,-0.142547 -0.26301,-0.261081 -0.30179,-0.263601 -0.0388,-0.0026 -0.53609,-0.323125 -1.10471,-0.712365 -0.75068,-0.513855 -1.04702,-0.774314 -1.08304,-0.950514 -0.0273,-0.133478 -0.0932,-0.245117 -0.14593,-0.248543 -0.0528,-0.0035 -0.16607,-0.167454 -0.25215,-0.364102 -0.0861,-0.196639 -0.22253,-0.431125 -0.30306,-0.521516 -0.15548,-0.174591 -0.78604,-1.396451 -0.91503,-1.772875 -0.0376,-0.109758 -0.0553,-0.164921 -0.0306,-0.173874 z M 157.38283,9.033511 c 0.0125,-0.00201 0.0256,0.00115 0.0392,0.010001 0.0542,0.035016 0.0948,0.1234054 0.0896,0.1964751 -0.005,0.073133 -0.0561,0.1297192 -0.1126,0.1260507 -0.0565,-0.00363 -0.0965,-0.092033 -0.089,-0.1964417 0.006,-0.078322 0.0355,-0.1299328 0.0729,-0.1360388 z m -0.46569,2.089732 c 0.0104,0.0012 0.0223,0.0058 0.0353,0.01416 0.0485,0.03131 0.0939,0.224302 0.10094,0.428868 0.0153,0.439902 -0.10199,0.490287 -0.16459,0.07081 -0.053,-0.355055 -0.0441,-0.522261 0.0284,-0.513824 z m 33.08417,4.157562 c -0.0598,-0.004 -0.11177,0.03465 -0.11539,0.08536 -0.004,0.05072 0.0139,0.09377 0.0388,0.09538 0.0249,0.0016 0.0763,-0.03696 0.11487,-0.08541 0.0385,-0.04844 0.0216,-0.09144 -0.0383,-0.09535 z m -35.20856,-1.912764 c -0.18416,-0.01245 -0.37028,0.0036 -0.41331,0.05762 -0.036,0.04508 -0.21337,0.05097 -0.39405,0.01292 -0.41461,-0.08712 -0.69479,5.72e-4 -1.50202,0.470495 -0.35526,0.206826 -0.71019,0.399135 -0.78877,0.426912 -0.13948,0.04936 -0.43947,0.251673 -0.99312,0.669995 -0.15061,0.1138 -0.31241,0.204457 -0.35935,0.201409 -0.0469,-0.003 -0.28602,0.169976 -0.53145,0.384843 -0.39763,0.348108 -1.46447,1.042234 -1.93865,1.261085 -0.8051,0.371584 -3.37514,1.861021 -3.87031,2.243062 -0.15674,0.120944 -0.33822,0.216116 -0.4036,0.211871 -0.0654,-0.0042 -0.44094,0.23232 -0.83413,0.525222 -0.77746,0.579156 -2.33705,1.799146 -2.33923,1.829775 -0.008,0.106518 -1.6244,1.241493 -1.81038,1.2709 -0.13587,0.02144 -0.24029,0.08651 -0.23152,0.145 0.0253,0.168986 -0.25539,0.506001 -0.413,0.495768 -0.079,-0.0051 -0.42194,0.201631 -0.76263,0.459726 -0.34069,0.258095 -0.63441,0.468549 -0.65233,0.467387 -0.0179,-0.0011 -0.21422,0.131796 -0.43652,0.295673 -0.22231,0.163875 -0.44413,0.295185 -0.49272,0.29203 -0.0486,-0.0032 -0.0926,0.0569 -0.0981,0.132922 -0.006,0.0761 -0.0502,0.135534 -0.0996,0.132326 -0.0494,-0.0032 -0.27995,0.13161 -0.5119,0.299675 -1.42582,1.033128 -1.47298,1.054172 -2.23855,1.014405 -0.38899,-0.02067 -0.85836,0.008 -1.04302,0.06316 -0.30042,0.08978 -0.32939,0.127953 -0.27681,0.365811 0.0526,0.238046 0.11871,0.278413 0.63612,0.383603 0.31779,0.06454 0.57532,0.154161 0.57211,0.199158 -0.003,0.04501 -0.0519,0.07862 -0.10843,0.07495 -0.1949,-0.01265 -0.13955,0.445861 0.068,0.563059 0.38655,0.218319 0.631,0.119264 0.78298,-0.316648 0.17724,-0.508362 0.2027,-0.514893 2.11195,-0.561783 1.2642,-0.03047 2.52414,0.0023 2.76534,0.07336 l 0.26223,0.07779 -0.28511,0.394911 c -0.27722,0.383885 -0.28849,0.44274 -0.39366,2.103792 l -7e-5,0.001 c -0.0847,1.337891 -0.0789,1.710803 0.0261,1.717616 0.19472,0.01264 0.26959,-0.341229 0.3621,-1.712667 0.0923,-1.365087 0.34662,-2.489241 0.59931,-2.64809 0.0918,-0.05786 0.36412,-0.09194 0.60473,-0.0763 0.24062,0.01562 0.66179,0.0037 0.9363,-0.02663 0.531,-0.05834 2.54664,-0.01165 5.49062,0.127338 1.92269,0.09072 2.95734,0.07104 3.06012,-0.05816 0.0349,-0.04396 0.043,-0.138022 0.0185,-0.208721 -0.0375,-0.108634 -0.10777,-0.113198 -0.44545,-0.02893 -0.47603,0.118679 -3.27962,-0.02402 -3.17031,-0.161398 0.0373,-0.04672 0.21595,-0.07028 0.39697,-0.05375 0.18097,0.0174 0.65584,0.0062 1.0553,-0.02483 0.39947,-0.03105 1.00693,-0.05257 1.35011,-0.04768 0.34318,0.0047 0.66964,-0.01269 0.72533,-0.03883 0.0557,-0.02628 0.54247,-0.05084 1.08178,-0.05472 1.55144,-0.01126 1.59198,-0.0066 1.61905,0.204408 0.0361,0.280278 0.15427,0.364124 0.45129,0.317269 0.20882,-0.03297 0.27283,-0.09978 0.28723,-0.301424 0.0343,-0.480402 -0.19585,-0.527323 -2.57457,-0.525272 -1.16535,0.001 -2.17728,0.02899 -2.24827,0.06246 -0.071,0.03344 -0.29688,0.06111 -0.50216,0.06174 -0.33204,9.53e-4 -1.04192,0.038 -3.58508,0.185085 -0.39889,0.02295 -0.86527,0.05251 -1.03646,0.06556 -0.17117,0.01297 -0.62571,0.0224 -1.00999,0.02135 -0.3843,-9.19e-4 -0.74894,0.02194 -0.81063,0.05109 -0.0617,0.02901 -0.81513,0.02566 -1.67401,-0.0079 -0.95657,-0.03733 -1.72423,-0.02177 -1.98152,0.04076 -0.231,0.05614 -0.88313,0.08468 -1.44919,0.06445 -0.96397,-0.03524 -1.03016,-0.04944 -1.04325,-0.223825 -0.009,-0.122406 0.23024,-0.384441 0.69846,-0.765195 0.39164,-0.318473 0.73677,-0.57748 0.76728,-0.575501 0.0507,0.0033 0.56724,-0.371246 1.41308,-1.024042 0.18019,-0.139073 0.38557,-0.249136 0.45617,-0.244517 0.0706,0.0047 0.13095,-0.02766 0.1341,-0.07181 0.003,-0.04416 0.33705,-0.32841 0.74178,-0.631983 0.40474,-0.303565 1.31141,-0.988043 2.01522,-1.520865 0.70379,-0.532824 1.3535,-0.999845 1.44359,-1.037869 0.0901,-0.03804 0.14089,-0.107558 0.11308,-0.154669 -0.0278,-0.04707 0.0542,-0.127898 0.18218,-0.179321 0.12797,-0.05141 0.42539,-0.242559 0.66069,-0.424857 0.2353,-0.182291 0.47695,-0.328124 0.53697,-0.324227 0.06,0.004 0.2436,-0.09895 0.40789,-0.228385 0.16429,-0.129445 0.55579,-0.405893 0.87004,-0.614763 0.31424,-0.208854 0.62524,-0.419439 0.69122,-0.46782 0.066,-0.0484 0.62577,-0.345129 1.24407,-0.659132 0.61829,-0.313993 1.16489,-0.621093 1.21464,-0.682285 0.0498,-0.06126 0.13924,-0.108022 0.19857,-0.104169 0.14155,0.0091 2.14323,-1.333501 2.15104,-1.442894 0.003,-0.04635 0.0563,-0.0813 0.11792,-0.0773 0.1134,0.0074 1.3043,-0.736609 1.37651,-0.859961 0.0215,-0.03684 0.0901,-0.06379 0.1524,-0.05974 0.0622,0.0042 0.2247,-0.07449 0.36106,-0.174628 0.43947,-0.322678 1.17172,-0.593386 1.32948,-0.491576 0.0564,0.03642 -0.1018,0.201591 -0.35709,0.372949 -0.30489,0.204659 -0.44977,0.3672 -0.43298,0.485579 0.0218,0.153938 0.10891,0.12468 0.64519,-0.214952 0.34093,-0.21591 0.683,-0.388339 0.75977,-0.383353 0.0768,0.0049 0.22901,-0.06846 0.33849,-0.163247 0.10948,-0.09481 0.2498,-0.169005 0.31219,-0.164953 0.15196,0.0098 0.4164,-0.328355 0.34771,-0.444687 -0.0351,-0.05967 -0.21697,-0.100426 -0.40112,-0.112976 z m -2.42164,1.692543 c -0.0411,-0.0028 -0.13714,0.07335 -0.21351,0.1684 -0.11442,0.142411 -0.1129,0.165345 0.009,0.131983 0.15912,-0.04342 0.32842,-0.292324 0.20429,-0.300383 z m -1.40171,0.959088 c -0.20455,-0.0045 -0.82975,0.346011 -1.43744,0.828347 -1.10953,0.880664 -2.31186,1.874611 -2.51888,2.082365 -0.0941,0.09447 -0.32585,0.272524 -0.51514,0.395778 -0.18928,0.123246 -0.36148,0.27843 -0.38204,0.345149 -0.0206,0.06672 -0.11017,0.16709 -0.19926,0.22267 -0.13565,0.08458 -0.1246,0.09498 0.069,0.06424 0.12712,-0.02015 0.49131,-0.265538 0.80913,-0.545122 0.31783,-0.279586 0.62593,-0.508213 0.68471,-0.507263 0.0588,7.69e-4 0.28201,-0.17362 0.49592,-0.387646 0.2139,-0.21402 0.53567,-0.492381 0.71495,-0.618904 0.17928,-0.126515 0.59971,-0.441778 0.93417,-0.700496 0.33447,-0.258712 0.78767,-0.595548 1.00751,-0.748092 0.21983,-0.152546 0.40289,-0.318121 0.40647,-0.36826 0.003,-0.04155 -0.0219,-0.06173 -0.0691,-0.06277 z m 33.28435,5.510608 c 0.0146,-0.0022 0.0276,-2.14e-4 0.0379,0.0065 0.0588,0.03788 0.0491,0.125115 -0.0254,0.232477 -0.1094,0.157517 -0.32257,0.230354 -0.31376,0.107062 0.009,-0.126996 0.19901,-0.332059 0.30129,-0.345948 z m -38.57731,-1.340717 c -0.008,-0.0099 -0.0545,0.01886 -0.14645,0.07793 -0.10809,0.0694 -0.21176,0.114544 -0.23042,0.100621 -0.0871,-0.0651 -0.24035,-0.02884 -0.24659,0.05857 -0.004,0.05356 -0.16461,0.209785 -0.35732,0.347249 -0.19272,0.137454 -0.30818,0.252644 -0.25655,0.255993 0.0516,0.0034 2e-4,0.06048 -0.11472,0.126901 -0.20178,0.116603 -0.20117,0.119685 0.0256,0.08366 0.12915,-0.02049 0.23875,-0.09392 0.24372,-0.163473 0.005,-0.06952 0.1997,-0.218373 0.43227,-0.33053 0.23257,-0.112164 0.48498,-0.294205 0.56136,-0.404634 0.065,-0.09392 0.0968,-0.142351 0.0891,-0.152275 z m -1.88378,1.261687 c -0.0945,-0.0062 -0.40578,0.171745 -0.69173,0.395181 -0.28596,0.223434 -0.69496,0.499244 -0.90874,0.612743 -0.21379,0.113485 -0.39215,0.233493 -0.39612,0.26669 -0.0167,0.141058 0.48477,-0.03624 0.73806,-0.260785 0.15147,-0.134285 0.51322,-0.364203 0.80359,-0.510908 0.55769,-0.28173 0.74104,-0.484344 0.45494,-0.502921 z m 33.43462,3.572779 c 0.0465,0.0031 0.0926,0.01242 0.12701,0.02752 0.0688,0.03018 0.01,0.04705 -0.13168,0.03789 -0.14126,-0.0091 -0.19751,-0.03354 -0.12508,-0.05456 0.0362,-0.0105 0.0832,-0.01386 0.12975,-0.0108 z m -35.59696,-2.138521 c -0.16894,-0.01096 -0.29324,0.114034 -0.20426,0.205551 0.10131,0.104186 0.20678,0.08124 0.27994,-0.06135 0.0412,-0.08036 0.0107,-0.138595 -0.0757,-0.144203 z m 35.96979,2.437359 c 0.0548,-0.0099 0.12901,0.03756 0.21452,0.143835 0.0649,0.08063 0.18141,0.151068 0.25923,0.156122 0.0778,0.005 0.13884,0.05043 0.13522,0.101144 -0.004,0.05072 -0.0724,0.08816 -0.15251,0.08297 -0.0801,-0.0052 -0.21105,0.0082 -0.29116,0.02998 -0.19436,0.05304 -0.28325,-0.05178 -0.2646,-0.313047 0.009,-0.123369 0.0445,-0.191067 0.0993,-0.201006 z m 3.73211,0.35989 c 0.24503,2.01e-4 0.29345,0.09397 0.10381,0.258153 -0.15542,0.134563 -0.16633,0.188299 -0.0644,0.314899 0.0717,0.08912 0.0817,0.179898 0.0243,0.218413 -0.12668,0.08502 -1.1666,-0.142991 -1.15867,-0.254038 0.0131,-0.183767 0.41243,-0.440706 0.78611,-0.50562 0.12382,-0.02152 0.22723,-0.03188 0.30891,-0.03181 z M 141.3507,23.145443 c -0.0565,-0.0037 -0.10558,0.03506 -0.1092,0.08576 -0.004,0.05071 0.0395,0.09493 0.096,0.0986 0.0565,0.0037 0.10554,-0.03458 0.10916,-0.08528 0.004,-0.05071 -0.0395,-0.09542 -0.096,-0.09909 z M 178.69038,25.57 c 0.0249,0.0016 0.0424,0.04466 0.0388,0.09538 -0.004,0.05071 -0.0555,0.08875 -0.11535,0.08488 -0.0598,-0.004 -0.0773,-0.04643 -0.0388,-0.09489 0.0385,-0.04844 0.0905,-0.08697 0.11539,-0.08536 z m -37.95863,-2.098247 c -0.0428,0.0037 -0.0912,0.03563 -0.11753,0.09363 -0.0269,0.05943 0.008,0.09494 0.0767,0.07907 0.0692,-0.0159 0.12446,-0.05925 0.12289,-0.09623 -0.002,-0.05553 -0.0393,-0.08012 -0.0821,-0.07645 z m 37.83354,2.674943 c 0.0323,0.0089 0.0591,0.04436 0.0805,0.105991 0.0313,0.09039 0.008,0.202932 -0.0525,0.249974 -0.0729,0.05699 -0.12785,0.03066 -0.16581,-0.07892 -0.0313,-0.09038 -0.008,-0.202967 0.052,-0.25001 0.0182,-0.01425 0.0356,-0.02343 0.0517,-0.02726 0.012,-0.0028 0.0234,-0.0028 0.0342,2.11e-4 z m -38.19166,-2.3238 c -0.005,-0.005 -0.0486,0.02024 -0.13414,0.07229 -0.10381,0.06312 -0.18956,0.130493 -0.19093,0.149615 -0.006,0.0759 0.0825,0.03271 0.22762,-0.112164 0.0691,-0.06898 0.10241,-0.104641 0.0974,-0.109745 z m -0.67866,0.277483 c -0.0889,-0.0069 -0.19432,0.02116 -0.27219,0.0762 -0.10065,0.07108 -0.24968,0.125054 -0.33124,0.119758 -0.0816,-0.0052 -0.24571,0.129747 -0.36486,0.300329 -0.11914,0.170583 -0.25908,0.307199 -0.31071,0.303846 -0.0516,-0.0034 -0.16265,0.04186 -0.24645,0.100077 -0.0838,0.05823 -0.28011,0.180726 -0.43641,0.272468 -0.15631,0.09175 -0.36572,0.241713 -0.4651,0.333336 -0.0994,0.0916 -0.29168,0.258384 -0.42735,0.370363 -0.14138,0.116666 -0.25466,0.319389 -0.26601,0.475674 l -4e-5,5.04e-4 c -0.0217,0.307173 0.17006,0.382193 0.27213,0.106082 0.0368,-0.09951 0.10473,-0.178423 0.15082,-0.17543 0.0461,0.0031 0.12102,-0.08022 0.16651,-0.184786 0.10963,-0.252076 0.508,-0.60518 0.67074,-0.594611 0.0713,0.0046 0.19519,-0.0653 0.27575,-0.154976 0.0806,-0.08965 0.31762,-0.252014 0.52664,-0.360947 0.20902,-0.108948 0.58961,-0.355356 0.84557,-0.547697 0.38907,-0.292376 0.43739,-0.361435 0.29426,-0.421486 -0.0243,-0.01015 -0.0524,-0.01639 -0.0821,-0.01866 z m 21.26805,1.67488 c -0.30156,-0.0148 -0.72497,0.0293 -1.01826,0.144298 -0.0948,0.03712 -0.47471,0.07017 -0.84383,0.07363 -1.18683,0.01117 -2.07234,0.122901 -2.08233,0.262901 l -4e-5,5.04e-4 c -0.0115,0.16074 -0.01,0.160574 0.87444,0.03456 0.40132,-0.05723 0.89132,-0.08911 1.08862,-0.07058 0.1973,0.01846 0.42988,0.01254 0.51684,-0.01335 0.087,-0.0259 0.34388,-0.04475 0.57068,-0.04198 0.51443,0.0064 0.99464,-0.0677 1.17994,-0.181714 0.19474,-0.119803 0.0154,-0.193479 -0.28606,-0.208244 z m 8.42771,1.291591 c -0.0329,-0.0048 -0.0678,-0.0067 -0.10631,-0.0053 -0.0513,0.0018 -0.10901,0.0084 -0.176,0.0202 -0.61179,0.106525 -2.24788,0.06508 -5.79277,-0.146459 -2.14455,-0.127998 -3.84726,-0.186068 -4.41053,-0.151049 -0.50462,0.03109 -1.09483,0.02403 -1.31134,-0.01649 -0.34821,-0.0651 -0.63553,-0.05227 -1.51943,0.06879 -0.15921,0.02181 -0.2313,-0.01044 -0.22486,-0.100548 0.005,-0.07301 0.14693,-0.150803 0.31481,-0.172687 0.1679,-0.02189 0.37002,-0.100652 0.44916,-0.175324 0.12872,-0.121537 0.0849,-0.13353 -0.41624,-0.111493 -0.30813,0.01359 -0.61258,0.0566 -0.67602,0.09539 -0.0634,0.03875 -0.2876,0.08669 -0.49866,0.106912 -0.24496,0.02343 -0.41049,0.09852 -0.45763,0.206879 -0.0651,0.149821 -0.38487,0.228301 -1.0518,0.25869 -0.0569,0.0028 -0.23717,0.04571 -0.40051,0.096 -0.16334,0.0503 -0.39835,0.0904 -0.52218,0.08809 -0.1743,-0.0029 -0.1569,0.01664 0.0777,0.08655 0.44805,0.133594 0.43865,0.134042 0.80583,-0.01287 0.18696,-0.07478 0.52509,-0.130675 0.75165,-0.124566 0.22654,0.0065 1.22614,-0.0117 2.22128,-0.04 1.25979,-0.03586 2.76121,0.0053 4.94312,0.134756 5.31005,0.315175 8.23948,0.42663 8.37441,0.319029 0.0908,-0.07241 0.0655,-0.145615 -0.0974,-0.282925 -0.0978,-0.08242 -0.17763,-0.126642 -0.27634,-0.141428 z m 16.05537,1.535956 c -0.15625,-0.01015 -0.20423,0.743981 -0.0679,1.066938 0.0589,0.139051 0.12678,0.209796 0.15095,0.1565 0.0241,-0.05324 0.005,-0.168558 -0.0412,-0.25656 -0.0467,-0.08803 -0.0488,-0.339651 -0.005,-0.559466 0.0521,-0.262695 0.0396,-0.402455 -0.0367,-0.407411 z m -34.6336,-1.477811 c -0.42611,-0.02155 -1.20269,0.06904 -1.50588,0.205495 -0.24544,0.110518 -0.20148,0.119312 0.55546,0.113124 0.97891,-0.008 1.38805,-0.09381 1.22887,-0.257566 -0.0336,-0.0346 -0.13641,-0.05387 -0.27845,-0.06105 z m 34.64567,2.977194 c -0.007,0.0097 -0.001,0.03994 0.0163,0.09095 0.0295,0.08591 0.002,0.180371 -0.0606,0.209943 -0.16342,0.07703 -0.17267,0.517298 -0.0195,0.917948 0.0724,0.189292 0.15962,0.345746 0.19374,0.347963 0.0984,0.0065 0.0294,-1.423429 -0.0739,-1.533032 -0.0304,-0.03222 -0.0495,-0.04348 -0.0561,-0.03377 z m -19.56619,-1.186511 c -0.65102,-0.04505 -1.69215,-0.03772 -1.99764,0.03429 -0.17316,0.04081 -1.00846,0.09703 -1.85648,0.124941 -1.42702,0.04694 -2.23793,0.148213 -2.68365,0.334991 -0.18624,0.07803 -1.15148,0.181729 -1.95685,0.210293 -0.25603,0.009 -0.57555,0.05663 -0.71041,0.105509 -0.19487,0.0705 -0.26324,0.05981 -0.33195,-0.05168 -0.0667,-0.108131 -0.10675,-0.115499 -0.17643,-0.0317 -0.088,0.105773 -0.27426,0.109463 -3.05975,0.06015 -0.61842,-0.011 -1.20925,0.01388 -1.31285,0.05552 -0.10361,0.04173 -0.38781,0.06226 -0.6316,0.04642 -0.24377,-0.01608 -0.80233,-0.0036 -1.24145,0.02757 -1.0133,0.07196 -1.1397,-0.0093 -1.0614,-0.680409 0.03,-0.255906 0.0521,-0.514505 0.0494,-0.574697 -0.005,-0.108849 -0.59756,-0.470713 -0.67351,-0.411222 -0.0219,0.01716 -0.0727,0.203287 -0.1124,0.413533 -0.0562,0.297777 -0.0286,0.426941 0.12404,0.583984 0.21938,0.225673 0.14729,0.513963 -0.10225,0.409254 -0.0867,-0.03641 -0.2693,-0.07331 -0.40591,-0.08218 -0.15229,-0.0098 -0.24465,-0.07001 -0.2386,-0.154783 0.006,-0.07598 -0.0246,-0.139867 -0.0671,-0.141668 -0.26341,-0.01223 -0.57789,0.441663 -0.61274,0.884859 -0.014,0.177421 -0.16813,2.1478 -0.34267,4.378218 -0.17463,2.230391 -0.32884,4.096113 -0.34265,4.146067 -0.0138,0.05004 -0.0842,0.608308 -0.15644,1.240485 -0.0722,0.632164 -0.22564,1.912151 -0.34089,2.844661 -0.1537,1.243485 -0.18617,1.834041 -0.12192,2.215282 0.1431,0.849252 0.39522,1.327183 0.71075,1.347671 0.12086,0.0079 0.16333,0.09585 0.15027,0.311056 -0.01,0.164947 0.0447,0.385567 0.1214,0.490458 0.1371,0.187547 0.14426,0.187109 0.41456,-0.02444 0.3031,-0.237205 0.53416,-0.883048 0.32096,-0.896892 -0.0692,-0.0045 -0.15581,0.0732 -0.19259,0.172723 -0.0894,0.241611 -0.23715,0.219666 -0.27676,-0.04118 -0.0176,-0.115782 0.003,-1.062519 0.0446,-2.10423 0.0421,-1.041718 0.0617,-2.04089 0.0435,-2.220375 -0.0181,-0.179501 0.0133,-1.157417 0.0692,-2.17277 0.0559,-1.015337 0.0728,-1.93136 0.0376,-2.035537 -0.0449,-0.133003 -0.0376,-0.150555 0.0255,-0.05911 0.0602,0.08724 0.1482,-0.330512 0.26522,-1.262563 0.16433,-1.308538 0.16104,-1.731328 -0.01,-1.336232 -0.0405,0.09383 -0.12143,0.239482 -0.18009,0.324182 -0.0587,0.08466 -0.11154,0.220125 -0.11732,0.301092 -0.006,0.081 -0.0671,0.126708 -0.13617,0.100816 -0.0966,-0.03603 -0.0814,-0.665678 0.0659,-2.729156 l 0.19147,-2.681488 0.26601,-0.221791 c 0.26066,-0.217425 0.56559,-0.259536 0.88987,-0.123494 0.20103,0.0844 0.11666,0.514477 -0.34669,1.772446 -0.34319,0.9318 -0.56991,2.230845 -0.40762,2.335531 0.0593,0.03827 0.10859,-0.06991 0.12285,-0.269615 0.0131,-0.183382 0.0787,-0.504892 0.14578,-0.714149 0.0671,-0.209265 0.19265,-0.625709 0.27847,-0.925829 0.0858,-0.300118 0.24339,-0.811301 0.35042,-1.135523 0.10702,-0.324204 0.22458,-0.682771 0.26099,-0.797056 0.0581,-0.182442 0.10799,-0.197801 0.41247,-0.125842 0.19075,0.04504 0.71244,0.04062 1.15886,-0.0097 2.35431,-0.265769 5.53546,-0.195568 5.6979,0.125975 0.1123,0.222303 -0.005,3.041584 -0.37632,9.006175 -0.53432,8.592069 -0.58696,10.097343 -0.38717,11.145692 0.081,0.425066 -0.19165,0.53414 -1.20795,0.479707 -0.49065,-0.02604 -1.03143,-0.0434 -1.20196,-0.03949 -0.17056,0.0047 -0.63056,0.01228 -1.02164,0.01764 -0.39107,0.0057 -0.90395,0.037 -1.1399,0.07075 -0.23596,0.03376 -0.74177,0.05549 -1.12433,0.04854 -0.66514,-0.01222 -0.69507,-0.02222 -0.68077,-0.222506 0.008,-0.115136 0.0641,-0.232529 0.12376,-0.26067 0.0596,-0.02809 0.0842,-0.09135 0.0551,-0.14065 -0.10058,-0.170294 -0.363,-0.108888 -0.64107,0.150019 -0.15345,0.142833 -0.37082,0.254009 -0.48326,0.246704 -0.17041,-0.01107 -0.19739,0.03023 -0.16018,0.248425 0.0324,0.190102 -0.0508,0.399516 -0.30432,0.765589 -0.192,0.277235 -0.35621,0.60733 -0.36522,0.733492 -0.0126,0.176809 -0.0553,0.212999 -0.18435,0.15893 -0.12373,-0.05198 -0.1539,-0.03127 -0.11592,0.07838 0.0501,0.14455 -0.33733,0.513522 -0.5263,0.501258 -0.14406,-0.0095 -0.5929,0.353007 -0.60242,0.486428 -0.005,0.06733 -0.044,0.119642 -0.0871,0.116837 -0.0799,-0.0057 -0.19995,0.151321 -0.54352,0.706103 -0.10616,0.171423 -0.27031,0.3793 -0.36451,0.46237 -0.094,0.08305 -0.13918,0.152971 -0.10019,0.155507 0.039,0.0029 0.0153,0.08477 -0.0524,0.182312 -0.0677,0.09753 -0.19078,0.172842 -0.27353,0.167463 -0.0827,-0.0057 -0.15443,0.04473 -0.15921,0.111668 -0.005,0.06695 -0.15241,0.247892 -0.32809,0.401997 -0.28811,0.252852 -0.52319,0.624942 -0.4,0.632933 0.15674,0.01026 0.46106,-0.182379 0.46925,-0.297003 0.005,-0.07419 0.0791,-0.130704 0.16381,-0.125201 0.16315,0.01059 0.18509,0.434496 0.0318,0.613555 -0.10734,0.125076 -0.64455,0.17927 -0.70847,0.07104 -0.0989,-0.167483 -0.2425,-0.08803 -0.45838,0.253755 l -0.22076,0.349701 0.22342,-0.06056 c 0.15008,-0.04044 0.26506,-0.01411 0.35064,0.0801 0.14826,0.163954 1.07032,0.222106 1.40404,0.08916 0.11683,-0.04643 0.23785,-0.07762 0.26895,-0.06704 0.0312,0.0096 0.24182,-0.01015 0.46777,-0.04426 0.22593,-0.03404 0.95364,-0.06638 1.61753,-0.07181 1.17614,-0.0096 2.10028,-0.09885 2.31781,-0.223899 0.0592,-0.03386 0.37311,-0.03872 0.6973,-0.0095 0.32423,0.02918 0.59175,0.0184 0.59479,-0.02412 0.003,-0.04244 0.0983,-0.04454 0.21161,-0.0039 0.11334,0.04054 0.26979,0.03299 0.34722,-0.01697 0.21086,-0.136054 2.06464,-0.03653 2.93646,0.157575 0.42079,0.09366 1.10856,0.239585 1.52812,0.324457 0.41957,0.08488 0.83203,0.215803 0.91676,0.290691 0.0995,0.08734 0.27055,0.122996 0.48292,0.09903 0.22113,-0.02499 0.32643,-0.0019 0.32119,0.07171 -0.004,0.06018 0.0407,0.0863 0.0999,0.05837 0.14522,-0.06848 0.50997,0.06837 0.50142,0.188148 -0.004,0.05198 -0.077,0.06619 -0.16322,0.02994 -0.11874,-0.04977 -0.14524,-0.02194 -0.10762,0.11452 0.0273,0.09907 -8e-5,0.203807 -0.0612,0.232625 -0.0611,0.02879 -0.11546,0.115321 -0.12095,0.19219 -0.0144,0.201566 -0.91526,1.077175 -1.16327,1.130654 -0.11534,0.02489 -0.26901,0.108263 -0.3411,0.185305 -0.11204,0.119632 -0.42659,0.121902 -2.16848,0.01879 -3.49675,-0.207602 -6.24782,-0.14085 -7.68271,0.185734 -0.64661,0.147162 -1.29063,0.175141 -2.96161,0.129244 -1.0162,-0.02786 -1.6932,0.03616 -1.70209,0.160655 -0.002,0.02326 0.031,0.143015 0.0732,0.266039 l 0.0767,0.223803 1.6818,0.08 c 2.14527,0.101729 3.65646,0.08668 4.57943,-0.04547 0.40135,-0.05741 0.91564,-0.08354 1.14307,-0.05712 0.22747,0.02585 0.47629,0.01735 0.55243,-0.01851 0.14131,-0.06657 0.3992,0.11227 0.28773,0.199457 -0.0336,0.02633 -0.24175,0.05932 -0.46262,0.07372 -0.5497,0.03557 -0.97953,0.175033 -0.98995,0.320995 -0.007,0.0924 0.10933,0.113737 0.48358,0.08974 0.27081,-0.01735 0.54058,-0.0596 0.59978,-0.09393 0.0592,-0.03413 0.3282,-0.07629 0.59767,-0.09355 0.26947,-0.01727 0.51432,-0.06236 0.54427,-0.09999 0.0601,-0.07572 1.08278,0.02402 1.17021,0.114013 0.0302,0.03099 -0.006,0.133316 -0.082,0.227323 -0.0753,0.09375 -0.13819,0.18417 -0.13976,0.201832 -0.001,0.01831 0.19542,0.02965 0.4369,0.02554 1.05698,-0.01669 1.57599,-0.06848 1.5509,-0.154163 -0.0148,-0.05064 0.0236,-0.103695 0.0856,-0.117924 0.062,-0.01421 0.10754,0.04625 0.10124,0.134499 -0.009,0.125544 0.0463,0.108397 0.25278,-0.0799 0.27912,-0.254576 0.49111,-0.218786 0.46981,0.07944 -0.021,0.293799 0.42091,0.24692 0.8669,-0.09193 0.34483,-0.261882 0.42558,-0.286291 0.6087,-0.182739 0.11611,0.06626 0.18603,0.07706 0.15517,0.02489 -0.0308,-0.05236 0.014,-0.140431 0.1,-0.196025 0.12272,-0.07925 0.13325,-0.139009 0.0495,-0.279323 -0.13287,-0.222469 0.061,-0.543246 0.59146,-0.978608 0.20133,-0.165236 0.49536,-0.468988 0.65319,-0.675274 0.15784,-0.206259 0.35178,-0.370824 0.43116,-0.365663 0.0847,0.0057 0.15103,-0.084 0.16051,-0.216787 0.0162,-0.226901 0.24335,-0.689291 0.37696,-0.767306 0.10908,-0.06371 0.78925,-1.115508 0.79767,-1.233424 0.004,-0.05721 0.0583,-0.100436 0.12084,-0.09637 0.0625,0.0039 0.0924,-0.05558 0.0659,-0.132045 -0.0265,-0.07648 -0.002,-0.160713 0.0538,-0.187167 0.0562,-0.02642 0.10737,-0.125428 0.11411,-0.219808 0.007,-0.09431 0.0998,-0.304393 0.20635,-0.467193 0.38246,-0.584024 0.47468,-0.746491 0.62771,-1.101722 0.0854,-0.198247 0.21563,-0.418875 0.28934,-0.490453 0.0737,-0.07161 0.20685,-0.271551 0.29535,-0.444136 0.0885,-0.172557 0.41259,-0.708172 0.72051,-1.190026 0.30792,-0.481851 0.53668,-0.91505 0.5085,-0.962758 -0.0282,-0.04768 -0.009,-0.08364 0.0415,-0.08029 0.0509,0.0029 0.19175,-0.139371 0.31269,-0.31706 0.16437,-0.241491 0.18823,-0.335633 0.0944,-0.372211 -0.069,-0.02699 -0.12237,-0.0924 -0.11861,-0.145016 0.004,-0.05731 0.0663,-0.04482 0.15474,0.0308 0.21283,0.182092 0.30933,0.05712 0.16952,-0.219663 -0.10735,-0.212511 -0.0747,-0.311177 0.32289,-0.974804 0.24326,-0.406057 0.47734,-0.756504 0.52025,-0.779235 0.0429,-0.0227 0.1401,-0.131946 0.21568,-0.242348 0.11334,-0.165614 0.11042,-0.212373 -0.0173,-0.265872 -0.1868,-0.07842 -0.55241,0.242371 -0.66585,0.584063 -0.0438,0.131984 -0.17213,0.304894 -0.28488,0.384552 -0.11276,0.07968 -0.24582,0.271993 -0.29571,0.427317 -0.10442,0.325167 -0.25223,0.54718 -0.5813,0.872582 -0.12822,0.126792 -0.30872,0.490089 -0.4016,0.80768 -0.0929,0.317583 -0.23883,0.698095 -0.324,0.845323 -0.0852,0.147313 -0.28348,0.488699 -0.44057,0.758724 -0.15709,0.270006 -0.36118,0.673909 -0.45357,0.897169 -0.0924,0.22327 -0.23338,0.467453 -0.31379,0.542712 -0.0804,0.07525 -0.15304,0.228258 -0.16107,0.340727 -0.008,0.112431 -0.14772,0.308465 -0.31029,0.435754 -0.16257,0.127268 -0.28199,0.244373 -0.26566,0.260346 0.0466,0.04557 -0.22188,0.560554 -0.55874,1.071614 -0.30652,0.464991 -0.53352,0.57604 -0.62686,0.30653 -0.0708,-0.204435 -0.29979,-0.190656 -0.37871,0.02279 -0.0445,0.120384 -0.004,0.218713 0.12177,0.289451 0.32529,0.18362 0.19815,0.274556 -0.32928,0.237441 -0.27896,-0.02013 -0.55417,-0.0141 -0.61107,0.01267 -0.16521,0.07782 -0.42275,-0.07123 -0.41087,-0.237592 0.006,-0.08382 0.1068,-0.198106 0.2243,-0.254138 0.29813,-0.142107 0.27696,-0.25472 -0.0935,-0.497034 -0.28304,-0.185191 -0.42276,-0.209194 -1.19786,-0.205714 -0.48254,0.0019 -0.94885,0.03262 -1.0366,0.06752 -0.22983,0.09145 -2.54634,0.184506 -3.93222,0.157604 -1.47097,-0.02842 -2.08196,0.01785 -2.80079,0.212788 -0.0868,0.02347 -0.26732,0.02537 -0.40126,0.0047 -0.13391,-0.02088 -0.28283,0.01126 -0.33093,0.0719 -0.0481,0.06056 -0.21947,0.110514 -0.3809,0.111591 -0.1614,8.68e-4 -0.74924,0.04844 -1.30605,0.105354 -1.27277,0.13038 -1.34065,0.08239 -0.9061,-0.635744 0.17404,-0.287611 0.41424,-0.693564 0.5337,-0.902338 0.11947,-0.208776 0.26542,-0.37644 0.32392,-0.372634 0.0585,0.0039 0.11092,-0.05913 0.1167,-0.140104 0.006,-0.08097 0.0908,-0.252575 0.18936,-0.381381 0.17643,-0.231355 0.19679,-0.233426 1.33474,-0.166225 0.63559,0.03747 1.24746,0.03786 1.35958,8.6e-4 0.18912,-0.06228 0.80615,-0.08058 1.5437,-0.04596 0.16969,0.0076 0.96786,0.0039 1.77372,-0.01031 0.80584,-0.01345 1.64086,-9.54e-4 1.85554,0.02613 0.21461,0.02803 1.33554,0.141343 2.49104,0.251639 1.15549,0.110333 2.12143,0.235333 2.1468,0.277702 0.0668,0.11206 0.51695,0.173034 0.79822,0.108132 0.17062,-0.03929 0.23684,-0.115608 0.22454,-0.257573 -0.0158,-0.18295 -0.0972,-0.21193 -0.88584,-0.317334 -0.4778,-0.06408 -1.66271,-0.161083 -2.63282,-0.217376 -1.40075,-0.08049 -1.74038,-0.123807 -1.64922,-0.209834 0.0838,-0.07905 0.0701,-0.111029 -0.0516,-0.118924 -0.0916,-0.0057 -0.16972,0.02661 -0.17298,0.07228 -0.003,0.04587 -0.47837,0.0432 -1.05622,-0.0057 -0.96078,-0.08115 -1.28026,-0.07496 -2.0415,0.03939 -0.27636,0.04148 -2.11736,0.07647 -3.40969,0.06457 -0.42534,-0.0039 -0.833,-0.04691 -0.90632,-0.09589 -0.13693,-0.09136 -0.0726,-0.170135 0.63316,-0.771914 0.13597,-0.115929 0.25137,-0.270548 0.2566,-0.3439 0.005,-0.07352 0.0868,-0.128719 0.18124,-0.122587 0.1839,0.01193 0.56569,-0.218643 0.57488,-0.347451 0.0109,-0.152291 -0.33326,-0.09695 -0.53603,0.08622 -0.15499,0.14 -0.20345,0.150794 -0.19586,0.04455 0.006,-0.07762 0.0832,-0.187977 0.17241,-0.245652 0.0892,-0.0576 0.16659,-0.164203 0.17178,-0.236791 0.005,-0.07257 0.14507,-0.242075 0.31072,-0.376458 0.26186,-0.212457 0.42251,-0.249906 1.23252,-0.286962 0.51241,-0.02336 1.18913,-0.06818 1.50349,-0.09945 0.90629,-0.09012 1.51119,-0.09144 2.95964,-0.0076 1.31482,0.07638 1.36242,0.08622 1.6535,0.338523 0.29236,0.253605 0.3079,0.256723 0.61739,0.123562 0.17452,-0.07505 0.32311,-0.213354 0.33015,-0.307522 0.009,-0.119174 0.0618,-0.150833 0.17368,-0.103811 0.0884,0.03709 0.33254,0.03318 0.54241,-0.0085 0.25364,-0.05064 0.68959,-0.03014 1.30037,0.06122 0.50541,0.07467 1.12885,0.119975 1.38566,0.09986 0.25682,-0.02012 0.69975,-0.04921 0.98463,-0.06505 0.65949,-0.03662 0.87795,-0.15354 0.6333,-0.338714 -0.23216,-0.175787 -0.40581,-0.179086 -1.13591,-0.02135 -0.52912,0.114302 -0.76789,0.112518 -1.68919,-0.01287 -0.59014,-0.08029 -1.35751,-0.147714 -1.70531,-0.149746 -0.39449,-0.0019 -0.6891,-0.04911 -0.78359,-0.124474 -0.23644,-0.188457 -0.36133,-2.503842 -0.27693,-5.131203 0.0261,-0.813486 0.04,-1.583453 0.031,-1.711444 -0.0301,-0.431212 0.16066,-4.651049 0.30709,-6.788949 0.0799,-1.166631 0.17556,-3.056999 0.21243,-4.200952 0.0369,-1.143949 0.11149,-2.285248 0.1661,-2.536439 l 0.0994,-0.456853 0.41241,0.0055 c 1.0601,0.0135 2.01525,-0.119733 3.28285,-0.457103 0.36877,-0.09816 1.04649,-0.158031 1.86919,-0.165115 0.70982,-0.0062 1.6681,-0.0475 2.12969,-0.09189 1.02838,-0.09893 1.50737,-0.07297 1.70533,0.09145 0.14931,0.124119 0.21165,1.940329 0.14765,4.293975 -0.0125,0.457729 -0.0135,1.041458 -0.002,1.296913 0.0111,0.255462 0.0117,0.94308 0.001,1.528312 -0.0105,0.585242 -0.005,1.151858 0.0127,1.258875 0.0363,0.221845 -0.24631,1.853666 -0.45109,2.603381 -0.0752,0.275325 -0.19764,1.017836 -0.27164,1.649884 -0.074,0.63206 -0.17436,1.292178 -0.22287,1.467337 -0.0484,0.175179 -0.0879,0.589739 -0.088,0.920905 -1e-4,0.331144 -0.039,1.141457 -0.0861,1.80073 -0.0726,1.017217 -0.1314,1.30595 -0.39051,1.907411 -0.16793,0.389822 -0.36598,0.725188 -0.44014,0.745413 -0.0742,0.02026 -0.14033,0.108223 -0.14656,0.195469 -0.006,0.08731 -0.15714,0.33355 -0.33535,0.547238 -0.35509,0.426015 -0.55477,0.883188 -0.39013,0.893879 0.0567,0.0037 0.25726,-0.227038 0.44529,-0.512932 0.18803,-0.285892 0.46897,-0.638353 0.62465,-0.783323 0.15567,-0.144954 0.28774,-0.330207 0.29356,-0.41165 0.006,-0.0815 0.0572,-0.144962 0.11368,-0.141292 0.0565,0.0037 0.10707,-0.05596 0.11249,-0.131986 0.0126,-0.175869 0.22406,-0.163558 0.46835,0.02745 0.32475,0.253992 0.54619,0.214055 0.56882,-0.102852 0.0153,-0.213514 -0.0225,-0.277071 -0.15718,-0.265075 -0.33509,0.02977 -0.39547,-0.818644 -0.23771,-3.322823 0.0928,-1.473147 0.18272,-2.313967 0.24955,-2.327023 0.16125,-0.03142 0.21441,0.571379 0.17023,1.931965 -0.0294,0.906409 -0.003,1.280462 0.097,1.383392 0.26516,0.272745 0.39945,0.0585 0.37406,-0.596096 -0.0131,-0.337788 -0.0274,-0.885188 -0.0317,-1.216646 -0.004,-0.331437 -0.0253,-0.999929 -0.0462,-1.485299 -0.0382,-0.885311 -0.036,-1.400994 0.0172,-3.889116 0.0293,-1.369859 0.0303,-1.598561 0.008,-2.732413 -0.0128,-0.655394 0.0824,-4.190353 0.12203,-4.530846 0.0118,-0.101133 0.0897,-0.667383 0.17375,-1.25813 l 0.15284,-1.074264 -0.27343,-0.08049 c -0.0886,-0.02615 -0.26233,-0.04723 -0.47933,-0.06224 z m 9.74897,2.750522 c -0.0358,-0.0086 -0.0811,0.01375 -0.13614,0.05685 -0.0531,0.04156 -0.18018,0.958483 -0.28222,2.037434 -0.10205,1.078919 -0.21002,1.980735 -0.23997,2.004117 -0.0299,0.02343 -0.022,0.177188 0.0181,0.341498 0.0614,0.251993 0.0566,0.986816 -0.023,3.302932 -0.006,0.177913 -0.0372,0.676377 -0.0692,1.107351 -0.0319,0.430995 -0.086,1.17794 -0.12061,1.659692 -0.0347,0.481769 -0.13328,1.809103 -0.21895,2.949887 -0.13959,1.859521 -0.18804,4.062366 -0.0979,4.440043 0.0185,0.07762 0.0633,0.21623 0.0998,0.307776 0.0366,0.09152 0.0345,0.228944 -0.005,0.305436 -0.0883,0.172034 0.15874,0.584096 0.38785,0.647055 0.0931,0.02547 0.20601,0.03251 0.25064,0.01525 0.0799,-0.03061 0.17971,-2.110384 0.12746,-2.655517 -0.0147,-0.153806 -0.009,-1.279111 0.0123,-2.50049 0.0215,-1.221382 0.0154,-2.534553 -0.0133,-2.918538 -0.0896,-1.197352 0.058,-5.667709 0.27688,-8.382368 0.16595,-2.058369 0.18821,-2.680807 0.033,-2.718452 z m 10.31984,1.240588 c 0.0895,0.01722 0.18711,0.128768 0.17925,0.238848 -0.005,0.0731 -0.0574,0.129631 -0.11568,0.125849 -0.12296,-0.008 -0.23607,-0.276504 -0.14616,-0.346847 0.0239,-0.01874 0.0527,-0.0236 0.0826,-0.01787 z m -9.70586,1.80339 c 0.0115,-0.0089 0.0246,0.0051 0.0384,0.04301 0.0248,0.06848 0.0155,0.147549 -0.0209,0.175967 -0.0363,0.02846 -0.0564,-0.02759 -0.045,-0.124429 0.006,-0.0536 0.0159,-0.08554 0.0275,-0.09454 z M 137.85096,32.31283 c -0.0247,6.89e-4 -0.0594,0.03257 -0.11088,0.08765 -0.0828,0.08843 -0.13069,0.194657 -0.10643,0.23561 0.0243,0.04106 0.003,0.699991 -0.0481,1.464359 -0.0508,0.764372 -0.0559,1.413351 -0.0113,1.442054 0.0446,0.02878 0.065,0.290994 0.0454,0.582827 -0.0197,0.291806 -0.0231,1.052382 -0.008,1.690232 0.0153,0.637842 0.01,1.346525 -0.0114,1.574418 -0.0214,0.227872 -2.3e-4,0.522909 0.0469,0.656026 0.0471,0.13311 0.0447,0.299661 -0.005,0.370113 -0.0499,0.0705 -0.0786,0.441605 -0.0641,0.824665 0.0145,0.383041 0.009,0.712835 -0.0124,0.732685 -0.16974,0.159754 -0.25629,-0.873222 -0.19637,-2.342147 0.0335,-0.820217 0.0106,-1.098407 -0.095,-1.143207 -0.0768,-0.03195 -0.16259,-0.04098 -0.19027,-0.01925 -0.0599,0.0468 -0.0977,0.653297 -0.0814,1.29969 0.0473,1.872842 0.0846,2.69893 0.12848,2.857854 0.0279,0.101236 0.0581,0.628223 0.0671,1.171031 0.0558,3.338457 0.0618,4.60006 0.0223,4.649867 -0.0247,0.031 -0.0763,0.378575 -0.11473,0.772475 -0.0675,0.693269 -0.0602,0.725362 0.23315,1.007453 0.25675,0.24691 0.35998,0.592265 0.25574,0.857778 -0.005,0.0124 0.0318,0.141612 0.0816,0.286839 0.0735,0.214409 0.0598,0.272112 -0.0733,0.308397 -0.0901,0.02461 -0.21294,-0.0057 -0.27284,-0.06713 -0.0599,-0.06151 -0.21691,-0.118801 -0.34881,-0.127364 -0.20709,-0.01345 -0.22654,0.01005 -0.14395,0.173406 0.12507,0.247596 0.45913,0.43109 0.80938,0.445233 0.15433,0.0057 0.33132,0.07409 0.39323,0.150995 l 3e-5,-5.05e-4 c 0.15119,0.187612 0.39328,0.19387 0.4064,0.01015 0.007,-0.0998 0.0644,-0.12558 0.17553,-0.07895 0.28795,0.120529 1.62582,0.279305 2.01799,0.239206 0.66579,-0.06809 0.41556,-0.186641 -0.63222,-0.300371 -0.60248,-0.06542 -1.0805,-0.162867 -1.16811,-0.237859 -0.0816,-0.06952 -0.2167,-0.107958 -0.30003,-0.08516 -0.0833,0.02279 -0.19035,-0.01116 -0.23811,-0.07476 -0.11515,-0.153754 -0.32997,-1.659642 -0.25097,-1.758896 0.034,-0.04268 0.0294,-0.132009 -0.0101,-0.198237 -0.0858,-0.143569 -0.089,-0.167088 -0.14274,-1.23622 -0.0988,-1.967834 -0.0873,-2.187749 0.11982,-2.367061 0.18313,-0.158532 0.18488,-0.18301 0.0375,-0.44507 -0.11087,-0.197072 -0.15001,-0.566808 -0.13505,-1.278674 0.0377,-1.795434 0.0262,-4.043995 -0.0242,-4.709759 -0.0271,-0.3584 -0.0302,-1.317604 -0.007,-2.131279 0.0233,-0.813657 0.0294,-1.542321 0.0131,-1.619751 -0.0163,-0.07747 -0.009,-0.786051 0.0161,-1.574115 0.0252,-0.788056 0.0295,-1.597984 0.009,-1.800278 -0.0208,-0.20988 -0.0351,-0.295966 -0.0763,-0.294893 z m 37.67972,5.315411 c -0.0115,0.0089 -0.0212,0.04051 -0.0274,0.09406 -0.0114,0.09687 0.009,0.152849 0.045,0.124428 0.0364,-0.02839 0.0457,-0.107443 0.0209,-0.175966 -0.0138,-0.03785 -0.0269,-0.05151 -0.0384,-0.04249 z m 9.15823,3.682746 c -0.0136,-0.0041 -0.0349,0.02337 -0.0647,0.07878 -0.056,0.104274 -0.14723,0.37978 -0.20324,0.612127 -0.0632,0.26228 -0.0631,0.425125 4.1e-4,0.429254 0.13926,0.009 0.25096,-0.315678 0.28044,-0.815551 0.012,-0.202276 0.01,-0.297645 -0.013,-0.304609 z m -38.22553,-1.972829 c 0.006,0.0042 0.0118,0.01431 0.0175,0.02978 0.0695,0.188166 0.0531,1.358605 -0.0676,4.740841 -0.0531,1.488446 -0.079,1.685118 -0.22016,1.675951 -0.091,-0.0059 -0.17922,-0.121037 -0.20413,-0.267633 -0.0241,-0.141668 -0.0621,-0.321326 -0.0849,-0.399178 -0.0362,-0.12355 0.1521,-2.605693 0.28698,-3.779729 0.0262,-0.227572 0.0863,-0.806954 0.1334,-1.287915 0.0483,-0.493381 0.0968,-0.74103 0.1389,-0.712123 z m 37.60882,4.646959 c -0.043,0.01365 -0.16321,0.285185 -0.3005,0.71941 -0.16347,0.517051 -0.19244,0.578061 -0.59919,1.275457 -0.26392,0.452485 -0.84758,1.021802 -1.12741,1.099891 -0.23074,0.06436 -1.62599,1.031915 -2.32255,1.610564 -0.30538,0.253674 -0.74833,0.56595 -0.98445,0.693771 -0.23613,0.127868 -0.67401,0.406779 -0.97294,0.619444 -0.29893,0.212662 -0.5702,0.385322 -0.60288,0.384155 -0.0327,-0.0013 -0.36092,0.217558 -0.72933,0.486583 -1.07442,0.784595 -1.24231,0.884629 -1.74211,1.040221 -0.26056,0.08115 -0.50578,0.188415 -0.54533,0.238232 -0.0457,0.05751 -0.22084,0.01031 -0.4792,-0.129415 -0.31502,-0.170249 -0.59744,-0.232405 -1.25093,-0.274841 -0.46427,-0.03014 -0.9887,-0.02681 -1.16542,0.0076 -0.69245,0.133791 -2.10692,0.351101 -2.3027,0.353305 -0.1136,0.0019 -0.23124,0.02365 -0.26146,0.0492 -0.15932,0.135072 -1.99369,0.25306 -2.48467,0.159721 -0.47893,-0.09107 -0.52886,-0.0845 -0.5073,0.06827 0.0131,0.09316 0.1373,0.207545 0.27555,0.253996 l 1.1e-4,-0.0019 c 0.34725,0.116453 1.16207,0.112658 1.90881,-0.0085 0.3445,-0.05607 0.83784,-0.135033 1.09612,-0.175799 0.25829,-0.04072 0.72928,-0.134833 1.04671,-0.209128 0.6679,-0.156289 1.94949,-0.248809 2.73859,-0.197572 0.39131,0.02537 0.61779,0.09278 0.79525,0.236861 0.28304,0.229763 0.46746,0.268633 0.48175,0.100928 0.007,-0.0801 0.0344,-0.0739 0.0927,0.02231 0.16285,0.268794 0.63885,0.223327 1.06181,-0.101462 1.02274,-0.785387 1.61809,-1.199416 1.71624,-1.193048 0.0589,0.0039 0.11083,-0.04472 0.11546,-0.108082 0.005,-0.06341 0.22489,-0.21992 0.48942,-0.347561 0.26454,-0.127694 0.51935,-0.279587 0.56587,-0.337165 0.0465,-0.0577 0.32738,-0.253056 0.62406,-0.434147 0.6818,-0.416169 0.91985,-0.601389 0.9285,-0.722599 0.004,-0.05276 0.0413,-0.09415 0.0838,-0.09236 0.0424,0.0022 0.33416,-0.179791 0.64781,-0.403961 0.71008,-0.507514 0.94424,-0.664059 1.50446,-1.005268 l 0.44463,-0.271441 0.0417,0.279802 c 0.0568,0.380926 0.33435,0.383673 0.45236,0.0047 0.0504,-0.162308 0.0834,-0.329573 0.0732,-0.371627 -0.0102,-0.04219 0.0823,-0.177411 0.20584,-0.300284 0.12349,-0.122928 0.23098,-0.269438 0.23822,-0.325839 0.007,-0.05633 0.39886,-0.342427 0.87048,-0.635482 0.52882,-0.328634 0.86224,-0.599767 0.86994,-0.707628 0.016,-0.223945 -0.19854,-0.235089 -0.7194,-0.03682 -0.2287,0.08707 -0.4452,0.156316 -0.48131,0.153972 -0.0361,-0.0025 -0.0283,-0.178964 0.0177,-0.392519 0.046,-0.213545 0.12361,-0.573246 0.17258,-0.799341 0.0429,-0.198127 0.0454,-0.282539 0.0196,-0.274342 z m -35.37075,2.796252 c -0.14771,-0.0096 -0.43423,0.146161 -0.77227,0.420575 -0.29551,0.239876 -0.72199,0.585922 -0.94786,0.768757 -0.22586,0.182817 -0.41629,0.406437 -0.42396,0.497029 -0.008,0.09065 -0.13526,0.255049 -0.28403,0.365346 -0.14877,0.110325 -0.27621,0.277534 -0.28291,0.371344 -0.007,0.09382 -0.12326,0.264536 -0.25913,0.37931 -0.48277,0.407538 -0.97363,0.991905 -0.98668,1.174722 -0.007,0.102046 -0.18208,0.325678 -0.38821,0.49688 -0.20613,0.171192 -0.414,0.434305 -0.46235,0.584926 -0.0484,0.150577 -0.13079,0.271075 -0.18279,0.267701 -0.052,-0.0039 -0.0989,0.05731 -0.10443,0.134974 -0.006,0.07773 -0.0812,0.160494 -0.16802,0.184201 -0.0868,0.02365 -0.16231,0.104094 -0.16764,0.178782 -0.009,0.121576 -1.09887,1.232977 -1.58535,1.615956 -0.10523,0.08277 -0.19375,0.18175 -0.19651,0.220372 -0.003,0.03852 -0.1215,0.169114 -0.26412,0.289586 -0.35608,0.300836 -0.54789,0.595501 -0.4922,0.756357 0.0688,0.198475 0.35879,0.183618 0.37327,-0.01927 0.008,-0.107853 0.1095,-0.190054 0.26655,-0.21484 0.13967,-0.02203 0.29214,-0.128024 0.33901,-0.235819 0.0469,-0.10773 0.20688,-0.295105 0.35554,-0.416519 0.14866,-0.121433 0.32496,-0.332173 0.39184,-0.467995 0.0669,-0.135748 0.16265,-0.243811 0.21245,-0.240579 0.0498,0.0029 0.2027,-0.16447 0.33994,-0.372091 0.13723,-0.207621 0.36739,-0.487619 0.51111,-0.622262 0.14374,-0.134679 0.26334,-0.278672 0.2663,-0.320061 0.003,-0.04148 0.1503,-0.197027 0.32714,-0.345266 0.17685,-0.148306 0.3911,-0.389208 0.47644,-0.535606 0.0853,-0.146332 0.2324,-0.282452 0.3267,-0.302811 0.0943,-0.02031 0.33914,-0.198743 0.54419,-0.396361 0.20505,-0.197615 0.58236,-0.52938 0.83839,-0.737336 0.25604,-0.207961 0.47001,-0.43824 0.47527,-0.511973 0.005,-0.07372 0.0825,-0.154113 0.17177,-0.178518 0.16037,-0.04378 0.60842,-0.635844 0.62168,-0.821548 0.0177,-0.247302 -0.2778,-0.0617 -0.52763,0.331252 -0.15265,0.240082 -0.34202,0.45395 -0.42087,0.475497 -0.0788,0.02152 -0.14798,0.09945 -0.15322,0.172806 -0.005,0.0734 -0.045,0.145136 -0.0885,0.159225 -0.0436,0.01415 -0.27552,0.2213 -0.5151,0.460488 -0.60661,0.605631 -0.58719,0.591615 -0.70548,0.515296 -0.0714,-0.04606 -0.0251,-0.191496 0.1408,-0.44132 0.13609,-0.204934 0.23902,-0.384968 0.22905,-0.400527 -0.01,-0.01554 0.18287,-0.207258 0.42818,-0.42563 0.24531,-0.218362 0.45073,-0.465735 0.45677,-0.55022 0.006,-0.08438 0.18795,-0.304869 0.40428,-0.489912 0.21634,-0.185038 0.45377,-0.423107 0.52779,-0.529307 0.15509,-0.222466 0.87242,-0.693264 1.36618,-0.896693 0.3677,-0.151487 0.36217,-0.324706 -0.0113,-0.34896 z m 8.57197,10.036195 c -0.0498,-0.01107 -0.0622,0.05473 -0.0169,0.185611 0.0296,0.08459 0.099,0.133858 0.15442,0.107824 0.0601,-0.02832 0.0553,-0.104362 -0.0119,-0.187975 -0.052,-0.06466 -0.0957,-0.09881 -0.12558,-0.10546 z m -16.85529,-1.032716 c -0.12738,-0.0085 -0.57229,0.224013 -0.52404,0.273697 0.0332,0.03413 -0.0173,0.08335 -0.11243,0.109264 -0.0951,0.02593 -0.17742,0.105461 -0.18248,0.176342 -0.013,0.182474 -1.07442,1.244391 -2.06108,2.061705 -0.73623,0.609875 -0.81837,0.708058 -0.67715,0.814987 0.0883,0.06676 0.26412,0.106117 0.39057,0.08659 0.12643,-0.01927 0.19307,-0.0039 0.14827,0.03433 -0.0448,0.03814 -0.034,0.127603 0.0236,0.199105 0.14642,0.181958 0.25496,0.103592 0.35768,-0.25782 0.0485,-0.170553 0.18412,-0.405639 0.3009,-0.521817 0.11678,-0.116235 0.25138,-0.320511 0.29919,-0.454254 0.0478,-0.133791 0.20807,-0.317459 0.35648,-0.408062 0.26459,-0.161532 0.80221,-0.762654 0.95921,-1.072777 0.0437,-0.08631 0.15511,-0.15194 0.24764,-0.145931 0.10601,0.0067 0.15,-0.04053 0.11951,-0.128567 -0.0266,-0.07677 0.0292,-0.172031 0.12338,-0.211787 0.13995,-0.05913 0.34309,-0.547729 0.23075,-0.555013 z m 15.33494,1.056488 c 0.25651,0.0246 0.31826,0.07458 0.37942,0.213811 0.0508,0.115502 0.0654,0.231117 0.0324,0.25698 -0.0924,0.07228 -1.04265,-0.110123 -1.43886,-0.276186 -0.28784,-0.120612 0.0871,-0.234989 0.69839,-0.21298 0.13599,0.0047 0.24313,0.01026 0.32864,0.0184 z m -1.10755,1.082907 c -0.0356,-0.0039 -0.0767,-4.78e-4 -0.11469,0.0104 l 3e-5,-5.04e-4 c -0.084,0.02422 -0.0609,0.04711 0.0584,0.05961 0.10801,0.01096 0.16998,-0.0067 0.13804,-0.03995 -0.016,-0.01612 -0.0462,-0.02594 -0.0818,-0.02946 z m -12.30113,-0.223804 c -0.0823,-0.0057 -0.17776,0.04529 -0.21209,0.112182 -0.0489,0.09547 -0.0172,0.103392 0.14755,0.03728 0.25024,-0.10059 0.26574,-0.136358 0.0645,-0.149422 z m -0.50378,0.403436 c -0.0535,-0.0019 -0.0988,0.02756 -0.10322,0.08916 -0.004,0.05426 -0.19869,0.281648 -0.43281,0.504852 -0.23411,0.223213 -0.49144,0.532146 -0.57215,0.686458 -0.0807,0.154362 -0.29046,0.388075 -0.46597,0.519503 -0.17552,0.131482 -0.32224,0.283985 -0.32613,0.338399 -0.004,0.05445 -0.18005,0.253823 -0.39112,0.443353 -0.21107,0.189542 -0.38768,0.390219 -0.39285,0.445711 -0.005,0.0555 -0.10686,0.17001 -0.22639,0.254481 -0.11953,0.0845 -0.22214,0.216795 -0.22769,0.294428 -0.006,0.07762 -0.10634,0.221448 -0.22432,0.319822 -0.2677,0.223223 -0.79683,0.982118 -0.8096,1.161035 l -4e-5,5.05e-4 c -0.0201,0.281049 0.37872,0.158959 0.57508,-0.176046 0.30819,-0.525813 0.84575,-1.27315 1.03162,-1.434082 0.0932,-0.08067 0.17296,-0.195358 0.1772,-0.25473 0.004,-0.05932 0.0445,-0.10528 0.0897,-0.102344 0.0451,0.0029 0.1508,-0.136405 0.23497,-0.309258 0.0842,-0.172785 0.19785,-0.311173 0.25245,-0.307635 0.0546,0.0039 0.13362,-0.06427 0.17547,-0.150614 0.0419,-0.08639 0.38401,-0.491836 0.76043,-0.900459 0.93672,-1.016801 1.09211,-1.216612 1.02799,-1.325163 -0.0371,-0.06312 -0.0991,-0.09572 -0.15258,-0.09733 z m 10.45237,1.09657 c -0.0485,-0.0057 -0.0931,-0.0076 -0.12856,-0.0057 -0.0473,0.0029 -0.0781,0.01248 -0.0795,0.03241 -0.004,0.05179 0.0655,0.09908 0.1536,0.104812 0.0882,0.0057 0.12837,0.04987 0.0899,0.09821 -0.0385,0.04834 -6.5e-4,0.09278 0.0841,0.09831 0.14495,0.0095 0.34324,-0.143289 0.26912,-0.207269 -0.0643,-0.0554 -0.24333,-0.103438 -0.38866,-0.120555 z m 2.54,0.189607 c -0.034,5.63e-4 -0.0666,0.0076 -0.0999,0.02118 -0.10237,0.0411 -0.16091,0.134965 -0.1339,0.214067 0.0325,0.09298 0.19287,0.148849 0.47444,0.16713 l 0.42534,0.02766 -0.292,-0.241228 c -0.16034,-0.132324 -0.2719,-0.190456 -0.37395,-0.188759 z m -1.19061,-0.06056 c -0.0471,-0.0029 -0.09,0.05655 -0.0954,0.132601 -0.006,0.0762 0.0286,0.141142 0.0757,0.144197 0.0471,0.0029 0.09,-0.05703 0.0955,-0.133088 0.006,-0.0762 -0.0286,-0.140648 -0.0757,-0.14371 z m -0.59605,0.02012 c -0.0964,-0.0076 -0.14598,0.0205 -0.15048,0.08354 -0.005,0.07247 0.0996,0.132917 0.24776,0.142538 0.14122,0.0095 0.25938,-0.02003 0.26259,-0.06494 0.003,-0.04473 -0.10832,-0.108617 -0.24781,-0.142042 -0.0425,-0.01026 -0.0799,-0.01669 -0.11206,-0.01917 z m -3.00511,-0.161047 c -0.0661,-0.0047 -0.10313,0.278991 -0.0571,0.436394 l -3e-5,4.95e-4 c 0.004,0.01268 0.13456,0.02842 0.2901,0.03566 0.2719,0.01203 0.27381,0.0085 0.0574,-0.08563 -0.12382,-0.05417 -0.22047,-0.162049 -0.21493,-0.239682 0.006,-0.07773 -0.0284,-0.144102 -0.0755,-0.147154 z m 3.76424,1.59286 c 1.93415,0.104298 2.09622,0.165529 1.3625,0.511281 -0.37161,0.17473 -0.48623,0.17845 -2.03159,0.06018 -0.90086,-0.06895 -2.04016,-0.19304 -2.5318,-0.275527 -0.68063,-0.114167 -1.20596,-0.137741 -2.20211,-0.09805 -0.71956,0.0287 -1.34765,0.07019 -1.39527,0.09269 -0.0476,0.0224 -0.42453,0.04177 -0.8375,0.04292 -0.64061,0.0019 -0.73134,-0.01535 -0.62021,-0.120289 0.0716,-0.06761 0.39671,-0.135194 0.7224,-0.150175 0.32568,-0.01497 0.64027,-0.05597 0.69956,-0.09135 0.0593,-0.03548 0.24845,-0.08248 0.42028,-0.104592 0.45635,-0.05865 4.359,0.02212 6.41374,0.132942 z m -16.50533,-0.819821 c -0.0287,0.0029 -0.0623,0.04378 -0.11875,0.125161 -0.0687,0.09895 -0.0973,0.20804 -0.0639,0.242323 0.17851,0.183619 0.39827,-0.02717 0.27357,-0.262301 -0.0384,-0.07238 -0.0622,-0.107892 -0.0909,-0.105183 z m 7.69379,1.030066 c 0.20438,0.01325 0.34401,0.05883 0.31029,0.101154 -0.0337,0.04243 -0.17853,0.06943 -0.32181,0.06007 -0.14328,-0.0095 -0.2829,-0.05482 -0.31028,-0.101154 -0.0274,-0.04643 0.11742,-0.07333 0.3218,-0.06007 z m 6.03433,1.232001 c -0.003,-0.0029 -0.012,-0.0029 -0.0274,-8.39e-4 -0.0205,0.0029 -0.0519,0.0099 -0.0941,0.02012 -0.10577,0.02546 -0.26048,0.04187 -0.34394,0.03643 -0.0833,-0.0057 -0.12606,0.03375 -0.0948,0.08669 0.0771,0.130454 0.16048,0.123522 0.41478,-0.03481 0.10676,-0.06647 0.15428,-0.0991 0.14546,-0.107606 z m -1.74954,0.114109 c -0.17839,-0.0057 -0.35909,0.02317 -0.38977,0.09079 -0.0379,0.08344 0.0632,0.115883 0.36977,0.116817 0.23217,8.2e-4 0.40976,-0.04157 0.39462,-0.09336 -0.0201,-0.06923 -0.1962,-0.108712 -0.37462,-0.114176 z m 0.71938,0.102518 c -0.0465,-0.0029 -0.0935,6.19e-4 -0.12975,0.01087 -0.0724,0.02097 -0.0162,0.04539 0.12508,0.05455 0.14126,0.0095 0.20046,-0.0076 0.13168,-0.03796 -0.0344,-0.01507 -0.0805,-0.02451 -0.12701,-0.02756 z m -1.80918,-0.037 c -0.0882,-0.0057 -0.1343,0.03328 -0.10301,0.08612 0.0313,0.05294 0.10012,0.09885 0.15326,0.102282 0.0532,0.0039 0.0999,-0.03501 0.10349,-0.08564 0.004,-0.05064 -0.0657,-0.09706 -0.15375,-0.10279 z m -1.31595,-0.03166 c -0.0318,-1.53e-4 -0.0743,0.0039 -0.12913,0.0095 -0.19731,0.0206 -0.23478,0.05226 -0.13829,0.115989 0.16542,0.109362 0.13672,0.112059 0.28311,-0.02604 0.0761,-0.07181 0.0798,-0.09981 -0.0157,-0.09931 z"
       id="path1951"
       inkscape:export-filename="/Users/jan/Documents/repo/github/microcol/microcol-game/src/main/resources/images/buildings.png"
       inkscape:export-xdpi="24"
       inkscape:export-ydpi="24" />
    <path
       inkscape:connector-curvature="0"
       style="fill:#000000;stroke-width:0.08136445"
       d="m 94.12296,18.451655 c -0.12671,-0.0025 -0.246,0.02647 -0.45076,0.08534 -0.24244,0.06972 -0.62602,0.152858 -0.85236,0.184421 -0.22635,0.03154 -0.46714,0.07561 -0.535049,0.09821 -0.06788,0.02266 -0.397796,0.04382 -0.733373,0.04714 l -0.610246,0.0066 0.01903,0.603008 c 0.01055,0.331784 0.07452,0.911048 0.141716,1.287076 0.06716,0.37602 0.113613,0.891487 0.103291,1.145539 -0.01031,0.254061 0.0032,0.483954 0.03102,0.510802 0.0606,0.05917 -0.09009,0.42204 -0.255753,0.615872 -0.0662,0.07743 -0.235052,0.142202 -0.375153,0.144111 -0.140109,0.0017 -0.402737,0.06067 -0.583806,0.130375 -0.181076,0.06971 -0.718326,0.155638 -1.193636,0.190852 -0.763243,0.05652 -0.921941,0.04473 -1.358082,-0.100787 -0.271607,-0.09064 -0.54937,-0.160469 -0.617266,-0.154825 -0.06788,0.0058 -0.282265,0.01046 -0.476797,0.01029 -0.614308,-4.4e-4 -0.671346,0.06955 -0.669747,0.827315 7.84e-4,0.364028 0.04453,0.981709 0.09709,1.372851 0.0933,0.694567 0.09126,0.714477 -0.088,0.846611 -0.155188,0.114391 -0.167277,0.156294 -0.07851,0.271058 0.09177,0.11864 0.348426,0.140285 2.038975,0.172412 1.063801,0.02017 2.204508,0.08167 2.534776,0.136383 0.46187,0.07644 0.623039,0.07743 0.697834,0.0042 0.067,-0.06548 0.07188,-0.134525 0.01527,-0.222166 -0.09724,-0.150692 -0.61322,-0.190579 -2.79507,-0.214473 -1.396036,-0.01527 -1.49668,-0.02681 -1.744389,-0.199434 -0.213441,-0.148783 -0.267505,-0.247081 -0.287973,-0.522803 -0.03662,-0.493722 0.08481,-1.846695 0.173529,-1.933407 0.04629,-0.04523 0.44855,-0.02822 1.03126,0.04332 0.822872,0.101028 1.077489,0.102032 1.837766,0.0066 0.48548,-0.06108 0.996777,-0.145812 1.135798,-0.18828 0.139014,-0.04249 0.328733,-0.07718 0.421838,-0.07718 0.213729,0 0.763131,-0.219278 0.945327,-0.377414 0.07612,-0.06615 0.122472,-0.171109 0.102875,-0.233312 -0.01959,-0.06216 -0.05765,-0.176478 -0.08429,-0.253903 -0.0267,-0.07743 -0.0614,-0.412314 -0.07723,-0.744106 -0.01583,-0.331793 -0.08681,-0.892856 -0.157419,-1.246758 -0.179893,-0.901629 -0.169427,-1.21952 0.04341,-1.330823 0.09442,-0.04946 0.189799,-0.07187 0.211954,-0.05021 0.02215,0.02166 0.157898,0.0033 0.301613,-0.03992 0.143715,-0.04349 0.391067,-0.09821 0.549517,-0.121802 0.15843,-0.02357 0.36148,-0.0815 0.45158,-0.128234 0.34141,-0.177 1.15183,-0.256011 1.43782,-0.140243 0.32386,0.131089 0.35162,0.244036 0.24501,0.998864 -0.10589,0.749783 -0.0117,2.962614 0.13594,3.196034 0.0601,0.09507 1.14987,0.03378 1.29734,-0.07295 0.20163,-0.145928 1.02578,-0.285515 1.57622,-0.26719 1.03655,0.03461 1.80869,0.03486 1.93445,8.3e-4 0.10709,-0.02896 0.11951,0.14802 0.0938,1.333819 -0.0165,0.763551 -0.0667,1.41233 -0.11362,1.468924 -0.13617,0.164286 -0.87417,0.332573 -1.6473,0.375704 -0.39612,0.02208 -0.78474,0.0737 -0.86393,0.114939 -0.13158,0.06847 -2.04866,0.282104 -2.45793,0.274053 -0.15576,-0.0033 -0.1806,0.05718 -0.23468,0.570849 -0.0332,0.315675 -0.0532,0.790906 -0.0442,1.056337 0.0537,1.593987 0.0397,5.700363 -0.0206,6.072972 -0.0961,0.593688 -0.17619,2.258096 -0.15865,3.297677 0.008,0.464508 -0.0222,1.043763 -0.0669,1.287076 -0.12992,0.707489 -0.14297,3.621958 -0.0174,3.840647 0.15036,0.259098 0.3201,0.222788 0.37557,-0.08059 0.0263,-0.14377 0.0456,-1.638838 0.0434,-3.322126 -0.002,-1.965999 0.03,-3.241797 0.0905,-3.56788 0.0518,-0.279191 0.0779,-0.548771 0.0583,-0.59914 -0.0198,-0.05038 -0.0104,-1.168993 0.0207,-2.485806 0.0311,-1.316822 0.0281,-2.620057 -0.006,-2.895812 -0.051,-0.405707 0.0197,-1.841243 0.11774,-2.39145 0.065,-0.364667 0.2591,-0.443685 1.38783,-0.563553 0.46826,-0.04971 0.99934,-0.12181 1.18042,-0.160402 0.18107,-0.03859 0.73659,-0.112341 1.23454,-0.16383 0.81378,-0.08415 1.133,-0.167183 1.52293,-0.395864 0.0679,-0.03984 0.18809,-0.09187 0.26732,-0.115793 0.20022,-0.06042 0.18763,-0.492212 -0.0206,-0.71066 -0.12029,-0.126192 -0.16407,-0.281905 -0.16279,-0.579421 0.002,-0.372152 0.0925,-1.096315 0.19585,-1.557271 0.0262,-0.117013 -0.002,-0.201517 -0.0781,-0.229884 -0.0657,-0.02465 -0.11941,-0.09447 -0.11941,-0.155257 0,-0.199874 -0.4143,-0.245305 -1.15232,-0.126093 -0.24897,0.04017 -0.67496,0.05693 -0.94657,0.03735 -0.46792,-0.03386 -1.23559,0.06664 -1.68695,0.220879 -0.11317,0.03868 -0.37634,0.08827 -0.58463,0.110225 -0.41341,0.04357 -0.37608,0.07735 -0.70032,-0.62789 -0.20029,-0.435602 -0.2146,-2.056828 -0.0219,-2.463074 0.19255,-0.405939 0.24821,-0.776225 0.13015,-0.863335 -0.0547,-0.04034 -0.32673,-0.138583 -0.60488,-0.218307 -0.23491,-0.06731 -0.36909,-0.101352 -0.49579,-0.103784 z m -2.707886,8.432254 c -0.15151,0.0058 -0.143754,0.383946 -0.05701,2.888094 0.05557,1.603532 0.02734,3.618771 -0.06076,4.34329 -0.148408,1.221014 -0.09771,5.317115 0.07564,6.112868 0.04333,0.199078 0.120553,0.778325 0.171459,1.287077 0.08776,0.876829 0.24312,1.418547 0.443329,1.545262 0.185442,0.117353 0.221324,-0.09048 0.09668,-0.560549 -0.07076,-0.266817 -0.128899,-0.794882 -0.128899,-1.173425 0,-0.378534 -0.05701,-0.898026 -0.126845,-1.154552 -0.06988,-0.256525 -0.165989,-1.009495 -0.213609,-1.673072 -0.105146,-1.465206 -0.102411,-0.952528 -0.02063,-3.659654 0.03806,-1.2608 0.06156,-2.853435 0.05205,-3.539138 -0.0094,-0.685695 -0.02702,-1.949351 -0.03926,-2.80832 -0.01543,-1.095078 -0.05053,-1.571098 -0.117338,-1.592867 -0.02838,-0.0092 -0.05317,-0.01585 -0.07476,-0.01502 z M 98.4232,42.622176 c -0.0194,-0.0017 -0.0384,-0.0017 -0.0566,4.4e-4 -0.0487,0.0058 -0.0918,0.02681 -0.12271,0.06515 -0.0497,0.0615 -0.11011,0.09272 -0.13387,0.06947 -0.0763,-0.07453 -0.89065,-0.175275 -0.9288,-0.114938 -0.0202,0.03203 -0.2458,0.05967 -0.50117,0.06216 -0.25537,0.0025 -0.5043,0.04316 -0.55323,0.09092 -0.0489,0.0478 -0.19263,0.08707 -0.31938,0.08707 -0.12674,0 -0.23054,0.03635 -0.23054,0.08059 0,0.04424 -0.0851,0.08017 -0.18923,0.08017 -0.10412,0 -0.22432,0.03328 -0.26732,0.07378 -0.043,0.0405 -0.27566,0.09372 -0.51687,0.118366 -0.24122,0.02465 -0.75978,0.08689 -1.15232,0.138102 -0.4035,0.05245 -1.134055,0.07461 -1.680762,0.05021 -0.531869,-0.02374 -0.984073,-0.01652 -1.00482,0.01627 -0.02079,0.03287 -0.177879,0.06449 -0.349545,0.0703 -0.171658,0.0058 -0.452867,0.03312 -0.624701,0.06092 -0.183372,0.02971 -0.610894,-0.0083 -1.034571,-0.09178 -0.873473,-0.172544 -0.998623,-0.140633 -0.998623,0.256044 0,0.495897 0.189679,1.721076 0.26649,1.721109 0.03974,0 0.06532,-0.353097 0.05661,-0.784424 l -0.01567,-0.784001 1.018868,-0.01245 c 1.349208,-0.01635 4.223794,-0.09271 4.249834,-0.112797 0.0113,-0.0087 0.0852,-0.02291 0.16443,-0.0317 0.82125,-0.09073 1.2355,-0.169548 1.83157,-0.348682 0.59678,-0.179374 0.85688,-0.211119 1.76959,-0.214439 l 1.0697,-0.0042 -0.0166,0.241031 c -0.0497,0.726154 -0.0513,0.898798 -0.01,0.968845 0.0254,0.04241 0.0714,0.348416 0.10246,0.680209 0.0311,0.331784 0.09,0.729947 0.13056,0.88478 0.0406,0.154842 0.0805,0.516612 0.0888,0.804161 0.009,0.307915 0.0698,0.616378 0.14792,0.750114 0.10907,0.186678 0.13696,0.200754 0.15783,0.08017 0.014,-0.08067 0.0476,-0.200878 0.0748,-0.267198 0.0271,-0.06639 0.0435,-0.148675 0.036,-0.182703 -0.007,-0.03403 -0.0356,-0.522745 -0.0624,-1.085924 -0.0268,-0.563188 -0.0592,-1.041904 -0.0719,-1.064055 -0.0127,-0.02208 0.004,-0.456242 0.0368,-0.964994 0.0329,-0.508736 0.029,-1.007512 -0.009,-1.108225 -0.0586,-0.156659 -0.21617,-0.265414 -0.35243,-0.278345 z m -10.35849,3.886966 c -0.04605,-0.02482 -0.06668,0.163713 -0.02766,0.584567 0.03014,0.325451 0.09129,0.714941 0.135936,0.865052 0.04461,0.150111 0.07548,0.499714 0.0682,0.777138 -0.0072,0.277415 0.01159,0.528953 0.04214,0.55883 0.03054,0.02988 0.323049,0.09759 0.649919,0.150543 0.326862,0.05287 0.872298,0.081 1.211809,0.06258 0.339518,-0.01842 0.987622,-0.05436 1.440305,-0.08017 0.452676,-0.02581 1.063821,-0.05594 1.358071,-0.06731 0.29424,-0.01137 0.72022,-0.04274 0.94657,-0.06988 0.96018,-0.115236 2.75656,-0.225477 2.90827,-0.17842 0.0904,0.02805 0.18779,0.01345 0.21692,-0.03262 0.0291,-0.04606 0.2339,-0.08362 0.45489,-0.08362 0.221,0 0.42486,-0.03643 0.45283,-0.08059 0.028,-0.04424 0.15752,-0.08017 0.28798,-0.08017 0.13046,0 0.26001,-0.03635 0.28798,-0.08059 0.028,-0.04424 0.13729,-0.08017 0.24294,-0.08017 0.25269,0 0.309,-0.168876 0.1789,-0.536107 -0.13201,-0.372634 -0.28979,-0.44244 -0.28054,-0.123951 0.009,0.294354 -0.0752,0.430846 -0.25121,0.410014 -0.0752,-0.009 -0.19239,0.0033 -0.26029,0.02789 -0.30615,0.109038 -1.09059,0.224673 -1.76959,0.26119 -0.40742,0.02191 -1.09288,0.07528 -1.52293,0.118374 -0.97561,0.09778 -1.61863,0.142675 -3.527203,0.246176 -1.497199,0.08117 -2.263465,0.04971 -2.458749,-0.10121 -0.126493,-0.09776 -0.3512,-0.531866 -0.3512,-0.678068 0,-0.06017 -0.0343,-0.172329 -0.07603,-0.249181 -0.04166,-0.07685 -0.121503,-0.456109 -0.177662,-0.843192 -0.06292,-0.433726 -0.13452,-0.672134 -0.180549,-0.696932 z"
       id="path1951-7"
       inkscape:export-filename="/Users/jan/Documents/repo/github/microcol/microcol-game/src/main/resources/images/buildings.png"
       inkscape:export-xdpi="24"
       inkscape:export-ydpi="24" />
    <rect
       style="opacity:1;fill:#d7b56d;fill-opacity:1;fill-rule:evenodd;stroke:none;stroke-width:2.29135895;stroke-linecap:butt;stroke-miterlimit:4;stroke-dasharray:none;stroke-opacity:1"
       id="rect4125"
       width="63.5"
       height="63.499996"
       x="-6.6613381e-16"
       y="0.66666722"
       inkscape:export-filename="/Users/jan/Documents/repo/github/microcol/microcol-game/src/main/resources/images/buildings.png"
       inkscape:export-xdpi="24"
       inkscape:export-ydpi="24" />
    <rect
       style="opacity:1;fill:#d7b56d;fill-opacity:1;fill-rule:evenodd;stroke:none;stroke-width:2.29135942;stroke-linecap:butt;stroke-miterlimit:4;stroke-dasharray:none;stroke-opacity:1"
       id="rect4125-9"
       width="63.500008"
       height="63.500011"
       x="444.5"
       y="381.66666"
       inkscape:export-filename="/Users/jan/Documents/repo/github/microcol/microcol-game/src/main/resources/images/buildings.png"
       inkscape:export-xdpi="24"
       inkscape:export-ydpi="24" />
  </g>
</svg>
