<?xml version="1.0" encoding="UTF-8" standalone="no"?>
<!-- Created with Inkscape (http://www.inkscape.org/) -->

<svg
   xmlns:dc="http://purl.org/dc/elements/1.1/"
   xmlns:cc="http://creativecommons.org/ns#"
   xmlns:rdf="http://www.w3.org/1999/02/22-rdf-syntax-ns#"
   xmlns:svg="http://www.w3.org/2000/svg"
   xmlns="http://www.w3.org/2000/svg"
   xmlns:sodipodi="http://sodipodi.sourceforge.net/DTD/sodipodi-0.dtd"
   xmlns:inkscape="http://www.inkscape.org/namespaces/inkscape"
   width="210mm"
   height="297mm"
   viewBox="0 0 210 297"
   version="1.1"
   id="svg8"
   inkscape:version="0.92.2 5c3e80d, 2017-08-06"
   sodipodi:docname="colony-frames.svg"
   inkscape:export-filename="/Users/jan/Documents/repo/github/microcol/microcol-game/src/main/resources/images/colony-dock.png"
   inkscape:export-xdpi="98.734848"
   inkscape:export-ydpi="98.734848">
  <defs
     id="defs2" />
  <sodipodi:namedview
     id="base"
     pagecolor="#ffffff"
     bordercolor="#666666"
     borderopacity="1.0"
     inkscape:pageopacity="0.0"
     inkscape:pageshadow="2"
     inkscape:zoom="0.35"
     inkscape:cx="110.32978"
     inkscape:cy="123.99325"
     inkscape:document-units="mm"
     inkscape:current-layer="layer6"
     showgrid="false"
     inkscape:window-width="1601"
     inkscape:window-height="1005"
     inkscape:window-x="79"
     inkscape:window-y="1"
     inkscape:window-maximized="1"
     inkscape:snap-global="false" />
  <metadata
     id="metadata5">
    <rdf:RDF>
      <cc:Work
         rdf:about="">
        <dc:format>image/svg+xml</dc:format>
        <dc:type
           rdf:resource="http://purl.org/dc/dcmitype/StillImage" />
        <dc:title />
      </cc:Work>
    </rdf:RDF>
  </metadata>
  <g
     inkscape:groupmode="layer"
     id="layer4"
     inkscape:label="structures"
     style="display:none"
     sodipodi:insensitive="true">
    <rect
       style="display:inline;opacity:1;fill:#b0cb1f;fill-opacity:1;fill-rule:evenodd;stroke:none;stroke-width:2.50443602;stroke-linecap:butt;stroke-miterlimit:4;stroke-dasharray:none;stroke-opacity:1"
       id="rect3756-2"
       width="316.74405"
       height="201.83929"
       x="-24.946428"
       y="5.958293"
       ry="0"
       inkscape:export-filename="/Users/jan/Documents/repo/github/microcol/microcol-game/src/main/resources/images/colony-structures.png"
       inkscape:export-xdpi="38.919998"
       inkscape:export-ydpi="38.919998" />
    <path
       inkscape:connector-curvature="0"
       style="display:inline;fill:#000000;stroke-width:0.2484334"
       d="m 108.85146,1.7822468 c -12.471229,0.01435 -13.800679,0.04561 -17.513649,0.410572 -1.88306,0.185092 -4.78663,0.338412 -6.4524,0.340538 -1.66577,0.0018 -3.73976,0.105296 -4.60885,0.229316 -2.45548,0.350378 -4.24766,0.445878 -11.19293,0.595026 -7.31709,0.157138 -13.49966,0.324825 -13.69488,0.371671 -0.0725,0.01745 -0.22494,0.0178 -0.33898,8.86e-4 -0.42745,-0.06324 -3.58985,-0.02498 -6.77182,0.08149 -1.81062,0.06058 -4.47717,0.009 -5.92567,-0.114427 -2.47355,-0.210885 -4.91436,-0.371955 -8.29594,-0.547427 -0.79667,-0.04136 -1.56701,-0.104074 -1.71186,-0.139149 -0.14484,-0.03516 -0.32258,-0.05119 -0.39504,-0.0357 -0.0725,0.0155 -1.96863,0.06776 -4.21381,0.116252 -2.24517,0.04845 -4.43768,0.146022 -4.87222,0.2165 -1.36831,0.22192 -6.86886,0.429554 -13.8265596,0.522254 -3.69367,0.04925 -7.42684,0.170716 -8.29593997,0.270051 -0.8691,0.09934 -2.35051003,0.173657 -3.29204003,0.165243 -2.84213,-0.02551 -10.0261504,-0.511165 -11.8513404,-0.801464 -1.9388,-0.308368 -8.19193,-0.149645 -10.20326,0.259068 -0.6893,0.140069 -2.37851,0.219741 -3.75395,0.177137 -2.35394,-0.0729 -2.50096,-0.04987 -2.50195,0.391343 -5.3e-4,0.257784 0.236,0.596851 0.52569,0.753396 0.63995,0.345816 1.54239,0.391591 1.31682,0.06678 -0.0999,-0.143843 0.32647,-0.234126 1.10386,-0.233887 l 1.26641,4.49e-4 0.0695,1.698587 c 0.0447,1.09039 0.19709,1.783537 0.4254,1.935671 0.25171,0.16774 0.36595,0.910621 0.39144,2.5421492 0.0198,1.267847 0.10561,2.40511 0.19032,2.527049 0.0847,0.121939 0.0134,0.371928 -0.15791,0.555664 -0.32578,0.349245 -0.58186,3.580901 -0.31481,3.971138 0.085,0.123639 0.12323,0.666611 0.0859,1.206536 -0.0373,0.539924 0.0592,1.051568 0.2145,1.136961 0.18717,0.102922 0.19694,0.296597 0.0299,0.574433 -0.13814,0.230521 -0.19863,1.146909 -0.13374,2.03637 0.36433,4.996603 0.50001,12.393109 0.23456,12.775286 -0.068,0.09791 -0.0135,0.61327 0.12088,1.145662 0.19771,0.782992 0.16929,0.993611 -0.14866,1.102178 -0.29829,0.101846 -0.31445,0.177657 -0.0674,0.313536 0.41596,0.228759 0.37867,3.431466 -0.0453,3.885999 -0.23025,0.246888 -0.21614,0.323146 0.0607,0.32589 0.24237,0.0024 0.26576,0.06033 0.071,0.175763 -0.27166,0.161012 -0.36755,1.902822 -0.36058,6.55402 0.001,0.932198 0.12987,1.986775 0.286,2.343502 0.35669,0.814993 0.53696,5.68711 0.21038,5.68711 -0.35443,0 -0.28996,0.495469 0.16563,1.272905 0.29075,0.49612 0.33482,0.859145 0.15947,1.306775 -0.14926,0.381068 -0.14758,0.770768 0.004,1.012007 0.16895,0.268634 0.14961,0.392263 -0.0617,0.392263 -0.20762,0 -0.22522,0.09595 -0.0534,0.292939 0.14046,0.161113 0.277,1.136594 0.30348,2.167737 0.0264,1.031139 0.0862,2.243899 0.1327,2.695024 0.0465,0.451123 -0.0141,1.059313 -0.13476,1.351632 -0.16532,0.40069 -0.0855,0.650767 0.32458,1.015669 0.71365,0.63494 0.86332,0.453943 0.52518,-0.635764 -0.19502,-0.628703 -0.19361,-0.9363 0.006,-1.04588 0.18404,-0.101208 0.21531,-0.593635 0.09,-1.416169 -0.28041,-1.84092 -0.37074,-3.833045 -0.36676,-8.123068 0.002,-2.098357 -0.0821,-3.938616 -0.18671,-4.089225 -0.36716,-0.528611 -0.41404,-8.411004 -0.052,-8.733203 0.069,-0.06143 0.0568,-0.561705 -0.0273,-1.111329 -0.0841,-0.549627 -0.0789,-1.579208 0.0113,-2.288117 0.0903,-0.708909 0.0624,-1.404392 -0.0617,-1.545706 -0.1252,-0.142896 -0.1216,-1.026986 0.009,-1.991974 0.33787,-2.501535 0.34553,-9.059013 0.0109,-9.243097 -0.17106,-0.09407 -0.18147,-0.252185 -0.0283,-0.422469 0.22189,-0.246711 0.23088,-2.639854 0.0468,-12.26402 -0.0325,-1.697852 0.0198,-3.200621 0.11625,-3.339486 0.0965,-0.138856 0.0796,-0.252646 -0.0375,-0.252655 -0.11719,-9e-6 -0.24117,-0.810287 -0.27571,-1.800651 -0.0397,-1.1397162 -0.18472,-1.8695152 -0.39504,-1.9883182 -0.25325,-0.143082 -0.25574,-0.188582 -0.0102,-0.191318 0.32638,-0.0035 0.31134,-2.04846 -0.0185,-2.52339 -0.0848,-0.122072 0.14825,-0.455834 0.51747,-0.741491 0.57871,-0.447756 0.96771,-0.517481 2.8219,-0.507613 1.18296,0.0062 3.50264,-0.03915 5.15461,-0.100691 1.84365,-0.06864 3.12855,-0.01931 3.32702,0.127245 0.17784,0.131327 0.66328,0.230077 1.07865,0.219697 0.41537,-0.01036 1.70323,0.08671 2.8620204,0.215587 4.42507,0.492148 10.26677003,0.462521 17.51365,-0.0888 0.94152,-0.07166 3.8819496,-0.131513 6.5341796,-0.133196 2.65224,-0.0018 6.20763,-0.14046 7.90089,-0.30804 1.91018,-0.189051 4.37801,-0.252328 6.50228,-0.167067 2.24415,0.09007 3.91349,0.04066 4.84547,-0.142807 1.23693,-0.243505 1.5452,-0.226234 2.37027,0.130442 0.60495,0.26153 1.80692,0.446958 3.31879,0.512184 2.63071,0.113506 3.35214,0.113586 13.20467,0.0053 3.78629,-0.04172 7.00103,-0.0116 7.14373,0.06687 0.14271,0.07848 1.13373,0.0982 2.20206,0.04349 5.44583,-0.27889 9.80755,-0.431661 11.81843,-0.413309 2.09557,0.01913 5.95916,-0.314444 6.84743,-0.591368 0.54804,-0.170858 2.67972,-0.28851 4.87222,-0.268678 3.2776,0.02967 6.73565,-0.274117 6.53367,-0.573981 -0.13454,-0.199724 -0.0821,-0.198847 0.19958,0.0035 0.22066,0.158662 0.82694,0.226093 1.43358,0.159291 0.86214,-0.09494 5.17363,-0.437836 7.371589,-0.586338 0.2897,-0.01957 2.95626,-0.0027 5.92568,0.038 2.96941,0.04039 7.3544,0.05651 9.74442,0.03614 2.39002,-0.02037 8.13792,0.06616 12.77311,0.19224 18.1861,0.494708 29.72967,0.628887 42.7965,0.497082 1.81063,-0.01825 4.03184,0.01391 4.936,0.07183 0.90414,0.05802 2.00274,0.014 2.44125,-0.09795 0.43851,-0.111912 0.74677,-0.130955 0.68516,-0.0426 -0.1406,0.201814 5.00962,0.123852 5.38299,-0.08149 0.15091,-0.08299 0.47616,-0.07555 0.72271,0.01647 0.24655,0.09198 0.98185,0.149627 1.63367,0.128156 2.76362,-0.09101 6.74509,-0.23308 7.1108,-0.253567 0.21729,-0.01214 2.70607,-0.02152 5.53063,-0.02108 2.82457,4.42e-4 5.8112,-0.08211 6.63706,-0.183089 0.82585,-0.100991 1.44955,-0.108334 1.38574,-0.01647 -0.16094,0.231699 3.5729,0.673989 5.80377,0.687488 2.14917,0.01302 13.11755,0.369333 17.51364,0.568941 8.0291,0.364559 9.56945,0.426091 12.50974,0.501192 1.7382,0.04437 4.34549,0.178457 5.794,0.297518 1.44849,0.119051 2.75929,0.127713 2.9129,0.01922 0.1536,-0.108484 3.64975,-0.205481 7.76923,-0.215578 9.89245,-0.02427 12.94503,-0.10294 16.57593,-0.427047 2.45806,-0.219414 7.17839,-0.478004 10.1395,-0.555213 0.28969,-0.0071 1.23203,0.05739 2.09402,0.14418 1.59591,0.160601 2.30465,0.460111 2.1995,0.92962 -0.0672,0.300077 0.61543,1.316385 0.88422,1.316385 0.0985,0 0.26344,-0.342735 0.36626,-0.761633 0.10279,-0.418898 0.40182,-1.005794 0.66455,-1.304028 0.52803,-0.599367 0.42855,-1.137405 -0.24177,-1.309981 -0.24009,-0.06182 -1.62132,-0.125978 -3.06981,-0.142807 -1.44848,-0.01683 -3.04842,-0.03853 -3.55539,-0.04809 -0.50697,-0.0096 -1.63285,0.11061 -2.50195,0.266845 -0.8691,0.156234 -2.11349,0.316321 -2.76529,0.356099 -1.35517,0.08273 -5.0773,0.389616 -6.05737,0.499368 -0.36211,0.04057 -1.6065,0.07387 -2.76532,0.07413 -3.54119,7.01e-4 -5.23788,0.055 -5.455,0.174392 -0.11409,0.06271 -0.2073,-0.0027 -0.2073,-0.14464 0,-0.164348 -0.31236,-0.208005 -0.85592,-0.119467 -1.32663,0.216101 -7.84366,0.29323 -10.12921,0.119928 -1.25494,-0.09516 -2.57,-0.05093 -3.38666,0.113967 -1.28405,0.259316 -4.29713,0.229777 -5.11707,-0.05031 -0.65995,-0.225463 -5.29908,-0.37408 -20.54233,-0.657736 -3.25912,-0.06067 -5.92567,-0.119317 -5.92567,-0.13045 0,-0.07183 -1.99242,-0.200876 -6.71576,-0.435294 -2.96942,-0.147346 -5.99151,-0.365785 -6.71576,-0.485164 -1.12677,-0.185721 -12.24942,-0.09206 -15.93347,0.134117 -0.91926,0.05651 -17.9945,0.09329 -22.91258,0.04942 -0.50697,-0.0044 -3.11426,-0.0044 -5.79398,-4.68e-4 -5.61577,0.0089 -15.89865,-0.122303 -21.06906,-0.268679 -9.845,-0.278714 -22.61622,-0.443186 -33.4471,-0.430714 z m 183.93956,5.576341 c -0.0742,-0.01585 -0.0741,0.210477 0,0.682457 0.0803,0.515567 0.14565,1.438323 0.14864,2.0505592 0.003,0.865113 0.0975,1.113162 0.42646,1.113162 0.2967,0 0.36848,-0.122647 0.24122,-0.410112 -0.0999,-0.22556 -0.24641,-0.9901242 -0.32613,-1.6990382 -0.0797,-0.708905 -0.25588,-1.44711 -0.39092,-1.640448 -0.0412,-0.05899 -0.0741,-0.09128 -0.0987,-0.09658 z m 0.62497,5.7420352 c -0.0363,-0.008 -0.0987,0.06368 -0.2037,0.21146 -0.15627,0.219866 -0.155,0.432725 0.004,0.573982 0.35213,0.313336 0.31535,1.861003 -0.0617,2.597525 -0.22172,0.432964 -0.23076,0.660464 -0.0309,0.772625 0.16306,0.09152 0.28562,0.966688 0.29059,2.062463 0.005,1.170177 0.14394,2.098106 0.3606,2.408954 v 0 c 0.33417,0.479438 0.36098,0.453477 0.51438,-0.497534 0.089,-0.551652 0.0684,-1.035324 -0.0463,-1.075173 -0.11467,-0.03986 -0.14358,-0.430882 -0.0638,-0.868744 0.0799,-0.437862 0.059,-0.985413 -0.0463,-1.216607 -0.10528,-0.231194 -0.17161,-1.290202 -0.14764,-2.353568 0.0277,-1.23201 -0.0584,-1.933386 -0.23662,-1.933386 -0.15377,0 -0.28046,-0.184551 -0.28342,-0.410112 -0.003,-0.174002 -0.0122,-0.263169 -0.0484,-0.271885 z m 0.66252,9.369881 c -0.054,0.01196 -0.0988,0.272239 -0.12293,0.82297 -0.0541,1.236208 -0.0736,1.340928 -0.3117,1.679357 -0.12044,0.171212 -0.0792,0.292939 0.0987,0.292939 0.2004,0 0.28149,0.420687 0.23712,1.230335 -0.0371,0.676691 -0.0486,2.047638 -0.0257,3.046557 0.0331,1.441653 0.12314,1.816213 0.43672,1.816213 0.30173,0 0.40222,-0.318299 0.42587,-1.34752 0.0172,-0.741127 0.003,-1.452962 -0.0329,-1.581856 -0.16796,-0.611376 -0.27115,-1.583228 -0.3832,-3.604054 -0.0829,-1.49532 -0.21892,-2.377766 -0.32202,-2.354941 z m 0.79163,9.769468 c -0.0217,5.3e-4 -0.0466,0.04129 -0.0751,0.122211 -0.12676,0.358551 -0.24045,2.707598 -0.25307,5.22024 -0.0127,2.512637 -0.0361,4.644925 -0.052,4.738264 -0.0159,0.09334 -0.013,0.222541 0.008,0.286989 0.0907,0.287432 0.0185,6.09364 -0.089,7.147676 -0.24,2.354575 -0.43426,5.189614 -0.45008,6.561802 -0.0369,3.239301 -0.0148,6.902846 0.0509,8.436602 0.0733,1.709377 0.0371,4.902909 -0.1075,9.491174 -0.0556,1.765234 0.014,2.754353 0.20215,2.867126 0.18068,0.108307 0.13089,0.173461 -0.13425,0.175763 -0.33462,0.0028 -0.4313,0.298873 -0.46964,1.436769 -0.0266,0.788178 -0.20259,1.710936 -0.39142,2.050561 -0.28356,0.509095 -0.28253,0.720312 0.006,1.203335 0.23717,0.397939 0.312,1.149673 0.23146,2.343499 -0.19876,2.94494 -0.19735,5.411346 0.006,7.440617 0.11071,1.107715 0.0927,1.933395 -0.0422,1.933384 -0.40767,-1.6e-5 0.0705,6.999956 0.51131,7.485466 0.24225,0.26685 0.2326,0.29804 -0.0453,0.14922 -0.26712,-0.14299 -0.33305,-0.0263 -0.27313,0.48244 0.0435,0.36908 0.0111,0.77654 -0.0721,0.90536 -0.1846,0.28649 -0.0988,1.8367 0.15896,2.88131 0.12163,0.49282 0.0749,0.89345 -0.12912,1.11225 -0.24439,0.26155 -0.24506,0.34191 -0.006,0.34191 0.19499,0 0.24897,0.17979 0.14351,0.47557 -0.25498,0.71481 -0.41958,1.87383 -0.41461,2.92251 0.003,0.51556 -0.10305,1.25377 -0.23452,1.64045 -0.24577,0.72281 -0.40378,1.81277 -0.76335,5.27287 -0.11385,1.09559 -0.24747,2.09744 -0.29731,2.22633 -0.0499,0.12889 -0.006,0.81436 0.0983,1.52327 0.10393,0.70891 0.0828,2.92352 -0.0468,4.92136 -0.14679,2.26266 -0.14213,3.7397 0.013,3.91713 0.13687,0.15665 0.17503,0.68395 0.0848,1.17176 -0.0902,0.48779 -0.21233,2.04707 -0.27157,3.46488 -0.0592,1.41782 -0.19812,3.42153 -0.30913,4.45267 -0.11094,1.03114 -0.18093,3.61485 -0.15481,5.74158 0.081,6.60236 0.0605,12.72002 -0.0468,13.94383 -0.0565,0.64445 0.0167,1.30202 0.16307,1.46146 0.14636,0.15946 0.19737,0.53294 0.11366,0.82985 -0.0837,0.2969 -0.1678,2.11758 -0.18672,4.04575 -0.0188,1.92816 -0.17613,4.37279 -0.34925,5.43261 -0.23624,1.44591 -0.23913,1.95255 -0.0122,2.02997 0.20524,0.0701 0.24273,0.4512 0.11729,1.18685 -0.10154,0.59582 -0.1031,1.12827 -0.003,1.1832 0.0999,0.0549 0.26739,1.65952 0.3719,3.56558 0.10451,1.90608 0.23056,3.93879 0.28033,4.51719 0.0498,0.57842 -0.0295,1.25087 -0.1759,1.49444 -0.1465,0.24355 -0.16531,0.50838 -0.0417,0.58863 0.25964,0.16864 0.24554,0.0493 0.49689,4.08876 0.26101,4.19462 0.29882,6.69957 0.1142,7.5404 -0.0849,0.38668 -0.0322,1.06428 0.11729,1.50587 0.20449,0.60441 0.19203,0.82676 -0.0515,0.89896 -0.17669,0.0528 -0.25768,0.19092 -0.17695,0.30713 0.18505,0.26639 0.22288,9.57798 0.0396,9.74108 -0.0745,0.0662 -4.61974,0.15979 -10.1009,0.20779 -11.24958,0.0984 -17.49993,0.24424 -21.15907,0.49434 -3.03419,0.20738 -13.10574,0.18145 -18.69877,-0.0485 -2.24517,-0.0923 -6.80794,-0.19213 -10.13949,-0.22153 -6.7866,-0.06 -15.1094,-0.46816 -16.92313,-0.82985 -1.39628,-0.27842 -27.08473,-0.3561 -37.0663,-0.11212 -3.62124,0.0885 -12.68751,0.20809 -20.14728,0.26547 -14.55507,0.11204 -16.48846,0.15429 -20.14727,0.44123 -4.08688,0.3205 -29.22561,0.24438 -35.02729,-0.10618 -7.158939,-0.43258 -10.228379,-0.42544 -17.070239,0.0403 -3.21316,0.21871 -7.26451,0.4577 -9.0027,0.5314 -3.42527,0.14528 -9.66048,0.5968 -9.88075,0.71541 -0.075,0.0403 -1.91186,0.14205 -4.08213,0.22566 -2.17025,0.0837 -4.83467,0.25096 -5.92103,0.37211 -2.35994,0.26324 -13.21614,0.30862 -20.01559,0.0838 -4.96375,-0.16414 -7.0485,-0.17385 -14.75966,-0.0705 -2.39634,0.0322 -4.47031,-0.004 -4.60885,-0.0796 -0.13852,-0.0758 -3.21488,-0.2049 -6.83613,-0.287 -3.6212396,-0.0821 -6.8803496,-0.19721 -7.2424796,-0.2554 -0.36212,-0.0582 -2.91015997,-0.21601 -5.6623,-0.35107 -2.75214,-0.13506 -5.5372,-0.34989 -6.18904,-0.47693 -2.1502904,-0.41903 -7.4877004,-1.14314 -8.4775104,-1.15023 -0.53464,-0.004 -1.03117,0.0776 -1.10283,0.1808 -0.0717,0.1032 -0.64151,0.20933 -1.26641,0.23572 -1.72946,0.073 -3.09184,0.2967 -3.25706,0.53459 -0.19912,0.28666 -2.94101,0.27469 -3.14133,-0.0137 -0.19491,-0.28062 1.02736,-0.57788 1.58841,-0.3863 0.23487,0.0802 0.34072,0.0409 0.24845,-0.092 -0.0885,-0.12741 -0.38426,-0.2316 -0.65687,-0.2316 -0.27259,0 -0.58001,-0.12183 -0.68361,-0.27098 -0.23547,-0.33906 -0.1872,-1.76632 0.0726,-2.14027 0.10669,-0.15355 0.16099,-0.86029 0.12087,-1.57042 -0.10405,-1.84111 -0.10399,-1.83506 0.0684,-6.09538 0.0861,-2.12673 0.24568,-4.55226 0.35492,-5.39006 0.16982,-1.3026 0.21368,-6.45502 0.11162,-13.12359 -0.0147,-0.9667 -0.03,-2.12673 -0.0339,-2.57785 -0.0171,-1.90841 -0.3285,-5.80751 -0.52878,-6.62176 -0.13585,-0.55223 -0.11742,-0.93464 0.0499,-1.02666 0.17235,-0.0948 0.19393,-0.81983 0.0612,-2.04919 -0.11298,-1.04638 -0.23817,-2.53547 -0.27828,-3.30882 -0.0401,-0.77336 -0.0896,-1.4061 -0.11008,-1.4061 -0.20854,0 -0.37097,-6.89126 -0.16666,-7.07307 0.0836,-0.0744 0.0979,-1.20238 0.0318,-2.50691 -0.0883,-1.74173 -0.43893,-20.91778 -0.41613,-22.76033 0.0309,-2.50293 0.23391,-6.70497 0.32817,-6.78883 0.0687,-0.0611 0.0921,-1.35305 0.0515,-2.87125 -0.12035,-4.49573 -0.1114,-5.71347 0.0555,-7.56465 0.22415,-2.48599 0.22851,-4.10848 0.0123,-4.4197 -0.10217,-0.14711 -0.0455,-0.26731 0.12603,-0.26731 0.20136,0 0.25973,-0.23322 0.16407,-0.65865 -0.0814,-0.36235 -0.0424,-1.07419 0.0869,-1.58186 0.12931,-0.50768 0.14793,-0.95052 0.0411,-0.98409 -0.10679,-0.0336 -0.1791,-1.07225 -0.16048,-2.3078 0.0247,-1.64325 0.13248,-2.30054 0.40121,-2.44832 0.28962,-0.15927 0.37936,-1.12911 0.42386,-4.583555 0.0311,-2.409962 0.15162,-4.46719 0.2685,-4.571203 0.11686,-0.104003 0.15032,-0.936086 0.0741,-1.849166 -0.0762,-0.91308 -0.0606,-1.787012 0.0349,-1.942087 0.0956,-0.155075 0.25315,-1.647883 0.3503,-3.317518 0.0971,-1.669637 0.23811,-3.124157 0.31326,-3.232382 0.26369,-0.380091 0.11311,-8.893242 -0.16283,-9.189102 -0.14927,-0.160041 -0.32931,-0.801346 -0.40019,-1.424865 -0.0709,-0.623522 -0.23882,-1.230934 -0.37292,-1.350259 -0.54238,-0.482634 -0.70376,0.116825 -0.50461,1.871596 0.11427,1.006975 0.26543,4.035848 0.3364,6.730698 0.11704,4.445648 0.0872,4.928336 -0.32508,5.209712 -0.371,0.253185 -0.38926,0.34857 -0.0977,0.519504 0.29572,0.173424 0.3039,0.626973 0.0479,2.641018 -0.17002,1.337337 -0.37694,3.69687 -0.45986,5.24358 -0.0829,1.546709 -0.27453,2.88327 -0.42591,2.970117 -0.18849,0.108156 -0.18037,0.259617 0.0257,0.4806 0.30828,0.330573 0.2753,2.704068 -0.0762,5.454592 -0.0988,0.77336 -0.1676,2.23468 -0.15277,3.24748 0.0217,1.48165 -0.0447,1.81737 -0.33898,1.7169 -0.36147,-0.12344 -0.34821,0.34836 0.0349,1.2459 0.0821,0.19333 0.11535,0.45698 0.0731,0.58587 -0.0959,0.29198 -0.31673,5.1348 -0.36521,8.00406 -0.0199,1.17997 -0.10926,2.10519 -0.19855,2.05605 -0.0893,-0.0492 -0.0594,0.40127 0.0664,1.00057 0.15242,0.72581 0.12739,1.33784 -0.0741,1.8336 -0.18205,0.44798 -0.21878,1.01522 -0.0926,1.42441 0.2362,0.76609 0.23489,1.33409 -0.01,3.84345 -0.21777,2.23337 -0.20828,17.43662 0.0113,18.05228 0.0906,0.25383 0.068,0.46147 -0.0504,0.46138 -0.11838,-9e-5 -0.1931,0.55355 -0.16563,1.23033 0.0275,0.67678 0.0606,1.23034 0.0736,1.23034 0.0709,0 0.27156,7.47852 0.27057,10.07705 -8e-4,1.67561 0.10696,3.3816 0.23919,3.7908 0.13219,0.40921 0.17261,0.8044 0.0895,0.87835 -0.22986,0.20456 -0.33834,1.37859 -0.16409,1.77548 0.0849,0.19334 0.15592,1.14245 0.15792,2.10915 0.002,0.96669 0.11839,1.88465 0.25822,2.03958 0.14115,0.1564 0.16251,0.52122 0.0484,0.82022 -0.11306,0.2962 -0.17025,0.64373 -0.12705,0.77262 0.0432,0.12891 0.11616,3.29263 0.16254,7.03051 0.0463,3.73788 0.10979,7.75862 0.14094,8.93504 0.0312,1.17642 -0.0263,2.2585 -0.12757,2.40438 -0.1014,0.14587 -0.10043,0.49998 0.002,0.78726 0.27217,0.76304 0.18186,3.88107 -0.14659,5.06234 -0.15583,0.56038 -0.2077,1.37767 -0.11522,1.81621 0.0976,0.46246 0.0605,0.79733 -0.088,0.79733 -0.33414,0 -0.0857,7.8201 0.25204,7.93449 0.136,0.0461 -0.0133,0.33052 -0.33178,0.63211 -0.65007,0.61575 -0.76603,1.69055 -0.21655,2.0057 0.3056,0.17531 0.30383,0.24137 -0.0123,0.42248 -0.58542,0.3353 -0.66427,2.63909 -0.10288,3.00764 0.24547,0.1611 0.31871,0.29293 0.16306,0.29293 -0.15563,0 -0.3445,0.21092 -0.42024,0.4687 -0.0895,0.30463 -0.008,0.4687 0.23249,0.4687 0.20371,0 0.37035,0.1179 0.37035,0.26182 0,0.16678 0.26276,0.20526 0.72426,0.10664 0.84175,-0.17987 2.03519,-0.32044 3.8846,-0.45771 0.72424,-0.0538 2.23253,-0.30422 3.35171,-0.55659 1.11918,-0.2524 2.08597,-0.41318 2.14857,-0.35747 0.0626,0.0557 1.12068,0.13849 2.35123,0.18445 1.23056,0.0459 2.45627,0.18753 2.72365,0.31446 0.51506,0.24452 4.7023504,0.65953 8.6503404,0.8573 1.30365,0.0653 4.02945,0.21582 6.05736,0.33459 2.02789,0.11874 3.86485,0.21985 4.08212,0.22428 0.21728,0.004 2.46904,0.0518 5.0039096,0.10435 2.53486,0.0525 5.21473,0.22021 5.95549,0.37259 0.92644,0.19053 2.57069,0.22576 5.26727,0.11351 2.15621,-0.0897 5.46128,-0.12619 7.34433,-0.0815 1.88306,0.045 4.90912,0.0546 6.7245,0.022 1.81538,-0.0326 3.59307,0.0447 3.95045,0.17165 h 0.003 c 0.76021,0.27003 7.44726,0.34314 7.74144,0.0847 0.11001,-0.0967 1.75916,-0.17866 3.66496,-0.18308 3.44776,-0.007 11.82594,-0.47824 12.51952,-0.70352 0.20002,-0.065 1.7407,-0.17153 3.42372,-0.23663 1.68302,-0.0651 4.48221,-0.2201 6.22041,-0.34466 10.42177,-0.74692 18.80317,-0.91566 29.760029,-0.59869 9.07081,0.26237 28.31863,0.31285 30.41071,0.0796 2.91805,-0.32529 9.1465,-0.43851 29.20399,-0.53049 10.62602,-0.0487 19.48853,-0.14609 19.69461,-0.2165 0.73447,-0.25078 30.8652,-0.071 32.75167,0.19545 1.31916,0.18631 5.42012,0.36555 11.19293,0.48929 2.75218,0.059 5.41867,0.1703 5.92567,0.24763 1.46904,0.22389 10.29747,0.38839 18.30374,0.34099 5.42832,-0.0322 7.71506,-0.13103 8.66627,-0.37396 0.87701,-0.22397 1.39499,-0.25423 1.61157,-0.0943 0.20164,0.14891 2.14972,0.19327 5.29194,0.12038 2.73499,-0.0634 8.52794,-0.11498 12.87343,-0.11764 4.34549,-7.9e-4 8.30146,-0.008 8.79075,-0.0142 0.60725,-0.008 1.00905,0.14009 1.2659,0.46641 0.50986,0.64771 1.29667,0.60157 1.81782,-0.10618 0.3342,-0.45384 0.45181,-1.34451 0.52827,-3.99951 0.0541,-1.87873 0.15833,-3.50263 0.23199,-3.60862 0.21643,-0.31165 0.27207,-7.83462 0.0602,-8.13771 -0.10645,-0.15222 -0.0779,-0.34041 0.0638,-0.41836 0.1529,-0.0841 0.16856,-0.35235 0.038,-0.66048 -0.24675,-0.58275 -0.50149,-4.67111 -0.70368,-11.29915 -0.0747,-2.44894 -0.17818,-4.73996 -0.23046,-5.09115 -0.2532,-1.70364 -0.41042,-7.0668 -0.21084,-7.18979 0.12507,-0.0781 0.12427,-1.06995 -0.003,-2.24876 -0.33835,-3.12857 -0.41215,-6.67596 -0.14198,-6.82452 0.1397,-0.0771 0.13991,-0.24189 0,-0.4028 -0.13007,-0.14965 -0.16055,-0.93816 -0.0674,-1.75259 0.0932,-0.81443 0.0736,-1.53387 -0.0437,-1.59834 -0.11729,-0.0645 -0.15203,-0.20529 -0.0771,-0.31307 0.10372,-0.15001 0.16563,-5.1623 0.0977,-7.97385 -0.005,-0.19336 0.003,-0.61518 0.0185,-0.93741 0.10387,-2.24051 -0.15301,-9.30654 -0.33489,-9.20649 -0.12345,0.0678 -0.0945,-0.0935 0.0648,-0.35837 0.15933,-0.26486 0.28961,-1.16691 0.28958,-2.00479 0,-0.8379 0.11549,-1.7941 0.2567,-2.12472 0.14129,-0.33063 0.15605,-0.60098 0.0329,-0.60098 -0.27628,0 -0.30464,-1.2016 -0.036,-1.52327 0.10763,-0.1289 0.21275,-2.44896 0.23354,-5.15571 0.0461,-5.97413 0.17968,-9.4894 0.37807,-9.95989 0.0815,-0.19333 0.22217,-1.14246 0.31223,-2.10915 0.0901,-0.96669 0.20191,-2.02125 0.24898,-2.3435 0.0471,-0.32222 0.10112,-0.82928 0.1198,-1.12689 0.0188,-0.29762 0.12287,-0.49244 0.23148,-0.43254 0.10864,0.0599 0.21609,-0.64537 0.23868,-1.56768 0.0668,-2.71697 0.20569,-4.10217 0.40072,-3.99494 0.10038,0.0552 0.0758,-0.23282 -0.0555,-0.64033 -0.1314,-0.40751 -0.17603,-0.83144 -0.0992,-0.94198 0.0768,-0.11054 0.0328,-0.20094 -0.0971,-0.20094 -0.32544,0 -0.36668,-1.588 -0.0458,-1.76449 0.14264,-0.0784 0.18426,-0.25139 0.0921,-0.38402 -0.0922,-0.13263 -0.20941,-2.04966 -0.26077,-4.260412 -0.0514,-2.21076 -0.147,-4.36086 -0.21243,-4.778092 -0.0653,-0.417224 -0.0241,-0.810426 0.0911,-0.873775 0.11528,-0.06333 0.13608,-0.51307 0.0463,-0.999194 -0.23505,-1.27311 -0.12239,-6.230396 0.37913,-16.702472 0.22804,-4.761192 0.13964,-8.043856 -0.22223,-8.248483 -0.1805,-0.102076 -0.2,-0.182335 -0.0442,-0.184459 0.3117,-0.0041 0.33062,-0.404569 0.32662,-6.916986 -0.003,-2.577854 0.006,-4.845191 0.0175,-5.038527 0.0282,-0.470696 0.21608,-3.720438 0.40637,-7.0305 0.34004,-5.915816 0.36097,-6.802036 0.16359,-6.910584 -0.1129,-0.0621 -0.15346,-0.684588 -0.09,-1.383215 0.0634,-0.698627 0.0109,-1.327832 -0.11726,-1.398317 -0.12822,-0.07049 -0.20008,-1.372587 -0.15947,-2.893217 0.0397,-1.48708 0.0124,-2.237417 -0.0813,-2.235022 z"
       id="path914-5-2"
       inkscape:export-filename="/Users/jan/Documents/repo/github/microcol/microcol-game/src/main/resources/images/colony-structures.png"
       inkscape:export-xdpi="38.919998"
       inkscape:export-ydpi="38.919998" />
  </g>
  <g
     inkscape:groupmode="layer"
     id="layer5"
     inkscape:label="fields"
     style="display:none"
     sodipodi:insensitive="true">
    <path
       inkscape:connector-curvature="0"
       style="display:inline;fill:#000000;stroke-width:0.26458332"
       d="m 146.11089,49.932315 c -0.15648,-5.5e-5 -0.25633,0.0081 -0.28422,0.02532 -0.25685,0.158753 -5.74368,0.53825 -6.62749,0.45837 -1.06209,-0.09599 -20.81477,-0.192421 -23.28333,-0.113689 -2.84964,0.0909 -31.221871,0.13365 -35.983341,0.05426 -1.96453,-0.03272 -3.81,-0.04527 -4.10104,-0.02791 -0.7257,0.04325 -11.41404,0.265343 -14.02291,0.291455 -1.164174,0.01165 -3.206974,-0.03981 -4.539274,-0.114721 -7.32002,-0.411577 -15.49056,-0.492123 -17.95238,-0.176734 -0.59679,0.07645 -0.83553,2.079563 -0.68265,5.722648 0.17423,4.152351 0.54882,4.445105 0.60769,0.474907 0.0385,-2.594237 0.36301,-3.935452 1.10175,-4.54856 0.425,-0.352711 4.16412,-0.698686 6.49521,-0.600997 0.93316,0.03911 1.51124,-0.05824 1.65364,-0.278536 0.16061,-0.248431 0.27202,-0.257967 0.41757,-0.03617 0.23058,0.35134 4.792,0.591321 5.28442,0.27802 0.1779,-0.113208 0.77321,-0.193721 1.32291,-0.178801 0.54967,0.01492 1.49707,-0.05413 2.10532,-0.153479 0.6097,-0.09959 1.46351,-0.05595 1.90272,0.09715 0.58748,0.204812 0.83027,0.19614 0.92448,-0.03359 0.0897,-0.218684 0.20947,-0.193336 0.40257,0.08527 0.28273,0.407911 0.53316,0.413368 14.351584,0.306958 1.83785,-0.01415 3.91152,-0.153462 4.60798,-0.309542 0.96094,-0.215347 1.31371,-0.20714 1.46347,0.03514 0.15173,0.24552 0.67397,0.252648 2.26086,0.02997 1.13493,-0.159245 2.17358,-0.221482 2.30786,-0.138492 0.401,0.247827 14.375731,0.355011 15.023881,0.115238 0.37172,-0.137501 1.04741,-0.086 1.78647,0.136426 0.65376,0.19675 1.43447,0.271388 1.73477,0.165881 0.30033,-0.105511 3.1061,-0.212165 6.23477,-0.237195 3.1287,-0.02503 6.16479,-0.111794 6.74688,-0.192753 0.58208,-0.08096 1.5087,-0.215439 2.0593,-0.29869 0.5506,-0.08325 1.23524,-0.02602 1.52136,0.127124 0.35567,0.190422 0.52038,0.191861 0.52038,0.0047 0,-0.150641 -0.13928,-0.273885 -0.30904,-0.273885 -0.1697,0 -0.23714,-0.07132 -0.14986,-0.158646 0.0874,-0.08733 0.31499,-0.06218 0.50591,0.05581 0.19093,0.117993 0.82389,0.2409 1.40664,0.273369 0.58277,0.03247 1.71473,0.156152 2.5151,0.274918 0.80034,0.118772 2.22909,0.124798 3.175,0.01344 2.54201,-0.299279 7.50242,-0.205577 10.38386,0.195854 1.18507,0.165097 1.78088,0.112242 2.70267,-0.239779 1.25777,-0.480332 2.69115,-0.475656 2.60294,0.0088 -0.0569,0.312253 0.99576,0.225468 1.90532,-0.157096 0.81872,-0.344358 1.73413,-0.504586 1.59472,-0.279053 -0.069,0.111636 0.55629,0.278588 1.38906,0.37052 0.83275,0.09194 2.22848,0.383408 3.10163,0.648022 l 1.5875,0.481108 0.032,4.415751 c 0.0185,2.568563 -0.0708,4.415753 -0.21394,4.415753 -0.13538,0 -0.15883,0.14116 -0.0522,0.313676 0.10652,0.172519 0.16447,0.946424 0.12867,1.719791 -0.0358,0.773369 0.0485,1.406116 0.18759,1.406116 0.37748,0 0.47963,-0.868978 0.54726,-4.645195 0.0337,-1.88365 0.12343,-3.781785 0.19894,-4.218348 0.39505,-2.282544 0.51634,-4.299383 0.27337,-4.542358 -0.26779,-0.267784 -0.8926,-0.391536 -2.42464,-0.479558 -0.72761,-0.04181 -2.49465,-0.209325 -3.9269,-0.37207 -1.07411,-0.122062 -2.05344,-0.195684 -2.52281,-0.195848 z M 38.895745,59.887781 c -0.13111,0 -0.23824,0.614983 -0.23824,1.366842 0,0.751856 0.0549,1.3125 0.12195,1.245402 0.24297,-0.242982 0.34843,-2.612244 0.11629,-2.612244 z m 0.008,2.879928 c -0.0343,0.0067 -0.0718,0.03203 -0.1137,0.0739 -0.20502,0.205018 -0.48371,6.759106 -0.30694,7.219714 0.23712,0.618008 0.70001,0.491447 0.678,-0.185518 -0.0106,-0.327422 -0.003,-2.008525 0.0156,-3.73569 0.0283,-2.550409 -0.0328,-3.4194 -0.27287,-3.372403 z m 115.477715,2.231905 c -0.0632,0.01544 -0.11248,0.469204 -0.12817,1.392679 -0.0148,0.860999 -0.0317,1.862936 -0.0377,2.226738 -0.006,0.363802 0.018,1.375832 0.0532,2.248958 0.0487,1.207614 0.11311,1.429213 0.26924,0.926042 0.11287,-0.363802 0.14306,-0.946919 0.0672,-1.296045 -0.10319,-0.474978 -0.0508,-0.581155 0.20722,-0.42168 0.26323,0.162694 0.30004,0.06227 0.15555,-0.423746 -0.10409,-0.350176 -0.24538,-1.523385 -0.3142,-2.607077 -0.0864,-1.361358 -0.19105,-2.065721 -0.27233,-2.045869 z m -31.1304,0.444417 c -0.0906,0 -0.48596,0.297656 -0.87849,0.661458 -0.39251,0.363802 -0.59772,0.661459 -0.4563,0.661459 0.14136,0 0.5367,-0.297657 0.87849,-0.661459 0.34176,-0.363802 0.54692,-0.661458 0.4563,-0.661458 z m -84.250695,6.373771 c -0.0956,-0.02871 -0.10943,0.441606 -0.18499,2.092896 -0.0366,0.800364 0.0103,2.139817 0.10387,2.97656 0.0937,0.836747 0.10261,1.521389 0.0201,1.521354 -0.081,-3.2e-5 -0.11994,0.684578 -0.0837,1.521354 0.0362,0.83678 0.0624,1.640417 0.0584,1.785938 -0.12158,4.477094 -0.0741,12.832292 0.0729,12.832292 0.10969,0 0.19946,0.297656 0.19946,0.66146 v 0 c 0,0.3638 0.11907,0.661459 0.26459,0.661459 0.14552,0 0.27101,-0.446487 0.27802,-0.99219 0.0392,-2.878765 -0.0283,-11.703275 -0.10956,-14.353646 -0.0513,-1.67349 0.006,-3.310599 0.12713,-3.638021 0.12123,-0.328483 0.11671,-0.59531 -0.009,-0.59531 -0.12594,0 -0.24175,-0.843777 -0.25733,-1.874821 -0.0156,-1.031042 -0.14439,-2.072839 -0.28578,-2.315104 -0.0906,-0.155185 -0.15086,-0.271172 -0.19431,-0.284221 z m 115.544395,4.738727 c -0.14552,0 -0.26458,0.178594 -0.26458,0.396875 0,0.218281 0.11906,0.396875 0.26458,0.396875 0.14552,0 0.26458,-0.178594 0.26458,-0.396875 0,-0.218281 -0.11906,-0.396875 -0.26458,-0.396875 z m 0.15708,2.910417 c -0.24172,0 -0.32409,0.185248 -0.2341,0.529166 0.0761,0.291044 0.24405,0.529167 0.37261,0.529167 0.12854,0 0.23358,-0.238123 0.23358,-0.529167 0,-0.291039 -0.16743,-0.529166 -0.37209,-0.529166 z m -0.25733,1.954921 c -0.0964,0.0032 -0.16433,0.108384 -0.16433,0.278535 0,0.464748 0.15869,0.532868 0.38549,0.16588 0.0837,-0.135466 0.0311,-0.320976 -0.11678,-0.412377 -0.037,-0.02286 -0.0722,-0.03312 -0.10438,-0.03204 z m 0.11679,1.214395 c -0.0555,-0.0053 -0.116,0.01728 -0.17518,0.07648 -0.0874,0.08733 -0.066,0.309612 0.048,0.494027 0.16669,0.269753 0.22926,0.269931 0.31885,0.0011 0.0959,-0.287763 -0.0251,-0.555503 -0.19171,-0.571542 z m 0.5271,9.71827 c -0.10914,0.03092 -0.18502,1.118426 -0.17209,2.534211 0.0159,1.732923 0.12822,2.74596 0.30438,2.746087 0.33245,2.43e-4 0.22942,-4.932495 -0.11009,-5.272029 -0.008,-0.0075 -0.0148,-0.01029 -0.0222,-0.0083 z M 39.478395,96.197709 c -0.31158,0.07824 -0.5034,2.938282 -0.22895,3.675229 0.11994,0.321852 0.0944,0.460972 -0.0661,0.361732 -0.50041,-0.309268 -0.25654,0.18558 0.33435,0.67851 0.32737,0.27315 0.44648,0.50056 0.26458,0.5054 -0.18505,0.005 -0.33073,0.34031 -0.33073,0.76171 0,0.41421 -0.16594,1.09881 -0.36896,1.52135 -0.28315,0.5895 -0.31535,1.19322 -0.13798,2.59313 0.12714,1.00343 0.28173,1.87495 0.34364,1.93683 0.0619,0.0619 -0.0486,0.42307 -0.24545,0.80254 -0.35883,0.69164 -0.27964,1.25413 0.14004,0.99477 0.12309,-0.0761 0.13954,0.17648 0.0367,0.5612 -0.10289,0.38472 -0.0516,1.36757 0.11369,2.18437 0.20524,1.01392 0.21715,1.72828 0.0377,2.25154 -0.17487,0.50803 -0.17466,0.90942 0,1.19062 0.15258,0.24569 0.24058,2.20589 0.20928,4.6576 -0.0365,2.85907 0.0414,4.29635 0.23926,4.42764 v 0 c 0.39511,0.2621 0.48612,0.25061 0.30697,-0.0393 -0.0822,-0.13309 -0.0387,-0.28192 0.0966,-0.33073 0.42825,-0.15447 0.2772,-14.14972 -0.21654,-20.06492 -0.1153,-1.38245 -0.12252,-2.69214 -0.0156,-2.91042 0.17794,-0.36292 0.16328,-0.94383 -0.11625,-4.487065 -0.0512,-0.648803 -0.21609,-1.220615 -0.3664,-1.270722 -0.0103,-0.0034 -0.0204,-0.0036 -0.0305,-0.0011 z m 116.220995,1.881539 c -0.0401,-0.0061 -0.0674,0.09055 -0.0754,0.283186 -0.0114,0.278913 0.0511,0.435184 0.13901,0.347266 0.0879,-0.08792 0.0976,-0.31595 0.0212,-0.506945 -0.0317,-0.07915 -0.0607,-0.119864 -0.0848,-0.123507 z m -0.10591,1.196827 c -0.19841,-0.02751 -0.25758,0.373795 -0.0151,0.666107 0.17335,0.208838 0.2201,0.438748 0.10387,0.510568 -0.18037,0.11145 -0.23122,1.03976 -0.11213,2.04845 0.0183,0.15411 0.1497,0.20811 0.29247,0.11989 0.26096,-0.16127 0.16436,-2.97499 -0.1116,-3.250966 -0.0586,-0.05864 -0.11181,-0.0877 -0.15761,-0.09405 z m -0.14833,4.847245 c -0.0757,-0.0179 -0.10644,0.0635 -0.10644,0.2496 0,0.22314 0.0866,0.49282 0.19275,0.59893 0.1061,0.10611 0.23876,0.0557 0.29456,-0.11162 0.0558,-0.16735 -0.0308,-0.43652 -0.19278,-0.59841 -0.081,-0.081 -0.14269,-0.12775 -0.18809,-0.1385 z m 0.2377,1.48932 c -0.0251,0.0165 -0.0359,0.23077 -0.0485,0.62166 -0.0172,0.53381 0.0431,1.16398 0.13383,1.40044 0.29144,0.75948 0.34319,0.29478 0.11731,-1.05627 -0.11379,-0.6807 -0.17018,-0.98699 -0.20259,-0.96583 z m 0.20672,4.14703 c -0.0474,0.005 -0.0994,0.0178 -0.15399,0.0388 -0.21828,0.0838 -0.39687,0.19913 -0.39687,0.25632 0,0.0572 0.17859,0.10387 0.39687,0.10387 0.21829,0 0.39688,-0.11537 0.39688,-0.25632 0,-0.10572 -0.1006,-0.1582 -0.24289,-0.14263 z m 0.19534,1.80558 c -0.0468,0.017 -0.17076,0.20362 -0.40772,0.57309 -0.27845,0.43409 -0.45479,1.05917 -0.39171,1.38906 0.16078,0.84114 0.582,0.74953 0.58599,-0.12764 0.003,-0.40018 0.0728,-1.02526 0.15762,-1.38906 0.0722,-0.30964 0.10263,-0.46245 0.0558,-0.44545 z m -0.52244,3.42408 c -0.16283,0.0233 -0.3461,0.16605 -0.42789,0.41134 -0.0576,0.17281 0.0838,0.3142 0.3142,0.3142 0.2304,0 0.4191,-0.18869 0.4191,-0.4191 0,-0.23362 -0.14256,-0.32971 -0.30541,-0.30644 z m -0.0693,1.72134 c -0.0209,0.0148 -0.046,0.10257 -0.0765,0.26097 -0.0631,0.32742 -0.21865,0.59531 -0.34573,0.59531 -0.12708,0 -0.22243,0.62508 -0.21185,1.38907 0.0106,0.76397 0.078,1.22672 0.14933,1.02835 0.10959,-0.3045 0.16926,-0.3045 0.385,0 0.25408,0.35871 0.21008,0.05 -0.22789,-1.5968 -0.11734,-0.4413 -0.0764,-0.57778 0.13436,-0.44752 0.20672,0.12778 0.29178,-0.0913 0.26715,-0.68833 -0.0159,-0.38824 -0.039,-0.56573 -0.0739,-0.54105 z m -0.66765,4.29586 c -0.14856,0 -0.17447,0.84805 -0.0382,1.25677 0.0626,0.18794 0.55139,0.0313 0.55139,-0.17673 0,-0.42099 -0.31308,-1.08004 -0.51316,-1.08004 z m -0.13279,2.38125 c -0.0642,0 -0.19019,0.11906 -0.28009,0.26459 -0.0899,0.14552 -0.0373,0.26458 0.11678,0.26458 0.15412,0 0.28009,-0.11906 0.28009,-0.26458 0,-0.14553 -0.0526,-0.26459 -0.11678,-0.26459 z m -0.11629,1.32447 c -0.0243,0.001 0.004,0.0667 0.0775,0.19689 0.10272,0.1819 0.0959,0.47746 -0.0151,0.65681 -0.20852,0.33738 -0.3643,1.1001 -0.3643,1.79058 -1.9e-4,0.21828 0.0103,2.09017 0.0228,4.15996 0.0124,2.06977 -0.0478,3.87745 -0.13382,4.01681 -0.0861,0.13935 -0.0299,0.33159 0.12504,0.42736 0.19629,0.12126 0.18862,0.28687 -0.0254,0.54467 -0.23956,0.28866 -0.21368,0.40609 0.11782,0.5333 0.23386,0.0897 0.3661,0.25926 0.29353,0.37672 -0.0726,0.11746 -0.19651,2.75394 -0.27493,5.85907 -0.0784,3.10514 -0.14859,5.82425 -0.15658,6.04253 -0.0487,1.3895 0.3339,12.02672 0.43616,12.12898 0.0691,0.0691 -0.003,0.2803 -0.15967,0.46922 -0.15682,0.18891 -0.19532,0.48835 -0.0858,0.66559 0.23106,0.37397 0.26911,2.01239 0.0517,2.22984 -0.0811,0.0812 -0.0873,0.37885 -0.0135,0.66146 0.16393,0.62689 0.43966,0.64726 1.09966,0.0822 0.4082,-0.34953 0.4591,-0.58572 0.26977,-1.24592 -0.12854,-0.44813 -0.24511,-1.41476 -0.25943,-2.14818 -0.066,-3.40525 -0.16719,-6.38475 -0.22479,-6.62544 -0.0352,-0.14552 -0.0462,-1.69333 -0.0259,-3.43958 0.0206,-1.74625 0.0259,-3.29406 0.0124,-3.43959 -0.0463,-0.50802 -0.0523,-3.44283 -0.008,-3.83646 0.0246,-0.21827 0.0161,-1.52796 -0.018,-2.91041 -0.0343,-1.38245 -0.0284,-4.49466 0.013,-6.91586 0.0413,-2.4212 -0.004,-4.52959 -0.10025,-4.6855 -0.0963,-0.15591 -0.15161,-1.36359 -0.12248,-2.68408 0.0375,-1.69988 -0.0481,-2.49499 -0.29405,-2.72283 -0.13645,-0.1264 -0.21315,-0.18913 -0.23771,-0.1881 z M 40.284225,126.9457 c -0.0382,0.003 -0.0818,0.0161 -0.13126,0.0351 -0.37436,0.14366 -0.43717,0.64492 -0.43717,3.49075 0,1.82769 0.0819,3.24138 0.1819,3.14141 0.22479,-0.22477 0.27982,-0.66658 0.5095,-4.08089 0.145,-2.1555 0.14463,-2.60862 -0.12297,-2.58641 z m -0.42789,7.09053 c -0.14269,0.0212 -0.27284,0.91723 -0.27284,2.67012 0,1.93067 0.0847,2.55539 0.34674,2.55592 0.26776,5.3e-4 0.33007,-0.60206 0.27286,-2.6479 -0.0488,-1.74565 -0.20409,-2.59931 -0.34676,-2.57814 z m 0.007,5.85029 c -0.0437,0.002 -0.10284,0.0442 -0.17984,0.11679 -0.27654,0.26074 -0.38025,1.44005 -0.42994,4.89479 -0.0416,2.88763 0.0243,4.4106 0.18087,4.16667 0.23704,-0.36934 0.35168,-1.79691 0.2558,-3.1874 -0.0784,-1.13766 -0.007,-2.98021 0.1788,-4.63021 0.11345,-1.00671 0.12555,-1.36621 -0.006,-1.36064 z m -0.6382,9.69501 c -0.32824,0 -0.59923,3.77823 -0.293,4.08451 0.30581,0.30578 0.34166,0.76288 0.0455,0.57981 -0.1165,-0.0711 -0.1664,0.24937 -0.11367,0.7121 0.0527,0.46274 -0.019,1.34801 -0.1597,1.96732 -0.14052,0.61932 -0.15473,1.18838 -0.0315,1.26452 0.12329,0.0761 0.15803,1.38515 0.0775,2.90887 -0.10192,1.92928 -0.0577,2.77037 0.1452,2.77038 0.43913,0 0.3523,0.37795 -0.24495,1.0666 -0.29501,0.34014 -0.60936,0.92373 -0.69815,1.29708 -0.0889,0.37334 -0.28155,0.8313 -0.42839,1.0175 -0.18008,0.22842 -0.1769,0.53681 0.0103,0.94775 0.26911,0.59062 0.39256,0.61073 4.05918,0.66094 2.07984,0.0285 3.84752,0.12004 3.92843,0.20361 0.0809,0.0836 1.33792,0.066 2.79313,-0.0393 1.4552,-0.10531 3.41974,-0.23065 4.36562,-0.27853 2.85988,-0.14477 5.92918,-0.4132 6.35,-0.55501 0.46194,-0.15566 3.432204,-0.32135 6.538624,-0.36483 1.19515,-0.0167 2.82872,-0.18265 3.63027,-0.36897 0.80156,-0.18634 1.52387,-0.27236 1.60507,-0.19121 0.34594,0.34593 1.41457,0.39586 7.98089,0.37414 4.11316,-0.0136 7.12581,-0.13147 7.42281,-0.29042 0.27493,-0.14713 0.63836,-0.18147 0.80822,-0.0765 0.16989,0.10498 3.55706,0.16753 7.52668,0.13901 5.11143,-0.0367 7.912501,0.0564 9.598901,0.31884 1.30969,0.20384 3.69094,0.37559 5.29167,0.38189 1.60073,0.006 3.77362,0.16315 4.82864,0.3483 1.05503,0.18513 1.91818,0.26988 1.91823,0.1881 5e-5,-0.0818 5.12569,-0.16099 11.3905,-0.1757 7.16365,-0.0168 11.48808,-0.12438 11.65357,-0.2899 0.29618,-0.29618 -7.41791,-0.63081 -17.35553,-0.75293 -3.34695,-0.0411 -6.97642,-0.16269 -8.06516,-0.27027 -1.08871,-0.10757 -3.52949,-0.21675 -5.42396,-0.24236 -1.89447,-0.0256 -3.92046,-0.1469 -4.50254,-0.26975 -1.85479,-0.39145 -33.638041,-0.16827 -41.275001,0.28991 -9.485164,0.56905 -11.886674,0.66209 -16.007304,0.61908 -1.96453,-0.0206 -4.40531,-0.0281 -5.42395,-0.017 -1.01868,0.011 -2.13987,-0.0438 -2.49135,-0.12144 -0.63486,-0.14025 -0.63328,-0.1445 0.20828,-0.65629 0.79629,-0.48426 0.83849,-0.58621 0.70435,-1.70377 -0.0784,-0.65379 -0.0456,-1.18856 0.0734,-1.18856 0.11906,0 0.17785,-1.63711 0.13126,-3.63802 -0.10165,-4.35643 -0.0872,-5.96931 0.0548,-6.11126 0.0582,-0.0582 -0.15677,-0.32078 -0.478,-0.58342 -0.46852,-0.38305 -0.51848,-0.54417 -0.2532,-0.81391 0.36843,-0.3746 0.46034,-3.14089 0.10437,-3.14089 z m 115.613105,17.41548 c -0.12819,-0.004 -0.2703,-0.002 -0.42529,0.007 -5.19279,0.32079 -8.56572,0.59106 -9.34775,0.74931 l -0.971,0.19689 0.92604,0.14728 c 1.52295,0.24225 9.30146,-0.0597 10.12032,-0.39274 0.81166,-0.33016 0.59512,-0.67756 -0.30232,-0.70796 z m -14.33142,0.57619 c -0.42799,0 -0.77824,0.11906 -0.77824,0.26459 0,0.14552 0.42362,0.26458 0.94154,0.26458 0.56039,0 0.87556,-0.10712 0.77825,-0.26458 -0.0899,-0.14553 -0.51358,-0.26459 -0.94155,-0.26459 z"
       id="path914-2-7"
       inkscape:export-filename="/Users/jan/Documents/repo/github/microcol/microcol-game/src/main/resources/images/colony-fields.png"
       inkscape:export-xdpi="31.02"
       inkscape:export-ydpi="31.02" />
  </g>
  <g
     inkscape:groupmode="layer"
     id="layer6"
     inkscape:label="building-queue"
     style="display:none">
    <path
       inkscape:connector-curvature="0"
       style="display:inline;fill:#000000;stroke-width:0.30579963"
       d="m 21.337342,83.373964 c -0.894828,-0.0608 -2.356259,1.18127 -1.8314,1.65468 0.218355,0.19693 0.27808,0.35812 0.133182,0.35812 -0.144807,0 -0.07481,0.16976 0.155303,0.37724 0.230015,0.20749 0.382485,0.53491 0.338952,0.7276 -0.100444,0.44501 0.394254,1.84896 0.782792,2.22157 0.162864,0.15604 0.225766,0.69182 0.140125,1.19063 -0.159324,0.92854 0.148667,2.99812 0.416283,2.79776 0.08176,-0.0612 0.236479,-1.76179 0.343749,-3.7791 0.107261,-2.01731 0.247514,-3.70991 0.311354,-3.76101 0.521103,-0.41677 25.502,-0.5616 40.807422,-0.23668 4.956945,0.10523 12.342603,0.26342 16.412703,0.35192 4.07011,0.0884 7.76595,0.26512 8.21257,0.39222 0.84295,0.23993 23.782573,0.62865 30.802143,0.52194 11.05973,-0.16807 22.24147,-0.14538 26.0397,0.0527 2.33269,0.12167 4.55242,0.22176 4.93223,0.22376 0.37988,0.002 0.87105,0.11484 1.09208,0.25218 0.47955,0.29792 3.63036,0.17797 7.05286,-0.26872 1.36071,-0.17759 2.63309,-0.31813 2.82748,-0.31213 0.7705,0.0239 8.65395,-0.009 11.42869,-0.0486 1.62028,-0.0229 3.07558,0.0772 3.2341,0.22273 0.36096,0.33148 1.05392,7.34748 0.95399,9.65729 -0.0409,0.94589 -0.20059,1.86862 -0.35549,2.05052 -0.15522,0.1819 -0.15369,0.33078 0.003,0.33073 0.15728,-5e-5 0.23803,2.589556 0.17947,5.754686 -0.0983,5.32265 -0.063,5.72228 0.47081,5.32629 0.46181,-0.34248 0.60365,-1.1365 0.70891,-3.96875 0.0725,-1.94734 0.2933,-3.94433 0.49081,-4.43797 0.1972,-0.49368 0.28918,-0.98224 0.20367,-1.085726 -0.0856,-0.10349 -0.25396,-2.55704 -0.37485,-5.45238 -0.12083,-2.89535 -0.25275,-5.56193 -0.29268,-5.92573 -0.04,-0.3638 0.15886,-1.29355 0.44108,-2.06603 0.4539,-1.24234 0.45191,-1.4507 -0.0211,-1.80454 -0.47686,-0.35686 -0.8157,-0.35641 -3.14776,0.002 -2.91477,0.4475 -5.31188,0.60007 -13.57074,0.86558 -6.68826,0.21501 -10.8707,0.14555 -11.14361,-0.185 -0.10894,-0.13118 -0.66709,-0.23286 -1.24164,-0.22686 -0.57462,0.006 -2.07895,-0.0863 -3.34245,-0.20516 -2.60245,-0.24484 -4.8705,-0.25725 -20.50001,-0.11368 -15.90986,0.14614 -36.403983,0.0248 -36.403983,-0.2155 0,-0.31862 -8.46979,-0.62811 -18.377995,-0.67179 -4.956971,-0.0219 -11.159786,-0.12856 -13.784051,-0.23668 -5.741903,-0.23659 -7.166011,-0.2474 -22.090469,-0.17415 -6.414878,0.0315 -11.934593,-0.0251 -12.267425,-0.12557 -0.05384,-0.0162 -0.111535,-0.0264 -0.171173,-0.0305 z m 0.0354,9.79114 c -0.183717,-0.0739 -0.241158,6.15145 -0.180189,19.473736 0.01064,2.4011 -0.05919,4.84188 -0.15601,5.42396 -0.09669,0.58208 -0.233621,1.71318 -0.303741,2.51354 -0.07014,0.80037 -0.161126,1.5147 -0.202938,1.5875 -0.04169,0.0728 -0.04796,0.58482 -0.01378,1.13792 0.0346,0.55312 -0.125296,1.17535 -0.354819,1.38234 -0.300281,0.27091 -0.359576,1.461 -0.211916,4.24832 0.123836,2.33763 0.05812,4.35845 -0.165655,5.09995 -0.493788,1.63643 -0.454128,5.36929 0.05931,5.60689 0.293146,0.13535 0.294736,0.3295 0.0092,0.72967 -0.446352,0.62448 -0.516337,1.1995 -0.124227,1.01803 0.288166,-0.13336 0.313144,3.29033 0.02684,3.68608 -0.09553,0.13307 -0.135149,1.25388 -0.08629,2.4908 0.146013,3.69577 0.131183,9.2464 -0.02539,9.5958 -0.0804,0.17936 -0.227676,2.40835 -0.32721,4.95319 -0.110869,2.83843 -0.321972,4.66247 -0.546685,4.71857 -0.422789,0.10549 -0.503753,0.84078 -0.09256,0.84078 0.150423,0 0.220624,1.07156 0.154635,2.38125 v 0 c -0.100046,1.983 -0.03045,2.38125 0.412141,2.38125 0.671879,0 1.080175,-0.47506 1.136933,-1.32292 0.526796,-7.86652 0.672668,-12.63806 0.458334,-14.94896 -0.05395,-0.58208 0.01349,-4.24914 0.149827,-8.14885 0.162156,-4.63512 0.12544,-7.26369 -0.108327,-7.59076 -0.200401,-0.2804 -0.221279,-0.56328 -0.04688,-0.64388 0.171131,-0.0791 0.205302,-0.53153 0.07587,-1.00511 -0.12918,-0.47361 -0.122481,-1.57641 0.01526,-2.4505 0.138607,-0.88031 0.106604,-1.71858 -0.07174,-1.87947 -0.177131,-0.15975 -0.231138,-0.35863 -0.120096,-0.44183 0.248422,-0.18599 0.542518,-3.55748 0.467311,-5.35626 -0.03045,-0.72761 -0.05958,-1.68011 -0.06626,-2.11667 -0.01659,-1.18647 0.460273,-5.48614 0.631618,-5.69371 0.266218,-0.3224 0.337643,-6.46791 0.07869,-6.77788 -0.13816,-0.16541 -0.03074,-0.43767 0.238847,-0.60513 0.360337,-0.22393 0.448368,-0.77421 0.332725,-2.08049 -0.08644,-0.97684 -0.2222,-1.92083 -0.301655,-2.09807 -0.07962,-0.17724 -0.02338,-0.37872 0.12557,-0.44752 0.148835,-0.0688 0.176795,-0.76317 0.06212,-1.54305 -0.114755,-0.77987 -0.09325,-1.82912 0.04768,-2.33113 0.140917,-0.50201 0.179935,-2.81761 0.08629,-5.145936 -0.145236,-3.61003 -0.343788,-4.86944 -1.042359,-6.61458 -0.0068,-0.0155 -0.01212,-0.0245 -0.01804,-0.0269 z M 175.98874,110.07414 c -0.0684,0.005 -0.20336,0.17096 -0.34722,0.4408 -0.24475,0.45917 -0.22024,0.83373 0.0822,1.25677 0.23692,0.33145 0.4758,0.60255 0.53084,0.60255 0.0828,0 -0.0108,-0.9357 -0.22161,-2.24896 -0.004,-0.0364 -0.0213,-0.0528 -0.0443,-0.0512 z m -0.22228,3.39566 c -0.3704,0.009 -0.45269,0.3187 -0.49357,1.46503 -0.0759,2.12982 0.0414,2.82601 0.5129,3.04426 0.22278,0.10309 0.44463,0.15805 0.49288,0.12195 0.0483,-0.0361 0.13058,-1.06997 0.18362,-2.29753 0.084,-1.945 0.0175,-2.24349 -0.51909,-2.32079 -0.0656,-0.009 -0.12383,-0.0142 -0.17674,-0.0129 z m -0.0848,4.98988 c -0.38559,0 -0.48363,1.55553 -0.14015,2.2257 0.33729,0.65789 0.67453,0.2907 0.62335,-0.67903 -0.0754,-1.42883 -0.11204,-1.54667 -0.48322,-1.54667 z m -0.2002,3.75222 c -0.0364,-0.0232 -0.0487,0.11463 -0.0353,0.41083 0.0189,0.4024 0.16673,0.87027 0.32931,1.03921 0.16068,0.16895 0.15944,0.36924 -0.003,0.44494 -0.16369,0.0757 -0.28966,2.11011 -0.28163,4.52117 0.006,2.41107 -0.078,4.38371 -0.19119,4.38371 -0.34387,0 -0.25145,1.69717 0.11121,2.04174 0.18626,0.17698 0.36304,1.08959 0.39348,2.0283 0.0302,0.93871 0.15417,1.7809 0.27477,1.8712 0.12056,0.0903 0.067,0.69966 -0.11952,1.35392 -0.22475,0.78853 -0.20792,2.05584 0.0503,3.75998 0.21439,1.41397 0.38794,6.26184 0.38794,10.77299 0,4.51113 0.003,9.29307 0.0131,10.62622 0.006,1.48413 -0.13606,2.49313 -0.37342,2.60294 -0.23918,0.11061 -0.26533,0.29734 -0.0678,0.48679 0.17617,0.16894 0.22378,0.90227 0.10579,1.62988 l -0.21467,1.32292 -8.30574,0.11575 c -11.15719,0.15542 -13.61208,0.14967 -18.37872,-0.0439 -5.95972,-0.24212 -11.22045,-0.21821 -13.4306,0.0615 -2.73067,0.34554 -16.04672,0.52623 -18.32555,0.24856 -3.61593,-0.44053 -23.262373,-0.2268 -29.918533,0.32557 -1.9439,0.1613 -4.73124,0.26969 -6.19412,0.24029 -1.4629,-0.0294 -3.10999,0.0744 -3.66,0.231 -1.38954,0.39537 -31.160733,0.68649 -41.74824,0.40825 -11.652454,-0.30623 -13.622537,-0.32321 -15.047311,-0.12816 -1.100426,0.15062 -1.732058,0.11043 -2.211738,-0.14108 -0.508172,-0.26649 -0.876917,-0.28258 -1.514502,-0.0651 -0.90092,0.30729 -1.063074,0.59831 -0.483222,0.86662 0.197568,0.0914 0.273136,0.27071 0.16774,0.39842 -0.10554,0.12775 0.646992,0.26854 1.672598,0.31265 1.025647,0.044 1.951048,0.0582 2.056434,0.032 0.413143,-0.1029 19.447501,-0.11702 29.320035,-0.0217 5.734513,0.0554 11.857793,0.009 13.607307,-0.10439 1.749515,-0.11298 6.671689,-0.26495 10.937909,-0.33745 4.26625,-0.0725 9.27621,-0.2498 11.13325,-0.39429 1.85708,-0.14449 7.51149,-0.34053 12.56563,-0.43563 9.372233,-0.17633 10.648893,-0.17471 16.470703,0.0253 6.49983,0.22334 19.91169,0.079 20.64013,-0.22221 0.42193,-0.1744 2.34529,-0.27316 4.7714,-0.24495 2.23548,0.0259 10.10828,0.10585 17.4951,0.17725 7.38683,0.0714 14.70296,0.1947 16.25809,0.2744 4.0461,0.20736 4.1479,0.2036 4.46975,-0.17621 0.36572,-0.43158 0.39247,-1.53445 0.0373,-1.53428 -0.37105,1.8e-4 -0.0841,-4.8624 0.29751,-5.04103 0.1813,-0.0839 0.18231,-0.48913 0.003,-0.95395 -0.17036,-0.44454 -0.2328,-1.11 -0.13862,-1.47846 0.0941,-0.36846 0.014,-0.89124 -0.17672,-1.1622 -0.19998,-0.2833 -0.23823,-1.02712 -0.0897,-1.74977 0.14631,-0.71198 0.12017,-1.25677 -0.0602,-1.25677 -0.175,0 -0.22743,-0.10969 -0.11655,-0.24391 0.45096,-0.54628 -0.18954,-15.6327 -1.01199,-23.83317 -0.49966,-4.98174 -0.548,-6.32489 -0.23125,-6.47144 0.19012,-0.0879 0.25545,-0.33643 0.14493,-0.55191 -0.11049,-0.21547 -0.0333,-0.54267 0.17188,-0.7276 0.23574,-0.21271 0.25224,-0.47905 0.0448,-0.7245 -0.18031,-0.2134 -0.32945,-0.656 -0.33346,-0.98341 -0.003,-0.32742 -0.1504,-0.59531 -0.32786,-0.59531 -0.17753,0 -0.13987,-0.36252 0.0835,-0.80564 0.32606,-0.64659 0.30986,-0.8501 -0.0822,-1.03145 -0.2763,-0.1278 -0.3912,-0.41622 -0.26443,-0.66353 0.1233,-0.24057 0.0782,-0.36982 -0.10009,-0.28732 -0.17823,0.0825 -0.396,-0.0916 -0.4846,-0.38706 -0.0392,-0.13046 -0.0699,-0.20259 -0.0916,-0.21652 z"
       id="path914-4-7"
       inkscape:export-filename="/Users/jan/Documents/repo/github/microcol/microcol-game/src/main/resources/images/colony-building-queue.png"
       inkscape:export-xdpi="34.599998"
       inkscape:export-ydpi="34.599998" />
  </g>
</svg>
