<?xml version="1.0" encoding="UTF-8" standalone="no"?>
<!-- Created with Inkscape (http://www.inkscape.org/) -->

<svg
   xmlns:dc="http://purl.org/dc/elements/1.1/"
   xmlns:cc="http://creativecommons.org/ns#"
   xmlns:rdf="http://www.w3.org/1999/02/22-rdf-syntax-ns#"
   xmlns:svg="http://www.w3.org/2000/svg"
   xmlns="http://www.w3.org/2000/svg"
   xmlns:sodipodi="http://sodipodi.sourceforge.net/DTD/sodipodi-0.dtd"
   xmlns:inkscape="http://www.inkscape.org/namespaces/inkscape"
   width="210mm"
   height="297mm"
   viewBox="0 0 210 297"
   version="1.1"
   id="svg3247"
   inkscape:version="0.92.2 5c3e80d, 2017-08-06"
   sodipodi:docname="colony-2.svg">
  <defs
     id="defs3241" />
  <sodipodi:namedview
     id="base"
     pagecolor="#ffffff"
     bordercolor="#666666"
     borderopacity="1.0"
     inkscape:pageopacity="0.0"
     inkscape:pageshadow="2"
     inkscape:zoom="0.35"
     inkscape:cx="390.93768"
     inkscape:cy="754.12237"
     inkscape:document-units="mm"
     inkscape:current-layer="layer1"
     showgrid="false"
     inkscape:window-width="1590"
     inkscape:window-height="1005"
     inkscape:window-x="90"
     inkscape:window-y="1"
     inkscape:window-maximized="1"
     inkscape:snap-global="false" />
  <metadata
     id="metadata3244">
    <rdf:RDF>
      <cc:Work
         rdf:about="">
        <dc:format>image/svg+xml</dc:format>
        <dc:type
           rdf:resource="http://purl.org/dc/dcmitype/StillImage" />
        <dc:title></dc:title>
      </cc:Work>
    </rdf:RDF>
  </metadata>
  <g
     inkscape:label="Layer 1"
     inkscape:groupmode="layer"
     id="layer1">
    <path
       style="display:inline;fill:#c88f5f;fill-opacity:1;fill-rule:evenodd;stroke:none;stroke-width:0.56130445px;stroke-linecap:butt;stroke-linejoin:miter;stroke-opacity:1"
       d="m -168.98197,310.21193 c 421.97035,-2.32795 517.67495,-0.9977 517.67495,-0.9977 l 1.45006,52.87747 -520.5751,-0.33259 z"
       id="path3972"
       inkscape:connector-curvature="0"
       sodipodi:nodetypes="ccccc"
       inkscape:export-filename="/Users/jan/Documents/repo/github/microcol/microcol-game/src/main/resources/images/europe.png"
       inkscape:export-xdpi="98.734848"
       inkscape:export-ydpi="98.734848" />
    <path
       style="display:inline;fill:#b0cb1f;fill-opacity:1;stroke:none;stroke-width:0.76191783px;stroke-linecap:butt;stroke-linejoin:miter;stroke-opacity:1"
       d="M -166.20032,176.31814 H 350.68037 V 306.47166 L -167.147,303.34294 Z"
       id="path817-2-3"
       inkscape:connector-curvature="0"
       inkscape:export-filename="/Users/jan/Documents/repo/github/microcol/microcol-game/src/main/resources/images/sunset.png"
       inkscape:export-xdpi="39.580002"
       inkscape:export-ydpi="39.580002"
       sodipodi:nodetypes="ccccc" />
    <path
       style="display:inline;fill:#9babe0;fill-opacity:1;stroke:none;stroke-width:0.284659px;stroke-linecap:butt;stroke-linejoin:miter;stroke-opacity:1"
       d="m -166.19382,-12.625881 518.28829,-0.02442 -0.35549,35.730683 -128.02473,2.432832 -6.13392,2.983551 c 0,0 -30.87912,-5.13624 -43.40678,2.138069 -23.11263,13.420581 -20.0439,30.800181 -38.4915,40.712523 -16.3054,8.761287 -302.24852,0.154833 -302.24852,0.154833 z"
       id="path815"
       inkscape:connector-curvature="0"
       sodipodi:nodetypes="cccccsscc"
       inkscape:export-filename="/Users/jan/Documents/repo/github/microcol/microcol-game/src/main/resources/images/sunset.png"
       inkscape:export-xdpi="39.580002"
       inkscape:export-ydpi="39.580002" />
    <path
       style="display:inline;fill:#b0cb1f;fill-opacity:1;stroke:none;stroke-width:0.74841052px;stroke-linecap:butt;stroke-linejoin:miter;stroke-opacity:1"
       d="m -166.30709,74.372024 c 0,0 250.71526,3.365414 290.27705,1.08778 C 150.43347,73.936259 153.63305,37.952491 180.23473,31.00477 224.26846,19.504212 350.95088,27.125 350.95088,27.125 v 172.73512 l -518.20534,-3.01657 z"
       id="path817-2"
       inkscape:connector-curvature="0"
       inkscape:export-filename="/Users/jan/Documents/repo/github/microcol/microcol-game/src/main/resources/images/sunset.png"
       inkscape:export-xdpi="39.580002"
       inkscape:export-ydpi="39.580002"
       sodipodi:nodetypes="csscccc" />
    <path
       style="display:inline;fill:#d2d1ee;fill-opacity:1;stroke:none;stroke-width:0.4232983px;stroke-linecap:butt;stroke-linejoin:miter;stroke-opacity:1"
       d="m -163.99478,-78.248465 517.71008,1.06907 -0.55589,63.050656 -519.21511,0.105966 z"
       id="path817"
       inkscape:connector-curvature="0"
       inkscape:export-filename="/Users/jan/Documents/repo/github/microcol/microcol-game/src/main/resources/images/sunset.png"
       inkscape:export-xdpi="39.580002"
       inkscape:export-ydpi="39.580002"
       sodipodi:nodetypes="ccccc" />
    <path
       style="display:inline;fill:#c88f5f;fill-opacity:1;fill-rule:evenodd;stroke:none;stroke-width:0.18253841px;stroke-linecap:butt;stroke-linejoin:miter;stroke-opacity:1"
       d="M -37.867373,57.011972 C 288.34604,56.693505 351.10726,54.470062 351.10726,54.470062 l -0.48261,7.233731 -405.381948,1.023578 z"
       id="path3972-3"
       inkscape:connector-curvature="0"
       sodipodi:nodetypes="ccccc"
       inkscape:export-filename="/Users/jan/Documents/repo/github/microcol/microcol-game/src/main/resources/images/europe.png"
       inkscape:export-xdpi="98.734848"
       inkscape:export-ydpi="98.734848" />
    <path
       style="display:inline;fill:#c88f5f;fill-opacity:1;fill-rule:evenodd;stroke:none;stroke-width:0.06311715px;stroke-linecap:butt;stroke-linejoin:miter;stroke-opacity:1"
       d="m 187.4297,6.7621655 5.07906,0.5316896 2.34773,28.7489279 -13.72246,0.756309 4.6689,-10.094412 z"
       id="path3972-3-8"
       inkscape:connector-curvature="0"
       sodipodi:nodetypes="cccccc"
       inkscape:export-filename="/Users/jan/Documents/repo/github/microcol/microcol-game/src/main/resources/images/europe.png"
       inkscape:export-xdpi="98.734848"
       inkscape:export-ydpi="98.734848" />
    <path
       style="display:inline;fill:#c88f5f;fill-opacity:1;fill-rule:evenodd;stroke:none;stroke-width:0.06311715px;stroke-linecap:butt;stroke-linejoin:miter;stroke-opacity:1"
       d="m 222.20359,28.610025 9.88991,-1.071927 0.61048,5.095573 -7.01526,4.244765 -6.7072,-0.147586 0.12532,-5.417195 z"
       id="path3972-3-8-3"
       inkscape:connector-curvature="0"
       sodipodi:nodetypes="ccccccc"
       inkscape:export-filename="/Users/jan/Documents/repo/github/microcol/microcol-game/src/main/resources/images/europe.png"
       inkscape:export-xdpi="98.734848"
       inkscape:export-ydpi="98.734848" />
    <path
       inkscape:connector-curvature="0"
       style="fill:#000000;stroke-width:0.26458332"
       d="m 189.29087,0.6970024 c -0.39814,-0.01 -0.7035,0.0479 -0.79428,0.19482 -0.0824,0.13332 -0.17259,1.09091 -0.2005,2.12803 l -0.0506,1.88568 -1.01132,0.27233 c -0.72218,0.19447 -1.01129,0.4162 -1.01129,0.77566 0,0.27685 0.11907,0.57725 0.26459,0.66715 0.32453,0.20055 0.3525,1.89849 0.0346,2.09496 -0.37269,0.23033 -0.58671,2.5758396 -0.70022,7.6713596 -0.15695,7.04689 -0.61407,9.17061 -3.11142,14.44305 -0.72501,1.53062 -2.41519,3.94053 -3.09956,4.41989 -0.58899,0.41253 -0.71814,1.54326 -0.20101,1.75958 v 0 c 0.64548,0.27 1.3852,0.0308 1.48259,-0.47956 0.0543,-0.28472 0.78143,-1.53488 1.61592,-2.77812 0.8345,-1.24325 1.67008,-2.73658 1.85674,-3.31866 0.18664,-0.58209 0.44162,-1.18829 0.5669,-1.34721 0.12528,-0.1589 0.14954,-0.36722 0.0537,-0.46302 -0.0958,-0.0958 -0.0489,-0.17415 0.10388,-0.17415 0.32605,0 0.53313,-0.57178 1.05471,-2.91042 0.40762,-1.82766 0.46844,-2.65389 0.70228,-9.525 0.086,-2.52857 0.31393,-4.98654 0.54105,-5.84098 0.21563,-0.8113696 0.42857,-1.6420596 0.47336,-1.8458796 0.13666,-0.62117 0.62217,-0.99424 1.2945,-0.99478 0.35166,-2.6e-4 1.11983,-0.0831 1.70739,-0.18448 l 1.06815,-0.18449 0.003,4.8560396 c 0.003,3.17513 0.12216,5.26389 0.34571,6.03426 0.18806,0.648 0.4418,2.6004 0.5638,4.33875 0.13403,1.9102 0.34433,3.23662 0.53226,3.35277 0.23053,0.14248 0.23347,0.24037 0.0103,0.37827 -0.17481,0.10807 -0.24297,0.53762 -0.16227,1.02526 0.0764,0.46159 0.2,1.97033 0.2744,3.35277 0.21114,3.92224 0.43889,4.81666 1.53429,6.01927 0.60198,0.66093 1.30019,0.76854 1.71667,0.26458 0.19955,-0.24145 0.0364,-0.57084 -0.60563,-1.2206 -1.18806,-1.20238 -1.41886,-2.67429 -1.56528,-9.99887 -0.0122,-0.60457 -0.11102,-1.04409 -0.22016,-0.97669 -0.16824,0.10395 -0.34644,-2.4847 -0.2191,-3.18223 0.0233,-0.127 -0.15975,-1.13904 -0.40669,-2.24896 -0.49294,-2.21565 -0.60044,-6.17676 -0.28887,-10.6598096 0.1669,-2.40147 0.13364,-2.88323 -0.22429,-3.24115 -0.23122,-0.23122 -0.60402,-0.42013 -0.82888,-0.42013 -0.29782,0 -0.36325,-0.16166 -0.23977,-0.59531 0.48046,-1.68725 0.46347,-1.91904 -0.18915,-2.53215 -0.47106,-0.44257 -1.79525,-0.79047 -2.67115,-0.81183 z m -0.64389,8.22688 c -0.33978,0.015 -0.35555,0.29116 -0.0915,0.87075 0.40568,0.8903596 1.71727,0.9628596 1.58853,0.0879 -0.0522,-0.35495 -0.36923,-0.66871 -0.82889,-0.82114 -0.29252,-0.097 -0.51374,-0.14428 -0.66818,-0.13745 z m -0.0156,6.6610996 c -0.53284,-0.002 -0.5443,0.37278 -0.005,1.05885 0.60288,0.76645 1.08519,0.87367 1.52807,0.34003 0.39182,-0.47212 -0.12559,-1.11741 -1.07177,-1.33687 -0.17814,-0.0413 -0.32869,-0.0616 -0.45167,-0.062 z m 0.21341,5.22242 c -0.24018,0.007 -0.47506,0.0896 -0.65061,0.2651 -0.31027,0.31031 -0.27733,0.4731 0.22067,1.08727 0.32221,0.39737 0.65174,0.7246 0.73173,0.7276 0.34441,0.0121 0.78033,-0.67722 0.78033,-1.23351 0,-0.51587 -0.55366,-0.86249 -1.08212,-0.84646 z m 138.42207,3.52795 c -1.75461,-0.002 -3.4449,0.05 -4.54237,0.16536 -2.58821,0.27207 -14.55155,0.3348 -19.15903,0.10026 -3.32566,-0.16933 -5.98586,-0.13176 -6.34122,0.0894 -0.3546,0.22067 -4.7516,0.39153 -9.93066,0.38653 -9.07415,-0.009 -28.02514,-0.29871 -29.72946,-0.45423 -1.95122,-0.17806 -4.39515,0.0639 -3.87728,0.38396 0.22699,0.1403 0.2032,0.23616 -0.0863,0.34726 -0.21984,0.0844 -0.54173,-0.0183 -0.71572,-0.22789 -0.41042,-0.49497 -1.83153,-0.4894 -2.54349,0.009 -0.79815,0.55902 -2.39342,0.70717 -2.83705,0.26355 -0.20045,-0.20044 -0.40828,-0.32617 -0.46199,-0.27957 -0.0537,0.0466 -1.10972,0.15956 -2.34662,0.25166 -2.18995,0.16298 -3.15648,0.31752 -3.96875,0.63355 -0.2183,0.0849 -0.69453,0.18686 -1.05833,0.22686 -0.3638,0.04 -1.07818,0.1584 -1.5875,0.26252 -0.50932,0.10414 -1.15533,0.15864 -1.43558,0.12144 -0.28024,-0.0372 -0.69696,0.16637 -0.92604,0.45268 -0.71702,0.89617 -1.69431,0.94405 -2.42414,0.11835 -0.35094,-0.39706 -0.76253,-0.96005 -0.91416,-1.25109 -0.3121,-0.59897 -1.29167,-0.5868 -1.90222,0.0238 -0.20516,0.20515 -0.53729,0.3731 -0.73792,0.3731 -0.20066,0 -0.46035,0.15551 -0.57672,0.34571 -0.357,0.58349 -3.3016,0.98967 -4.4111,0.60824 -0.52232,-0.17956 -1.03151,-0.40828 -1.1312,-0.50798 -0.43133,-0.43132 -1.06484,-0.0929 -1.67378,0.894 -0.36013,0.5836 -0.92567,1.12923 -1.25677,1.21233 -0.33116,0.0831 -0.60204,0.26144 -0.60204,0.39636 0,0.30542 -2.24136,1.28467 -2.94039,1.28467 -0.63918,0 -0.97271,0.76392 -0.47181,1.08107 0.2031,0.12862 0.63252,0.23572 0.95393,0.23772 0.57222,0.004 0.58169,0.0581 0.44339,2.56935 -0.1025,1.8612 -0.25167,2.64551 -0.54261,2.85822 -0.33202,0.24278 -0.33967,0.34134 -0.046,0.57465 0.25667,0.20388 1.04008,0.11153 2.83652,-0.33487 1.36504,-0.33919 2.55209,-0.68708 2.63808,-0.77308 0.303,-0.30294 -0.5924,-0.62049 -1.05368,-0.37362 -0.25294,0.13536 -0.93588,0.24598 -1.51773,0.24598 -1.24232,0 -1.39665,-0.28152 -1.32704,-2.41587 l 0.046,-1.42059 2.21639,0.0935 c 1.22645,0.0518 2.36178,-0.024 2.54146,-0.1695 0.17856,-0.14456 0.63569,-0.2609 1.01594,-0.2589 0.66273,0.004 0.68649,0.0548 0.57103,1.22783 -0.0662,0.67305 -0.22786,1.64043 -0.35915,2.14974 -0.33575,1.3027 -0.29924,2.31613 0.0889,2.45774 v 5.3e-4 c 0.1819,0.0664 0.5765,-0.10214 0.87694,-0.37466 0.30041,-0.27252 0.68736,-0.49557 0.85989,-0.49557 0.17251,0 0.31369,-0.11779 0.31369,-0.26149 0,-0.1437 0.50501,-0.58023 1.12242,-0.96996 0.61738,-0.38974 1.45121,-1.03679 1.85259,-1.43816 0.50604,-0.50604 1.14966,-0.79669 2.09962,-0.94826 1.19079,-0.19 1.39518,-0.31373 1.56425,-0.9462 0.14496,-0.54232 0.0994,-0.7276 -0.17934,-0.7276 -0.25575,0 -0.37399,-0.3137 -0.37412,-0.99219 -1.6e-4,-0.97019 0.0217,-0.99219 0.99219,-0.99219 0.81714,0 1.00695,-0.1018 1.07434,-0.57516 0.0599,-0.42071 -0.082,-0.60966 -0.52917,-0.70486 -0.45058,-0.0959 -0.40301,-0.12092 0.18243,-0.0961 1.02034,0.0432 1.45521,-0.23553 1.45521,-0.93276 0,-0.30666 0.0783,-0.47914 0.17415,-0.38344 0.0957,0.0958 0.30411,0.069 0.46302,-0.0594 0.15891,-0.12844 1.41997,-0.3129 2.80241,-0.4098 1.38243,-0.0969 2.87071,-0.2203 3.3073,-0.2744 5.50515,-0.68161 26.42695,-1.19963 27.96521,-0.69194 0.56748,0.18727 3.3128,0.36625 6.73706,0.43924 3.17854,0.0678 8.04116,0.21858 10.80606,0.33487 2.76489,0.1163 5.68193,0.18914 6.48229,0.16174 8.94022,-0.30557 9.58419,-0.35945 9.9446,-0.83457 0.19659,-0.25916 0.36089,-0.3324 0.3659,-0.16278 0.006,0.22509 1.41893,0.30024 5.23377,0.27854 2.87404,-0.0163 6.91534,0.12852 8.98033,0.32194 2.30878,0.21628 5.16149,0.29177 7.40833,0.19637 3.89343,-0.16527 11.23495,-0.42397 14.82805,-0.52296 1.55678,-0.0429 2.21522,0.0351 2.30682,0.27388 0.36679,0.95574 2.49386,-0.13502 2.51717,-1.29088 0.0137,-0.67496 -0.48951,-0.73555 -3.9982,-0.48059 -4.39616,0.31944 -7.57545,0.3117 -8.69458,-0.0212 -0.82968,-0.24679 -3.93205,-0.39693 -6.85641,-0.39946 z m -29.01633,0.8046 c 0.25249,-0.001 0.52139,0.0351 0.77671,0.10904 0.75451,0.21855 0.69485,0.24256 -0.62116,0.24856 -1.1679,0.006 -1.33236,-0.0422 -0.83405,-0.24185 0.18998,-0.0761 0.42604,-0.11453 0.6785,-0.11575 z m 25.14523,0.31523 c 0.10547,-0.002 0.20858,0.005 0.30285,0.0233 0.50056,0.0957 0.58946,0.19172 0.3302,0.35605 -0.19529,0.12377 -0.71221,0.22266 -1.14877,0.22066 -0.71652,-0.004 -0.74845,-0.0386 -0.3302,-0.35605 0.19111,-0.14511 0.52954,-0.23734 0.84592,-0.24392 z m 4.08298,0.11679 c 0.14385,0.002 0.27783,0.0211 0.3674,0.0574 0.17914,0.0725 -0.0316,0.12695 -0.46818,0.12195 -0.43657,-0.005 -0.58299,-0.0647 -0.32557,-0.13177 0.12872,-0.0335 0.28246,-0.0493 0.42635,-0.0475 z m -32.77683,0.52968 c 0.11989,0 0.2398,0.0186 0.33073,0.0553 0.1819,0.0734 0.0331,0.13332 -0.33073,0.13332 -0.36382,0 -0.51263,-0.0599 -0.33073,-0.13332 0.091,-0.0367 0.21085,-0.0553 0.33073,-0.0553 z m -107.43427,0.16588 c -0.66995,0.008 -0.45246,0.90716 0.41032,1.41284 0.93419,0.54751 1.19062,0.59903 1.19062,0.23926 0,-0.14552 0.17857,-0.26459 0.39688,-0.26459 0.21828,0 0.39687,-0.0922 0.39687,-0.20463 0,-0.26029 -1.55239,-1.06962 -2.24896,-1.17254 -0.0526,-0.008 -0.10107,-0.0109 -0.14573,-0.0103 z m 43.88879,1.1498 c 0.36187,-0.032 0.51814,0.0966 0.8263,0.42737 l 0.524,0.56223 -0.93223,0.55036 c -0.51266,0.30247 -1.15628,0.54984 -1.43042,0.54984 -0.27413,0 -0.57801,0.12872 -0.6754,0.28628 -0.0974,0.15757 -0.70977,0.51477 -1.36065,0.79375 -0.65087,0.279 -1.39311,0.50747 -1.64951,0.50747 -0.4811,0 -1.34202,-0.77868 -1.34202,-1.21388 0,-0.13544 -0.23813,-0.39495 -0.52917,-0.57671 -0.82135,-0.51294 -0.62714,-0.8697 0.46302,-0.8506 1.21642,0.0214 3.47911,-0.33601 5.15575,-0.8139 0.44228,-0.12606 0.73321,-0.20299 0.95033,-0.22221 z m -21.77592,1.08572 c -0.68252,0.008 -1.60269,0.0426 -2.81895,0.10387 -2.38231,0.12008 -5.75741,0.22241 -7.50033,0.22841 -2.80202,0.009 -3.17979,0.064 -3.26078,0.47336 -0.0806,0.40719 0.14174,0.46278 1.84587,0.46199 1.06571,-5.3e-4 3.84289,-0.13817 6.17122,-0.30593 5.33331,-0.38424 6.47263,-0.39464 6.6983,-0.062 0.0994,0.14659 0.65278,0.2948 1.22938,0.3297 0.57658,0.0349 1.07236,0.0879 1.10226,0.11782 0.0299,0.0299 0.60026,0.071 1.26709,0.0915 0.81208,0.025 1.21234,-0.072 1.21234,-0.293 0,-0.22153 -0.66537,-0.37989 -2.02416,-0.48266 -1.11327,-0.0842 -2.1109,-0.2935 -2.21692,-0.46509 -0.0903,-0.14604 -0.56785,-0.2104 -1.70532,-0.19792 z m -28.25099,0.21033 c -0.39939,2.5e-4 -3.70465,1.5422 -3.89798,1.81849 -0.0752,0.10756 -0.55364,0.35962 -1.06296,0.55966 -0.50932,0.20004 -1.55345,0.75886 -2.32029,1.24178 -0.76679,0.48292 -1.54072,0.87957 -1.71979,0.88057 -0.53946,0.004 -3.39606,2.31566 -7.05538,5.70869 -3.35907,3.11466 -4.17994,3.81372 -4.47829,3.81372 -0.16562,0 -0.30125,0.12727 -0.30125,0.28319 0,0.35751 -0.50263,0.86508 -1.25574,1.26814 -0.32073,0.17165 -1.22449,1.11326 -2.00866,2.09238 -0.78417,0.97912 -1.87256,2.25649 -2.41848,2.83858 -0.54589,0.58208 -1.34633,1.62389 -1.77869,2.31511 -0.43235,0.69123 -0.89008,1.25677 -1.01751,1.25677 -0.12745,0 -0.36472,0.4935 -0.5271,1.09657 l -0.29506,1.09606 -2.42726,-0.19327 c -1.3348,-0.10645 -2.6053,-0.18228 -2.82358,-0.16898 -0.21828,0.0134 -2.71862,-0.006 -5.55625,-0.0434 -6.65782,-0.0869 -15.54295,0.0247 -17.68626,0.22221 l -1.67897,0.15503 0.0656,-1.67742 c 0.0754,-1.92157 -0.13629,-2.60346 -0.80873,-2.60346 -0.60097,0 -0.79375,0.51407 -0.79375,2.11667 0,2.17796 0.21199,2.08476 -4.31758,1.90066 -5.60377,-0.22776 -7.7533,-0.18268 -11.55743,0.24288 -3.27292,0.36614 -7.505967,0.43287 -14.684377,0.23151 -2.03729,-0.0572 -4.95432,7.9e-4 -6.48229,0.12867 -4.28742,0.3591 -5.8596,0.32328 -10.18646,-0.23306 -2.24866,-0.28913 -2.23743,-0.28008 -2.17403,-1.81074 0.0546,-1.3192 0.0234,-1.38999 -0.64285,-1.4671 -0.68273,-0.0791 -0.70029,-0.0437 -0.71779,1.42369 -0.01,0.82756 -0.055,1.54178 -0.10025,1.58698 -0.20835,0.20835 -10.42975,0.60926 -20.17758,0.79169 -3.4925,0.0654 -7.00485,0.18503 -7.80521,0.26613 -0.80037,0.0811 -5.32473,0.20695 -10.05416,0.27905 -4.72942,0.0722 -9.167398,0.22718 -9.861938,0.34468 -1.32604,0.22431 -1.70104,0.028 -1.56217,-0.81752 0.0397,-0.24177 -0.0522,-0.51661 -0.20464,-0.61081 -0.15249,-0.0942 -0.2775,-0.62107 -0.2775,-1.17099 0,-0.95747 -0.0388,-1.00156 -0.91571,-1.03456 -0.97433,-0.0366 -1.04183,0.0915 -1.26349,2.39468 l -0.0698,0.72554 -4.89479,0.11627 c -2.6921298,0.0638 -5.1924499,0.18267 -5.5562499,0.26407 -0.3638,0.0814 -1.73303,0.13637 -3.04271,0.12247 -1.30969,-0.0139 -3.27421996,-0.0248 -4.36563,-0.0243 -2.1978,8e-4 -10.2796101,0.46216 -12.9645801,0.74001 -1.97179,0.20404 -14.50637,0.21327 -18.25625,0.0134 -4.24905,-0.22645 -5.23384,-0.36285 -6.27352,-0.87075 l -1.00252,-0.48989 0.0904,-1.51877 c 0.0861,-1.44583 0.0558,-1.53169 -0.632,-1.79317 -0.39734,-0.15103 -0.7723,-0.2245 -0.83354,-0.1633 -0.0612,0.0612 -0.13403,0.97673 -0.16175,2.0345 l -0.0506,1.92288 -0.92604,0.33434 c -0.50933,0.18369 -1.19394,0.34289 -1.52136,0.35399 -0.32742,0.0111 -0.59521,0.10945 -0.59531,0.21859 -1e-4,0.10914 -0.29755,0.21568 -0.66094,0.23668 -0.36339,0.021 -1.2267,0.33071 -1.91823,0.68833 -0.69154,0.35762 -1.61448,0.73668 -2.05104,0.84284 -0.43656,0.10616 -1.00677,0.42149 -1.2671,0.70073 -0.26033,0.27923 -0.75944,0.50798 -1.10898,0.50798 -0.34955,0 -0.70898,0.11907 -0.79892,0.26458 -0.0899,0.14552 -0.39451,0.26459 -0.67696,0.26459 -0.28246,0 -0.51366,0.11906 -0.51366,0.26458 0,0.14552 -0.23813,0.26458 -0.52917,0.26458 -0.29104,0 -0.52917,0.12598 -0.52917,0.28009 0,0.15459 -0.0989,0.2193 -0.21962,0.14469 -0.12068,-0.0746 -0.80529,0.0494 -1.52136,0.27544 -0.71606,0.22608 -1.48032,0.41726 -1.6986,0.42426 -0.21828,0.007 -0.4598,0.10916 -0.53692,0.22583 -0.0771,0.11667 -0.6298,0.29042 -1.22783,0.38602 l -1.08727,0.17415 0.1142,-1.15393 c 0.12521,-1.26669 -0.33109,-2.42314 -1.00717,-2.55333 -0.58526,-0.11272 -0.69956,0.9096 -0.55139,4.92993 0.13048,3.53992 0.30328,4.0106 1.47123,4.0106 0.64739,0 1.1879,-0.67803 0.67644,-0.84852 -0.33272,-0.1109 -0.62825,-2.85564 -0.30747,-2.85564 0.12853,0 0.35036,0.1168 0.49299,0.25941 0.16937,0.16941 0.60418,0.16421 1.25316,-0.015 0.5465,-0.15086 1.19745,-0.24907 1.44694,-0.21807 0.24947,0.031 0.75137,-0.0643 1.11517,-0.21136 0.3638,-0.14706 1.41477,-0.34324 2.33526,-0.43615 0.92049,-0.0929 1.86301,-0.27459 2.09445,-0.40411 0.23144,-0.12947 0.74885,-0.14149 1.15031,-0.0264 0.40147,0.1151 0.80289,0.13654 0.89194,0.0475 0.0891,-0.089 7.3313,-0.19354 16.09359,-0.23254 8.76229,-0.039 18.31258,-0.0899 21.22299,-0.11265 8.2068501,-0.0641 11.4885101,0.0441 11.70472014,0.3855 0.10528,0.16624 0.26504,1.18352 0.35501,2.26085 0.12263,1.46829 0.28584,2.048 0.65112,2.3151 v 5.3e-4 c 1.11204996,0.81314 1.56044996,0.02 0.81598,-1.44281 -0.19999,-0.39295 -0.34883,-1.36901 -0.33073,-2.16937 0.0292,-1.29301 0.0921,-1.44735 0.56223996,-1.38545 0.92366,0.12166 2.83951,0.0644 5.15937,-0.15399 1.27913,-0.12042 4.4167999,-0.0906 7.2760399,0.0687 2.7649,0.15411 6.09866,0.25292 7.40834,0.21962 1.30969,-0.0333 6.121308,-0.11767 10.692368,-0.18707 4.57106,-0.0694 8.61918,-0.1886 8.99583,-0.2651 0.71699,-0.14563 5.05204,-0.2379 8.5633,-0.1819 l 2.05724,0.0331 -0.0532,1.52136 c -0.0654,1.86761 0.18949,2.71198 0.81856,2.71198 0.77618,0 1.11939,-0.60921 0.68936,-1.22319 -0.28731,-0.41018 -0.31005,-0.79874 -0.10335,-1.76785 l 0.2651,-1.2423 1.36788,-0.007 c 0.7522,-0.004 3.45094,-0.0653 5.99756,-0.13694 7.53537,-0.2119 40.143327,-0.0175 40.401667,0.24081 0.0536,0.0536 0.20117,1.01988 0.32764,2.14768 0.13414,1.1961 0.39513,2.21622 0.62682,2.44791 0.73615,0.73613 0.96727,0.15387 0.79994,-2.0159 -0.19822,-2.57042 0.0153,-3.02255 1.42679,-3.02255 0.57783,0 1.15838,0.0666 1.28985,0.14779 0.1315,0.0812 2.38186,0.16073 5.00126,0.17674 2.61935,0.016 6.36984,0.0396 8.33438,0.0527 1.96453,0.0131 5.8936,0.0275 8.73125,0.0315 10.59937,0.0155 16.56451,0.12224 17.48782,0.31315 0.70319,0.1454 1.05699,0.0913 1.35546,-0.20722 0.45972,-0.45971 4.11795,-0.67001 4.73512,-0.27233 0.72766,0.46889 4.63852,0.54846 8.3039,0.16898 3.1451,-0.32564 9.52714,-0.46202 14.55208,-0.31109 1.9599,0.0589 6.48229,-0.32548 6.48229,-0.55087 0,-0.37532 -1.68484,-0.5262 -5.92005,-0.53021 -2.34651,-0.002 -4.43733,-0.11222 -4.64624,-0.24443 -0.56523,-0.35764 0.0277,-0.94728 1.52498,-1.51618 0.67974,-0.25829 1.71315,-0.72202 2.29597,-1.03043 0.5828,-0.3084 1.5353,-0.70702 2.11667,-0.88573 1.3563,-0.41694 1.78742,-0.59193 3.64371,-1.4795 1.76524,-0.84405 2.41763,-0.85998 15.00788,-0.3607 12.53831,0.49722 67.92182,0.29302 75.40625,-0.27802 2.11005,-0.16099 8.59896,-0.29087 14.41979,-0.28887 8.93175,0.003 12.19089,-0.009 19.18229,-0.0703 0.3638,-0.003 2.92365,0.0242 5.68854,0.061 4.6477,0.0619 10.58527,-0.0881 15.08125,-0.38086 1.01865,-0.0663 2.98088,-0.19412 4.36047,-0.28422 2.48668,-0.16239 15.30112,-0.17456 17.33537,-0.0165 1.60747,0.12487 3.6567,0.4722 4.10104,0.69557 0.50929,0.25601 1.5875,-0.14582 1.5875,-0.5917 0,-0.68166 -1.12358,-1.00925 -4.30104,-1.2547 -4.01138,-0.30987 -13.09889,-0.42877 -15.93959,-0.20826 -8.21534,0.63767 -10.5741,0.68424 -36.64479,0.71624 -10.98682,0.0135 -22.11917,0.15356 -24.73854,0.31161 -6.06248,0.36579 -12.34795,0.50738 -20.37292,0.45888 -9.31958,-0.0564 -24.55034,0.0395 -26.9875,0.17002 -6.80095,0.3642 -30.85036,0.0927 -33.36282,-0.37672 -0.67315,-0.1258 -2.30642,-0.18756 -3.62976,-0.13746 -1.37637,0.0521 -2.54413,-0.0232 -2.72852,-0.17622 -0.2181,-0.18104 -0.86344,-0.16819 -1.99625,0.0403 -0.92081,0.16948 -4.76994,0.34689 -8.55348,0.39429 -3.78354,0.0474 -8.18886,0.18251 -9.78958,0.30024 -3.43975,0.25258 -10.10574,0.25486 -10.35752,0.003 -0.19036,-0.19039 0.67461,-2.29805 0.94308,-2.29805 0.0894,0 0.56486,-0.68461 1.05627,-1.52135 0.81405,-1.38609 1.31199,-1.99512 3.62511,-4.43178 0.41442,-0.43656 0.72089,-0.94257 0.68109,-1.12447 -0.0398,-0.1819 0.0508,-0.33073 0.20103,-0.33073 0.31613,0 0.94179,-0.48094 2.66857,-2.05052 0.6804,-0.61847 1.31429,-1.12448 1.40869,-1.12448 0.0944,0 0.60222,-0.47626 1.1281,-1.05834 0.52586,-0.58209 1.09128,-1.0594 1.25627,-1.0604 0.16497,-10e-4 1.05815,-0.77491 1.98488,-1.71979 0.9267,-0.94487 1.7857,-1.71772 1.90892,-1.71772 0.12324,0 0.64468,-0.36948 1.15911,-0.82114 0.5144,-0.45165 1.67949,-1.20884 2.589,-1.68207 4.22719,-2.19958 5.31963,-2.81265 5.59292,-3.13934 0.16179,-0.1934 0.97867,-0.57546 1.81541,-0.84905 1.10144,-0.36014 1.52136,-0.62807 1.52136,-0.97151 0,-0.2609 -0.14883,-0.47451 -0.33073,-0.47439 z m 41.50651,0.11265 c 0.28535,0.006 0.50988,0.18324 0.66868,0.53175 0.17007,0.37324 0.40608,0.67851 0.52451,0.67851 0.11843,0 0.40677,0.37011 0.64079,0.82269 0.23405,0.45258 0.32631,0.76417 0.20516,0.69247 -0.12115,-0.0717 -0.51779,-0.008 -0.88159,0.14056 -0.7208,0.29517 -2.10756,0.4071 -3.21895,0.25941 -0.92945,-0.12352 -1.18456,-0.81986 -0.48109,-1.31258 0.29975,-0.20996 0.81862,-0.65532 1.1529,-0.9896 0.55567,-0.55568 1.02269,-0.83088 1.38959,-0.82321 z m 8.80618,0.98909 c 0.36729,-0.0249 0.55105,0.17499 0.65577,0.59221 0.26061,1.03839 -0.0978,2.2748 -0.6594,2.2748 -0.30313,0 -0.55483,0.25314 -0.65733,0.66145 -0.0913,0.36381 -0.30316,0.66146 -0.47077,0.66146 -0.16761,0 -0.63177,0.30325 -1.03145,0.67386 -0.39968,0.3706 -1.21703,0.84686 -1.81642,1.05834 -1.55834,0.5498 -1.74292,0.50454 -1.61129,-0.39223 0.11073,-0.75444 0.38989,-1.13135 1.53789,-2.07584 0.30417,-0.25024 0.63334,-0.78118 0.73174,-1.17977 0.12565,-0.50888 0.59142,-0.96114 1.56374,-1.51877 0.83899,-0.48117 1.3902,-0.73062 1.75752,-0.75551 z m -43.27591,1.04799 c -0.0622,-0.001 -0.1456,0.0158 -0.25374,0.0455 -0.27448,0.0753 -0.82661,0.20959 -1.22679,0.2987 -0.40018,0.0891 -0.72435,0.24917 -0.71935,0.35553 0.0143,0.32698 0.63143,1.02473 1.05008,1.18752 v 5.3e-4 c 0.60801,0.23641 0.84013,0.22055 0.6754,-0.046 -0.0823,-0.13309 -0.0385,-0.28193 0.0971,-0.33073 0.13568,-0.0488 0.33129,-0.42966 0.43461,-0.84594 0.12213,-0.492 0.12914,-0.66117 -0.0574,-0.66508 z m 35.75957,5.78777 c -0.21828,0 -0.39687,0.11906 -0.39687,0.26458 0,0.14552 0.17859,0.26458 0.39687,0.26458 0.21828,0 0.39688,-0.11906 0.39688,-0.26458 0,-0.14552 -0.1786,-0.26458 -0.39688,-0.26458 z m -91.63111,19.01537 c 4.79327,0.008 9.7245,0.19279 9.9286,0.39688 0.0523,0.0523 1.49037,0.0658 3.19566,0.03 1.7053,-0.0358 4.70795,0.10729 6.67248,0.31781 2.3391,0.25064 4.48503,0.31966 6.21771,0.19947 5.31278,-0.36859 6.438,-0.41524 11.20396,-0.46354 2.66965,-0.0271 4.89405,0.0159 4.94337,0.0956 0.28874,0.46719 -1.09955,1.3181 -3.18275,1.95078 -0.87315,0.26518 -1.97832,0.64639 -2.45618,0.84698 -0.47789,0.20059 -0.99158,0.36483 -1.14155,0.36483 -0.14999,0 -0.85383,0.24961 -1.56371,0.55501 -0.9956,0.42828 -1.30942,0.70748 -1.37202,1.2206 -0.0786,0.64393 -0.1533,0.66817 -2.33008,0.75447 -1.23693,0.0491 -3.49912,0.13929 -5.02709,0.19999 -1.52797,0.0607 -3.61159,0.008 -4.6302,-0.11782 -1.01868,-0.12551 -3.36672,-0.35719 -5.21777,-0.5147 -2.88912,-0.24584 -3.44623,-0.23013 -3.93415,0.11162 -0.44386,0.31089 -1.09757,0.36913 -2.98431,0.2651 -5.41451,-0.29874 -16.78982,-0.4842 -18.02627,-0.29403 -0.72764,0.1119 -5.19246,0.13495 -9.92189,0.0512 -4.72943,-0.0838 -8.85769,-0.14598 -9.17414,-0.13798 -0.43068,0.0106 -0.61962,-0.18793 -0.75189,-0.79013 -0.14944,-0.68038 -0.28517,-0.79227 -0.88003,-0.72347 -0.53856,0.0623 -0.72215,0.24627 -0.78446,0.78444 -0.0539,0.46563 -0.27842,0.75205 -0.66506,0.84905 -0.32094,0.0806 -5.225647,0.0941 -10.899087,0.03 -15.55135,-0.17573 -19.23888,-0.18499 -26.45471,-0.0656 -3.63802,0.06 -7.35873,0.0603 -8.26823,5.3e-4 l -1.65365,-0.10852 v -0.84957 c 0,-0.95118 -0.39908,-1.48466 -1.11104,-1.48466 -0.34558,0 -0.47646,0.20385 -0.47646,0.74311 0,1.61377 -0.15039,1.65776 -6.09317,1.78439 -2.9789,0.0635 -5.95199,0.17343 -6.60683,0.24443 -1.23931,0.13435 -22.409898,0.28625 -31.6177079,0.22685 -2.91042,-0.0186 -5.64885,-0.0163 -6.08541,0.005 -0.74875996,0.0368 -0.79374996,-0.0178 -0.79374996,-0.96066 0,-0.90528 -0.38923,-1.49769 -0.99219,-1.50999 -0.10914,-0.002 -0.19844,0.52337 -0.19844,1.16841 0,0.88689 -0.11287,1.2076 -0.46302004,1.31413 -0.25466,0.0774 -4.8088,0.14861 -10.1203101,0.15761 -5.31151,0.009 -12.87198,0.0677 -16.80104,0.13023 -3.92907,0.0624 -7.97719,0.10335 -8.99584,0.0909 -1.01864,-0.0124 -2.86411,-0.0123 -4.10104,0 -1.23692,0.0124 -4.65995,0.0572 -7.60677,0.0997 -2.94682,0.0425 -5.35783,0.002 -5.35781,-0.0894 7e-5,-0.29814 2.43458,-0.78926 3.14554,-0.63459 0.51072,0.11111 0.88082,-0.0266 1.41852,-0.5271 0.40018,-0.37247 0.72761,-0.60485 0.72761,-0.51624 0,0.0886 0.34578,-0.0851 0.76843,-0.38603 0.42264,-0.30095 1.01104,-0.54725 1.30741,-0.54725 0.29637,0 0.61234,-0.11907 0.70228,-0.26459 0.0899,-0.14551 0.36474,-0.26534 0.61082,-0.26613 0.24607,-7.9e-4 0.76297,-0.16666 1.14876,-0.36793 0.57378,-0.29938 2.42136,-0.74914 5.51646,-1.34359 0.21828,-0.0419 1.17078,0.0368 2.11667,0.17466 3.09483,0.45111 15.56961,0.73428 18.63969,0.42323 1.02595,-0.10393 4.72302,-0.31096 8.2155201,-0.46043 3.4925,-0.14948 6.78684,-0.3776 7.321,-0.50643 0.62149,-0.14994 1.51807,-0.12438 2.48977004,0.0703 0.99487,0.19931 2.25674996,0.23031 3.65919996,0.0904 1.78322,-0.17787 4.7995101,-0.39424 6.5060699,-0.46664 1.9212,-0.0815 6.71349,0.0365 6.93033,0.17053 0.42427,0.26221 19.634648,-0.0206 23.761338,-0.34985 0.94589,-0.0755 3.4462,-0.16764 5.55625,-0.20464 4.24683,-0.0744 15.95156,-0.41818 19.05,-0.55965 3.96663,-0.18111 6.26322,-0.0974 8.4863,0.30902 1.90423,0.34811 2.8174,0.36805 5.68854,0.12454 3.36632,-0.28549 11.6465,-0.37508 12.04268,-0.13022 0.11153,0.0689 1.66967,0.18906 3.46283,0.26716 2.40427,0.10469 3.98971,0.0224 6.038397,-0.31367 3.24911,-0.53302 18.39837,-0.7743 18.98387,-0.30231 0.22495,0.18132 0.44886,0.16882 0.70019,-0.0398 0.20325,-0.16867 1.12596,-0.29563 2.05052,-0.28164 0.92456,0.014 4.30043,-2.6e-4 7.50189,-0.032 0.66495,-0.007 1.34665,-0.009 2.03139,-0.008 z m 215.01791,5.08393 c -0.92461,-0.0227 -1.99157,0.0626 -2.86599,0.26407 -0.65315,0.15051 -3.213,0.24727 -5.68855,0.21497 -6.59164,-0.086 -16.48645,-0.002 -17.89038,0.15245 -0.67006,0.0735 -3.70615,0.30846 -6.74687,0.52245 -3.0407,0.214 -6.7785,0.48377 -8.30647,0.59893 -1.52797,0.11517 -7.3737,0.20889 -12.9904,0.20877 -8.11522,-1.6e-4 -10.29915,-0.0724 -10.63657,-0.35244 -0.24241,-0.20118 -0.65876,-0.27821 -0.97049,-0.17931 -0.3003,0.0953 -0.94538,0.0421 -1.43299,-0.11886 -1.26113,-0.41621 -4.14522,-0.48349 -9.02684,-0.21032 -6.1056,0.34165 -10.22069,0.49661 -10.98021,0.41341 -0.3638,-0.0398 -3.87614,-0.0354 -7.8052,0.0103 -16.92596,0.19677 -27.0206,0.0895 -35.24076,-0.37517 -1.19224,-0.0674 -2.65075,-0.0143 -3.24114,0.11834 -0.59042,0.1326 -1.07331,0.15266 -1.07331,0.0444 0,-0.10821 -1.39899,-0.27762 -3.10886,-0.37673 -1.70987,-0.0991 -3.52557,-0.27376 -4.03489,-0.38808 -0.50933,-0.1143 -1.2237,-0.12244 -1.5875,-0.0181 -0.36381,0.10433 -1.57845,0.2015 -2.69907,0.216 -1.12062,0.0145 -2.6089,0.1395 -3.30729,0.27802 -2.31931,0.46008 -7.56195,0.51502 -9.11262,0.0956 -1.78515,-0.48277 -6.42509,-0.50761 -7.50446,-0.0403 -0.73356,0.3176 -0.57597,0.35661 2.11823,0.52762 1.60073,0.10161 3.32711,0.24708 3.83646,0.32298 2.44467,0.36418 7.99274,0.48414 9.05991,0.19585 1.65632,-0.4475 11.37441,-0.52266 11.89744,-0.092 0.30089,0.24775 2.4333,0.36682 8.14785,0.45372 4.2573,0.0648 7.81473,0.19134 7.90493,0.28164 v 5.3e-4 c 0.0902,0.0899 0.76099,0.0891 1.49087,-0.002 0.72988,-0.0911 3.94457,-0.14734 7.14375,-0.12454 8.73853,0.0624 9.33228,0.059 19.17816,-0.11318 5.02045,-0.0878 9.58512,-0.22445 10.14357,-0.30385 0.55843,-0.0794 2.93968,-0.2017 5.29167,-0.2713 2.35196,-0.0696 4.64132,-0.18675 5.08754,-0.26045 0.72475,-0.11973 4.69807,0.20241 6.06785,0.49196 2.3463,0.49596 18.64159,0.72811 24.73854,0.35243 1.67349,-0.10311 4.50366,-0.24901 6.28954,-0.32401 1.78589,-0.075 4.64339,-0.26236 6.35,-0.41703 5.03666,-0.45648 14.42689,-0.59176 17.65525,-0.25425 3.68205,0.38493 5.39578,0.42038 8.86354,0.18449 1.52797,-0.10394 3.70838,-0.22601 4.84519,-0.2713 2.2878,-0.0911 2.98812,-0.43966 2.15233,-1.07177 -0.30467,-0.23042 -1.08717,-0.36126 -2.01176,-0.38396 z m -201.0353,3.03754 c -0.37819,-0.0135 -0.80047,0.37759 -0.80047,0.79944 0,1.65366 -6.16391,6.98872 -8.07444,6.98872 -0.26559,0 -0.67099,0.15817 -0.90073,0.3514 -0.58528,0.49227 -3.15264,1.50023 -3.82611,1.50223 -0.308,7.9e-4 -0.91736,0.19334 -1.35392,0.42788 -1.30744,0.70237 -4.60651,0.93791 -8.15248,0.58188 -0.84598,-0.0849 -1.9771,-0.0409 -2.51354,0.0977 -0.55327,0.14295 -10.82324,0.32865 -23.729837,0.42891 -30.15639,0.23426 -45.53979,0.0864 -48.02187,-0.46095 -0.65485,-0.14441 -2.52998,-0.30682 -4.16719,-0.36122 -1.63721,-0.0544 -3.05639,-0.17802 -3.15329,-0.27492 -0.0969,-0.0969 -1.40128,-0.17622 -2.89905,-0.17622 -1.49777,0 -3.65099,-0.1204 -4.78472,-0.26768 -1.13373,-0.14728 -2.95435,-0.38328 -4.04575,-0.52452 -1.09141,-0.14121 -3.175,-0.32214 -4.630208,-0.40204 -1.45521,-0.0799 -3.5388,-0.21504 -4.63021,-0.30024 -3.95914,-0.30894 -28.3710599,-0.22957 -28.9186499,0.094 -0.11628,0.0687 -0.89018,0.15782 -1.7197901,0.19792 -0.8296,0.0401 -3.71109,0.22425 -6.40322,0.40928 -4.31032,0.29644 -9.67335,0.34601 -32.14688,0.29921 -4.16542,-0.009 -5.4752,0.0664 -5.9154,0.33848 -0.14623,0.0904 -0.34037,0.0436 -0.4315,-0.10387 -0.10485,-0.16965 -2.90445,-0.27906 -7.62486,-0.29766 -4.10265,-0.0162 -8.11433,-0.063 -8.9147,-0.10387 -2.04815,-0.1045 -4.85806,-0.11486 -11.112498,-0.0419 -2.98317,0.0348 -7.2099,-0.0247 -9.39271,-0.13229 -2.18282,-0.10762 -8.552647,-0.26903 -14.155207,-0.35863 -5.60256,-0.0896 -10.54364,-0.20942 -10.9802,-0.26562 -0.43656,-0.0562 -5.17822,-0.17216 -10.53683,-0.25786 -8.78015,-0.14042 -10.28351,-0.0997 -15.21354,0.41134 -4.33629,0.44948 -6.45798,0.53779 -10.23297,0.4253 -2.61937,-0.078 -5.06016,-0.20969 -5.42396,-0.29249 -0.36381,-0.0828 -2.14974,-0.15736 -3.96875,-0.16537 -4.819,-0.021 -4.44249,-0.0774 -4.30361,0.64906 0.15184,0.79433 0.80139,0.92294 3.77445,0.74931 3.0435,-0.17776 3.29799,-0.16896 5.42396,0.18242 2.1303,0.35211 12.72574,0.15037 13.81311,-0.26304 0.36813,-0.13997 3.72131,-0.30693 7.45122,-0.37103 3.72991,-0.0641 7.6447,-0.19493 8.69973,-0.29042 1.1396,-0.10323 1.91823,-0.0733 1.91823,0.0739 0,0.13628 0.53578,0.21636 1.19062,0.17776 0.65485,-0.0386 1.19063,0.0245 1.19063,0.14004 0,0.11559 2.7682,0.20871 6.15156,0.20671 3.38336,-0.002 10.0211,0.089 14.75052,0.20154 4.729427,0.11257 11.999867,0.2304 16.156637,0.262 4.15677,0.0316 7.698868,0.14456 7.871348,0.25115 0.1748,0.10804 0.31368,0.054 0.31368,-0.12196 0,-0.23744 0.83595,-0.27087 3.37344,-0.13488 3.00612,0.16111 11.67802,0.41665 14.48593,0.42685 0.58209,0.002 3.38006,-0.0613 6.21771,-0.14108 6.26069,-0.17604 5.37965,-0.17466 15.79542,-0.0294 4.68566,0.0653 8.75138,0.19257 9.03511,0.28267 0.28373,0.0901 1.27204,0.0467 2.19625,-0.0961 0.9242,-0.14287 3.76411,-0.28883 6.31072,-0.32453 2.54662,-0.0357 6.35662,-0.22128 8.46667,-0.41237 7.9953701,-0.72412 13.3819701,-0.85152 27.38437,-0.64854 3.1897,0.0462 11.769828,0.5832 13.096878,0.81958 0.80036,0.14257 2.16959,0.31429 3.04271,0.38189 3.66522,0.28374 6.46271,0.47313 8.20208,0.55552 3.31512,0.15715 6.87019,0.43918 7.27604,0.57723 0.6652,0.22625 2.70909,0.31584 10.98021,0.48111 4.36562,0.0872 8.05656,0.20445 8.20208,0.26045 0.14552,0.056 3.24115,0.0383 6.87917,-0.0393 3.63802,-0.0776 15.12755,-0.18376 25.5323,-0.23616 10.404737,-0.0524 19.810687,-0.10864 20.902087,-0.12454 1.09141,-0.0159 3.47266,-0.004 5.29167,0.0269 1.99522,0.0336 3.60259,-0.0636 4.05194,-0.24546 0.40965,-0.16578 0.85875,-0.30128 0.99787,-0.30128 0.22667,0 2.62641,-0.62592 5.33509,-1.39164 0.5457,-0.15426 0.99218,-0.40078 0.99218,-0.54726 0,-0.1465 0.0763,-0.18983 0.1695,-0.0966 0.0932,0.0932 0.48014,0.002 0.85989,-0.20205 0.37976,-0.20415 1.31546,-0.63856 2.07947,-0.96584 0.76396,-0.32726 1.38906,-0.7002 1.38906,-0.82837 0,-0.1281 0.10414,-0.16862 0.23151,-0.0899 0.62807,0.38819 4.11954,-2.91132 5.30717,-5.01571 0.894,-1.5841 0.99529,-2.11225 0.44649,-2.32286 -0.0509,-0.0195 -0.10361,-0.0301 -0.15762,-0.032 z"
       id="path3792" />
    <g
       transform="matrix(0.54899153,0,0,0.64019588,209.49574,-33.619712)"
       id="g5256">
      <g
         transform="translate(-45.970357,-17.639789)"
         id="g5228"
         style="display:inline">
        <path
           style="fill:#d2d44f;fill-opacity:1;stroke:#d8d5db;stroke-width:0.50513047;stroke-linejoin:round;stroke-miterlimit:4;stroke-dasharray:none;stroke-opacity:1"
           id="path819"
           sodipodi:type="arc"
           sodipodi:cx="248.5367"
           sodipodi:cy="3.0791903"
           sodipodi:rx="25.295971"
           sodipodi:ry="24.173422"
           sodipodi:start="0.6149144"
           sodipodi:end="0.60537094"
           sodipodi:open="true"
           d="m 269.19902,17.024562 a 25.295971,24.173422 0 0 1 -35.20594,5.833247 25.295971,24.173422 0 0 1 -6.18811,-33.629612 25.295971,24.173422 0 0 1 35.17642,-5.993718 25.295971,24.173422 0 0 1 6.35596,33.601011"
           inkscape:export-filename="/Users/jan/Documents/repo/github/microcol/microcol-game/src/main/resources/images/sunset.png"
           inkscape:export-xdpi="39.580002"
           inkscape:export-ydpi="39.580002" />
      </g>
      <path
         inkscape:connector-curvature="0"
         id="path6048"
         d="m 201.07844,-38.805129 c -0.60338,-0.0066 -1.61762,0.03959 -2.75798,0.133325 -2.39233,0.196728 -3.82611,0.461214 -5.1387,0.947746 -1.00135,0.37112 -2.02378,0.686588 -2.2717,0.701249 -0.24791,0.0147 -0.66294,0.217969 -0.92294,0.452169 -0.1592,0.143396 -0.41214,0.271425 -0.66714,0.358634 -0.13338,0.02248 -0.25317,0.05455 -0.36432,0.09457 -0.0337,0.0046 -0.0684,0.0095 -0.10025,0.01137 -0.3618,0.0213 -0.64576,0.157715 -0.63149,0.302824 0.009,0.0933 -0.0808,0.177452 -0.21497,0.232544 l 0.009,0.08888 c -0.30936,0.288123 -0.47495,0.507834 -0.3638,0.507979 0.31195,4.3e-4 -1.42564,1.277431 -2.02365,1.487248 -0.25466,0.08935 -0.46302,0.32316 -0.46302,0.519348 0,0.196189 -0.23813,0.483995 -0.52916,0.639755 -0.29103,0.155756 -0.52917,0.498858 -0.52917,0.762227 0,0.263371 -0.23512,0.691335 -0.52245,0.951363 -0.2873,0.260027 -0.60038,0.719683 -0.69608,1.021126 -0.1929,0.607795 -0.74125,1.234034 -1.08004,1.234034 -0.21897,0 -1.67018,2.964921 -1.67018,3.412194 0,0.129524 -0.18587,0.306996 -0.41341,0.394291 -0.22751,0.0873 -0.34937,0.26254 -0.27079,0.389641 0.0786,0.127098 -0.0927,0.444065 -0.38034,0.70435 -0.2876,0.260283 -0.52296,0.685781 -0.52296,0.945678 0,0.2599 -0.11404,0.542891 -0.25322,0.628902 -0.13912,0.08601 -0.19123,0.317545 -0.11575,0.514181 0.0755,0.196633 -0.0394,0.779908 -0.25528,1.296562 -0.2159,0.516655 -0.35733,1.155757 -0.31471,1.420068 0.0426,0.264316 -0.0369,0.624424 -0.17622,0.799951 -0.13931,0.175527 -0.17331,0.44841 -0.0754,0.606682 0.0978,0.15827 0.0346,0.460661 -0.14056,0.671793 -0.17515,0.211132 -0.25796,0.616915 -0.18345,0.901754 0.0745,0.28484 0.0177,0.557029 -0.1266,0.605131 -0.14428,0.0481 -0.32665,0.887475 -0.40515,1.865002 -0.0785,0.977524 -0.23761,1.777153 -0.35346,1.777153 -0.11594,0 -0.17541,1.160859 -0.13281,2.5796872 0.0558,1.859883 0.2352,2.9857306 0.64337,4.0348958 0.31133,0.8003649 0.56629,1.6127606 0.56637,1.8050576 8e-5,0.1922944 0.1786,0.5279268 0.39688,0.7462078 0.21828,0.21828 0.39687,0.6267889 0.39687,0.907438 0,0.280646 0.11906,0.51004658 0.26459,0.51004658 0.14552,0 0.26458,0.17363308 0.26458,0.38550612 0,0.50554995 1.52402,3.0816108 2.05104,3.4669716 0.22612,0.165309 0.33892,0.4177295 0.25063,0.5606894 -0.23661,0.3828651 3.38337,3.7145854 4.66586,4.2943115 2.32344,1.0502609 3.2112,1.3580502 5.8074,2.0143473 1.94517,0.4917301 3.02858,0.6328691 3.95531,0.5152141 0.86542,-0.109871 1.70087,-0.02109 2.59519,0.275952 0.72543,0.240951 1.88319,0.535102 2.57246,0.653707 1.23245,0.212076 4.57655,0.100494 5.35419,-0.178801 0.2183,-0.07839 0.75409,-0.189264 1.19063,-0.246496 0.43656,-0.05724 0.8331,-0.22213 0.8816,-0.366386 0.0485,-0.144254 0.65881,-0.262516 1.35599,-0.262516 0.69718,0 1.75914,-0.173167 2.35954,-0.3849898 0.60036,-0.2118289 1.09255,-0.3011194 1.09554,-0.1984375 0.002,0.1026832 0.10864,0.021331 0.23668,-0.1808673 0.12805,-0.2022002 0.62768,-0.3987178 1.11001,-0.436666 0.48242,-0.03794 1.06005,-0.2894462 1.28416,-0.5586222 0.2241,-0.269177 0.75476,-0.5144653 1.17926,-0.5451863 0.42447,-0.03072 0.85602,-0.1924003 0.95911,-0.3591513 0.10811,-0.174906 0.4255,-0.227485 0.74983,-0.1245401 0.40996,0.130122 0.56223,0.06626 0.56223,-0.2361613 0,-0.2843951 0.24944,-0.4149616 0.79375,-0.4149616 0.43656,0 0.79375,-0.1190625 0.79375,-0.2645834 0,-0.1455211 0.22803,-0.2645833 0.50695,-0.2645833 0.2789,0 0.54681,-0.1168427 0.59531,-0.2599325 0.0485,-0.1430912 0.6186,-0.5300448 1.26659,-0.8598958 0.72284,-0.3679592 1.37408,-0.9578441 1.68517,-1.526005 0.27893,-0.5093242 0.49132,-0.9561512 0.47232,-0.9932212 -0.019,-0.03707 0.14544,-0.4983435 0.36536,-1.0247437 0.21995,-0.526397 0.39997,-1.21386519 0.39997,-1.52755518 0,-0.31369 0.22211,-0.76029925 0.49351,-0.99270422 0.27147,-0.2324042 0.57901,-0.8840547 0.68368,-1.4479735 0.10467,-0.5639237 0.34811,-1.2038537 0.54054,-1.4221354 0.19243,-0.2182813 0.4844,-0.9028904 0.64905,-1.5213542 0.16468,-0.618463 0.41405,-1.1244791 0.55397,-1.1244791 0.13991,0 0.25425,-0.231208 0.25425,-0.513664 0,-0.282448 0.10465,-0.5777883 0.23255,-0.6568075 0.39441,-0.243795 0.7064,-4.2962696 0.54156,-7.0316116 -0.0365,-0.605906 -0.64475,-3.445622 -1.26142,-5.886979 -0.13784,-0.545703 -0.1895,-0.992188 -0.1142,-0.992188 0.0753,0 0.0167,-0.148828 -0.13023,-0.330729 -0.25495,-0.315727 -0.7415,-2.50533 -0.6444,-2.900081 0.0255,-0.103563 -0.30943,-0.836753 -0.74414,-1.628842 -0.43466,-0.792087 -0.79014,-1.682385 -0.79014,-1.97869 0,-0.296306 -0.10787,-0.605259 -0.23977,-0.68678 -0.13189,-0.08151 -0.42754,-0.698651 -0.65681,-1.371492 -0.3896,-1.14332 -1.30612,-2.442095 -2.94297,-4.168221 l -0.061,-0.617534 c -0.25443,-0.07878 -0.51269,-0.155655 -0.76378,-0.227376 -0.82952,-0.81475 -1.10575,-0.903722 -2.14716,-0.888318 -0.0927,0.0014 -0.16393,0.0078 -0.24494,0.01189 -0.13671,-0.15022 -0.32264,-0.214343 -0.45269,-0.141077 -0.15613,0.088 -0.58193,-0.05903 -0.94568,-0.326078 -0.36375,-0.267042 -0.93513,-0.469283 -1.2702,-0.449585 -0.33507,0.0197 -0.71107,-0.07242 -0.83561,-0.204639 -0.12451,-0.13221 -0.42826,-0.166703 -0.67438,-0.07648 -0.24612,0.0902 -1.00929,0.01999 -1.69654,-0.156063 -0.68726,-0.176109 -1.52532,-0.26874 -1.8619,-0.206189 -0.3366,0.0625 -0.80856,0.01035 -1.04851,-0.115238 -0.2399,-0.125608 -0.59516,-0.139012 -0.78962,-0.02946 -0.19447,0.109519 -0.59014,0.06972 -0.87953,-0.08888 -0.28936,-0.158649 -0.82092,-0.210604 -1.18081,-0.114722 -0.35991,0.0959 -0.71605,0.0602 -0.7922,-0.0801 -0.0761,-0.140221 -1.17632,-0.258862 -2.44429,-0.263033 -1.26791,-0.004 -2.31461,-0.102035 -2.32596,-0.217558 -0.004,-0.04332 -0.21821,-0.06628 -0.57981,-0.07028 z m -0.18449,1.619539 c 0.63121,-0.0049 1.07124,0.01948 1.13223,0.08423 0.10858,0.115398 0.5829,0.186814 1.05317,0.159163 0.4703,-0.0277 1.20386,0.06942 1.63039,0.215491 0.42651,0.146101 1.65265,0.198905 2.7249,0.117306 1.11072,-0.0844 2.1503,-0.0227 2.41587,0.14366 0.2564,0.160549 0.61979,0.286067 0.8077,0.278019 0.94906,-0.0383 3.87192,0.247006 4.40955,0.430465 0.33737,0.115089 1.02191,0.48081 1.52187,0.81287 0.49998,0.332039 1.26197,0.585593 1.69292,0.563273 0.43095,-0.0223 1.18978,0.169652 1.68672,0.425814 0.39878,0.205581 0.84493,0.375054 1.11311,0.429948 0.63762,0.663969 1.12706,1.234411 1.12706,1.376143 0,0.193099 0.10468,0.350883 0.23255,0.350883 0.12788,0 0.37975,0.386954 0.56017,0.859896 0.18036,0.472943 0.55195,1.364913 0.82579,1.981791 0.27376,0.616876 0.4992,1.212189 0.4992,1.322917 6.1e-4,0.110725 0.27701,0.744848 0.61443,1.409733 0.33732,0.66489 0.88265,2.2127 1.21129,3.439583 0.32869,1.226883 0.82385,3.004775 1.10071,3.950664 0.98383,3.361128 1.20663,8.740665 0.42685,10.3037631 -0.2187,0.4383879 -0.33437,1.0379274 -0.25735,1.3322184 0.0769,0.2942881 0.016,0.5348512 -0.13487,0.5348512 -0.151,0 -0.35268,0.3571859 -0.44856,0.79375 -0.0959,0.436562 -0.2841,0.7937497 -0.41806,0.79375 -0.13396,0 -0.2434,0.229916 -0.2434,0.510563 0,0.2806481 -0.17858,0.6886403 -0.39687,0.9069213 -0.2183,0.2182802 -0.40115,0.6139616 -0.40514,0.8790162 -0.005,0.2650569 -0.17964,0.7078191 -0.38861,0.9839193 -0.20902,0.2761001 -0.31688,0.6038865 -0.23978,0.7286376 0.20101,0.32524697 -2.16844,4.919709 -2.93005,5.6813071 -0.20023,0.2002398 -0.6707,0.363802 -1.0449,0.363802 -0.3742,0 -0.68006,0.1002393 -0.68006,0.2227252 0,0.1224862 -0.50601,0.3729752 -1.12448,0.5565553 -0.61848,0.1835841 -1.24354,0.4292288 -1.38906,0.5462198 -0.14552,0.1169911 -0.68131,0.2539786 -1.19063,0.3038576 -0.50932,0.04988 -1.14247,0.285577 -1.40715,0.5239988 -0.26467,0.23842 -0.71115,0.3732115 -0.99219,0.2997235 -0.28102,-0.07349 -0.51108,-0.02042 -0.51108,0.1178221 0,0.138239 -0.14882,0.2658946 -0.33073,0.2837037 -0.46391,0.04543 -2.55721,0.5191464 -3.50572,0.7932333 -0.43653,0.126158 -1.47837,0.1946253 -2.31511,0.1524455 -0.83674,-0.04218 -1.52135,0.02374 -1.52135,0.1462442 0,0.122502 -0.35718,0.3705576 -0.79375,0.5513877 -0.43655,0.1808289 -0.79375,0.4502708 -0.79375,0.5989291 0,0.390865 -3.83916,0.07369 -5.29167,-0.437182 -0.65484,-0.2303182 -2.02404,-0.4220109 -3.04271,-0.4258137 -1.01864,-0.0038 -2.49743,-0.178716 -3.2861,-0.3886068 -0.78863,-0.209881 -1.5411,-0.3151254 -1.67225,-0.2340943 -0.21529,0.1330589 -1.76215,-0.5207112 -4.88807,-2.0655071 -2.15041,-1.0627058 -5.23864,-5.0360289 -6.44509,-8.2925168 -0.32348,-0.8731252 -0.68942,-1.6273578 -0.81338,-1.6758668 -0.12388,-0.04851 -0.22532,-0.3089648 -0.22532,-0.5792928 0,-0.270325 -0.11906,-0.5653172 -0.26458,-0.655257 -0.14552,-0.08994 -0.26458,-0.434368 -0.26458,-0.7653282 0,-0.3309599 -0.0893,-0.6908501 -0.19844,-0.799951 -0.27432,-0.2743362 -0.29484,-5.1722915 -0.0222,-5.3407595 0.12144,-0.07503 0.22066,-0.43517 0.22066,-0.799951 0,-0.364781 0.13991,-0.923414 0.31057,-1.241268 0.17068,-0.317852 0.29497,-1.259277 0.27647,-2.092379 -0.019,-0.86299 0.10381,-1.659882 0.28526,-1.852083 0.17513,-0.185544 0.32153,-0.456509 0.32452,-0.60203 0.0174,-0.734819 0.47337,-2.967038 0.68782,-3.367753 0.13454,-0.251446 0.53926,-0.751675 0.89968,-1.112077 0.3604,-0.3604 0.65793,-0.928937 0.66095,-1.262972 0.003,-0.334037 0.23893,-0.904855 0.52348,-1.268656 0.28455,-0.363802 0.52049,-0.792015 0.52348,-0.951364 0.003,-0.159347 0.24383,-0.505039 0.53485,-0.768428 0.29104,-0.263387 0.52917,-0.628527 0.52917,-0.81132 0,-0.182787 0.34312,-0.620924 0.76223,-0.973584 0.41916,-0.352664 0.84008,-0.887917 0.93586,-1.189592 0.0958,-0.301672 0.34845,-0.615475 0.5612,-0.697115 0.21275,-0.08164 0.38654,-0.328208 0.38654,-0.548286 0,-0.220076 0.30917,-0.477796 0.68678,-0.572575 0.43923,-0.110224 0.57294,-0.242464 0.37155,-0.366903 -0.21336,-0.131876 0.041,-0.546647 0.78962,-1.287777 0.60737,-0.601353 1.20139,-1.093473 1.31982,-1.093473 0.0662,0 0.14779,-0.06306 0.22324,-0.15658 1.06153,-0.381172 1.96043,-0.787202 2.0097,-0.911572 0.0504,-0.127198 0.37651,-0.247711 0.72502,-0.268201 0.34851,-0.0205 0.71684,-0.161756 0.81855,-0.313676 0.10165,-0.151918 0.53397,-0.296856 0.96067,-0.321944 0.42668,-0.0251 0.88183,-0.141291 1.01182,-0.258382 0.24505,-0.22075 3.85742,-0.496394 5.75107,-0.51108 z"
         style="fill:#000000;stroke-width:0.26458332" />
    </g>
    <path
       style="fill:#000000;stroke-width:0.26971227"
       d="m 60.193836,304.97391 -4e-6,0.001 c -1.197752,-0.002 -2.378107,0.0433 -2.477757,0.13839 -0.09923,0.0947 -0.448413,0.17124 -0.776063,0.16986 -0.327639,-0.001 -0.667699,0.0663 -0.755759,0.15029 -0.112681,0.10751 -3.521581,0.16059 -8.298542,0.15986 l -0.0041,0.97461 c -0.600922,0.0444 -1.065435,0.11243 -1.098167,0.2057 -0.06584,0.18739 -0.462887,0.19733 -1.216635,0.0311 -0.714397,-0.15763 -1.90779,-0.14599 -3.300548,0.0316 -1.225958,0.15629 -2.746951,0.18687 -3.473127,0.0696 -0.71062,-0.11472 -1.539648,-0.17851 -1.842251,-0.14161 -1.509879,0.18422 -2.976817,0.0128 -3.274326,-0.38225 -0.224749,-0.29837 -0.535673,-0.36947 -1.063811,-0.24425 -0.410335,0.0973 -0.746726,0.28017 -0.747259,0.40664 -0.0012,0.27342 -8.95064,0.14661 -9.236568,-0.13091 -0.108441,-0.10524 -0.362263,-0.0607 -0.564504,0.0994 -0.269112,0.21308 -0.829058,0.20603 -2.08752,-0.0274 -1.275637,-0.23662 -2.067934,-0.24546 -3.068255,-0.0336 -0.741643,0.15708 -2.694009,0.34132 -4.339309,0.40908 -4.5872614,0.18891 -5.3858179,0.33932 -5.0008971,0.94426 0.1264385,0.1987 0.017522,0.22311 -0.3398311,0.0756 -0.2889455,-0.11928 -0.8737116,-0.27613 -1.2996489,-0.34809 -0.4259399,-0.072 -0.9180786,-0.35455 -1.0941214,-0.62835 -0.3416181,-0.53127 -1.0119454,-0.68168 -1.0138585,-0.2275 -0.0017,0.40339 -1.1847321,0.7625 -1.556411,0.47248 -0.1990825,-0.15533 -0.3533195,-0.14079 -0.4168461,0.0401 -0.055427,0.15783 -0.3698164,0.30536 -0.6985007,0.32779 -0.32868707,0.0224 -0.65216926,0.24001 -0.71938046,0.48325 -0.10739095,0.3887 0.0982481,0.42931 1.69988686,0.3348 1.0021187,-0.0592 1.945911,-0.10533 2.0971169,-0.1028 0.1512058,0.003 1.2141596,0.0321 2.3619518,0.0657 1.1478031,0.0336 2.2112841,-0.0122 2.363191,-0.10164 0.1519046,-0.0896 0.9794546,-0.12243 1.8394287,-0.0729 0.859972,0.0495 1.623233,-0.001 1.69592,-0.11379 0.07269,-0.11217 1.84752,-0.19415 3.944557,-0.18233 2.184273,0.0122 4.047239,-0.0979 4.361553,-0.25809 0.301764,-0.15381 0.626639,-0.20427 0.721539,-0.11222 0.09491,0.0921 1.007324,0.19959 2.028097,0.23902 1.020793,0.0394 2.907394,0.14783 4.192353,0.24092 2.269072,0.16434 10.439946,0.53216 11.27047,0.50738 7.981193,-0.238 10.082676,-0.3502 10.299483,-0.54934 0.144169,-0.13248 0.612129,-0.23925 1.040296,-0.23745 0.463703,0.002 0.87101,-0.24401 1.010075,-0.51666 0.242474,-0.007 0.490117,-0.0147 0.739257,-0.0227 -0.0038,0.1653 0.04393,0.28236 0.138233,0.28276 0.128271,5.4e-4 0.233977,-0.13088 0.249766,-0.2966 0.08043,-0.003 0.161186,-0.006 0.242168,-0.009 0.0021,0.004 0.0027,0.005 0.0059,0.008 0.296044,0.45387 3.969826,0.33142 4.473377,-0.14909 0.02305,-0.022 0.03545,-0.0393 0.05507,-0.0598 0.17305,-0.007 0.330664,-0.0164 0.508302,-0.0227 -0.129277,0.26041 0.108667,0.47708 0.69556,0.49693 0.41579,0.014 1.064572,0.13851 1.442035,0.27689 0.377471,0.13835 0.934101,0.17075 1.236953,0.0718 0.302854,-0.0989 1.973347,-0.13771 3.712134,-0.0861 2.551638,0.0756 3.360027,0.006 4.190636,-0.36166 0.271746,-0.12024 0.480453,-0.24031 0.625704,-0.35342 0.959446,0.036 1.902837,0.0767 2.796458,0.12805 2.494482,0.14319 7.876001,0.29326 11.958747,0.33355 4.08273,0.0403 7.984871,0.16308 8.671353,0.2727 0.715363,0.11427 1.561932,0.0857 1.983618,-0.0665 0.404658,-0.14611 0.796395,-0.17034 0.8703,-0.0542 0.07391,0.11617 0.910068,0.24116 1.858172,0.2781 0.948072,0.0369 1.765598,0.10745 1.816113,0.15648 0.0505,0.049 0.485786,0.0461 0.968006,-0.007 0.48218,-0.0528 2.54411,-0.16881 4.58188,-0.25767 1.91012,-0.0833 2.98792,-0.1758 3.69242,-0.33741 0.74119,0.0417 1.63459,0.0713 2.48538,0.0751 1.51084,0.007 3.07396,0.0981 3.47356,0.20276 0.99501,0.26054 18.21219,0.28425 18.21339,0.025 5.3e-4,-0.11425 0.25252,-0.077 0.56001,0.0829 0.30746,0.15997 0.77087,0.2297 1.03013,0.15473 0.65455,-0.18928 7.29959,-0.40876 10.78293,-0.35612 4.0374,0.061 4.25439,0.0542 6.87425,-0.22734 2.61825,-0.2814 4.81183,-0.18164 5.33914,0.24313 0.23252,0.18735 1.9156,0.24217 4.99782,0.16265 2.55568,-0.0659 7.12105,-0.10706 10.14536,-0.0911 3.02434,0.0157 5.65768,-0.0682 5.85235,-0.1872 0.19532,-0.11949 0.2759,-0.4154 0.17946,-0.66021 -0.14725,-0.37373 -0.53707,-0.43451 -2.47928,-0.38612 -1.26757,0.0316 -2.30489,0.14676 -2.30849,0.25589 -0.005,0.27936 -1.03925,0.24396 -1.22111,-0.0419 -0.19982,-0.31406 -2.07851,-0.52459 -2.07974,-0.23302 -5.3e-4,0.12544 -0.21779,0.20161 -0.48231,0.16902 -0.26453,-0.0326 -0.71265,0.0358 -0.99684,0.15238 -0.29962,0.12286 -0.90232,0.0761 -1.43421,-0.11148 -0.50444,-0.17792 -1.57101,-0.32695 -2.36989,-0.3314 -3.89251,-0.0214 -8.67254,-0.21849 -9.28978,-0.3833 -0.38586,-0.10305 -1.11302,-0.0315 -1.65036,0.16254 -0.89265,0.32229 -3.67962,0.38659 -7.97136,0.18346 -2.01054,-0.0952 -10.12106,0.15766 -10.70621,0.33371 -0.25394,0.0764 -1.07236,0.0265 -1.81896,-0.11103 -0.74658,-0.13748 -1.48254,-0.15942 -1.63457,-0.0488 -0.15209,0.11075 -4.66365,0.18674 -10.02596,0.16915 -6.88871,-0.023 -9.77966,0.0542 -9.85233,0.26132 -0.0663,0.18869 -0.26574,0.20812 -0.56059,0.055 -0.40043,-0.208 -1.07176,-0.3587 -1.97929,-0.45276 l 0.002,-0.4501 c -2.23622,0.23427 -3.36372,0.25547 -4.8291,0.0794 -1.56081,-0.1875 -1.76874,-0.16231 -1.6271,0.19728 0.009,0.0234 0.0148,0.0413 0.0221,0.0616 -0.15802,-0.01 -0.312,-0.0226 -0.47026,-0.0408 -0.0356,-0.0222 -0.0548,-0.0322 -0.0951,-0.0578 -0.48856,-0.31093 -1.28449,-0.38062 -1.66365,-0.22095 -0.39616,-0.0949 -0.67447,-0.19925 -0.67414,-0.27671 5.1e-4,-0.12165 -0.31675,-0.10606 -0.705237,0.0342 -0.388475,0.14029 -1.316908,0.25232 -2.063145,0.24918 -0.687209,-0.003 -1.247267,0.0975 -1.339337,0.23052 -0.23094,-0.005 -0.52943,-0.0149 -0.587985,-0.0105 -0.0474,0.004 -0.145217,0.003 -0.218203,0.005 0.138144,-0.0291 0.238227,-0.0842 0.238611,-0.1752 4.79e-4,-0.1138 -0.315114,-0.23361 -0.701324,-0.26601 -0.406945,-0.0341 -0.631773,0.0517 -0.534609,0.20447 0.07454,0.11717 0.268385,0.19771 0.481136,0.2361 -0.871904,-0.0146 -2.186344,-0.078 -3.262009,-0.14809 -0.210704,-0.23783 -0.672325,-0.34246 -1.206573,-0.20972 -0.10569,0.0263 -0.224721,0.0483 -0.346722,0.0688 -0.0031,-8e-4 -0.01409,-0.002 -0.01649,-0.003 -0.07555,-0.0247 -0.415977,-0.024 -0.756728,8.1e-4 -0.340772,0.0252 -1.008665,-0.14291 -1.484196,-0.37367 -1.119428,-0.5432 -1.914392,-0.55552 -1.705975,-0.0263 0.03126,0.0793 0.05173,0.14532 0.04172,0.20172 -0.691311,-0.0686 -1.685914,-0.12675 -2.741567,-0.14694 -2.447282,-0.0468 -2.920065,-0.0332 -3.006806,0.2855 -0.854526,-0.0254 -1.498329,-0.0425 -2.635959,-0.0783 -2.571557,-0.0808 -4.860272,-0.28355 -5.414772,-0.47912 -0.724805,-0.25562 -1.126579,-0.26673 -1.637778,-0.0451 -0.460126,0.19944 -1.236358,0.21792 -2.419943,0.0575 -0.95824,-0.12988 -2.608241,-0.20387 -3.666911,-0.16428 -1.058722,0.0395 -2.020529,0.0182 -2.137459,-0.0477 -0.16978,-0.0956 -1.38521,-0.14568 -2.582982,-0.14783 z m 138.230684,0.86182 c -1.31148,0.008 -2.94005,0.19693 -3.39772,0.48281 -0.38304,0.2393 -0.67016,0.2986 -0.66948,0.13776 8.1e-4,-0.1934 -2.24014,-0.27465 -7.1468,-0.25905 -3.9316,0.0125 -7.14765,0.0822 -7.14481,0.15492 0.003,0.0728 0.11925,0.3114 0.26172,0.53028 0.2651,0.40731 -0.0806,0.39992 15.86734,0.34846 1.08811,-0.003 2.32499,0.13087 2.74838,0.2989 0.77758,0.3086 5.56798,0.4194 31.42379,0.72511 6.57769,0.0778 12.14479,0.217 12.37127,0.30944 0.65444,0.26724 2.7628,0.37158 2.91027,0.14405 0.0737,-0.1138 0.43017,-0.0973 0.79223,0.0369 0.4486,0.1663 0.69205,0.14833 0.76387,-0.0562 0.0724,-0.20607 1.04796,-0.27215 3.11239,-0.21065 1.65379,0.0493 4.67847,0.11931 6.72151,0.15545 2.043,0.0361 3.8929,0.17303 4.1112,0.30413 0.17009,0.10209 1.91061,0.21135 4.16932,0.27748 l -0.001,0.30851 c 1.70492,0.002 4.0008,-0.0539 6.39716,-0.16115 1.48636,0.047 2.70587,0.0999 3.2386,0.14747 1.16684,0.10421 1.90415,0.062 2.01895,-0.11501 0.12275,-0.18939 0.28752,-0.19198 0.51515,-0.009 0.1843,0.14844 0.8849,0.25421 1.5561,0.23497 1.61227,-0.0462 6.8881,0.29566 7.05442,0.45708 0.0718,0.0697 0.42688,0.0197 0.78859,-0.11088 0.36176,-0.13064 0.81351,-0.1906 1.00367,-0.13323 0.19008,0.0573 0.87055,0.17697 1.51285,0.26631 0.91038,0.12659 1.16829,0.0785 1.16954,-0.21937 7.2e-4,-0.17124 -0.18392,-0.37236 -0.43587,-0.4974 0.36834,0.02 0.84681,0.0404 1.31257,0.0603 -0.0477,0.10148 -0.092,0.23552 -0.15129,0.419 -0.16628,0.51511 -0.0447,0.52872 4.84348,0.54491 2.75789,0.01 5.16082,-0.0719 5.33986,-0.18007 0.17903,-0.10828 0.40397,-0.0736 0.4999,0.077 0.0959,0.15064 0.31644,0.19022 0.49026,0.0879 0.17388,-0.10241 0.81541,-0.20708 1.42556,-0.23223 0.61012,-0.0251 2.40871,-0.13089 3.99694,-0.23485 0.35639,-0.0233 0.5705,-0.0358 0.88733,-0.0563 0.84101,0.0361 1.524,0.0734 1.75457,0.11023 0.71538,0.11428 1.56191,0.0857 1.98362,-0.0665 0.40467,-0.14612 0.79639,-0.17035 0.8703,-0.0542 0.074,0.11614 0.91008,0.24117 1.85818,0.27807 0.94811,0.0369 1.76508,0.10748 1.81557,0.15651 0.0505,0.049 0.48633,0.046 0.96855,-0.007 0.48214,-0.0528 2.5436,-0.16881 4.58134,-0.25767 2.88388,-0.12578 3.88994,-0.26904 4.53932,-0.64649 0.0735,-0.0427 0.1492,-0.0784 0.22401,-0.11585 l 0.004,-0.95807 c -0.98093,0.10276 -1.74307,0.16202 -2.41941,0.18412 -0.52272,-0.33775 -1.71995,-0.64403 -2.42752,-0.54715 -0.48666,0.0667 -0.88526,0.19666 -0.88565,0.28927 -7e-5,0.017 -0.0619,0.0333 -0.15027,0.0485 -0.31014,-0.0181 -0.48652,-0.005 -0.56057,0.0508 -0.26143,0.0167 -0.57412,0.03 -0.94635,0.0394 -0.51934,-0.17327 -1.13959,-0.16831 -1.38259,0.0159 -0.034,-6e-5 -0.0621,7.4e-4 -0.0963,5.9e-4 -1.72455,-0.007 -3.07146,0.0877 -2.99317,0.21063 0.005,0.008 0.004,0.0144 -9e-5,0.0212 -1.06576,-0.0473 -2.01121,-0.0796 -2.16985,-0.0675 -0.29874,0.0226 -1.17466,-0.004 -2.11725,-0.0435 -0.99536,-0.0678 -1.8446,-0.12302 -2.0243,-0.12841 -0.26464,-0.008 -0.48061,-0.10833 -0.48013,-0.22269 0.001,-0.30165 -0.93977,-0.25886 -1.27157,0.0576 -0.0132,0.0126 -0.0311,0.0224 -0.0453,0.0344 -0.11968,0.003 -0.24724,0.005 -0.38429,0.016 -0.34073,0.0252 -1.00867,-0.14295 -1.48419,-0.37368 -1.11941,-0.54323 -1.91445,-0.55555 -1.70599,-0.0263 0.20686,0.52512 0.12081,0.52806 -8.34261,0.26201 -0.57789,-0.0181 -1.13303,-0.0442 -1.66586,-0.0731 -0.012,-0.0981 -0.0697,-0.16773 -0.16798,-0.16814 -0.0659,-2.8e-4 -0.14004,0.0584 -0.21028,0.14638 -1.65668,-0.10008 -2.97121,-0.24335 -3.37065,-0.3842 -0.72479,-0.25565 -1.12659,-0.26676 -1.63777,-0.0452 -0.46012,0.19945 -1.23635,0.21793 -2.41994,0.0575 -0.95825,-0.12988 -2.60824,-0.20387 -3.66691,-0.16428 -1.0587,0.0396 -2.02053,0.0182 -2.13746,-0.0478 -0.16946,-0.0956 -1.38483,-0.14565 -2.58246,-0.14783 -1.19778,-0.002 -2.37812,0.0433 -2.47775,0.13839 -0.0993,0.0947 -0.44841,0.17124 -0.77607,0.16986 -0.32761,-0.001 -0.66772,0.0663 -0.75576,0.15029 -0.0985,0.094 -2.79051,0.14375 -6.63713,0.15498 -0.40561,-0.0446 -0.72548,-0.0895 -0.87218,-0.13234 -1.47073,-0.43009 -2.21719,-0.37283 -2.00952,0.15431 0.1435,0.36449 0.0588,0.40459 -0.4911,0.23357 -0.3653,-0.11357 -1.34483,-0.24223 -2.17636,-0.28614 -0.8315,-0.0439 -1.88223,-0.19457 -2.33528,-0.33491 -0.61217,-0.18958 -0.98328,-0.15722 -1.44374,0.12622 -0.50574,0.31135 -0.93502,0.32862 -2.33707,0.0935 -2.2308,-0.37408 -1.69501,-0.35097 -10.10322,-0.4384 -4.00715,-0.0417 -7.46215,-0.18622 -7.67816,-0.32122 -0.44171,-0.27613 -4.14123,-0.39604 -4.14224,-0.13423 -0.001,0.2606 -10.28523,0.0485 -10.73473,-0.22144 -0.21857,-0.13122 -5.29853,-0.27608 -11.28829,-0.32197 -5.98981,-0.0458 -11.05297,-0.18153 -11.25218,-0.30111 -0.23779,-0.14285 -0.91091,-0.20238 -1.6978,-0.19734 z m 147.58081,1.06554 c -0.0779,-0.002 -0.15995,-0.003 -0.24373,9.7e-4 -0.11167,0.005 -0.22635,0.0122 -0.33801,0.027 -0.44668,0.0589 -3.57071,0.14747 -6.94171,0.19555 -6.35379,0.0906 -7.34365,0.25829 -6.60556,1.12147 0.25895,0.3029 0.74348,0.36034 2.1334,0.25239 0.98891,-0.0768 2.04453,-0.0308 2.34638,0.10289 0.30187,0.13375 0.94671,0.18529 1.43259,0.11457 1.30098,-0.18934 9.60089,-0.16388 9.92454,0.0304 0.39137,0.23504 1.15247,-0.0872 1.15416,-0.48865 0.002,-0.47852 -0.80265,-1.06421 -1.48067,-1.07749 -0.31702,-0.006 -0.70543,-0.0892 -0.86346,-0.18451 -0.089,-0.0536 -0.28438,-0.0867 -0.51793,-0.0947 z m -505.07084,-1.45464 c -0.25675,-0.003 -0.51275,-0.003 -0.7647,7.8e-4 -1.20935,0.0166 -2.31981,0.11046 -2.91743,0.29259 -0.52248,0.15917 -2.03903,0.22375 -3.50645,0.14907 -2.54753,-0.12967 -2.58575,-0.12282 -2.58826,0.47381 -0.001,0.33303 0.12886,0.68411 0.28939,0.7805 0.16054,0.0964 3.037,0.20629 6.39173,0.24397 3.78454,0.0425 6.30733,0.17839 6.64775,0.35823 0.3618,0.19113 1.57912,0.23444 3.57394,0.12719 1.66378,-0.0895 6.9221,-0.11247 11.68524,-0.051 4.76312,0.0615 10.82513,0.1346 13.47131,0.16215 2.64623,0.0276 5.32263,0.14379 5.94733,0.25813 0.63644,0.11647 2.26173,0.0777 3.6967,-0.0878 1.57963,-0.18221 3.191,-0.20955 4.20539,-0.0717 0.90452,0.1229 1.86,0.15884 2.12295,0.0797 0.26298,-0.0791 0.54563,-0.0381 0.62809,0.0916 0.15856,0.24922 5.59919,0.20851 10.893526,-0.0817 4.510309,-0.24729 11.229827,-0.20908 16.495839,0.0933 2.494489,0.14317 7.876011,0.29329 11.958743,0.33356 4.082741,0.0403 7.984883,0.16307 8.671356,0.27269 0.715379,0.11425 1.562449,0.0857 1.984149,-0.0665 0.404658,-0.14612 0.795852,-0.17035 0.869765,-0.0542 0.07396,0.11615 0.910088,0.24117 1.858173,0.27807 0.948088,0.0369 1.765603,0.10748 1.816113,0.15648 0.05045,0.049 0.485819,0.0455 0.968019,-0.007 0.48219,-0.0528 2.544109,-0.16883 4.581862,-0.25769 2.883874,-0.12575 3.88994,-0.26906 4.539332,-0.64648 0.890887,-0.5178 1.941726,-0.65598 1.658045,-0.21833 -0.09403,0.14512 0.02875,0.2647 0.273472,0.26573 0.244696,0.001 0.383521,-0.095 0.307952,-0.21367 -0.07557,-0.11869 0.468325,-0.13908 1.208708,-0.0445 0.740383,0.0945 1.55754,0.0592 1.816037,-0.0787 0.371887,-0.19824 0.434493,-0.16276 0.300487,0.16923 -0.118157,0.29272 -0.04851,0.37527 0.229803,0.27384 0.219473,-0.08 0.39952,-0.22269 0.399918,-0.31717 3.98e-4,-0.0945 0.83558,-0.16179 1.856251,-0.1498 1.020678,0.0123 2.002821,-0.0811 2.182697,-0.20631 0.188881,-0.13152 0.550757,-0.11129 0.856037,0.0475 0.609581,0.31724 6.089066,0.53326 6.543867,0.25805 0.1672,-0.10119 1.076461,-0.0608 2.020741,0.0896 1.201642,0.1914 1.823609,0.18889 2.073307,-0.009 0.341556,-0.27045 1.330923,-0.21553 2.955954,0.16437 0.510542,0.11935 0.755888,0.0716 0.75681,-0.1472 7.5e-4,-0.17803 0.174976,-0.25889 0.386566,-0.17974 0.221284,0.0827 0.43856,-0.0531 0.512215,-0.31979 0.115603,-0.41843 0.02016,-0.43664 -0.979982,-0.1845 -0.887997,0.22391 -1.132636,0.20774 -1.231591,-0.0817 -0.104253,-0.30495 -0.161861,-0.30519 -0.367179,-0.002 -0.203632,0.30116 -0.283984,0.29778 -0.495347,-0.0212 -0.210503,-0.3177 -0.325218,-0.32289 -0.692194,-0.0323 -0.367238,0.29076 -0.518151,0.28246 -0.914034,-0.0489 -0.327261,-0.2739 -0.858351,-0.35987 -1.712359,-0.27852 -1.796798,0.17116 -3.345478,0.0968 -6.597374,-0.31563 -3.100679,-0.39322 -8.130379,-0.36881 -8.648734,0.0416 -0.174372,0.13806 -0.867503,0.24077 -1.539952,0.22864 -0.672451,-0.0118 -1.315437,0.005 -1.428991,0.0379 -0.113552,0.033 -0.546687,0.0979 -0.962741,0.14425 -2.650124,0.29547 -3.780239,0.32383 -5.369457,0.13293 -1.560821,-0.18746 -1.769265,-0.16231 -1.627624,0.19728 0.140427,0.35648 0.06721,0.35152 -0.543172,-0.0369 -0.658344,-0.41899 -1.876281,-0.4011 -1.878088,0.0278 -4.35e-4,0.10329 -1.083268,0.13469 -2.406161,0.07 -1.322889,-0.0647 -2.55963,-0.10599 -2.748717,-0.0917 -0.775159,0.0587 -5.208162,-0.17029 -5.566712,-0.2875 -0.07559,-0.0247 -0.415959,-0.0241 -0.756725,8.1e-4 -0.340735,0.0252 -1.008681,-0.14292 -1.484199,-0.37368 -1.119419,-0.5432 -1.914437,-0.55554 -1.705971,-0.0263 0.206822,0.52509 0.12079,0.52804 -8.34261,0.26199 -2.571546,-0.0808 -4.860289,-0.28354 -5.414773,-0.47911 -0.724804,-0.25566 -1.126587,-0.26674 -1.637778,-0.0451 -0.460112,0.19943 -1.236361,0.21791 -2.419945,0.0575 -0.958238,-0.12988 -2.60821,-0.20387 -3.666908,-0.16428 -1.058708,0.0396 -2.020538,0.0182 -2.137461,-0.0478 -0.338928,-0.19114 -4.860927,-0.1996 -5.060206,-0.009 -0.09926,0.0947 -0.448439,0.17123 -0.776068,0.16985 -0.327639,-0.001 -0.6677,0.0663 -0.755751,0.15028 -0.22336,0.21316 -13.37152,0.21366 -24.53974,0.001 -1.81448,-0.0346 -3.79439,-0.011 -4.39954,0.0523 -0.60514,0.0633 -2.58399,-0.0345 -4.39785,-0.21746 -1.81385,-0.18303 -4.90672,-0.29946 -6.87274,-0.2584 -1.96602,0.041 -4.25487,0.0584 -5.08649,0.038 -3.32508,-0.0813 -5.38741,-0.0227 -5.88951,0.16794 -0.29045,0.11025 -1.20363,0.061 -2.0297,-0.10931 -0.82607,-0.17045 -1.60664,-0.24807 -1.73463,-0.17266 -0.12798,0.0754 -0.5128,-0.0146 -0.8554,-0.19998 -0.56329,-0.30482 -2.38697,-0.48563 -4.18432,-0.50754 z m 148.390717,0.95426 c -0.07091,0.009 -0.07564,0.14171 -0.07676,0.4074 -0.0013,0.30147 0.151644,0.60884 0.340363,0.68303 0.9197189,0.3616 1.0293102,-0.0301 0.209634,-0.74995 -0.26554,-0.23327 -0.402371,-0.34912 -0.473245,-0.34048 z m -9.552233,0.27137 c -0.08383,0.0188 -0.190293,0.14972 -0.268595,0.3451 -0.15079,0.37646 -0.118932,0.40717 0.153695,0.14895 0.188653,-0.17868 0.273671,-0.39178 0.189313,-0.47358 -0.02111,-0.0205 -0.04655,-0.0267 -0.07442,-0.0205 z m 7.165562,0.35159 c -0.11054,-0.006 -0.206892,0.024 -0.293074,0.0924 -0.182349,0.14438 -0.846682,0.2113 -1.476819,0.14827 -0.63014,-0.063 -1.146155,-0.0243 -1.146621,0.0862 -4.65e-4,0.11047 -0.371805,0.1468 -0.82518,0.0807 -0.755438,-0.10994 -1.199236,0.30381 -0.551882,0.51447 0.151001,0.0491 0.645457,0.0762 1.099178,0.0599 0.453733,-0.0163 1.660459,-0.0449 2.681256,-0.0636 l 1.855764,-0.0341 -0.651796,-0.52727 c -0.282477,-0.22836 -0.506603,-0.34543 -0.690827,-0.3569 z m 8.1578493,0.26745 c -0.4183828,0.009 -0.7125306,0.0512 -0.7663352,0.13422 -0.095909,0.14792 -0.2972477,0.19528 -0.4474505,0.10509 -0.1502045,-0.0902 -0.7296794,-0.0814 -1.287363,0.0199 -0.9943497,0.18055 -1.0005442,0.18944 -0.327589,0.45339 0.3774314,0.14801 1.7375643,0.30919 3.022718,0.35844 1.2851567,0.0492 2.7075211,0.20945 3.160557,0.35593 0.4530383,0.14653 0.85450523,0.27686 0.89226692,0.28953 0.0376665,0.0127 0.069035,-0.21823 0.070276,-0.51284 0.001319,-0.31324 -0.25453579,-0.62909 -0.61569172,-0.76071 -0.6528235,-0.23794 -2.160205,-0.4142 -3.2458744,-0.44102 -0.1626637,-0.004 -0.3155438,-0.005 -0.4549827,-0.002 z m -13.5963063,0.45432 c -0.491001,-0.002 -0.645312,0.18982 -0.368585,0.45838 0.256951,0.24935 0.870029,0.13665 0.871279,-0.16016 6.86e-4,-0.16285 -0.225462,-0.29705 -0.502694,-0.29822 z m 297.461581,1.38012 5.3e-4,0 c 0.0352,0.20253 -0.14698,0.28825 -0.59349,0.28637 -0.39423,-0.002 -0.71636,-0.10772 -0.71582,-0.23559 5e-5,-0.0117 -0.005,-0.0226 -0.007,-0.0341 0.1667,-0.002 0.33727,-0.004 0.5061,-0.006 0.017,0.003 0.0327,0.0104 0.0506,0.0105 0.0443,1.9e-4 0.0847,-0.005 0.12192,-0.0129 0.21317,-0.002 0.42105,-0.006 0.63702,-0.008 z m -62.93556,0.48007 c -0.48755,-0.0174 -1.15791,0.0129 -2.06507,0.0781 l 2.84856,0.012 c -0.21878,-0.0485 -0.46849,-0.0789 -0.78349,-0.0901 z"
       id="path6048-3"
       inkscape:connector-curvature="0" />
    <path
       style="display:inline;fill:#000000;stroke-width:0.18564868"
       d="m 352.86495,-13.857522 c -0.27031,-0.0054 -0.70016,0.01089 -1.38379,0.03847 -1.01342,0.04163 -2.58629,0.173183 -3.49525,0.292247 -1.34338,0.176011 -2.72269,0.204481 -7.36938,0.152849 -9.97986,-0.111001 -25.75586,-0.174525 -26.67867,-0.107516 -1.58395,0.115156 -5.64356,0.31291 -8.76832,0.427228 -1.6773,0.06131 -3.85033,0.168784 -4.82897,0.238808 -0.97861,0.07011 -2.35095,0.12363 -3.04967,0.119926 -0.69874,-0.004 -5.44372,-0.02686 -10.54444,-0.04789 -5.10067,-0.02304 -10.2457,-0.07311 -11.43333,-0.113905 -5.62204,-0.191605 -18.13941,-0.166555 -23.78037,0.04746 -7.07571,0.268687 -8.84206,0.284475 -23.35434,0.204979 -12.09113,-0.06609 -19.4002,-0.192537 -25.01255,-0.43224 -1.87908,-0.08016 -3.50821,-0.116197 -3.62034,-0.07979 -0.11208,0.03641 -0.31279,0.02974 -0.44555,-0.01486 -0.13279,-0.0446 -2.16189,-0.126231 -4.5091,-0.181324 -2.34725,-0.05504 -4.34237,-0.124819 -4.43382,-0.155194 -0.0916,-0.03039 -5.57919,-0.148106 -12.19484,-0.261575 -6.61571,-0.113469 -12.31415,-0.227696 -12.66336,-0.254217 -0.34925,-0.02635 -2.06395,-0.100042 -3.81047,-0.163821 -1.74653,-0.06386 -3.28958,-0.163979 -3.42904,-0.222619 -0.38294,-0.161122 -4.66852,-0.325051 -8.38318,-0.320511 -1.81676,0.0029 -4.67522,-0.0018 -6.35217,-0.009 -1.67695,-0.0069 -4.82164,0.06114 -6.98822,0.15194 -2.16658,0.09074 -5.197,0.164775 -6.73422,0.164777 -1.53723,-1.49e-4 -3.19526,0.02046 -3.68452,0.04507 -0.48925,0.02481 -3.43355,0.0376 -6.54291,0.02892 -3.68287,-0.01152 -5.65363,0.03233 -5.65412,0.123051 -4.5e-4,0.0855 -0.418,0.107746 -1.08019,0.05738 -0.59368,-0.04515 -5.25258,-0.131954 -10.35308,-0.192851 -5.100468,-0.06114 -10.988458,-0.160888 -13.084351,-0.221759 -2.436131,-0.07061 -4.681755,-0.05742 -6.225342,0.0366 -1.328056,0.08096 -3.615158,0.13699 -5.082444,0.123992 -2.833401,-0.02542 -7.210735,0.183451 -7.926871,0.376847 -0.236432,0.06375 -0.487879,0.06531 -0.558803,0.003 -0.07097,-0.06208 -0.849608,-0.0687 -1.730419,-0.01517 -1.829928,0.111552 -12.53198,0.195365 -23.707597,0.185907 -16.577574,-0.01407 -30.311816,0.07197 -31.762082,0.198822 -2.297066,0.200957 -10.022727,0.301968 -15.881622,0.20778 -12.829531,-0.206188 -23.213365,-0.131048 -29.729468,0.216258 -1.188203,0.0633 -3.190459,0.11081 -4.449077,0.104138 -1.258634,-0.0061 -2.688204,0.05515 -3.176828,0.135974 -0.613502,0.101489 -4.897848,0.12017 -13.846142,0.05957 -10.395667,-0.0697 -13.963141,-0.04641 -18.040901,0.120563 -6.094286,0.24943 -22.532916,0.212363 -24.011056,-0.05407 -0.48865,-0.08809 -3.289027,-0.268299 -6.223037,-0.400473 -2.93402,-0.132204 -5.73449,-0.291671 -6.22329,-0.354343 -0.48878,-0.06279 -2.43249,-0.0754 -4.31933,-0.02889 -1.88686,0.0471 -7.43246,0.06951 -12.32355,0.05028 -4.8911,-0.01993 -10.03639,-0.0218 -11.43394,-0.0058 -2.4602,0.02836 -4.55973,-0.06447 -8.00191,-0.353711 -3.31243,-0.278321 -7.58449,-0.189675 -11.68935,0.242463 -1.36967,0.144081 -1.66682,0.224398 -1.73545,0.467677 -0.0745,0.26464 0.0317,0.293964 1.08177,0.29953 0.64048,0.0034 1.3635,-0.04627 1.6065,-0.110428 1.7201,-0.454158 7.17836,-0.557657 11.25347,-0.213492 2.16415,0.182684 4.28772,0.206691 10.91273,0.123047 2.58553,-0.0327 5.04395,-0.05357 5.46315,-0.04634 0.41922,0.0062 5.33568,0.03428 10.92548,0.05991 5.5898,0.02563 10.73465,0.109203 11.43299,0.184156 0.69836,0.075 2.64155,0.182915 4.31823,0.239883 4.063967,0.138194 4.845147,0.186855 6.407167,0.398798 0.97011,0.131614 3.81646,0.187252 10.58575,0.206624 5.09232,0.01449 9.582849,-0.0075 9.979185,-0.04932 2.489455,-0.262608 7.61961,-0.335126 17.491709,-0.247716 6.008905,0.05315 11.439799,0.09974 12.068636,0.104573 0.628847,0.0043 2.344298,-0.06307 3.812121,-0.149545 3.682737,-0.217322 9.111617,-0.397328 13.309716,-0.441296 1.938934,-0.02022 4.397569,-0.08331 5.46363,-0.139742 2.244427,-0.119185 14.236383,-0.0056 18.706805,0.177162 2.684803,0.109732 9.716523,-0.0263 16.898606,-0.326642 0.629004,-0.02637 5.474954,-0.06378 10.768911,-0.08361 5.29396,-0.01984 9.736042,-0.07152 9.871352,-0.115327 0.13531,-0.04378 2.550129,-0.04898 5.366177,-0.01106 12.316501,0.165628 25.151063,0.09342 31.497461,-0.176945 2.263349,-0.0965 5.716404,-0.206472 7.673071,-0.244661 1.956689,-0.03813 3.64613,-0.09712 3.754444,-0.131031 0.284576,-0.08919 12.064026,0.0056 18.605239,0.149822 3.0741,0.0677 6.33253,0.111568 7.241,0.09688 0.90843,-0.01399 5.76795,-0.02773 10.7989,-0.02926 8.21111,-0.0027 15.24561,-0.06176 15.24596,-0.128029 1.7e-4,-0.0334 1.78001,-0.09153 6.70918,-0.21824 5.73079,-0.147315 16.15755,-0.0149 16.66153,0.21145 0.21051,0.09472 0.61739,0.140405 0.90414,0.101994 0.28675,-0.03838 1.2307,-0.01518 2.09745,0.05212 0.86677,0.0673 2.60478,0.168499 3.86223,0.224506 1.25745,0.05597 2.74347,0.125963 3.30231,0.155476 0.55884,0.02976 5.07486,0.107202 10.03558,0.172148 4.96074,0.065 9.41953,0.152783 9.90843,0.195095 0.75687,0.06551 5.61226,0.241972 13.46406,0.489695 7.3536,0.231932 31.60461,0.606344 32.52069,0.501968 0.07,-0.0076 1.67077,-0.02944 3.55748,-0.04784 6.57158,-0.06407 11.32539,-0.15543 13.97626,-0.26848 1.46771,-0.06262 5.87016,-0.134246 9.78324,-0.159285 3.91312,-0.02506 7.24753,-0.102264 7.41016,-0.171353 0.18727,-0.07951 0.3568,-0.07211 0.46241,0.01915 0.0916,0.08019 0.58782,0.140878 1.10202,0.135033 0.5142,-0.0053 3.45012,0.05429 6.52419,0.133685 7.78855,0.201207 21.4815,0.239919 25.28141,0.07171 1.74724,-0.07724 4.66338,-0.165723 6.48026,-0.196413 3.51828,-0.05955 6.7759,-0.216407 7.17286,-0.345064 0.3854,-0.124849 19.63742,-0.119921 20.96722,0.0054 0.66252,0.06251 1.25736,0.08567 1.3218,0.05171 0.0997,-0.05257 2.68193,-0.03348 7.76329,0.05785 0.62881,0.01133 2.05856,-0.08339 3.17721,-0.210472 1.11867,-0.127033 2.74873,-0.262965 3.62236,-0.301924 1.4692,-0.06561 1.58857,-0.09547 1.59018,-0.398507 10e-4,-0.202557 -0.009,-0.279669 -0.45703,-0.290677 z"
       id="path4246"
       inkscape:connector-curvature="0"
       inkscape:export-filename="/Users/jan/Documents/repo/github/microcol/microcol-game/src/main/resources/images/europe.png"
       inkscape:export-xdpi="98.734848"
       inkscape:export-ydpi="98.734848" />
  </g>
</svg>
