<?xml version="1.0" encoding="UTF-8" standalone="no"?>
<!-- Created with Inkscape (http://www.inkscape.org/) -->

<svg
   xmlns:dc="http://purl.org/dc/elements/1.1/"
   xmlns:cc="http://creativecommons.org/ns#"
   xmlns:rdf="http://www.w3.org/1999/02/22-rdf-syntax-ns#"
   xmlns:svg="http://www.w3.org/2000/svg"
   xmlns="http://www.w3.org/2000/svg"
   xmlns:sodipodi="http://sodipodi.sourceforge.net/DTD/sodipodi-0.dtd"
   xmlns:inkscape="http://www.inkscape.org/namespaces/inkscape"
   width="210mm"
   height="297mm"
   viewBox="0 0 210 297"
   version="1.1"
   id="svg3247"
   inkscape:version="0.92.2 5c3e80d, 2017-08-06"
   sodipodi:docname="colony-2.svg">
  <defs
     id="defs3241" />
  <sodipodi:namedview
     id="base"
     pagecolor="#ffffff"
     bordercolor="#666666"
     borderopacity="1.0"
     inkscape:pageopacity="0.0"
     inkscape:pageshadow="2"
     inkscape:zoom="0.35"
     inkscape:cx="503.56866"
     inkscape:cy="343.9858"
     inkscape:document-units="mm"
     inkscape:current-layer="layer1"
     showgrid="false"
     inkscape:window-width="1590"
     inkscape:window-height="1005"
     inkscape:window-x="90"
     inkscape:window-y="1"
     inkscape:window-maximized="1"
     inkscape:snap-global="true"
     showguides="true"
     inkscape:guide-bbox="true"
     inkscape:snap-bbox="true">
    <sodipodi:guide
       position="-167.82142,182.94048"
       orientation="1,0"
       id="guide6025"
       inkscape:locked="false" />
    <sodipodi:guide
       position="351.13988,310.68526"
       orientation="1,0"
       id="guide6027"
       inkscape:locked="false" />
    <sodipodi:guide
       position="121.70833,310.69644"
       orientation="0,1"
       id="guide6029"
       inkscape:locked="false" />
    <sodipodi:guide
       position="58.523779,-52.205361"
       orientation="0,1"
       id="guide6031"
       inkscape:locked="false" />
    <sodipodi:guide
       position="42.333332,-107.34524"
       orientation="0,1"
       id="guide6033"
       inkscape:locked="false" />
    <sodipodi:guide
       position="-3.7797618,374.19644"
       orientation="0,1"
       id="guide6035"
       inkscape:locked="false" />
    <sodipodi:guide
       position="351.13988,-48.85342"
       orientation="0,1"
       id="guide6141"
       inkscape:locked="false" />
  </sodipodi:namedview>
  <metadata
     id="metadata3244">
    <rdf:RDF>
      <cc:Work
         rdf:about="">
        <dc:format>image/svg+xml</dc:format>
        <dc:type
           rdf:resource="http://purl.org/dc/dcmitype/StillImage" />
        <dc:title></dc:title>
      </cc:Work>
    </rdf:RDF>
  </metadata>
  <g
     inkscape:label="Layer 1"
     inkscape:groupmode="layer"
     id="layer1">
    <path
       style="display:inline;fill:#c88f5f;fill-opacity:1;fill-rule:evenodd;stroke:none;stroke-width:0.56130445px;stroke-linecap:butt;stroke-linejoin:miter;stroke-opacity:1"
       d="m -167.82142,352.87935 c 421.97035,-2.32795 518.9613,-1.46542 518.9613,-1.46542 v 52.93131 l -518.9613,0 z"
       id="path3972"
       inkscape:connector-curvature="0"
       sodipodi:nodetypes="ccccc"
       inkscape:export-filename="/Users/jan/Documents/repo/github/microcol/microcol-game/src/main/resources/images/colony.png"
       inkscape:export-xdpi="38.16"
       inkscape:export-ydpi="38.16" />
    <path
       style="display:inline;fill:#b0cb1f;fill-opacity:1;stroke:none;stroke-width:0.87711829px;stroke-linecap:butt;stroke-linejoin:miter;stroke-opacity:1"
       d="m -167.82142,196.81014 518.9613,0.0432 0,149.00008 -518.9613,0 z"
       id="path817-2-3"
       inkscape:connector-curvature="0"
       inkscape:export-filename="/Users/jan/Documents/repo/github/microcol/microcol-game/src/main/resources/images/colony.png"
       inkscape:export-xdpi="38.16"
       inkscape:export-ydpi="38.16"
       sodipodi:nodetypes="ccccc" />
    <path
       style="display:inline;fill:#9babe0;fill-opacity:1;stroke:none;stroke-width:0.284659px;stroke-linecap:butt;stroke-linejoin:miter;stroke-opacity:1"
       d="m -167.82142,-12.592472 518.97095,0.03666 -0.01,35.575104 -127.42562,2.493917 -6.13392,2.983551 c 0,0 -30.87912,-5.13624 -43.40678,2.138069 -23.11263,13.420581 -20.0439,30.800181 -38.4915,40.712523 -16.3054,8.761287 -303.50313,0.22165 -303.50313,0.22165 z"
       id="path815"
       inkscape:connector-curvature="0"
       sodipodi:nodetypes="cccccsscc"
       inkscape:export-filename="/Users/jan/Documents/repo/github/microcol/microcol-game/src/main/resources/images/colony.png"
       inkscape:export-xdpi="38.16"
       inkscape:export-ydpi="38.16" />
    <path
       style="display:inline;fill:#b0cb1f;fill-opacity:1;stroke:none;stroke-width:0.74841052px;stroke-linecap:butt;stroke-linejoin:miter;stroke-opacity:1"
       d="m -167.82142,74.438841 c 0,0 252.095955,3.298597 291.65775,1.020963 26.46351,-1.523545 29.66309,-37.507313 56.26477,-44.455034 44.03373,-11.500558 171.03878,-3.4073 171.03878,-3.4073 v 172.22924 l -518.9613,-3.01657 z"
       id="path817-2"
       inkscape:connector-curvature="0"
       inkscape:export-filename="/Users/jan/Documents/repo/github/microcol/microcol-game/src/main/resources/images/colony.png"
       inkscape:export-xdpi="38.16"
       inkscape:export-ydpi="38.16"
       sodipodi:nodetypes="csscccc" />
    <path
       style="display:inline;fill:#d2d1ee;fill-opacity:1;stroke:none;stroke-width:0.4232983px;stroke-linecap:butt;stroke-linejoin:miter;stroke-opacity:1"
       d="m -167.82142,-77.196439 518.98538,0.01704 0.0111,63.14515 -518.99648,-0.664455 z"
       id="path817"
       inkscape:connector-curvature="0"
       inkscape:export-filename="/Users/jan/Documents/repo/github/microcol/microcol-game/src/main/resources/images/colony.png"
       inkscape:export-xdpi="38.16"
       inkscape:export-ydpi="38.16"
       sodipodi:nodetypes="ccccc" />
    <path
       style="display:inline;fill:#c88f5f;fill-opacity:1;fill-rule:evenodd;stroke:none;stroke-width:0.18253841px;stroke-linecap:butt;stroke-linejoin:miter;stroke-opacity:1"
       d="M -37.867373,57.011972 C 288.34604,56.693505 351.10726,54.470062 351.10726,54.470062 l -0.48261,7.233731 -405.381948,1.023578 z"
       id="path3972-3"
       inkscape:connector-curvature="0"
       sodipodi:nodetypes="ccccc"
       inkscape:export-filename="/Users/jan/Documents/repo/github/microcol/microcol-game/src/main/resources/images/colony.png"
       inkscape:export-xdpi="38.16"
       inkscape:export-ydpi="38.16" />
    <path
       style="display:inline;fill:#c88f5f;fill-opacity:1;fill-rule:evenodd;stroke:none;stroke-width:0.06311715px;stroke-linecap:butt;stroke-linejoin:miter;stroke-opacity:1"
       d="m 187.4297,6.7621655 5.07906,0.5316896 2.34773,28.7489279 -13.72246,0.756309 4.6689,-10.094412 z"
       id="path3972-3-8"
       inkscape:connector-curvature="0"
       sodipodi:nodetypes="cccccc"
       inkscape:export-filename="/Users/jan/Documents/repo/github/microcol/microcol-game/src/main/resources/images/colony.png"
       inkscape:export-xdpi="38.16"
       inkscape:export-ydpi="38.16" />
    <path
       style="display:inline;fill:#c88f5f;fill-opacity:1;fill-rule:evenodd;stroke:none;stroke-width:0.06311715px;stroke-linecap:butt;stroke-linejoin:miter;stroke-opacity:1"
       d="m 222.20359,28.610025 9.88991,-1.071927 0.61048,5.095573 -7.01526,4.244765 -6.7072,-0.147586 0.12532,-5.417195 z"
       id="path3972-3-8-3"
       inkscape:connector-curvature="0"
       sodipodi:nodetypes="ccccccc"
       inkscape:export-filename="/Users/jan/Documents/repo/github/microcol/microcol-game/src/main/resources/images/colony.png"
       inkscape:export-xdpi="38.16"
       inkscape:export-ydpi="38.16" />
    <path
       inkscape:connector-curvature="0"
       style="fill:#000000;stroke-width:0.26458332"
       d="m 189.29087,0.6970024 c -0.39814,-0.01 -0.7035,0.0479 -0.79428,0.19482 -0.0824,0.13332 -0.17259,1.09091 -0.2005,2.12803 l -0.0506,1.88568 -1.01132,0.27233 c -0.72218,0.19447 -1.01129,0.4162 -1.01129,0.77566 0,0.27685 0.11907,0.57725 0.26459,0.66715 0.32453,0.20055 0.3525,1.89849 0.0346,2.09496 -0.37269,0.23033 -0.58671,2.5758396 -0.70022,7.6713596 -0.15695,7.04689 -0.61407,9.17061 -3.11142,14.44305 -0.72501,1.53062 -2.41519,3.94053 -3.09956,4.41989 -0.58899,0.41253 -0.71814,1.54326 -0.20101,1.75958 v 0 c 0.64548,0.27 1.3852,0.0308 1.48259,-0.47956 0.0543,-0.28472 0.78143,-1.53488 1.61592,-2.77812 0.8345,-1.24325 1.67008,-2.73658 1.85674,-3.31866 0.18664,-0.58209 0.44162,-1.18829 0.5669,-1.34721 0.12528,-0.1589 0.14954,-0.36722 0.0537,-0.46302 -0.0958,-0.0958 -0.0489,-0.17415 0.10388,-0.17415 0.32605,0 0.53313,-0.57178 1.05471,-2.91042 0.40762,-1.82766 0.46844,-2.65389 0.70228,-9.525 0.086,-2.52857 0.31393,-4.98654 0.54105,-5.84098 0.21563,-0.8113696 0.42857,-1.6420596 0.47336,-1.8458796 0.13666,-0.62117 0.62217,-0.99424 1.2945,-0.99478 0.35166,-2.6e-4 1.11983,-0.0831 1.70739,-0.18448 l 1.06815,-0.18449 0.003,4.8560396 c 0.003,3.17513 0.12216,5.26389 0.34571,6.03426 0.18806,0.648 0.4418,2.6004 0.5638,4.33875 0.13403,1.9102 0.34433,3.23662 0.53226,3.35277 0.23053,0.14248 0.23347,0.24037 0.0103,0.37827 -0.17481,0.10807 -0.24297,0.53762 -0.16227,1.02526 0.0764,0.46159 0.2,1.97033 0.2744,3.35277 0.21114,3.92224 0.43889,4.81666 1.53429,6.01927 0.60198,0.66093 1.30019,0.76854 1.71667,0.26458 0.19955,-0.24145 0.0364,-0.57084 -0.60563,-1.2206 -1.18806,-1.20238 -1.41886,-2.67429 -1.56528,-9.99887 -0.0122,-0.60457 -0.11102,-1.04409 -0.22016,-0.97669 -0.16824,0.10395 -0.34644,-2.4847 -0.2191,-3.18223 0.0233,-0.127 -0.15975,-1.13904 -0.40669,-2.24896 -0.49294,-2.21565 -0.60044,-6.17676 -0.28887,-10.6598096 0.1669,-2.40147 0.13364,-2.88323 -0.22429,-3.24115 -0.23122,-0.23122 -0.60402,-0.42013 -0.82888,-0.42013 -0.29782,0 -0.36325,-0.16166 -0.23977,-0.59531 0.48046,-1.68725 0.46347,-1.91904 -0.18915,-2.53215 -0.47106,-0.44257 -1.79525,-0.79047 -2.67115,-0.81183 z m -0.64389,8.22688 c -0.33978,0.015 -0.35555,0.29116 -0.0915,0.87075 0.40568,0.8903596 1.71727,0.9628596 1.58853,0.0879 -0.0522,-0.35495 -0.36923,-0.66871 -0.82889,-0.82114 -0.29252,-0.097 -0.51374,-0.14428 -0.66818,-0.13745 z m -0.0156,6.6610996 c -0.53284,-0.002 -0.5443,0.37278 -0.005,1.05885 0.60288,0.76645 1.08519,0.87367 1.52807,0.34003 0.39182,-0.47212 -0.12559,-1.11741 -1.07177,-1.33687 -0.17814,-0.0413 -0.32869,-0.0616 -0.45167,-0.062 z m 0.21341,5.22242 c -0.24018,0.007 -0.47506,0.0896 -0.65061,0.2651 -0.31027,0.31031 -0.27733,0.4731 0.22067,1.08727 0.32221,0.39737 0.65174,0.7246 0.73173,0.7276 0.34441,0.0121 0.78033,-0.67722 0.78033,-1.23351 0,-0.51587 -0.55366,-0.86249 -1.08212,-0.84646 z m 138.42207,3.52795 c -1.75461,-0.002 -3.4449,0.05 -4.54237,0.16536 -2.58821,0.27207 -14.55155,0.3348 -19.15903,0.10026 -3.32566,-0.16933 -5.98586,-0.13176 -6.34122,0.0894 -0.3546,0.22067 -4.7516,0.39153 -9.93066,0.38653 -9.07415,-0.009 -28.02514,-0.29871 -29.72946,-0.45423 -1.95122,-0.17806 -4.39515,0.0639 -3.87728,0.38396 0.22699,0.1403 0.2032,0.23616 -0.0863,0.34726 -0.21984,0.0844 -0.54173,-0.0183 -0.71572,-0.22789 -0.41042,-0.49497 -1.83153,-0.4894 -2.54349,0.009 -0.79815,0.55902 -2.39342,0.70717 -2.83705,0.26355 -0.20045,-0.20044 -0.40828,-0.32617 -0.46199,-0.27957 -0.0537,0.0466 -1.10972,0.15956 -2.34662,0.25166 -2.18995,0.16298 -3.15648,0.31752 -3.96875,0.63355 -0.2183,0.0849 -0.69453,0.18686 -1.05833,0.22686 -0.3638,0.04 -1.07818,0.1584 -1.5875,0.26252 -0.50932,0.10414 -1.15533,0.15864 -1.43558,0.12144 -0.28024,-0.0372 -0.69696,0.16637 -0.92604,0.45268 -0.71702,0.89617 -1.69431,0.94405 -2.42414,0.11835 -0.35094,-0.39706 -0.76253,-0.96005 -0.91416,-1.25109 -0.3121,-0.59897 -1.29167,-0.5868 -1.90222,0.0238 -0.20516,0.20515 -0.53729,0.3731 -0.73792,0.3731 -0.20066,0 -0.46035,0.15551 -0.57672,0.34571 -0.357,0.58349 -3.3016,0.98967 -4.4111,0.60824 -0.52232,-0.17956 -1.03151,-0.40828 -1.1312,-0.50798 -0.43133,-0.43132 -1.06484,-0.0929 -1.67378,0.894 -0.36013,0.5836 -0.92567,1.12923 -1.25677,1.21233 -0.33116,0.0831 -0.60204,0.26144 -0.60204,0.39636 0,0.30542 -2.24136,1.28467 -2.94039,1.28467 -0.63918,0 -0.97271,0.76392 -0.47181,1.08107 0.2031,0.12862 0.63252,0.23572 0.95393,0.23772 0.57222,0.004 0.58169,0.0581 0.44339,2.56935 -0.1025,1.8612 -0.25167,2.64551 -0.54261,2.85822 -0.33202,0.24278 -0.33967,0.34134 -0.046,0.57465 0.25667,0.20388 1.04008,0.11153 2.83652,-0.33487 1.36504,-0.33919 2.55209,-0.68708 2.63808,-0.77308 0.303,-0.30294 -0.5924,-0.62049 -1.05368,-0.37362 -0.25294,0.13536 -0.93588,0.24598 -1.51773,0.24598 -1.24232,0 -1.39665,-0.28152 -1.32704,-2.41587 l 0.046,-1.42059 2.21639,0.0935 c 1.22645,0.0518 2.36178,-0.024 2.54146,-0.1695 0.17856,-0.14456 0.63569,-0.2609 1.01594,-0.2589 0.66273,0.004 0.68649,0.0548 0.57103,1.22783 -0.0662,0.67305 -0.22786,1.64043 -0.35915,2.14974 -0.33575,1.3027 -0.29924,2.31613 0.0889,2.45774 v 5.3e-4 c 0.1819,0.0664 0.5765,-0.10214 0.87694,-0.37466 0.30041,-0.27252 0.68736,-0.49557 0.85989,-0.49557 0.17251,0 0.31369,-0.11779 0.31369,-0.26149 0,-0.1437 0.50501,-0.58023 1.12242,-0.96996 0.61738,-0.38974 1.45121,-1.03679 1.85259,-1.43816 0.50604,-0.50604 1.14966,-0.79669 2.09962,-0.94826 1.19079,-0.19 1.39518,-0.31373 1.56425,-0.9462 0.14496,-0.54232 0.0994,-0.7276 -0.17934,-0.7276 -0.25575,0 -0.37399,-0.3137 -0.37412,-0.99219 -1.6e-4,-0.97019 0.0217,-0.99219 0.99219,-0.99219 0.81714,0 1.00695,-0.1018 1.07434,-0.57516 0.0599,-0.42071 -0.082,-0.60966 -0.52917,-0.70486 -0.45058,-0.0959 -0.40301,-0.12092 0.18243,-0.0961 1.02034,0.0432 1.45521,-0.23553 1.45521,-0.93276 0,-0.30666 0.0783,-0.47914 0.17415,-0.38344 0.0957,0.0958 0.30411,0.069 0.46302,-0.0594 0.15891,-0.12844 1.41997,-0.3129 2.80241,-0.4098 1.38243,-0.0969 2.87071,-0.2203 3.3073,-0.2744 5.50515,-0.68161 26.42695,-1.19963 27.96521,-0.69194 0.56748,0.18727 3.3128,0.36625 6.73706,0.43924 3.17854,0.0678 8.04116,0.21858 10.80606,0.33487 2.76489,0.1163 5.68193,0.18914 6.48229,0.16174 8.94022,-0.30557 9.58419,-0.35945 9.9446,-0.83457 0.19659,-0.25916 0.36089,-0.3324 0.3659,-0.16278 0.006,0.22509 1.41893,0.30024 5.23377,0.27854 2.87404,-0.0163 6.91534,0.12852 8.98033,0.32194 2.30878,0.21628 5.16149,0.29177 7.40833,0.19637 3.89343,-0.16527 11.23495,-0.42397 14.82805,-0.52296 1.55678,-0.0429 2.21522,0.0351 2.30682,0.27388 0.36679,0.95574 2.49386,-0.13502 2.51717,-1.29088 0.0137,-0.67496 -0.48951,-0.73555 -3.9982,-0.48059 -4.39616,0.31944 -7.57545,0.3117 -8.69458,-0.0212 -0.82968,-0.24679 -3.93205,-0.39693 -6.85641,-0.39946 z m -29.01633,0.8046 c 0.25249,-0.001 0.52139,0.0351 0.77671,0.10904 0.75451,0.21855 0.69485,0.24256 -0.62116,0.24856 -1.1679,0.006 -1.33236,-0.0422 -0.83405,-0.24185 0.18998,-0.0761 0.42604,-0.11453 0.6785,-0.11575 z m 25.14523,0.31523 c 0.10547,-0.002 0.20858,0.005 0.30285,0.0233 0.50056,0.0957 0.58946,0.19172 0.3302,0.35605 -0.19529,0.12377 -0.71221,0.22266 -1.14877,0.22066 -0.71652,-0.004 -0.74845,-0.0386 -0.3302,-0.35605 0.19111,-0.14511 0.52954,-0.23734 0.84592,-0.24392 z m 4.08298,0.11679 c 0.14385,0.002 0.27783,0.0211 0.3674,0.0574 0.17914,0.0725 -0.0316,0.12695 -0.46818,0.12195 -0.43657,-0.005 -0.58299,-0.0647 -0.32557,-0.13177 0.12872,-0.0335 0.28246,-0.0493 0.42635,-0.0475 z m -32.77683,0.52968 c 0.11989,0 0.2398,0.0186 0.33073,0.0553 0.1819,0.0734 0.0331,0.13332 -0.33073,0.13332 -0.36382,0 -0.51263,-0.0599 -0.33073,-0.13332 0.091,-0.0367 0.21085,-0.0553 0.33073,-0.0553 z m -107.43427,0.16588 c -0.66995,0.008 -0.45246,0.90716 0.41032,1.41284 0.93419,0.54751 1.19062,0.59903 1.19062,0.23926 0,-0.14552 0.17857,-0.26459 0.39688,-0.26459 0.21828,0 0.39687,-0.0922 0.39687,-0.20463 0,-0.26029 -1.55239,-1.06962 -2.24896,-1.17254 -0.0526,-0.008 -0.10107,-0.0109 -0.14573,-0.0103 z m 43.88879,1.1498 c 0.36187,-0.032 0.51814,0.0966 0.8263,0.42737 l 0.524,0.56223 -0.93223,0.55036 c -0.51266,0.30247 -1.15628,0.54984 -1.43042,0.54984 -0.27413,0 -0.57801,0.12872 -0.6754,0.28628 -0.0974,0.15757 -0.70977,0.51477 -1.36065,0.79375 -0.65087,0.279 -1.39311,0.50747 -1.64951,0.50747 -0.4811,0 -1.34202,-0.77868 -1.34202,-1.21388 0,-0.13544 -0.23813,-0.39495 -0.52917,-0.57671 -0.82135,-0.51294 -0.62714,-0.8697 0.46302,-0.8506 1.21642,0.0214 3.47911,-0.33601 5.15575,-0.8139 0.44228,-0.12606 0.73321,-0.20299 0.95033,-0.22221 z m -21.77592,1.08572 c -0.68252,0.008 -1.60269,0.0426 -2.81895,0.10387 -2.38231,0.12008 -5.75741,0.22241 -7.50033,0.22841 -2.80202,0.009 -3.17979,0.064 -3.26078,0.47336 -0.0806,0.40719 0.14174,0.46278 1.84587,0.46199 1.06571,-5.3e-4 3.84289,-0.13817 6.17122,-0.30593 5.33331,-0.38424 6.47263,-0.39464 6.6983,-0.062 0.0994,0.14659 0.65278,0.2948 1.22938,0.3297 0.57658,0.0349 1.07236,0.0879 1.10226,0.11782 0.0299,0.0299 0.60026,0.071 1.26709,0.0915 0.81208,0.025 1.21234,-0.072 1.21234,-0.293 0,-0.22153 -0.66537,-0.37989 -2.02416,-0.48266 -1.11327,-0.0842 -2.1109,-0.2935 -2.21692,-0.46509 -0.0903,-0.14604 -0.56785,-0.2104 -1.70532,-0.19792 z m -28.25099,0.21033 c -0.39939,2.5e-4 -3.70465,1.5422 -3.89798,1.81849 -0.0752,0.10756 -0.55364,0.35962 -1.06296,0.55966 -0.50932,0.20004 -1.55345,0.75886 -2.32029,1.24178 -0.76679,0.48292 -1.54072,0.87957 -1.71979,0.88057 -0.53946,0.004 -3.39606,2.31566 -7.05538,5.70869 -3.35907,3.11466 -4.17994,3.81372 -4.47829,3.81372 -0.16562,0 -0.30125,0.12727 -0.30125,0.28319 0,0.35751 -0.50263,0.86508 -1.25574,1.26814 -0.32073,0.17165 -1.22449,1.11326 -2.00866,2.09238 -0.78417,0.97912 -1.87256,2.25649 -2.41848,2.83858 -0.54589,0.58208 -1.34633,1.62389 -1.77869,2.31511 -0.43235,0.69123 -0.89008,1.25677 -1.01751,1.25677 -0.12745,0 -0.36472,0.4935 -0.5271,1.09657 l -0.29506,1.09606 -2.42726,-0.19327 c -1.3348,-0.10645 -2.6053,-0.18228 -2.82358,-0.16898 -0.21828,0.0134 -2.71862,-0.006 -5.55625,-0.0434 -6.65782,-0.0869 -15.54295,0.0247 -17.68626,0.22221 l -1.67897,0.15503 0.0656,-1.67742 c 0.0754,-1.92157 -0.13629,-2.60346 -0.80873,-2.60346 -0.60097,0 -0.79375,0.51407 -0.79375,2.11667 0,2.17796 0.21199,2.08476 -4.31758,1.90066 -5.60377,-0.22776 -7.7533,-0.18268 -11.55743,0.24288 -3.27292,0.36614 -7.505967,0.43287 -14.684377,0.23151 -2.03729,-0.0572 -4.95432,7.9e-4 -6.48229,0.12867 -4.28742,0.3591 -5.8596,0.32328 -10.18646,-0.23306 -2.24866,-0.28913 -2.23743,-0.28008 -2.17403,-1.81074 0.0546,-1.3192 0.0234,-1.38999 -0.64285,-1.4671 -0.68273,-0.0791 -0.70029,-0.0437 -0.71779,1.42369 -0.01,0.82756 -0.055,1.54178 -0.10025,1.58698 -0.20835,0.20835 -10.42975,0.60926 -20.17758,0.79169 -3.4925,0.0654 -7.00485,0.18503 -7.80521,0.26613 -0.80037,0.0811 -5.32473,0.20695 -10.05416,0.27905 -4.72942,0.0722 -9.167398,0.22718 -9.861938,0.34468 -1.32604,0.22431 -1.70104,0.028 -1.56217,-0.81752 0.0397,-0.24177 -0.0522,-0.51661 -0.20464,-0.61081 -0.15249,-0.0942 -0.2775,-0.62107 -0.2775,-1.17099 0,-0.95747 -0.0388,-1.00156 -0.91571,-1.03456 -0.97433,-0.0366 -1.04183,0.0915 -1.26349,2.39468 l -0.0698,0.72554 -4.89479,0.11627 c -2.6921298,0.0638 -5.1924499,0.18267 -5.5562499,0.26407 -0.3638,0.0814 -1.73303,0.13637 -3.04271,0.12247 -1.30969,-0.0139 -3.27421996,-0.0248 -4.36563,-0.0243 -2.1978,8e-4 -10.2796101,0.46216 -12.9645801,0.74001 -1.97179,0.20404 -14.50637,0.21327 -18.25625,0.0134 -4.24905,-0.22645 -5.23384,-0.36285 -6.27352,-0.87075 l -1.00252,-0.48989 0.0904,-1.51877 c 0.0861,-1.44583 0.0558,-1.53169 -0.632,-1.79317 -0.39734,-0.15103 -0.7723,-0.2245 -0.83354,-0.1633 -0.0612,0.0612 -0.13403,0.97673 -0.16175,2.0345 l -0.0506,1.92288 -0.92604,0.33434 c -0.50933,0.18369 -1.19394,0.34289 -1.52136,0.35399 -0.32742,0.0111 -0.59521,0.10945 -0.59531,0.21859 -1e-4,0.10914 -0.29755,0.21568 -0.66094,0.23668 -0.36339,0.021 -1.2267,0.33071 -1.91823,0.68833 -0.69154,0.35762 -1.61448,0.73668 -2.05104,0.84284 -0.43656,0.10616 -1.00677,0.42149 -1.2671,0.70073 -0.26033,0.27923 -0.75944,0.50798 -1.10898,0.50798 -0.34955,0 -0.70898,0.11907 -0.79892,0.26458 -0.0899,0.14552 -0.39451,0.26459 -0.67696,0.26459 -0.28246,0 -0.51366,0.11906 -0.51366,0.26458 0,0.14552 -0.23813,0.26458 -0.52917,0.26458 -0.29104,0 -0.52917,0.12598 -0.52917,0.28009 0,0.15459 -0.0989,0.2193 -0.21962,0.14469 -0.12068,-0.0746 -0.80529,0.0494 -1.52136,0.27544 -0.71606,0.22608 -1.48032,0.41726 -1.6986,0.42426 -0.21828,0.007 -0.4598,0.10916 -0.53692,0.22583 -0.0771,0.11667 -0.6298,0.29042 -1.22783,0.38602 l -1.08727,0.17415 0.1142,-1.15393 c 0.12521,-1.26669 -0.33109,-2.42314 -1.00717,-2.55333 -0.58526,-0.11272 -0.69956,0.9096 -0.55139,4.92993 0.13048,3.53992 0.30328,4.0106 1.47123,4.0106 0.64739,0 1.1879,-0.67803 0.67644,-0.84852 -0.33272,-0.1109 -0.62825,-2.85564 -0.30747,-2.85564 0.12853,0 0.35036,0.1168 0.49299,0.25941 0.16937,0.16941 0.60418,0.16421 1.25316,-0.015 0.5465,-0.15086 1.19745,-0.24907 1.44694,-0.21807 0.24947,0.031 0.75137,-0.0643 1.11517,-0.21136 0.3638,-0.14706 1.41477,-0.34324 2.33526,-0.43615 0.92049,-0.0929 1.86301,-0.27459 2.09445,-0.40411 0.23144,-0.12947 0.74885,-0.14149 1.15031,-0.0264 0.40147,0.1151 0.80289,0.13654 0.89194,0.0475 0.0891,-0.089 7.3313,-0.19354 16.09359,-0.23254 8.76229,-0.039 18.31258,-0.0899 21.22299,-0.11265 8.2068501,-0.0641 11.4885101,0.0441 11.70472014,0.3855 0.10528,0.16624 0.26504,1.18352 0.35501,2.26085 0.12263,1.46829 0.28584,2.048 0.65112,2.3151 v 5.3e-4 c 1.11204996,0.81314 1.56044996,0.02 0.81598,-1.44281 -0.19999,-0.39295 -0.34883,-1.36901 -0.33073,-2.16937 0.0292,-1.29301 0.0921,-1.44735 0.56223996,-1.38545 0.92366,0.12166 2.83951,0.0644 5.15937,-0.15399 1.27913,-0.12042 4.4167999,-0.0906 7.2760399,0.0687 2.7649,0.15411 6.09866,0.25292 7.40834,0.21962 1.30969,-0.0333 6.121308,-0.11767 10.692368,-0.18707 4.57106,-0.0694 8.61918,-0.1886 8.99583,-0.2651 0.71699,-0.14563 5.05204,-0.2379 8.5633,-0.1819 l 2.05724,0.0331 -0.0532,1.52136 c -0.0654,1.86761 0.18949,2.71198 0.81856,2.71198 0.77618,0 1.11939,-0.60921 0.68936,-1.22319 -0.28731,-0.41018 -0.31005,-0.79874 -0.10335,-1.76785 l 0.2651,-1.2423 1.36788,-0.007 c 0.7522,-0.004 3.45094,-0.0653 5.99756,-0.13694 7.53537,-0.2119 40.143327,-0.0175 40.401667,0.24081 0.0536,0.0536 0.20117,1.01988 0.32764,2.14768 0.13414,1.1961 0.39513,2.21622 0.62682,2.44791 0.73615,0.73613 0.96727,0.15387 0.79994,-2.0159 -0.19822,-2.57042 0.0153,-3.02255 1.42679,-3.02255 0.57783,0 1.15838,0.0666 1.28985,0.14779 0.1315,0.0812 2.38186,0.16073 5.00126,0.17674 2.61935,0.016 6.36984,0.0396 8.33438,0.0527 1.96453,0.0131 5.8936,0.0275 8.73125,0.0315 10.59937,0.0155 16.56451,0.12224 17.48782,0.31315 0.70319,0.1454 1.05699,0.0913 1.35546,-0.20722 0.45972,-0.45971 4.11795,-0.67001 4.73512,-0.27233 0.72766,0.46889 4.63852,0.54846 8.3039,0.16898 3.1451,-0.32564 9.52714,-0.46202 14.55208,-0.31109 1.9599,0.0589 6.48229,-0.32548 6.48229,-0.55087 0,-0.37532 -1.68484,-0.5262 -5.92005,-0.53021 -2.34651,-0.002 -4.43733,-0.11222 -4.64624,-0.24443 -0.56523,-0.35764 0.0277,-0.94728 1.52498,-1.51618 0.67974,-0.25829 1.71315,-0.72202 2.29597,-1.03043 0.5828,-0.3084 1.5353,-0.70702 2.11667,-0.88573 1.3563,-0.41694 1.78742,-0.59193 3.64371,-1.4795 1.76524,-0.84405 2.41763,-0.85998 15.00788,-0.3607 12.53831,0.49722 67.92182,0.29302 75.40625,-0.27802 2.11005,-0.16099 8.59896,-0.29087 14.41979,-0.28887 8.93175,0.003 12.19089,-0.009 19.18229,-0.0703 0.3638,-0.003 2.92365,0.0242 5.68854,0.061 4.6477,0.0619 10.58527,-0.0881 15.08125,-0.38086 1.01865,-0.0663 2.98088,-0.19412 4.36047,-0.28422 2.48668,-0.16239 15.30112,-0.17456 17.33537,-0.0165 1.60747,0.12487 3.6567,0.4722 4.10104,0.69557 0.50929,0.25601 1.5875,-0.14582 1.5875,-0.5917 0,-0.68166 -1.12358,-1.00925 -4.30104,-1.2547 -4.01138,-0.30987 -13.09889,-0.42877 -15.93959,-0.20826 -8.21534,0.63767 -10.5741,0.68424 -36.64479,0.71624 -10.98682,0.0135 -22.11917,0.15356 -24.73854,0.31161 -6.06248,0.36579 -12.34795,0.50738 -20.37292,0.45888 -9.31958,-0.0564 -24.55034,0.0395 -26.9875,0.17002 -6.80095,0.3642 -30.85036,0.0927 -33.36282,-0.37672 -0.67315,-0.1258 -2.30642,-0.18756 -3.62976,-0.13746 -1.37637,0.0521 -2.54413,-0.0232 -2.72852,-0.17622 -0.2181,-0.18104 -0.86344,-0.16819 -1.99625,0.0403 -0.92081,0.16948 -4.76994,0.34689 -8.55348,0.39429 -3.78354,0.0474 -8.18886,0.18251 -9.78958,0.30024 -3.43975,0.25258 -10.10574,0.25486 -10.35752,0.003 -0.19036,-0.19039 0.67461,-2.29805 0.94308,-2.29805 0.0894,0 0.56486,-0.68461 1.05627,-1.52135 0.81405,-1.38609 1.31199,-1.99512 3.62511,-4.43178 0.41442,-0.43656 0.72089,-0.94257 0.68109,-1.12447 -0.0398,-0.1819 0.0508,-0.33073 0.20103,-0.33073 0.31613,0 0.94179,-0.48094 2.66857,-2.05052 0.6804,-0.61847 1.31429,-1.12448 1.40869,-1.12448 0.0944,0 0.60222,-0.47626 1.1281,-1.05834 0.52586,-0.58209 1.09128,-1.0594 1.25627,-1.0604 0.16497,-10e-4 1.05815,-0.77491 1.98488,-1.71979 0.9267,-0.94487 1.7857,-1.71772 1.90892,-1.71772 0.12324,0 0.64468,-0.36948 1.15911,-0.82114 0.5144,-0.45165 1.67949,-1.20884 2.589,-1.68207 4.22719,-2.19958 5.31963,-2.81265 5.59292,-3.13934 0.16179,-0.1934 0.97867,-0.57546 1.81541,-0.84905 1.10144,-0.36014 1.52136,-0.62807 1.52136,-0.97151 0,-0.2609 -0.14883,-0.47451 -0.33073,-0.47439 z m 41.50651,0.11265 c 0.28535,0.006 0.50988,0.18324 0.66868,0.53175 0.17007,0.37324 0.40608,0.67851 0.52451,0.67851 0.11843,0 0.40677,0.37011 0.64079,0.82269 0.23405,0.45258 0.32631,0.76417 0.20516,0.69247 -0.12115,-0.0717 -0.51779,-0.008 -0.88159,0.14056 -0.7208,0.29517 -2.10756,0.4071 -3.21895,0.25941 -0.92945,-0.12352 -1.18456,-0.81986 -0.48109,-1.31258 0.29975,-0.20996 0.81862,-0.65532 1.1529,-0.9896 0.55567,-0.55568 1.02269,-0.83088 1.38959,-0.82321 z m 8.80618,0.98909 c 0.36729,-0.0249 0.55105,0.17499 0.65577,0.59221 0.26061,1.03839 -0.0978,2.2748 -0.6594,2.2748 -0.30313,0 -0.55483,0.25314 -0.65733,0.66145 -0.0913,0.36381 -0.30316,0.66146 -0.47077,0.66146 -0.16761,0 -0.63177,0.30325 -1.03145,0.67386 -0.39968,0.3706 -1.21703,0.84686 -1.81642,1.05834 -1.55834,0.5498 -1.74292,0.50454 -1.61129,-0.39223 0.11073,-0.75444 0.38989,-1.13135 1.53789,-2.07584 0.30417,-0.25024 0.63334,-0.78118 0.73174,-1.17977 0.12565,-0.50888 0.59142,-0.96114 1.56374,-1.51877 0.83899,-0.48117 1.3902,-0.73062 1.75752,-0.75551 z m -43.27591,1.04799 c -0.0622,-0.001 -0.1456,0.0158 -0.25374,0.0455 -0.27448,0.0753 -0.82661,0.20959 -1.22679,0.2987 -0.40018,0.0891 -0.72435,0.24917 -0.71935,0.35553 0.0143,0.32698 0.63143,1.02473 1.05008,1.18752 v 5.3e-4 c 0.60801,0.23641 0.84013,0.22055 0.6754,-0.046 -0.0823,-0.13309 -0.0385,-0.28193 0.0971,-0.33073 0.13568,-0.0488 0.33129,-0.42966 0.43461,-0.84594 0.12213,-0.492 0.12914,-0.66117 -0.0574,-0.66508 z m 35.75957,5.78777 c -0.21828,0 -0.39687,0.11906 -0.39687,0.26458 0,0.14552 0.17859,0.26458 0.39687,0.26458 0.21828,0 0.39688,-0.11906 0.39688,-0.26458 0,-0.14552 -0.1786,-0.26458 -0.39688,-0.26458 z m -91.63111,19.01537 c 4.79327,0.008 9.7245,0.19279 9.9286,0.39688 0.0523,0.0523 1.49037,0.0658 3.19566,0.03 1.7053,-0.0358 4.70795,0.10729 6.67248,0.31781 2.3391,0.25064 4.48503,0.31966 6.21771,0.19947 5.31278,-0.36859 6.438,-0.41524 11.20396,-0.46354 2.66965,-0.0271 4.89405,0.0159 4.94337,0.0956 0.28874,0.46719 -1.09955,1.3181 -3.18275,1.95078 -0.87315,0.26518 -1.97832,0.64639 -2.45618,0.84698 -0.47789,0.20059 -0.99158,0.36483 -1.14155,0.36483 -0.14999,0 -0.85383,0.24961 -1.56371,0.55501 -0.9956,0.42828 -1.30942,0.70748 -1.37202,1.2206 -0.0786,0.64393 -0.1533,0.66817 -2.33008,0.75447 -1.23693,0.0491 -3.49912,0.13929 -5.02709,0.19999 -1.52797,0.0607 -3.61159,0.008 -4.6302,-0.11782 -1.01868,-0.12551 -3.36672,-0.35719 -5.21777,-0.5147 -2.88912,-0.24584 -3.44623,-0.23013 -3.93415,0.11162 -0.44386,0.31089 -1.09757,0.36913 -2.98431,0.2651 -5.41451,-0.29874 -16.78982,-0.4842 -18.02627,-0.29403 -0.72764,0.1119 -5.19246,0.13495 -9.92189,0.0512 -4.72943,-0.0838 -8.85769,-0.14598 -9.17414,-0.13798 -0.43068,0.0106 -0.61962,-0.18793 -0.75189,-0.79013 -0.14944,-0.68038 -0.28517,-0.79227 -0.88003,-0.72347 -0.53856,0.0623 -0.72215,0.24627 -0.78446,0.78444 -0.0539,0.46563 -0.27842,0.75205 -0.66506,0.84905 -0.32094,0.0806 -5.225647,0.0941 -10.899087,0.03 -15.55135,-0.17573 -19.23888,-0.18499 -26.45471,-0.0656 -3.63802,0.06 -7.35873,0.0603 -8.26823,5.3e-4 l -1.65365,-0.10852 v -0.84957 c 0,-0.95118 -0.39908,-1.48466 -1.11104,-1.48466 -0.34558,0 -0.47646,0.20385 -0.47646,0.74311 0,1.61377 -0.15039,1.65776 -6.09317,1.78439 -2.9789,0.0635 -5.95199,0.17343 -6.60683,0.24443 -1.23931,0.13435 -22.409898,0.28625 -31.6177079,0.22685 -2.91042,-0.0186 -5.64885,-0.0163 -6.08541,0.005 -0.74875996,0.0368 -0.79374996,-0.0178 -0.79374996,-0.96066 0,-0.90528 -0.38923,-1.49769 -0.99219,-1.50999 -0.10914,-0.002 -0.19844,0.52337 -0.19844,1.16841 0,0.88689 -0.11287,1.2076 -0.46302004,1.31413 -0.25466,0.0774 -4.8088,0.14861 -10.1203101,0.15761 -5.31151,0.009 -12.87198,0.0677 -16.80104,0.13023 -3.92907,0.0624 -7.97719,0.10335 -8.99584,0.0909 -1.01864,-0.0124 -2.86411,-0.0123 -4.10104,0 -1.23692,0.0124 -4.65995,0.0572 -7.60677,0.0997 -2.94682,0.0425 -5.35783,0.002 -5.35781,-0.0894 7e-5,-0.29814 2.43458,-0.78926 3.14554,-0.63459 0.51072,0.11111 0.88082,-0.0266 1.41852,-0.5271 0.40018,-0.37247 0.72761,-0.60485 0.72761,-0.51624 0,0.0886 0.34578,-0.0851 0.76843,-0.38603 0.42264,-0.30095 1.01104,-0.54725 1.30741,-0.54725 0.29637,0 0.61234,-0.11907 0.70228,-0.26459 0.0899,-0.14551 0.36474,-0.26534 0.61082,-0.26613 0.24607,-7.9e-4 0.76297,-0.16666 1.14876,-0.36793 0.57378,-0.29938 2.42136,-0.74914 5.51646,-1.34359 0.21828,-0.0419 1.17078,0.0368 2.11667,0.17466 3.09483,0.45111 15.56961,0.73428 18.63969,0.42323 1.02595,-0.10393 4.72302,-0.31096 8.2155201,-0.46043 3.4925,-0.14948 6.78684,-0.3776 7.321,-0.50643 0.62149,-0.14994 1.51807,-0.12438 2.48977004,0.0703 0.99487,0.19931 2.25674996,0.23031 3.65919996,0.0904 1.78322,-0.17787 4.7995101,-0.39424 6.5060699,-0.46664 1.9212,-0.0815 6.71349,0.0365 6.93033,0.17053 0.42427,0.26221 19.634648,-0.0206 23.761338,-0.34985 0.94589,-0.0755 3.4462,-0.16764 5.55625,-0.20464 4.24683,-0.0744 15.95156,-0.41818 19.05,-0.55965 3.96663,-0.18111 6.26322,-0.0974 8.4863,0.30902 1.90423,0.34811 2.8174,0.36805 5.68854,0.12454 3.36632,-0.28549 11.6465,-0.37508 12.04268,-0.13022 0.11153,0.0689 1.66967,0.18906 3.46283,0.26716 2.40427,0.10469 3.98971,0.0224 6.038397,-0.31367 3.24911,-0.53302 18.39837,-0.7743 18.98387,-0.30231 0.22495,0.18132 0.44886,0.16882 0.70019,-0.0398 0.20325,-0.16867 1.12596,-0.29563 2.05052,-0.28164 0.92456,0.014 4.30043,-2.6e-4 7.50189,-0.032 0.66495,-0.007 1.34665,-0.009 2.03139,-0.008 z m 215.01791,5.08393 c -0.92461,-0.0227 -1.99157,0.0626 -2.86599,0.26407 -0.65315,0.15051 -3.213,0.24727 -5.68855,0.21497 -6.59164,-0.086 -16.48645,-0.002 -17.89038,0.15245 -0.67006,0.0735 -3.70615,0.30846 -6.74687,0.52245 -3.0407,0.214 -6.7785,0.48377 -8.30647,0.59893 -1.52797,0.11517 -7.3737,0.20889 -12.9904,0.20877 -8.11522,-1.6e-4 -10.29915,-0.0724 -10.63657,-0.35244 -0.24241,-0.20118 -0.65876,-0.27821 -0.97049,-0.17931 -0.3003,0.0953 -0.94538,0.0421 -1.43299,-0.11886 -1.26113,-0.41621 -4.14522,-0.48349 -9.02684,-0.21032 -6.1056,0.34165 -10.22069,0.49661 -10.98021,0.41341 -0.3638,-0.0398 -3.87614,-0.0354 -7.8052,0.0103 -16.92596,0.19677 -27.0206,0.0895 -35.24076,-0.37517 -1.19224,-0.0674 -2.65075,-0.0143 -3.24114,0.11834 -0.59042,0.1326 -1.07331,0.15266 -1.07331,0.0444 0,-0.10821 -1.39899,-0.27762 -3.10886,-0.37673 -1.70987,-0.0991 -3.52557,-0.27376 -4.03489,-0.38808 -0.50933,-0.1143 -1.2237,-0.12244 -1.5875,-0.0181 -0.36381,0.10433 -1.57845,0.2015 -2.69907,0.216 -1.12062,0.0145 -2.6089,0.1395 -3.30729,0.27802 -2.31931,0.46008 -7.56195,0.51502 -9.11262,0.0956 -1.78515,-0.48277 -6.42509,-0.50761 -7.50446,-0.0403 -0.73356,0.3176 -0.57597,0.35661 2.11823,0.52762 1.60073,0.10161 3.32711,0.24708 3.83646,0.32298 2.44467,0.36418 7.99274,0.48414 9.05991,0.19585 1.65632,-0.4475 11.37441,-0.52266 11.89744,-0.092 0.30089,0.24775 2.4333,0.36682 8.14785,0.45372 4.2573,0.0648 7.81473,0.19134 7.90493,0.28164 v 5.3e-4 c 0.0902,0.0899 0.76099,0.0891 1.49087,-0.002 0.72988,-0.0911 3.94457,-0.14734 7.14375,-0.12454 8.73853,0.0624 9.33228,0.059 19.17816,-0.11318 5.02045,-0.0878 9.58512,-0.22445 10.14357,-0.30385 0.55843,-0.0794 2.93968,-0.2017 5.29167,-0.2713 2.35196,-0.0696 4.64132,-0.18675 5.08754,-0.26045 0.72475,-0.11973 4.69807,0.20241 6.06785,0.49196 2.3463,0.49596 18.64159,0.72811 24.73854,0.35243 1.67349,-0.10311 4.50366,-0.24901 6.28954,-0.32401 1.78589,-0.075 4.64339,-0.26236 6.35,-0.41703 5.03666,-0.45648 14.42689,-0.59176 17.65525,-0.25425 3.68205,0.38493 5.39578,0.42038 8.86354,0.18449 1.52797,-0.10394 3.70838,-0.22601 4.84519,-0.2713 2.2878,-0.0911 2.98812,-0.43966 2.15233,-1.07177 -0.30467,-0.23042 -1.08717,-0.36126 -2.01176,-0.38396 z m -201.0353,3.03754 c -0.37819,-0.0135 -0.80047,0.37759 -0.80047,0.79944 0,1.65366 -6.16391,6.98872 -8.07444,6.98872 -0.26559,0 -0.67099,0.15817 -0.90073,0.3514 -0.58528,0.49227 -3.15264,1.50023 -3.82611,1.50223 -0.308,7.9e-4 -0.91736,0.19334 -1.35392,0.42788 -1.30744,0.70237 -4.60651,0.93791 -8.15248,0.58188 -0.84598,-0.0849 -1.9771,-0.0409 -2.51354,0.0977 -0.55327,0.14295 -10.82324,0.32865 -23.729837,0.42891 -30.15639,0.23426 -45.53979,0.0864 -48.02187,-0.46095 -0.65485,-0.14441 -2.52998,-0.30682 -4.16719,-0.36122 -1.63721,-0.0544 -3.05639,-0.17802 -3.15329,-0.27492 -0.0969,-0.0969 -1.40128,-0.17622 -2.89905,-0.17622 -1.49777,0 -3.65099,-0.1204 -4.78472,-0.26768 -1.13373,-0.14728 -2.95435,-0.38328 -4.04575,-0.52452 -1.09141,-0.14121 -3.175,-0.32214 -4.630208,-0.40204 -1.45521,-0.0799 -3.5388,-0.21504 -4.63021,-0.30024 -3.95914,-0.30894 -28.3710599,-0.22957 -28.9186499,0.094 -0.11628,0.0687 -0.89018,0.15782 -1.7197901,0.19792 -0.8296,0.0401 -3.71109,0.22425 -6.40322,0.40928 -4.31032,0.29644 -9.67335,0.34601 -32.14688,0.29921 -4.16542,-0.009 -5.4752,0.0664 -5.9154,0.33848 -0.14623,0.0904 -0.34037,0.0436 -0.4315,-0.10387 -0.10485,-0.16965 -2.90445,-0.27906 -7.62486,-0.29766 -4.10265,-0.0162 -8.11433,-0.063 -8.9147,-0.10387 -2.04815,-0.1045 -4.85806,-0.11486 -11.112498,-0.0419 -2.98317,0.0348 -7.2099,-0.0247 -9.39271,-0.13229 -2.18282,-0.10762 -8.552647,-0.26903 -14.155207,-0.35863 -5.60256,-0.0896 -10.54364,-0.20942 -10.9802,-0.26562 -0.43656,-0.0562 -5.17822,-0.17216 -10.53683,-0.25786 -8.78015,-0.14042 -10.28351,-0.0997 -15.21354,0.41134 -4.33629,0.44948 -6.45798,0.53779 -10.23297,0.4253 -2.61937,-0.078 -5.06016,-0.20969 -5.42396,-0.29249 -0.36381,-0.0828 -2.14974,-0.15736 -3.96875,-0.16537 -4.819,-0.021 -4.44249,-0.0774 -4.30361,0.64906 0.15184,0.79433 0.80139,0.92294 3.77445,0.74931 3.0435,-0.17776 3.29799,-0.16896 5.42396,0.18242 2.1303,0.35211 12.72574,0.15037 13.81311,-0.26304 0.36813,-0.13997 3.72131,-0.30693 7.45122,-0.37103 3.72991,-0.0641 7.6447,-0.19493 8.69973,-0.29042 1.1396,-0.10323 1.91823,-0.0733 1.91823,0.0739 0,0.13628 0.53578,0.21636 1.19062,0.17776 0.65485,-0.0386 1.19063,0.0245 1.19063,0.14004 0,0.11559 2.7682,0.20871 6.15156,0.20671 3.38336,-0.002 10.0211,0.089 14.75052,0.20154 4.729427,0.11257 11.999867,0.2304 16.156637,0.262 4.15677,0.0316 7.698868,0.14456 7.871348,0.25115 0.1748,0.10804 0.31368,0.054 0.31368,-0.12196 0,-0.23744 0.83595,-0.27087 3.37344,-0.13488 3.00612,0.16111 11.67802,0.41665 14.48593,0.42685 0.58209,0.002 3.38006,-0.0613 6.21771,-0.14108 6.26069,-0.17604 5.37965,-0.17466 15.79542,-0.0294 4.68566,0.0653 8.75138,0.19257 9.03511,0.28267 0.28373,0.0901 1.27204,0.0467 2.19625,-0.0961 0.9242,-0.14287 3.76411,-0.28883 6.31072,-0.32453 2.54662,-0.0357 6.35662,-0.22128 8.46667,-0.41237 7.9953701,-0.72412 13.3819701,-0.85152 27.38437,-0.64854 3.1897,0.0462 11.769828,0.5832 13.096878,0.81958 0.80036,0.14257 2.16959,0.31429 3.04271,0.38189 3.66522,0.28374 6.46271,0.47313 8.20208,0.55552 3.31512,0.15715 6.87019,0.43918 7.27604,0.57723 0.6652,0.22625 2.70909,0.31584 10.98021,0.48111 4.36562,0.0872 8.05656,0.20445 8.20208,0.26045 0.14552,0.056 3.24115,0.0383 6.87917,-0.0393 3.63802,-0.0776 15.12755,-0.18376 25.5323,-0.23616 10.404737,-0.0524 19.810687,-0.10864 20.902087,-0.12454 1.09141,-0.0159 3.47266,-0.004 5.29167,0.0269 1.99522,0.0336 3.60259,-0.0636 4.05194,-0.24546 0.40965,-0.16578 0.85875,-0.30128 0.99787,-0.30128 0.22667,0 2.62641,-0.62592 5.33509,-1.39164 0.5457,-0.15426 0.99218,-0.40078 0.99218,-0.54726 0,-0.1465 0.0763,-0.18983 0.1695,-0.0966 0.0932,0.0932 0.48014,0.002 0.85989,-0.20205 0.37976,-0.20415 1.31546,-0.63856 2.07947,-0.96584 0.76396,-0.32726 1.38906,-0.7002 1.38906,-0.82837 0,-0.1281 0.10414,-0.16862 0.23151,-0.0899 0.62807,0.38819 4.11954,-2.91132 5.30717,-5.01571 0.894,-1.5841 0.99529,-2.11225 0.44649,-2.32286 -0.0509,-0.0195 -0.10361,-0.0301 -0.15762,-0.032 z"
       id="path3792"
       inkscape:export-filename="/Users/jan/Documents/repo/github/microcol/microcol-game/src/main/resources/images/colony.png"
       inkscape:export-xdpi="38.16"
       inkscape:export-ydpi="38.16" />
    <g
       transform="matrix(0.54899153,0,0,0.64019588,209.49574,-33.619712)"
       id="g5256"
       inkscape:export-filename="/Users/jan/Documents/repo/github/microcol/microcol-game/src/main/resources/images/colony.png"
       inkscape:export-xdpi="38.16"
       inkscape:export-ydpi="38.16">
      <g
         transform="translate(-45.970357,-17.639789)"
         id="g5228"
         style="display:inline">
        <path
           style="fill:#d2d44f;fill-opacity:1;stroke:#d8d5db;stroke-width:0.50513047;stroke-linejoin:round;stroke-miterlimit:4;stroke-dasharray:none;stroke-opacity:1"
           id="path819"
           sodipodi:type="arc"
           sodipodi:cx="248.5367"
           sodipodi:cy="3.0791903"
           sodipodi:rx="25.295971"
           sodipodi:ry="24.173422"
           sodipodi:start="0.6149144"
           sodipodi:end="0.60537094"
           sodipodi:open="true"
           d="m 269.19902,17.024562 a 25.295971,24.173422 0 0 1 -35.20594,5.833247 25.295971,24.173422 0 0 1 -6.18811,-33.629612 25.295971,24.173422 0 0 1 35.17642,-5.993718 25.295971,24.173422 0 0 1 6.35596,33.601011"
           inkscape:export-filename="/Users/jan/Documents/repo/github/microcol/microcol-game/src/main/resources/images/sunset.png"
           inkscape:export-xdpi="39.580002"
           inkscape:export-ydpi="39.580002" />
      </g>
      <path
         inkscape:connector-curvature="0"
         id="path6048"
         d="m 201.07844,-38.805129 c -0.60338,-0.0066 -1.61762,0.03959 -2.75798,0.133325 -2.39233,0.196728 -3.82611,0.461214 -5.1387,0.947746 -1.00135,0.37112 -2.02378,0.686588 -2.2717,0.701249 -0.24791,0.0147 -0.66294,0.217969 -0.92294,0.452169 -0.1592,0.143396 -0.41214,0.271425 -0.66714,0.358634 -0.13338,0.02248 -0.25317,0.05455 -0.36432,0.09457 -0.0337,0.0046 -0.0684,0.0095 -0.10025,0.01137 -0.3618,0.0213 -0.64576,0.157715 -0.63149,0.302824 0.009,0.0933 -0.0808,0.177452 -0.21497,0.232544 l 0.009,0.08888 c -0.30936,0.288123 -0.47495,0.507834 -0.3638,0.507979 0.31195,4.3e-4 -1.42564,1.277431 -2.02365,1.487248 -0.25466,0.08935 -0.46302,0.32316 -0.46302,0.519348 0,0.196189 -0.23813,0.483995 -0.52916,0.639755 -0.29103,0.155756 -0.52917,0.498858 -0.52917,0.762227 0,0.263371 -0.23512,0.691335 -0.52245,0.951363 -0.2873,0.260027 -0.60038,0.719683 -0.69608,1.021126 -0.1929,0.607795 -0.74125,1.234034 -1.08004,1.234034 -0.21897,0 -1.67018,2.964921 -1.67018,3.412194 0,0.129524 -0.18587,0.306996 -0.41341,0.394291 -0.22751,0.0873 -0.34937,0.26254 -0.27079,0.389641 0.0786,0.127098 -0.0927,0.444065 -0.38034,0.70435 -0.2876,0.260283 -0.52296,0.685781 -0.52296,0.945678 0,0.2599 -0.11404,0.542891 -0.25322,0.628902 -0.13912,0.08601 -0.19123,0.317545 -0.11575,0.514181 0.0755,0.196633 -0.0394,0.779908 -0.25528,1.296562 -0.2159,0.516655 -0.35733,1.155757 -0.31471,1.420068 0.0426,0.264316 -0.0369,0.624424 -0.17622,0.799951 -0.13931,0.175527 -0.17331,0.44841 -0.0754,0.606682 0.0978,0.15827 0.0346,0.460661 -0.14056,0.671793 -0.17515,0.211132 -0.25796,0.616915 -0.18345,0.901754 0.0745,0.28484 0.0177,0.557029 -0.1266,0.605131 -0.14428,0.0481 -0.32665,0.887475 -0.40515,1.865002 -0.0785,0.977524 -0.23761,1.777153 -0.35346,1.777153 -0.11594,0 -0.17541,1.160859 -0.13281,2.5796872 0.0558,1.859883 0.2352,2.9857306 0.64337,4.0348958 0.31133,0.8003649 0.56629,1.6127606 0.56637,1.8050576 8e-5,0.1922944 0.1786,0.5279268 0.39688,0.7462078 0.21828,0.21828 0.39687,0.6267889 0.39687,0.907438 0,0.280646 0.11906,0.51004658 0.26459,0.51004658 0.14552,0 0.26458,0.17363308 0.26458,0.38550612 0,0.50554995 1.52402,3.0816108 2.05104,3.4669716 0.22612,0.165309 0.33892,0.4177295 0.25063,0.5606894 -0.23661,0.3828651 3.38337,3.7145854 4.66586,4.2943115 2.32344,1.0502609 3.2112,1.3580502 5.8074,2.0143473 1.94517,0.4917301 3.02858,0.6328691 3.95531,0.5152141 0.86542,-0.109871 1.70087,-0.02109 2.59519,0.275952 0.72543,0.240951 1.88319,0.535102 2.57246,0.653707 1.23245,0.212076 4.57655,0.100494 5.35419,-0.178801 0.2183,-0.07839 0.75409,-0.189264 1.19063,-0.246496 0.43656,-0.05724 0.8331,-0.22213 0.8816,-0.366386 0.0485,-0.144254 0.65881,-0.262516 1.35599,-0.262516 0.69718,0 1.75914,-0.173167 2.35954,-0.3849898 0.60036,-0.2118289 1.09255,-0.3011194 1.09554,-0.1984375 0.002,0.1026832 0.10864,0.021331 0.23668,-0.1808673 0.12805,-0.2022002 0.62768,-0.3987178 1.11001,-0.436666 0.48242,-0.03794 1.06005,-0.2894462 1.28416,-0.5586222 0.2241,-0.269177 0.75476,-0.5144653 1.17926,-0.5451863 0.42447,-0.03072 0.85602,-0.1924003 0.95911,-0.3591513 0.10811,-0.174906 0.4255,-0.227485 0.74983,-0.1245401 0.40996,0.130122 0.56223,0.06626 0.56223,-0.2361613 0,-0.2843951 0.24944,-0.4149616 0.79375,-0.4149616 0.43656,0 0.79375,-0.1190625 0.79375,-0.2645834 0,-0.1455211 0.22803,-0.2645833 0.50695,-0.2645833 0.2789,0 0.54681,-0.1168427 0.59531,-0.2599325 0.0485,-0.1430912 0.6186,-0.5300448 1.26659,-0.8598958 0.72284,-0.3679592 1.37408,-0.9578441 1.68517,-1.526005 0.27893,-0.5093242 0.49132,-0.9561512 0.47232,-0.9932212 -0.019,-0.03707 0.14544,-0.4983435 0.36536,-1.0247437 0.21995,-0.526397 0.39997,-1.21386519 0.39997,-1.52755518 0,-0.31369 0.22211,-0.76029925 0.49351,-0.99270422 0.27147,-0.2324042 0.57901,-0.8840547 0.68368,-1.4479735 0.10467,-0.5639237 0.34811,-1.2038537 0.54054,-1.4221354 0.19243,-0.2182813 0.4844,-0.9028904 0.64905,-1.5213542 0.16468,-0.618463 0.41405,-1.1244791 0.55397,-1.1244791 0.13991,0 0.25425,-0.231208 0.25425,-0.513664 0,-0.282448 0.10465,-0.5777883 0.23255,-0.6568075 0.39441,-0.243795 0.7064,-4.2962696 0.54156,-7.0316116 -0.0365,-0.605906 -0.64475,-3.445622 -1.26142,-5.886979 -0.13784,-0.545703 -0.1895,-0.992188 -0.1142,-0.992188 0.0753,0 0.0167,-0.148828 -0.13023,-0.330729 -0.25495,-0.315727 -0.7415,-2.50533 -0.6444,-2.900081 0.0255,-0.103563 -0.30943,-0.836753 -0.74414,-1.628842 -0.43466,-0.792087 -0.79014,-1.682385 -0.79014,-1.97869 0,-0.296306 -0.10787,-0.605259 -0.23977,-0.68678 -0.13189,-0.08151 -0.42754,-0.698651 -0.65681,-1.371492 -0.3896,-1.14332 -1.30612,-2.442095 -2.94297,-4.168221 l -0.061,-0.617534 c -0.25443,-0.07878 -0.51269,-0.155655 -0.76378,-0.227376 -0.82952,-0.81475 -1.10575,-0.903722 -2.14716,-0.888318 -0.0927,0.0014 -0.16393,0.0078 -0.24494,0.01189 -0.13671,-0.15022 -0.32264,-0.214343 -0.45269,-0.141077 -0.15613,0.088 -0.58193,-0.05903 -0.94568,-0.326078 -0.36375,-0.267042 -0.93513,-0.469283 -1.2702,-0.449585 -0.33507,0.0197 -0.71107,-0.07242 -0.83561,-0.204639 -0.12451,-0.13221 -0.42826,-0.166703 -0.67438,-0.07648 -0.24612,0.0902 -1.00929,0.01999 -1.69654,-0.156063 -0.68726,-0.176109 -1.52532,-0.26874 -1.8619,-0.206189 -0.3366,0.0625 -0.80856,0.01035 -1.04851,-0.115238 -0.2399,-0.125608 -0.59516,-0.139012 -0.78962,-0.02946 -0.19447,0.109519 -0.59014,0.06972 -0.87953,-0.08888 -0.28936,-0.158649 -0.82092,-0.210604 -1.18081,-0.114722 -0.35991,0.0959 -0.71605,0.0602 -0.7922,-0.0801 -0.0761,-0.140221 -1.17632,-0.258862 -2.44429,-0.263033 -1.26791,-0.004 -2.31461,-0.102035 -2.32596,-0.217558 -0.004,-0.04332 -0.21821,-0.06628 -0.57981,-0.07028 z m -0.18449,1.619539 c 0.63121,-0.0049 1.07124,0.01948 1.13223,0.08423 0.10858,0.115398 0.5829,0.186814 1.05317,0.159163 0.4703,-0.0277 1.20386,0.06942 1.63039,0.215491 0.42651,0.146101 1.65265,0.198905 2.7249,0.117306 1.11072,-0.0844 2.1503,-0.0227 2.41587,0.14366 0.2564,0.160549 0.61979,0.286067 0.8077,0.278019 0.94906,-0.0383 3.87192,0.247006 4.40955,0.430465 0.33737,0.115089 1.02191,0.48081 1.52187,0.81287 0.49998,0.332039 1.26197,0.585593 1.69292,0.563273 0.43095,-0.0223 1.18978,0.169652 1.68672,0.425814 0.39878,0.205581 0.84493,0.375054 1.11311,0.429948 0.63762,0.663969 1.12706,1.234411 1.12706,1.376143 0,0.193099 0.10468,0.350883 0.23255,0.350883 0.12788,0 0.37975,0.386954 0.56017,0.859896 0.18036,0.472943 0.55195,1.364913 0.82579,1.981791 0.27376,0.616876 0.4992,1.212189 0.4992,1.322917 6.1e-4,0.110725 0.27701,0.744848 0.61443,1.409733 0.33732,0.66489 0.88265,2.2127 1.21129,3.439583 0.32869,1.226883 0.82385,3.004775 1.10071,3.950664 0.98383,3.361128 1.20663,8.740665 0.42685,10.3037631 -0.2187,0.4383879 -0.33437,1.0379274 -0.25735,1.3322184 0.0769,0.2942881 0.016,0.5348512 -0.13487,0.5348512 -0.151,0 -0.35268,0.3571859 -0.44856,0.79375 -0.0959,0.436562 -0.2841,0.7937497 -0.41806,0.79375 -0.13396,0 -0.2434,0.229916 -0.2434,0.510563 0,0.2806481 -0.17858,0.6886403 -0.39687,0.9069213 -0.2183,0.2182802 -0.40115,0.6139616 -0.40514,0.8790162 -0.005,0.2650569 -0.17964,0.7078191 -0.38861,0.9839193 -0.20902,0.2761001 -0.31688,0.6038865 -0.23978,0.7286376 0.20101,0.32524697 -2.16844,4.919709 -2.93005,5.6813071 -0.20023,0.2002398 -0.6707,0.363802 -1.0449,0.363802 -0.3742,0 -0.68006,0.1002393 -0.68006,0.2227252 0,0.1224862 -0.50601,0.3729752 -1.12448,0.5565553 -0.61848,0.1835841 -1.24354,0.4292288 -1.38906,0.5462198 -0.14552,0.1169911 -0.68131,0.2539786 -1.19063,0.3038576 -0.50932,0.04988 -1.14247,0.285577 -1.40715,0.5239988 -0.26467,0.23842 -0.71115,0.3732115 -0.99219,0.2997235 -0.28102,-0.07349 -0.51108,-0.02042 -0.51108,0.1178221 0,0.138239 -0.14882,0.2658946 -0.33073,0.2837037 -0.46391,0.04543 -2.55721,0.5191464 -3.50572,0.7932333 -0.43653,0.126158 -1.47837,0.1946253 -2.31511,0.1524455 -0.83674,-0.04218 -1.52135,0.02374 -1.52135,0.1462442 0,0.122502 -0.35718,0.3705576 -0.79375,0.5513877 -0.43655,0.1808289 -0.79375,0.4502708 -0.79375,0.5989291 0,0.390865 -3.83916,0.07369 -5.29167,-0.437182 -0.65484,-0.2303182 -2.02404,-0.4220109 -3.04271,-0.4258137 -1.01864,-0.0038 -2.49743,-0.178716 -3.2861,-0.3886068 -0.78863,-0.209881 -1.5411,-0.3151254 -1.67225,-0.2340943 -0.21529,0.1330589 -1.76215,-0.5207112 -4.88807,-2.0655071 -2.15041,-1.0627058 -5.23864,-5.0360289 -6.44509,-8.2925168 -0.32348,-0.8731252 -0.68942,-1.6273578 -0.81338,-1.6758668 -0.12388,-0.04851 -0.22532,-0.3089648 -0.22532,-0.5792928 0,-0.270325 -0.11906,-0.5653172 -0.26458,-0.655257 -0.14552,-0.08994 -0.26458,-0.434368 -0.26458,-0.7653282 0,-0.3309599 -0.0893,-0.6908501 -0.19844,-0.799951 -0.27432,-0.2743362 -0.29484,-5.1722915 -0.0222,-5.3407595 0.12144,-0.07503 0.22066,-0.43517 0.22066,-0.799951 0,-0.364781 0.13991,-0.923414 0.31057,-1.241268 0.17068,-0.317852 0.29497,-1.259277 0.27647,-2.092379 -0.019,-0.86299 0.10381,-1.659882 0.28526,-1.852083 0.17513,-0.185544 0.32153,-0.456509 0.32452,-0.60203 0.0174,-0.734819 0.47337,-2.967038 0.68782,-3.367753 0.13454,-0.251446 0.53926,-0.751675 0.89968,-1.112077 0.3604,-0.3604 0.65793,-0.928937 0.66095,-1.262972 0.003,-0.334037 0.23893,-0.904855 0.52348,-1.268656 0.28455,-0.363802 0.52049,-0.792015 0.52348,-0.951364 0.003,-0.159347 0.24383,-0.505039 0.53485,-0.768428 0.29104,-0.263387 0.52917,-0.628527 0.52917,-0.81132 0,-0.182787 0.34312,-0.620924 0.76223,-0.973584 0.41916,-0.352664 0.84008,-0.887917 0.93586,-1.189592 0.0958,-0.301672 0.34845,-0.615475 0.5612,-0.697115 0.21275,-0.08164 0.38654,-0.328208 0.38654,-0.548286 0,-0.220076 0.30917,-0.477796 0.68678,-0.572575 0.43923,-0.110224 0.57294,-0.242464 0.37155,-0.366903 -0.21336,-0.131876 0.041,-0.546647 0.78962,-1.287777 0.60737,-0.601353 1.20139,-1.093473 1.31982,-1.093473 0.0662,0 0.14779,-0.06306 0.22324,-0.15658 1.06153,-0.381172 1.96043,-0.787202 2.0097,-0.911572 0.0504,-0.127198 0.37651,-0.247711 0.72502,-0.268201 0.34851,-0.0205 0.71684,-0.161756 0.81855,-0.313676 0.10165,-0.151918 0.53397,-0.296856 0.96067,-0.321944 0.42668,-0.0251 0.88183,-0.141291 1.01182,-0.258382 0.24505,-0.22075 3.85742,-0.496394 5.75107,-0.51108 z"
         style="fill:#000000;stroke-width:0.26458332" />
    </g>
    <path
       style="fill:#000000;stroke-width:0.26964265"
       d="m 61.098818,347.37844 -4e-6,10e-4 c -1.197134,8.6e-4 -2.37688,0.049 -2.476478,0.1443 -0.09918,0.0949 -0.448182,0.17231 -0.775662,0.17172 -0.32747,-2.2e-4 -0.667355,0.0679 -0.755369,0.15209 -0.112623,0.10778 -3.519763,0.169 -8.294258,0.17968 l -0.0041,0.97461 c -0.600612,0.0458 -1.064885,0.11498 -1.0976,0.20833 -0.06581,0.18754 -0.462648,0.19843 -1.216007,0.034 -0.714028,-0.15592 -1.906805,-0.14143 -3.298844,0.0395 -1.225325,0.15922 -2.745533,0.19343 -3.471334,0.0779 -0.710253,-0.11303 -1.538853,-0.17484 -1.8413,-0.13722 -1.509099,0.18783 -2.97528,0.0199 -3.272636,-0.37443 -0.224633,-0.29783 -0.535396,-0.36819 -1.063261,-0.24171 -0.410124,0.0983 -0.746341,0.28195 -0.746874,0.40843 -0.0012,0.27342 -8.946019,0.16798 -9.231799,-0.10886 -0.108385,-0.10498 -0.362076,-0.0598 -0.564213,0.10075 -0.268973,0.21372 -0.82863,0.20801 -2.086442,-0.0224 -1.274979,-0.23357 -2.066867,-0.24052 -3.066671,-0.0263 -0.74126,0.15885 -2.692618,0.34775 -4.337069,0.41944 -4.5848937,0.19986 -5.383038,0.35218 -4.9983159,0.9562 0.1263732,0.1984 0.017513,0.22307 -0.3396556,0.0764 -0.2887964,-0.11859 -0.8732606,-0.27404 -1.298978,-0.34499 -0.42572,-0.071 -0.9176046,-0.35235 -1.0935565,-0.62573 -0.3414418,-0.53046 -1.011423,-0.67927 -1.0133351,-0.22508 -0.0017,0.40339 -1.1841205,0.76533 -1.5556075,0.47619 -0.1989798,-0.15485 -0.3531371,-0.13994 -0.4166309,0.0411 -0.055398,0.15796 -0.3696255,0.30624 -0.6981401,0.32946 -0.3285175,0.0232 -0.6518327,0.24156 -0.7190092,0.48496 -0.1073354,0.38896 0.098197,0.42908 1.6990094,0.33075 1.0016013,-0.0616 1.9449064,-0.10998 2.0960342,-0.10781 0.1511278,0.003 1.2135328,0.0292 2.3607325,0.0601 1.1472105,0.0309 2.2101425,-0.0175 2.361971,-0.10728 0.1518257,-0.09 0.9789487,-0.12477 1.8384797,-0.0773 0.859528,0.0474 1.622395,-0.005 1.695044,-0.11784 0.07265,-0.11234 1.846567,-0.19856 3.942521,-0.19174 2.183145,0.007 4.04515,-0.10757 4.359301,-0.26851 0.301609,-0.15453 0.626316,-0.20576 0.721167,-0.11394 0.09486,0.0919 1.006804,0.19718 2.02705,0.23418 1.020266,0.037 2.905893,0.14089 4.190189,0.23091 2.2679,0.15892 10.434556,0.50723 11.264651,0.48047 7.977073,-0.25706 10.077471,-0.37428 10.294166,-0.57393 0.144095,-0.13283 0.611813,-0.24072 1.039759,-0.23994 0.463464,8.9e-4 0.87056,-0.24609 1.009553,-0.51907 0.242349,-0.008 0.489864,-0.0159 0.738876,-0.0245 -0.0038,0.16531 0.04391,0.28226 0.138161,0.28243 0.128205,2.4e-4 0.233857,-0.13143 0.249638,-0.29719 0.08039,-0.003 0.161102,-0.006 0.242042,-0.01 0.0021,0.004 0.0027,0.005 0.0059,0.008 0.295892,0.45316 3.967777,0.32194 4.471068,-0.15978 0.02304,-0.0221 0.03543,-0.0394 0.05504,-0.0599 0.17296,-0.007 0.330493,-0.0172 0.508039,-0.0239 -0.12921,0.26072 0.108611,0.47682 0.695201,0.49527 0.415575,0.013 1.064023,0.13597 1.441291,0.27345 0.377276,0.13744 0.933618,0.16852 1.236314,0.0688 0.302698,-0.0996 1.972328,-0.14242 3.710218,-0.095 2.55032,0.0695 3.358292,-0.002 4.188472,-0.37167 0.271606,-0.12089 0.480205,-0.24145 0.625381,-0.35491 0.958951,0.0337 1.901855,0.0722 2.795015,0.12137 2.493194,0.13724 7.871935,0.27446 11.952573,0.305 4.080622,0.0306 7.980749,0.14401 8.666876,0.25199 0.714994,0.11257 1.561126,0.082 1.982594,-0.0712 0.404449,-0.14708 0.795984,-0.17224 0.869851,-0.0563 0.07387,0.11599 0.909598,0.23899 1.857213,0.27366 0.947582,0.0346 1.764691,0.10324 1.815171,0.15215 0.0505,0.0489 0.48554,0.0449 0.96751,-0.009 0.48192,-0.054 2.54279,-0.17489 4.57951,-0.26861 1.90913,-0.0879 2.98637,-0.18294 3.69051,-0.34623 0.74081,0.0399 1.63375,0.0674 2.4841,0.0692 1.51006,0.003 3.07237,0.0908 3.47176,0.19446 0.9945,0.25817 18.20279,0.24077 18.20399,-0.0185 5.3e-4,-0.11425 0.25239,-0.0776 0.55972,0.0816 0.3073,0.15923 0.77047,0.22786 1.0296,0.15227 0.65421,-0.19085 7.29582,-0.42619 10.77736,-0.38187 4.03532,0.0514 4.2522,0.044 6.87071,-0.24375 2.61689,-0.28765 4.80934,-0.19313 5.33638,0.23038 0.2324,0.18679 1.91461,0.2376 4.99524,0.15072 2.55436,-0.072 7.11737,-0.12407 10.14012,-0.11533 3.02278,0.008 5.65476,-0.0817 5.84933,-0.20117 0.19522,-0.11996 0.27576,-0.41606 0.17937,-0.66064 -0.14718,-0.37338 -0.5368,-0.43323 -2.478,-0.3802 -1.26692,0.0346 -2.3037,0.15226 -2.3073,0.2614 -0.005,0.27937 -1.03871,0.24644 -1.22048,-0.039 -0.19972,-0.31359 -2.07744,-0.51963 -2.07867,-0.22806 -5.3e-4,0.12544 -0.21767,0.20213 -0.48206,0.17018 -0.26439,-0.032 -0.71228,0.0375 -0.99632,0.15476 -0.29947,0.12357 -0.90186,0.0782 -1.43347,-0.10806 -0.50418,-0.17672 -1.5702,-0.3232 -2.36867,-0.32574 -3.8905,-0.0121 -8.66806,-0.19778 -9.28498,-0.36112 -0.38566,-0.10213 -1.11245,-0.0288 -1.64951,0.16648 -0.89219,0.32442 -3.67772,0.39538 -7.96725,0.20249 -2.0095,-0.0904 -10.11583,0.18183 -10.70068,0.35928 -0.25381,0.077 -1.07181,0.0291 -1.81802,-0.10669 -0.74619,-0.1357 -1.48178,-0.15588 -1.63373,-0.0449 -0.15201,0.11111 -4.66124,0.19788 -10.02078,0.19309 -6.88515,-0.007 -9.77461,0.0775 -9.84724,0.28484 -0.0663,0.18885 -0.26561,0.20876 -0.5603,0.0563 -0.40023,-0.20704 -1.07121,-0.35614 -1.97827,-0.44803 l 0.002,-0.45011 c -2.23507,0.23961 -3.36199,0.26351 -4.82661,0.0909 -1.56001,-0.18377 -1.76783,-0.15808 -1.62626,0.20117 0.009,0.0234 0.0148,0.0413 0.0221,0.0616 -0.15794,-0.01 -0.31184,-0.0219 -0.47002,-0.0397 -0.0356,-0.0221 -0.0548,-0.0321 -0.0951,-0.0576 -0.48831,-0.30977 -1.28383,-0.37756 -1.66279,-0.21698 -0.39596,-0.094 -0.67411,-0.19764 -0.67378,-0.2751 5.1e-4,-0.12165 -0.31659,-0.10531 -0.70488,0.0359 -0.38827,0.14122 -1.316227,0.25547 -2.062079,0.25411 -0.686854,-0.001 -1.246623,0.10048 -1.338645,0.23372 -0.230821,-0.004 -0.529157,-0.0136 -0.587682,-0.009 -0.04737,0.004 -0.145142,0.003 -0.21809,0.006 0.138073,-0.0294 0.238104,-0.0848 0.238488,-0.17577 4.79e-4,-0.1138 -0.314951,-0.23286 -0.700962,-0.26433 -0.406735,-0.0331 -0.631447,0.0532 -0.534333,0.20574 0.0745,0.11699 0.268246,0.19707 0.480888,0.23495 -0.871454,-0.0125 -2.185216,-0.0728 -3.260325,-0.1403 -0.210596,-0.23732 -0.671978,-0.34085 -1.205951,-0.20684 -0.105635,0.0266 -0.224604,0.0488 -0.346543,0.0696 -0.0031,-7.9e-4 -0.01408,-0.002 -0.01648,-0.003 -0.07551,-0.0245 -0.415762,-0.023 -0.756337,0.003 -0.340596,0.026 -1.008145,-0.1405 -1.48343,-0.37013 -1.11885,-0.54053 -1.913404,-0.55095 -1.705094,-0.0222 0.03124,0.0792 0.0517,0.1452 0.0417,0.20162 -0.690954,-0.0669 -1.685044,-0.12272 -2.740152,-0.14039 -2.446018,-0.041 -2.918557,-0.0262 -3.005253,0.29268 -0.854085,-0.0234 -1.497556,-0.0389 -2.634598,-0.072 -2.57023,-0.0747 -4.857763,-0.27194 -5.411977,-0.46619 -0.724431,-0.25389 -1.125997,-0.26404 -1.636933,-0.0412 -0.459888,0.20054 -1.235719,0.22087 -2.418693,0.0633 -0.957746,-0.12759 -2.606895,-0.19764 -3.665018,-0.15552 -1.058176,0.042 -2.019486,0.023 -2.136356,-0.0426 -0.169692,-0.0952 -1.384495,-0.14237 -2.581648,-0.14166 z m 138.159322,0.53177 c -1.31081,0.0111 -2.93854,0.20395 -3.39597,0.49092 -0.38284,0.24021 -0.66981,0.3002 -0.66913,0.13936 8.1e-4,-0.1934 -2.23899,-0.2693 -7.14311,-0.24199 -3.92957,0.0219 -7.14396,0.0993 -7.14113,0.17198 0.003,0.0728 0.11919,0.31112 0.26159,0.52966 0.26496,0.40667 -0.0806,0.40011 15.85915,0.31057 1.08755,-0.006 2.32379,0.12532 2.74696,0.29234 0.77718,0.30674 5.5651,0.4061 31.40757,0.65008 6.57429,0.0621 12.13852,0.188 12.36488,0.2799 0.6541,0.26568 2.76137,0.36498 2.90877,0.1371 0.0737,-0.11397 0.42995,-0.0983 0.79182,0.035 0.44837,0.16523 0.69169,0.14668 0.76347,-0.058 0.0724,-0.20625 1.04742,-0.27466 3.11079,-0.21808 1.65293,0.0454 4.67605,0.10813 6.71804,0.1394 2.04194,0.0312 3.89089,0.16373 4.10907,0.29431 0.17001,0.10168 1.90963,0.20679 4.16717,0.26753 l -0.001,0.30851 c 1.70404,-0.002 3.99874,-0.0634 6.39386,-0.17643 1.48559,0.0435 2.70447,0.0934 3.23693,0.13974 1.16624,0.10142 1.90317,0.0574 2.01791,-0.11983 0.12268,-0.18968 0.28737,-0.19267 0.51488,-0.0102 0.1842,0.148 0.88444,0.2521 1.5553,0.23125 1.61143,-0.05 6.88454,0.27922 7.05077,0.44024 0.0718,0.0695 0.42666,0.0187 0.78819,-0.11276 0.36157,-0.13151 0.81309,-0.19254 1.00315,-0.13563 0.18998,0.0568 0.8701,0.17489 1.51207,0.2627 0.90991,0.12442 1.16769,0.0757 1.16893,-0.22216 7.2e-4,-0.17124 -0.18382,-0.37192 -0.43564,-0.49636 0.36815,0.0191 0.84637,0.0384 1.31189,0.0572 -0.0477,0.1016 -0.0919,0.23574 -0.15121,0.41937 -0.16619,0.5155 -0.0447,0.52882 4.84098,0.53334 2.75647,0.003 5.15816,-0.0842 5.3371,-0.19282 0.17894,-0.10871 0.40376,-0.0746 0.49964,0.0758 0.0959,0.15041 0.31628,0.18946 0.49001,0.0867 0.17379,-0.10283 0.81499,-0.20903 1.42483,-0.23564 0.6098,-0.0265 2.40746,-0.13664 3.99487,-0.24439 0.35621,-0.0242 0.57021,-0.0372 0.88687,-0.0584 0.84058,0.0341 1.52322,0.0698 1.75367,0.10604 0.71501,0.11257 1.5611,0.082 1.98259,-0.0712 0.40447,-0.14709 0.79598,-0.17226 0.86986,-0.0563 0.074,0.11596 0.90961,0.23899 1.85722,0.27363 0.94762,0.0346 1.76416,0.10327 1.81463,0.15218 0.0505,0.0489 0.48608,0.0448 0.96805,-0.009 0.48189,-0.054 2.54229,-0.17488 4.57897,-0.26861 2.88239,-0.13266 3.88794,-0.27832 4.53698,-0.65732 0.0735,-0.0429 0.14912,-0.0788 0.22389,-0.11639 l 0.004,-0.95808 c -0.98042,0.1051 -1.74217,0.16618 -2.41816,0.1899 -0.52245,-0.3365 -1.71906,-0.63993 -2.42627,-0.54136 -0.4864,0.0679 -0.8848,0.19878 -0.88519,0.29139 -7e-5,0.017 -0.0619,0.0334 -0.15019,0.0489 -0.30998,-0.0174 -0.48627,-0.004 -0.56028,0.0521 -0.2613,0.0173 -0.57382,0.0314 -0.94586,0.0417 -0.51907,-0.17203 -1.139,-0.16559 -1.38188,0.0192 -0.034,2e-5 -0.0621,8.9e-4 -0.0962,8.2e-4 -1.72366,-0.003 -3.06987,0.095 -2.99162,0.21777 0.005,0.008 0.004,0.0144 -9e-5,0.0212 -1.06521,-0.0447 -2.01018,-0.0748 -2.16873,-0.0623 -0.29859,0.0233 -1.17406,-0.001 -2.11616,-0.0384 -0.99485,-0.0654 -1.84365,-0.11862 -2.02326,-0.12358 -0.2645,-0.007 -0.48036,-0.10718 -0.47988,-0.22154 10e-4,-0.30165 -0.93928,-0.25662 -1.27091,0.0606 -0.0132,0.0126 -0.0311,0.0225 -0.0453,0.0345 -0.11962,0.003 -0.24711,0.006 -0.38409,0.0169 -0.34055,0.026 -1.00815,-0.14054 -1.48342,-0.37014 -1.11884,-0.54055 -1.91346,-0.55097 -1.70511,-0.0222 0.20675,0.52462 0.12075,0.52777 -8.33831,0.28193 -0.57759,-0.0167 -1.13244,-0.0415 -1.665,-0.0691 -0.012,-0.0981 -0.0697,-0.16757 -0.16789,-0.16774 -0.0659,-1.3e-4 -0.13997,0.0587 -0.21017,0.14688 -1.65583,-0.0961 -2.96968,-0.23626 -3.36891,-0.37615 -0.72442,-0.25392 -1.12601,-0.26407 -1.63692,-0.0413 -0.45989,0.20055 -1.23572,0.22088 -2.4187,0.0633 -0.95775,-0.12759 -2.60689,-0.19764 -3.66501,-0.15552 -1.05816,0.0421 -2.01949,0.023 -2.13636,-0.0427 -0.16937,-0.0952 -1.38411,-0.14234 -2.58113,-0.14166 -1.19716,8.6e-4 -2.37689,0.049 -2.47647,0.14431 -0.0992,0.0949 -0.44818,0.17231 -0.77567,0.17171 -0.32744,-2.2e-4 -0.66737,0.0679 -0.75537,0.15209 -0.0984,0.0942 -2.78907,0.15042 -6.6337,0.17083 -0.4054,-0.0436 -0.7251,-0.0878 -0.87173,-0.13026 -1.46997,-0.42658 -2.21604,-0.36753 -2.00848,0.15911 0.14342,0.36415 0.0588,0.40445 -0.49085,0.23474 -0.36511,-0.11269 -1.34413,-0.23902 -2.17523,-0.28094 -0.83108,-0.0419 -1.88126,-0.19008 -2.33408,-0.32933 -0.61185,-0.18812 -0.98277,-0.15488 -1.44299,0.12966 -0.50548,0.31256 -0.93454,0.33086 -2.33587,0.0991 -2.22965,-0.36875 -1.69413,-0.34692 -10.098,-0.41427 -4.00508,-0.0321 -7.4583,-0.16841 -7.6742,-0.30289 -0.44148,-0.27508 -4.13909,-0.38615 -4.1401,-0.12434 -0.001,0.2606 -10.27992,0.0731 -10.72919,-0.19581 -0.21845,-0.1307 -5.29579,-0.26343 -11.28246,-0.29502 -5.98672,-0.0315 -11.04726,-0.15514 -11.24637,-0.27424 -0.23767,-0.14228 -0.91044,-0.2002 -1.69692,-0.19329 z m 147.50462,0.71316 c -0.0779,-0.002 -0.15987,-0.003 -0.24361,0.002 -0.11161,0.005 -0.22623,0.0128 -0.33783,0.0278 -0.44645,0.06 -3.56887,0.156 -6.93813,0.21213 -6.35051,0.10577 -7.33986,0.27582 -6.60215,1.13724 0.25882,0.30228 0.7431,0.35856 2.1323,0.24729 0.9884,-0.0792 2.04347,-0.0357 2.34517,0.0973 0.30171,0.13303 0.94622,0.18303 1.43185,0.11115 1.30031,-0.19244 9.59593,-0.1868 9.91942,0.007 0.39116,0.23411 1.15187,-0.09 1.15356,-0.4914 0.002,-0.47853 -0.80224,-1.06229 -1.47991,-1.07396 -0.31685,-0.005 -0.70506,-0.0875 -0.86301,-0.18244 -0.089,-0.0534 -0.28423,-0.086 -0.51766,-0.0935 z m -504.8101,-0.24869 c -0.25662,-0.002 -0.51248,-0.002 -0.7643,0.003 -1.20873,0.0195 -2.31862,0.116 -2.91593,0.29956 -0.52221,0.16042 -2.03797,0.22862 -3.50464,0.15744 -2.54621,-0.12359 -2.58441,-0.11665 -2.58692,0.47999 -0.001,0.33303 0.12879,0.6838 0.28924,0.77981 0.16046,0.096 3.03543,0.19904 6.38843,0.22871 3.78259,0.0335 6.30407,0.16333 6.64432,0.34236 0.36161,0.19026 1.5783,0.23067 3.57209,0.11865 1.66292,-0.0935 6.91853,-0.129 11.67921,-0.0789 4.76066,0.0501 10.81954,0.10875 13.46436,0.12999 2.64486,0.0213 5.31988,0.13108 5.94426,0.24393 0.63611,0.11495 2.26056,0.0723 3.69479,-0.0966 1.57881,-0.18598 3.18935,-0.21717 4.20322,-0.0817 0.90405,0.12074 1.85904,0.1544 2.12185,0.0746 0.26284,-0.0797 0.54535,-0.0394 0.62777,0.0901 0.15847,0.24884 5.5963,0.19514 10.887897,-0.10771 4.507985,-0.25806 11.224034,-0.23589 16.487327,0.0539 2.493202,0.13722 7.871945,0.27449 11.95257,0.30501 4.080633,0.0306 7.98076,0.144 8.666879,0.25199 0.71501,0.11254 1.561642,0.082 1.983125,-0.0712 0.404449,-0.14709 0.795441,-0.17225 0.869316,-0.0563 0.07392,0.11597 0.909618,0.239 1.857213,0.27363 0.947599,0.0346 1.764692,0.10327 1.815176,0.15215 0.05042,0.0489 0.485568,0.0443 0.967519,-0.009 0.481941,-0.0539 2.542796,-0.17491 4.579497,-0.26863 2.882385,-0.13264 3.887931,-0.27835 4.536988,-0.65732 0.890427,-0.51993 1.940724,-0.66062 1.657189,-0.22229 -0.09398,0.14534 0.02873,0.26463 0.273331,0.26508 0.24457,4.1e-4 0.383323,-0.0959 0.307793,-0.21441 -0.07553,-0.11851 0.468083,-0.1402 1.208084,-0.0474 0.740001,0.0927 1.556736,0.0555 1.815099,-0.083 0.371696,-0.19913 0.434269,-0.1638 0.300332,0.16851 -0.118096,0.293 -0.04849,0.37539 0.229685,0.27329 0.219359,-0.0805 0.399313,-0.22364 0.399711,-0.31812 3.98e-4,-0.0945 0.835149,-0.16379 1.855293,-0.15423 1.020151,0.01 2.001787,-0.0859 2.18157,-0.21153 0.188784,-0.13197 0.550473,-0.1126 0.855595,0.0455 0.609267,0.31579 6.085923,0.51872 6.540489,0.24243 0.167114,-0.10159 1.075905,-0.0634 2.019698,0.0848 1.201021,0.18853 1.822667,0.18454 2.072236,-0.014 0.34138,-0.27126 1.330236,-0.21871 2.954428,0.15731 0.510279,0.11813 0.755498,0.0698 0.75642,-0.149 7.49e-4,-0.17804 0.174885,-0.25931 0.386366,-0.18067 0.22117,0.0822 0.438334,-0.0541 0.511951,-0.32101 0.115543,-0.41871 0.02015,-0.43669 -0.979476,-0.18216 -0.887539,0.22603 -1.132052,0.21044 -1.230956,-0.0788 -0.104199,-0.3047 -0.161777,-0.3048 -0.366989,-0.001 -0.203527,0.30164 -0.283837,0.29846 -0.495091,-0.02 -0.210395,-0.3172 -0.32505,-0.32211 -0.691837,-0.0307 -0.367048,0.29164 -0.517884,0.2837 -0.913562,-0.0467 -0.327092,-0.27312 -0.857908,-0.35783 -1.711475,-0.27444 -1.795871,0.17545 -3.343751,0.10479 -6.593968,-0.29987 -3.099078,-0.38582 -8.126182,-0.3494 -8.644269,0.0623 -0.174282,0.13847 -0.867055,0.24284 -1.539157,0.23231 -0.672104,-0.0102 -1.314758,0.008 -1.428254,0.0413 -0.113493,0.0333 -0.546404,0.0992 -0.962244,0.14654 -2.648755,0.3018 -3.778287,0.33286 -5.366685,0.14575 -1.560015,-0.18373 -1.768351,-0.15808 -1.626783,0.20117 0.140354,0.35615 0.06718,0.35136 -0.542892,-0.0356 -0.658004,-0.41742 -1.875312,-0.39662 -1.877118,0.0323 -4.35e-4,0.10329 -1.082709,0.13728 -2.404919,0.0758 -1.322206,-0.0615 -2.558309,-0.0999 -2.747298,-0.0851 -0.774759,0.0606 -5.205473,-0.15785 -5.563838,-0.27421 -0.07555,-0.0245 -0.415744,-0.0231 -0.756335,0.003 -0.340559,0.026 -1.00816,-0.14051 -1.483432,-0.37014 -1.118841,-0.54053 -1.913449,-0.55097 -1.705091,-0.0222 0.206716,0.52459 0.120728,0.52775 -8.338303,0.2819 -2.570218,-0.0747 -4.85778,-0.27193 -5.411977,-0.46618 -0.72443,-0.25393 -1.126006,-0.26405 -1.636933,-0.0412 -0.459874,0.20053 -1.235723,0.22087 -2.418696,0.0633 -0.957743,-0.12759 -2.606863,-0.19764 -3.665014,-0.15552 -1.058162,0.0421 -2.019495,0.023 -2.136358,-0.0427 -0.338753,-0.19033 -4.858418,-0.18799 -5.057594,0.003 -0.09921,0.0949 -0.448207,0.1723 -0.775667,0.17171 -0.32747,-2.2e-4 -0.667355,0.0679 -0.755361,0.15208 -0.223243,0.21369 -13.364615,0.24559 -24.527075,0.0596 -1.81354,-0.0303 -3.79243,-0.002 -4.39727,0.0628 -0.60483,0.0647 -2.58265,-0.0283 -4.39558,-0.20696 -1.81291,-0.1787 -4.90418,-0.28775 -6.86919,-0.24199 -1.965,0.0457 -4.25267,0.0686 -5.08386,0.0501 -3.32337,-0.0734 -5.38463,-0.01 -5.88647,0.18201 -0.2903,0.11094 -1.20301,0.0639 -2.02866,-0.10447 -0.82564,-0.16848 -1.60581,-0.24423 -1.73373,-0.16852 -0.12791,0.0757 -0.51253,-0.0134 -0.85496,-0.19793 -0.563,-0.30348 -2.38574,-0.47993 -4.18216,-0.49755 z m 148.3141148,0.59995 c -0.070873,0.009 -0.075601,0.14189 -0.07672,0.40758 -0.0013,0.30147 0.1515657,0.60848 0.3401873,0.68222 0.9192442,0.3594 1.0287786,-0.0326 0.2095257,-0.75045 -0.2654029,-0.23264 -0.4021632,-0.34816 -0.4730006,-0.33935 z m -9.5473018,0.29418 c -0.08379,0.019 -0.190194,0.15017 -0.268456,0.34574 -0.150712,0.37682 -0.118871,0.40745 0.153616,0.14858 0.188555,-0.17913 0.273529,-0.39243 0.189215,-0.47403 -0.0211,-0.0205 -0.04653,-0.0266 -0.07438,-0.0203 z m 7.161863,0.33448 c -0.110483,-0.006 -0.206785,0.0245 -0.292923,0.0931 -0.182254,0.14481 -0.846245,0.21332 -1.476056,0.15179 -0.629815,-0.0615 -1.145564,-0.0216 -1.146029,0.0889 -4.65e-4,0.11047 -0.371613,0.14769 -0.824754,0.0827 -0.755048,-0.10814 -1.198617,0.30667 -0.551597,0.51579 0.150923,0.0487 0.645123,0.0747 1.09861,0.0573 0.453499,-0.0174 1.659602,-0.0489 2.679872,-0.07 l 1.854806,-0.0385 -0.65146,-0.52571 c -0.282331,-0.22769 -0.506341,-0.34422 -0.69047,-0.35525 z m 8.1536373,0.24797 c -0.4181668,0.01 -0.7121628,0.0529 -0.7659396,0.13605 -0.095859,0.14815 -0.2970943,0.19599 -0.4472195,0.10616 -0.150127,-0.0898 -0.7293027,-0.0797 -1.2866984,0.023 -0.9938364,0.18292 -1.0000277,0.19183 -0.3274199,0.45417 0.3772366,0.14711 1.7366673,0.30504 3.0211575,0.35123 1.2844932,0.0461 2.7061233,0.20298 3.15892533,0.34838 0.45280441,0.14545 0.85406406,0.27482 0.89180626,0.2874 0.0376466,0.0126 0.0689994,-0.2184 0.0702397,-0.51301 0.001319,-0.31324 -0.25440439,-0.62848 -0.61537385,-0.75924 -0.65248643,-0.23638 -2.15908974,-0.40904 -3.24419864,-0.43327 -0.1625797,-0.004 -0.3153809,-0.004 -0.4547478,-9.1e-4 z m -13.5892863,0.48678 c -0.490748,-8.3e-4 -0.644979,0.19136 -0.368395,0.45926 0.256818,0.24874 0.86958,0.13457 0.870829,-0.16224 6.86e-4,-0.16285 -0.225345,-0.29651 -0.502434,-0.29702 z m 297.308013,0.66988 5.3e-4,0 c 0.0352,0.20245 -0.14691,0.2886 -0.59318,0.28779 -0.39403,-0.001 -0.71599,-0.10601 -0.71546,-0.23388 5e-5,-0.0117 -0.005,-0.0226 -0.007,-0.0341 0.16661,-0.002 0.33709,-0.005 0.50584,-0.007 0.017,0.003 0.0327,0.0103 0.0506,0.0104 0.0443,9e-5 0.0847,-0.005 0.12186,-0.0132 0.21306,-0.003 0.42083,-0.007 0.63669,-0.01 z m -62.90307,0.63034 c -0.4873,-0.0162 -1.15731,0.0157 -2.064,0.083 l 2.84709,0.005 c -0.21867,-0.048 -0.46825,-0.0778 -0.78309,-0.0882 z"
       id="path6048-3"
       inkscape:connector-curvature="0"
       inkscape:export-filename="/Users/jan/Documents/repo/github/microcol/microcol-game/src/main/resources/images/colony.png"
       inkscape:export-xdpi="38.16"
       inkscape:export-ydpi="38.16" />
    <path
       style="display:inline;fill:#000000;stroke-width:0.17870905"
       d="m 350.66783,-13.9293 c -0.27379,-0.0049 -0.70917,0.01 -1.40161,0.03519 -1.02648,0.03809 -2.61961,0.158438 -3.54027,0.267364 -1.36068,0.161024 -2.75775,0.18707 -7.46428,0.139834 -10.1084,-0.101549 -26.08757,-0.159664 -27.02226,-0.09836 -1.60435,0.105351 -5.71625,0.286267 -8.88125,0.390852 -1.6989,0.05609 -3.89992,0.154412 -4.89116,0.218474 -0.99122,0.06414 -2.38122,0.113103 -3.08895,0.109715 -0.70774,-0.0036 -5.51383,-0.02457 -10.68024,-0.04382 -5.16636,-0.02108 -10.37765,-0.06688 -11.58056,-0.104206 -5.69446,-0.175291 -18.37304,-0.152374 -24.08665,0.04342 -7.16682,0.24581 -8.95593,0.260253 -23.65511,0.187526 -12.24684,-0.06046 -19.65004,-0.176143 -25.33468,-0.395436 -1.90327,-0.07334 -3.55339,-0.106304 -3.66697,-0.073 -0.11352,0.03331 -0.31681,0.02721 -0.45129,-0.0136 -0.13449,-0.0408 -2.18972,-0.115482 -4.56717,-0.165884 -2.37747,-0.05036 -4.39828,-0.114191 -4.49092,-0.14198 -0.0928,-0.0278 -5.65104,-0.135496 -12.35189,-0.239304 -6.70092,-0.103807 -12.47274,-0.208308 -12.82646,-0.232571 -0.35374,-0.0241 -2.09052,-0.09152 -3.85953,-0.149873 -1.76902,-0.05842 -3.33195,-0.150016 -3.4732,-0.203663 -0.38788,-0.147403 -4.72865,-0.297374 -8.49115,-0.293221 -1.84016,0.0027 -4.73542,-0.0017 -6.43398,-0.0082 -1.69854,-0.0063 -4.88373,0.05593 -7.07822,0.139003 -2.19448,0.08301 -5.26393,0.150746 -6.82094,0.150747 -1.55703,-1.37e-4 -3.23641,0.01872 -3.73198,0.04123 -0.49555,0.0227 -3.47777,0.0344 -6.62717,0.02646 -3.7303,-0.01054 -5.72644,0.02958 -5.72694,0.112573 -4.6e-4,0.07822 -0.42339,0.09857 -1.0941,0.0525 -0.60133,-0.04131 -5.32023,-0.120719 -10.486415,-0.176431 -5.166156,-0.05593 -11.129975,-0.147188 -13.252862,-0.202877 -2.467504,-0.0646 -4.742049,-0.05253 -6.305515,0.03349 -1.34516,0.07406 -3.661717,0.125325 -5.1479,0.113434 -2.869892,-0.02325 -7.3036,0.167832 -8.028959,0.34476 -0.239476,0.05832 -0.494162,0.05975 -0.566,0.0027 -0.07188,-0.0568 -0.860549,-0.06285 -1.752704,-0.01388 -1.853496,0.102053 -12.693376,0.17873 -24.012921,0.170077 -16.791073,-0.01287 -30.7021953,0.06584 -32.171139,0.181894 -2.3266493,0.183846 -10.1518071,0.276256 -16.086156,0.190088 -12.994759,-0.188632 -23.512325,-0.11989 -30.112347,0.197844 -1.203506,0.05791 -3.231548,0.101376 -4.506376,0.09527 -1.274843,-0.0055 -2.722823,0.05045 -3.217742,0.124396 -0.621402,0.09285 -4.960925,0.109938 -14.024462,0.0545 -10.52955,-0.06376 -14.142968,-0.04246 -18.273245,0.110297 -6.172772,0.228192 -22.823107,0.194282 -24.320287,-0.04947 -0.49495,-0.08059 -3.33139,-0.245454 -6.30319,-0.366374 -2.97179,-0.120947 -5.80833,-0.266837 -6.30343,-0.324172 -0.49507,-0.05744 -2.46382,-0.06898 -4.37496,-0.02643 -1.91116,0.04309 -7.52818,0.06359 -12.48226,0.046 -4.9541,-0.01823 -10.16565,-0.01995 -11.58119,-0.0053 -2.49189,0.02595 -4.61846,-0.05898 -8.10497,-0.323594 -3.35509,-0.254623 -7.68216,-0.173525 -11.8399,0.221819 -1.3873,0.131813 -1.68828,0.205291 -1.75779,0.427856 -0.0754,0.242108 0.0321,0.268935 1.0957,0.274026 0.64872,0.0031 1.38106,-0.04233 1.62719,-0.101025 1.74225,-0.415488 7.2708,-0.510175 11.39839,-0.195314 2.19203,0.167129 4.34295,0.189092 11.05329,0.11257 2.61882,-0.02991 5.10889,-0.04901 5.5335,-0.0424 0.42462,0.0057 5.4044,0.03137 11.06618,0.05481 5.66179,0.02345 10.8729,0.0999 11.58023,0.168476 0.70736,0.06862 2.67558,0.167341 4.37385,0.219458 4.1163,0.126427 4.90754,0.170945 6.48968,0.364842 0.98262,0.120408 3.865615,0.171308 10.722086,0.189031 5.157902,0.01326 9.706263,-0.0068 10.107703,-0.04512 2.521517,-0.240248 7.717741,-0.306592 17.71698,-0.226624 6.086293,0.04862 11.587129,0.09125 12.224065,0.09567 0.636946,0.0039 2.37449,-0.0577 3.861217,-0.136812 3.730166,-0.198818 9.228963,-0.363497 13.481128,-0.403721 1.963906,-0.0185 4.454205,-0.07622 5.533995,-0.127844 2.273333,-0.109037 14.41973,-0.0051 18.947725,0.162077 2.7193794,0.10039 9.8416591,-0.02406 17.1162384,-0.298829 0.6371047,-0.02413 5.5454656,-0.05835 10.9076026,-0.07649 5.362139,-0.01815 9.861429,-0.06543 9.998481,-0.105507 0.137053,-0.04005 2.582972,-0.04481 5.435287,-0.01012 12.475123,0.151525 25.474977,0.08547 31.903109,-0.161879 2.292498,-0.08828 5.790024,-0.188892 7.77189,-0.223829 1.98189,-0.03488 3.693088,-0.08885 3.802797,-0.119875 0.288241,-0.0816 12.219395,0.0051 18.844852,0.137066 3.113689,0.06193 6.414084,0.102068 7.334254,0.08863 0.92013,-0.0128 5.84224,-0.02537 10.93799,-0.02677 8.31684,-0.0025 15.44194,-0.0565 15.4423,-0.117128 1.7e-4,-0.03056 1.80293,-0.08374 6.79557,-0.199658 5.8046,-0.134772 16.36565,-0.01363 16.87613,0.193446 0.21321,0.08666 0.62533,0.12845 0.91577,0.09331 0.29045,-0.03511 1.24656,-0.01389 2.12447,0.04768 0.87793,0.06157 2.63832,0.154152 3.91196,0.205391 1.27364,0.05121 2.77881,0.115238 3.34485,0.142238 0.56604,0.02722 5.14022,0.09807 10.16482,0.15749 5.02463,0.05946 9.54084,0.139775 10.03604,0.178484 0.76662,0.05993 5.68455,0.221369 13.63746,0.448 7.4483,0.212183 32.01164,0.554716 32.93953,0.459227 0.0709,-0.007 1.69227,-0.02694 3.60328,-0.04377 6.65622,-0.05861 11.47126,-0.142196 14.15626,-0.24562 1.48662,-0.05729 5.94576,-0.122816 9.90924,-0.145722 3.96351,-0.02293 7.34086,-0.09356 7.50559,-0.156763 0.18968,-0.07274 0.36139,-0.06597 0.46837,0.01752 0.0928,0.07337 0.59538,0.128883 1.11621,0.123535 0.52082,-0.0049 3.49455,0.04967 6.60821,0.122303 7.88886,0.184075 21.75815,0.21949 25.607,0.0656 1.76975,-0.07066 4.72344,-0.151613 6.56373,-0.179689 3.56358,-0.05448 6.86316,-0.197981 7.26523,-0.315684 0.39036,-0.114219 19.89033,-0.10971 21.23725,0.0049 0.67106,0.05719 1.27355,0.07838 1.33883,0.04731 0.10098,-0.04809 2.71647,-0.03063 7.86327,0.05292 0.63691,0.01037 2.08507,-0.07629 3.21813,-0.192551 1.13307,-0.116217 2.78412,-0.240575 3.66901,-0.276216 1.48811,-0.06003 1.60902,-0.08734 1.61066,-0.364576 9.9e-4,-0.185311 -0.009,-0.255857 -0.46292,-0.265928 z"
       id="path4246"
       inkscape:connector-curvature="0"
       inkscape:export-filename="/Users/jan/Documents/repo/github/microcol/microcol-game/src/main/resources/images/colony.png"
       inkscape:export-xdpi="38.16"
       inkscape:export-ydpi="38.16" />
    <path
       inkscape:connector-curvature="0"
       style="fill:#000000;stroke-width:0.26458332"
       d="m 341.34062,24.290088 v 5.3e-4 1.246435 c 0.0704,-0.0074 0.14214,-0.01069 0.21186,-0.0098 0.14385,0.002 0.27786,0.02106 0.36742,0.05736 0.17915,0.0725 -0.0316,0.126957 -0.46818,0.121957 -0.0447,-5.02e-4 -0.0726,-0.0041 -0.1111,-0.0057 v 0.77773 h 6.54069 c 1.21031,-0.04339 2.05832,-0.07056 3.21942,-0.109553 v -1.42782 c -1.36678,-0.01144 -2.37312,-0.09384 -2.90369,-0.251664 -0.82968,-0.246791 -3.93206,-0.396929 -6.85642,-0.399459 z"
       id="path3792-1"
       inkscape:export-filename="/Users/jan/Documents/repo/github/microcol/microcol-game/src/main/resources/images/colony.png"
       inkscape:export-xdpi="38.16"
       inkscape:export-ydpi="38.16" />
    <path
       inkscape:connector-curvature="0"
       style="fill:#000000;stroke-width:0.20285657"
       d="m -167.82142,72.471037 v 3.11e-4 0.732695 c 0.0704,-0.0044 0.14214,-0.0063 0.21186,-0.0058 0.14385,0.0012 0.27786,0.01238 0.36742,0.03372 0.17915,0.04262 -0.0316,0.07463 -0.46818,0.07169 -0.0447,-2.95e-4 -0.0726,-0.0024 -0.1111,-0.0034 v 0.457175 h 6.54069 c 1.21031,-0.02551 2.05832,-0.04148 3.21942,-0.0644 V 72.85371 c -1.36678,-0.0067 -2.37312,-0.05516 -2.90369,-0.147936 -0.82968,-0.145072 -3.93206,-0.233328 -6.85642,-0.234815 z"
       id="path3792-1-7"
       inkscape:export-filename="/Users/jan/Documents/repo/github/microcol/microcol-game/src/main/resources/images/colony.png"
       inkscape:export-xdpi="38.16"
       inkscape:export-ydpi="38.16" />
    <path
       inkscape:connector-curvature="0"
       style="fill:#000000;stroke-width:0.26458332"
       d="m 341.37977,347.85883 v 5.3e-4 1.24643 c 0.0704,-0.007 0.14214,-0.0107 0.21186,-0.01 0.14385,0.002 0.27786,0.0211 0.36742,0.0574 0.17915,0.0725 -0.0316,0.12696 -0.46818,0.12196 -0.0447,-5e-4 -0.0726,-0.004 -0.1111,-0.006 v 0.77773 h 6.54069 c 1.21031,-0.0434 2.05832,-0.0706 3.21942,-0.10955 v -1.42782 c -1.36678,-0.0114 -2.37312,-0.0938 -2.90369,-0.25167 -0.82968,-0.24679 -3.93206,-0.39693 -6.85642,-0.39946 z"
       id="path3792-1-9"
       inkscape:export-filename="/Users/jan/Documents/repo/github/microcol/microcol-game/src/main/resources/images/colony.png"
       inkscape:export-xdpi="38.16"
       inkscape:export-ydpi="38.16" />
  </g>
</svg>
