<?xml version="1.0" encoding="UTF-8" standalone="no"?>
<!-- Created with Inkscape (http://www.inkscape.org/) -->

<svg
   xmlns:dc="http://purl.org/dc/elements/1.1/"
   xmlns:cc="http://creativecommons.org/ns#"
   xmlns:rdf="http://www.w3.org/1999/02/22-rdf-syntax-ns#"
   xmlns:svg="http://www.w3.org/2000/svg"
   xmlns="http://www.w3.org/2000/svg"
   xmlns:sodipodi="http://sodipodi.sourceforge.net/DTD/sodipodi-0.dtd"
   xmlns:inkscape="http://www.inkscape.org/namespaces/inkscape"
   width="210mm"
   height="297mm"
   viewBox="0 0 210 297"
   version="1.1"
   id="svg8"
   inkscape:version="0.92.2 5c3e80d, 2017-08-06"
   sodipodi:docname="colony.svg"
   inkscape:export-filename="/Users/jan/Documents/repo/github/microcol/microcol-game/src/main/resources/images/colony-dock.png"
   inkscape:export-xdpi="98.734848"
   inkscape:export-ydpi="98.734848">
  <defs
     id="defs2" />
  <sodipodi:namedview
     id="base"
     pagecolor="#ffffff"
     bordercolor="#666666"
     borderopacity="1.0"
     inkscape:pageopacity="0.0"
     inkscape:pageshadow="2"
     inkscape:zoom="0.35"
     inkscape:cx="1174.6155"
     inkscape:cy="-104.57818"
     inkscape:document-units="mm"
     inkscape:current-layer="layer9"
     showgrid="false"
     inkscape:window-width="1590"
     inkscape:window-height="1005"
     inkscape:window-x="90"
     inkscape:window-y="1"
     inkscape:window-maximized="1"
     inkscape:snap-global="false" />
  <metadata
     id="metadata5">
    <rdf:RDF>
      <cc:Work
         rdf:about="">
        <dc:format>image/svg+xml</dc:format>
        <dc:type
           rdf:resource="http://purl.org/dc/dcmitype/StillImage" />
        <dc:title></dc:title>
      </cc:Work>
    </rdf:RDF>
  </metadata>
  <g
     inkscape:groupmode="layer"
     id="layer9"
     inkscape:label="dock"
     style="display:inline">
    <rect
       style="display:inline;opacity:1;fill:#b0cb1f;fill-opacity:1;fill-rule:evenodd;stroke:none;stroke-width:0.64385134;stroke-linecap:butt;stroke-miterlimit:4;stroke-dasharray:none;stroke-opacity:1"
       id="rect3756-7"
       width="155.26318"
       height="27.214287"
       x="23.669174"
       y="135.68152"
       ry="0"
       inkscape:export-filename="/Users/jan/Documents/repo/github/microcol/microcol-game/src/main/resources/images/colony-dock.png"
       inkscape:export-xdpi="38.437706"
       inkscape:export-ydpi="38.437706" />
    <path
       style="display:inline;fill:#a4b8c1;fill-opacity:1;fill-rule:evenodd;stroke:none;stroke-width:0.18675131px;stroke-linecap:butt;stroke-linejoin:miter;stroke-opacity:1"
       d="m 24.708886,106.77508 156.063634,1.31812 -1.34505,27.11865 -155.045333,0.42976 z"
       id="path3766"
       inkscape:connector-curvature="0"
       sodipodi:nodetypes="ccccc"
       inkscape:export-filename="/Users/jan/Documents/repo/github/microcol/microcol-game/src/main/resources/images/colony-dock.png"
       inkscape:export-xdpi="38.437706"
       inkscape:export-ydpi="38.437706" />
    <path
       inkscape:connector-curvature="0"
       style="display:inline;fill:#000000;stroke-width:0.29254645"
       d="m 78.129568,104.85968 c -6.93569,0.006 -13.62016,0.0814 -16.717187,0.20051 -4.091833,0.15738 -11.733067,0.32595 -16.981282,0.37465 -5.248224,0.0487 -12.489796,0.11595 -16.09238,0.14935 l -6.550797,0.0605 v 0.85473 c 0,0.46985 0.112474,0.911 0.249545,0.9803 0.376788,0.1905 0.467428,5.47066 0.110518,6.44973 -0.21337,0.58552 -0.202576,0.91196 0.03472,1.03198 0.241122,0.12186 0.270427,1.47685 0.09475,4.4354 -0.239508,4.03387 -0.374502,7.10262 -0.606492,13.7847 -0.05563,1.60073 -0.22035,3.5515 -0.365797,4.3351 -0.217516,1.17193 -0.183712,1.40329 0.190167,1.30176 0.25001,-0.0679 0.5321,-0.58992 0.627336,-1.16015 0.09523,-0.57023 0.304548,-1.21067 0.464982,-1.42266 0.160436,-0.21201 0.319036,-3.18857 0.352533,-6.61458 0.0335,-3.42601 0.209997,-6.70532 0.392328,-7.2874 0.386776,-1.23388 0.358193,-0.70169 0.387901,-7.33031 0.01381,-3.0957 0.152414,-5.27873 0.340527,-5.37383 0.206207,-0.10414 0.20309,-0.33346 -0.0074,-0.65578 -0.285416,-0.43622 -0.460729,-1.79712 -0.243237,-1.88722 0.731143,-0.30289 25.754715,-0.80783 43.586895,-0.87953 8.27264,-0.0332 16.35117,-0.13991 17.95231,-0.2372 3.56017,-0.21646 15.014162,-0.25294 18.114052,-0.0579 5.0135,0.31556 8.75389,0.40267 16.63003,0.38757 1.67433,-0.003 4.0033,0.11747 5.17542,0.2682 9.41887,1.21116 33.59749,1.59585 44.66659,0.71055 1.15638,-0.0925 3.88326,-0.22334 6.0599,-0.29094 4.54921,-0.14129 4.23376,-0.33688 4.37562,2.71043 0.0423,0.90829 0.15339,1.65365 0.24703,1.65365 0.0937,10e-4 0.11528,0.47832 0.0474,1.0604 -0.0792,0.67908 0.009,1.05833 0.24765,1.05833 0.37008,0 0.34952,0.89393 -0.1731,7.54064 -0.10289,1.30968 -0.23866,4.34577 -0.30199,6.74688 -0.1325,5.02458 -0.23841,6.24479 -0.56543,6.51226 -0.129,0.10552 -0.005,0.39921 0.27546,0.65268 0.36371,0.32869 0.44762,0.71392 0.2925,1.34407 -0.38252,1.55428 -0.81566,6.15446 -0.63746,6.77068 0.0948,0.32742 0.0419,0.59531 -0.11749,0.59531 -0.15926,0 -0.32744,0.92272 -0.37399,2.05051 -0.0933,2.2586 -0.19318,3.4016 -0.32346,3.70418 -0.31303,0.72677 -0.38476,7.80134 -0.0807,7.98607 0.25035,0.15219 0.40887,1.79076 0.38978,4.02971 -0.006,0.67855 0.14412,1.31165 0.33295,1.40716 0.18882,0.0954 0.26585,0.27628 0.1712,0.40152 -0.20489,0.27123 -19.70456,0.3182 -21.63044,0.0522 -0.73459,-0.10146 -2.20892,-0.12495 -3.27634,-0.0522 -1.06744,0.0728 -2.8764,0.008 -4.01996,-0.14365 -1.14351,-0.15187 -3.61801,-0.25268 -5.49889,-0.22376 -1.88085,0.0289 -4.80258,-0.0553 -6.49267,-0.18706 -1.69011,-0.13178 -10.86033,-0.29496 -20.3783,-0.36277 -9.51796,-0.0678 -20.726012,-0.21673 -24.906782,-0.33073 -9.60848,-0.26211 -27.15128,-0.26796 -32.023034,-0.0109 -5.396839,0.28472 -34.2565,0.5689 -36.004567,0.35449 -1.472177,-0.18058 -1.484842,-0.19119 -1.73105,-1.42473 -0.287298,-1.43928 -0.27621,-1.84708 0.07078,-2.54299 0.169309,-0.33954 0.136227,-0.44752 -0.09976,-0.32814 -0.54572,0.27589 -0.751009,-0.97289 -0.877518,-5.33661 -0.06357,-2.19354 -0.209838,-4.11351 -0.325369,-4.26641 -0.115529,-0.1529 -0.01931,-0.27917 0.213542,-0.28216 0.28978,-0.003 0.31005,-0.0654 0.06504,-0.19844 -0.418562,-0.22735 -0.789189,-2.98101 -0.818774,-6.08231 -0.01099,-1.20109 -0.1447,-2.24627 -0.296297,-2.32287 -0.378841,-0.1915 -1.018733,1.86513 -0.986825,3.17138 0.109173,4.46069 0.270806,6.17731 0.633034,6.71017 0.313167,0.46073 0.325172,0.70195 0.04805,0.97516 -0.462647,0.45599 0.15909,1.55069 0.744224,1.31051 0.21348,-0.0876 0.169592,0 -0.09732,0.19122 -0.377607,0.27266 -0.485191,1.01625 -0.485191,3.35223 0,1.65085 -0.103062,3.0534 -0.228701,3.11712 -0.294181,0.14904 0.06173,0.91652 0.650712,1.40353 0.551881,0.45635 0.29577,2.58686 -0.377155,3.13727 -0.239852,0.19619 -0.362619,0.65346 -0.275452,1.0263 0.156021,0.66754 0.174151,0.67154 2.458207,0.48164 1.265504,-0.10523 3.902045,-0.22386 5.859008,-0.26356 8.141121,-0.16488 25.339012,-0.66667 36.875006,-1.07589 11.08349,-0.39323 18.91152,-0.28161 40.059122,0.5705 3.76383,0.15164 4.85732,0.11958 5.05854,-0.14677 0.15935,-0.2109 0.42416,-0.25417 0.69748,-0.11472 0.67369,0.3436 1.61655,0.40677 2.01913,0.13539 0.48507,-0.32691 2.13723,-0.39935 7.15479,-0.31264 4.19118,0.0725 4.70035,0.4675 0.67408,0.52298 -1.05257,0.0145 -1.82932,0.0958 -1.72598,0.18034 0.36165,0.29582 8.18451,0.93871 9.94718,0.81751 0.97846,-0.0673 2.87074,-0.0453 4.20504,0.0486 v 0 c 2.52545,0.17767 9.53387,0.16629 25.30353,-0.0414 5.11088,-0.0673 11.07882,-0.0338 13.26208,0.075 l 3.97003,0.19791 1.54086,-0.75808 c 0.84774,-0.41696 1.64832,-0.76136 1.77907,-0.76637 0.13078,-0.005 0.49907,-0.1705 0.81813,-0.36846 0.55474,-0.34417 0.55027,-0.40346 -0.10225,-1.35392 -0.46154,-0.67216 -0.66218,-1.38783 -0.6204,-2.21124 0.034,-0.66963 -0.0618,-1.45563 -0.21227,-1.74666 -0.41676,-0.80599 -0.33437,-5.32552 0.13456,-7.39902 0.32287,-1.42762 0.33077,-1.97483 0.0348,-2.42725 -0.22894,-0.34993 -0.28677,-0.88405 -0.1434,-1.33223 0.13157,-0.41138 0.22771,-1.73971 0.21353,-2.95227 -0.0178,-1.4993 0.12201,-2.38988 0.43719,-2.78327 0.2854,-0.35635 0.53982,-1.64375 0.66209,-3.35176 0.46567,-6.50536 0.76476,-23.97538 0.44288,-25.85786 -0.10571,-0.61847 -0.0798,-1.12448 0.0574,-1.12448 0.13728,0 0.12744,-0.34918 -0.0221,-0.77566 -0.15461,-0.44077 -0.14047,-1.21153 0.0329,-1.78594 0.66362,-2.20006 0.66442,-2.19105 -0.19397,-2.51096 -0.61552,-0.22948 -1.01829,-0.22851 -1.64005,0.003 -0.45313,0.16888 -1.9451,0.30903 -3.31553,0.30903 -1.37038,0.001 -3.43782,0.12967 -4.59421,0.28628 -1.15638,0.15658 -5.23205,0.34735 -9.05701,0.42375 -9.96758,0.19883 -11.43007,0.19836 -15.0405,-0.003 -4.71308,-0.26312 -10.7663,-0.46241 -18.11464,-0.59738 -3.55811,-0.0654 -6.83319,-0.1628 -7.27795,-0.216 -4.37727,-0.52356 -9.40344,-0.63139 -38.007152,-0.81546 -2.24424,-0.0144 -4.58383,-0.02 -6.89574,-0.0181 z m 57.287402,58.54269 c 1.58267,0.0148 2.49551,0.13716 2.49551,0.354 v 0 c 0,0.25968 -1.31158,0.25828 -5.66066,-0.005 l -2.5877,-0.15711 2.74945,-0.12505 c 0.84507,-0.0385 1.61112,-0.0606 2.28509,-0.0667 0.25275,-0.003 0.49224,-0.003 0.71831,0 z m 8.03547,0.10698 c 0.41704,-0.003 0.89221,0.004 1.41704,0.0164 1.86932,0.0456 3.36126,0.18648 3.31553,0.31316 -0.0867,0.24048 -2.68924,0.46059 -2.94721,0.24958 -0.0812,-0.0665 -0.96178,-0.12091 -1.9572,-0.12091 -0.99539,0 -1.81001,-0.11822 -1.81001,-0.26252 0,-0.12155 0.73072,-0.19055 1.98185,-0.19585 z"
       id="path914-3"
       inkscape:export-filename="/Users/jan/Documents/repo/github/microcol/microcol-game/src/main/resources/images/colony-dock.png"
       inkscape:export-xdpi="38.437706"
       inkscape:export-ydpi="38.437706" />
  </g>
  <g
     inkscape:groupmode="layer"
     id="layer10"
     inkscape:label="outside"
     style="display:none">
    <path
       style="display:inline;opacity:1;fill:#b0cb1f;fill-opacity:1;fill-rule:evenodd;stroke:none;stroke-width:0.78873396;stroke-linecap:butt;stroke-miterlimit:4;stroke-dasharray:none;stroke-opacity:1"
       d="m 60.922852,104.63294 114.637488,-1.20271 -0.13363,56.38724 H 60.922852 Z"
       id="rect3756-7-8"
       inkscape:connector-curvature="0"
       sodipodi:nodetypes="ccccc"
       inkscape:export-filename="/Users/jan/Documents/repo/github/microcol/microcol-game/src/main/resources/images/colony-outside.png"
       inkscape:export-xdpi="39.400002"
       inkscape:export-ydpi="39.400002" />
    <path
       inkscape:connector-curvature="0"
       style="display:inline;fill:#000000;stroke-width:0.26458332"
       d="m 138.67843,101.84831 c -5.802,0.0275 -12.8393,0.39454 -19.13475,1.06763 -4.21664,0.45085 -11.70635,0.8808 -12.01528,0.68988 -0.32949,-0.20375 -8.191478,-0.21076 -15.236798,-0.0134 -2.47385,0.0693 -6.70057,0.17255 -9.39271,0.22945 -2.69213,0.0568 -6.32354,0.22188 -8.06979,0.3669 -3.81254,0.31663 -10.5913,-0.0145 -13.11653,-0.64079 -1.2073,-0.29943 -1.88275,-0.35175 -2.20658,-0.17053 -0.40544,0.22693 -0.41687,0.31128 -0.0868,0.6413 0.42654,0.42654 0.64725,1.41993 0.87437,3.93827 0.0853,0.94588 0.2758,2.18765 0.42323,2.75952 0.14745,0.57187 0.31464,2.47687 0.37206,4.23333 0.0573,1.75647 0.22233,3.59756 0.36639,4.09122 0.14407,0.49366 0.21717,0.96994 0.16277,1.05834 -0.0544,0.0884 -0.17145,0.84532 -0.26045,1.68207 -0.11211,1.05446 -0.0694,1.52135 0.13901,1.52135 0.21177,0 0.20309,0.11737 -0.0289,0.39688 -0.22759,0.27421 -0.2373,0.39688 -0.032,0.39688 0.18912,0 0.29662,0.62457 0.29662,1.71979 0,0.94787 0.11692,1.71979 0.25993,1.71979 0.41159,0 0.61204,-1.23524 0.37621,-2.31667 -0.11872,-0.54475 -0.19373,-1.16922 -0.16639,-1.3875 0.0273,-0.21828 0.0517,-1.88516 0.0548,-3.70417 0.005,-3.09311 -0.0539,-4.26537 -0.39534,-7.9375 -0.29456,-3.16669 -0.28463,-6.33537 0.0201,-6.45232 0.16645,-0.0639 1.27979,0.002 2.47428,0.14624 2.29883,0.27792 4.76697,0.18879 7.16597,-0.25889 1.93903,-0.36183 8.98179,-0.87237 13.8529,-1.0046 2.16188,-0.0587 4.00886,-0.15525 4.10467,-0.21445 0.20066,-0.12402 15.508308,-0.22297 16.305978,-0.10542 0.89357,0.13169 10.44003,-0.31968 12.96458,-0.61288 1.30966,-0.15213 3.21466,-0.32593 4.23333,-0.38603 1.01862,-0.0601 2.37824,-0.16894 3.02099,-0.24184 5.22946,-0.59299 14.56444,-0.63606 15.52464,-0.0718 0.13192,0.0776 1.06582,0.2271 2.07534,0.33228 1.00951,0.10517 2.08108,0.34593 2.38125,0.53485 0.42775,0.26924 1.57546,0.29856 5.3082,0.13745 2.61937,-0.11305 8.21531,-0.22377 12.43542,-0.24597 4.2201,-0.0223 8.37959,-0.13878 9.24335,-0.2589 2.56225,-0.35629 3.09584,-0.0586 3.03083,1.69085 -0.0217,0.58209 0.0484,1.2667 0.15555,1.52136 0.10699,0.25466 0.11811,0.6618 0.0249,0.90485 -0.0933,0.24302 -0.0225,0.53238 0.15711,0.64337 0.35165,0.2173 0.3638,1.30087 0.0925,8.4398 -0.20719,5.45149 -0.19211,7.2436 0.078,9.06198 0.1243,0.83685 0.15666,1.5916 0.0718,1.67741 -0.0848,0.0858 -0.17843,0.88958 -0.20825,1.78593 -0.0298,0.89636 -0.12626,2.76096 -0.21394,4.14343 -0.0877,1.38245 -0.17521,6.26401 -0.19481,10.84792 -0.0304,7.15764 -0.0177,10.02083 0.0651,14.73036 0.019,1.08505 -0.42225,1.23618 -3.83543,1.31207 -1.4552,0.0324 -3.95552,0.17359 -5.55625,0.31419 -5.44867,0.47876 -15.53189,0.5571 -25.79687,0.2005 -8.61605,-0.29927 -31.94913,-0.32949 -34.66042,-0.0449 -5.3412,0.56055 -11.083318,0.64855 -17.859368,0.27337 -4.71014,-0.26065 -10.09806,-0.25438 -12.56768,0.0151 -1.58697,0.17309 -6.61231,0.43812 -7.67292,0.40462 -1.53244,-0.0484 -6.09888,-0.46212 -6.19445,-0.5612 -0.0917,-0.0951 -0.28893,-2.50868 -0.5819,-7.11893 -0.0508,-0.80037 -0.15047,-1.87193 -0.22116,-2.38125 -0.33862,-2.43796 -0.005,-17.09045 0.39481,-17.33746 0.11766,-0.0727 0.10326,-0.51647 -0.0315,-0.9865 -0.30263,-1.05511 -0.30562,-1.00399 0.0543,-0.92448 0.4123,0.0911 1.01541,-2.87893 0.65733,-3.23702 -0.45183,-0.45183 -0.61021,-0.30636 -0.63561,0.5829 -0.0132,0.46842 -0.20823,0.98642 -0.43307,1.15083 -0.22495,0.16444 -0.33655,0.37153 -0.24805,0.45993 0.0885,0.0885 0.0709,0.37417 -0.0393,0.63511 -0.26832,0.6351 -0.31396,2.45879 -0.0615,2.45877 0.11033,-3e-5 0.0923,0.20836 -0.0403,0.46302 -0.62241,1.19562 -0.83016,3.00405 -0.95033,8.26823 -0.0714,3.1287 -0.14531,6.16479 -0.16381,6.74687 -0.0525,1.65026 0.29012,6.69878 0.58187,8.57621 0.1451,0.93324 0.16897,1.76667 0.0532,1.85208 -0.11568,0.0854 -0.21032,0.32285 -0.21032,0.52814 0,0.20529 -0.3783,0.50294 -0.84079,0.66145 -1.34692,0.4616 -1.32588,0.68305 0.0687,0.71366 0.71546,0.0156 2.07512,0.17921 3.02101,0.36277 v 0 c 1.62118,0.31446 3.58034,0.31327 16.00729,-0.0109 1.96384,-0.0512 8.07223,-0.0579 14.68438,-0.0161 3.33184,0.0212 10.019498,-0.2913 13.493748,-0.63044 1.38244,-0.13494 4.83526,-0.24223 7.67291,-0.23824 2.83763,0.004 6.82689,-0.0745 8.86458,-0.17364 2.52637,-0.12282 4.19253,-0.0787 5.23843,0.13851 1.01367,0.21039 1.64171,0.2295 1.85158,0.0574 0.20849,-0.17074 2.18051,-0.16965 5.74125,0.003 7.48252,0.36316 18.51009,0.39835 25.92916,0.0827 6.71666,-0.28581 10.88123,-0.25861 13.07105,0.0848 2.03187,0.31864 2.44438,0.0462 2.46497,-1.62626 0.009,-0.75295 0.066,-3.33344 0.12557,-5.73453 0.0596,-2.40109 0.0292,-4.48469 -0.0677,-4.63021 -0.27601,-0.4142 -0.48654,-2.51354 -0.25217,-2.51354 0.22934,0 0.11181,-5.96151 -0.12507,-6.34484 -0.0802,-0.12973 -0.0318,-0.74329 0.1075,-1.36321 0.13933,-0.61997 0.18981,-1.22968 0.11213,-1.35549 -0.22384,-0.36232 -0.24442,-3.09994 -0.0238,-3.17344 0.1096,-0.0365 0.10335,-0.42341 -0.0135,-0.85989 -0.22008,-0.8222 0.007,-5.37007 0.41392,-8.28167 0.12811,-0.91689 0.14655,-1.72064 0.0408,-1.78594 -0.16803,-0.10388 -0.14798,-2.69578 0.047,-6.09266 0.0341,-0.59354 -0.0259,-1.22072 -0.13282,-1.39371 -0.10666,-0.17296 -0.1052,-0.9972 0.003,-1.83141 0.10843,-0.83421 0.18061,-2.23108 0.16021,-3.1042 -0.0204,-0.87313 -0.0525,-3.19446 -0.0713,-5.15886 -0.0212,-2.19906 -0.14211,-3.63855 -0.3152,-3.74552 -0.40074,-0.24783 -19.21908,-0.008 -20.17427,0.25733 -0.89655,0.24881 -5.86508,-0.0378 -8.0698,-0.46561 -2.08833,-0.40521 -5.85361,-0.58927 -10.36629,-0.56792 z"
       id="path914-8"
       inkscape:export-filename="/Users/jan/Documents/repo/github/microcol/microcol-game/src/main/resources/images/colony-outside.png"
       inkscape:export-xdpi="39.400002"
       inkscape:export-ydpi="39.400002" />
  </g>
  <g
     inkscape:groupmode="layer"
     id="layer8"
     inkscape:label="production-summary"
     style="display:none"
     sodipodi:insensitive="true">
    <path
       style="display:inline;fill:#a4b8c1;fill-opacity:1;fill-rule:evenodd;stroke:none;stroke-width:0.24114794px;stroke-linecap:butt;stroke-linejoin:miter;stroke-opacity:1"
       d="m 37.920436,117.80829 160.072924,-1.55844 -1.37793,55.32604 -73.78157,-0.33992 -82.374364,1.15302 z"
       id="path3766-3-9"
       inkscape:connector-curvature="0"
       sodipodi:nodetypes="cccccc"
       inkscape:export-filename="/Users/jan/Documents/repo/github/microcol/microcol-game/src/main/resources/images/colony-production-summary.png"
       inkscape:export-xdpi="31.376226"
       inkscape:export-ydpi="31.376226" />
    <path
       inkscape:connector-curvature="0"
       style="display:inline;fill:#000000;stroke-width:0.26458332"
       d="m 107.51478,114.29192 v 5.3e-4 c -2.92712,0.002 -5.63322,0.048 -7.48637,0.14315 -2.037294,0.10452 -5.132914,0.19068 -6.879164,0.19068 -1.74625,5.3e-4 -3.94891,0.12648 -4.89479,0.28009 -0.94588,0.15362 -3.74385,0.31287 -6.21771,0.35346 -2.47385,0.0406 -6.55325,0.21762 -9.06508,0.39378 -2.75346,0.19307 -6.06299,0.24769 -8.33438,0.13694 -2.07206,-0.10105 -5.31501,-0.26231 -7.20679,-0.35811 -1.89177,-0.0958 -4.15396,-0.0803 -5.02709,0.0341 -0.87312,0.11443 -4.89657,0.23348 -8.94105,0.26458 l -7.35408,0.0563 0.15968,0.94671 c 0.0876,0.52078 0.32014,1.41374 0.51677,1.98438 0.20253,0.58782 0.25964,1.15609 0.13177,1.31103 -0.12452,0.15098 -0.12403,0.43784 10e-4,0.64027 0.19998,0.32361 0.11962,11.36548 -0.0842,11.56932 -0.13306,0.13308 0.0541,4.61135 0.25786,6.17017 0.231,1.76731 0.21683,2.06664 -0.3483,7.40834 -0.0847,0.80036 -0.1431,2.75875 -0.1297,4.35218 0.0134,1.5934 -0.083,3.02686 -0.21446,3.18535 -0.27113,0.32668 -0.28476,0.91384 -0.14211,6.08851 0.11652,4.22709 0.28719,6.45374 0.51263,6.67917 0.0857,0.0857 0.15606,0.44151 0.15606,0.79065 0,0.34912 0.11733,0.85453 0.26097,1.12292 0.14364,0.26839 0.28444,1.34755 0.31264,2.39831 0.051,1.90027 -0.14604,2.35998 -1.15548,2.69648 -0.1332,0.0444 -0.16348,0.28638 -0.0672,0.53742 0.0963,0.25106 0.28211,0.39055 0.41238,0.31007 0.13027,-0.0805 0.23668,0.0392 0.23668,0.26614 0,0.75123 0.0305,0.80714 0.61185,1.11826 0.31742,0.16986 0.69637,0.21691 0.84233,0.10441 0.40916,-0.31549 1.44195,-0.51808 1.57148,-0.30851 0.0637,0.10303 0.80768,0.17177 1.65364,0.15296 0.84596,-0.0188 1.65748,0.0534 1.80299,0.15967 0.14552,0.10634 0.56225,0.23596 0.92605,0.28784 v 0 c 0.94657,0.13507 9.74729,0.008 12.5677,-0.18137 1.30969,-0.0879 2.79797,-0.15063 3.3073,-0.13951 0.50931,0.0111 1.34276,-0.1038 1.85208,-0.2553 0.50933,-0.15153 3.89458,-0.33869 7.52305,-0.41547 3.62847,-0.0769 6.71124,-0.21043 6.85075,-0.29663 0.1395,-0.0863 1.0513,-0.13332 2.02571,-0.10491 0.97443,0.0285 2.83222,-0.0827 4.12895,-0.24701 1.29672,-0.16425 3.88889,-0.33951 5.76037,-0.38963 1.87148,-0.0501 4.25273,-0.16369 5.29167,-0.2527 1.03894,-0.0889 3.33621,-0.20262 5.1046,-0.2527 1.768384,-0.0501 3.324204,-0.15883 3.457674,-0.24133 0.13346,-0.0825 1.45512,-0.0286 2.93677,0.11988 2.28759,0.22918 2.81837,0.20775 3.52071,-0.14261 0.74524,-0.37153 0.91199,-0.37205 1.68362,-0.006 0.471,0.22352 1.37862,0.38203 2.01693,0.35245 0.63831,-0.0295 3.66097,0.028 6.71691,0.12764 3.05594,0.0996 6.11698,0.0743 6.80268,-0.0558 0.68571,-0.13023 1.28102,-0.14134 1.32292,-0.0249 0.10352,0.28829 8.67544,0.58147 8.67544,0.29713 0,-0.12425 0.73,-0.10795 1.62213,0.0357 1.15569,0.1861 1.75858,0.17555 2.09754,-0.0362 0.35765,-0.22345 0.50218,-0.21797 0.58188,0.0212 0.0821,0.2459 0.26784,0.24336 0.82476,-0.0103 0.84928,-0.38698 2.0728,-0.42836 2.42723,-0.0822 0.2337,0.22828 7.92334,0.51268 16.25896,0.60097 6.16769,0.0653 24.40539,-0.24757 25.96327,-0.44545 1.00131,-0.12716 1.549,-0.0927 1.67173,0.10594 0.10042,0.1628 0.2769,0.2372 0.39223,0.16589 0.47994,-0.29662 4.88833,-0.64857 5.1723,-0.41291 0.16366,0.13589 0.55172,0.18087 0.86195,0.0998 0.31024,-0.0811 0.99763,-0.005 1.52808,0.17053 1.5048,0.49665 1.87202,-0.0827 2.1084,-3.32899 0.10512,-1.44375 0.23184,-3.04189 0.28164,-3.55121 0.22908,-2.34133 0.15406,-8.56398 -0.12919,-10.71563 -0.31727,-2.41014 -0.42762,-10.52631 -0.14935,-10.97658 0.0831,-0.13451 0.2023,-2.00607 0.2651,-4.15893 0.0628,-2.15284 0.13868,-3.97396 0.16898,-4.04678 0.0666,-0.15994 0.11108,-1.3227 0.339,-8.90746 0.12065,-4.01539 0.088,-5.91909 -0.10335,-6.03735 -0.15384,-0.095 -0.21976,-0.2695 -0.14676,-0.38758 0.073,-0.11809 0.17743,-1.59324 0.23201,-3.27784 0.0952,-2.93828 0.0736,-3.0864 -0.52451,-3.64835 -0.51051,-0.47961 -0.73135,-0.53543 -1.21956,-0.30696 -1.23323,0.57714 -5.55657,0.9695 -11.44426,1.0387 -3.34698,0.0394 -7.03792,0.20945 -8.20208,0.37775 -3.09112,0.44683 -10.27011,0.37314 -13.18318,-0.13545 -1.33513,-0.23307 -3.11507,-0.54502 -3.95532,-0.6935 -0.84024,-0.14851 -1.65104,-0.19407 -1.80195,-0.10077 -0.38167,0.23587 -22.96114,0.29077 -28.28768,0.0687 -2.40109,-0.10009 -6.21109,-0.30596 -8.46667,-0.45733 -3.17741,-0.21322 -8.66948,-0.33037 -13.54801,-0.3266 z m 0.42323,1.26866 c 7.015,5.3e-4 14.69422,0.26846 16.82895,0.68109 0.87832,0.16978 6.9618,0.31182 15.34582,0.35812 17.9269,0.0989 20.80977,0.19679 23.41563,0.79323 2.63319,0.60275 8.50295,0.56928 12.43543,-0.0708 1.73331,-0.28212 4.92711,-0.46964 9.26041,-0.54364 3.63802,-0.0621 7.58701,-0.13151 8.77568,-0.15451 1.18868,-0.023 2.22448,0.0212 2.30168,0.0987 0.0772,0.0775 0.1978,0.85138 0.2682,1.71979 0.0704,0.8684 0.18959,1.93644 0.26458,2.37299 0.15166,0.88239 0.1995,2.30893 0.2217,6.61458 0.0235,4.56731 -0.15317,8.92271 -0.62737,15.47813 -0.426,5.88954 -0.53418,8.76128 -0.34828,9.22991 0.1612,0.40648 0.41246,4.80057 0.48627,8.49717 0.0189,0.94589 -0.0424,2.10751 -0.13642,2.58122 -0.094,0.47377 -0.0746,0.92065 0.0429,0.99322 0.23105,0.14283 0.1624,0.92935 -0.17312,1.98181 -0.11598,0.3638 -0.21462,1.88175 -0.21962,3.37344 -0.005,1.62332 -0.11451,2.71365 -0.27286,2.71664 -0.14551,0.003 -1.63381,0.11824 -3.3073,0.25786 -1.67348,0.13965 -6.55506,0.24416 -10.8479,0.23254 -4.29287,-0.0122 -9.14912,-0.0103 -10.79159,0.005 -1.64249,0.0146 -3.48794,-0.08 -4.10105,-0.21034 -0.66202,-0.14132 -1.70563,-0.1392 -2.56986,0.004 -1.25956,0.20904 -2.70583,0.25056 -6.21771,0.17724 -0.43656,-0.009 -1.15095,0.0198 -1.5875,0.0651 -0.92117,0.0953 -14.29392,-0.20563 -20.10834,-0.4527 -2.18282,-0.0927 -4.32594,-0.15068 -4.7625,-0.12867 -1.24455,0.0627 -14.12152,-0.0274 -15.74271,-0.11006 -4.56338,-0.23273 -13.83423,-0.27694 -16.801044,-0.0801 -1.89177,0.12551 -5.46365,0.29448 -7.9375,0.37515 -2.47386,0.0807 -5.50994,0.20002 -6.74687,0.26561 -1.23692,0.0656 -3.58972,0.17325 -5.22811,0.23927 -1.6384,0.066 -3.07357,0.17854 -3.18947,0.25011 -0.20115,0.12432 -1.91052,0.22891 -9.30951,0.56949 -1.81901,0.0838 -3.48588,0.1988 -3.70416,0.2558 -0.21829,0.057 -2.24235,0.17647 -4.49792,0.26508 v 0 c -7.24464,0.28472 -8.57849,0.29753 -9.65729,0.0909 -0.5821,-0.11152 -1.96768,-0.19233 -3.0789,-0.17931 -1.11121,0.013 -2.15954,-0.0623 -2.32957,-0.16743 -0.17004,-0.10506 -1.08346,-0.19603 -2.02985,-0.20103 -2.12768,-0.0119 -2.44301,-0.28588 -2.44275,-2.12235 2.3e-4,-1.3167 -0.13909,-2.68597 -0.42426,-4.16873 -0.07,-0.3638 -0.20644,-1.25677 -0.30334,-1.98437 -0.0969,-0.7276 -0.27433,-1.44788 -0.39429,-1.60041 -0.29151,-0.37076 -0.29857,-0.85416 -0.14211,-9.9963 0.0756,-4.41384 0.24695,-8.02902 0.38861,-8.20209 0.13933,-0.17023 0.26075,-1.01814 0.26975,-1.88412 0.009,-0.86598 0.0896,-1.90513 0.17828,-2.30892 0.0887,-0.40378 0.0669,-0.88579 -0.0481,-1.07124 -0.17955,-0.28964 -0.48721,-10.74069 -0.40721,-13.83067 0.0453,-1.748 0.32108,-7.09126 0.40618,-7.87136 0.0437,-0.40018 -0.0428,-0.7276 -0.19224,-0.7276 -0.15481,0 -0.13008,-0.14227 0.0579,-0.33073 0.54251,-0.54393 20.77557,-1.15218 22.84615,-0.68678 1.20789,0.27149 9.05075,0.35353 11.7228,0.12247 2.59589,-0.2245 6.15299,-0.43017 9.39271,-0.54312 1.67349,-0.0583 5.36442,-0.23087 8.20208,-0.38344 2.83766,-0.15252 6.88578,-0.36811 8.99584,-0.47852 2.331254,-0.12201 5.382414,-0.17694 8.571054,-0.17674 z"
       id="path914-9-0"
       inkscape:export-filename="/Users/jan/Documents/repo/github/microcol/microcol-game/src/main/resources/images/colony-production-summary.png"
       inkscape:export-xdpi="31.376226"
       inkscape:export-ydpi="31.376226" />
  </g>
  <g
     inkscape:groupmode="layer"
     id="layer7"
     inkscape:label="goods"
     style="display:none"
     sodipodi:insensitive="true">
    <path
       style="display:inline;fill:#c88f5f;fill-opacity:1;fill-rule:evenodd;stroke:none;stroke-width:0.51679677px;stroke-linecap:butt;stroke-linejoin:miter;stroke-opacity:1"
       d="m -74.254264,134.81006 c 370.875204,-2.24528 458.198454,-2.00951 458.198454,-2.00951 l 1.14085,50.30151 -460.881071,0.61011 z"
       id="path3972"
       inkscape:connector-curvature="0"
       sodipodi:nodetypes="ccccc"
       inkscape:export-filename="/Users/jan/Documents/repo/github/microcol/microcol-game/src/main/resources/images/colony-goods.png"
       inkscape:export-xdpi="40.27"
       inkscape:export-ydpi="40.27" />
    <path
       inkscape:connector-curvature="0"
       style="display:inline;fill:#000000;stroke-width:0.24729887"
       d="m 385.86448,129.9991 c -0.10732,-0.004 -0.22429,0.0438 -0.34623,0.15033 -0.23458,0.205 -0.24003,0.34466 -0.0206,0.53633 0.3189,0.27862 0.15756,0.90927 -0.30131,1.17603 -0.15486,0.0901 -2.42607,0.10277 -5.04671,0.0289 -5.67886,-0.16096 -12.27482,-0.16145 -16.74265,-0.003 -1.78578,0.0636 -3.63125,0.0256 -4.10104,-0.0844 -0.46977,-0.11005 -4.30702,-0.26062 -8.5271,-0.33408 -4.22013,-0.0735 -8.685,-0.186 -9.9219,-0.25012 -2.19771,-0.11391 -14.97518,-0.15694 -19.18229,-0.0646 -2.41488,0.0531 -6.00078,0.0226 -8.7974,-0.0745 -0.5457,-0.0189 -4.14734,-0.031 -8.00362,-0.0266 -3.8563,0.003 -7.4282,0.003 -7.9375,0 -2.93158,-0.0215 -13.32585,0.32316 -14.58674,0.4835 -0.81934,0.10457 -1.75872,0.10261 -2.08772,-0.003 -0.70361,-0.22745 -5.13424,-0.24058 -17.98598,-0.0533 -5.16599,0.0753 -11.01974,0.12061 -13.00853,0.10069 -2.82276,-0.0283 -3.75137,0.0401 -4.23331,0.31149 -0.52679,0.29667 -1.20012,0.31499 -4.58626,0.12461 -4.26278,-0.23968 -8.52109,-0.27481 -8.89455,-0.0731 -0.19566,0.10563 -18.2726,0.30793 -29.10576,0.3255 -1.83692,0.003 -3.9326,0.10343 -4.65709,0.22347 -0.95557,0.1583 -1.74566,0.13113 -2.87784,-0.0989 -1.00518,-0.20427 -2.314,-0.27146 -3.67726,-0.18917 -1.16419,0.0703 -4.99784,0.14048 -8.51889,0.15621 -4.73154,0.0211 -6.48825,0.1038 -6.73344,0.31735 -0.40881,0.35605 -0.73314,0.34286 6.91793,0.27856 3.27422,-0.0276 6.19125,-0.0464 6.48229,-0.0429 4.01741,0.0546 13.95098,0.06 20.76979,0.0114 4.72943,-0.034 10.98021,-0.0407 13.89063,-0.0153 2.91039,0.0253 8.86354,-0.0538 13.22919,-0.17562 9.26248,-0.25842 30.24762,-0.33717 34.42216,-0.12912 1.62883,0.0812 4.84169,0.0128 7.38198,-0.15755 4.03069,-0.27025 7.64982,-0.3171 12.83229,-0.16568 0.94589,0.0276 4.87495,-0.0363 8.73125,-0.14176 7.08041,-0.19366 14.70369,-0.23713 26.32607,-0.15078 3.4925,0.0259 7.83828,-0.0333 9.65729,-0.13138 1.81901,-0.0981 3.75785,-0.10968 4.30874,-0.0262 0.55097,0.0836 3.05128,0.17373 5.55625,0.20044 2.50505,0.0267 4.91194,0.0941 5.34853,0.14944 0.43656,0.0554 5.49669,0.15461 11.24479,0.2203 5.74807,0.0657 11.70122,0.23223 13.22919,0.37064 1.52797,0.13843 4.00365,0.28528 5.50196,0.3264 3.94163,0.1082 3.75843,-0.004 3.75843,2.30333 v 0.003 c 0,1.91659 0.008,1.93903 0.59534,1.74892 0.54851,-0.17763 0.59137,-0.32335 0.54827,-1.8681 -0.0462,-1.65477 -0.0372,-1.67871 0.72758,-1.93089 0.85987,-0.28354 1.02629,-0.6146 0.31165,-0.61983 -0.85029,-0.006 -1.22338,-0.41083 -1.28058,-1.38913 -0.0491,-0.83879 -0.28726,-1.33194 -0.60926,-1.34622 z m -292.468452,1.33178 c -2.50884,-0.0134 -6.06283,0.21965 -5.85701,0.51059 0.17032,0.24076 1.92681,0.25586 5.78363,0.0497 2.00637,-0.10724 2.71229,-0.21635 2.39571,-0.3711 -0.25731,-0.12581 -1.18195,-0.18304 -2.32233,-0.18916 z m 6.23476,0.0921 c -0.73819,0.008 -1.22461,0.0805 -1.62368,0.22707 -0.7961,0.2924 -0.43183,0.33427 4.375452,0.50023 2.88425,0.0996 6.91099,0.24768 8.94829,0.3291 2.03729,0.0814 4.18041,0.073 4.7625,-0.0185 1.7803,-0.27979 10.37464,-0.17441 14.15521,0.17336 2.95967,0.27227 9.81665,0.75194 15.34583,1.07355 v 0 c 3.35175,0.19497 23.85586,-0.27185 26.59063,-0.60538 0.43656,-0.0532 1.37895,-0.10518 2.09444,-0.11557 1.78929,-0.0258 1.36246,-0.25725 -0.95498,-0.51784 -2.30714,-0.25941 -3.56992,-0.24989 -4.1739,0.0325 -0.42337,0.19795 -12.22501,0.57021 -13.8989,0.43836 -1.15096,-0.0903 -3.04513,-0.0881 -6.35,0.009 -3.5267,0.103 -10.99795,-0.15052 -13.36146,-0.45325 -6.2141,-0.79599 -8.12868,-0.9396 -12.03854,-0.90292 -8.91016,0.0837 -19.94204,0.0273 -22.23533,-0.11374 -0.65932,-0.0405 -1.19264,-0.0596 -1.635562,-0.0551 z m -14.82132,0.64559 c -2.00238,0.003 -9.21273,0.48574 -9.44645,0.64692 -0.15414,0.1063 -1.58977,0.19501 -3.1905,0.19501 -1.60074,0 -3.61687,0.11807 -4.48035,0.26051 -0.86347,0.14242 -3.20119,0.25913 -5.19503,0.25913 -2.69753,0 -3.85304,0.0911 -4.51549,0.35529 -0.8198,0.32695 -0.399,0.34355 5.32009,0.21263 3.41589,-0.0783 6.3053,-0.19324 6.4208,-0.25553 0.11549,-0.0624 1.24995,-0.15688 2.52077,-0.20993 4.4706,-0.18669 14.83971,-1.35891 12.89379,-1.45773 -0.0836,-0.004 -0.19414,-0.006 -0.32763,-0.006 z m -82.7029594,0.31556 c -3.54076,-0.0162 -9.260652,0.0655 -19.7600406,0.25823 -4.583898,0.0843 -8.81062,0.12007 -9.392701,0.0799 -0.582088,-0.0404 -2.42756,-0.0426 -4.101049,-0.004 -4.200311,0.0952 -5.2373,0.10139 -10.980201,0.0691 -2.764898,-0.0157 -5.443799,-0.0279 -5.95313,-0.0253 -0.50932,0.003 -1.997599,0 -3.307289,-0.003 -1.30968,-0.004 -5.357811,0 -8.995831,0.007 -3.63802,0.007 -8.102856,-0.0349 -9.921877,-0.0934 -1.81901,-0.0584 -3.737247,-0.004 -4.262789,0.1219 l -0.955498,0.22844 0.05684,2.80441 c 0.03121,1.5425 0.08562,2.85641 0.120922,2.92 v 0 c 0.08013,0.14423 0.812673,-2.97322 0.828374,-3.52494 0.0063,-0.22247 0.03421,-0.41461 0.0615,-0.42708 0.550241,-0.2507 10.521608,-0.75404 15.792318,-0.79726 4.0276,-0.033 7.558711,-0.16902 8.297682,-0.31919 0.812049,-0.16506 1.397468,-0.18101 1.5875,-0.0433 0.31038,0.22488 7.13926,0.45567 12.73669,0.43025 4.059229,-0.0185 4.545518,-0.0157 8.995838,0.0506 2.037292,0.0303 6.144951,-0.0134 9.12812,-0.0975 9.6721396,-0.27238 15.9433996,-0.40155 19.0499996,-0.39231 1.673492,0.005 4.65006,-0.006 6.614581,-0.0239 8.3074014,-0.0764 17.0929604,-0.008 21.1956104,0.16568 3.32085,0.14019 4.44302,0.11786 4.59093,-0.0912 0.1081,-0.15218 0.15384,-0.30929 0.10284,-0.34895 -0.051,-0.0397 -1.9975,-0.14521 -4.32583,-0.23478 -2.32835,-0.0896 -5.29592,-0.21152 -6.59443,-0.27085 -1.474809,-0.0674 -2.639971,-0.007 -3.104209,0.16115 -0.408749,0.14791 -0.95351,0.19717 -1.210781,0.10927 -0.25728,-0.0879 -2.313141,-0.2069 -4.568711,-0.26412 -2.255567,-0.0571 -5.4702584,-0.19801 -7.1437504,-0.31331 -1.117229,-0.077 -2.457177,-0.12172 -4.581628,-0.13135 z m -74.6414416,0.99633 c 1.105146,-0.008 2.655935,0.11112 2.877343,0.29888 0.156552,0.13274 0.08992,0.21309 -0.176731,0.21309 -0.23549,0 -0.586512,0.0352 -0.780314,0.0781 -0.625989,0.13848 -2.954676,-0.18647 -3.044778,-0.42482 -0.0414,-0.10959 0.461394,-0.16032 1.12448,-0.16525 z m 110.474391,0.12145 c -0.6474,0.0108 -1.19465,0.0468 -1.48569,0.10565 l -1.05834,0.21397 1.5875,0.16299 c 0.87313,0.0897 2.24235,0.30067 3.04271,0.46906 1.00096,0.21052 2.77667,0.28002 5.68854,0.22209 6.69978,-0.13333 10.56329,-0.33261 10.82467,-0.55797 0.2923,-0.252 -1.08696,-0.75836 -1.48312,-0.54446 -0.35531,0.19182 -11.79879,0.17257 -15.03009,-0.0252 -0.69122,-0.0423 -1.43878,-0.0569 -2.08618,-0.046 z m 348.770972,4.67975 c 1.3e-4,-9e-5 0,0 0,0 1.3e-4,-6e-5 -10e-5,0 0,0 z m 0,0 c -0.004,0.003 -0.007,0.0125 -0.0109,0.0293 -0.0569,0.27823 -0.30413,0.53995 -0.54983,0.58146 -0.38616,0.0652 -0.44698,0.41209 -0.44698,2.55657 0,1.36453 0.10385,2.481 0.23048,2.48119 0.12665,2.1e-4 0.14499,0.65055 0.0408,1.4451 -0.5471,4.17365 -0.60544,11.02988 -0.12763,15.02931 0.44056,3.68769 0.48956,4.87646 0.21238,5.17498 -0.15592,0.16818 -0.15478,0.31935 0.004,0.40496 0.13909,0.0751 0.21984,0.86466 0.17984,1.75434 -0.0399,0.88969 0.0378,1.61757 0.17258,1.61757 0.1347,0 0.16349,0.11496 0.0641,0.2555 -0.0994,0.14058 -0.1516,0.9987 -0.11626,1.90693 0.0353,0.90828 0.057,1.85946 0.0481,2.11372 -0.009,0.25426 -0.0281,1.00339 -0.0419,1.66495 -0.0217,1.0343 -0.0886,1.18202 -0.47803,1.05459 -0.39433,-0.12905 -0.4064,-0.0979 -0.0925,0.23928 0.19828,0.21297 0.40675,0.93461 0.46303,1.60356 0.0562,0.66898 0.16147,1.74976 0.2336,2.40216 0.0876,0.79218 0.0214,1.26197 -0.19844,1.41351 -0.41656,0.28696 -2.11815,0.51852 -4.82711,0.65687 -2.66446,0.13607 -9.7671,0.73901 -12.03854,1.02207 -2.00145,0.24945 -3.86752,0.25636 -22.48959,0.0849 -22.90238,-0.21091 -54.64519,-0.11883 -57.41458,0.16658 -0.21828,0.0229 -1.17078,0.0226 -2.11667,0 -0.94588,-0.0229 -3.38666,-0.0373 -5.42396,-0.0329 -2.03729,0.004 -5.4901,-0.0385 -7.67291,-0.0957 -2.18282,-0.0572 -6.40953,-0.16285 -9.39271,-0.23431 -2.98318,-0.0715 -7.09083,-0.22834 -9.12813,-0.34895 -3.60018,-0.21314 -35.97034,-0.12574 -38.62916,0.10426 -0.72761,0.063 -2.69214,0.17475 -4.36563,0.24876 -1.67349,0.0741 -3.27146,0.1931 -3.55121,0.26411 -0.27969,0.0711 -1.82753,0.16395 -3.43958,0.20675 -5.42637,0.1441 -7.60823,0.30546 -8.00262,0.59141 -0.21579,0.15643 -1.12709,0.30287 -2.0257,0.32549 -3.82976,0.0962 -5.70539,0.086 -7.33443,-0.0402 -0.95417,-0.0739 -2.19674,-0.0219 -2.76677,0.11557 -0.569,0.13735 -1.099,0.16245 -1.17822,0.056 -0.21746,-0.29239 -7.96905,-0.67838 -10.46292,-0.52097 -0.43657,0.0275 -1.74625,-0.0606 -2.91043,-0.19548 -1.89689,-0.21878 -20.62431,-0.34018 -34.39583,-0.22123 -2.98569,0.0258 -5.19064,-0.0604 -5.91023,-0.23158 -0.72413,-0.17223 -4.43545,-0.31479 -10.05417,-0.38555 -4.89848,-0.0618 -9.14454,-0.11939 -9.4356,-0.12865 -1.77274,-0.056 -8.63691,0.32533 -9.50123,0.52775 -0.56887,0.13313 -1.46185,0.16707 -1.984372,0.0754 -1.15642,-0.2029 -3.06642,-0.13457 -3.8902,0.13905 -0.33381,0.11085 -2.6661,0.25738 -5.18315,0.32596 -2.51705,0.0686 -6.42193,0.19575 -8.6775,0.28216 -2.25557,0.0864 -4.57728,0.15195 -5.15938,0.1467 -0.58207,-0.005 -2.57008,-0.0253 -4.41781,-0.0442 -1.84773,-0.019 -3.8718,0.0637 -4.49792,0.18373 -0.62612,0.12004 -2.50765,0.21381 -4.18114,0.20769 -1.67349,-0.006 -4.24504,0.10928 -5.71438,0.2555 -1.98566,0.1974 -2.86871,0.1987 -3.43958,0.005 -0.79265,-0.26875 -5.61241,-0.69459 -9.10229,-0.80403 -3.43944,-0.10788 -7.78138,-0.3369 -8.40879,-0.44334 -1.57459,-0.26709 -25.127652,0.0696 -25.987042,0.37156 -0.0728,0.0255 -1.4419824,0.0642 -3.0427114,0.0854 -3.13227,0.0414 -7.31013098,0.47868 -8.25685998,0.86453 -0.411369,0.16767 -1.04273102,0.15325 -2.13733902,-0.0496 -0.946952,-0.1756 -2.113621,-0.22405 -2.987932,-0.12461 -0.788929,0.0897 -3.577658,0.19189 -6.1970386,0.2271 -2.619369,0.0352 -5.32108,0.17915 -6.003761,0.32006 -0.682709,0.14093 -1.415068,0.19798 -1.627298,0.12686 -0.21222,-0.0711 -1.0077,0.0321 -1.767851,0.22934 -0.76014,0.19723 -1.479391,0.30619 -1.59835,0.24198 -0.118941,-0.0642 -1.08661,-0.16835 -2.150251,-0.23114 -1.063638,-0.0628 -3.085269,-0.23221 -4.492749,-0.37651 -2.05994,-0.21125 -2.808221,-0.20175 -3.836461,0.0501 -0.971389,0.23789 -3.49577,0.30805 -10.537859,0.29163 -10.395921,-0.0241 -10.191001,-0.0184 -10.573261,-0.29569 -0.15334,-0.11117 -1.706841,-0.26393 -3.451981,-0.33994 -5.120922,-0.22293 -11.861344,-0.42085 -12.433334,-0.36476 -1.599549,0.15681 -4.300656,-0.13012 -5.564517,-0.5914 -1.106559,-0.40392 -1.439789,-0.27989 -0.979268,0.36433 0.1992,0.27868 0.21957,0.49213 0.05581,0.58056 -0.142542,0.077 -0.258937,0.21193 -0.2589,0.29977 6.1e-5,0.16324 7.854277,0.20318 8.334374,0.0425 0.145521,-0.0487 0.978964,-0.003 1.852084,0.10427 0.87313,0.10628 2.778125,0.21358 4.233333,0.23838 3.613288,0.0616 6.551968,0.3132 8.579319,0.7345 1.2264,0.25488 2.48012,0.31893 4.49792,0.2298 1.538671,-0.068 3.21447,-0.0297 3.723801,0.0848 0.50932,0.11446 1.75949,0.15429 2.77813,0.0885 6.96128,-0.44946 12.557729,-0.47901 16.616559,-0.0876 2.789441,0.26896 3.376922,0.25832 5.504571,-0.0993 2.70596,-0.45483 6.84094,-0.643 15.0528286,-0.68487 3.1287,-0.016 5.80760102,-0.0942 5.95312202,-0.17426 0.67881798,-0.37336 5.36759898,-0.68048 11.64166938,-0.76251 3.783539,-0.0495 7.712599,-0.21203 8.73125,-0.36116 1.20581,-0.17652 2.959973,-0.21418 5.027083,-0.1079 4.07452,0.20955 3.46946,0.20655 7.22385,0.0352 2.46648,-0.11252 3.61783,-0.0658 4.75216,0.19231 1.66687,0.37929 6.47384,0.45092 8.10184,0.12101 0.56518,-0.1146 1.22002,-0.1226 1.4552,-0.018 1.93532,0.86018 5.161,1.28289 9.55549,1.25234 3.76405,-0.0262 10.19079,-0.35316 11.77396,-0.59908 0.87312,-0.13568 2.95672,-0.20685 4.63021,-0.15801 4.95202,0.14442 8.05744,0.0657 20.37292,-0.51647 2.98318,-0.14102 5.52059,-0.30622 5.6384,-0.36747 0.11783,-0.0612 2.243142,-0.15378 4.722722,-0.20542 2.47955,-0.0516 4.62724,-0.15839 4.77284,-0.23701 0.1456,-0.0787 1.17543,-0.0773 2.28874,0.003 1.11332,0.08 5.29838,0.15459 9.3002,0.16568 4.00182,0.0111 8.28807,0.11155 9.525,0.22303 1.23693,0.11149 6.17803,0.19348 10.98022,0.18239 21.74397,-0.0502 33.3304,0.0748 37.93619,0.40855 3.95808,0.28681 18.66881,0.24976 20.28711,-0.051 0.88125,-0.16375 3.50062,-0.31657 5.82083,-0.33947 2.47471,-0.0245 4.43712,-0.14666 4.74753,-0.2957 0.29104,-0.13973 1.18401,-0.27132 1.98437,-0.29254 1.82518,-0.0487 31.3168,-0.37046 33.4698,-0.36523 3.5475,0.009 16.6616,0.27603 20.37291,0.41534 2.18282,0.0819 4.56407,0.17035 5.29167,0.19638 3.2026,0.11449 14.21776,0.10067 22.48958,-0.028 11.26477,-0.17524 62.52811,-0.0328 74.74482,0.20767 1.09138,0.0215 4.24654,-0.18965 7.01143,-0.46906 2.7649,-0.27941 6.94444,-0.57588 9.2878,-0.65913 3.89001,-0.1383 4.2899,-0.19222 4.59563,-0.61984 0.28279,-0.39563 0.26271,-0.51475 -0.13078,-0.7661 -0.25617,-0.16367 -0.55666,-0.32755 -0.66765,-0.36389 -0.11099,-0.0364 -0.2707,-0.79981 -0.35452,-1.69701 -0.0838,-0.89721 -0.32522,-1.93735 -0.53639,-2.31144 -0.28263,-0.5007 -0.32533,-0.95481 -0.16227,-1.72047 0.12187,-0.57207 0.22969,-1.71624 0.2398,-2.54258 0.01,-0.82633 0.0683,-1.81447 0.12972,-2.19586 0.0609,-0.38139 0.057,-0.77181 -0.01,-0.86769 -0.10203,-0.14685 -0.37905,-5.36891 -0.44135,-8.32026 -0.0101,-0.47674 -0.12796,-0.86679 -0.262,-0.86679 -0.13723,0 -0.12803,-0.12613 0.0212,-0.28893 0.29628,-0.3233 0.23228,-2.86408 -0.13798,-5.48967 -0.3016,-2.13828 -0.17211,-6.32471 0.19894,-6.43275 0.1492,-0.0435 0.18923,-0.19489 0.0889,-0.33677 -0.26662,-0.37651 -0.26011,-2.47622 0.008,-2.47622 0.1252,0 0.15449,-0.16729 0.0646,-0.372 -0.0899,-0.20472 -0.18288,-2.207 -0.20619,-4.44951 -0.0217,-2.09788 -0.0803,-3.63885 -0.13435,-3.60124 z m -461.809017,1.02616 c -0.128998,0 -0.234609,0.358 -0.234609,0.79546 0,0.43744 -0.120819,0.86051 -0.268719,0.94036 -0.14787,0.0799 -0.20049,0.24192 -0.116789,0.36026 0.201443,0.28482 0.841126,0.27518 1.046966,-0.0157 0.08994,-0.12713 0.0076,-0.23214 -0.182935,-0.23475 -0.240861,-0.003 -0.255686,-0.0552 -0.04909,-0.17335 0.33859,-0.19361 0.16633,-1.67219 -0.194821,-1.67219 z m -0.07028,6.71038 c -0.225798,0.003 -0.440635,0.1843 -0.460439,0.51286 -0.0173,0.28604 -0.0053,0.62409 0.02635,0.75122 0.03171,0.12713 0.10305,0.85523 0.158647,1.618 0.05559,0.76278 0.146558,1.64688 0.202057,1.96473 0.0555,0.31782 0.04331,0.66666 -0.02739,0.77514 -0.261922,0.40181 -0.29985,2.2043 -0.0615,2.93037 0.19876,0.60545 0.146905,0.87182 -0.269235,1.38235 -0.452371,0.555 -0.523978,1.09636 -0.584978,4.41792 -0.0385,2.09529 0.04207,3.93792 0.180351,4.12762 0.325411,0.44634 0.382058,1.15978 0.09199,1.15978 -0.490551,0 -1.044631,1.9718 -1.03663,3.68746 0.0021,0.43906 -0.133746,0.94353 -0.302307,1.12095 -0.351631,0.37015 -0.438079,4.07437 -0.11162,4.78405 0.11698,0.25426 0.214006,2.07449 0.216006,4.04502 0.0019,1.97049 0.124634,3.86196 0.272335,4.20302 0.174959,0.40404 0.403413,0.57486 0.655776,0.49028 0.213018,-0.0715 0.327765,-0.26598 0.254764,-0.43205 -0.07295,-0.16609 -0.02196,-0.3347 0.11317,-0.37471 0.14487,-0.0429 0.120375,-0.42799 -0.05943,-0.93902 -0.217479,-0.61829 -0.228414,-1.23385 -0.03876,-2.148 0.146201,-0.70464 0.185749,-1.3241 0.08785,-1.37695 -0.0979,-0.0528 -0.12374,-0.67251 -0.05684,-1.37692 0.06686,-0.70443 0.0032,-1.41103 -0.141594,-1.57015 -0.144801,-0.1591 -0.216897,-0.49738 -0.160197,-0.75166 0.224769,-1.0076 0.278159,-2.55507 0.0956,-2.77372 -0.255828,-0.30636 -0.0098,-1.96472 0.291454,-1.96472 0.129598,0 0.235646,-0.45089 0.235646,-1.00178 0,-0.55091 0.07427,-1.06666 0.165365,-1.14624 0.09112,-0.0796 0.202311,-0.74687 0.247012,-1.48302 0.21708,-3.57463 0.447122,-7.94012 0.478523,-9.08186 0.01924,-0.69921 0.138147,-1.337 0.264067,-1.41712 0.312449,-0.19885 0.269317,-3.37786 -0.07648,-5.63276 -0.45452,-2.96386 -0.514491,-3.81387 -0.2682,-3.81387 0.127201,0 0.162859,-0.15602 0.07906,-0.34672 -0.102503,-0.23333 -0.284819,-0.34098 -0.460437,-0.3395 z"
       id="path914-0"
       inkscape:export-filename="/Users/jan/Documents/repo/github/microcol/microcol-game/src/main/resources/images/colony-goods.png"
       inkscape:export-xdpi="40.27"
       inkscape:export-ydpi="40.27" />
  </g>
  <g
     inkscape:groupmode="layer"
     id="layer4"
     inkscape:label="structures"
     style="display:none"
     sodipodi:insensitive="true">
    <rect
       style="display:inline;opacity:1;fill:#b0cb1f;fill-opacity:1;fill-rule:evenodd;stroke:none;stroke-width:2.50443602;stroke-linecap:butt;stroke-miterlimit:4;stroke-dasharray:none;stroke-opacity:1"
       id="rect3756-2"
       width="316.74405"
       height="201.83929"
       x="-24.946428"
       y="5.958293"
       ry="0"
       inkscape:export-filename="/Users/jan/Documents/repo/github/microcol/microcol-game/src/main/resources/images/colony-structures.png"
       inkscape:export-xdpi="38.919998"
       inkscape:export-ydpi="38.919998" />
    <path
       inkscape:connector-curvature="0"
       style="display:inline;fill:#000000;stroke-width:0.2484334"
       d="m 108.85146,1.7822468 c -12.471229,0.01435 -13.800679,0.04561 -17.513649,0.410572 -1.88306,0.185092 -4.78663,0.338412 -6.4524,0.340538 -1.66577,0.0018 -3.73976,0.105296 -4.60885,0.229316 -2.45548,0.350378 -4.24766,0.445878 -11.19293,0.595026 -7.31709,0.157138 -13.49966,0.324825 -13.69488,0.371671 -0.0725,0.01745 -0.22494,0.0178 -0.33898,8.86e-4 -0.42745,-0.06324 -3.58985,-0.02498 -6.77182,0.08149 -1.81062,0.06058 -4.47717,0.009 -5.92567,-0.114427 -2.47355,-0.210885 -4.91436,-0.371955 -8.29594,-0.547427 -0.79667,-0.04136 -1.56701,-0.104074 -1.71186,-0.139149 -0.14484,-0.03516 -0.32258,-0.05119 -0.39504,-0.0357 -0.0725,0.0155 -1.96863,0.06776 -4.21381,0.116252 -2.24517,0.04845 -4.43768,0.146022 -4.87222,0.2165 -1.36831,0.22192 -6.86886,0.429554 -13.8265596,0.522254 -3.69367,0.04925 -7.42684,0.170716 -8.29593997,0.270051 -0.8691,0.09934 -2.35051003,0.173657 -3.29204003,0.165243 -2.84213,-0.02551 -10.0261504,-0.511165 -11.8513404,-0.801464 -1.9388,-0.308368 -8.19193,-0.149645 -10.20326,0.259068 -0.6893,0.140069 -2.37851,0.219741 -3.75395,0.177137 -2.35394,-0.0729 -2.50096,-0.04987 -2.50195,0.391343 -5.3e-4,0.257784 0.236,0.596851 0.52569,0.753396 0.63995,0.345816 1.54239,0.391591 1.31682,0.06678 -0.0999,-0.143843 0.32647,-0.234126 1.10386,-0.233887 l 1.26641,4.49e-4 0.0695,1.698587 c 0.0447,1.09039 0.19709,1.783537 0.4254,1.935671 0.25171,0.16774 0.36595,0.910621 0.39144,2.5421492 0.0198,1.267847 0.10561,2.40511 0.19032,2.527049 0.0847,0.121939 0.0134,0.371928 -0.15791,0.555664 -0.32578,0.349245 -0.58186,3.580901 -0.31481,3.971138 0.085,0.123639 0.12323,0.666611 0.0859,1.206536 -0.0373,0.539924 0.0592,1.051568 0.2145,1.136961 0.18717,0.102922 0.19694,0.296597 0.0299,0.574433 -0.13814,0.230521 -0.19863,1.146909 -0.13374,2.03637 0.36433,4.996603 0.50001,12.393109 0.23456,12.775286 -0.068,0.09791 -0.0135,0.61327 0.12088,1.145662 0.19771,0.782992 0.16929,0.993611 -0.14866,1.102178 -0.29829,0.101846 -0.31445,0.177657 -0.0674,0.313536 0.41596,0.228759 0.37867,3.431466 -0.0453,3.885999 -0.23025,0.246888 -0.21614,0.323146 0.0607,0.32589 0.24237,0.0024 0.26576,0.06033 0.071,0.175763 -0.27166,0.161012 -0.36755,1.902822 -0.36058,6.55402 0.001,0.932198 0.12987,1.986775 0.286,2.343502 0.35669,0.814993 0.53696,5.68711 0.21038,5.68711 -0.35443,0 -0.28996,0.495469 0.16563,1.272905 0.29075,0.49612 0.33482,0.859145 0.15947,1.306775 -0.14926,0.381068 -0.14758,0.770768 0.004,1.012007 0.16895,0.268634 0.14961,0.392263 -0.0617,0.392263 -0.20762,0 -0.22522,0.09595 -0.0534,0.292939 0.14046,0.161113 0.277,1.136594 0.30348,2.167737 0.0264,1.031139 0.0862,2.243899 0.1327,2.695024 0.0465,0.451123 -0.0141,1.059313 -0.13476,1.351632 -0.16532,0.40069 -0.0855,0.650767 0.32458,1.015669 0.71365,0.63494 0.86332,0.453943 0.52518,-0.635764 -0.19502,-0.628703 -0.19361,-0.9363 0.006,-1.04588 0.18404,-0.101208 0.21531,-0.593635 0.09,-1.416169 -0.28041,-1.84092 -0.37074,-3.833045 -0.36676,-8.123068 0.002,-2.098357 -0.0821,-3.938616 -0.18671,-4.089225 -0.36716,-0.528611 -0.41404,-8.411004 -0.052,-8.733203 0.069,-0.06143 0.0568,-0.561705 -0.0273,-1.111329 -0.0841,-0.549627 -0.0789,-1.579208 0.0113,-2.288117 0.0903,-0.708909 0.0624,-1.404392 -0.0617,-1.545706 -0.1252,-0.142896 -0.1216,-1.026986 0.009,-1.991974 0.33787,-2.501535 0.34553,-9.059013 0.0109,-9.243097 -0.17106,-0.09407 -0.18147,-0.252185 -0.0283,-0.422469 0.22189,-0.246711 0.23088,-2.639854 0.0468,-12.26402 -0.0325,-1.697852 0.0198,-3.200621 0.11625,-3.339486 0.0965,-0.138856 0.0796,-0.252646 -0.0375,-0.252655 -0.11719,-9e-6 -0.24117,-0.810287 -0.27571,-1.800651 -0.0397,-1.1397162 -0.18472,-1.8695152 -0.39504,-1.9883182 -0.25325,-0.143082 -0.25574,-0.188582 -0.0102,-0.191318 0.32638,-0.0035 0.31134,-2.04846 -0.0185,-2.52339 -0.0848,-0.122072 0.14825,-0.455834 0.51747,-0.741491 0.57871,-0.447756 0.96771,-0.517481 2.8219,-0.507613 1.18296,0.0062 3.50264,-0.03915 5.15461,-0.100691 1.84365,-0.06864 3.12855,-0.01931 3.32702,0.127245 0.17784,0.131327 0.66328,0.230077 1.07865,0.219697 0.41537,-0.01036 1.70323,0.08671 2.8620204,0.215587 4.42507,0.492148 10.26677003,0.462521 17.51365,-0.0888 0.94152,-0.07166 3.8819496,-0.131513 6.5341796,-0.133196 2.65224,-0.0018 6.20763,-0.14046 7.90089,-0.30804 1.91018,-0.189051 4.37801,-0.252328 6.50228,-0.167067 2.24415,0.09007 3.91349,0.04066 4.84547,-0.142807 1.23693,-0.243505 1.5452,-0.226234 2.37027,0.130442 0.60495,0.26153 1.80692,0.446958 3.31879,0.512184 2.63071,0.113506 3.35214,0.113586 13.20467,0.0053 3.78629,-0.04172 7.00103,-0.0116 7.14373,0.06687 0.14271,0.07848 1.13373,0.0982 2.20206,0.04349 5.44583,-0.27889 9.80755,-0.431661 11.81843,-0.413309 2.09557,0.01913 5.95916,-0.314444 6.84743,-0.591368 0.54804,-0.170858 2.67972,-0.28851 4.87222,-0.268678 3.2776,0.02967 6.73565,-0.274117 6.53367,-0.573981 -0.13454,-0.199724 -0.0821,-0.198847 0.19958,0.0035 0.22066,0.158662 0.82694,0.226093 1.43358,0.159291 0.86214,-0.09494 5.17363,-0.437836 7.371589,-0.586338 0.2897,-0.01957 2.95626,-0.0027 5.92568,0.038 2.96941,0.04039 7.3544,0.05651 9.74442,0.03614 2.39002,-0.02037 8.13792,0.06616 12.77311,0.19224 18.1861,0.494708 29.72967,0.628887 42.7965,0.497082 1.81063,-0.01825 4.03184,0.01391 4.936,0.07183 0.90414,0.05802 2.00274,0.014 2.44125,-0.09795 0.43851,-0.111912 0.74677,-0.130955 0.68516,-0.0426 -0.1406,0.201814 5.00962,0.123852 5.38299,-0.08149 0.15091,-0.08299 0.47616,-0.07555 0.72271,0.01647 0.24655,0.09198 0.98185,0.149627 1.63367,0.128156 2.76362,-0.09101 6.74509,-0.23308 7.1108,-0.253567 0.21729,-0.01214 2.70607,-0.02152 5.53063,-0.02108 2.82457,4.42e-4 5.8112,-0.08211 6.63706,-0.183089 0.82585,-0.100991 1.44955,-0.108334 1.38574,-0.01647 -0.16094,0.231699 3.5729,0.673989 5.80377,0.687488 2.14917,0.01302 13.11755,0.369333 17.51364,0.568941 8.0291,0.364559 9.56945,0.426091 12.50974,0.501192 1.7382,0.04437 4.34549,0.178457 5.794,0.297518 1.44849,0.119051 2.75929,0.127713 2.9129,0.01922 0.1536,-0.108484 3.64975,-0.205481 7.76923,-0.215578 9.89245,-0.02427 12.94503,-0.10294 16.57593,-0.427047 2.45806,-0.219414 7.17839,-0.478004 10.1395,-0.555213 0.28969,-0.0071 1.23203,0.05739 2.09402,0.14418 1.59591,0.160601 2.30465,0.460111 2.1995,0.92962 -0.0672,0.300077 0.61543,1.316385 0.88422,1.316385 0.0985,0 0.26344,-0.342735 0.36626,-0.761633 0.10279,-0.418898 0.40182,-1.005794 0.66455,-1.304028 0.52803,-0.599367 0.42855,-1.137405 -0.24177,-1.309981 -0.24009,-0.06182 -1.62132,-0.125978 -3.06981,-0.142807 -1.44848,-0.01683 -3.04842,-0.03853 -3.55539,-0.04809 -0.50697,-0.0096 -1.63285,0.11061 -2.50195,0.266845 -0.8691,0.156234 -2.11349,0.316321 -2.76529,0.356099 -1.35517,0.08273 -5.0773,0.389616 -6.05737,0.499368 -0.36211,0.04057 -1.6065,0.07387 -2.76532,0.07413 -3.54119,7.01e-4 -5.23788,0.055 -5.455,0.174392 -0.11409,0.06271 -0.2073,-0.0027 -0.2073,-0.14464 0,-0.164348 -0.31236,-0.208005 -0.85592,-0.119467 -1.32663,0.216101 -7.84366,0.29323 -10.12921,0.119928 -1.25494,-0.09516 -2.57,-0.05093 -3.38666,0.113967 -1.28405,0.259316 -4.29713,0.229777 -5.11707,-0.05031 -0.65995,-0.225463 -5.29908,-0.37408 -20.54233,-0.657736 -3.25912,-0.06067 -5.92567,-0.119317 -5.92567,-0.13045 0,-0.07183 -1.99242,-0.200876 -6.71576,-0.435294 -2.96942,-0.147346 -5.99151,-0.365785 -6.71576,-0.485164 -1.12677,-0.185721 -12.24942,-0.09206 -15.93347,0.134117 -0.91926,0.05651 -17.9945,0.09329 -22.91258,0.04942 -0.50697,-0.0044 -3.11426,-0.0044 -5.79398,-4.68e-4 -5.61577,0.0089 -15.89865,-0.122303 -21.06906,-0.268679 -9.845,-0.278714 -22.61622,-0.443186 -33.4471,-0.430714 z m 183.93956,5.576341 c -0.0742,-0.01585 -0.0741,0.210477 0,0.682457 0.0803,0.515567 0.14565,1.438323 0.14864,2.0505592 0.003,0.865113 0.0975,1.113162 0.42646,1.113162 0.2967,0 0.36848,-0.122647 0.24122,-0.410112 -0.0999,-0.22556 -0.24641,-0.9901242 -0.32613,-1.6990382 -0.0797,-0.708905 -0.25588,-1.44711 -0.39092,-1.640448 -0.0412,-0.05899 -0.0741,-0.09128 -0.0987,-0.09658 z m 0.62497,5.7420352 c -0.0363,-0.008 -0.0987,0.06368 -0.2037,0.21146 -0.15627,0.219866 -0.155,0.432725 0.004,0.573982 0.35213,0.313336 0.31535,1.861003 -0.0617,2.597525 -0.22172,0.432964 -0.23076,0.660464 -0.0309,0.772625 0.16306,0.09152 0.28562,0.966688 0.29059,2.062463 0.005,1.170177 0.14394,2.098106 0.3606,2.408954 v 0 c 0.33417,0.479438 0.36098,0.453477 0.51438,-0.497534 0.089,-0.551652 0.0684,-1.035324 -0.0463,-1.075173 -0.11467,-0.03986 -0.14358,-0.430882 -0.0638,-0.868744 0.0799,-0.437862 0.059,-0.985413 -0.0463,-1.216607 -0.10528,-0.231194 -0.17161,-1.290202 -0.14764,-2.353568 0.0277,-1.23201 -0.0584,-1.933386 -0.23662,-1.933386 -0.15377,0 -0.28046,-0.184551 -0.28342,-0.410112 -0.003,-0.174002 -0.0122,-0.263169 -0.0484,-0.271885 z m 0.66252,9.369881 c -0.054,0.01196 -0.0988,0.272239 -0.12293,0.82297 -0.0541,1.236208 -0.0736,1.340928 -0.3117,1.679357 -0.12044,0.171212 -0.0792,0.292939 0.0987,0.292939 0.2004,0 0.28149,0.420687 0.23712,1.230335 -0.0371,0.676691 -0.0486,2.047638 -0.0257,3.046557 0.0331,1.441653 0.12314,1.816213 0.43672,1.816213 0.30173,0 0.40222,-0.318299 0.42587,-1.34752 0.0172,-0.741127 0.003,-1.452962 -0.0329,-1.581856 -0.16796,-0.611376 -0.27115,-1.583228 -0.3832,-3.604054 -0.0829,-1.49532 -0.21892,-2.377766 -0.32202,-2.354941 z m 0.79163,9.769468 c -0.0217,5.3e-4 -0.0466,0.04129 -0.0751,0.122211 -0.12676,0.358551 -0.24045,2.707598 -0.25307,5.22024 -0.0127,2.512637 -0.0361,4.644925 -0.052,4.738264 -0.0159,0.09334 -0.013,0.222541 0.008,0.286989 0.0907,0.287432 0.0185,6.09364 -0.089,7.147676 -0.24,2.354575 -0.43426,5.189614 -0.45008,6.561802 -0.0369,3.239301 -0.0148,6.902846 0.0509,8.436602 0.0733,1.709377 0.0371,4.902909 -0.1075,9.491174 -0.0556,1.765234 0.014,2.754353 0.20215,2.867126 0.18068,0.108307 0.13089,0.173461 -0.13425,0.175763 -0.33462,0.0028 -0.4313,0.298873 -0.46964,1.436769 -0.0266,0.788178 -0.20259,1.710936 -0.39142,2.050561 -0.28356,0.509095 -0.28253,0.720312 0.006,1.203335 0.23717,0.397939 0.312,1.149673 0.23146,2.343499 -0.19876,2.94494 -0.19735,5.411346 0.006,7.440617 0.11071,1.107715 0.0927,1.933395 -0.0422,1.933384 -0.40767,-1.6e-5 0.0705,6.999956 0.51131,7.485466 0.24225,0.26685 0.2326,0.29804 -0.0453,0.14922 -0.26712,-0.14299 -0.33305,-0.0263 -0.27313,0.48244 0.0435,0.36908 0.0111,0.77654 -0.0721,0.90536 -0.1846,0.28649 -0.0988,1.8367 0.15896,2.88131 0.12163,0.49282 0.0749,0.89345 -0.12912,1.11225 -0.24439,0.26155 -0.24506,0.34191 -0.006,0.34191 0.19499,0 0.24897,0.17979 0.14351,0.47557 -0.25498,0.71481 -0.41958,1.87383 -0.41461,2.92251 0.003,0.51556 -0.10305,1.25377 -0.23452,1.64045 -0.24577,0.72281 -0.40378,1.81277 -0.76335,5.27287 -0.11385,1.09559 -0.24747,2.09744 -0.29731,2.22633 -0.0499,0.12889 -0.006,0.81436 0.0983,1.52327 0.10393,0.70891 0.0828,2.92352 -0.0468,4.92136 -0.14679,2.26266 -0.14213,3.7397 0.013,3.91713 0.13687,0.15665 0.17503,0.68395 0.0848,1.17176 -0.0902,0.48779 -0.21233,2.04707 -0.27157,3.46488 -0.0592,1.41782 -0.19812,3.42153 -0.30913,4.45267 -0.11094,1.03114 -0.18093,3.61485 -0.15481,5.74158 0.081,6.60236 0.0605,12.72002 -0.0468,13.94383 -0.0565,0.64445 0.0167,1.30202 0.16307,1.46146 0.14636,0.15946 0.19737,0.53294 0.11366,0.82985 -0.0837,0.2969 -0.1678,2.11758 -0.18672,4.04575 -0.0188,1.92816 -0.17613,4.37279 -0.34925,5.43261 -0.23624,1.44591 -0.23913,1.95255 -0.0122,2.02997 0.20524,0.0701 0.24273,0.4512 0.11729,1.18685 -0.10154,0.59582 -0.1031,1.12827 -0.003,1.1832 0.0999,0.0549 0.26739,1.65952 0.3719,3.56558 0.10451,1.90608 0.23056,3.93879 0.28033,4.51719 0.0498,0.57842 -0.0295,1.25087 -0.1759,1.49444 -0.1465,0.24355 -0.16531,0.50838 -0.0417,0.58863 0.25964,0.16864 0.24554,0.0493 0.49689,4.08876 0.26101,4.19462 0.29882,6.69957 0.1142,7.5404 -0.0849,0.38668 -0.0322,1.06428 0.11729,1.50587 0.20449,0.60441 0.19203,0.82676 -0.0515,0.89896 -0.17669,0.0528 -0.25768,0.19092 -0.17695,0.30713 0.18505,0.26639 0.22288,9.57798 0.0396,9.74108 -0.0745,0.0662 -4.61974,0.15979 -10.1009,0.20779 -11.24958,0.0984 -17.49993,0.24424 -21.15907,0.49434 -3.03419,0.20738 -13.10574,0.18145 -18.69877,-0.0485 -2.24517,-0.0923 -6.80794,-0.19213 -10.13949,-0.22153 -6.7866,-0.06 -15.1094,-0.46816 -16.92313,-0.82985 -1.39628,-0.27842 -27.08473,-0.3561 -37.0663,-0.11212 -3.62124,0.0885 -12.68751,0.20809 -20.14728,0.26547 -14.55507,0.11204 -16.48846,0.15429 -20.14727,0.44123 -4.08688,0.3205 -29.22561,0.24438 -35.02729,-0.10618 -7.158939,-0.43258 -10.228379,-0.42544 -17.070239,0.0403 -3.21316,0.21871 -7.26451,0.4577 -9.0027,0.5314 -3.42527,0.14528 -9.66048,0.5968 -9.88075,0.71541 -0.075,0.0403 -1.91186,0.14205 -4.08213,0.22566 -2.17025,0.0837 -4.83467,0.25096 -5.92103,0.37211 -2.35994,0.26324 -13.21614,0.30862 -20.01559,0.0838 -4.96375,-0.16414 -7.0485,-0.17385 -14.75966,-0.0705 -2.39634,0.0322 -4.47031,-0.004 -4.60885,-0.0796 -0.13852,-0.0758 -3.21488,-0.2049 -6.83613,-0.287 -3.6212396,-0.0821 -6.8803496,-0.19721 -7.2424796,-0.2554 -0.36212,-0.0582 -2.91015997,-0.21601 -5.6623,-0.35107 -2.75214,-0.13506 -5.5372,-0.34989 -6.18904,-0.47693 -2.1502904,-0.41903 -7.4877004,-1.14314 -8.4775104,-1.15023 -0.53464,-0.004 -1.03117,0.0776 -1.10283,0.1808 -0.0717,0.1032 -0.64151,0.20933 -1.26641,0.23572 -1.72946,0.073 -3.09184,0.2967 -3.25706,0.53459 -0.19912,0.28666 -2.94101,0.27469 -3.14133,-0.0137 -0.19491,-0.28062 1.02736,-0.57788 1.58841,-0.3863 0.23487,0.0802 0.34072,0.0409 0.24845,-0.092 -0.0885,-0.12741 -0.38426,-0.2316 -0.65687,-0.2316 -0.27259,0 -0.58001,-0.12183 -0.68361,-0.27098 -0.23547,-0.33906 -0.1872,-1.76632 0.0726,-2.14027 0.10669,-0.15355 0.16099,-0.86029 0.12087,-1.57042 -0.10405,-1.84111 -0.10399,-1.83506 0.0684,-6.09538 0.0861,-2.12673 0.24568,-4.55226 0.35492,-5.39006 0.16982,-1.3026 0.21368,-6.45502 0.11162,-13.12359 -0.0147,-0.9667 -0.03,-2.12673 -0.0339,-2.57785 -0.0171,-1.90841 -0.3285,-5.80751 -0.52878,-6.62176 -0.13585,-0.55223 -0.11742,-0.93464 0.0499,-1.02666 0.17235,-0.0948 0.19393,-0.81983 0.0612,-2.04919 -0.11298,-1.04638 -0.23817,-2.53547 -0.27828,-3.30882 -0.0401,-0.77336 -0.0896,-1.4061 -0.11008,-1.4061 -0.20854,0 -0.37097,-6.89126 -0.16666,-7.07307 0.0836,-0.0744 0.0979,-1.20238 0.0318,-2.50691 -0.0883,-1.74173 -0.43893,-20.91778 -0.41613,-22.76033 0.0309,-2.50293 0.23391,-6.70497 0.32817,-6.78883 0.0687,-0.0611 0.0921,-1.35305 0.0515,-2.87125 -0.12035,-4.49573 -0.1114,-5.71347 0.0555,-7.56465 0.22415,-2.48599 0.22851,-4.10848 0.0123,-4.4197 -0.10217,-0.14711 -0.0455,-0.26731 0.12603,-0.26731 0.20136,0 0.25973,-0.23322 0.16407,-0.65865 -0.0814,-0.36235 -0.0424,-1.07419 0.0869,-1.58186 0.12931,-0.50768 0.14793,-0.95052 0.0411,-0.98409 -0.10679,-0.0336 -0.1791,-1.07225 -0.16048,-2.3078 0.0247,-1.64325 0.13248,-2.30054 0.40121,-2.44832 0.28962,-0.15927 0.37936,-1.12911 0.42386,-4.583555 0.0311,-2.409962 0.15162,-4.46719 0.2685,-4.571203 0.11686,-0.104003 0.15032,-0.936086 0.0741,-1.849166 -0.0762,-0.91308 -0.0606,-1.787012 0.0349,-1.942087 0.0956,-0.155075 0.25315,-1.647883 0.3503,-3.317518 0.0971,-1.669637 0.23811,-3.124157 0.31326,-3.232382 0.26369,-0.380091 0.11311,-8.893242 -0.16283,-9.189102 -0.14927,-0.160041 -0.32931,-0.801346 -0.40019,-1.424865 -0.0709,-0.623522 -0.23882,-1.230934 -0.37292,-1.350259 -0.54238,-0.482634 -0.70376,0.116825 -0.50461,1.871596 0.11427,1.006975 0.26543,4.035848 0.3364,6.730698 0.11704,4.445648 0.0872,4.928336 -0.32508,5.209712 -0.371,0.253185 -0.38926,0.34857 -0.0977,0.519504 0.29572,0.173424 0.3039,0.626973 0.0479,2.641018 -0.17002,1.337337 -0.37694,3.69687 -0.45986,5.24358 -0.0829,1.546709 -0.27453,2.88327 -0.42591,2.970117 -0.18849,0.108156 -0.18037,0.259617 0.0257,0.4806 0.30828,0.330573 0.2753,2.704068 -0.0762,5.454592 -0.0988,0.77336 -0.1676,2.23468 -0.15277,3.24748 0.0217,1.48165 -0.0447,1.81737 -0.33898,1.7169 -0.36147,-0.12344 -0.34821,0.34836 0.0349,1.2459 0.0821,0.19333 0.11535,0.45698 0.0731,0.58587 -0.0959,0.29198 -0.31673,5.1348 -0.36521,8.00406 -0.0199,1.17997 -0.10926,2.10519 -0.19855,2.05605 -0.0893,-0.0492 -0.0594,0.40127 0.0664,1.00057 0.15242,0.72581 0.12739,1.33784 -0.0741,1.8336 -0.18205,0.44798 -0.21878,1.01522 -0.0926,1.42441 0.2362,0.76609 0.23489,1.33409 -0.01,3.84345 -0.21777,2.23337 -0.20828,17.43662 0.0113,18.05228 0.0906,0.25383 0.068,0.46147 -0.0504,0.46138 -0.11838,-9e-5 -0.1931,0.55355 -0.16563,1.23033 0.0275,0.67678 0.0606,1.23034 0.0736,1.23034 0.0709,0 0.27156,7.47852 0.27057,10.07705 -8e-4,1.67561 0.10696,3.3816 0.23919,3.7908 0.13219,0.40921 0.17261,0.8044 0.0895,0.87835 -0.22986,0.20456 -0.33834,1.37859 -0.16409,1.77548 0.0849,0.19334 0.15592,1.14245 0.15792,2.10915 0.002,0.96669 0.11839,1.88465 0.25822,2.03958 0.14115,0.1564 0.16251,0.52122 0.0484,0.82022 -0.11306,0.2962 -0.17025,0.64373 -0.12705,0.77262 0.0432,0.12891 0.11616,3.29263 0.16254,7.03051 0.0463,3.73788 0.10979,7.75862 0.14094,8.93504 0.0312,1.17642 -0.0263,2.2585 -0.12757,2.40438 -0.1014,0.14587 -0.10043,0.49998 0.002,0.78726 0.27217,0.76304 0.18186,3.88107 -0.14659,5.06234 -0.15583,0.56038 -0.2077,1.37767 -0.11522,1.81621 0.0976,0.46246 0.0605,0.79733 -0.088,0.79733 -0.33414,0 -0.0857,7.8201 0.25204,7.93449 0.136,0.0461 -0.0133,0.33052 -0.33178,0.63211 -0.65007,0.61575 -0.76603,1.69055 -0.21655,2.0057 0.3056,0.17531 0.30383,0.24137 -0.0123,0.42248 -0.58542,0.3353 -0.66427,2.63909 -0.10288,3.00764 0.24547,0.1611 0.31871,0.29293 0.16306,0.29293 -0.15563,0 -0.3445,0.21092 -0.42024,0.4687 -0.0895,0.30463 -0.008,0.4687 0.23249,0.4687 0.20371,0 0.37035,0.1179 0.37035,0.26182 0,0.16678 0.26276,0.20526 0.72426,0.10664 0.84175,-0.17987 2.03519,-0.32044 3.8846,-0.45771 0.72424,-0.0538 2.23253,-0.30422 3.35171,-0.55659 1.11918,-0.2524 2.08597,-0.41318 2.14857,-0.35747 0.0626,0.0557 1.12068,0.13849 2.35123,0.18445 1.23056,0.0459 2.45627,0.18753 2.72365,0.31446 0.51506,0.24452 4.7023504,0.65953 8.6503404,0.8573 1.30365,0.0653 4.02945,0.21582 6.05736,0.33459 2.02789,0.11874 3.86485,0.21985 4.08212,0.22428 0.21728,0.004 2.46904,0.0518 5.0039096,0.10435 2.53486,0.0525 5.21473,0.22021 5.95549,0.37259 0.92644,0.19053 2.57069,0.22576 5.26727,0.11351 2.15621,-0.0897 5.46128,-0.12619 7.34433,-0.0815 1.88306,0.045 4.90912,0.0546 6.7245,0.022 1.81538,-0.0326 3.59307,0.0447 3.95045,0.17165 h 0.003 c 0.76021,0.27003 7.44726,0.34314 7.74144,0.0847 0.11001,-0.0967 1.75916,-0.17866 3.66496,-0.18308 3.44776,-0.007 11.82594,-0.47824 12.51952,-0.70352 0.20002,-0.065 1.7407,-0.17153 3.42372,-0.23663 1.68302,-0.0651 4.48221,-0.2201 6.22041,-0.34466 10.42177,-0.74692 18.80317,-0.91566 29.760029,-0.59869 9.07081,0.26237 28.31863,0.31285 30.41071,0.0796 2.91805,-0.32529 9.1465,-0.43851 29.20399,-0.53049 10.62602,-0.0487 19.48853,-0.14609 19.69461,-0.2165 0.73447,-0.25078 30.8652,-0.071 32.75167,0.19545 1.31916,0.18631 5.42012,0.36555 11.19293,0.48929 2.75218,0.059 5.41867,0.1703 5.92567,0.24763 1.46904,0.22389 10.29747,0.38839 18.30374,0.34099 5.42832,-0.0322 7.71506,-0.13103 8.66627,-0.37396 0.87701,-0.22397 1.39499,-0.25423 1.61157,-0.0943 0.20164,0.14891 2.14972,0.19327 5.29194,0.12038 2.73499,-0.0634 8.52794,-0.11498 12.87343,-0.11764 4.34549,-7.9e-4 8.30146,-0.008 8.79075,-0.0142 0.60725,-0.008 1.00905,0.14009 1.2659,0.46641 0.50986,0.64771 1.29667,0.60157 1.81782,-0.10618 0.3342,-0.45384 0.45181,-1.34451 0.52827,-3.99951 0.0541,-1.87873 0.15833,-3.50263 0.23199,-3.60862 0.21643,-0.31165 0.27207,-7.83462 0.0602,-8.13771 -0.10645,-0.15222 -0.0779,-0.34041 0.0638,-0.41836 0.1529,-0.0841 0.16856,-0.35235 0.038,-0.66048 -0.24675,-0.58275 -0.50149,-4.67111 -0.70368,-11.29915 -0.0747,-2.44894 -0.17818,-4.73996 -0.23046,-5.09115 -0.2532,-1.70364 -0.41042,-7.0668 -0.21084,-7.18979 0.12507,-0.0781 0.12427,-1.06995 -0.003,-2.24876 -0.33835,-3.12857 -0.41215,-6.67596 -0.14198,-6.82452 0.1397,-0.0771 0.13991,-0.24189 0,-0.4028 -0.13007,-0.14965 -0.16055,-0.93816 -0.0674,-1.75259 0.0932,-0.81443 0.0736,-1.53387 -0.0437,-1.59834 -0.11729,-0.0645 -0.15203,-0.20529 -0.0771,-0.31307 0.10372,-0.15001 0.16563,-5.1623 0.0977,-7.97385 -0.005,-0.19336 0.003,-0.61518 0.0185,-0.93741 0.10387,-2.24051 -0.15301,-9.30654 -0.33489,-9.20649 -0.12345,0.0678 -0.0945,-0.0935 0.0648,-0.35837 0.15933,-0.26486 0.28961,-1.16691 0.28958,-2.00479 0,-0.8379 0.11549,-1.7941 0.2567,-2.12472 0.14129,-0.33063 0.15605,-0.60098 0.0329,-0.60098 -0.27628,0 -0.30464,-1.2016 -0.036,-1.52327 0.10763,-0.1289 0.21275,-2.44896 0.23354,-5.15571 0.0461,-5.97413 0.17968,-9.4894 0.37807,-9.95989 0.0815,-0.19333 0.22217,-1.14246 0.31223,-2.10915 0.0901,-0.96669 0.20191,-2.02125 0.24898,-2.3435 0.0471,-0.32222 0.10112,-0.82928 0.1198,-1.12689 0.0188,-0.29762 0.12287,-0.49244 0.23148,-0.43254 0.10864,0.0599 0.21609,-0.64537 0.23868,-1.56768 0.0668,-2.71697 0.20569,-4.10217 0.40072,-3.99494 0.10038,0.0552 0.0758,-0.23282 -0.0555,-0.64033 -0.1314,-0.40751 -0.17603,-0.83144 -0.0992,-0.94198 0.0768,-0.11054 0.0328,-0.20094 -0.0971,-0.20094 -0.32544,0 -0.36668,-1.588 -0.0458,-1.76449 0.14264,-0.0784 0.18426,-0.25139 0.0921,-0.38402 -0.0922,-0.13263 -0.20941,-2.04966 -0.26077,-4.260412 -0.0514,-2.21076 -0.147,-4.36086 -0.21243,-4.778092 -0.0653,-0.417224 -0.0241,-0.810426 0.0911,-0.873775 0.11528,-0.06333 0.13608,-0.51307 0.0463,-0.999194 -0.23505,-1.27311 -0.12239,-6.230396 0.37913,-16.702472 0.22804,-4.761192 0.13964,-8.043856 -0.22223,-8.248483 -0.1805,-0.102076 -0.2,-0.182335 -0.0442,-0.184459 0.3117,-0.0041 0.33062,-0.404569 0.32662,-6.916986 -0.003,-2.577854 0.006,-4.845191 0.0175,-5.038527 0.0282,-0.470696 0.21608,-3.720438 0.40637,-7.0305 0.34004,-5.915816 0.36097,-6.802036 0.16359,-6.910584 -0.1129,-0.0621 -0.15346,-0.684588 -0.09,-1.383215 0.0634,-0.698627 0.0109,-1.327832 -0.11726,-1.398317 -0.12822,-0.07049 -0.20008,-1.372587 -0.15947,-2.893217 0.0397,-1.48708 0.0124,-2.237417 -0.0813,-2.235022 z"
       id="path914-5-2"
       inkscape:export-filename="/Users/jan/Documents/repo/github/microcol/microcol-game/src/main/resources/images/colony-structures.png"
       inkscape:export-xdpi="38.919998"
       inkscape:export-ydpi="38.919998" />
  </g>
  <g
     inkscape:groupmode="layer"
     id="layer5"
     inkscape:label="fields"
     style="display:none"
     sodipodi:insensitive="true">
    <path
       inkscape:connector-curvature="0"
       style="display:inline;fill:#000000;stroke-width:0.26458332"
       d="m 146.11089,49.932315 c -0.15648,-5.5e-5 -0.25633,0.0081 -0.28422,0.02532 -0.25685,0.158753 -5.74368,0.53825 -6.62749,0.45837 -1.06209,-0.09599 -20.81477,-0.192421 -23.28333,-0.113689 -2.84964,0.0909 -31.221871,0.13365 -35.983341,0.05426 -1.96453,-0.03272 -3.81,-0.04527 -4.10104,-0.02791 -0.7257,0.04325 -11.41404,0.265343 -14.02291,0.291455 -1.164174,0.01165 -3.206974,-0.03981 -4.539274,-0.114721 -7.32002,-0.411577 -15.49056,-0.492123 -17.95238,-0.176734 -0.59679,0.07645 -0.83553,2.079563 -0.68265,5.722648 0.17423,4.152351 0.54882,4.445105 0.60769,0.474907 0.0385,-2.594237 0.36301,-3.935452 1.10175,-4.54856 0.425,-0.352711 4.16412,-0.698686 6.49521,-0.600997 0.93316,0.03911 1.51124,-0.05824 1.65364,-0.278536 0.16061,-0.248431 0.27202,-0.257967 0.41757,-0.03617 0.23058,0.35134 4.792,0.591321 5.28442,0.27802 0.1779,-0.113208 0.77321,-0.193721 1.32291,-0.178801 0.54967,0.01492 1.49707,-0.05413 2.10532,-0.153479 0.6097,-0.09959 1.46351,-0.05595 1.90272,0.09715 0.58748,0.204812 0.83027,0.19614 0.92448,-0.03359 0.0897,-0.218684 0.20947,-0.193336 0.40257,0.08527 0.28273,0.407911 0.53316,0.413368 14.351584,0.306958 1.83785,-0.01415 3.91152,-0.153462 4.60798,-0.309542 0.96094,-0.215347 1.31371,-0.20714 1.46347,0.03514 0.15173,0.24552 0.67397,0.252648 2.26086,0.02997 1.13493,-0.159245 2.17358,-0.221482 2.30786,-0.138492 0.401,0.247827 14.375731,0.355011 15.023881,0.115238 0.37172,-0.137501 1.04741,-0.086 1.78647,0.136426 0.65376,0.19675 1.43447,0.271388 1.73477,0.165881 0.30033,-0.105511 3.1061,-0.212165 6.23477,-0.237195 3.1287,-0.02503 6.16479,-0.111794 6.74688,-0.192753 0.58208,-0.08096 1.5087,-0.215439 2.0593,-0.29869 0.5506,-0.08325 1.23524,-0.02602 1.52136,0.127124 0.35567,0.190422 0.52038,0.191861 0.52038,0.0047 0,-0.150641 -0.13928,-0.273885 -0.30904,-0.273885 -0.1697,0 -0.23714,-0.07132 -0.14986,-0.158646 0.0874,-0.08733 0.31499,-0.06218 0.50591,0.05581 0.19093,0.117993 0.82389,0.2409 1.40664,0.273369 0.58277,0.03247 1.71473,0.156152 2.5151,0.274918 0.80034,0.118772 2.22909,0.124798 3.175,0.01344 2.54201,-0.299279 7.50242,-0.205577 10.38386,0.195854 1.18507,0.165097 1.78088,0.112242 2.70267,-0.239779 1.25777,-0.480332 2.69115,-0.475656 2.60294,0.0088 -0.0569,0.312253 0.99576,0.225468 1.90532,-0.157096 0.81872,-0.344358 1.73413,-0.504586 1.59472,-0.279053 -0.069,0.111636 0.55629,0.278588 1.38906,0.37052 0.83275,0.09194 2.22848,0.383408 3.10163,0.648022 l 1.5875,0.481108 0.032,4.415751 c 0.0185,2.568563 -0.0708,4.415753 -0.21394,4.415753 -0.13538,0 -0.15883,0.14116 -0.0522,0.313676 0.10652,0.172519 0.16447,0.946424 0.12867,1.719791 -0.0358,0.773369 0.0485,1.406116 0.18759,1.406116 0.37748,0 0.47963,-0.868978 0.54726,-4.645195 0.0337,-1.88365 0.12343,-3.781785 0.19894,-4.218348 0.39505,-2.282544 0.51634,-4.299383 0.27337,-4.542358 -0.26779,-0.267784 -0.8926,-0.391536 -2.42464,-0.479558 -0.72761,-0.04181 -2.49465,-0.209325 -3.9269,-0.37207 -1.07411,-0.122062 -2.05344,-0.195684 -2.52281,-0.195848 z M 38.895745,59.887781 c -0.13111,0 -0.23824,0.614983 -0.23824,1.366842 0,0.751856 0.0549,1.3125 0.12195,1.245402 0.24297,-0.242982 0.34843,-2.612244 0.11629,-2.612244 z m 0.008,2.879928 c -0.0343,0.0067 -0.0718,0.03203 -0.1137,0.0739 -0.20502,0.205018 -0.48371,6.759106 -0.30694,7.219714 0.23712,0.618008 0.70001,0.491447 0.678,-0.185518 -0.0106,-0.327422 -0.003,-2.008525 0.0156,-3.73569 0.0283,-2.550409 -0.0328,-3.4194 -0.27287,-3.372403 z m 115.477715,2.231905 c -0.0632,0.01544 -0.11248,0.469204 -0.12817,1.392679 -0.0148,0.860999 -0.0317,1.862936 -0.0377,2.226738 -0.006,0.363802 0.018,1.375832 0.0532,2.248958 0.0487,1.207614 0.11311,1.429213 0.26924,0.926042 0.11287,-0.363802 0.14306,-0.946919 0.0672,-1.296045 -0.10319,-0.474978 -0.0508,-0.581155 0.20722,-0.42168 0.26323,0.162694 0.30004,0.06227 0.15555,-0.423746 -0.10409,-0.350176 -0.24538,-1.523385 -0.3142,-2.607077 -0.0864,-1.361358 -0.19105,-2.065721 -0.27233,-2.045869 z m -31.1304,0.444417 c -0.0906,0 -0.48596,0.297656 -0.87849,0.661458 -0.39251,0.363802 -0.59772,0.661459 -0.4563,0.661459 0.14136,0 0.5367,-0.297657 0.87849,-0.661459 0.34176,-0.363802 0.54692,-0.661458 0.4563,-0.661458 z m -84.250695,6.373771 c -0.0956,-0.02871 -0.10943,0.441606 -0.18499,2.092896 -0.0366,0.800364 0.0103,2.139817 0.10387,2.97656 0.0937,0.836747 0.10261,1.521389 0.0201,1.521354 -0.081,-3.2e-5 -0.11994,0.684578 -0.0837,1.521354 0.0362,0.83678 0.0624,1.640417 0.0584,1.785938 -0.12158,4.477094 -0.0741,12.832292 0.0729,12.832292 0.10969,0 0.19946,0.297656 0.19946,0.66146 v 0 c 0,0.3638 0.11907,0.661459 0.26459,0.661459 0.14552,0 0.27101,-0.446487 0.27802,-0.99219 0.0392,-2.878765 -0.0283,-11.703275 -0.10956,-14.353646 -0.0513,-1.67349 0.006,-3.310599 0.12713,-3.638021 0.12123,-0.328483 0.11671,-0.59531 -0.009,-0.59531 -0.12594,0 -0.24175,-0.843777 -0.25733,-1.874821 -0.0156,-1.031042 -0.14439,-2.072839 -0.28578,-2.315104 -0.0906,-0.155185 -0.15086,-0.271172 -0.19431,-0.284221 z m 115.544395,4.738727 c -0.14552,0 -0.26458,0.178594 -0.26458,0.396875 0,0.218281 0.11906,0.396875 0.26458,0.396875 0.14552,0 0.26458,-0.178594 0.26458,-0.396875 0,-0.218281 -0.11906,-0.396875 -0.26458,-0.396875 z m 0.15708,2.910417 c -0.24172,0 -0.32409,0.185248 -0.2341,0.529166 0.0761,0.291044 0.24405,0.529167 0.37261,0.529167 0.12854,0 0.23358,-0.238123 0.23358,-0.529167 0,-0.291039 -0.16743,-0.529166 -0.37209,-0.529166 z m -0.25733,1.954921 c -0.0964,0.0032 -0.16433,0.108384 -0.16433,0.278535 0,0.464748 0.15869,0.532868 0.38549,0.16588 0.0837,-0.135466 0.0311,-0.320976 -0.11678,-0.412377 -0.037,-0.02286 -0.0722,-0.03312 -0.10438,-0.03204 z m 0.11679,1.214395 c -0.0555,-0.0053 -0.116,0.01728 -0.17518,0.07648 -0.0874,0.08733 -0.066,0.309612 0.048,0.494027 0.16669,0.269753 0.22926,0.269931 0.31885,0.0011 0.0959,-0.287763 -0.0251,-0.555503 -0.19171,-0.571542 z m 0.5271,9.71827 c -0.10914,0.03092 -0.18502,1.118426 -0.17209,2.534211 0.0159,1.732923 0.12822,2.74596 0.30438,2.746087 0.33245,2.43e-4 0.22942,-4.932495 -0.11009,-5.272029 -0.008,-0.0075 -0.0148,-0.01029 -0.0222,-0.0083 z M 39.478395,96.197709 c -0.31158,0.07824 -0.5034,2.938282 -0.22895,3.675229 0.11994,0.321852 0.0944,0.460972 -0.0661,0.361732 -0.50041,-0.309268 -0.25654,0.18558 0.33435,0.67851 0.32737,0.27315 0.44648,0.50056 0.26458,0.5054 -0.18505,0.005 -0.33073,0.34031 -0.33073,0.76171 0,0.41421 -0.16594,1.09881 -0.36896,1.52135 -0.28315,0.5895 -0.31535,1.19322 -0.13798,2.59313 0.12714,1.00343 0.28173,1.87495 0.34364,1.93683 0.0619,0.0619 -0.0486,0.42307 -0.24545,0.80254 -0.35883,0.69164 -0.27964,1.25413 0.14004,0.99477 0.12309,-0.0761 0.13954,0.17648 0.0367,0.5612 -0.10289,0.38472 -0.0516,1.36757 0.11369,2.18437 0.20524,1.01392 0.21715,1.72828 0.0377,2.25154 -0.17487,0.50803 -0.17466,0.90942 0,1.19062 0.15258,0.24569 0.24058,2.20589 0.20928,4.6576 -0.0365,2.85907 0.0414,4.29635 0.23926,4.42764 v 0 c 0.39511,0.2621 0.48612,0.25061 0.30697,-0.0393 -0.0822,-0.13309 -0.0387,-0.28192 0.0966,-0.33073 0.42825,-0.15447 0.2772,-14.14972 -0.21654,-20.06492 -0.1153,-1.38245 -0.12252,-2.69214 -0.0156,-2.91042 0.17794,-0.36292 0.16328,-0.94383 -0.11625,-4.487065 -0.0512,-0.648803 -0.21609,-1.220615 -0.3664,-1.270722 -0.0103,-0.0034 -0.0204,-0.0036 -0.0305,-0.0011 z m 116.220995,1.881539 c -0.0401,-0.0061 -0.0674,0.09055 -0.0754,0.283186 -0.0114,0.278913 0.0511,0.435184 0.13901,0.347266 0.0879,-0.08792 0.0976,-0.31595 0.0212,-0.506945 -0.0317,-0.07915 -0.0607,-0.119864 -0.0848,-0.123507 z m -0.10591,1.196827 c -0.19841,-0.02751 -0.25758,0.373795 -0.0151,0.666107 0.17335,0.208838 0.2201,0.438748 0.10387,0.510568 -0.18037,0.11145 -0.23122,1.03976 -0.11213,2.04845 0.0183,0.15411 0.1497,0.20811 0.29247,0.11989 0.26096,-0.16127 0.16436,-2.97499 -0.1116,-3.250966 -0.0586,-0.05864 -0.11181,-0.0877 -0.15761,-0.09405 z m -0.14833,4.847245 c -0.0757,-0.0179 -0.10644,0.0635 -0.10644,0.2496 0,0.22314 0.0866,0.49282 0.19275,0.59893 0.1061,0.10611 0.23876,0.0557 0.29456,-0.11162 0.0558,-0.16735 -0.0308,-0.43652 -0.19278,-0.59841 -0.081,-0.081 -0.14269,-0.12775 -0.18809,-0.1385 z m 0.2377,1.48932 c -0.0251,0.0165 -0.0359,0.23077 -0.0485,0.62166 -0.0172,0.53381 0.0431,1.16398 0.13383,1.40044 0.29144,0.75948 0.34319,0.29478 0.11731,-1.05627 -0.11379,-0.6807 -0.17018,-0.98699 -0.20259,-0.96583 z m 0.20672,4.14703 c -0.0474,0.005 -0.0994,0.0178 -0.15399,0.0388 -0.21828,0.0838 -0.39687,0.19913 -0.39687,0.25632 0,0.0572 0.17859,0.10387 0.39687,0.10387 0.21829,0 0.39688,-0.11537 0.39688,-0.25632 0,-0.10572 -0.1006,-0.1582 -0.24289,-0.14263 z m 0.19534,1.80558 c -0.0468,0.017 -0.17076,0.20362 -0.40772,0.57309 -0.27845,0.43409 -0.45479,1.05917 -0.39171,1.38906 0.16078,0.84114 0.582,0.74953 0.58599,-0.12764 0.003,-0.40018 0.0728,-1.02526 0.15762,-1.38906 0.0722,-0.30964 0.10263,-0.46245 0.0558,-0.44545 z m -0.52244,3.42408 c -0.16283,0.0233 -0.3461,0.16605 -0.42789,0.41134 -0.0576,0.17281 0.0838,0.3142 0.3142,0.3142 0.2304,0 0.4191,-0.18869 0.4191,-0.4191 0,-0.23362 -0.14256,-0.32971 -0.30541,-0.30644 z m -0.0693,1.72134 c -0.0209,0.0148 -0.046,0.10257 -0.0765,0.26097 -0.0631,0.32742 -0.21865,0.59531 -0.34573,0.59531 -0.12708,0 -0.22243,0.62508 -0.21185,1.38907 0.0106,0.76397 0.078,1.22672 0.14933,1.02835 0.10959,-0.3045 0.16926,-0.3045 0.385,0 0.25408,0.35871 0.21008,0.05 -0.22789,-1.5968 -0.11734,-0.4413 -0.0764,-0.57778 0.13436,-0.44752 0.20672,0.12778 0.29178,-0.0913 0.26715,-0.68833 -0.0159,-0.38824 -0.039,-0.56573 -0.0739,-0.54105 z m -0.66765,4.29586 c -0.14856,0 -0.17447,0.84805 -0.0382,1.25677 0.0626,0.18794 0.55139,0.0313 0.55139,-0.17673 0,-0.42099 -0.31308,-1.08004 -0.51316,-1.08004 z m -0.13279,2.38125 c -0.0642,0 -0.19019,0.11906 -0.28009,0.26459 -0.0899,0.14552 -0.0373,0.26458 0.11678,0.26458 0.15412,0 0.28009,-0.11906 0.28009,-0.26458 0,-0.14553 -0.0526,-0.26459 -0.11678,-0.26459 z m -0.11629,1.32447 c -0.0243,0.001 0.004,0.0667 0.0775,0.19689 0.10272,0.1819 0.0959,0.47746 -0.0151,0.65681 -0.20852,0.33738 -0.3643,1.1001 -0.3643,1.79058 -1.9e-4,0.21828 0.0103,2.09017 0.0228,4.15996 0.0124,2.06977 -0.0478,3.87745 -0.13382,4.01681 -0.0861,0.13935 -0.0299,0.33159 0.12504,0.42736 0.19629,0.12126 0.18862,0.28687 -0.0254,0.54467 -0.23956,0.28866 -0.21368,0.40609 0.11782,0.5333 0.23386,0.0897 0.3661,0.25926 0.29353,0.37672 -0.0726,0.11746 -0.19651,2.75394 -0.27493,5.85907 -0.0784,3.10514 -0.14859,5.82425 -0.15658,6.04253 -0.0487,1.3895 0.3339,12.02672 0.43616,12.12898 0.0691,0.0691 -0.003,0.2803 -0.15967,0.46922 -0.15682,0.18891 -0.19532,0.48835 -0.0858,0.66559 0.23106,0.37397 0.26911,2.01239 0.0517,2.22984 -0.0811,0.0812 -0.0873,0.37885 -0.0135,0.66146 0.16393,0.62689 0.43966,0.64726 1.09966,0.0822 0.4082,-0.34953 0.4591,-0.58572 0.26977,-1.24592 -0.12854,-0.44813 -0.24511,-1.41476 -0.25943,-2.14818 -0.066,-3.40525 -0.16719,-6.38475 -0.22479,-6.62544 -0.0352,-0.14552 -0.0462,-1.69333 -0.0259,-3.43958 0.0206,-1.74625 0.0259,-3.29406 0.0124,-3.43959 -0.0463,-0.50802 -0.0523,-3.44283 -0.008,-3.83646 0.0246,-0.21827 0.0161,-1.52796 -0.018,-2.91041 -0.0343,-1.38245 -0.0284,-4.49466 0.013,-6.91586 0.0413,-2.4212 -0.004,-4.52959 -0.10025,-4.6855 -0.0963,-0.15591 -0.15161,-1.36359 -0.12248,-2.68408 0.0375,-1.69988 -0.0481,-2.49499 -0.29405,-2.72283 -0.13645,-0.1264 -0.21315,-0.18913 -0.23771,-0.1881 z M 40.284225,126.9457 c -0.0382,0.003 -0.0818,0.0161 -0.13126,0.0351 -0.37436,0.14366 -0.43717,0.64492 -0.43717,3.49075 0,1.82769 0.0819,3.24138 0.1819,3.14141 0.22479,-0.22477 0.27982,-0.66658 0.5095,-4.08089 0.145,-2.1555 0.14463,-2.60862 -0.12297,-2.58641 z m -0.42789,7.09053 c -0.14269,0.0212 -0.27284,0.91723 -0.27284,2.67012 0,1.93067 0.0847,2.55539 0.34674,2.55592 0.26776,5.3e-4 0.33007,-0.60206 0.27286,-2.6479 -0.0488,-1.74565 -0.20409,-2.59931 -0.34676,-2.57814 z m 0.007,5.85029 c -0.0437,0.002 -0.10284,0.0442 -0.17984,0.11679 -0.27654,0.26074 -0.38025,1.44005 -0.42994,4.89479 -0.0416,2.88763 0.0243,4.4106 0.18087,4.16667 0.23704,-0.36934 0.35168,-1.79691 0.2558,-3.1874 -0.0784,-1.13766 -0.007,-2.98021 0.1788,-4.63021 0.11345,-1.00671 0.12555,-1.36621 -0.006,-1.36064 z m -0.6382,9.69501 c -0.32824,0 -0.59923,3.77823 -0.293,4.08451 0.30581,0.30578 0.34166,0.76288 0.0455,0.57981 -0.1165,-0.0711 -0.1664,0.24937 -0.11367,0.7121 0.0527,0.46274 -0.019,1.34801 -0.1597,1.96732 -0.14052,0.61932 -0.15473,1.18838 -0.0315,1.26452 0.12329,0.0761 0.15803,1.38515 0.0775,2.90887 -0.10192,1.92928 -0.0577,2.77037 0.1452,2.77038 0.43913,0 0.3523,0.37795 -0.24495,1.0666 -0.29501,0.34014 -0.60936,0.92373 -0.69815,1.29708 -0.0889,0.37334 -0.28155,0.8313 -0.42839,1.0175 -0.18008,0.22842 -0.1769,0.53681 0.0103,0.94775 0.26911,0.59062 0.39256,0.61073 4.05918,0.66094 2.07984,0.0285 3.84752,0.12004 3.92843,0.20361 0.0809,0.0836 1.33792,0.066 2.79313,-0.0393 1.4552,-0.10531 3.41974,-0.23065 4.36562,-0.27853 2.85988,-0.14477 5.92918,-0.4132 6.35,-0.55501 0.46194,-0.15566 3.432204,-0.32135 6.538624,-0.36483 1.19515,-0.0167 2.82872,-0.18265 3.63027,-0.36897 0.80156,-0.18634 1.52387,-0.27236 1.60507,-0.19121 0.34594,0.34593 1.41457,0.39586 7.98089,0.37414 4.11316,-0.0136 7.12581,-0.13147 7.42281,-0.29042 0.27493,-0.14713 0.63836,-0.18147 0.80822,-0.0765 0.16989,0.10498 3.55706,0.16753 7.52668,0.13901 5.11143,-0.0367 7.912501,0.0564 9.598901,0.31884 1.30969,0.20384 3.69094,0.37559 5.29167,0.38189 1.60073,0.006 3.77362,0.16315 4.82864,0.3483 1.05503,0.18513 1.91818,0.26988 1.91823,0.1881 5e-5,-0.0818 5.12569,-0.16099 11.3905,-0.1757 7.16365,-0.0168 11.48808,-0.12438 11.65357,-0.2899 0.29618,-0.29618 -7.41791,-0.63081 -17.35553,-0.75293 -3.34695,-0.0411 -6.97642,-0.16269 -8.06516,-0.27027 -1.08871,-0.10757 -3.52949,-0.21675 -5.42396,-0.24236 -1.89447,-0.0256 -3.92046,-0.1469 -4.50254,-0.26975 -1.85479,-0.39145 -33.638041,-0.16827 -41.275001,0.28991 -9.485164,0.56905 -11.886674,0.66209 -16.007304,0.61908 -1.96453,-0.0206 -4.40531,-0.0281 -5.42395,-0.017 -1.01868,0.011 -2.13987,-0.0438 -2.49135,-0.12144 -0.63486,-0.14025 -0.63328,-0.1445 0.20828,-0.65629 0.79629,-0.48426 0.83849,-0.58621 0.70435,-1.70377 -0.0784,-0.65379 -0.0456,-1.18856 0.0734,-1.18856 0.11906,0 0.17785,-1.63711 0.13126,-3.63802 -0.10165,-4.35643 -0.0872,-5.96931 0.0548,-6.11126 0.0582,-0.0582 -0.15677,-0.32078 -0.478,-0.58342 -0.46852,-0.38305 -0.51848,-0.54417 -0.2532,-0.81391 0.36843,-0.3746 0.46034,-3.14089 0.10437,-3.14089 z m 115.613105,17.41548 c -0.12819,-0.004 -0.2703,-0.002 -0.42529,0.007 -5.19279,0.32079 -8.56572,0.59106 -9.34775,0.74931 l -0.971,0.19689 0.92604,0.14728 c 1.52295,0.24225 9.30146,-0.0597 10.12032,-0.39274 0.81166,-0.33016 0.59512,-0.67756 -0.30232,-0.70796 z m -14.33142,0.57619 c -0.42799,0 -0.77824,0.11906 -0.77824,0.26459 0,0.14552 0.42362,0.26458 0.94154,0.26458 0.56039,0 0.87556,-0.10712 0.77825,-0.26458 -0.0899,-0.14553 -0.51358,-0.26459 -0.94155,-0.26459 z"
       id="path914-2-7"
       inkscape:export-filename="/Users/jan/Documents/repo/github/microcol/microcol-game/src/main/resources/images/colony-fields.png"
       inkscape:export-xdpi="31.02"
       inkscape:export-ydpi="31.02" />
  </g>
  <g
     inkscape:groupmode="layer"
     id="layer6"
     inkscape:label="building-queue"
     style="display:none"
     sodipodi:insensitive="true">
    <path
       style="display:inline;fill:#c88f5f;fill-opacity:1;fill-rule:evenodd;stroke:none;stroke-width:0.31177074px;stroke-linecap:butt;stroke-linejoin:miter;stroke-opacity:1"
       d="m 50.424399,87.247144 c 80.425231,-3.76822 98.666001,-1.61498 98.666001,-1.61498 l 0.27637,85.592156 -99.218752,-0.53835 z"
       id="path3972-9-3"
       inkscape:connector-curvature="0"
       sodipodi:nodetypes="ccccc"
       inkscape:export-filename="/Users/jan/Documents/repo/github/microcol/microcol-game/src/main/resources/images/colony-building-queue.png"
       inkscape:export-xdpi="34.599998"
       inkscape:export-ydpi="34.599998" />
    <path
       inkscape:connector-curvature="0"
       style="display:inline;fill:#000000;stroke-width:0.24758285"
       d="m 49.08454,83.373964 c -0.586552,-0.0608 -1.544508,1.18127 -1.200467,1.65468 0.143129,0.19693 0.182278,0.35812 0.0873,0.35812 -0.09492,0 -0.04904,0.16976 0.1018,0.37724 0.150773,0.20749 0.250716,0.53491 0.22218,0.7276 -0.06585,0.44501 0.258431,1.84896 0.513114,2.22157 0.106756,0.15604 0.147988,0.69182 0.09185,1.19063 -0.104435,0.92854 0.09745,2.99812 0.27287,2.79776 0.05359,-0.0612 0.155011,-1.76179 0.225324,-3.7791 0.07031,-2.01731 0.162244,-3.70991 0.20409,-3.76101 0.341579,-0.41677 16.71635,-0.5616 26.748928,-0.23668 3.249237,0.10523 8.090475,0.26342 10.758396,0.35192 2.667921,0.0884 5.09052,0.26512 5.383266,0.39222 0.552543,0.23993 15.589279,0.62865 20.190549,0.52194 7.24956,-0.16807 14.5791,-0.14538 17.06882,0.0527 1.52905,0.12167 2.98406,0.22176 3.23302,0.22376 0.24901,0.002 0.57097,0.11484 0.71585,0.25218 0.31434,0.29792 2.37967,0.17797 4.6231,-0.26872 0.89194,-0.17759 1.72597,-0.31813 1.85339,-0.31213 0.50505,0.0239 5.67258,-0.009 7.49141,-0.0486 1.06207,-0.0229 2.01602,0.0772 2.11992,0.22273 0.23662,0.33148 0.69083,7.34748 0.62534,9.65729 -0.0268,0.94589 -0.1315,1.86862 -0.23302,2.05052 -0.10175,0.1819 -0.10076,0.33078 0.003,0.33073 0.10309,-5e-5 0.15602,2.589556 0.11763,5.754686 -0.0644,5.32265 -0.0413,5.72228 0.30862,5.32629 0.30271,-0.34248 0.3957,-1.1365 0.4647,-3.96875 0.0475,-1.94734 0.19224,-3.94433 0.32172,-4.43797 0.12925,-0.49368 0.18954,-0.98224 0.1335,-1.085726 -0.056,-0.10349 -0.16647,-2.55704 -0.24572,-5.45238 -0.0792,-2.89535 -0.16567,-5.56193 -0.19185,-5.92573 -0.0263,-0.3638 0.10414,-1.29355 0.28913,-2.06603 0.29752,-1.24234 0.29621,-1.4507 -0.0137,-1.80454 -0.31258,-0.35686 -0.53469,-0.35641 -2.06335,0.002 -1.91059,0.4475 -3.48188,0.60007 -8.89549,0.86558 -4.3841,0.21501 -7.12567,0.14555 -7.30455,-0.185 -0.0714,-0.13118 -0.43727,-0.23286 -0.81389,-0.22686 -0.37665,0.006 -1.36273,-0.0863 -2.19094,-0.20516 -1.70589,-0.24484 -3.19258,-0.25725 -13.4376,-0.11368 -10.42877,0.14614 -23.862503,0.0248 -23.862503,-0.2155 0,-0.31862 -5.551875,-0.62811 -12.046619,-0.67179 -3.249254,-0.0219 -7.315148,-0.12856 -9.035332,-0.23668 -3.76377,-0.23659 -4.697261,-0.2474 -14.48012,-0.17415 -4.204899,0.0315 -7.823026,-0.0251 -8.041196,-0.12557 -0.03529,-0.0162 -0.07311,-0.0264 -0.112202,-0.0305 z m 0.0232,9.79114 c -0.120424,-0.0739 -0.158076,6.15145 -0.118112,19.473736 0.007,2.4011 -0.03879,4.84188 -0.102264,5.42396 -0.06339,0.58208 -0.153137,1.71318 -0.199099,2.51354 -0.04597,0.80037 -0.105617,1.5147 -0.133024,1.5875 -0.02732,0.0728 -0.03144,0.58482 -0.009,1.13792 0.02268,0.55312 -0.08213,1.17535 -0.232582,1.38234 -0.196831,0.27091 -0.2357,1.461 -0.138909,4.24832 0.08117,2.33763 0.03809,4.35845 -0.108586,5.09995 -0.323673,1.63643 -0.297676,5.36929 0.03888,5.60689 0.192155,0.13535 0.193197,0.3295 0.0061,0.72967 -0.29258,0.62448 -0.338454,1.1995 -0.08143,1.01803 0.188889,-0.13336 0.205264,3.29033 0.0176,3.68608 -0.06261,0.13307 -0.08859,1.25388 -0.05656,2.4908 0.09571,3.69577 0.08599,9.2464 -0.01664,9.5958 -0.05271,0.17936 -0.149241,2.40835 -0.214484,4.95319 -0.07268,2.83843 -0.211051,4.66247 -0.358348,4.71857 -0.277134,0.10549 -0.330205,0.84078 -0.06068,0.84078 0.0986,0 0.144617,1.07156 0.101362,2.38125 v 0 c -0.06558,1.983 -0.01996,2.38125 0.270155,2.38125 0.440411,0 0.708045,-0.47506 0.74525,-1.32292 0.34531,-7.86652 0.440928,-12.63806 0.300434,-14.94896 -0.03537,-0.58208 0.0088,-4.24914 0.09821,-8.14885 0.106291,-4.63512 0.08222,-7.26369 -0.07101,-7.59076 -0.131361,-0.2804 -0.145047,-0.56328 -0.03073,-0.64388 0.112175,-0.0791 0.134574,-0.53153 0.04973,-1.00511 -0.08467,-0.47361 -0.08029,-1.57641 0.01,-2.4505 0.09086,-0.88031 0.06987,-1.71858 -0.04702,-1.87947 -0.116107,-0.15975 -0.151509,-0.35863 -0.07872,-0.44183 0.162839,-0.18599 0.355616,-3.55748 0.306318,-5.35626 -0.01996,-0.72761 -0.03905,-1.68011 -0.04343,-2.11667 -0.01086,-1.18647 0.301704,-5.48614 0.41402,-5.69371 0.174503,-0.3224 0.221322,-6.46791 0.05157,-6.77788 -0.09056,-0.16541 -0.02014,-0.43767 0.156562,-0.60513 0.236198,-0.22393 0.293902,-0.77421 0.218099,-2.08049 -0.05665,-0.97684 -0.145651,-1.92083 -0.197733,-2.09807 -0.05219,-0.17724 -0.01532,-0.37872 0.08231,-0.44752 0.09756,-0.0688 0.115888,-0.76317 0.04072,-1.54305 -0.07522,-0.77987 -0.06112,-1.82912 0.03126,-2.33113 0.09237,-0.50201 0.117946,-2.81761 0.05656,-5.145936 -0.0952,-3.61003 -0.22535,-4.86944 -0.683256,-6.61458 -0.0044,-0.0155 -0.0079,-0.0245 -0.01182,-0.0269 z m 101.34951,16.909036 c -0.0449,0.005 -0.13331,0.17096 -0.22759,0.4408 -0.16044,0.45917 -0.14438,0.83373 0.0539,1.25677 0.15531,0.33145 0.31189,0.60255 0.34797,0.60255 0.0543,0 -0.006,-0.9357 -0.14526,-2.24896 -0.004,-0.0364 -0.0139,-0.0528 -0.029,-0.0512 z m -0.1457,3.39566 c -0.2428,0.009 -0.29673,0.3187 -0.32353,1.46503 -0.0498,2.12982 0.0271,2.82601 0.3362,3.04426 0.14603,0.10309 0.29145,0.15805 0.32307,0.12195 0.0316,-0.0361 0.0856,-1.06997 0.12036,-2.29753 0.055,-1.945 0.0114,-2.24349 -0.34026,-2.32079 -0.0429,-0.009 -0.0812,-0.0142 -0.11584,-0.0129 z m -0.0557,4.98988 c -0.25275,0 -0.31701,1.55553 -0.0919,2.2257 0.22109,0.65789 0.44215,0.2907 0.4086,-0.67903 -0.0494,-1.42883 -0.0734,-1.54667 -0.31675,-1.54667 z m -0.13122,3.75222 c -0.024,-0.0232 -0.032,0.11463 -0.0231,0.41083 0.0123,0.4024 0.10928,0.87027 0.21585,1.03921 0.10532,0.16895 0.10451,0.36924 -0.003,0.44494 -0.10731,0.0757 -0.18988,2.11011 -0.18461,4.52117 0.005,2.41107 -0.0511,4.38371 -0.12533,4.38371 -0.22541,0 -0.16482,1.69717 0.0729,2.04174 0.12208,0.17698 0.23797,1.08959 0.25793,2.0283 0.0197,0.93871 0.10104,1.7809 0.18011,1.8712 0.0791,0.0903 0.0439,0.69966 -0.0783,1.35392 -0.14732,0.78853 -0.13629,2.05584 0.033,3.75998 0.14053,1.41397 0.2543,6.26184 0.2543,10.77299 0,4.51113 0.003,9.29307 0.008,10.62622 0.005,1.48413 -0.0892,2.49313 -0.24478,2.60294 -0.15678,0.11061 -0.17392,0.29734 -0.0444,0.48679 0.11547,0.16894 0.14668,0.90227 0.0693,1.62988 l -0.14072,1.32292 -5.44435,0.11575 c -7.31344,0.15542 -8.9226,0.14967 -12.04709,-0.0439 -3.90655,-0.24212 -7.35491,-0.21821 -8.80364,0.0615 -1.78994,0.34554 -10.5185,0.52623 -12.01225,0.24856 -2.37021,-0.44053 -15.248288,-0.2268 -19.611351,0.32557 -1.274213,0.1613 -3.101292,0.26969 -4.060194,0.24029 -0.958927,-0.0294 -2.038577,0.0744 -2.399105,0.231 -0.91083,0.39537 -20.425602,0.68649 -27.365626,0.40825 -7.638086,-0.30623 -8.92946,-0.32321 -9.863389,-0.12816 -0.721319,0.15062 -1.135348,0.11043 -1.449774,-0.14108 -0.333104,-0.26649 -0.574811,-0.28258 -0.992745,-0.0651 -0.590545,0.30729 -0.696836,0.59831 -0.316747,0.86662 0.129505,0.0914 0.179038,0.27071 0.109952,0.39842 -0.06917,0.12775 0.424098,0.26854 1.096374,0.31265 0.672302,0.044 1.278897,0.0582 1.347975,0.032 0.270812,-0.1029 12.747676,-0.11702 19.21904,-0.0217 3.758927,0.0554 7.772686,0.009 8.919478,-0.10439 1.146792,-0.11298 4.373237,-0.26495 7.169708,-0.33745 2.796497,-0.0725 6.080488,-0.2498 7.297759,-0.39429 1.217288,-0.14449 4.923714,-0.34053 8.236661,-0.43563 6.143414,-0.17633 6.980264,-0.17471 10.796414,0.0253 4.26059,0.22334 13.05195,0.079 13.52943,-0.22221 0.27658,-0.1744 1.53732,-0.27316 3.12761,-0.24495 1.46534,0.0259 6.6259,0.10585 11.4679,0.17725 4.842,0.0714 9.63767,0.1947 10.65704,0.2744 2.65219,0.20736 2.71891,0.2036 2.92988,-0.17621 0.23973,-0.43158 0.25727,-1.53445 0.0244,-1.53428 -0.24322,1.8e-4 -0.0551,-4.8624 0.19502,-5.04103 0.11883,-0.0839 0.1195,-0.48913 0.003,-0.95395 -0.11167,-0.44454 -0.1526,-1.11 -0.0909,-1.47846 0.0616,-0.36846 0.009,-0.89124 -0.11584,-1.1622 -0.13108,-0.2833 -0.15615,-1.02712 -0.0588,-1.74977 0.0959,-0.71198 0.0788,-1.25677 -0.0394,-1.25677 -0.11471,0 -0.14908,-0.10969 -0.0764,-0.24391 0.29559,-0.54628 -0.12425,-15.6327 -0.66336,-23.83317 -0.32752,-4.98174 -0.35921,-6.32489 -0.15158,-6.47144 0.12462,-0.0879 0.16745,-0.33643 0.095,-0.55191 -0.0724,-0.21547 -0.0218,-0.54267 0.11266,-0.7276 0.15453,-0.21271 0.16535,-0.47905 0.0294,-0.7245 -0.11819,-0.2134 -0.21595,-0.656 -0.21857,-0.98341 -0.003,-0.32742 -0.0986,-0.59531 -0.21492,-0.59531 -0.11637,0 -0.0917,-0.36252 0.0547,-0.80564 0.21374,-0.64659 0.20311,-0.8501 -0.0539,-1.03145 -0.18111,-0.1278 -0.25642,-0.41622 -0.17332,-0.66353 0.0808,-0.24057 0.0512,-0.36982 -0.0656,-0.28732 -0.11683,0.0825 -0.25958,-0.0916 -0.31765,-0.38706 -0.0257,-0.13046 -0.0458,-0.20259 -0.0601,-0.21652 z"
       id="path914-4-7"
       inkscape:export-filename="/Users/jan/Documents/repo/github/microcol/microcol-game/src/main/resources/images/colony-building-queue.png"
       inkscape:export-xdpi="34.599998"
       inkscape:export-ydpi="34.599998" />
  </g>
</svg>
