<?xml version="1.0" encoding="UTF-8" standalone="no"?>
<svg
   xmlns:dc="http://purl.org/dc/elements/1.1/"
   xmlns:cc="http://creativecommons.org/ns#"
   xmlns:rdf="http://www.w3.org/1999/02/22-rdf-syntax-ns#"
   xmlns:svg="http://www.w3.org/2000/svg"
   xmlns="http://www.w3.org/2000/svg"
   xmlns:sodipodi="http://sodipodi.sourceforge.net/DTD/sodipodi-0.dtd"
   xmlns:inkscape="http://www.inkscape.org/namespaces/inkscape"
   width="793.70081"
   height="1122.5197"
   viewBox="0 0 210 297"
   version="1.1"
   id="svg1495"
   inkscape:version="1.0beta1 (32d4812, 2019-09-19)"
   sodipodi:docname="crate.svg">
  <defs
     id="defs1489" />
  <sodipodi:namedview
     inkscape:snap-global="false"
     inkscape:snap-bbox="true"
     inkscape:guide-bbox="true"
     showguides="true"
     units="px"
     id="base"
     pagecolor="#ffffff"
     bordercolor="#666666"
     borderopacity="1.0"
     inkscape:pageopacity="0.0"
     inkscape:pageshadow="2"
     inkscape:zoom="1.12"
     inkscape:cx="335.89286"
     inkscape:cy="184.58333"
     inkscape:document-units="px"
     inkscape:current-layer="layer1"
     inkscape:document-rotation="0"
     showgrid="false"
     inkscape:window-width="1587"
     inkscape:window-height="907"
     inkscape:window-x="93"
     inkscape:window-y="23"
     inkscape:window-maximized="0">
    <sodipodi:guide
       id="guide1290"
       orientation="1,0"
       position="0,135.22619" />
    <sodipodi:guide
       id="guide1292"
       orientation="0,-1"
       position="-241.90476,297" />
    <sodipodi:guide
       id="guide1300"
       orientation="1,0"
       position="33.072916,206.15972" />
    <sodipodi:guide
       id="guide1430"
       orientation="0,-1"
       position="64.822917,263.04513" />
    <sodipodi:guide
       id="guide1432"
       orientation="0,-1"
       position="83.343748,230.85416" />
  </sodipodi:namedview>
  <metadata
     id="metadata1492">
    <rdf:RDF>
      <cc:Work
         rdf:about="">
        <dc:format>image/svg+xml</dc:format>
        <dc:type
           rdf:resource="http://purl.org/dc/dcmitype/StillImage" />
        <dc:title></dc:title>
      </cc:Work>
    </rdf:RDF>
  </metadata>
  <g
     style="display:inline"
     inkscape:label="main"
     inkscape:groupmode="layer"
     id="layer1">
    <path
       inkscape:connector-curvature="0"
       id="path1595-5"
       style="display:inline;fill:#000000;stroke-width:0.172232"
       d="M 31.043816,0.37925586 C 30.339567,0.37335659 29.132755,0.47071597 26.852284,0.6669733 25.865,0.75216825 23.826291,0.78989648 22.321844,0.75068086 16.856835,0.60830022 10.059765,0.71545855 8.2176274,0.97333128 7.2303317,1.1115337 5.0762336,1.243158 3.430745,1.2654543 L 0.43894098,1.3057854 0.22624177,2.8673932 C 0.0169413,4.4044486 -0.06417621,9.9774068 0.1183931,10.277235 c 0.0511104,0.08445 0.0750567,3.097474 0.0524027,6.695801 -0.0227445,3.598337 -0.0318552,8.680382 -0.0203537,11.293868 0.0231322,5.257691 0.0372182,5.325828 1.1182507,5.432414 0.7753202,0.07643 2.2840837,-0.02709 3.2732857,-0.225022 1.1888811,-0.237901 6.7598065,-0.490671 10.3430895,-0.469364 1.645487,0.0097 3.876524,-0.04158 4.957846,-0.114207 1.081323,-0.07258 2.119904,-0.136379 2.30796,-0.140976 0.982429,-0.02538 8.680987,0.233876 9.488293,0.319576 0.548676,0.05823 0.852657,0.03718 0.729921,-0.05049 -0.239521,-0.171062 -0.181962,-4.989622 0.118865,-9.937291 0.182847,-3.007151 0.132642,-4.219603 -0.269456,-6.51246 -0.255902,-1.459082 -0.212402,-3.832997 0.08448,-4.625518 0.09181,-0.245061 0.221835,-2.7829145 0.289158,-5.6394762 L 32.71468,1.1102463 32.219497,0.71171148 C 31.949531,0.49430294 31.748054,0.38510287 31.043812,0.37925907 Z M 30.164971,1.5067454 c 0.778681,-0.00393 0.995445,0.036587 1.075514,0.1189511 0.172058,0.176998 0.118523,8.7999315 -0.06745,10.8716075 -0.07284,0.811189 -0.05984,2.177575 0.02869,3.036459 0.177238,1.718704 0.16478,6.435444 -0.0327,12.319352 l -0.128215,3.81726 h -2.22249 -2.222481 l -0.08848,-3.296725 c -0.04859,-1.813183 -0.0296,-3.570011 0.04207,-3.904019 0.194938,-0.908424 0.526573,-5.515768 0.574317,-7.981553 0.02314,-1.192893 0.114194,-3.105863 0.202684,-4.251043 C 27.489135,10.131332 27.455368,6.2965069 27.2613,4.8627775 27.203216,4.4333509 27.144951,3.69157 27.132086,3.2144135 l -0.02338,-0.8675594 h -0.598359 c -0.556341,0 -0.596655,0.036527 -0.573651,0.5205358 0.02766,0.5835708 0.169071,1.8628071 0.335577,3.0364594 0.202089,1.424568 0.21834,3.18396 0.05039,5.4412287 -0.09129,1.227303 -0.197986,4.116271 -0.237071,6.419943 -0.03909,2.303664 -0.148776,4.78397 -0.243754,5.511715 -0.09498,0.727761 -0.22444,2.874976 -0.287826,4.771582 -0.06339,1.896639 -0.129398,3.46697 -0.146587,3.489213 -0.06668,0.0833 -2.774754,0.154736 -3.532061,0.0932 l -0.788688,-0.0644 0.08649,-3.158122 c 0.04975,-1.819387 -0.0057,-4.41876 -0.13089,-6.132221 -0.189767,-2.59822 -0.18412,-3.091742 0.04406,-3.90402 0.395481,-1.407688 0.585229,-2.665273 0.621731,-4.122944 0.01816,-0.725005 0.147786,-1.885389 0.288162,-2.578956 0.16829,-0.831501 0.245227,-2.1105547 0.225718,-3.754569 -0.01628,-1.3712979 0.01628,-2.5684591 0.07246,-2.6606301 0.05615,-0.092165 0.112844,-0.910289 0.12622,-1.8178091 l 0.02436,-1.6500587 3.271948,-0.1331843 c 2.328499,-0.094774 3.669285,-0.1430711 4.447972,-0.1470774 z m -12.935204,0.014578 c 0.392379,-0.00727 0.775009,0.019995 2.302951,0.1297952 l 1.656176,0.118951 -0.06378,4.279172 c -0.07966,5.3428194 -0.210721,7.5197894 -0.564966,9.3977734 -0.227497,1.20603 -0.280914,2.799188 -0.293836,8.740327 -0.01835,8.435826 0.158868,7.730998 -1.952022,7.762287 -0.710743,0.01056 -1.726677,0.03496 -2.257539,0.05423 -0.53087,0.01928 -1.069396,-0.04768 -1.19672,-0.149108 -0.297015,-0.236585 -0.396884,-4.54302 -0.152594,-6.577867 0.223599,-1.86246 0.488334,-4.831086 0.613718,-6.880158 0.135905,-2.22104 0.469279,-6.140034 0.929594,-10.9312551 0.108212,-1.126285 0.142871,-2.845579 0.07981,-3.9473977 l -0.111527,-1.9520044 0.572313,-0.027451 c 0.175726,-0.00852 0.307625,-0.014663 0.438418,-0.01728 z m -3.303338,0.069813 c 0.729688,0.00525 0.99291,0.068077 1.119587,0.2229887 0.438536,0.5362749 0.423059,2.6596331 -0.06577,9.0348219 -0.04393,0.572592 -0.108565,1.431492 -0.143911,1.908632 -0.03534,0.477175 -0.117792,1.257965 -0.183318,1.735119 -0.06552,0.477157 -0.192008,1.960702 -0.280816,3.296728 -0.167857,2.525035 -0.470008,6.03933 -0.596692,6.940478 -0.04026,0.286315 -0.08413,2.028964 -0.09783,3.872844 -0.01745,2.349629 -0.08376,3.370379 -0.221041,3.411949 -0.486479,0.147455 -1.274787,0.237613 -1.355996,0.155213 C 12.051472,32.12 10.743885,32.08603 9.1949835,32.09467 L 6.3788134,32.1106 6.4612874,29.634667 C 6.5067084,28.273035 6.5684681,25.59749 6.598191,23.688836 6.627912,21.780228 6.7311276,19.164518 6.8275782,17.87619 7.0091091,15.451435 6.8454782,10.935027 6.4819874,8.3333724 6.3819837,7.6176313 6.2624593,6.0041143 6.2165244,4.7479099 6.1197507,2.1004457 6.0804907,2.1660728 7.8029162,2.1123568 8.3740793,2.0945192 9.0893724,2.0078109 9.3926482,1.919528 9.8825068,1.7769323 9.9331451,1.7939711 9.8460898,2.0723678 c -0.053895,0.17233 0.022422,0.7732735 0.1696272,1.3352299 0.219851,0.8392568 0.249,1.6411837 0.162281,4.4916542 -0.05808,1.9086474 -0.03999,3.8216161 0.04038,4.2510431 0.08045,0.429459 0.08826,2.030113 0.01739,3.556996 -0.07091,1.526902 -0.146237,5.482009 -0.167623,8.789127 -0.03179,4.920282 0.0038,6.066025 0.198341,6.303704 0.214212,0.261971 0.265036,0.219284 0.516887,-0.434457 0.223103,-0.579131 0.248283,-0.939811 0.125547,-1.792394 -0.08451,-0.586955 -0.09452,-1.808927 -0.02236,-2.715528 0.194518,-2.444482 0.225164,-4.016181 0.284157,-14.575008 l 0.05375,-9.6299142 1.804765,-0.048797 c 0.359097,-0.0097 0.65398,-0.014244 0.897203,-0.012545 z M 2.3632427,2.4302277 c 0.086649,0.00197 0.1793193,0.00341 0.2784773,0.00341 0.5016115,0 1.2716657,0.050025 1.710937,0.1111571 C 5.1377987,2.6540034 5.1513096,2.666548 5.1436851,3.2822205 5.1250116,4.792116 5.2782649,7.2886796 5.4485445,8.2462865 5.8769087,10.655173 6.0308213,13.380664 5.9387193,16.921886 5.6943071,26.319348 5.6415684,28.132309 5.5697489,29.588262 5.4490872,32.034331 5.4190284,32.167589 4.9546931,32.299383 4.7277333,32.363782 3.9164873,32.424417 3.1522678,32.433925 2.054177,32.447632 1.7137729,32.391103 1.5284769,32.164507 1.2263248,31.795013 0.95971744,24.661914 1.2176083,23.847117 1.3263615,23.503548 1.3490479,20.266594 1.280737,14.824494 1.1281232,2.6741842 1.0635406,2.4151536 2.3632622,2.4302486 Z M 29.285795,3.6790404 c -0.08391,-0.00198 -0.178956,0.010459 -0.28415,0.037275 -0.471573,0.1201223 -0.586845,0.580682 -0.23474,0.9380493 0.352106,0.3573615 0.806232,0.2403587 0.924587,-0.2382391 C 29.8059,3.9534703 29.649426,3.6863571 29.285795,3.6790385 Z M 13.297687,3.9952246 c -1.116494,0 -1.005718,1.3281978 0.134224,1.6100695 0.571907,0.1413963 0.605274,0.1344076 0.713226,-0.1511445 0.177672,-0.4698896 -0.396853,-1.458925 -0.84745,-1.458925 z m 11.888069,0.185373 c -0.10171,-0.00198 -0.237021,0.00763 -0.415376,0.02067 -0.61728,0.045053 -0.74795,0.1186251 -0.793697,0.445641 -0.03909,0.2795452 0.05867,0.4342035 0.341922,0.5412085 0.582044,0.219895 1.07158,-0.026566 1.135613,-0.5717078 0.03993,-0.339615 0.03664,-0.4325344 -0.268462,-0.4358133 z M 3.0510938,4.192468 c -0.2834524,0 -0.5675511,0.1218038 -0.6033735,0.3233015 -0.025458,0.1431616 0.107183,0.5140259 0.2948441,0.824182 0.3707536,0.6127413 0.7541329,0.723354 0.994707,0.2870403 C 3.9295265,5.2783195 3.8060023,4.5863553 3.5065381,4.3341248 3.3909164,4.2367132 3.2211666,4.1926256 3.0510938,4.192468 Z m 5.2580283,0.3233015 c -0.6842456,0 -0.9518222,0.3557311 -0.595355,0.7916488 0.1207846,0.1477121 0.4154155,0.243713 0.6601313,0.2148581 C 8.7132299,5.482207 8.8285352,5.3592286 8.8700824,4.9929272 8.9202241,4.5506609 8.8792559,4.5157695 8.3091221,4.5157695 Z m 10.6365889,0.027111 c -0.646756,-0.020592 -0.911877,0.5069603 -0.342251,0.9458433 0.164547,0.1267452 0.472269,0.2332507 0.683837,0.2358673 0.314094,0.00459 0.38466,-0.089382 0.38466,-0.5117253 0,-0.4068857 -0.09115,-0.540356 -0.427067,-0.6259305 -0.106653,-0.027149 -0.206779,-0.041105 -0.299179,-0.044056 z M 22.5479,28.753903 c -0.344721,0.0088 -0.414331,0.0898 -0.447768,0.327024 -0.03329,0.236171 0.08451,0.426254 0.341915,0.552053 0.215963,0.105531 0.595168,0.19712 0.842784,0.203677 0.35926,0.0094 0.468523,-0.08451 0.540595,-0.465299 0.04969,-0.262421 0.07219,-0.49595 0.05008,-0.518843 -0.0221,-0.0229 -0.419247,-0.06191 -0.882516,-0.08674 -0.184883,-0.0099 -0.330195,-0.01483 -0.4451,-0.01187 z m 5.506116,0.02407 c -0.455858,0.01646 -0.755302,0.431158 -0.620399,0.97668 0.09321,0.376903 0.204751,0.440895 0.769653,0.440895 0.526999,0 0.679528,-0.07378 0.754294,-0.363965 0.136661,-0.530405 -0.01874,-0.804304 -0.566303,-0.998032 -0.118433,-0.0419 -0.232046,-0.05942 -0.337245,-0.05555 z m -10.409869,0.389042 c -0.230997,-0.0019 -0.437132,0.118928 -0.604375,0.361257 -0.185702,0.269098 -0.210683,0.463592 -0.08915,0.694052 0.268145,0.508528 1.142604,0.425366 1.393058,-0.13251 0.174492,-0.388703 0.157511,-0.48694 -0.12154,-0.694046 -0.203564,-0.151075 -0.398339,-0.227153 -0.577994,-0.228753 z m -9.3964671,0.02341 c -0.1624548,0.0046 -0.3382912,0.05083 -0.5162212,0.152163 -0.5717511,0.325714 -0.5842089,0.862599 -0.026687,1.14884 0.5397732,0.277183 0.5333504,0.277551 0.9876962,-0.04538 0.7124501,-0.506471 0.2592152,-1.27514 -0.4447637,-1.255597 z m -4.8857175,0.554762 c -0.8488325,-0.0033 -1.0889672,0.509434 -0.2303971,0.880777 0.4588301,0.198417 0.6151851,0.200915 0.8975392,0.01423 0.6125812,-0.404976 0.5102765,-0.73389 -0.2674604,-0.860103 -0.1446726,-0.02348 -0.2784254,-0.03443 -0.3996817,-0.03489 z m 8.5189526,0.103366 c -0.456039,0 -0.57312,0.464131 -0.210023,0.832655 0.285377,0.289664 0.93517,0.260494 1.051471,-0.04709 0.131885,-0.348811 -0.336056,-0.785549 -0.841448,-0.785549 z" />
    <path
       inkscape:connector-curvature="0"
       id="path1595-3"
       style="display:inline;fill:#000000;stroke-width:0.169213"
       d="m 32.146208,33.907315 v 3.38e-4 c -0.520249,0.0057 -1.683658,0.07203 -3.004321,0.175176 -4.053392,0.316599 -7.752906,0.347279 -12.694699,0.105238 -4.676768,-0.229452 -9.1808214,-0.230135 -12.2808315,-0.002 -1.6247972,0.119533 -2.4418569,0.114154 -2.8460557,-0.0188 -1.00928261,-0.33189 -1.01587542,-0.302376 -1.06777216,4.619583 -0.0609947,5.784092 -0.0226167,11.926538 0.0937025,14.987008 0.0511919,1.347051 0.0935294,4.608351 0.0940292,7.247563 5.0616e-4,2.639253 0.0381857,4.85929 0.0840983,4.933318 0.0984885,0.158794 0.58139076,0.0038 0.58139076,-0.186724 0,-0.07214 0.9726154,-0.09212 2.1613647,-0.04424 1.404313,0.05662 2.6660637,0.0078 3.6022682,-0.139879 0.7925081,-0.124909 2.5470215,-0.241562 3.8989317,-0.259297 1.35191,-0.01775 3.030148,-0.0792 3.729408,-0.136578 2.169213,-0.178099 4.929864,-0.188831 6.611229,-0.02541 0.885729,0.08611 3.364946,0.164884 5.509357,0.175176 2.144412,0.01028 4.301234,0.08387 4.792876,0.163301 0.777099,0.125515 0.880418,0.109887 0.791969,-0.119757 -0.05593,-0.145298 -0.01736,-0.421314 0.08576,-0.613279 0.140339,-0.26127 0.12206,-0.754424 -0.07284,-1.961257 -0.328398,-2.033471 -0.235912,-11.315018 0.152301,-15.282596 0.14089,-1.439951 0.263103,-4.062256 0.271496,-5.827346 0.0084,-1.765103 0.0173,-3.437291 0.01986,-3.715989 0.01076,-1.211922 -0.143062,-3.975653 -0.225808,-4.058095 -0.01249,-0.01239 -0.114301,-0.01742 -0.287719,-0.01551 z m -3.574788,1.292216 v 3.38e-4 c 2.75464,0.0057 2.653877,0.221493 2.788777,1.571972 0.234394,2.346509 0.219484,7.992515 -0.02717,10.245691 -0.208875,1.908296 -0.444877,6.634234 -0.425784,8.529883 0.0026,0.278697 0.03075,2.208173 0.06189,4.287704 0.04107,2.741982 6.38e-4,3.860062 -0.146342,4.069309 -0.169696,0.241371 -0.640714,0.309193 -2.881814,0.414356 -1.473425,0.06917 -2.793287,0.129128 -2.93314,0.132952 -0.139851,0.0038 -1.436668,-0.09123 -2.881819,-0.2118 -3.230136,-0.269492 -6.001474,-0.322951 -7.458817,-0.143505 -0.606032,0.07463 -2.284264,0.145076 -3.729409,0.156375 -1.4451446,0.0113 -2.9708187,0.08749 -3.3903752,0.169238 -1.8810564,0.366547 -5.673465,0.237777 -5.9533486,-0.20223 C 1.514715,64.09504 1.4390034,62.206628 1.4255487,60.023492 1.412094,57.840349 1.3856331,55.864117 1.3669246,55.63187 1.2610104,54.315984 1.2401172,45.852213 1.3345052,42.457 1.4772661,37.318818 1.597942,35.694521 1.8423948,35.609934 c 0.7668289,-0.265342 5.7261965,-0.448121 10.7058362,-0.39456 6.281626,0.0674 7.009468,0.06739 13.621747,0.0023 0.977792,-0.0096 1.765719,-0.01948 2.40141,-0.01815 z m -7.452532,9.622182 c -0.09874,0 -0.179454,0.07601 -0.179454,0.168908 0,0.0929 0.0337,0.168909 0.07483,0.168909 0.04113,0 0.121855,-0.07601 0.179454,-0.168909 0.0576,-0.0929 0.0239,-0.168908 -0.07483,-0.168908 z" />
  </g>
</svg>
