<?xml version="1.0" encoding="UTF-8" standalone="no"?>
<!-- Created with Inkscape (http://www.inkscape.org/) -->

<svg
   xmlns:dc="http://purl.org/dc/elements/1.1/"
   xmlns:cc="http://creativecommons.org/ns#"
   xmlns:rdf="http://www.w3.org/1999/02/22-rdf-syntax-ns#"
   xmlns:svg="http://www.w3.org/2000/svg"
   xmlns="http://www.w3.org/2000/svg"
   xmlns:sodipodi="http://sodipodi.sourceforge.net/DTD/sodipodi-0.dtd"
   xmlns:inkscape="http://www.inkscape.org/namespaces/inkscape"
   width="210mm"
   height="297mm"
   viewBox="0 0 210 297"
   version="1.1"
   id="svg1664"
   inkscape:version="0.92.2 5c3e80d, 2017-08-06"
   sodipodi:docname="dialog.svg">
  <defs
     id="defs1658" />
  <sodipodi:namedview
     id="base"
     pagecolor="#ffffff"
     bordercolor="#666666"
     borderopacity="1.0"
     inkscape:pageopacity="0.0"
     inkscape:pageshadow="2"
     inkscape:zoom="0.5"
     inkscape:cx="327.73249"
     inkscape:cy="480"
     inkscape:document-units="mm"
     inkscape:current-layer="layer1"
     showgrid="false"
     inkscape:window-width="1596"
     inkscape:window-height="1005"
     inkscape:window-x="84"
     inkscape:window-y="1"
     inkscape:window-maximized="1"
     showguides="true"
     inkscape:guide-bbox="true"
     inkscape:snap-global="true">
    <sodipodi:guide
       position="-72.495833,278.87083"
       orientation="1,0"
       id="guide2552"
       inkscape:locked="false" />
    <sodipodi:guide
       position="29.633333,284.69167"
       orientation="0,1"
       id="guide2554"
       inkscape:locked="false" />
    <sodipodi:guide
       position="283.63333,184.15001"
       orientation="1,0"
       id="guide2556"
       inkscape:locked="false" />
    <sodipodi:guide
       position="152.92916,13.229167"
       orientation="0,1"
       id="guide2558"
       inkscape:locked="false" />
  </sodipodi:namedview>
  <metadata
     id="metadata1661">
    <rdf:RDF>
      <cc:Work
         rdf:about="">
        <dc:format>image/svg+xml</dc:format>
        <dc:type
           rdf:resource="http://purl.org/dc/dcmitype/StillImage" />
        <dc:title />
      </cc:Work>
    </rdf:RDF>
  </metadata>
  <g
     inkscape:label="Layer 1"
     inkscape:groupmode="layer"
     id="layer1">
    <path
       style="fill:#cbb6b0;fill-opacity:1;fill-rule:evenodd;stroke:#000000;stroke-width:0.26458332px;stroke-linecap:butt;stroke-linejoin:miter;stroke-opacity:1"
       d="m 198.46154,44.792772 15.7689,1.870885 15.50162,-1.870885 4.81086,-2.405427 -2.13815,-8.552624 -9.6217,-16.036172 -4.27633,-1.603617 c 0,0 -6.94899,1.603617 -8.01807,2.405426 -1.0691,0.801807 -9.6217,19.777944 -9.6217,19.777944 z"
       id="path1631"
       inkscape:connector-curvature="0"
       inkscape:export-filename="/Users/jan/Documents/repo/github/microcol/microcol-game/src/main/resources/images/dialog-petr.png"
       inkscape:export-xdpi="35.972397"
       inkscape:export-ydpi="35.972397" />
    <path
       style="fill:#fff2c9;fill-opacity:1;fill-rule:evenodd;stroke:#000000;stroke-width:0.26458332px;stroke-linecap:butt;stroke-linejoin:miter;stroke-opacity:1"
       d="m 197.39246,45.86185 17.37252,1.603616 14.96708,-2.405425 3.20725,-1.336347 0.80179,6.414469 -4.2763,14.699824 -6.68173,7.750815 c 0,0 -7.21627,3.207234 -8.28538,3.207234 -1.06907,0 -9.88896,-2.939965 -9.88896,-2.939965 l -4.54358,-7.216278 -3.74176,-9.354431 z"
       id="path1629"
       inkscape:connector-curvature="0"
       inkscape:export-filename="/Users/jan/Documents/repo/github/microcol/microcol-game/src/main/resources/images/dialog-petr.png"
       inkscape:export-xdpi="35.972397"
       inkscape:export-ydpi="35.972397" />
    <path
       style="fill:#bfbdc4;fill-opacity:1;fill-rule:evenodd;stroke:#000000;stroke-width:0.26458332px;stroke-linecap:butt;stroke-linejoin:miter;stroke-opacity:1"
       d="m 197.65972,190.72193 1.36527,37.41452 -2.43435,41.69726 9.62171,-1.06909 6.14719,1.06909 2.05907,-40.60787 0.8809,-37.7021 z"
       id="path1623"
       inkscape:connector-curvature="0"
       sodipodi:nodetypes="cccccccc"
       inkscape:export-filename="/Users/jan/Documents/repo/github/microcol/microcol-game/src/main/resources/images/dialog-petr.png"
       inkscape:export-xdpi="35.972397"
       inkscape:export-ydpi="35.972397" />
    <path
       style="fill:#c0bfc3;fill-opacity:1;fill-rule:evenodd;stroke:#000000;stroke-width:0.26458332px;stroke-linecap:butt;stroke-linejoin:miter;stroke-opacity:1"
       d="m 224.11943,192.05828 -0.26729,80.44813 11.75727,-1.15251 5.34799,0.61798 3.74177,-57.9975 -12.56168,-21.9161 z"
       id="path1625"
       inkscape:connector-curvature="0"
       sodipodi:nodetypes="ccccccc"
       inkscape:export-filename="/Users/jan/Documents/repo/github/microcol/microcol-game/src/main/resources/images/dialog-petr.png"
       inkscape:export-xdpi="35.972397"
       inkscape:export-ydpi="35.972397" />
    <path
       style="fill:#f2ece0;fill-opacity:1;fill-rule:evenodd;stroke:#000000;stroke-width:0.26458332px;stroke-linecap:butt;stroke-linejoin:miter;stroke-opacity:1"
       d="m -65.30314,27.784867 226.40774,0.377975 3.86495,4.91268 1.69907,22.307169 2.84881,3.806494 -2.29479,6.788457 -0.24375,113.787198 0.20695,37.11399 -3.81106,2.63473 -36.29849,-2.42888 -77.102181,1.99786 -82.041198,-0.56537 -36.259861,-1.74421 z"
       id="path1619"
       inkscape:connector-curvature="0"
       sodipodi:nodetypes="cccccccccccccc"
       inkscape:export-filename="/Users/jan/Documents/repo/github/microcol/microcol-game/src/main/resources/images/dialog-petr.png"
       inkscape:export-xdpi="35.972397"
       inkscape:export-ydpi="35.972397" />
    <path
       style="fill:#a59892;fill-opacity:1;fill-rule:evenodd;stroke:#000000;stroke-width:0.26458332px;stroke-linecap:butt;stroke-linejoin:miter;stroke-opacity:1"
       d="m 184.16114,166.50213 11.33929,5.29166 1.13395,17.00893 34.77379,2.26786 -6.48491,-15.04961 -5.41184,-6.27362 -9.64788,8.85001 -3.77978,-3.77976 16.63097,-13.60714 -10.15164,-15.8442 c 0,0 -3.04824,-1.62242 -3.38664,-3.26482 -0.53197,-2.58177 1.7005,-3.73521 2.95494,-3.58854 2.57982,0.30163 3.84461,4.31036 3.84461,4.31036 l 4.18066,5.44823 8.38427,-6.89135 11.5607,12.2708 -8.39919,9.17071 13.29938,23.75826 3.58347,0.86679 -0.19706,-23.23793 -1.44892,-22.25871 12.60856,-11.78256 12.78181,-15.80509 -11.47566,-15.417391 -18.86252,-19.377416 -23.80747,-2.557002 -19.65979,1.80105 -4.88095,15.380999 -3.18207,27.50598 z"
       id="path1621"
       inkscape:connector-curvature="0"
       sodipodi:nodetypes="ccccccccccsscccccccccccccccccc"
       inkscape:export-filename="/Users/jan/Documents/repo/github/microcol/microcol-game/src/main/resources/images/dialog-petr.png"
       inkscape:export-xdpi="35.972397"
       inkscape:export-ydpi="35.972397" />
    <path
       style="fill:#fff2c9;fill-opacity:1;fill-rule:evenodd;stroke:#000000;stroke-width:0.26458332px;stroke-linecap:butt;stroke-linejoin:miter;stroke-opacity:1"
       d="m 181.62355,170.40945 c 1.33635,0 11.75986,0.53454 11.75986,1.87088 0,1.33635 -0.26727,13.89802 -0.26727,13.89802 l -2.93997,3.20723 -5.34538,0.53454 c 0,0 -1.33635,0 -1.87089,-1.60361 -0.53454,-1.60362 0.53454,-10.15624 0.53454,-10.15624 l -1.06908,3.4745 -2.93996,0.53454 -0.53454,-2.13816 1.33635,-5.07812 z"
       id="path1633"
       inkscape:connector-curvature="0"
       inkscape:export-filename="/Users/jan/Documents/repo/github/microcol/microcol-game/src/main/resources/images/dialog-petr.png"
       inkscape:export-xdpi="35.972397"
       inkscape:export-ydpi="35.972397" />
    <path
       style="fill:#fff2c9;fill-opacity:1;fill-rule:evenodd;stroke:#000000;stroke-width:0.26458332px;stroke-linecap:butt;stroke-linejoin:miter;stroke-opacity:1"
       d="m 227.59391,143.41523 -11.49258,8.28536 6.68174,8.01808 12.82893,-8.55263 z"
       id="path1635"
       inkscape:connector-curvature="0"
       sodipodi:nodetypes="ccccc"
       inkscape:export-filename="/Users/jan/Documents/repo/github/microcol/microcol-game/src/main/resources/images/dialog-petr.png"
       inkscape:export-xdpi="35.972397"
       inkscape:export-ydpi="35.972397" />
    <path
       style="fill:#e2906b;fill-opacity:1;fill-rule:evenodd;stroke:#000000;stroke-width:0.26458332px;stroke-linecap:butt;stroke-linejoin:miter;stroke-opacity:1"
       d="m 213.02772,271.03641 -17.90705,-0.66815 -17.77343,2.27179 0.13364,1.73723 18.17433,2.67272 6.41448,1.20271 17.23887,3.07361 H 235.612 l 6.28084,-3.60817 0.53454,-4.00902 -2.13816,-0.93546 c 0,0 -2.93997,1.33636 -3.87543,1.33636 -0.93543,0 -11.75985,0.13364 -11.75985,0.13364 l -8.68625,2.00451 -0.40089,-0.80179 z"
       id="path1637"
       inkscape:connector-curvature="0"
       inkscape:export-filename="/Users/jan/Documents/repo/github/microcol/microcol-game/src/main/resources/images/dialog-petr.png"
       inkscape:export-xdpi="35.972397"
       inkscape:export-ydpi="35.972397" />
    <path
       style="fill:#000000;stroke-width:0.26458332"
       d="m 216.82306,15.389306 c -2.29229,0.0938 -4.75628,1.46929 -5.99725,3.34815 -0.52047,0.78804 -1.46217,2.061141 -2.09275,2.828761 -1.2478,1.518999 -4.5725,6.87454 -5.21777,8.40471 -0.2209,0.52382 -0.4599,1.01558 -0.53102,1.09287 -0.0711,0.0773 -0.25675,0.44649 -0.41203,0.8205 -0.15529,0.37401 -0.38278,0.86508 -0.50573,1.09131 -0.123,0.22622 -0.45437,1.14119 -0.73639,2.03323 -0.28202,0.89205 -0.56957,1.68499 -0.6391,1.76219 -0.31644,0.35114 -0.66056,1.37311 -1.02539,3.04498 -0.21765,0.99745 -0.48662,1.81912 -0.59738,1.82591 -0.11073,0.007 -0.19116,0.17551 -0.17894,0.374929 0.0122,0.199411 -0.1878,0.928261 -0.44434,1.619782 -0.42042,1.133189 -0.52189,1.231548 -1.02756,0.999558 -0.70117,-0.321759 -1.30466,0.17634 -0.77814,0.642041 0.24546,0.21712 0.18286,0.477491 -0.25744,1.07093 -0.61153,0.824291 -0.75401,2.10574 -0.67855,6.102181 0.0455,2.410018 0.63511,5.83039 1.23309,7.153018 0.24186,0.534871 0.45419,1.21003 0.47199,1.500481 0.0177,0.290431 0.35618,0.97807 0.75219,1.5278 0.39602,0.549709 0.86182,1.487141 1.03478,2.083631 0.17299,0.596479 0.45083,1.205118 0.61717,1.35228 0.16634,0.147129 0.31475,0.472109 0.33007,0.722198 0.0339,0.552871 1.68711,3.5657 2.74164,4.99636 0.79914,1.084252 2.92727,2.83822 3.41772,2.81618 0.66871,-0.0295 4.16703,1.516092 4.0177,1.775011 -0.36822,0.638439 -6.31214,1.572659 -6.34738,0.997849 -0.009,-0.153889 0.0979,-0.217728 0.23823,-0.142478 0.14034,0.0753 0.32443,0.007 0.40913,-0.150352 0.0922,-0.171879 0.53602,-0.23898 1.10646,-0.167799 0.68067,0.085 0.8945,0.0366 0.74858,-0.170119 -0.35565,-0.50373 -1.72251,-0.222581 -3.24717,0.66807 -0.81098,0.473729 -2.23288,1.05691 -3.16003,1.296448 -1.34797,0.348261 -1.84687,0.62679 -2.48904,1.388891 -0.4417,0.5242 -0.79235,1.128651 -0.7792,1.34312 0.013,0.214521 -0.35218,1.065469 -0.81185,1.891339 -0.45968,0.825852 -0.82565,1.66669 -0.8133,1.868131 0.0135,0.221649 -0.16671,0.32858 -0.45709,0.27133 -0.41352,-0.0815 -0.50427,0.198519 -0.65747,2.028399 -0.0977,1.16736 -0.31223,2.708521 -0.4766,3.425042 -0.30364,1.323329 -0.70178,4.856533 -1.06352,9.434612 -0.10998,1.39178 -0.28015,3.43007 -0.37836,4.52955 -0.0982,1.09946 -0.10422,3.14572 -0.0133,4.54754 0.13319,2.05055 0.0808,2.67555 -0.26845,3.1974 -0.57662,0.8617 -0.86731,1.86352 -1.2424,4.27706 -0.17157,1.10396 -0.39622,2.26508 -0.49886,2.5804 -0.10264,0.31531 -0.22587,1.15789 -0.27355,1.87232 -0.25479,3.81535 -0.66697,6.50018 -1.1769,7.66057 -0.31258,0.71125 -0.48898,1.40581 -0.3921,1.54306 0.0969,0.13726 0.047,0.5281 -0.11036,0.86878 -0.31505,0.68196 -0.9515,4.48358 -1.06618,6.36669 -0.0401,0.65853 -0.21692,1.57981 -0.39278,2.04738 -0.57412,1.52655 -1.05552,6.21975 -0.89934,8.76807 0.0989,1.61426 0.0444,2.59829 -0.15733,2.83955 -0.16978,0.20307 -0.3113,0.82553 -0.31437,1.38351 -0.003,0.55794 -0.11015,1.24292 -0.23809,1.52173 -0.12791,0.27878 -0.21527,0.78727 -0.19426,1.13019 0.0394,0.6425 -0.81833,5.43913 -1.1872,6.63919 -0.1142,0.37148 -0.27234,1.57404 -0.35137,2.67233 -0.079,1.0983 -0.19697,2.31028 -0.26206,2.69326 -0.0998,0.58723 0.0281,0.77072 0.81532,1.17239 0.51339,0.26198 1.62052,0.68678 2.46064,0.94369 0.84011,0.25696 1.74531,0.56694 2.01117,0.68907 0.26586,0.1221 0.71235,0.27892 0.99264,0.34869 0.28026,0.0698 0.4479,0.19739 0.372,0.28318 -0.17983,0.20328 -3.27999,-0.38549 -4.43371,-0.84192 -0.49323,-0.19515 -1.30878,-0.39561 -1.81247,-0.44598 -0.78782,-0.0788 -0.94366,-0.002 -1.11354,0.55077 -0.24399,0.79389 -0.0397,0.90479 1.88202,1.02314 1.37445,0.0846 2.63477,0.32121 3.88836,0.72934 0.29752,0.0969 0.96989,0.21937 1.4943,0.27238 0.565,0.0571 1.28138,0.39916 1.75789,0.83921 0.9092,0.83952 1.29195,0.89736 1.75429,0.26526 0.25274,-0.34552 0.24685,-0.54243 -0.0267,-0.92614 -0.31448,-0.44099 -0.27013,-0.49187 0.46876,-0.53715 1.09078,-0.0668 0.84385,-0.68113 -0.28282,-0.70337 -0.99508,-0.0197 -1.88965,-0.31574 -5.77553,-1.91265 -3.0852,-1.26787 -3.48472,-1.68021 -3.03398,-3.12652 0.10958,-0.35161 0.168,-1.1446 0.13017,-1.76206 -0.0926,-1.51058 0.23296,-4.07662 0.66457,-5.24086 0.19358,-0.52214 0.53373,-1.43763 0.75598,-2.03442 0.48455,-1.30108 0.74819,-4.85231 0.72142,-9.71963 -0.0188,-3.42195 0.35458,-7.08242 0.82055,-8.04305 0.12038,-0.2482 0.36307,-1.19203 0.53934,-2.09729 0.17632,-0.90524 0.53951,-1.89336 0.80717,-2.19597 0.28381,-0.32087 0.46507,-0.90791 0.43452,-1.40847 -0.0288,-0.47207 0.0617,-1.70029 0.20135,-2.72941 0.13966,-1.02912 0.38058,-3.07175 0.53568,-4.53919 0.15511,-1.46744 0.42257,-3.03455 0.59424,-3.48245 0.17168,-0.44791 0.35762,-1.3171 0.41333,-1.93163 0.065,-0.71798 0.2507,-1.15574 0.51878,-1.22466 0.31372,-0.0806 0.41574,-0.49917 0.41232,-1.68615 -0.002,-0.86819 0.0894,-1.64915 0.20428,-1.73553 0.2286,-0.17182 0.37226,-2.17485 0.3922,-5.46958 0.007,-1.16679 0.13704,-2.88777 0.28854,-3.82407 0.15153,-0.93632 0.27937,-2.56565 0.28443,-3.62084 0.005,-1.05528 0.15696,-2.43612 0.33744,-3.0686 0.18092,-0.632488 0.23719,-1.27886 0.12577,-1.436639 -0.37219,-0.52713 -0.1732,-2.140331 0.40715,-3.299622 0.36293,-0.724998 0.59399,-1.763238 0.62799,-2.821828 0.0559,-1.737583 0.58465,-4.077584 1.36757,-6.053273 0.24959,-0.62983 0.46009,-1.239171 0.46789,-1.354082 0.008,-0.114959 0.30091,-0.771588 0.65143,-1.459058 0.35055,-0.68744 0.81341,-1.689261 1.02899,-2.22614 0.48573,-1.20953 1.84788,-2.104951 2.33564,-1.535341 0.27099,0.31641 0.37574,0.29191 0.7488,-0.17481 0.45302,-0.566719 1.27619,-0.781679 4.57393,-1.19516 1.08514,-0.13604 2.48004,-0.467701 3.10004,-0.737219 1.70061,-0.739262 3.0738,-0.92896 5.42399,-0.748681 2.63961,0.20247 6.99997,0.296511 11.04596,0.238371 1.69179,-0.02429 3.42635,0.0651 3.85482,0.198639 1.14374,0.35647 5.58178,0.99994 7.72644,1.12005 4.65354,0.260641 5.26941,0.5139 7.22802,2.972509 1.95477,2.45382 3.84249,4.514482 6.26655,6.840932 1.29516,1.242938 2.55272,2.521479 2.79439,2.841418 0.2416,0.319932 0.88551,1.010555 1.43082,1.534354 0.54528,0.523811 1.40742,1.463751 1.91624,2.088631 1.57713,1.93698 2.67013,3.10973 5.40152,5.794789 1.45061,1.42603 2.7258,2.76855 2.83367,2.984 0.32437,0.64747 2.19003,3.42869 2.38744,3.5591 0.10099,0.0667 0.53364,0.6706 0.96136,1.34207 0.79632,1.25017 1.05474,2.46862 0.62624,2.95307 -0.13253,0.14981 -0.26818,1.14024 -0.30157,2.20073 -0.0334,1.06046 -0.15856,1.99699 -0.27784,2.08122 -0.11927,0.0843 -0.19949,0.43639 -0.1783,0.78237 0.0212,0.34598 -0.0758,0.70981 -0.21553,0.80845 -0.13975,0.0986 -0.23268,0.52881 -0.20651,0.95597 0.0262,0.42719 -0.0572,0.78321 -0.18552,0.79108 -0.12827,0.008 -0.29105,0.22659 -0.36161,0.48605 -0.0705,0.25946 -0.51438,1.0322 -0.98615,1.71718 -0.47176,0.68499 -0.92676,1.42859 -1.01135,1.65246 -0.0845,0.22387 -0.88207,1.34633 -1.77204,2.49433 -1.4859,1.91667 -2.20449,2.71287 -5.47172,6.06045 -0.62016,0.6354 -1.57176,1.61821 -2.11415,2.18394 -0.54243,0.56574 -1.13554,1.03775 -1.31808,1.04894 -0.18246,0.0112 -0.44426,0.2658 -0.58192,0.56583 -0.13767,0.30002 -0.39466,0.55444 -0.57092,0.56824 -0.17632,0.0128 -0.99478,0.74856 -1.81898,1.6357 -1.98427,2.13576 -3.49629,3.46971 -4.89747,4.32191 -0.63249,0.3847 -1.60594,1.04497 -2.16323,1.46728 -2.42777,1.83984 -4.49972,3.50273 -4.82907,3.87507 -1.02719,1.16132 -2.58816,2.41957 -3.03565,2.447 -0.27955,0.0171 -0.71022,-0.16523 -0.95726,-0.40523 -0.24707,-0.24 -1.04,-0.93052 -1.76218,-1.53425 -1.21298,-1.01402 -3.58095,-4.11037 -3.61907,-4.7324 -0.009,-0.14779 -0.33065,-0.52938 -0.71467,-0.84824 -0.38404,-0.31888 -0.70395,-0.67282 -0.71091,-0.78638 -0.0151,-0.24642 4.60457,-6.39497 5.02621,-6.68962 0.34378,-0.24021 3.11277,-2.76884 3.59238,-3.28049 0.18127,-0.19335 0.44834,-0.35883 0.5936,-0.36773 0.28233,-0.0173 0.97856,-0.71716 0.96316,-0.96818 -0.0243,-0.39644 -1.1072,-0.0144 -1.61102,0.56833 -0.31187,0.36067 -0.96586,0.96217 -1.4532,1.33629 -1.29709,0.99577 -2.04285,1.76212 -5.25087,5.39767 -1.63261,1.85016 -3.19116,3.37281 -3.57817,3.49552 -0.77983,0.24732 -0.88032,0.95406 -0.15595,1.09678 0.27221,0.0537 0.98005,0.95079 1.62679,2.06237 0.62963,1.08211 1.71017,2.74188 2.40105,3.68821 0.69088,0.9463 1.26309,1.83835 1.27193,1.98264 0.009,0.14432 -0.3012,0.40582 -0.68922,0.5812 -2.25927,1.02123 -4.86439,2.81228 -6.22937,4.28291 -0.87638,0.94416 -0.95377,0.97584 -1.4428,0.58492 -0.2843,-0.22725 -0.649,-0.40495 -0.81013,-0.39507 -0.16116,0.01 -0.29033,-0.31025 -0.28744,-0.71136 0.005,-0.69484 -0.0447,-0.7222 -1.04624,-0.58098 -0.84633,0.1194 -0.99092,0.0789 -0.74163,-0.20669 0.45119,-0.51678 0.33507,-1.1603 -0.3011,-1.66883 -0.75837,-0.60623 -0.72326,-0.92814 0.0849,-0.77715 0.51406,0.096 0.6641,0.0228 0.64344,-0.31435 -0.0246,-0.40169 0.0262,-0.40697 0.58523,-0.0643 0.82132,0.50333 1.00063,0.46105 1.2342,-0.28845 0.10922,-0.35047 0.69707,-0.9341 1.30596,-1.29722 0.60886,-0.36311 1.33202,-0.87873 1.60724,-1.14587 0.27522,-0.26712 0.81867,-0.64491 1.20769,-0.83925 0.80213,-0.40071 0.8668,-0.69022 0.25326,-1.13897 -0.34454,-0.25208 -0.63276,-0.2319 -1.51771,0.10644 -1.16244,0.4445 -3.94052,2.43032 -4.41888,3.15876 -0.22966,0.34974 -0.35769,0.3753 -0.64196,0.12731 -0.19518,-0.17028 -0.57275,-0.29625 -0.83931,-0.27991 -0.41553,0.0255 -0.44604,-0.055 -0.2131,-0.56267 0.2154,-0.46943 0.1909,-0.64643 -0.11811,-0.85427 -0.21439,-0.14421 -0.7856,-0.94503 -1.26934,-1.77983 -0.57049,-0.98462 -1.11675,-1.59138 -1.55498,-1.72712 -0.61987,-0.19203 -0.68374,-0.34339 -0.77531,-1.83755 -0.0894,-1.45811 -0.20346,-1.74541 -1.09215,-2.74954 -1.36866,-1.54644 -1.67272,-1.71498 -2.92443,-1.61782 -0.60127,0.0469 -1.21587,0.0199 -1.36533,-0.0603 -0.41723,-0.22382 -1.82058,0.45422 -1.9988,0.96591 -0.3811,1.09412 -0.61801,3.62654 -0.43648,4.66251 0.16116,0.91978 0.37129,1.23224 1.13916,1.69204 0.53232,0.31874 1.48701,0.5832 2.19573,0.60839 1.2479,0.0444 1.25404,0.0495 1.37734,1.07582 0.14414,1.19945 0.51937,1.90258 1.52204,2.85366 0.39732,0.37658 0.58057,0.69339 0.40815,0.70396 -0.45551,0.0279 -0.32105,1.06864 0.15758,1.21944 0.5805,0.18287 0.53925,0.79325 -0.0695,1.02833 -0.36719,0.1418 -0.50369,0.43183 -0.46906,0.9969 0.0626,1.02187 1.49254,2.1806 3.27261,2.65268 l 1.28468,0.34115 0.038,1.76883 c 0.0331,1.55134 0.11011,1.81289 0.6265,2.12937 0.66382,0.40679 1.57568,0.12454 2.44393,-0.75658 0.49072,-0.49799 1.66151,-1.00347 1.6786,-0.72467 0.0164,0.26868 -1.11652,1.26133 -2.38993,2.09367 -0.70091,0.45809 -2.54788,2.28774 -4.10446,4.0657 -1.55657,1.77796 -2.90562,3.23736 -2.99825,3.24304 -0.0926,0.006 -0.38603,0.23241 -0.65202,0.50385 -1.11955,1.14248 -4.38848,3.67923 -5.93119,4.60322 -1.67896,1.00563 -2.2869,1.61238 -2.24819,2.24393 0.0116,0.19011 0.25649,0.33169 0.54422,0.31405 0.32981,-0.0202 0.59566,0.19489 0.71859,0.58243 0.18184,0.57336 2.12232,2.42442 2.51626,2.40027 0.29776,-0.0183 2.39459,-2.03365 4.2713,-4.10543 2.08545,-2.3022 4.34965,-4.37076 4.81796,-4.40245 0.1815,-0.0121 0.32425,-0.11605 0.31718,-0.23121 -0.007,-0.11511 0.51319,-0.38507 1.1561,-0.59998 0.89247,-0.29826 1.1612,-0.51624 1.13646,-0.92027 -0.0426,-0.69468 -0.60094,-0.64087 -2.41808,0.23256 -1.28918,0.61966 -2.02242,1.21446 -4.15776,3.37314 -0.29396,0.29713 -0.60582,0.54502 -0.69316,0.55037 -0.23154,0.0142 -1.35551,1.12709 -2.35416,2.33119 -1.01999,1.22981 -1.41988,1.35094 -1.23766,0.37563 0.0897,-0.48023 -0.0206,-0.85023 -0.34931,-1.17146 -0.45307,-0.44282 -0.45524,-0.50085 -0.035,-1.0266 0.24508,-0.30661 0.57586,-0.56868 0.73469,-0.58242 0.15881,-0.0137 0.90422,-0.66778 1.65674,-1.45336 0.75251,-0.78557 2.15855,-2.03143 3.12465,-2.76877 0.96608,-0.73734 2.7241,-2.38029 3.90668,-3.6513 1.18258,-1.27101 2.93709,-2.9533 3.89882,-3.73779 0.96176,-0.78452 2.03544,-1.67669 2.38639,-1.98268 0.56819,-0.49542 2.97325,-1.87507 6.77248,-3.88594 0.70353,-0.37237 1.69334,-1.04882 2.19941,-1.50266 1.12664,-1.01037 1.29135,-1.02619 2.2095,-0.21407 0.57187,0.50585 0.92438,0.61037 1.63201,0.48345 0.49649,-0.0889 0.90305,-0.0965 0.90194,-0.0164 0,0.0801 -0.48022,0.52624 -1.06585,0.99104 -3.14524,2.49628 -4.25493,3.32472 -4.47159,3.338 -0.13203,0.008 -0.60926,0.47441 -1.06048,1.03677 -0.45117,0.56236 -1.09736,1.3475 -1.43589,1.74476 -0.33856,0.39724 -0.84868,1.11079 -1.1335,1.58541 -0.49263,0.82087 -0.49406,0.8855 -0.0295,1.3272 0.26861,0.25532 0.73049,1.04609 1.02667,1.7569 1.21779,2.92271 2.60635,4.92047 3.15187,4.53529 0.1093,-0.0772 0.4099,0.30298 0.66786,0.84439 0.25797,0.54141 0.90723,1.79261 1.44249,2.78037 0.53527,0.98775 1.1521,2.20245 1.37123,2.6993 0.21912,0.49685 0.80941,1.83246 1.31159,2.96803 0.5022,1.13557 1.02841,2.36871 1.16927,2.74067 0.14089,0.372 0.4113,0.92763 0.60066,1.23473 0.18939,0.30712 0.60994,1.36582 0.93477,2.35276 0.32483,0.98692 0.85492,2.18591 1.17803,2.66403 0.32308,0.47813 0.9066,1.69913 1.29654,2.71372 0.38992,1.01458 0.87918,1.96958 1.08733,2.12183 0.20812,0.15225 0.38889,0.44875 0.40177,0.65931 0.013,0.2105 0.3366,0.86182 0.71932,1.44748 0.38272,0.58571 0.79674,1.47072 0.91991,1.96642 0.12316,0.49574 0.45685,1.13136 0.74149,1.4125 0.28464,0.28116 0.76481,1.24049 1.06723,2.13184 0.30244,0.89138 1.00443,2.32095 1.55998,3.17699 0.55557,0.85604 1.01544,1.64183 1.02185,1.74583 0.006,0.10403 0.26569,0.64283 0.57613,1.19792 1.14702,2.05115 3.53861,6.94216 5.15262,10.53644 0.12743,0.28378 0.50935,1.03572 0.84847,1.67102 0.33909,0.63529 0.79401,1.56169 1.01097,2.05867 0.21699,0.49699 0.54428,1.07336 0.72721,1.28083 0.48599,0.55112 1.32757,2.18976 1.35506,2.63816 0.013,0.21267 0.26543,0.65767 0.56076,0.98921 0.88376,0.99208 2.2384,3.09634 2.47655,3.84719 0.12248,0.38629 0.52282,0.98896 0.88975,1.3392 0.36689,0.35027 0.75594,0.97259 0.86444,1.3827 0.18574,0.70223 2.82803,6.05287 3.71856,7.53035 0.22495,0.3732 0.41704,0.81505 0.4273,0.98236 0.0101,0.1673 0.41918,1.00112 0.90877,1.85266 0.48958,0.85154 0.90307,1.75942 0.91887,2.01721 0.0159,0.25778 0.21606,0.60567 0.445,0.77314 0.22895,0.16747 0.42865,0.50636 0.44381,0.75354 0.0151,0.24722 0.80693,1.48841 1.75951,2.75784 0.95255,1.26946 1.73908,2.42495 1.74786,2.56801 0.009,0.14303 0.1075,0.29428 0.2194,0.33601 0.27305,0.10184 1.52101,2.1102 1.54395,2.48474 0.01,0.16336 0.2768,0.78667 0.5928,1.38537 0.31604,0.59866 0.7425,1.55562 0.94781,2.12622 0.20532,0.57059 0.49909,1.37348 0.65246,1.7845 0.24104,0.64583 0.0628,1.75024 -0.28593,1.77161 -0.15248,0.009 -3.18064,-4.5852 -3.77822,-5.73274 -0.93126,-1.78833 -1.51517,-2.79436 -2.15445,-3.71108 -0.34147,-0.48973 -0.87376,-1.4712 -1.18311,-2.1812 -0.30935,-0.71002 -0.96888,-1.80281 -1.46545,-2.42845 -1.05408,-1.32807 -1.87357,-2.72685 -1.9058,-3.25259 -0.0124,-0.2037 -0.47746,-1.14083 -1.03367,-2.08266 -2.10013,-3.55616 -3.74049,-6.61228 -3.76521,-7.01546 -0.014,-0.22984 -0.41288,-1.15619 -0.88616,-2.05857 -0.47334,-0.90237 -1.0395,-2.10642 -1.25799,-2.6762 -0.21857,-0.56978 -0.55478,-1.20525 -0.74772,-1.41211 -0.1929,-0.20687 -0.44129,-0.7361 -0.55197,-1.1756 -0.11073,-0.43953 -0.77398,-1.65138 -1.47389,-2.69301 -1.66624,-2.47973 -4.58726,-7.63387 -5.43533,-9.59081 -0.36931,-0.85212 -1.3411,-2.76078 -2.159,-4.24149 -0.81794,-1.48071 -1.81372,-3.32825 -2.21282,-4.10567 -0.39904,-0.7774 -1.0178,-1.80016 -1.37509,-2.27243 -0.35727,-0.47229 -0.65696,-0.97934 -0.66598,-1.12667 -0.018,-0.29163 -3.25475,-6.11163 -5.83658,-10.49453 -0.88979,-1.51048 -1.60766,-2.77857 -1.59546,-2.8181 0.0122,-0.0395 -0.3927,-0.86275 -0.89959,-1.82942 -0.50683,-0.96665 -0.92501,-1.81315 -0.92919,-1.88145 -0.004,-0.0682 -0.33533,-0.72308 -0.7358,-1.45478 -0.4005,-0.7317 -1.0073,-1.84962 -1.34827,-2.4848 -0.34094,-0.63518 -0.87685,-1.55662 -1.19097,-2.04765 -0.31414,-0.49102 -0.89072,-1.46961 -1.28161,-2.17463 -1.60348,-2.89169 -6.82567,-11.56436 -7.37158,-12.24201 -0.32293,-0.40083 -0.76055,-1.14937 -0.97227,-1.66343 -0.31718,-0.7702 -0.52988,-0.94026 -1.20864,-0.9671 -1.1548,-0.0457 -1.04757,0.56905 0.45058,2.58747 0.66749,0.89928 1.91879,2.84446 2.78059,4.32248 0.8618,1.47802 2.16022,3.60523 2.88562,4.72712 0.72544,1.1219 1.97353,3.19255 2.77337,4.60147 0.79986,1.40892 2.0624,3.62967 2.80569,4.93497 0.7433,1.30531 1.44862,2.63387 1.56795,2.95231 0.22127,0.59093 3.76674,7.08713 4.37245,8.01164 0.52464,0.80073 1.6356,2.72545 2.14262,3.71233 0.25413,0.49471 0.58489,1.07087 0.73496,1.28036 0.30713,0.42874 4.37163,7.6928 5.73625,10.25163 0.48937,0.91767 1.08034,1.99429 1.3131,2.39274 0.23273,0.3985 0.43643,0.94571 0.45299,1.21584 0.0167,0.27016 0.14468,0.55268 0.28438,0.62767 0.13978,0.075 0.42047,0.57167 0.62372,1.10389 0.34767,0.91045 2.0673,4.22851 2.7503,5.30699 0.17076,0.26964 0.64264,1.01608 1.04859,1.65875 0.40595,0.64267 0.9125,1.34632 1.12559,1.56343 0.21312,0.21711 0.39476,0.51925 0.4041,0.6716 0.009,0.15232 0.20431,0.41431 0.43328,0.58178 0.22895,0.16746 0.43342,0.58434 0.45442,0.92685 0.0209,0.34253 0.57489,1.59467 1.23082,2.78195 0.65593,1.18728 1.19674,2.22609 1.20182,2.30894 0.005,0.0828 0.34618,0.78226 0.75792,1.55385 0.4118,0.77163 0.75957,1.58028 0.77288,1.79733 0.0316,0.51602 1.75106,3.69981 2.09891,3.88639 0.14788,0.0793 0.27977,0.32395 0.29324,0.54378 0.0303,0.49356 2.90642,5.85493 3.69935,6.89574 0.31835,0.41787 0.81457,1.06839 1.10233,1.44578 0.28779,0.37738 0.5379,0.92866 0.55605,1.22505 0.0183,0.29639 0.1519,0.53172 0.29713,0.52281 0.14525,-0.009 0.27503,0.16237 0.28842,0.38098 0.0193,0.31596 2.6747,4.97921 4.37512,7.68323 0.72226,1.14855 1.83947,3.37963 2.02825,4.05069 0.19052,0.67732 0.14959,0.71981 -0.7452,0.77465 -1.25458,0.0769 -1.99359,-0.29233 -2.03809,-1.01826 -0.0201,-0.32567 -0.25998,-0.87338 -0.5338,-1.21708 -0.27381,-0.34369 -0.70926,-0.96985 -0.9675,-1.3914 -0.2582,-0.42156 -1.19229,-1.79574 -2.07584,-3.05374 -1.82941,-2.60474 -3.04612,-4.47145 -4.23632,-6.4999 -0.45419,-0.77403 -1.65574,-2.66861 -2.67018,-4.21017 -1.01441,-1.54156 -1.93489,-3.08434 -2.04496,-3.4284 -0.18367,-0.57428 -1.67614,-3.22313 -2.32365,-4.12371 -0.1506,-0.20946 -0.30176,-0.49841 -0.33549,-0.64214 -0.0755,-0.3211 -3.65287,-7.04403 -4.02977,-7.57288 -0.31347,-0.4399 -2.88258,-4.95785 -4.73389,-8.32496 -0.69795,-1.26937 -1.80872,-3.08866 -2.46833,-4.04289 -1.69212,-2.44793 -3.0585,-4.55611 -3.27808,-5.0567 -0.10308,-0.23498 -0.64074,-1.15634 -1.19459,-2.04741 -1.66685,-2.68164 -4.83235,-8.35141 -5.05566,-9.05542 -0.11491,-0.36232 -0.31867,-0.71731 -0.45273,-0.78926 -0.13404,-0.0719 -0.2545,-0.30908 -0.26784,-0.52668 -0.0279,-0.45458 -1.92167,-3.93655 -4.65791,-8.56364 -1.04002,-1.75868 -2.50941,-4.29291 -3.26517,-5.63164 -0.75575,-1.33873 -1.75845,-3.08341 -2.22776,-3.87693 -0.46932,-0.79352 -0.86678,-1.66382 -0.88633,-1.93377 -0.0183,-0.27006 -0.3764,-1.00662 -0.79566,-1.63699 -0.41928,-0.63038 -1.59075,-2.5268 -2.6036,-4.21425 -2.40173,-4.00127 -2.87356,-4.69306 -3.29245,-4.82646 -0.71382,-0.22732 -0.54904,0.65723 0.33782,1.81209 0.5039,0.65614 1.43142,2.19566 2.0611,3.42118 0.62963,1.22553 1.57935,2.67909 2.11045,3.22973 0.60698,0.62929 1.05535,1.4055 1.20706,2.09015 0.25794,1.16425 1.70111,3.89842 2.99841,5.6806 0.43559,0.59837 0.71808,1.22503 0.62797,1.39304 -0.0901,0.16802 0.0146,0.42558 0.23235,0.57236 0.2177,0.1468 0.86442,1.0735 1.43762,2.05894 0.57314,0.98543 1.66555,2.80237 2.4271,4.03765 0.76152,1.23523 1.39618,2.43892 1.41065,2.67512 0.0145,0.23623 0.41069,1.02314 0.88064,1.74828 0.46993,0.72514 1.02275,1.81896 1.22846,2.43104 0.38838,1.15549 1.45418,3.31479 2.44256,4.94845 0.31453,0.51989 0.5788,1.05551 0.58705,1.19001 0.0138,0.22398 0.53375,1.05048 2.2515,3.57986 0.34708,0.51104 0.89532,1.40487 1.21828,1.98591 0.32295,0.58101 0.71127,1.12239 0.8628,1.20365 0.15148,0.0813 0.69511,0.869 1.20796,1.74995 0.51279,0.88093 1.38017,2.23031 1.92749,2.99863 0.54731,0.76833 1.28383,2.03533 1.63721,2.81554 0.35341,0.7802 0.82733,1.6686 1.05294,1.9743 0.40108,0.54349 0.86288,1.5316 1.87452,4.00939 0.2758,0.67561 0.60259,1.22219 0.72575,1.21464 0.12319,-0.008 0.23162,0.11305 0.24114,0.26844 0.01,0.15538 0.38807,0.75841 0.84114,1.34011 0.45307,0.58166 0.92951,1.34971 1.05875,1.70627 0.1292,0.35657 1.69186,3.20488 3.47258,6.32977 1.78075,3.12489 3.24496,5.79986 3.25379,5.94455 0.009,0.14472 0.17452,0.41439 0.36809,0.59924 0.19357,0.18485 0.88376,1.25469 1.53374,2.37713 0.64997,1.12245 1.92138,3.1885 2.82551,4.59103 0.90414,1.40252 2.03393,3.18221 2.51008,3.9549 0.92556,1.50205 2.98757,4.36906 3.28707,4.56997 0.44903,0.30121 1.11872,2.21938 0.95137,2.72504 -0.29205,0.88246 -0.24689,0.94127 1.11916,1.47529 v -3e-5 c 1.9749,0.77203 3.54041,0.55874 4.89413,-0.66704 0.96782,-0.87631 1.85126,-2.50304 1.80133,-3.31775 -0.0337,-0.5505 -3.9176,-7.39185 -5.24557,-9.24002 -0.37428,-0.52088 -0.68504,-1.02321 -0.6907,-1.11583 -0.006,-0.0926 -0.39171,-0.55265 -0.85788,-1.02225 -0.46617,-0.46956 -0.85871,-1.03531 -0.87231,-1.25743 -0.0135,-0.22212 -0.38864,-1.05972 -0.83322,-1.86147 -0.44458,-0.80167 -0.82952,-1.57555 -0.85559,-1.71975 -0.0259,-0.1442 -0.87362,-1.73852 -1.88372,-3.54286 -1.0101,-1.80431 -1.84672,-3.44594 -1.8591,-3.64792 -0.0124,-0.20197 -0.12089,-0.41995 -0.2409,-0.48432 -0.46855,-0.25135 -3.90194,-6.55987 -3.94404,-7.24678 -0.0265,-0.43036 -0.59071,-1.38302 -1.70008,-2.86969 -0.35737,-0.47891 -0.66336,-1.09218 -0.67993,-1.36241 -0.0167,-0.27023 -0.14893,-0.48375 -0.29419,-0.47485 -0.14523,0.009 -0.27204,-0.11377 -0.28178,-0.27267 -0.01,-0.1589 -0.74258,-1.57525 -1.62806,-3.14745 -0.88553,-1.57221 -2.02602,-3.84705 -2.53502,-5.0551 -0.94457,-2.24178 -3.26636,-6.8759 -3.6721,-7.32972 -0.12359,-0.13822 -0.33385,-0.54284 -0.46776,-0.89911 -0.13391,-0.35628 -0.82846,-1.71599 -1.54321,-3.02167 -0.71474,-1.30569 -1.3032,-2.43423 -1.3077,-2.50749 -0.005,-0.0734 -0.26284,-0.62342 -0.57402,-1.22238 -1.51267,-2.91181 -1.79583,-3.50224 -2.31179,-4.82546 -0.30536,-0.78315 -1.12739,-2.46242 -1.82695,-3.73169 -2.19612,-3.98472 -2.47129,-4.55387 -3.48348,-7.20874 -1.69254,-4.43926 -5.46253,-12.46822 -6.84239,-14.57215 -0.40867,-0.62313 -0.75292,-1.29331 -0.76792,-1.48905 -0.023,-0.3293 -0.34018,-1.02086 -1.37748,-3.00387 -0.22169,-0.42379 -0.4986,-1.10437 -0.61507,-1.5124 -0.18066,-0.63308 -0.30499,-0.71203 -0.85006,-0.53914 -0.57613,0.18272 -0.64383,0.12171 -0.68942,-0.62202 -0.0412,-0.67212 0.30287,-1.23312 1.86163,-3.03513 1.05167,-1.21578 2.01729,-2.21684 2.14633,-2.22474 0.12904,-0.008 0.61822,-0.36594 1.08664,-0.79558 0.46839,-0.42963 1.22399,-1.1238 1.67921,-1.54272 0.45519,-0.41889 1.1431,-0.86188 1.5286,-0.98419 0.77147,-0.24466 0.89638,-0.63867 0.26554,-0.83741 -0.57926,-0.18248 -0.52785,-0.59358 0.0789,-0.63077 0.28225,-0.0173 0.67947,-0.30325 0.88312,-0.63555 0.32721,-0.5338 0.32211,-0.65206 -0.0465,-1.0124 -0.2295,-0.22432 -0.42886,-0.63642 -0.44598,-0.91548 -0.0159,-0.27914 -0.42375,-0.79313 -0.90614,-1.14249 l -0.87715,-0.63534 0.71864,-0.83568 c 0.70881,-0.82476 4.88013,-4.32236 5.91949,-4.96336 0.29432,-0.18154 0.61283,-0.26141 0.70774,-0.17748 0.0949,0.0839 0.45862,1.17448 0.80867,2.42366 0.51543,1.83985 0.73308,3.62529 1.14596,9.39757 0.46607,6.51586 0.53322,9.28005 0.3805,15.74583 -0.0435,1.84358 -0.13653,2.27503 -0.51017,2.37038 -0.41058,0.10481 -0.47326,-0.15279 -0.61981,-2.54394 -0.0897,-1.46313 -0.26546,-2.65369 -0.39048,-2.64603 -0.26971,0.0165 -0.42722,2.22051 -0.30223,4.25979 0.0485,0.79889 0.0246,3.61325 -0.0531,6.25437 -0.18706,6.34637 0.30292,8.55982 1.44992,6.55109 0.31355,-0.54908 0.31175,-0.72538 -0.0119,-1.13208 -0.29922,-0.37597 -0.3642,-1.00576 -0.2958,-2.86668 0.10559,-2.87252 0.21553,-3.58505 0.55663,-3.60596 0.14247,-0.009 0.26622,0.10297 0.27511,0.24822 0.009,0.14525 0.18251,0.25389 0.38603,0.24142 0.2858,-0.0175 0.33692,-0.45782 0.22463,-1.9356 -0.08,-1.0521 -0.0683,-3.88586 0.0262,-6.29724 0.23866,-6.08739 -0.60134,-23.11092 -1.23621,-25.05348 -0.65347,-1.9995 -0.61278,-2.29614 0.43413,-3.17186 0.52006,-0.43501 1.41033,-1.26103 1.97813,-1.83545 0.56779,-0.57442 1.47367,-1.36385 2.01311,-1.75424 1.67412,-1.2115 10.73144,-11.12967 12.94442,-14.17469 0.71223,-0.97998 0.93019,-1.13127 1.26973,-0.88288 0.33216,0.24294 0.47467,0.19837 0.7519,-0.23403 0.18814,-0.29342 0.2812,-0.66647 0.20701,-0.82913 -0.0742,-0.16269 0.42164,-0.91234 1.10164,-1.66576 0.68001,-0.75339 1.6174,-2.08956 2.08309,-2.96951 0.79113,-1.49487 0.82947,-1.69754 0.57984,-3.08396 -0.14692,-0.81622 -0.49895,-2.18555 -0.7819,-3.04296 -0.28294,-0.85743 -0.538,-2.2278 -0.56713,-3.04473 -0.0569,-1.60155 -0.48541,-2.85506 -0.96581,-2.82562 -0.17672,0.0108 -0.21429,0.20277 -0.0919,0.46951 0.44408,0.96737 0.58508,1.88598 0.29221,1.90392 -0.16338,0.01 -0.31046,-0.13007 -0.32557,-0.31139 -0.0673,-0.77402 -2.31455,-4.16477 -2.74413,-4.14143 -0.5045,0.0289 -1.30191,-1.19302 -2.82771,-4.330984 -0.13768,-0.283152 -0.68863,-1.501881 -1.22422,-2.708312 -0.5356,-1.206418 -1.09744,-2.305198 -1.24831,-2.44175 -0.42105,-0.381169 0.151,1.9333 0.77452,3.13349 1.20917,2.327571 1.51675,2.989036 1.53146,3.294706 0.0188,0.38658 -2.19789,-1.710834 -4.54742,-4.302716 -0.93906,-1.03591 -2.10839,-2.280179 -2.59869,-2.764919 -0.49024,-0.48468 -1.97765,-2.056773 -3.30496,-3.493532 -1.32731,-1.43677 -3.11166,-3.30254 -3.96523,-4.146341 -0.85357,-0.84378 -2.24226,-2.375789 -3.08623,-3.404431 -2.25872,-2.753048 -3.68499,-3.63605 -6.42334,-3.976 -1.22415,-0.15199 -2.64483,-0.30485 -3.15725,-0.33977 -0.51242,-0.0349 -2.19816,-0.291528 -3.74608,-0.570309 -1.54792,-0.278821 -3.47205,-0.532461 -4.27582,-0.56375 -0.80381,-0.0314 -1.60034,-0.152789 -1.77012,-0.269981 -0.16976,-0.117168 -2.1246,-0.109739 -4.34435,0.01619 -4.34824,0.246952 -5.57943,0.102111 -5.06889,-0.59591 0.16481,-0.22529 0.78319,-0.56819 1.37396,-0.761918 0.59076,-0.193712 1.64436,-0.676781 2.34116,-1.073322 0.69686,-0.39651 1.51207,-0.735709 1.81195,-0.754079 0.29988,-0.01839 0.99361,-0.485589 1.54135,-1.03778 0.54775,-0.55217 1.45222,-1.34026 2.0102,-1.751481 2.19112,-1.61481 3.97754,-4.624319 4.53938,-7.647098 0.56875,-3.060042 0.75562,-3.9423 1.17845,-5.573671 0.22096,-0.852432 0.39355,-1.680181 0.38378,-1.839211 -0.0172,-0.27854 0.48178,-1.780098 0.90525,-2.72492 1.02248,-2.281359 1.26029,-3.65987 1.03722,-6.011299 -0.12523,-1.320609 -0.30097,-2.562341 -0.39071,-2.75939 -0.11131,-0.244602 0.0549,-0.384079 0.5239,-0.440081 0.95652,-0.114128 1.21473,-0.492181 0.73313,-1.07264 -0.33483,-0.40355 -0.50144,-0.428871 -1.00383,-0.151259 -0.90948,0.502579 -2.67017,1.22088 -5.26325,2.146541 -1.94214,0.69333 -3.33007,0.951417 -8.25584,1.536268 -7.58714,0.900851 -8.13557,0.86827 -8.01542,-0.478988 0.0101,-0.105982 0.0486,-0.824082 0.087,-1.595811 0.0742,-1.48745 0.54321,-6.46865 0.92323,-9.805511 0.12542,-1.101149 0.3433,-2.25051 0.48393,-2.554129 0.14062,-0.303601 0.39722,-1.279051 0.57023,-2.167491 0.17304,-0.88845 0.46127,-1.97689 0.64079,-2.418779 0.17947,-0.441891 0.51147,-1.291831 0.73745,-1.888851 0.22601,-0.59703 0.65,-1.458 0.94255,-1.91332 0.29252,-0.45531 0.76076,-1.43245 1.0401,-2.17144 l 0.50787,-1.34359 -0.76073,-0.57724 c -0.71551,-0.54299 -0.73332,-0.59881 -0.30639,-0.95301 0.42905,-0.35599 0.41974,-0.39204 -0.16899,-0.66218 -0.54363,-0.24945 -0.70728,-0.19333 -1.29415,0.44225 -0.36957,0.40021 -0.79224,0.73507 -0.93911,0.74407 -0.25625,0.0157 -1.26736,2.58643 -1.23362,3.13645 0.009,0.14645 -0.20156,0.47735 -0.46802,0.73538 -0.26647,0.25801 -0.72531,1.41619 -1.0196,2.57351 -0.46464,1.82723 -1.01672,3.64399 -1.70876,5.62221 -0.20095,0.57448 -0.52314,2.25429 -0.77126,4.02347 -0.0825,0.58824 -0.42675,2.100401 -0.76483,3.36037 -0.52226,1.94646 -0.58759,2.71207 -0.44165,5.093622 l 0.1718,2.802829 -0.81106,-0.181721 c -0.44603,-0.0999 -2.24475,-0.21912 -3.99708,-0.264999 -3.19191,-0.0836 -4.78841,-0.315751 -5.0881,-0.740201 -0.0881,-0.124748 0.053,-0.71623 0.31343,-1.314569 0.26043,-0.598321 0.4555,-1.360151 0.43211,-1.69256 -0.0227,-0.33245 0.41955,-1.706071 0.98248,-3.052711 0.56296,-1.34665 1.44095,-3.48796 1.9512,-4.75849 1.20375,-2.99731 2.9723,-6.09093 5.26103,-9.2026 1.01068,-1.37409 1.96111,-2.62519 2.11227,-2.78025 0.15116,-0.15506 0.64175,-0.94601 1.08979,-1.75771 0.54634,-0.9898 1.11133,-1.62213 1.71567,-1.9193 0.49561,-0.24371 1.27915,-0.73508 1.74148,-1.09249 0.70306,-0.54368 1.11112,-0.65041 2.49442,-0.65093 0.90966,-4.5e-4 1.80588,0.0423 1.99133,0.0949 0.48712,0.13794 0.44691,0.63583 -0.0539,0.66653 -0.57277,0.0351 -0.29942,0.84882 0.92779,2.76271 1.17578,1.83361 3.03477,5.49934 3.50629,6.91327 0.19193,0.57547 0.85833,1.78713 1.48061,2.69259 0.62227,0.905451 1.23555,1.938261 1.363,2.29494 0.12747,0.35668 0.58142,1.40243 1.00859,2.32391 0.71858,1.549981 0.78174,1.91326 0.84566,4.85214 0.0766,3.5228 0.26733,4.4455 0.93633,4.53232 0.47056,0.061 1.7797,-1.310338 1.55485,-1.628809 -0.0709,-0.100341 -0.0345,-0.63032 0.0811,-1.17764 0.32353,-1.53137 -0.71573,-5.01221 -3.26507,-10.935311 -0.30239,-0.70243 -0.35501,-1.09716 -0.17401,-1.3018 0.14285,-0.16149 0.23799,-0.64458 0.21169,-1.07381 -0.0468,-0.76363 -0.0359,-0.7707 0.50967,-0.33462 0.3066,0.2451 0.56996,0.64999 0.58531,0.90019 0.0153,0.25022 0.21524,0.59226 0.44418,0.75973 0.22895,0.167471 0.42603,0.46369 0.43799,0.65863 0.0119,0.19493 0.36584,0.89123 0.7865,1.546951 1.13054,1.76227 1.34649,2.486989 1.77356,5.9607 0.38483,3.130379 0.81626,4.32378 1.54778,4.278949 0.50258,-0.0308 0.65477,-0.787509 0.28684,-1.42737 -0.17674,-0.307369 -0.44664,-1.922719 -0.59952,-3.589979 -0.29186,-3.1839 -0.71374,-4.32744 -2.55794,-6.932571 -0.37153,-0.5248 -0.86347,-1.36019 -1.09334,-1.85637 -0.22989,-0.496189 -0.83748,-1.32121 -1.34974,-1.83341 -0.51231,-0.51222 -1.46921,-1.82536 -2.12656,-2.91809 -3.50256,-5.82244 -5.69445,-7.5848 -9.25222,-7.43919 z m -0.0633,4.29796 c 0.0542,0.0136 0.0489,0.17028 0.0337,0.48306 -0.0332,0.6875 -0.45562,1.671531 -1.09913,2.55973 -0.22112,0.30513 -0.62318,1.0435 -0.89348,1.641101 -0.39483,0.872869 -0.49879,0.96818 -0.5284,0.484879 -0.0417,-0.681129 1.40285,-3.984549 2.09564,-4.792179 0.22352,-0.2606 0.33737,-0.390161 0.39161,-0.376581 z m 7.28946,3.51029 c 0.0371,0.009 0.10998,0.151801 0.24413,0.43546 0.29826,0.631021 0.26381,0.946581 -0.0709,0.65049 -0.10279,-0.0909 -0.19433,-0.413319 -0.20388,-0.71648 -0.008,-0.253429 -0.006,-0.37836 0.0307,-0.36947 z m 0.96715,2.087261 c 0.0765,-0.0117 0.20633,0.16549 0.3098,0.43351 0.11825,0.30632 0.15957,0.61985 0.0914,0.69696 -0.0682,0.0771 -0.22103,-0.110381 -0.33927,-0.41669 -0.11827,-0.306321 -0.15912,-0.620401 -0.0909,-0.697521 0.008,-0.01 0.018,-0.0146 0.029,-0.0163 z m -11.31091,1.50398 c 0.22257,-0.0657 -0.006,1.9907 -0.38155,3.24369 -0.17831,0.5941 -0.38532,1.56107 -0.46009,2.14884 -0.0748,0.58775 -0.31477,2.33058 -0.53353,3.87325 -0.21876,1.54268 -0.45738,3.94301 -0.52993,5.33407 -0.0726,1.391051 -0.21757,2.773269 -0.32227,3.071269 -0.10464,0.298 -0.20732,0.8318 -0.22809,1.18613 -0.0209,0.35434 -0.1955,0.7069 -0.38841,0.783841 -0.26953,0.107489 -0.31964,-0.0577 -0.2172,-0.713589 0.0968,-0.619271 0.0175,-0.93182 -0.28937,-1.139921 -0.37486,-0.254301 -0.39995,-0.588459 -0.22067,-2.94998 0.19495,-2.56739 0.49488,-4.49329 1.18775,-7.62757 0.38727,-1.75206 2.02009,-6.76949 2.33264,-7.16758 0.019,-0.0241 0.0359,-0.0381 0.0507,-0.0425 z m -15.33567,19.220029 c 0.0958,-0.008 0.1919,-5.29e-4 0.2872,0.02331 0.82654,0.208042 3.05068,0.424551 5.81465,0.565722 1.24317,0.0635 3.10353,0.250499 4.13422,0.415538 3.90403,0.625031 5.33754,0.672143 8.76527,0.288071 1.88241,-0.21095 4.66648,-0.507371 6.18694,-0.65877 3.25422,-0.32402 3.96684,-0.487508 6.50505,-1.49161 2.45295,-0.969658 2.88745,-0.995839 2.93764,-0.17703 0.0214,0.351001 -0.09,0.690001 -0.24739,0.753451 -0.20555,0.0828 -0.19113,0.39148 0.0512,1.097561 0.32496,0.946859 0.30607,1.320069 -0.28924,5.654299 -0.0903,0.657669 -0.58338,2.160749 -1.27029,3.872849 -0.45673,1.138409 -0.50012,1.173371 -0.78235,0.63246 -0.20452,-0.39206 -0.23231,-1.232239 -0.0888,-2.66554 0.1152,-1.15117 0.10684,-2.36801 -0.0182,-2.704049 -0.53083,-1.426512 -2.07463,-2.156672 -2.80779,-1.32779 -0.48572,0.549169 -0.30779,0.94969 0.47617,1.07048 1.47847,0.227769 1.56147,0.3899 1.15687,2.267709 -0.20148,0.935011 -0.49856,2.073791 -0.66037,2.53025 -0.404,1.13964 0.003,1.706341 1.17035,1.634721 1.05196,-0.0645 1.1447,0.236378 0.60262,1.951169 -0.18796,0.594691 -0.40987,1.659041 -0.49287,2.36569 -0.0847,0.720881 -0.57462,2.057271 -1.11654,3.04437 -0.53126,0.9676 -0.96184,1.826792 -0.95676,1.90954 0.031,0.505489 -4.85881,5.15537 -5.68915,5.41005 -0.39894,0.12233 -1.26852,0.537101 -1.93268,0.921451 -0.6641,0.38432 -1.41933,0.712919 -1.67833,0.728789 -0.25897,0.0164 -0.82841,0.2788 -1.26531,0.58338 l -3e-5,-5.29e-4 c -0.51046,0.35579 -1.41994,0.62439 -2.54418,0.751289 -2.08037,0.234961 -1.91841,0.261351 -4.31184,-0.703357 -1.0464,-0.421762 -2.36937,-0.89621 -2.93957,-1.054132 -1.82713,-0.506108 -3.06067,-1.693749 -4.56658,-4.395258 -2.07279,-3.718531 -2.51843,-4.573112 -2.53629,-4.864502 -0.009,-0.145569 -0.42328,-1.033349 -0.92083,-1.973099 -1.88214,-3.555151 -2.21406,-4.77697 -2.52111,-9.28842 -0.22016,-3.234132 -0.18375,-4.29723 0.16013,-4.685991 0.0944,-0.10674 0.15462,-0.476019 0.13348,-0.821031 -0.0504,-0.822809 0.58438,-1.60673 1.25465,-1.66116 z m 5.44788,3.409331 c -0.27305,0.01871 -0.61114,0.11571 -1.01082,0.292349 -0.35486,0.15681 -1.11874,0.30035 -1.69778,0.31891 -1.25227,0.0399 -2.75283,0.590812 -2.72761,1.00175 0.0101,0.16094 -0.22614,0.586621 -0.52449,0.945951 l -0.54242,0.653479 0.60161,0.53213 c 0.33097,0.29278 1.2483,0.765691 2.03854,1.050832 v -3.2e-5 c 1.3386,0.482981 2.65422,0.544521 2.6122,0.122071 -0.0103,-0.10083 -0.0265,-0.3121 -0.036,-0.46945 -0.01,-0.15775 -0.16272,-0.2222 -0.34017,-0.144309 -0.35201,0.154498 -2.90627,-0.92451 -2.92534,-1.23567 -0.0246,-0.401611 1.1807,-1.048621 2.43805,-1.30864 1.94818,-0.402902 2.59461,-0.533302 2.83321,-0.57177 0.11835,-0.0191 0.16077,-0.299482 0.0943,-0.62344 -0.0833,-0.40594 -0.35864,-0.594781 -0.81378,-0.564161 z m 16.10024,-0.18166 c -0.44022,0.019 -0.94049,0.176461 -1.8301,0.525309 -0.93419,0.3663 -2.07285,0.95204 -2.53061,1.30188 -1.55009,1.18464 -0.96888,2.877272 1.19801,3.488592 0.44508,0.125568 1.4337,0.19944 2.19697,0.164078 1.06658,-0.0493 1.38213,-0.15554 1.36347,-0.459959 -0.0161,-0.261581 -0.28564,-0.380111 -0.79436,-0.34893 -0.88048,0.054 -3.09059,-0.672859 -3.40648,-1.120251 -0.11628,-0.164719 -0.0501,-0.48164 0.14684,-0.70431 0.46303,-0.5235 4.00693,-1.97135 4.69022,-1.916248 0.91689,0.074 0.73343,-0.570791 -0.23492,-0.825881 -0.29239,-0.0771 -0.53491,-0.11562 -0.79904,-0.10428 z m -11.47668,5.48154 c -1.26984,0.094 -2.8812,0.98812 -2.83837,1.686779 0.0372,0.60724 -0.45733,1.494401 -1.5925,2.856082 -0.72453,0.86796 -0.83402,1.174898 -0.66453,1.845559 0.24443,0.967171 1.18423,1.657299 2.88957,2.122151 0.87403,0.238469 1.83346,0.27237 3.10589,0.109929 2.03446,-0.259659 2.47907,-0.51027 1.93532,-1.089361 -0.28641,-0.30507 -0.73599,-0.325358 -2.2507,-0.10333 -1.58782,0.232741 -2.10312,0.199231 -3.19514,-0.205928 -1.20253,-0.446151 -1.2918,-0.539512 -1.16937,-1.222132 0.21433,-1.195419 1.32177,-2.51311 3.22389,-3.83572 2.01046,-1.39796 2.3028,-1.984298 1.07334,-2.152758 -0.16166,-0.0222 -0.336,-0.02471 -0.5174,-0.0113 z m -0.33094,11.57973 c -1.19978,0.0765 -1.51717,0.226211 -2.11936,0.688009 -1.19349,0.91522 -1.47498,2.186011 -0.68932,3.113961 0.77613,0.916741 2.26261,1.210781 4.64291,0.918649 1.08529,-0.133138 2.51494,-0.16215 3.17706,-0.0637 1.84899,0.273888 2.19178,0.22357 3.83043,-0.56197 1.60467,-0.76921 2.34412,-1.59553 2.39514,-2.676441 0.0233,-0.49594 -0.12901,-0.686051 -0.64135,-0.800441 -1.74927,-0.390559 -6.55418,-0.751168 -9.05852,-0.679619 -0.63912,0.0182 -1.13707,0.0359 -1.53699,0.0615 z m 0.48279,1.786631 c 0.50707,-0.01111 0.90974,0.0522 0.92006,0.220588 0.009,0.145251 -0.45225,0.292791 -1.02468,0.327882 -1.30863,0.0802 -1.54792,0.480028 -0.56219,0.93894 0.61251,0.28511 0.65649,0.355389 0.22897,0.365448 -1.31892,0.0306 -1.90904,-0.444598 -1.63441,-1.316339 0.0921,-0.292219 1.22712,-0.517919 2.07225,-0.536519 z m 8.80684,-0.495271 c 0.092,-0.0021 0.1724,0.01741 0.21897,0.0585 0.0931,0.0824 -0.059,0.154321 -0.33811,0.160002 -0.30845,0.006 -0.37518,-0.0523 -0.16968,-0.14958 0.093,-0.044 0.19682,-0.0672 0.28882,-0.069 z m -3.94512,0.50687 c 0.092,-0.0021 0.1724,0.01741 0.21897,0.0585 0.0931,0.0824 -0.059,0.154311 -0.33814,0.160002 -0.30843,0.006 -0.37516,-0.0525 -0.16965,-0.14959 0.093,-0.044 0.19682,-0.0672 0.28882,-0.069 z m -3.7134,1.2553 c 0.3729,-0.02289 0.59597,0.0788 0.51289,0.233651 -0.0809,0.150749 -0.44392,0.292279 -0.80703,0.314539 -0.37291,0.02281 -0.59651,-0.0788 -0.51343,-0.233609 0.0809,-0.150751 0.44442,-0.29233 0.80757,-0.314581 z m 19.38035,21.65156 c -0.0341,-7.93e-4 -0.0604,0.007 -0.0767,0.02479 -0.23987,0.271229 0.23712,0.866809 1.11228,1.388742 1.13348,0.675942 5.77125,4.876162 8.06561,7.304302 3.46245,3.664419 3.81908,4.038179 4.11422,4.313239 0.16492,0.15371 0.55145,0.6218 0.85897,1.04028 0.93186,1.26805 1.26704,1.59052 5.38943,5.18356 l 3.97635,3.46589 -0.36656,0.84514 c -0.20174,0.46475 -0.9077,1.49724 -1.56892,2.29443 -0.66122,0.79725 -1.18812,1.68249 -1.17065,1.96718 0.0317,0.51726 -2.16686,3.78831 -4.09234,6.08826 -0.70332,0.84009 -1.15946,1.1745 -1.46801,1.0773 -0.5578,-0.17575 -1.54141,0.73417 -1.06813,0.98806 0.23424,0.12564 0.22963,0.31335 -0.018,0.71765 -0.41209,0.67242 -3.0915,3.16644 -3.42363,3.1868 -0.13253,0.008 -0.44156,0.26564 -0.68667,0.57226 -0.24508,0.3066 -0.60526,0.56724 -0.80063,0.57921 -0.19534,0.012 -0.34446,0.20006 -0.3311,0.41792 0.0358,0.58456 0.61828,0.44796 1.7277,-0.40513 2.33434,-1.7951 5.19139,-4.81415 8.024,-8.47887 0.89005,-1.1515 1.76839,-2.02761 2.0502,-2.04488 0.65606,-0.0402 3.00281,-2.69522 2.96259,-3.35165 -0.009,-0.15139 0.0833,-0.28106 0.20545,-0.28855 0.12216,-0.007 0.51469,-0.64038 0.87265,-1.40633 1.01973,-2.18172 0.72139,-3.20433 -1.4777,-5.06191 -0.95925,-0.81023 -1.94739,-1.56468 -2.19599,-1.67698 -0.68199,-0.30803 -3.94718,-3.18278 -3.96925,-3.49374 -0.0103,-0.14938 -0.59309,-0.77087 -1.29561,-1.38111 -1.73363,-1.50583 -3.68057,-4.035 -3.30822,-4.29791 0.48712,-0.34394 -0.0593,-1.127029 -0.65101,-0.932939 -0.41111,0.13489 -1.23986,-0.466439 -3.77592,-2.7383 -1.78715,-1.60097 -3.68337,-3.176442 -4.21354,-3.501012 -0.92287,-0.56497 -2.12516,-1.442561 -2.96574,-2.165122 -0.16254,-0.139761 -0.33269,-0.226891 -0.43503,-0.230651 z m -30.07119,5.530803 c -0.0658,0.01111 -0.14637,0.0503 -0.24132,0.117289 -0.14904,0.105223 -0.25744,0.411782 -0.24091,0.681601 0.0164,0.26982 -0.0794,0.537181 -0.21315,0.593961 -0.13372,0.0568 -0.28008,0.403918 -0.32549,0.771178 -0.0454,0.367271 -0.25064,1.27449 -0.4563,2.016071 -0.87693,3.16215 -1.2945,6.75502 -0.83251,7.16364 0.41413,0.36631 0.53293,0.0575 0.74004,-1.92265 0.27067,-2.58767 1.08368,-6.838969 1.56522,-8.18396 0.29732,-0.83046 0.28946,-1.28692 0.004,-1.23713 z m -0.87839,9.90372 c -0.22804,-0.005 -0.3093,0.74185 -0.53176,3.68261 -0.2096,2.77113 -0.13626,4.80125 0.47107,13.09257 0.0851,1.16114 0.1284,3.00742 0.0966,4.10281 -0.10272,3.54387 -0.30798,7.28501 -0.41011,7.47534 -0.0548,0.10204 -0.1283,0.58791 -0.1637,1.07965 -0.0354,0.49172 -0.19716,1.78168 -0.35964,2.86648 -0.16249,1.08481 -0.35322,3.87117 -0.42355,6.19167 -0.0703,2.32051 -0.23024,4.44247 -0.35557,4.71555 -0.12528,0.27308 -0.26228,1.8634 -0.30478,3.53409 -0.0425,1.67067 -0.18375,3.37841 -0.31361,3.79505 -0.12983,0.41665 -0.16817,1.60974 -0.0855,2.65086 0.0827,1.04112 0.0978,4.10296 0.0334,6.80409 -0.0644,2.70114 -0.11549,6.04428 -0.11367,7.42921 0.003,1.38492 -0.069,4.00937 -0.15716,5.83258 -0.10017,2.07029 -0.0573,3.54336 0.11409,3.92261 v 3e-5 c 0.17258,0.38181 0.44386,0.56374 0.73056,0.49056 0.38579,-0.0985 0.45689,-0.54436 0.46133,-2.89703 0.005,-2.58003 -0.11819,-10.31673 -0.21267,-13.37039 -0.0402,-1.30141 0.12245,-5.38247 0.38187,-9.56628 0.0726,-1.1708 0.17185,-3.21922 0.22014,-4.55195 0.0483,-1.33273 0.22428,-3.13281 0.39163,-4.0002 0.16735,-0.86739 0.29356,-2.94815 0.27991,-4.62394 -0.0138,-1.67579 0.0159,-3.23363 0.0659,-3.46147 0.05,-0.22784 0.15373,-1.24812 0.23019,-2.26729 0.0765,-1.01918 0.26062,-2.6355 0.40942,-3.59227 0.1488,-0.95679 0.29413,-2.69533 0.32289,-3.86345 0.0288,-1.16812 0.13629,-2.90435 0.23932,-3.85833 0.10303,-0.95396 0.0802,-3.75579 -0.0508,-6.22626 -0.13094,-2.47047 -0.17584,-5.08135 -0.0998,-5.80183 0.12597,-1.19339 0.0973,-1.29141 -0.32115,-1.10068 -0.43021,0.19605 -0.45897,0.0201 -0.45561,-2.77924 0.003,-1.64375 0.0878,-3.51987 0.19079,-4.1691 0.12483,-0.78455 0.0927,-1.26442 -0.0949,-1.43036 -0.0719,-0.0635 -0.13195,-0.10452 -0.18457,-0.10569 z m 71.81435,6.52129 c 0.0161,-5.3e-4 0.0319,0.003 0.0473,0.0116 0.12679,0.068 0.34179,0.60059 0.47741,1.1838 0.185,0.79506 0.14846,1.18377 -0.1466,1.55287 -0.21646,0.27079 -0.38672,0.60873 -0.37799,0.7511 0.009,0.14237 -0.14462,0.50037 -0.34059,0.79541 -0.35,0.52677 -0.35732,0.52643 -0.39855,-0.0154 -0.0233,-0.30344 0.0892,-1.10925 0.24956,-1.79061 0.16034,-0.68135 0.23116,-1.2922 0.15756,-1.3573 -0.21035,-0.18605 0.0902,-1.12397 0.33189,-1.13142 z m -27.81231,14.13069 c -0.0709,0.0144 -0.18572,0.11137 -0.36603,0.29578 -0.25088,0.25668 -0.56557,0.47433 -0.69921,0.48554 -0.13367,0.0102 -0.69345,0.4578 -1.24376,0.99417 -0.5503,0.53635 -0.85918,0.97079 -0.68633,0.96621 0.52012,-0.0154 3.11182,-2.14098 3.09825,-2.54092 -0.005,-0.14692 -0.032,-0.21515 -0.1029,-0.20078 z m -29.77267,12.14157 c 1.18624,-0.0941 1.28874,0.003 1.76237,0.68413 0.30509,0.43875 0.5049,0.89031 0.44413,1.00359 -0.0608,0.11331 0.0151,0.27301 0.16827,0.3552 0.15322,0.0822 0.29919,0.48912 0.32462,0.90376 0.0355,0.5798 -0.1982,0.95724 -1.01232,1.63646 -2.50773,2.09219 -4.51245,0.63542 -4.1751,-3.03432 l 0.12282,-1.33293 1.78641,-0.16489 c 0.21794,-0.0204 0.40936,-0.0375 0.5788,-0.051 z m 3.4511,4.78773 c 0.10988,0.007 0.16295,0.10756 0.17454,0.29685 0.0111,0.18204 0.4087,0.65513 0.8835,1.05121 0.47477,0.39609 1.22896,1.3709 1.67611,2.16599 l 0.81288,1.44539 -0.92316,0.38793 c -1.52255,0.64003 -2.09262,0.76987 -2.11037,0.47985 -0.009,-0.15103 -0.33023,-0.60405 -0.71353,-1.00675 -0.38328,-0.40271 -0.92919,-1.30003 -1.21303,-1.99349 l -0.51631,-1.26062 0.83396,-0.78735 c 0.57135,-0.53959 0.91229,-0.79021 1.09541,-0.77901 z m 16.99545,4.83725 c 0.0853,0.0148 0.23815,0.13357 0.49644,0.36203 0.68802,0.60859 0.64143,0.91867 -0.0853,0.56853 -0.26165,-0.12607 -0.48808,-0.42828 -0.50295,-0.67121 -0.0114,-0.18551 0.006,-0.27416 0.0918,-0.25935 z m 13.41938,0.14728 c -0.34184,0.0107 -0.39762,1.40276 -0.2014,4.60413 0.13274,2.16571 0.27649,3.89615 0.31956,3.84532 0.34362,-0.40569 0.38537,-8.07041 0.0456,-8.37095 -0.0606,-0.0536 -0.11491,-0.08 -0.16375,-0.0785 z m -12.6832,1.98935 c 0.45193,-0.0581 1.16742,0.38619 1.18867,0.85233 0.023,0.5068 -2.80586,2.66955 -4.17211,3.18971 -0.56989,0.21695 -1.46249,0.70018 -1.98337,1.07417 -0.57724,0.41453 -1.35194,0.70519 -1.98393,0.74392 -0.91559,0.0561 -1.02386,-7.9e-4 -0.92808,-0.48675 0.0669,-0.33962 0.39921,-0.6276 0.86823,-0.75165 0.46358,-0.12258 0.8844,-0.48293 1.07929,-0.92402 0.35409,-0.80143 3.90935,-3.17617 4.84042,-3.23324 0.30983,-0.019 0.68395,-0.17095 0.83148,-0.33777 0.0644,-0.0729 0.15513,-0.11328 0.2594,-0.1267 z m -12.29304,5.92246 c 0.33782,-0.0207 0.617,1.64375 0.34104,2.03347 -0.13491,0.19051 -0.41473,0.35677 -0.62142,0.36943 -0.28988,0.0178 -0.34878,-0.20569 -0.25771,-0.97825 0.13539,-1.14883 0.23246,-1.40592 0.53809,-1.42465 z m 11.03555,8.47358 c 0.0338,-0.0228 0.10777,0.0154 0.22302,0.0997 0.20511,0.15 0.44664,0.56264 0.53719,0.91712 0.0905,0.35448 0.0625,0.65111 -0.0626,0.65877 -0.12506,0.008 -0.22934,-0.0169 -0.23161,-0.0541 -0.003,-0.0372 -0.14198,-0.45612 -0.31025,-0.93103 -0.15759,-0.4448 -0.21201,-0.65236 -0.15568,-0.69043 z m -50.69427,5.62052 c -0.30795,0.0189 -0.51485,0.45342 -0.57969,1.21905 -0.0201,0.23766 -0.24613,0.70819 -0.50233,1.04557 -0.70995,0.93487 -1.766,3.49717 -1.72398,4.18279 0.0206,0.33523 -0.2141,1.51326 -0.5214,2.61805 -0.68183,2.45123 -0.57461,3.39508 0.41783,3.67514 0.59967,0.16925 0.87331,0.0632 1.68313,-0.65091 0.53187,-0.46902 1.18561,-0.94767 1.45279,-1.06392 0.44956,-0.19564 0.4788,-0.10689 0.38883,1.19129 -0.0535,0.77145 -0.23815,2.15939 -0.40999,3.08441 -0.28967,1.5597 -0.27336,1.76766 0.22181,2.85879 0.61048,1.34527 1.87159,2.18337 2.82814,1.88 0.32946,-0.10445 0.75604,-0.0752 0.94783,0.0652 0.19182,0.14029 0.88376,0.26753 1.5379,0.28263 l -5.3e-4,5.3e-4 c 1.6706,0.0386 2.45636,-0.13872 2.76831,-0.62528 0.14803,-0.23086 0.45707,-0.4313 0.68666,-0.44537 0.47296,-0.029 0.76593,-0.46338 0.83864,-1.24323 0.0273,-0.2926 0.21353,-0.7174 0.41381,-0.94383 0.32018,-0.36198 0.36747,-0.35692 0.39187,0.0412 0.0363,0.59159 0.71922,0.54286 0.91802,-0.0663 0.88004,-2.69567 1.66194,-13.15703 0.98032,-13.11526 -0.23379,0.0143 -0.58235,3.50266 -0.61272,6.12922 -0.0328,2.83902 -0.49882,4.33316 -1.80422,5.78803 -0.63678,0.70967 -1.23307,1.29536 -1.32539,1.30101 -0.0922,0.006 -0.13428,-0.97587 -0.0933,-2.18118 0.13131,-3.85963 0.17347,-4.09772 1.2358,-6.97818 0.3954,-1.07175 0.32966,-2.22919 -0.12041,-2.12516 -0.14375,0.0333 -0.48719,1.02921 -0.76367,2.21301 -0.38785,1.66063 -0.62772,2.19401 -1.04975,2.33511 -0.33304,0.11129 -0.67648,0.0307 -0.87725,-0.20615 -0.21405,-0.25257 -0.38431,-0.2872 -0.48546,-0.0986 -0.37742,0.70366 -0.60181,0.19523 -0.59102,-1.33939 0.0126,-1.79507 -0.35655,-1.39816 -0.50904,0.54739 -0.0437,0.5569 -0.2063,1.9153 -0.36123,3.01826 -0.15492,1.10294 -0.31745,2.3654 -0.36081,2.80544 -0.14405,1.46091 -0.54328,3.4757 -0.74069,3.73685 -0.11421,0.15107 -0.43652,0.0642 -0.77964,-0.21006 -0.64734,-0.51747 -0.65309,-0.35021 0.14876,-4.23797 0.95549,-4.63253 1.34943,-7.13475 1.15072,-7.31051 -0.32374,-0.28638 -0.8804,0.85301 -0.83498,1.70843 0.0237,0.44451 -0.0402,1.23126 -0.14192,1.74778 -0.1017,0.51651 -0.374,1.96463 -0.60526,3.21805 -0.73431,3.9799 -0.89089,4.56095 -1.23716,4.58217 -0.4221,0.0259 -0.43197,-0.1077 -0.0576,-0.80361 0.24338,-0.45234 0.22621,-0.59112 -0.0939,-0.76411 -0.4369,-0.23608 -0.3975,-0.62344 0.65349,-6.4522 0.52101,-2.88955 0.51662,-4.23617 -0.0133,-4.20369 -0.40601,0.0249 -1.31143,1.77042 -1.22562,2.36299 0.056,0.38674 -0.16415,0.79486 -0.63468,1.17532 -1.01392,0.81979 -2.07302,1.27521 -2.09593,0.90142 -0.01,-0.16196 -0.21418,-0.42001 -0.45402,-0.5738 -0.37459,-0.24021 -0.41528,-0.55245 -0.28792,-2.21429 0.1648,-2.15044 0.43797,-2.72708 1.21843,-2.57326 0.43894,0.0865 0.5184,-0.0313 0.47702,-0.70642 -0.0469,-0.7649 0.33532,-3.08999 0.67844,-4.12754 0.0941,-0.28461 0.0368,-0.46615 -0.14386,-0.45507 z m 66.58396,3.13853 c 0.005,-7.9e-4 0.0111,0.001 0.0169,0.006 0.092,0.0813 0.19987,0.76396 0.24001,1.51676 0.0403,0.75279 0.0114,1.43872 -0.0645,1.52453 -0.0758,0.0858 -0.1841,-0.5963 -0.24048,-1.5162 -0.0529,-0.8624 -0.0307,-1.51956 0.048,-1.53128 z m -59.31339,7.70039 c 0.022,-2.6e-4 0.0433,0.004 0.0631,0.0153 0.13043,0.07 0.10245,0.31178 -0.0623,0.53707 -0.16477,0.2253 -0.31264,0.67084 -0.32812,0.99033 -0.0155,0.31955 -0.13181,1.15404 -0.2586,1.85434 -0.1268,0.70028 -0.34314,1.28016 -0.48122,1.28861 -0.38894,0.0238 -0.63482,-0.72536 -0.36352,-1.10794 0.1337,-0.18857 0.3043,-0.76387 0.3793,-1.27873 0.15917,-1.0925 0.72127,-2.29299 1.05144,-2.299 z m 1.09195,0.51604 c 0.0958,-0.0164 0.11756,0.29094 0.0212,1.03056 -0.0926,0.71091 -0.15001,2.30555 -0.12764,3.54343 0.0224,1.23787 0.036,2.34043 0.03,2.45014 -0.0157,0.29571 -0.74306,0.28618 -0.95392,-0.0125 -0.10026,-0.14201 -0.28862,-0.18266 -0.41871,-0.0908 -0.33347,0.23544 -0.33409,-0.54731 -0.001,-2.2645 0.47674,-2.45826 1.20521,-4.61444 1.45007,-4.65634 z m -2.62884,6.58414 c 0.0641,-0.004 0.12385,0.11169 0.13275,0.25694 0.009,0.14525 -0.10957,0.27179 -0.26338,0.28122 -0.15379,0.009 -0.21358,-0.1062 -0.13275,-0.25694 0.0809,-0.15075 0.1993,-0.2773 0.26338,-0.28122 z m 8.60949,-0.45462 c -0.20907,0.01 -0.34938,0.082 -0.42114,0.21583 -0.21762,0.40565 0.96777,1.53323 1.57292,1.49614 0.25324,-0.0155 1.05215,0.21913 1.7752,0.5218 0.93043,0.3895 2.01255,0.56183 3.70274,0.59004 1.3135,0.0219 2.86623,0.0547 3.45048,0.0722 0.58425,0.0176 2.07299,-0.0204 3.30833,-0.0842 2.5518,-0.13195 5.61006,0.059 7.58377,0.47334 0.73848,0.15507 2.0887,0.31736 3.00014,0.36079 0.91138,0.0434 1.80687,0.23912 1.99038,0.43458 0.51327,0.54661 0.85606,10.33609 0.44995,12.8495 -0.12157,0.74882 -0.0527,2.98172 0.16558,5.43019 0.21886,2.45421 0.30853,5.40908 0.21876,7.21001 -0.0837,1.67837 -0.0924,4.30039 -0.0199,5.82676 0.12944,2.71542 0.0484,4.48996 -0.31573,6.91143 -0.0996,0.66218 -0.16144,2.81312 -0.13731,4.77985 0.0241,1.96674 0.033,5.3062 0.0198,7.42101 -0.013,2.11482 0.1637,6.81578 0.39224,10.44662 0.22884,3.63082 0.37521,7.79685 0.3251,9.25786 -0.0501,1.46102 -0.0781,4.14667 -0.0624,5.96814 0.0356,4.11435 0.4545,4.00455 0.65984,-0.17299 0.33849,-6.88515 0.31967,-11.91049 -0.0793,-21.06898 -0.19767,-4.53803 -0.32708,-11.70781 -0.21519,-11.91645 0.054,-0.10058 0.0456,-1.36231 -0.0185,-2.80393 -0.0643,-1.44162 -0.0204,-2.92498 0.0972,-3.29669 0.26347,-0.83203 0.23347,-6.88215 -0.0753,-15.26076 -0.25268,-6.85594 -0.31525,-11.50645 -0.15875,-11.79823 0.0543,-0.10131 0.11488,-1.96995 0.13433,-4.15217 0.0492,-5.51699 -0.007,-5.34777 2.0143,-6.06031 0.92077,-0.32458 2.20014,-0.59274 2.84313,-0.5957 0.71681,-0.003 1.2024,-0.12849 1.25532,-0.32388 0.1343,-0.49611 -0.74642,-0.75861 -2.59517,-0.7739 -1.47783,-0.0122 -1.70749,0.0485 -1.7921,0.47792 -0.13171,0.66844 -1.18261,0.95624 -2.37133,0.6491 -0.92186,-0.23816 -3.8122,-0.57173 -7.78063,-0.89772 -0.95247,-0.0782 -2.8045,-0.12925 -4.11572,-0.11381 -1.31117,0.0154 -3.34172,-0.028 -4.51226,-0.0962 -5.81822,-0.33901 -6.52399,-0.44097 -7.8981,-1.14163 -1.13689,-0.57974 -1.93091,-0.85766 -2.39083,-0.83562 z m 48.42769,-2.27424 c -0.13351,1.7e-4 -0.22108,0.0341 -0.25823,0.10329 -0.16367,0.30505 0.38727,0.65524 1.69317,1.07613 0.44622,0.14385 0.95282,0.26185 1.12559,0.26237 0.56717,0.002 1.63764,-0.59083 1.61894,-0.896 -0.0114,-0.18598 -0.18839,-0.21192 -0.46808,-0.0682 -0.709,0.36455 -1.44626,0.31171 -2.67605,-0.19218 -0.46169,-0.18915 -0.81282,-0.28516 -1.03534,-0.2855 z m -47.27622,7.00514 c -0.20106,-5.2e-4 -0.32965,0.51708 -0.25252,1.32015 0.0583,0.60701 0.26037,3.935 0.4491,7.39524 0.18873,3.46027 0.40138,6.37328 0.47234,6.47378 0.27635,0.39139 0.46442,3.98442 0.34078,6.51499 -0.0715,1.46232 -0.0957,4.26703 -0.0534,6.23265 0.16578,7.71053 0.14954,9.73523 -0.0934,11.5367 -0.33766,2.50388 -0.429,4.55576 -0.33769,7.57547 0.0418,1.38249 -0.0688,4.07319 -0.24551,5.97934 -0.44196,4.76655 -0.56922,8.09095 -0.48887,12.7538 0.0432,2.50507 -0.0489,4.24325 -0.24892,4.70695 -0.36935,0.85615 -0.30366,2.8134 0.12671,3.76549 v -4e-5 c 0.44522,0.9849 0.84868,0.77071 0.77621,-0.41206 -0.0351,-0.5724 0.0508,-1.12174 0.19079,-1.22062 0.15547,-0.10975 0.14769,-0.86813 -0.0201,-1.95008 -0.19005,-1.22523 -0.17245,-2.83473 0.0573,-5.22331 0.39135,-4.0681 0.45929,-5.30311 0.46863,-8.49678 0.004,-1.31238 0.1066,-3.57673 0.22802,-5.03133 0.12142,-1.45464 0.1723,-3.54524 0.11187,-4.64575 -0.1066,-1.95585 -0.072,-2.66571 0.39801,-8.12849 0.46961,-5.45746 0.22101,-13.65415 -0.87048,-28.70781 -0.0894,-1.23377 -0.2376,-3.90861 -0.32909,-5.94412 -0.0915,-2.03551 -0.25932,-3.90323 -0.37346,-4.15055 -0.10893,-0.23595 -0.21545,-0.34347 -0.30684,-0.34362 z m 17.83447,0.75373 c -0.23881,0.0824 -0.32721,1.18773 -0.27863,3.36888 0.0373,1.67434 -0.007,4.12241 -0.0979,5.44013 -0.0911,1.31773 -0.0266,4.71343 0.142,7.54608 0.16917,2.8326 0.22415,5.69209 0.12229,6.35442 -0.18188,1.18175 -0.31224,4.143 -0.22805,5.18302 0.0236,0.29015 -0.0477,1.72594 -0.15859,3.19068 -0.11086,1.46473 -0.16248,4.09219 -0.11483,5.8388 0.0476,1.74662 -0.0135,3.47999 -0.13565,3.85196 -0.24781,0.75426 -0.37449,2.36687 -0.41672,5.30644 -0.0153,1.08314 -0.15864,2.34441 -0.31797,2.80283 -0.24747,0.712 -0.68014,3.05344 -1.01936,5.5173 -0.31007,2.25199 -0.53139,11.82487 -0.33211,14.36573 0.0994,1.26643 0.0589,2.61947 -0.0919,3.05405 -0.14891,0.42917 -0.29525,1.498 -0.32509,2.37457 l -0.0545,1.59383 -3.96131,0.24277 c -2.17871,0.13353 -4.50202,0.17875 -5.1629,0.10052 -1.13781,-0.1347 -2.49015,-0.22112 -4.47569,-0.28535 -0.48471,-0.0157 -1.02386,-0.1548 -1.19835,-0.30916 -0.44495,-0.39356 -0.66352,-0.33346 -0.77089,0.21137 -0.0854,0.43312 -0.572,0.49255 -6.27887,0.77207 -3.40269,0.16665 -7.13915,0.33784 -8.30288,0.38048 -1.56577,0.0573 -2.36583,0.21574 -3.07688,0.60844 -0.66445,0.36694 -1.24952,0.49471 -1.89646,0.41393 -1.38446,-0.17289 -1.1612,-0.57393 0.3717,-0.66788 0.82345,-0.0505 1.26731,-0.17938 1.15674,-0.33596 -0.0987,-0.13975 -0.72755,-0.22049 -1.39749,-0.17944 -0.7526,0.0461 -1.40851,-0.0783 -1.71705,-0.32498 -0.27463,-0.21952 -0.67808,-0.3178 -0.89612,-0.21847 -0.43963,0.20037 -0.51411,0.73511 -0.0989,0.70966 0.14524,-0.009 0.29566,0.4292 0.33303,0.97364 0.14247,2.04241 2.90481,3.46396 7.24483,3.72839 2.28526,0.13926 3.08853,0.30248 2.99202,0.60877 -0.24007,0.762 0.28874,0.9478 1.52335,0.53517 1.58412,-0.52945 2.66103,-0.18904 2.47931,0.78359 -0.15815,0.84652 0.12482,0.96393 2.33337,0.97065 1.7971,0.005 6.56413,0.54728 7.55041,0.85799 0.26692,0.0841 1.17116,-0.0374 2.00936,-0.26967 1.2774,-0.35396 1.73505,-0.37106 2.82961,-0.10668 1.57856,0.38132 3.00511,0.66539 4.79107,0.95409 3.37326,0.54531 4.3534,0.73012 4.6119,0.86879 0.68054,0.36507 6.18982,0.78428 9.93452,0.75589 1.91053,-0.0145 3.55084,0.20463 3.77257,0.504 0.0977,0.13187 1.77421,0.238 3.72559,0.23607 4.37648,-0.004 5.1149,-0.10346 6.55503,-0.87858 1.00743,-0.54226 1.21356,-0.57502 1.73958,-0.2785 0.5525,0.31141 0.70131,0.23691 2.00435,-1.00195 1.45611,-1.38437 1.89865,-2.37007 1.29106,-2.8749 -0.26884,-0.22342 -0.37351,-0.20993 -0.45312,0.0572 -0.24493,0.82264 -1.35194,1.98348 -1.89381,1.98614 -0.3171,0.002 -1.4492,0.36218 -2.51574,0.80134 -1.69029,0.69594 -2.38704,0.82685 -5.42806,1.02024 -2.28891,0.14531 -3.97721,0.11697 -4.909,-0.0823 -0.78113,-0.16706 -2.9129,-0.33163 -4.73741,-0.36563 -5.54022,-0.10316 -7.48663,-0.24172 -9.45161,-0.67363 -4.01505,-0.88257 -4.88855,-1.05048 -6.43766,-1.23581 -0.88122,-0.10543 -1.91256,-0.38935 -2.29187,-0.63098 -0.37928,-0.24161 -1.08619,-0.58459 -1.57088,-0.76213 -0.48472,-0.17748 -0.88964,-0.45861 -0.89985,-0.62514 -0.0335,-0.5459 1.86886,-0.71797 3.03162,-0.27437 1.53361,0.58511 4.40134,0.7823 8.08898,0.55629 3.84542,-0.23568 9.80971,-1.08177 10.13454,-1.43759 0.12981,-0.14216 0.76333,-0.29062 1.40822,-0.33015 0.72977,-0.0447 1.27429,-0.22685 1.44182,-0.48234 0.37812,-0.57667 4.30181,-1.07987 6.20959,-0.79633 3.42212,0.50858 4.6328,0.53564 6.09221,0.13608 0.79568,-0.21784 2.00779,-0.48457 2.69373,-0.59222 0.8392,-0.13178 1.2397,-0.31698 1.22441,-0.56639 -0.0271,-0.44184 -0.98042,-0.41483 -2.63382,0.0745 -1.58586,0.46925 -5.67301,0.75911 -6.12818,0.43458 -1.01682,-0.72495 -9.95047,-0.3772 -10.32592,0.40194 -0.4368,0.90663 -1.88023,1.29211 -6.52184,1.74064 -2.50368,0.2419 -5.17046,0.5251 -5.92572,0.62979 -0.75525,0.10469 -1.44939,0.0828 -1.54278,-0.0499 -0.0934,-0.13223 -0.40273,-0.22589 -0.68739,-0.20845 -0.28467,0.0174 -1.37811,-0.21127 -2.4303,-0.50805 -1.6346,-0.46101 -2.19599,-0.49822 -3.85464,-0.25509 -1.90032,0.27853 -1.94022,0.29979 -1.89685,1.00728 0.047,0.76662 -0.4281,1.06816 -1.83203,1.16118 -0.53422,0.0358 -0.73729,-0.0973 -0.82846,-0.54201 -0.16976,-0.82768 -1.51916,-1.13351 -4.32668,-0.97945 -1.60893,0.0882 -2.78785,-0.006 -3.85324,-0.30852 -0.84432,-0.23984 -1.87223,-0.41542 -2.28434,-0.39016 -0.70817,0.0434 -2.02693,-0.12644 -6.53461,-0.84104 -1.06367,-0.16863 -2.12986,-0.49854 -2.36954,-0.73285 -0.40412,-0.39504 -0.30807,-0.46963 1.32191,-1.02847 1.95632,-0.67073 6.11154,-0.9769 8.27021,-0.60936 0.93863,0.15982 1.97474,0.0634 4.44166,-0.41356 1.91438,-0.37016 3.71903,-0.57718 4.4564,-0.51129 0.68156,0.0609 2.19136,0.0796 3.35539,0.0418 7.89646,-0.25649 11.98965,-0.27747 12.50352,-0.0637 0.81259,0.33798 1.52747,-0.0102 1.21761,-0.59289 -0.13073,-0.2459 -0.32827,-1.13878 -0.43899,-1.98448 -0.19143,-1.46186 -0.17362,-1.53089 0.36226,-1.39628 0.46988,0.11803 0.55693,0.0313 0.52308,-0.52078 -0.0222,-0.36434 -0.14737,-0.71964 -0.27773,-0.78962 -0.25903,-0.13893 -0.30004,-2.0023 -0.15187,-6.9045 0.0529,-1.75277 0.0912,-4.02155 0.085,-5.04172 -0.006,-1.02019 0.076,-2.51628 0.18248,-3.32468 0.10647,-0.8084 0.3439,-2.61224 0.52731,-4.00852 0.18339,-1.39628 0.4594,-3.32178 0.61323,-4.27886 0.15391,-0.9571 0.30509,-2.63636 0.33615,-3.73172 0.0311,-1.09536 0.18555,-2.67057 0.34359,-3.50024 0.15806,-0.82968 0.23892,-2.44499 0.1797,-3.58958 -0.0594,-1.14461 -0.0464,-3.75466 0.0292,-5.80041 0.13682,-3.70298 0.11174,-10.99062 -0.0642,-18.55164 -0.10999,-4.7264 -0.0916,-5.23697 0.28334,-7.83722 0.33758,-2.34099 0.29512,-3.67622 -0.14764,-4.65575 -0.17184,-0.3802 -0.31141,-0.55428 -0.41997,-0.51683 z m 29.55677,22.74673 c -0.90162,0.0553 -1.13811,1.10617 -1.08792,4.83811 0.13309,9.89374 -0.0303,17.30049 -0.44847,20.30609 -0.20703,1.48822 -0.0558,5.42772 0.23268,6.06084 0.10223,0.22434 0.41087,0.39417 0.68583,0.37732 0.57496,-0.0352 0.62428,-0.3201 0.13126,-0.75618 -0.44673,-0.39506 -0.62397,-3.19555 -0.39614,-6.2522 0.27284,-3.66035 0.36137,-6.56326 0.33994,-11.15418 -0.019,-4.07739 0.42428,-11.21336 0.79793,-12.83901 0.10046,-0.43715 0.03,-0.59827 -0.25511,-0.58079 z m -1.21349,32.87956 c -0.32141,0.057 -0.82685,1.47336 -0.90794,2.69764 -0.0323,0.48745 -0.11803,0.99696 -0.19053,1.13203 -0.0725,0.13506 -0.16356,0.81762 -0.20264,1.51696 -0.0391,0.69932 -0.16902,1.4841 -0.28816,1.7438 -0.11917,0.25967 -0.18455,0.99309 -0.14552,1.62995 0.039,0.63679 -0.0594,1.75425 -0.21902,2.48301 -0.15968,0.72876 -0.32211,2.07502 -0.36079,2.99183 -0.0387,0.91681 -0.20402,2.13518 -0.36735,2.70747 -0.47921,1.67933 -0.54379,3.97432 -0.12459,4.42079 v 7e-5 c 0.93819,0.99917 1.63716,-0.36422 1.11959,-2.18406 -0.27657,-0.97247 -0.1451,-2.63085 0.34975,-4.41337 0.10295,-0.37081 0.18253,-1.74747 0.17648,-3.05925 -0.006,-1.31177 0.10313,-3.22704 0.24291,-4.25616 0.54282,-3.99592 0.90199,-6.15875 1.09096,-6.57065 0.10911,-0.23609 0.0873,-0.58568 -0.0476,-0.77677 -0.0366,-0.0519 -0.0786,-0.0714 -0.12452,-0.0633 z"
       id="path880"
       inkscape:connector-curvature="0"
       inkscape:export-filename="/Users/jan/Documents/repo/github/microcol/microcol-game/src/main/resources/images/dialog-petr.png"
       inkscape:export-xdpi="35.972397"
       inkscape:export-ydpi="35.972397" />
    <path
       inkscape:connector-curvature="0"
       style="fill:#000000;stroke-width:0.26458341"
       d="m 152.51807,26.491977 c -1.21994,-0.03015 -2.87755,-0.0047 -5.55458,0.03376 -2.03785,0.02932 -6.49137,0.09033 -9.89709,0.135483 -7.18822,0.09525 -10.48479,0.196114 -12.33645,0.377147 -1.88157,0.183977 -3.70759,0.328933 -5.6949,0.452635 -0.94673,0.05893 -2.43651,0.164646 -3.31062,0.234997 -1.18942,0.09576 -22.477001,-0.125139 -28.838141,-0.299306 -0.43644,-0.01197 -5.08041,-0.0014 -10.31992,0.02298 -10.63522,0.04945 -13.16978,0.04725 -13.36244,-0.01084 -0.43649,-0.131785 -10.61514,-0.156744 -10.83195,-0.02657 -0.14556,0.08736 -0.95344,0.157434 -1.79535,0.155488 -0.8419,-0.0019 -2.0091,0.15512 -2.59375,0.349257 -1.30709,0.43406 -3.49529,0.401495 -7.80434,-0.116504 -3.04515,-0.365966 -13.188694,-0.514908 -17.460657,-0.256367 -0.801057,0.0485 -3.224466,0.135144 -5.385572,0.193055 -2.161114,0.05791 -5.011359,0.213715 -6.333853,0.346136 -1.4028953,0.140532 -8.4195283,0.147435 -16.8440123,0.01623 -7.9416167,-0.123578 -16.9662527,-0.260361 -20.0549247,-0.303521 -3.088669,-0.04334 -5.569709,-0.151549 -5.513279,-0.240628 0.17463,-0.275699 -10.527911,-0.30185 -11.02006,-0.02694 -0.30608,0.170952 -1.45343,0.144479 -3.43884,-0.0793 -1.63874,-0.184717 -4.991771,-0.385652 -7.451231,-0.446721 -2.47319,-0.06135 -4.699269,-0.236821 -4.981059,-0.392393 -0.403821,-0.222915 -0.641261,-0.160218 -1.144501,0.300377 -0.66043,0.604509 -0.97827,0.643825 -3.82747,0.476877 -0.94525,-0.05536 -2.26551,-0.02304 -2.93382,0.07198 -1.18267,0.168268 -1.22403,0.206442 -1.55182,1.41966 -0.24955,0.923644 -0.26382,1.445631 -0.0556,2.015335 0.15451,0.422862 0.26,2.082597 0.23476,3.688399 -0.0423,2.714226 0.25408,4.382235 0.7807,4.389078 0.10999,0.0014 0.19456,0.419256 0.18794,0.928563 -0.007,0.562244 -0.14195,0.925412 -0.34279,0.925793 -0.20484,-6.2e-5 -0.231,0.07505 -0.0687,0.197562 0.14411,0.1088 0.29402,0.667478 0.33271,1.241566 0.0387,0.574064 0.16621,1.230619 0.28389,1.459021 0.28944,0.561763 0.49232,9.219835 0.22537,9.620208 -0.11666,0.174977 -0.26215,3.115738 -0.32317,6.534975 -0.061,3.419234 -0.22646,8.060915 -0.36765,10.314842 -0.14119,2.25393 -0.2642,4.604015 -0.27356,5.222407 -0.009,0.6184 -0.0894,1.123439 -0.1779,1.122262 -0.0885,-0.0011 -0.17507,2.379178 -0.19225,5.289616 -0.0202,3.425693 -0.12606,5.290476 -0.29974,5.288219 -0.15746,-0.0021 -0.13763,0.157901 0.0477,0.387181 0.22216,0.274849 0.32677,2.453568 0.35362,7.347397 0.021,3.826161 0.0759,7.493057 0.12202,8.148567 0.81928,11.64829 0.88709,21.11322 0.19536,27.28018 -0.25408,2.26519 -0.53605,4.30471 -0.62688,4.53251 -0.25758,0.646 -0.43275,9.1378 -0.22502,10.91259 0.10841,0.92629 0.085,1.62364 -0.0563,1.67062 -0.14159,0.0471 -0.13221,0.37781 0.0228,0.79411 0.333861,0.897 -0.1431,18.26057 -0.58935,21.44917 -0.17092,1.22134 -0.28227,2.47016 -0.24693,2.77515 0.0353,0.305 -0.0285,0.69983 -0.14215,0.87725 -0.11367,0.1774 -0.3001,2.97318 -0.41408,6.21285 -0.11401,3.23965 -0.28337,6.84207 -0.37639,8.00513 -0.20272,2.53459 -0.26516,4.34378 -0.2055,5.95095 0.0516,1.3911 0.0405,6.92412 -0.0237,11.64234 -0.0246,1.81884 -0.14148,3.96062 -0.25928,4.75953 -0.11776,0.7989 -0.24647,2.10702 -0.28584,2.90694 -0.0394,0.79992 -0.16449,1.59349 -0.27823,1.76387 -0.11374,0.17039 -0.085,0.38766 0.064,0.4825 0.14905,0.0948 0.20065,0.28306 0.11446,0.41853 -0.17692,0.27815 0.47779,1.04449 0.89697,1.04994 0.15079,0.002 0.39634,0.23912 0.545621,0.52699 0.149289,0.2879 0.773549,0.67713 1.38725,0.86509 0.613699,0.18793 1.192569,0.45733 1.28682,0.59864 0.10196,0.15284 3.68989,0.33593 8.8584,0.4526 4.77788,0.10779 9.40011,0.30278 10.27163,0.43273 l 10e-4,1e-5 c 0.8715,0.13011 2.77567,0.20629 4.231491,0.1692 4.248881,-0.10831 13.828361,0.0582 16.269579,0.28274 1.2877,0.1185 3.09491,0.0929 4.23446,-0.0597 1.093412,-0.14644 5.620481,-0.32542 10.060189,-0.39794 7.5152697,-0.12273 12.36051274,-0.2739 15.8827787,-0.49541 1.353118,-0.0849 12.3937683,0.009 22.4274933,0.19165 2.367021,0.043 4.391388,0.0333 4.498588,-0.0216 0.40938,-0.20986 5.56832,0.0827 7.33275,0.41572 2.07641,0.392 6.97696,0.51377 14.81313,0.36822 2.91137,-0.0541 7.91323,-0.11712 11.11526,-0.14032 5.05255,-0.0366 8.9552,-0.16288 9.39746,-0.30423 0.0731,-0.0234 1.38334,-0.0597 2.9117,-0.0805 1.52837,-0.0208 4.26882,-0.15786 6.0899,-0.30485 1.82107,-0.14695 5.87108,-0.26565 9.00001,-0.2634 3.12893,0.002 5.86851,-0.0671 6.08794,-0.15448 0.50134,-0.19951 5.331081,-0.35555 12.775691,-0.4128 3.16734,-0.0243 6.97912,-0.13602 8.47061,-0.24806 1.4915,-0.11216 4.25896,-0.14708 6.14999,-0.0777 5.29256,0.19417 15.69581,0.39156 17.37649,0.3297 0.82797,-0.0305 1.66022,0.066 1.84945,0.21422 0.1892,0.14821 1.59188,0.31437 3.11672,0.36918 1.56214,0.0562 2.84516,0.22103 2.93884,0.37723 0.11499,0.19005 0.22001,0.19085 0.34055,0.001 0.096,-0.14993 0.43916,-0.21471 0.76258,-0.1415 1.49679,0.33859 2.33742,0.41976 4.55356,0.44057 1.30965,0.012 3.16738,-0.0413 4.12877,-0.11843 1.46292,-0.1174 1.77387,-0.0704 1.90637,0.28884 0.1993,0.54017 0.93413,0.56946 1.14311,0.0454 0.17209,-0.43164 1.42562,-0.53807 1.42019,-0.12056 -0.004,0.28132 1.42434,0.10111 2.18659,-0.27599 0.39198,-0.19395 0.46446,-0.10765 0.456,0.54392 -0.0102,0.78474 -0.57062,1.23319 -1.16095,0.92963 -0.16767,-0.0862 -0.0914,0.0221 0.16896,0.24045 0.60293,0.50566 0.90167,0.45657 1.98673,-0.32663 0.7101,-0.51242 0.85212,-0.76283 0.72834,-1.28465 -0.0846,-0.35652 -0.18502,-2.49549 -0.223,-4.75286 -0.038,-2.25737 -0.17161,-4.23364 -0.29694,-4.39158 -0.12532,-0.15788 -0.26275,-0.82295 -0.30534,-1.4784 -0.0426,-0.65545 -0.14972,-1.25218 -0.23807,-1.32612 -0.0883,-0.074 -0.0715,-0.75651 0.0378,-1.51686 0.10838,-0.76037 0.11858,-1.51447 0.0218,-1.67572 -0.0968,-0.16129 -0.0537,-0.83244 0.0959,-1.49129 0.18623,-0.82008 0.18482,-1.2536 -0.005,-1.37427 -0.34434,-0.21904 -0.0211,-12.78406 0.39885,-15.50007 0.72021,-4.65871 1.07842,-17.90318 0.60402,-22.33895 -0.62016,-5.79729 -0.71929,-9.27996 -0.48546,-17.08576 0.13511,-4.50977 0.32839,-8.73433 0.42949,-9.38791 0.3458,-2.23442 0.63346,-32.00036 0.32985,-34.12986 -0.41679,-2.923188 -0.5912,-5.974887 -0.80126,-14.022126 -0.055,-2.103905 -0.13824,-3.891049 -0.1856,-3.971496 -0.13038,-0.221239 -0.4102,-7.319031 -0.36574,-9.278337 0.0728,-3.208642 0.28146,-5.420307 0.52852,-5.593773 0.13543,-0.09506 0.28218,-1.283907 0.32633,-2.641817 0.0676,-2.085909 0.19149,-2.682915 0.79834,-3.847603 0.39506,-0.7582 0.71948,-1.477573 0.72105,-1.598427 0.007,-0.55817 1.33777,-1.362533 2.48939,-1.50514 0.68813,-0.08526 1.31283,-0.251169 1.38777,-0.369057 0.0749,-0.117938 0.34002,-0.148124 0.589,-0.06678 0.24895,0.08132 0.0991,-0.163481 -0.33248,-0.543851 -0.43166,-0.380426 -1.04647,-0.69631 -1.36664,-0.700472 -0.32018,-0.0042 -0.67539,-0.158649 -0.78937,-0.342048 -0.11401,-0.183398 -0.90048,-0.699674 -1.74741,-1.147281 -1.98054,-1.04672 -2.25446,-1.788821 -2.20397,-5.982271 0.0838,-7.060946 -1.0089,-18.305144 -1.9101,-19.646473 -0.26182,-0.389699 -0.47449,-0.830016 -0.47257,-0.978276 0.007,-0.502745 -1.34223,-1.915142 -1.83502,-1.921546 -0.26947,-0.0035 -0.55525,-0.115123 -0.63503,-0.248065 -0.0798,-0.132943 -0.76875,-0.334186 -1.53119,-0.446788 -0.76242,-0.112548 -2.39549,-0.446165 -3.62868,-0.741747 -2.30054,-0.551382 -3.11869,-0.755362 -5.15193,-0.805468 z m -8.74754,1.39489 c 3.45347,0.02662 9.4695,0.474194 9.95135,0.740193 0.4639,0.256081 0.61093,0.23116 0.82455,-0.139157 0.31505,-0.546233 1.91308,-0.394829 5.61494,0.531902 3.37148,0.844036 3.60157,1.138833 3.80695,4.87956 0.18842,3.431447 0.59886,4.986947 1.35502,5.133495 0.29034,0.05625 0.64546,0.21748 0.78917,0.358055 0.15782,0.15433 0.24682,2.843511 0.22443,6.79066 -0.0204,3.594431 0.0135,7.607404 0.0753,8.918004 0.0617,1.3106 0.11258,2.601399 0.11311,2.86821 5.3e-4,0.266835 0.14498,0.439513 0.32061,0.383477 0.39654,-0.126461 1.2614,0.605724 1.25546,1.062857 -0.002,0.185934 0.1742,0.340273 0.39246,0.343107 0.21826,0.0028 0.39451,0.183737 0.39168,0.402 -0.003,0.218263 -0.10791,0.395507 -0.23355,0.393874 -0.12564,-0.0016 -0.57686,0.736706 -1.00274,1.640753 -0.567,1.203574 -0.80938,2.174674 -0.90555,3.626562 -0.0723,1.090557 -0.25056,2.125919 -0.39579,2.300338 -0.28286,0.33973 -0.51494,8.270835 -0.25473,8.704386 0.0855,0.142545 0.21606,1.802469 0.29006,3.688588 0.074,1.886146 0.18307,3.668014 0.24208,3.959847 0.059,0.291833 0.13207,3.269599 0.16207,6.617251 0.0299,3.347651 0.12401,6.26615 0.20926,6.485551 0.0852,0.219411 0.23355,1.769279 0.32994,3.44416 0.29609,5.14524 0.47179,6.89325 0.70796,7.04349 0.3793,0.24127 0.25344,1.24421 -0.13663,1.08866 -0.27296,-0.10881 -0.31384,0.11549 -0.18752,1.02756 0.0889,0.64182 0.056,1.16563 -0.073,1.16395 -0.129,-0.002 -0.22162,1.10464 -0.20611,2.45834 0.0154,1.3538 -0.0554,2.59247 -0.15722,2.75256 -0.2272,0.35715 0.0325,1.13534 0.38055,1.13986 0.14358,0.002 0.16805,0.26098 0.0559,0.5961 -0.10917,0.32603 -0.18964,1.62552 -0.17914,2.88763 0.0105,1.26216 -0.0877,2.35891 -0.21772,2.43703 -0.13564,0.0814 -0.14828,0.73873 -0.03,1.54178 0.11361,0.76994 0.11266,3.4226 -0.002,5.8952 -0.30211,6.50564 -0.45893,10.33012 -0.70507,17.19021 -0.12009,3.3457 -0.29409,7.71272 -0.38659,9.70424 -0.13542,2.91702 -0.0961,3.68274 0.20361,3.93814 0.20462,0.17437 0.36847,0.51058 0.36239,0.74736 -0.009,0.37467 -0.0422,0.37836 -0.26086,0.0302 -0.29481,-0.46946 -0.27044,-0.54656 -0.43918,1.38347 -0.0806,0.92111 -0.0278,1.52113 0.13421,1.52323 0.14688,0.002 0.27256,-0.41321 0.27918,-0.92249 0.007,-0.50929 0.10673,-0.92473 0.22234,-0.92323 0.41501,0.005 0.70135,3.65048 0.57202,7.28409 -0.25308,7.11071 -0.25762,7.14979 -0.77027,7.05681 -0.25409,-0.046 -0.46377,0.0546 -0.46597,0.22341 -0.002,0.17946 0.22294,0.25054 0.54249,0.17139 0.4773,-0.1182 0.53455,-0.0291 0.45393,0.70306 -0.0692,0.62853 -0.20804,0.81686 -0.55452,0.75407 -0.25408,-0.0461 -0.46359,0.0405 -0.46556,0.1924 -0.002,0.15188 0.11577,0.27749 0.26149,0.27939 0.17195,0.002 0.19267,1.37236 0.0588,3.90369 -0.11338,2.14514 -0.25966,6.10401 -0.32466,8.79702 -0.065,2.693 -0.2018,5.02758 -0.30413,5.1884 -0.22772,0.35793 -0.44228,6.75237 -0.2387,7.11336 0.0803,0.1423 0.15276,1.03281 0.16137,1.9789 0.008,0.94604 0.12489,2.34668 0.25878,3.11247 0.84199,4.81613 0.97617,8.01701 0.33573,8.00869 -0.21242,-0.003 -0.45168,-0.18261 -0.53177,-0.39969 -0.12159,-0.32962 -0.5949,-0.37173 -2.86959,-0.25746 -4.40967,0.22152 -10.36678,0.0733 -14.75682,-0.36646 -2.25283,-0.22567 -7.54802,-0.49799 -11.76709,-0.60514 -4.21907,-0.10713 -8.20614,-0.25034 -8.86016,-0.31825 -0.65401,-0.0679 -3.09543,-0.0342 -5.4254,0.0758 -4.71381,0.22168 -21.26517,0.60142 -32.291521,0.74109 -2.47448,0.0314 -5.98898,0.17495 -7.81001,0.31867 -1.82104,0.14375 -3.96618,0.28509 -4.76699,0.31429 -0.80082,0.0292 -2.58807,0.11944 -3.97169,0.20059 -1.38362,0.0811 -5.90927,0.1497 -10.057,0.15251 -7.17172,0.005 -8.76781,0.0419 -14.95476,0.34933 -4.04606,0.20102 -9.17992,0.0465 -10.61263,-0.31983 -0.84842,-0.21697 -3.88229,-0.35496 -8.915879,-0.40476 -4.407664,-0.0438 -7.916188,-0.18869 -8.308387,-0.34364 -0.44563,-0.17537 -0.735987,-0.17824 -0.844368,-0.008 -0.101174,0.15896 -2.520362,0.22845 -6.242275,0.17987 -3.3425763,-0.0437 -7.0525133,-0.0348 -8.2443693,0.0195 -1.191855,0.0542 -3.336488,0.15591 -4.76583896,0.22593 -1.42936104,0.07 -4.62366504,0.15054 -7.09810704,0.17908 -6.9059257,0.0796 -11.6492067,0.23578 -14.5595277,0.47902 v 0 c -2.505311,0.2095 -6.930382,0.16431 -7.162522,-0.073 -0.0589,-0.0603 -4.364228,-0.15142 -9.567619,-0.20294 -5.729291,-0.0568 -9.865031,-0.206 -10.485251,-0.37865 -0.56328,-0.15679 -3.75471,-0.36632 -7.0923,-0.46531 -3.33761,-0.099 -6.28261,-0.25137 -6.5446,-0.33828 -0.262,-0.0869 -0.9824,-0.0511 -1.60056,0.0795 -0.99504,0.21002 -1.3087,0.14459 -2.73528,-0.57096 -2.203445,-1.10516 -2.790605,-2.06976 -2.613605,-4.29248 0.15311,-1.92285 0.2281,-2.33694 0.49732,-2.75536 0.10814,-0.16807 0.0881,-0.34697 -0.0444,-0.39748 -0.13301,-0.0507 -0.0588,-0.60492 0.16542,-1.23663 0.22348,-0.62961 0.32808,-1.34272 0.23249,-1.58461 -0.0956,-0.24196 -0.20534,-1.63114 -0.24361,-3.08697 -0.0383,-1.45583 -0.1686,-2.68155 -0.28967,-2.72372 -0.12108,-0.0422 -0.1305,-0.61863 -0.0211,-1.28144 0.19443,-1.17785 0.19557,-6.72419 0.002,-8.56762 -0.0536,-0.51006 0.0585,-1.16734 0.24948,-1.46087 0.38238,-0.58764 0.49655,-6.33925 0.13764,-6.93533 -0.11196,-0.18599 -0.0778,-0.33177 0.0767,-0.32976 0.1747,0.002 0.28455,-0.94837 0.29808,-2.57603 0.0208,-2.49769 0.18949,-5.59422 0.54368,-9.98179 0.0939,-1.16305 0.23862,-3.91939 0.32148,-6.12568 0.0829,-2.20629 0.23237,-4.14047 0.33235,-4.29762 0.29552,-0.46457 0.23539,-12.78758 -0.0755,-15.468 -0.11377,-0.98082 -0.0729,-1.24362 0.16971,-1.08929 0.23804,0.15142 0.27617,-0.008 0.14969,-0.62134 -0.0934,-0.45348 -0.15919,-2.20827 -0.14623,-3.89965 0.018,-2.34851 0.11117,-3.1291 0.39383,-3.30298 0.30552,-0.18799 0.30713,-0.22971 0.0111,-0.23655 -0.236879,-0.006 -0.29283,-0.16539 -0.164449,-0.46932 0.106999,-0.25329 0.33567,-2.42339 0.50816,-4.82245 0.172489,-2.39906 0.381029,-4.89687 0.46336,-5.55069 0.24321,-1.93133 0.290059,-4.25271 0.11976,-5.95208 -0.0875,-0.87414 -0.20519,-2.84035 -0.261391,-4.36916 -0.228279,-6.20978 -0.54518,-12.62503 -0.662869,-13.41669 -0.0693,-0.465608 0.003,-0.917779 0.16252,-1.013431 0.188169,-0.11294 0.200379,-0.28099 0.0352,-0.485328 -0.14448,-0.17876 -0.234541,-2.916189 -0.21094,-6.396169 0.0442,-6.520971 -9e-4,-8.12065 -0.23817,-8.515959 -0.27869,-0.464024 -0.17451,-2.838697 0.29891,-6.828301 1.04681,-8.821685 1.51183,-38.970371 0.62732,-40.676002 -0.14494,-0.279508 -0.26632,-1.882771 -0.26947,-3.562767 -0.006,-2.96638 0.0135,-3.069462 0.66247,-3.572881 0.58745,-0.455717 0.94057,-0.497461 2.91982,-0.347056 1.23833,0.0941 2.43278,0.0726 2.65443,-0.04769 0.53874,-0.292348 4.2903,-0.269445 17.847079,0.108417 6.582723,0.183506 12.322562,0.224706 13.625913,0.09801 1.281408,-0.124594 3.391019,-0.111757 4.894818,0.02951 2.48875,0.233787 7.553055,0.323205 25.1317487,0.445467 4.074557,0.02834 10.7437213,-0.05648 14.8203763,-0.188802 6.547895,-0.21256 13.780464,-0.371424 17.336624,-0.380909 0.65492,-0.0018 2.61737,0.170789 4.361,0.383806 2.85804,0.348689 15.29641,0.750147 15.81648,0.509949 0.11696,-0.054 0.0912,-0.248416 -0.0574,-0.432291 -0.21475,-0.265703 1.10023,-0.329372 6.4078,-0.310009 3.67293,0.01341 9.05944,0.01499 11.97026,0.0031 2.91081,-0.0119 13.80544,0.02832 24.21026,0.08982 10.404821,0.06144 20.229011,0.0068 21.831541,-0.121447 7.06978,-0.565774 17.01956,-0.888125 25.41284,-0.823264 z m 21.5283,7.266502 c 0.0358,-0.0077 0.0979,0.0354 0.18911,0.122351 0.17587,0.167691 0.26261,0.69668 0.19535,1.193264 -0.0665,0.490642 -0.13895,0.653623 -0.16027,0.36228 -0.0215,-0.291346 -0.10897,-0.828309 -0.19483,-1.193258 -0.0752,-0.319297 -0.089,-0.471916 -0.0294,-0.484637 z m 4.48724,23.319325 c 0.0166,2.14e-4 0.0346,0.01077 0.0533,0.03015 0.0752,0.07718 0.0595,0.335314 -0.0354,0.573206 -0.18502,0.46399 -1.17675,0.595099 -1.17103,0.154816 0.002,-0.145508 0.24154,-0.261466 0.53256,-0.257683 0.29101,0.0038 0.53093,-0.132363 0.53313,-0.30213 0.002,-0.127601 0.0377,-0.20175 0.0874,-0.198353 z m -3.57972,117.417736 c -0.0642,-7.9e-4 -0.19173,0.11657 -0.28351,0.26091 -0.0918,0.14434 -0.0407,0.26409 0.11334,0.26609 0.15408,0.002 0.28162,-0.11542 0.28351,-0.26093 0.002,-0.14551 -0.0492,-0.26524 -0.11334,-0.26607 z m -4.25495,43.43097 c 0.0315,0.005 0.0663,0.0197 0.10229,0.0427 0.14434,0.0918 0.26176,0.21929 0.26093,0.28351 -7.9e-4,0.0642 -0.12058,0.11522 -0.26609,0.11333 -0.1455,-0.002 -0.26292,-0.12942 -0.26091,-0.28349 0.002,-0.11556 0.0692,-0.17319 0.16378,-0.15604 z m 1.42338,0.19216 c -0.14551,-0.002 -0.2661,0.11562 -0.268,0.26112 -0.002,0.14551 0.11562,0.26612 0.26112,0.26801 0.14552,0.002 0.26611,-0.11562 0.268,-0.26113 0.002,-0.14551 -0.1156,-0.2661 -0.26112,-0.268 z"
       id="path1523"
       inkscape:export-filename="/Users/jan/Documents/repo/github/microcol/microcol-game/src/main/resources/images/dialog-petr.png"
       inkscape:export-xdpi="35.972397"
       inkscape:export-ydpi="35.972397" />
  </g>
</svg>
