<?xml version="1.0" encoding="UTF-8" standalone="no"?>
<!-- Created with Inkscape (http://www.inkscape.org/) -->

<svg
   xmlns:dc="http://purl.org/dc/elements/1.1/"
   xmlns:cc="http://creativecommons.org/ns#"
   xmlns:rdf="http://www.w3.org/1999/02/22-rdf-syntax-ns#"
   xmlns:svg="http://www.w3.org/2000/svg"
   xmlns="http://www.w3.org/2000/svg"
   xmlns:sodipodi="http://sodipodi.sourceforge.net/DTD/sodipodi-0.dtd"
   xmlns:inkscape="http://www.inkscape.org/namespaces/inkscape"
   width="210mm"
   height="297mm"
   viewBox="0 0 210 297"
   version="1.1"
   id="svg8"
   sodipodi:docname="europe.svg"
   inkscape:version="0.92.2 5c3e80d, 2017-08-06">
  <defs
     id="defs2" />
  <sodipodi:namedview
     id="base"
     pagecolor="#ffffff"
     bordercolor="#666666"
     borderopacity="1.0"
     inkscape:pageopacity="0.0"
     inkscape:pageshadow="2"
     inkscape:zoom="0.98994949"
     inkscape:cx="331.08818"
     inkscape:cy="821.76062"
     inkscape:document-units="mm"
     inkscape:current-layer="layer1"
     showgrid="false"
     inkscape:window-width="1590"
     inkscape:window-height="1005"
     inkscape:window-x="90"
     inkscape:window-y="1"
     inkscape:window-maximized="1"
     inkscape:snap-global="false" />
  <metadata
     id="metadata5">
    <rdf:RDF>
      <cc:Work
         rdf:about="">
        <dc:format>image/svg+xml</dc:format>
        <dc:type
           rdf:resource="http://purl.org/dc/dcmitype/StillImage" />
      </cc:Work>
    </rdf:RDF>
  </metadata>
  <g
     inkscape:groupmode="layer"
     id="layer2"
     inkscape:label="background"
     style="display:inline">
    <path
       style="fill:#a4b8c1;fill-opacity:1;fill-rule:evenodd;stroke:none;stroke-width:0.26458332px;stroke-linecap:butt;stroke-linejoin:miter;stroke-opacity:1"
       d="m -21.166667,71.348213 198.626487,-1.511906 -16.25297,23.8125 c 0,0 -4.15774,7.937503 -6.4256,8.693453 -2.26786,0.75596 -12.47321,6.4256 -13.98512,6.4256 -1.5119,0 -17.76488,7.18155 -17.76488,7.18155 l -4.15774,3.02381 -140.040178,-0.37798 z"
       id="path3766"
       inkscape:connector-curvature="0"
       sodipodi:nodetypes="ccccscccc"
       inkscape:export-filename="/Users/jan/Documents/repo/github/microcol/microcol-game/src/main/resources/images/europe.png"
       inkscape:export-xdpi="98.734848"
       inkscape:export-ydpi="98.734848" />
    <path
       style="fill:#fdd27c;fill-opacity:1;fill-rule:evenodd;stroke:#000000;stroke-width:0.26458332px;stroke-linecap:butt;stroke-linejoin:miter;stroke-opacity:1"
       d="m 110.74702,110.27976 c 0,0 48.00298,-0.37798 46.86905,-0.37798 -1.13393,0 -4.15774,2.26786 -4.15774,2.26786 h -48.94791 z"
       id="path3774"
       inkscape:connector-curvature="0"
       inkscape:export-filename="/Users/jan/Documents/repo/github/microcol/microcol-game/src/main/resources/images/europe.png"
       inkscape:export-xdpi="98.734848"
       inkscape:export-ydpi="98.734848" />
    <path
       style="fill:#b0bfd7;fill-opacity:1;fill-rule:evenodd;stroke:none;stroke-width:0.26458332px;stroke-linecap:butt;stroke-linejoin:miter;stroke-opacity:1"
       d="m -20.501973,19.483691 203.729173,0.26727 -0.72354,48.952532 -203.729161,0.56696 z"
       id="path3766-7"
       inkscape:connector-curvature="0"
       sodipodi:nodetypes="ccccc"
       inkscape:export-filename="/Users/jan/Documents/repo/github/microcol/microcol-game/src/main/resources/images/europe.png"
       inkscape:export-xdpi="98.734848"
       inkscape:export-ydpi="98.734848" />
    <path
       style="fill:#c88f5f;fill-opacity:1;fill-rule:evenodd;stroke:none;stroke-width:0.26458332px;stroke-linecap:butt;stroke-linejoin:miter;stroke-opacity:1"
       d="M -20.788691,120.48512 C 144.19792,119.1622 181.61756,119.91815 181.61756,119.91815 l 0.56696,30.04912 -203.540175,-0.189 z"
       id="path3972"
       inkscape:connector-curvature="0"
       sodipodi:nodetypes="ccccc"
       inkscape:export-filename="/Users/jan/Documents/repo/github/microcol/microcol-game/src/main/resources/images/europe.png"
       inkscape:export-xdpi="98.734848"
       inkscape:export-ydpi="98.734848" />
    <path
       style="fill:#b0cb1f;fill-opacity:1;fill-rule:evenodd;stroke:#000000;stroke-width:0.26458332px;stroke-linecap:butt;stroke-linejoin:miter;stroke-opacity:1"
       d="m 121.60763,118.19668 59.86838,0.26727 v -6.41447 l -17.64041,1.33762 -0.26665,-9.89024 0.26727,-7.483548 -8.81989,8.285358 -13.63075,5.07813 18.17433,0.26726 -4.81085,2.93996 -21.1143,0.80181 -5.61266,2.13816 z"
       id="path5345"
       inkscape:connector-curvature="0"
       sodipodi:nodetypes="ccccccccccccc"
       inkscape:export-filename="/Users/jan/Documents/repo/github/microcol/microcol-game/src/main/resources/images/europe.png"
       inkscape:export-xdpi="98.734848"
       inkscape:export-ydpi="98.734848" />
    <path
       style="fill:#b0cb1f;fill-rule:evenodd;stroke:#000000;stroke-width:0.26458332px;stroke-linecap:butt;stroke-linejoin:miter;stroke-opacity:1;fill-opacity:1"
       d="m 172.38884,78.908065 0.26727,7.483546 -6.1472,3.474503 z"
       id="path5347"
       inkscape:connector-curvature="0"
       inkscape:export-filename="/Users/jan/Documents/repo/github/microcol/microcol-game/src/main/resources/images/europe.png"
       inkscape:export-xdpi="98.734848"
       inkscape:export-ydpi="98.734848" />
  </g>
  <g
     inkscape:label="port"
     inkscape:groupmode="layer"
     id="layer1"
     style="display:inline">
    <path
       style="fill:#000000;stroke-width:0.07342543"
       d="m 183.26833,69.106147 c -0.0884,-0.0025 -0.22893,0.0068 -0.45243,0.02192 -0.33131,0.02247 -0.84541,0.0894 -1.14243,0.148658 -0.43898,0.08756 -0.88996,0.104729 -2.40951,0.09176 -3.26358,-0.02784 -8.42241,-0.01823 -8.72405,0.01622 -0.51775,0.05914 -1.84489,0.163998 -2.86648,0.226601 -0.54837,0.0336 -1.25876,0.09053 -1.57865,0.12648 -0.31988,0.03596 -0.76854,0.06514 -0.99703,0.06514 -0.22849,-1.49e-4 -1.78013,0.0015 -3.44809,0.0039 -1.66795,0.0024 -3.35045,-0.0091 -3.73887,-0.02547 -1.83873,-0.07741 -5.93184,-0.03375 -7.77605,0.08301 -2.31327,0.146471 -2.89084,0.158502 -7.63646,0.157275 -3.95389,-9.28e-4 -6.34415,-0.04291 -8.17979,-0.143337 -0.61459,-0.03363 -1.14738,-0.04668 -1.18398,-0.02903 -0.0366,0.01768 -0.10223,0.01504 -0.14572,-0.0059 -0.0435,-0.02099 -0.70715,-0.05487 -1.47478,-0.07528 -0.76764,-0.02039 -1.42016,-0.04871 -1.45012,-0.06299 -0.03,-0.01428 -1.82464,-0.05669 -3.98814,-0.09417 -2.16352,-0.03747 -4.02709,-0.07775 -4.14133,-0.08947 -0.11425,-0.01173 -0.67508,-0.04261 -1.2463,-0.06869 -0.57122,-0.02609 -1.07597,-0.07011 -1.12167,-0.09784 -0.1255,-0.07613 -1.52716,-0.143655 -2.74184,-0.13206 -0.59407,0.0057 -1.52879,0.01105 -2.07716,0.01179 -0.54837,7.85e-4 -1.57656,0.04149 -2.28487,0.09036 -0.70831,0.04887 -1.69912,0.09204 -2.20179,0.09594 -0.50267,0.0039 -1.04481,0.01786 -1.20475,0.03092 -0.15994,0.01308 -1.1227,0.02671 -2.13947,0.03042 -1.20431,0.0044 -1.84867,0.02982 -1.84867,0.07325 0,0.04089 -0.1365,0.05255 -0.35312,0.03016 -0.19421,-0.02008 -1.71781,-0.04977 -3.38577,-0.06602 -1.667956,-0.01626 -3.593482,-0.0491 -4.278943,-0.07287 -0.79673,-0.02764 -1.531019,-0.01561 -2.035614,0.03333 -0.434126,0.04211 -1.181903,0.07469 -1.661727,0.07224 -0.926555,-0.0046 -2.357573,0.106034 -2.591416,0.200367 -0.0772,0.03109 -0.159422,0.03248 -0.182723,0.0031 -0.0233,-0.02946 -0.277936,-0.0307 -0.565864,-0.0028 -0.598193,0.058 -4.097596,0.125227 -7.752015,0.149034 -5.420854,0.03532 -9.911773,0.111296 -10.385788,0.175658 -0.750785,0.101945 -3.276884,0.169858 -5.192893,0.139658 -4.195586,-0.06612 -7.590948,-0.0037 -9.721097,0.178825 -0.388429,0.03328 -1.04308,0.06108 -1.454659,0.06108 -0.411579,2.94e-4 -0.878939,0.0332 -1.038579,0.07312 -0.200437,0.05012 -1.601376,0.06985 -4.527554,0.06362 -3.399481,-0.0072 -4.565997,0.01322 -5.899127,0.103418 -1.992384,0.134772 -7.367848,0.158722 -7.851655,0.03497 -0.159941,-0.04091 -1.075968,-0.119998 -2.035613,-0.175782 -0.959648,-0.05578 -1.875673,-0.12498 -2.035615,-0.153726 -0.159941,-0.02877 -0.795551,-0.02993 -1.412467,-0.0026 -0.616916,0.02726 -2.430275,0.05207 -4.029685,0.05525 -1.599411,0.0031 -3.281913,0.01496 -3.738883,0.02624 -0.80443,0.01983 -1.49113,-0.01928 -2.61722,-0.148911 -1.08364,-0.124741 -2.48044,-0.07152 -3.82197,0.145621 -0.44763,0.07245 -0.54466,0.111575 -0.56668,0.22812 -0.0239,0.126785 0.0109,0.140547 0.35426,0.140547 0.20944,0 0.44578,-0.02561 0.52513,-0.05691 0.56168,-0.221612 2.34634,-0.284962 3.67949,-0.130659 0.70799,0.08195 1.40243,0.08801 3.56865,0.03117 0.845407,-0.02218 1.649267,-0.03844 1.78636,-0.03599 0.137092,0.0024 1.744812,0.0029 3.572711,0.0011 1.827897,-0.0016 3.510395,0.02496 3.738883,0.05906 0.228487,0.03409 0.864097,0.08079 1.412467,0.103794 1.329147,0.05576 1.584676,0.07706 2.095819,0.174517 0.31745,0.06051 1.248296,0.07985 3.461874,0.07198 1.665202,-0.0059 3.133557,-0.02793 3.263085,-0.04892 0.813591,-0.131923 2.491017,-0.179629 5.719323,-0.162849 1.964991,0.0102 3.740961,0.01865 3.946599,0.01939 0.205638,4.91e-4 0.766472,-0.03607 1.246295,-0.08124 1.20387,-0.113295 2.978791,-0.21317 4.351482,-0.244848 0.633993,-0.01463 1.437853,-0.05095 1.786355,-0.08073 0.733714,-0.06271 4.655256,-0.0388 6.117391,0.03726 0.878115,0.04568 3.177236,-0.03721 5.52524,-0.199101 0.205636,-0.01418 1.790187,-0.04443 3.521267,-0.06729 1.731077,-0.02285 3.18354,-0.05891 3.227708,-0.08022 0.04417,-0.02133 0.833805,-0.02985 1.754711,-0.01888 4.027759,0.04795 8.224506,-0.01906 10.299295,-0.164504 0.739941,-0.05187 1.868887,-0.113268 2.508654,-0.136492 0.639761,-0.02324 1.192109,-0.05574 1.227469,-0.07224 0.0929,-0.04339 3.944919,-0.02793 6.084129,0.02447 1.00534,0.02458 2.07092,0.03725 2.36796,0.02801 0.29703,-0.0092 1.88606,-0.02788 3.53117,-0.04144 2.68501,-0.02212 4.98517,-0.06818 4.98517,-0.09986 0,-0.01603 0.5819,-0.04827 2.19351,-0.121412 1.8737,-0.08504 5.28346,-0.04814 5.44865,0.05893 0.069,0.04476 0.20213,0.06564 0.29583,0.04651 0.0937,-0.01913 0.40241,-0.01036 0.68595,0.01964 0.28355,0.03001 0.85205,0.07397 1.26333,0.09758 0.41128,0.0236 0.89733,0.05325 1.08012,0.06603 0.18279,0.01277 1.65965,0.03842 3.28191,0.0569 1.62226,0.0185 3.08043,0.0492 3.24037,0.06819 0.24761,0.02938 1.83562,0.101517 4.40357,0.200114 2.40501,0.09234 10.33568,0.209906 10.63505,0.157658 0.0229,-0.004 0.54629,-0.01835 1.16321,-0.03194 2.14878,-0.04731 3.70311,-0.103069 4.56974,-0.163868 0.47983,-0.03366 1.9193,-0.07908 3.19882,-0.101005 1.27954,-0.02193 2.36975,-0.06732 2.42281,-0.100758 0.0611,-0.03849 0.11655,-0.03535 0.15124,0.0085 0.0301,0.03809 0.19246,0.06594 0.36059,0.06185 0.16814,-0.0041 1.12828,0.01722 2.13363,0.0474 2.54719,0.07646 7.02482,0.06033 8.26709,-0.02978 0.57121,-0.04143 1.52463,-0.09106 2.11869,-0.110387 1.15037,-0.03743 2.21533,-0.120705 2.34491,-0.183257 0.12581,-0.06073 6.42119,-0.107155 6.85625,-0.05057 0.21675,0.02821 0.4113,0.03783 0.43231,0.02142 0.0325,-0.02535 0.87693,-0.02282 2.53868,0.0076 0.20564,0.0038 0.673,-0.04512 1.03858,-0.10874 0.36558,-0.06361 0.89837,-0.132753 1.18398,-0.153602 0.48031,-0.03505 0.51929,-0.04966 0.51929,-0.194664 0,-0.09694 -0.003,-0.13376 -0.14995,-0.137886 z m -0.0157,1.700775 c -0.21956,9.28e-4 -0.60392,0.09064 -0.81608,0.215448 -0.15152,0.08913 -0.29644,0.145784 -0.32196,0.125843 -0.0255,-0.01993 -0.10725,0.02245 -0.18159,0.09417 -0.0744,0.07171 -0.19116,0.139081 -0.25965,0.14967 -0.33341,0.0516 -1.32938,0.426736 -1.32938,0.500727 0,0.0315 -0.0467,0.05769 -0.10386,0.05843 -0.0571,6.12e-4 -0.19178,0.07362 -0.2994,0.162219 -0.1127,0.0928 -0.28938,0.161078 -0.41657,0.161078 -0.13856,0 -0.27893,0.06044 -0.3768,0.16222 -0.0858,0.08923 -0.21897,0.162219 -0.296,0.162219 -0.077,0 -0.22493,0.07044 -0.32862,0.156646 -0.10368,0.0862 -0.28354,0.175457 -0.39969,0.198213 -0.27696,0.05429 -0.78163,0.356741 -0.72164,0.432543 0.0258,0.0326 0.0162,0.05326 -0.0215,0.04588 -0.0377,-0.0074 -0.22946,0.02624 -0.42614,0.07465 -0.34496,0.08489 -0.67979,0.338689 -0.9211,0.698051 -0.0539,0.0803 -0.13684,0.145998 -0.18419,0.145998 -0.0473,0 -0.38053,0.226303 -0.74046,0.502881 -0.35994,0.27659 -0.87143,0.669461 -1.1366,0.873073 -0.70684,0.542741 -1.00253,0.807121 -1.14697,1.02528 -0.0708,0.106864 -0.16078,0.194281 -0.19994,0.194281 -0.0878,0 -0.50597,0.656523 -0.50597,0.79437 0,0.05508 -0.0514,0.115553 -0.11409,0.134338 -0.0627,0.01878 -0.13993,0.114961 -0.1717,0.213805 -0.0318,0.09885 -0.13007,0.259085 -0.21842,0.355995 -0.0884,0.0969 -0.16049,0.251953 -0.16049,0.344587 0,0.09263 -0.0373,0.168429 -0.0831,0.168429 -0.0457,0 -0.0831,0.04825 -0.0831,0.107344 0,0.05908 -0.0935,0.203164 -0.20771,0.320131 -0.11425,0.11698 -0.20771,0.258514 -0.20771,0.314427 0,0.05591 -0.0355,0.10164 -0.079,0.10164 -0.0434,0 -0.16473,0.146005 -0.26955,0.32444 -0.10483,0.178442 -0.23389,0.324439 -0.28675,0.324439 -0.0529,0 -0.26767,0.275527 -0.47742,0.612257 -0.20976,0.336729 -0.41914,0.630411 -0.46525,0.652681 -0.0461,0.02227 -0.0837,0.08199 -0.0837,0.132689 0,0.0507 -0.14944,0.245983 -0.33202,0.434068 -0.1826,0.18809 -0.33235,0.38945 -0.33235,0.447369 -6.2e-4,0.15553 -0.32771,0.705779 -0.41965,0.705779 -0.0436,0 -0.0802,0.0949 -0.0811,0.210885 -6.6e-4,0.115988 -0.0749,0.283891 -0.16422,0.373106 -0.0894,0.08922 -0.16344,0.195572 -0.16439,0.236361 -6.6e-4,0.04079 -0.0579,0.09097 -0.12642,0.111529 -0.0719,0.02154 -0.12463,0.118446 -0.12463,0.229009 0,0.10857 -0.0881,0.273404 -0.20284,0.379944 -0.11151,0.103477 -0.25135,0.31008 -0.31093,0.45916 -0.0595,0.149079 -0.13663,0.271082 -0.17121,0.271082 -0.0346,0 -0.0628,0.07131 -0.0628,0.158417 0,0.08712 -0.04,0.177559 -0.0888,0.201133 -0.0488,0.02356 -0.0692,0.08277 -0.0453,0.131547 0.024,0.04878 0.008,0.10602 -0.0358,0.127116 -0.0437,0.0211 -0.0797,0.08768 -0.0797,0.148021 -1.7e-4,0.06036 -0.0828,0.211957 -0.18354,0.336859 -0.22128,0.274463 -0.39504,0.632242 -0.39661,0.817309 -6.2e-4,0.07482 -0.0644,0.235051 -0.14166,0.356001 -0.20711,0.324232 -0.45946,1.035272 -0.45048,1.269491 0.005,0.1255 -0.0398,0.218472 -0.11603,0.241307 -0.0682,0.02043 -0.12382,0.09282 -0.12382,0.160948 0,0.06812 -0.0508,0.156788 -0.11279,0.196946 -0.0675,0.04376 -0.13196,0.272309 -0.16082,0.570307 -0.0352,0.363444 -0.0958,0.547706 -0.22524,0.684489 -0.12963,0.136953 -0.16286,0.238081 -0.12381,0.376909 0.0294,0.104352 0.0226,0.226866 -0.0151,0.272352 -0.0376,0.04548 -0.11099,0.243358 -0.16277,0.439635 -0.11231,0.425729 -0.23283,0.699803 -0.49934,1.135538 -0.10913,0.178443 -0.19794,0.418009 -0.197,0.532411 6.3e-4,0.116293 -0.0903,0.313345 -0.20641,0.446994 -0.11425,0.131476 -0.20772,0.275191 -0.20772,0.319371 0,0.04418 -0.05,0.112848 -0.11116,0.152462 -0.0611,0.03962 -0.11614,0.175748 -0.1222,0.302513 -0.006,0.126765 -0.0684,0.294189 -0.13826,0.372094 -0.0699,0.0779 -0.1269,0.231779 -0.1269,0.341926 0,0.110147 -0.055,0.256929 -0.12204,0.326211 -0.0671,0.06927 -0.12305,0.193067 -0.12462,0.275143 -0.003,0.205242 -0.18845,0.463586 -0.49381,0.690317 -0.14117,0.104826 -0.25656,0.216881 -0.25656,0.249032 0,0.141944 -0.49488,0.875507 -0.61488,0.911475 -0.0731,0.0219 -0.1329,0.07914 -0.1329,0.127116 0,0.116921 -0.41675,0.417675 -0.61795,0.445974 -0.10053,0.01413 -0.18724,0.101769 -0.23093,0.233446 -0.0384,0.115936 -0.10619,0.210757 -0.15058,0.210757 -0.0444,0 -0.0807,0.02435 -0.0807,0.05412 0,0.08494 -0.62848,0.594763 -0.73319,0.594763 -0.0516,0 -0.15013,0.06571 -0.2189,0.145994 -0.28215,0.32941 -1.43597,1.19624 -1.70668,1.28218 -0.30531,0.0969 -0.5742,0.30006 -0.57885,0.43735 -0.001,0.0446 -0.0388,0.0811 -0.0829,0.0811 -0.0754,0 -0.68047,0.45602 -1.62034,1.22134 -0.2269,0.18476 -0.44559,0.33597 -0.48602,0.33597 -0.0651,0 -0.2471,0.12476 -0.84612,0.57981 -0.0914,0.0694 -0.25964,0.15708 -0.37388,0.19479 -0.41119,0.1357 -1.32938,0.68043 -1.32938,0.78867 0,0.0713 0.11498,0.0772 0.20073,0.0103 0.0343,-0.0268 0.0872,-0.05 0.11765,-0.0515 0.0305,-0.002 0.26862,-0.11102 0.52919,-0.24333 0.26056,-0.13231 0.51293,-0.24055 0.56083,-0.24055 0.0479,0 0.0872,-0.0293 0.0872,-0.0651 0,-0.0358 0.14739,-0.11492 0.32763,-0.1759 0.18025,-0.061 0.37655,-0.18507 0.43621,-0.27565 0.12556,-0.19063 0.32821,-0.32878 0.41835,-0.28528 0.0343,0.0166 0.38636,-0.21958 0.78251,-0.5248 0.39613,-0.30523 0.73233,-0.55498 0.74712,-0.55498 0.0147,0 0.15251,-0.0949 0.30589,-0.21088 0.1534,-0.11598 0.48036,-0.34228 0.72668,-0.50288 0.61195,-0.39895 0.82535,-0.56596 0.82535,-0.64596 0,-0.0373 0.045,-0.0678 0.1,-0.0678 0.13103,0 1.82006,-1.363627 1.76899,-1.428166 -0.0216,-0.02727 0.0284,-0.06335 0.111,-0.08022 0.0826,-0.01687 0.21288,-0.129666 0.28951,-0.250682 0.17864,-0.28215 0.34413,-0.447122 0.44854,-0.447122 0.0454,0 0.22829,-0.133333 0.40634,-0.296173 0.17805,-0.16285 0.40787,-0.368533 0.51069,-0.457131 0.10282,-0.08859 0.18694,-0.171997 0.18694,-0.185415 0,-0.01339 0.18695,-0.277157 0.41544,-0.586147 0.22848,-0.308975 0.41543,-0.585134 0.41543,-0.613643 0,-0.02852 0.0638,-0.164959 0.14166,-0.30315 0.0779,-0.138187 0.15023,-0.294987 0.16082,-0.348519 0.0106,-0.05353 0.0761,-0.214131 0.14556,-0.356884 0.0694,-0.142748 0.12794,-0.321759 0.12982,-0.397692 0.002,-0.07593 0.0598,-0.174313 0.12837,-0.218742 0.0686,-0.04443 0.12463,-0.108565 0.12463,-0.142449 0,-0.03388 0.0992,-0.194021 0.22069,-0.355865 0.214,-0.28517 0.22395,-0.289795 0.31953,-0.150306 0.0775,0.113119 0.074,0.199517 -0.0161,0.403771 -0.063,0.142922 -0.13724,0.388666 -0.16487,0.546097 -0.0277,0.157437 -0.0824,0.301781 -0.12172,0.320766 -0.0393,0.01898 -0.0714,0.22258 -0.0714,0.452438 0,0.362885 0.0202,0.417968 0.15319,0.417968 0.13468,0 0.15582,0.06467 0.17541,0.535326 0.0368,0.884174 0.003,1.385356 -0.11943,1.748299 -0.0323,0.09611 -0.0352,0.204261 -0.007,0.240417 0.089,0.112516 0.3043,-0.0012 0.27863,-0.147393 -0.019,-0.108111 0.0251,-0.142455 0.20414,-0.158549 0.21319,-0.01915 0.22848,-0.04096 0.22848,-0.326211 0,-0.16813 -0.0542,-0.366173 -0.12041,-0.440021 -0.0662,-0.07384 -0.11889,-0.189849 -0.11732,-0.257775 0.001,-0.06792 -0.0315,-0.274611 -0.0738,-0.459284 -0.0687,-0.299477 -0.0142,-1.491473 0.0949,-2.07743 0.0231,-0.123948 -6.7e-4,-0.219626 -0.0594,-0.238384 -0.0703,-0.02252 -0.0649,-0.04933 0.019,-0.09505 0.0642,-0.03501 0.11359,-0.14729 0.10986,-0.24954 -0.004,-0.10225 0.077,-0.315732 0.17931,-0.474494 0.15711,-0.243706 0.23715,-0.29725 0.5133,-0.343327 0.34205,-0.05708 1.71618,-0.02411 2.57031,0.0616 0.70702,0.07095 3.97118,0.04368 4.56828,-0.03814 0.27502,-0.03769 0.79909,-0.08474 1.16468,-0.104561 0.36558,-0.01982 0.88902,-0.0635 1.1632,-0.09707 0.27419,-0.0336 0.9098,-0.09391 1.41247,-0.134091 0.50268,-0.04019 0.98872,-0.09901 1.08012,-0.130659 0.0914,-0.03164 0.31572,-0.08071 0.49852,-0.109123 0.28485,-0.04428 0.33829,-0.07955 0.37389,-0.246619 0.0228,-0.107226 0.0896,-0.237444 0.14815,-0.289336 0.49589,-0.439303 0.68266,-0.620443 0.68271,-0.662062 3e-5,-0.02676 0.0561,-0.04867 0.12463,-0.04867 0.0686,0 0.12463,-0.0294 0.12463,-0.06527 0,-0.08271 0.82049,-0.71339 0.92807,-0.71339 0.0441,0 0.0549,-0.06205 0.0242,-0.137886 -0.0376,-0.0926 -0.0259,-0.12345 0.0358,-0.09365 0.0887,0.04284 0.75209,-0.336588 0.75524,-0.431914 0.003,-0.09181 0.54995,-0.448726 1.12312,-0.732772 0.31988,-0.158522 0.67508,-0.354711 0.78931,-0.435968 0.26028,-0.185119 0.739,-0.745738 0.80068,-0.937709 0.0932,-0.289892 -0.0317,-0.305181 -0.22669,-0.02775 -0.3205,0.455883 -0.3492,0.486997 -0.70169,0.756605 -0.34447,0.263472 -0.53735,0.374889 -0.82779,0.478417 -0.0914,0.03258 -0.7083,0.470051 -1.37091,0.972178 -0.66262,0.502135 -1.24648,0.913148 -1.29758,0.913881 -0.0511,4.9e-4 -0.37651,0.261427 -0.72311,0.579682 -0.3466,0.318255 -0.70638,0.597514 -0.79955,0.620621 -0.13622,0.03376 -0.33225,-0.0867 -1.00093,-0.614787 -0.45734,-0.361205 -0.83167,-0.629263 -0.83167,-0.595652 0,0.140619 0.24637,0.395426 0.81204,0.839863 0.69766,0.548141 0.79714,0.789024 0.33039,0.799569 -0.65909,0.01488 -4.75949,0.356824 -4.85989,0.405295 -0.14216,0.06859 -3.10284,0.106397 -3.65369,0.04663 -0.30994,-0.03363 -1.13377,-0.06901 -1.83065,-0.0787 -0.87122,-0.01209 -1.26707,-0.04046 -1.26707,-0.09074 0,-0.04022 0.13086,-0.166034 0.2908,-0.2797 0.15993,-0.113665 0.2908,-0.23525 0.2908,-0.27007 0,-0.03482 0.0395,-0.06325 0.0876,-0.06325 0.0481,0 0.22571,-0.07449 0.39465,-0.165508 l 0.30704,-0.165517 -0.24926,0.01952 c -0.22704,0.01776 -0.24766,0.0031 -0.23272,-0.163363 0.009,-0.103481 0.12633,-0.270736 0.26988,-0.3854 0.13949,-0.111426 0.25364,-0.239412 0.25364,-0.284392 0,-0.04498 0.0467,-0.105164 0.10386,-0.133701 0.15377,-0.07683 0.64392,-0.657775 0.64392,-0.763192 0,-0.05009 0.0748,-0.109524 0.16616,-0.132189 0.0914,-0.02264 0.16618,-0.08308 0.16618,-0.134208 0,-0.05112 0.0558,-0.0929 0.12398,-0.0929 0.0681,0 0.1706,-0.05839 0.22767,-0.129777 0.0599,-0.07486 0.19378,-0.129775 0.31644,-0.129775 0.11697,0 0.25883,-0.03611 0.31531,-0.08022 0.0565,-0.04412 0.31644,-0.08516 0.57755,-0.09112 2.84579,-0.06537 3.51144,-0.09265 3.71163,-0.152079 0.53216,-0.158021 0.93361,-0.19317 1.28815,-0.112923 0.30112,0.06817 0.36739,0.116388 0.46655,0.339013 0.0636,0.14276 0.11606,0.320852 0.117,0.395796 6.4e-4,0.07494 0.10396,0.251681 0.22963,0.392746 0.12567,0.141068 0.26862,0.311568 0.31758,0.378934 0.049,0.06737 0.13705,0.135033 0.1957,0.150306 0.14175,0.0369 0.0386,-0.224142 -0.17152,-0.434314 -0.0851,-0.08511 -0.15482,-0.195015 -0.15482,-0.244219 0,-0.0492 -0.034,-0.140165 -0.0756,-0.202138 -0.18891,-0.281089 -0.34595,-0.731455 -0.28318,-0.812116 0.0375,-0.04812 0.31102,-0.259301 0.60805,-0.46942 0.29704,-0.210119 0.55265,-0.405575 0.56797,-0.43432 0.0153,-0.02876 0.0527,-0.04042 0.0831,-0.02585 0.0304,0.01456 0.14866,-0.07111 0.2629,-0.190485 0.11424,-0.119388 0.29184,-0.252934 0.39465,-0.296681 0.10283,-0.04374 0.18864,-0.111093 0.19085,-0.149675 0.002,-0.03858 0.15375,-0.157686 0.33689,-0.26475 0.18313,-0.10706 0.64287,-0.428254 1.0217,-0.713767 0.37882,-0.285501 0.90018,-0.674056 1.15867,-0.863438 0.25847,-0.189388 0.46995,-0.356176 0.46995,-0.370568 0,-0.0144 0.183,-0.15978 0.40666,-0.323174 0.22366,-0.163388 0.45251,-0.383617 0.50859,-0.48932 0.0561,-0.105708 0.1263,-0.192133 0.15595,-0.192133 0.0296,0 0.21141,0.199485 0.40407,0.443321 0.19266,0.243836 0.42563,0.49651 0.51766,0.561559 0.092,0.06505 0.16731,0.144253 0.16731,0.175905 0,0.110472 0.3129,0.323933 0.36967,0.2522 0.0302,-0.03807 -0.0409,-0.143993 -0.1579,-0.235342 -0.11697,-0.09135 -0.29155,-0.288654 -0.388,-0.438499 -0.0965,-0.149846 -0.22205,-0.316283 -0.27912,-0.369816 -0.0571,-0.05353 -0.12788,-0.243323 -0.15724,-0.421772 -0.0294,-0.178435 -0.12618,-0.40185 -0.21519,-0.496411 -0.089,-0.09457 -0.18612,-0.247561 -0.21582,-0.340032 -0.0589,-0.183321 -0.0329,-0.197558 0.48277,-0.264496 0.17137,-0.02225 0.31157,-0.07158 0.31157,-0.109621 0,-0.07468 -0.55768,-0.01784 -0.70623,0.07199 -0.0457,0.02764 -0.41024,0.06895 -0.81009,0.09188 -0.6218,0.03563 -0.72701,0.02727 -0.72701,-0.05804 0,-0.175496 -0.22174,-0.174587 -0.7025,0.0031 -0.32371,0.119601 -0.46138,0.206233 -0.44578,0.280464 0.0125,0.05907 -0.008,0.145901 -0.0461,0.192886 -0.10094,0.125786 0.0157,0.181401 0.136,0.06489 0.15771,-0.152669 1.94541,-0.438221 2.14385,-0.342433 0.0895,0.04321 0.10596,0.440537 0.0209,0.506936 -0.0813,0.06352 -0.27268,0.50841 -0.27425,0.637472 -0.001,0.113579 -1.19295,1.091687 -1.33003,1.091687 -0.0431,0 -0.20793,0.157963 -0.36609,0.351056 -0.15816,0.193093 -0.35759,0.368368 -0.44318,0.38958 -0.0856,0.02122 -0.37125,0.199057 -0.63468,0.395161 -0.26343,0.196104 -0.5057,0.356624 -0.53843,0.356624 -0.0327,0 -0.12224,0.08281 -0.1988,0.184023 -0.0765,0.101212 -0.29954,0.267383 -0.49559,0.369303 -0.19606,0.101919 -0.59144,0.369508 -0.87858,0.594632 -0.28713,0.225128 -0.57804,0.409351 -0.64651,0.409351 -0.0684,0 -0.1444,0.04052 -0.16878,0.09011 -0.0256,0.05223 -0.11202,0.07637 -0.20542,0.05729 -0.0887,-0.01813 -0.21562,0.0022 -0.28189,0.04512 -0.0663,0.04296 -0.52404,0.109257 -1.01732,0.147393 -0.94743,0.07325 -3.41166,0.08611 -3.49855,0.01825 -0.10066,-0.0786 0.13139,-0.260952 0.40862,-0.321142 0.15518,-0.0337 0.31203,-0.09964 0.34857,-0.146509 0.0365,-0.04688 0.16023,-0.08517 0.2749,-0.08517 0.11748,0 0.1861,-0.02829 0.15725,-0.06476 -0.0282,-0.0356 0.2117,-0.159697 0.53308,-0.275774 0.32138,-0.116079 0.58521,-0.231325 0.58648,-0.256131 0.004,-0.07374 0.78333,-0.63297 0.88505,-0.634684 0.0515,-7.14e-4 0.14072,-0.04593 0.19831,-0.100122 0.0576,-0.05419 0.2398,-0.146931 0.40488,-0.206069 0.16507,-0.05913 0.53432,-0.239574 0.82048,-0.401112 0.44495,-0.251174 0.50346,-0.306894 0.4044,-0.384259 -0.12399,-0.09683 -0.0742,-0.119239 -0.75866,0.341803 -0.13709,0.09235 -0.49227,0.261764 -0.78932,0.376402 -0.29703,0.114638 -0.78725,0.361951 -1.08936,0.549644 -0.30212,0.187702 -0.58871,0.341291 -0.63694,0.341291 -0.0482,0 -0.10015,0.0219 -0.11538,0.04867 -0.0254,0.0445 -0.70792,0.317723 -1.10788,0.443443 -0.0914,0.02873 -0.46466,0.05381 -0.82956,0.05576 -0.52118,0.0029 -0.6686,0.02455 -0.68741,0.101004 -0.0218,0.08872 0.13741,0.165443 0.59166,0.285155 0.12656,0.03335 0.13601,0.05842 0.0521,0.137381 -0.0564,0.05311 -0.15297,0.09656 -0.21452,0.09656 -0.0615,0 -0.24121,0.05668 -0.39921,0.125976 -0.18618,0.08167 -0.53922,0.141935 -1.00336,0.171348 -0.59539,0.03772 -0.71156,0.06301 -0.68953,0.1498 0.0187,0.07354 0.11805,0.104424 0.33625,0.104424 0.17033,0 0.30862,0.0292 0.30767,0.06489 -6.6e-4,0.03569 -0.20667,0.238123 -0.45697,0.449905 -0.25029,0.211775 -0.45518,0.434463 -0.45518,0.494901 0,0.06043 -0.0617,0.149908 -0.13729,0.198842 -0.17741,0.115001 -0.77666,0.748061 -0.77666,0.820481 0,0.03054 -0.11218,0.139484 -0.24927,0.242058 -0.13709,0.102574 -0.24926,0.246898 -0.24926,0.320766 0,0.149281 -0.51834,0.555219 -0.70899,0.555219 -0.17737,0 -0.15005,-0.08705 0.091,-0.290216 0.24835,-0.209278 0.21277,-0.358662 -0.0855,-0.358662 -0.17737,0 -0.21048,-0.02994 -0.21048,-0.190862 0,-0.104956 0.0307,-0.205609 0.0682,-0.223681 0.0374,-0.01808 0.13521,-0.260667 0.21713,-0.539126 0.0819,-0.278461 0.18208,-0.557004 0.22264,-0.618973 0.0406,-0.06198 0.0737,-0.182568 0.0737,-0.267916 0,-0.08535 0.0632,-0.268239 0.14021,-0.406438 0.077,-0.138179 0.1318,-0.276168 0.12172,-0.306692 -0.0101,-0.03052 0.0145,-0.08892 0.0548,-0.129777 0.0973,-0.09859 0.32073,-0.658072 0.39239,-0.982701 0.0315,-0.142744 0.10925,-0.324224 0.17266,-0.403264 0.0634,-0.07905 0.11522,-0.205935 0.11522,-0.281984 0,-0.07605 0.0509,-0.215764 0.11311,-0.3105 0.141,-0.214727 0.30595,-0.575155 0.3609,-0.788668 0.0229,-0.08921 0.12092,-0.293612 0.21761,-0.454215 0.0967,-0.160591 0.18276,-0.327062 0.19117,-0.369932 0.008,-0.04288 0.11231,-0.238256 0.23092,-0.434068 0.11861,-0.195806 0.21567,-0.391105 0.21567,-0.434061 0,-0.04295 0.23801,-0.460892 0.52886,-0.928708 0.29087,-0.467816 0.57726,-0.967316 0.6363,-1.110069 0.10457,-0.252868 0.54845,-1.004419 0.78575,-1.330202 0.065,-0.08922 0.1998,-0.279011 0.29956,-0.421771 0.0998,-0.142747 0.20724,-0.274138 0.2387,-0.291996 0.0315,-0.01785 0.083,-0.07624 0.11458,-0.129775 0.0316,-0.05353 0.20489,-0.301723 0.38509,-0.551547 0.18019,-0.249812 0.40275,-0.578307 0.49445,-0.729989 0.0917,-0.151669 0.19985,-0.275773 0.24034,-0.275773 0.0405,0 0.26237,-0.284696 0.49316,-0.632657 0.23078,-0.347961 0.63243,-0.953852 0.89253,-1.346424 0.47927,-0.723311 0.68683,-0.93406 1.95301,-1.982246 0.38844,-0.321559 0.71876,-0.612977 0.73399,-0.647614 0.0152,-0.03464 0.0651,-0.06299 0.11083,-0.06299 0.0787,0 0.51661,-0.305038 1.41101,-0.982817 0.21879,-0.165808 0.56653,-0.36515 0.7726,-0.443068 0.20608,-0.0779 0.49162,-0.227029 0.63451,-0.331279 0.14289,-0.104249 0.29718,-0.189472 0.34289,-0.189472 0.0457,0 0.22466,-0.0876 0.39775,-0.194664 0.17309,-0.107058 0.35039,-0.194664 0.39384,-0.194664 0.0434,0 0.14274,-0.05502 0.2207,-0.122294 0.078,-0.06728 0.24277,-0.139054 0.3661,-0.159436 0.12334,-0.0204 0.35331,-0.133266 0.51118,-0.250804 0.34264,-0.255101 0.37083,-0.268344 1.55802,-0.730495 0.51211,-0.199348 0.95394,-0.391326 0.98195,-0.426716 0.028,-0.03538 0.0843,-0.04828 0.12496,-0.02864 0.10032,0.04842 0.41299,-0.110187 0.41299,-0.209491 0,-0.04134 -0.0657,-0.05924 -0.16552,-0.0588 z m -0.0453,2.130399 c -0.0881,0.0025 -0.24798,0.0498 -0.38233,0.115202 l -0.27911,0.135857 0.24926,-0.04411 c 0.13709,-0.02428 0.32403,-0.07543 0.41543,-0.113554 0.14113,-0.05886 0.1456,-0.0727 0.0299,-0.09175 -0.009,-0.0016 -0.0205,-0.002 -0.0331,-0.0016 z m -1.69337,0.647484 c -0.0562,-0.01463 -0.48271,0.120828 -0.9477,0.301119 -0.46499,0.180298 -0.94812,0.347235 -1.0738,0.370951 -0.12566,0.02372 -0.22848,0.0645 -0.22848,0.09062 0,0.02612 -0.19862,0.0847 -0.44124,0.130159 -0.44091,0.08261 -0.44112,0.08258 -0.69974,-0.119387 -0.19398,-0.151488 -0.33378,-0.202016 -0.55856,-0.202016 -0.19379,0 -0.31368,0.03442 -0.33883,0.09733 -0.0215,0.05353 -0.0636,0.148431 -0.094,0.210885 -0.0303,0.06245 -0.0584,0.135213 -0.0623,0.161714 -0.004,0.02649 -0.12864,0.151552 -0.27716,0.277927 -0.14854,0.126383 -0.27004,0.253538 -0.27004,0.282496 0,0.02896 -0.0748,0.105482 -0.16617,0.170072 -0.0914,0.0646 -0.16618,0.162622 -0.16618,0.217861 0,0.06517 0.11674,0.01146 0.33235,-0.152973 0.1828,-0.139393 0.33235,-0.289517 0.33235,-0.333563 0,-0.05464 0.0885,-0.06884 0.27863,-0.04473 0.22685,0.02875 0.28657,0.01212 0.3205,-0.08922 0.0362,-0.108064 0.0955,-0.119718 0.4474,-0.08808 0.31937,0.02871 0.41217,0.06409 0.43685,0.166276 0.0172,0.07138 0.0685,0.14797 0.11392,0.17033 0.0454,0.02235 0.1019,0.182958 0.12576,0.356883 0.0238,0.173939 0.0708,0.345528 0.10419,0.381217 0.0335,0.0357 0.0875,0.152492 0.12024,0.259552 0.0327,0.107064 0.10977,0.238462 0.17121,0.291995 0.11387,0.09921 0.34866,0.561663 0.42111,0.829475 0.0343,0.126447 -0.0243,0.171621 -0.39823,0.307587 -0.56812,0.206552 -0.65824,0.204059 -0.62851,-0.01775 0.0231,-0.171855 0.0104,-0.178246 -0.34986,-0.17096 -0.20564,0.0041 -0.52344,0.03957 -0.70623,0.0787 -0.1828,0.03913 -0.66884,0.08861 -1.08013,0.109874 -0.62113,0.03211 -1.21295,0.116059 -1.84737,0.262089 -0.14526,0.03343 -0.0324,0.22339 0.13209,0.222163 0.16307,-0.0011 0.73286,-0.151208 0.8135,-0.214181 0.0885,-0.06909 0.76113,-0.05222 0.81869,0.02053 0.0736,0.09307 0.51926,0.08021 0.56246,-0.01622 0.0263,-0.0588 0.0837,-0.04833 0.20853,0.03814 0.14214,0.09846 0.26401,0.113216 0.69763,0.08466 0.80119,-0.05276 1.26493,-0.113865 1.35211,-0.178189 0.15945,-0.117661 0.67496,-0.06364 0.8599,0.09011 0.28048,0.233155 0.33035,0.600719 0.37762,2.776617 0.0185,0.848409 0.0738,1.628796 0.12415,1.751973 0.05,0.122158 0.11148,0.302461 0.13679,0.400604 0.079,0.306304 0.27209,0.200868 0.59427,-0.324439 0.16963,-0.276584 0.37221,-0.57588 0.45032,-0.665101 0.0781,-0.08921 0.30113,-0.35931 0.4956,-0.600212 0.19447,-0.24089 0.38583,-0.437994 0.42516,-0.437994 0.0393,0 0.0716,-0.04464 0.0716,-0.0991 0,-0.138763 0.58591,-0.736802 0.76547,-0.781315 0.12527,-0.03105 0.1474,-0.109453 0.14134,-0.502881 -0.005,-0.34096 -0.0252,-0.419721 -0.074,-0.29352 -0.0367,0.09488 -0.18305,0.304506 -0.32522,0.465875 -0.14216,0.16137 -0.25833,0.311287 -0.25833,0.333187 0,0.0219 -0.0947,0.118861 -0.21032,0.215447 -0.11567,0.09659 -0.2339,0.248656 -0.26256,0.337871 -0.0286,0.08922 -0.14734,0.260511 -0.26387,0.38071 -0.11654,0.120205 -0.21934,0.258345 -0.22848,0.306953 -0.009,0.04861 -0.0762,0.134829 -0.14898,0.191619 -0.0727,0.0568 -0.13209,0.128342 -0.13209,0.158924 0,0.03059 -0.0467,0.09415 -0.10386,0.141313 -0.0571,0.04716 -0.15698,0.1661 -0.22184,0.264236 -0.0648,0.09814 -0.16649,0.178442 -0.22588,0.178442 -0.0594,0 -0.0878,0.04083 -0.0633,0.09075 0.0562,0.114404 -0.11961,0.205182 -0.23013,0.118875 -0.11266,-0.08799 -0.13905,-3.314908 -0.0274,-3.351608 0.0457,-0.01502 0.017,-0.02965 -0.064,-0.03245 -0.1091,-0.0038 -0.13564,-0.04272 -0.10287,-0.151072 0.0243,-0.08029 0.0757,-0.321188 0.11424,-0.535324 0.0386,-0.214124 0.0848,-0.428585 0.10288,-0.476517 0.018,-0.04793 -0.042,-0.120926 -0.13339,-0.16222 -0.23213,-0.104859 -0.29427,-0.186637 -0.2418,-0.31836 0.0546,-0.13701 -0.0962,-0.152187 -0.19149,-0.01926 -0.0372,0.0519 -0.10458,0.07382 -0.14962,0.04867 -0.0896,-0.05002 -0.42646,-0.541736 -0.39434,-0.575627 0.0109,-0.01154 -0.0732,-0.185398 -0.18694,-0.386284 -0.11376,-0.2009 -0.20808,-0.398087 -0.20933,-0.438253 -0.001,-0.04017 -0.0947,-0.21899 -0.20707,-0.397438 -0.1124,-0.178435 -0.20418,-0.360939 -0.20512,-0.405549 -3.1e-4,-0.04461 -0.0407,-0.08111 -0.0896,-0.08111 -0.0489,0 -0.0769,-0.0657 -0.0623,-0.145998 0.0203,-0.111522 0.2032,-0.214954 0.77439,-0.437993 0.41127,-0.160591 0.76013,-0.313896 0.77536,-0.340661 0.0152,-0.02676 0.11589,-0.04867 0.22363,-0.04867 0.10773,0 0.2145,-0.0236 0.23725,-0.05234 0.0227,-0.02875 0.25511,-0.136673 0.51636,-0.23991 0.26126,-0.103224 0.42897,-0.199666 0.37275,-0.214305 z m -3.74066,0.895881 c 0.0484,0 0.0649,0.0292 0.0366,0.06489 -0.0282,0.03569 -0.0679,0.06489 -0.0881,0.06489 -0.0202,0 -0.0366,-0.0292 -0.0366,-0.06489 0,-0.03569 0.0396,-0.06489 0.088,-0.06489 z m 5.22258,0.656867 c -0.0289,-9.28e-4 -0.0617,0.0032 -0.0917,0.01254 -0.0663,0.02072 -0.0467,0.03605 0.0502,0.03917 0.0876,0.0028 0.13665,-0.01254 0.10905,-0.03409 -0.0138,-0.01078 -0.0386,-0.01669 -0.0675,-0.01762 z m -0.32536,0.121788 c -0.0457,0 -0.0831,0.0292 -0.0831,0.06489 0,0.03569 0.0373,0.06489 0.0831,0.06489 0.0457,0 0.0831,-0.0292 0.0831,-0.06489 0,-0.03569 -0.0373,-0.06489 -0.0831,-0.06489 z m -0.35344,0.285786 c -0.0223,-0.0028 -0.0601,0.0105 -0.10353,0.03865 -0.0686,0.04443 -0.12463,0.109933 -0.12463,0.145622 0,0.03619 0.0551,0.02922 0.12463,-0.01585 0.0685,-0.04443 0.12462,-0.110057 0.12462,-0.145739 0,-0.01357 -0.008,-0.021 -0.0211,-0.02269 z m -6.3144,0.169448 c -0.08,-5.39e-4 -0.14541,0.02833 -0.14541,0.06425 0,0.03593 -0.0935,0.12875 -0.20771,0.206323 -0.11424,0.07758 -0.20772,0.162395 -0.20772,0.188455 0,0.02606 -0.25636,0.247131 -0.56975,0.49122 -0.31339,0.244089 -0.59625,0.509526 -0.62866,0.589818 -0.0325,0.0803 -0.0945,0.145997 -0.13778,0.145997 -0.1853,0 -0.40829,0.42756 -0.40829,0.783982 -1.7e-4,0.199265 -0.0284,0.383949 -0.0626,0.410364 -0.13765,0.106092 -0.23468,1.149191 -0.16196,1.740695 0.0519,0.422245 0.0441,0.727089 -0.0264,1.023503 -0.0656,0.275417 -0.0745,0.500973 -0.0256,0.648879 0.0428,0.129432 0.0475,0.727919 0.0112,1.394706 -0.066,1.208174 -0.0199,2.187144 0.11214,2.38463 0.0945,0.141391 0.18378,0.143597 0.32764,0.0082 0.0887,-0.08342 0.1057,-0.416781 0.0821,-1.605975 -0.0164,-0.825387 -0.0411,-1.602861 -0.055,-1.72777 -0.0139,-0.124902 -0.0493,-0.723493 -0.0787,-1.330201 -0.0428,-0.881788 -0.0254,-1.233266 0.0862,-1.751973 0.0768,-0.356883 0.14887,-0.810119 0.16001,-1.007151 0.0139,-0.244731 0.0844,-0.440076 0.2228,-0.616435 0.11141,-0.142006 0.29393,-0.40416 0.4057,-0.582602 0.11177,-0.178441 0.39116,-0.47858 0.62072,-0.667002 0.22953,-0.188421 0.45793,-0.417456 0.50759,-0.508831 0.0497,-0.09139 0.14316,-0.192269 0.20772,-0.224194 0.0951,-0.047 0.0896,-0.0582 -0.0281,-0.05893 z m 5.88874,0.15233 c -0.0323,-0.0038 -0.09,0.04391 -0.13793,0.116851 -0.0951,0.144881 -0.0929,0.146621 0.0506,0.03954 0.0826,-0.0616 0.12749,-0.129821 0.0996,-0.151579 -0.004,-0.0027 -0.008,-0.0043 -0.0123,-0.0048 z m -4.0326,1.757677 c 0.0885,-0.0092 0.24297,0.111562 0.19457,0.172738 -0.063,0.07955 -0.78347,0.0728 -0.78347,-0.0074 0,-0.06838 0.0129,-0.07234 0.31416,-0.09682 0.10427,-0.0085 0.21301,-0.0338 0.24162,-0.05615 0.009,-0.0072 0.0205,-0.01111 0.0331,-0.01242 z m -0.42306,1.296362 c -0.0616,-0.0029 -0.15245,0.03655 -0.34647,0.125344 -0.3519,0.161039 -0.35923,0.171376 -0.34905,0.492233 0.006,0.180278 0.015,0.359135 0.0207,0.397438 0.0147,0.09868 0.27109,0.04695 0.34483,-0.06958 0.0338,-0.05353 0.11104,-0.18493 0.17137,-0.291995 0.0603,-0.107059 0.17422,-0.253057 0.253,-0.32444 0.12253,-0.111003 0.12692,-0.147081 0.0309,-0.249027 -0.0472,-0.05004 -0.0774,-0.07775 -0.12528,-0.07997 z m -1.61158,0.430519 c -0.10191,0.0028 -0.21415,0.02312 -0.3403,0.06058 -0.18953,0.05626 -0.21469,0.09657 -0.1923,0.306699 0.0194,0.181783 0.0775,0.262205 0.23352,0.323551 0.31232,0.122748 0.33882,0.106182 0.28106,-0.175912 -0.058,-0.28293 -0.004,-0.318177 0.23416,-0.150429 0.13998,0.09894 0.16676,0.09978 0.28416,0.0081 0.11738,-0.09168 0.11184,-0.114196 -0.0597,-0.239021 -0.12947,-0.0942 -0.27074,-0.138217 -0.44058,-0.133578 z m 6.8603,1.553123 c -0.14112,0 -0.29519,0.340195 -0.29519,0.651669 0,0.176885 -0.0263,0.32165 -0.0582,0.32165 -0.032,0 -0.0798,0.0438 -0.10613,0.09733 -0.0294,0.05986 2.8e-4,0.09733 0.0769,0.09733 0.0686,0 0.13685,-0.0365 0.15189,-0.08111 0.0151,-0.04461 0.0889,-0.2271 0.16406,-0.405549 0.14656,-0.348026 0.17916,-0.681323 0.0667,-0.681323 z m -4.20787,0.454216 c -0.26396,0 -0.3138,0.07744 -0.16001,0.248909 0.13036,0.145356 0.40136,0.187883 0.48926,0.0768 0.0909,-0.114826 -0.12232,-0.325711 -0.32925,-0.325711 z m -2.18231,0.194663 c -0.0367,0 -0.20614,0.08969 -0.37649,0.199355 -0.31826,0.204877 -0.39785,0.419533 -0.20999,0.566251 0.15049,0.117525 0.2083,0.09619 0.30102,-0.111529 0.0465,-0.104217 0.16513,-0.252518 0.26371,-0.329508 0.16525,-0.129068 0.17837,-0.324569 0.0218,-0.324569 z m 1.17034,0.408339 c -0.1018,0.0023 -0.3609,0.130951 -0.3609,0.191245 0,0.02711 0.0514,0.0493 0.1144,0.0493 0.13139,0 0.34717,-0.180175 0.27928,-0.233188 -0.007,-0.0054 -0.0182,-0.0077 -0.0327,-0.0074 z m 0.40261,0.954307 c -0.20893,0 -0.41231,0.126966 -0.46476,0.290224 -0.029,0.09016 -0.10807,0.163991 -0.17575,0.163991 -0.0677,0 -0.123,0.0584 -0.123,0.129776 0,0.179278 0.27143,0.167806 0.37486,-0.01584 0.0956,-0.16974 0.36384,-0.230365 0.4633,-0.104683 0.0522,0.06602 0.0919,0.06886 0.16519,0.01166 0.12053,-0.09413 -0.0718,-0.475129 -0.23984,-0.475128 z m -2.60829,0.156139 c -0.18182,0.0049 -0.17954,0.0675 -0.05,0.229515 0.0826,0.103289 0.16476,0.118272 0.48569,0.08859 0.3605,-0.03335 0.39856,-0.02222 0.57089,0.166788 0.20764,0.227717 0.38366,0.260921 0.44302,0.08364 0.0798,-0.238183 -0.45877,-0.486769 -1.20427,-0.555855 -0.10364,-0.0096 -0.18475,-0.01432 -0.24537,-0.01267 z m 2.67596,1.743609 c -0.0257,-2.94e-4 -0.0692,0.007 -0.12787,0.01774 -0.27444,0.0504 -0.45326,0.158456 -0.48863,0.295292 -0.0586,0.226848 -0.16809,0.317295 -0.43051,0.355741 -0.15553,0.02279 -0.28269,0.06739 -0.28269,0.09911 0,0.03172 -0.0493,0.05766 -0.10922,0.05766 -0.14953,0 -0.56211,0.345936 -0.59036,0.495029 -0.0126,0.06678 -0.0799,0.121561 -0.14946,0.122294 -0.15927,0.0012 -0.91001,0.453106 -0.84157,0.50656 0.10221,0.07983 0.8525,-0.316736 1.56598,-0.827703 0.27419,-0.196363 0.54526,-0.357811 0.60237,-0.359037 0.0571,-0.0011 0.10386,-0.02708 0.10386,-0.05766 0,-0.03059 0.19492,-0.207992 0.43328,-0.394142 0.30945,-0.241668 0.39194,-0.309989 0.31482,-0.310878 z m 3.88364,0.175275 c -0.0264,0.0044 -0.0157,0.07099 0.049,0.212275 0.0899,0.196091 0.22107,0.40028 0.80636,1.254289 0.12424,0.181283 0.26554,0.473279 0.31401,0.648878 0.0485,0.1756 0.15571,0.436047 0.23838,0.578793 l 0.15044,0.259554 0.024,-0.531394 c 0.0259,-0.572792 0.0103,-0.600817 -0.75573,-1.350356 -0.1094,-0.107065 -0.31865,-0.391761 -0.46492,-0.632657 -0.17067,-0.281081 -0.31755,-0.446682 -0.36155,-0.439382 z m -0.30574,6.108586 c -0.18215,-4.91e-4 -0.4363,0.190705 -0.3489,0.277796 0.158,0.157458 -0.1047,1.345287 -0.35767,1.617383 -0.0721,0.07754 -0.19536,0.214057 -0.27392,0.303272 -0.0786,0.08922 -0.19039,0.185521 -0.24862,0.214058 -0.0582,0.02854 -0.10579,0.09424 -0.10579,0.146 0,0.05175 -0.0536,0.09416 -0.11911,0.09416 -0.0655,0 -0.14214,0.05681 -0.1704,0.126357 -0.0282,0.06955 -0.11895,0.143266 -0.20155,0.163739 -0.0826,0.02048 -0.21925,0.167942 -0.30363,0.327734 -0.11875,0.224921 -0.1964,0.290601 -0.34401,0.290601 -0.10489,0 -0.19068,0.02618 -0.19068,0.05831 0,0.03212 -0.12152,0.157864 -0.27003,0.279445 -0.14852,0.12158 -0.4266,0.355871 -0.61796,0.520629 -0.19135,0.164763 -0.47988,0.348491 -0.641,0.408209 -0.16113,0.05971 -0.31546,0.164113 -0.34306,0.232046 -0.0276,0.06793 -0.0885,0.123565 -0.13517,0.123565 -0.0467,0 -0.24835,0.131397 -0.44822,0.291996 -0.19985,0.160597 -0.41381,0.291995 -0.47546,0.291995 -0.0616,0 -0.19497,0.08761 -0.29633,0.194663 -0.10135,0.107067 -0.22215,0.194664 -0.26841,0.194664 -0.0462,0 -0.12932,0.03089 -0.18451,0.06869 -0.0979,0.06706 -0.42647,0.235784 -0.912,0.468284 -0.23154,0.110873 -1.74267,0.281696 -2.22093,0.251063 -0.75887,-0.04861 -0.9535,-0.0143 -0.76303,0.13446 0.1551,0.121127 0.11483,0.540484 -0.0761,0.79323 -0.0959,0.126951 -0.21026,0.230909 -0.25414,0.230909 -0.0439,0 -0.0603,0.02464 -0.0364,0.05488 0.0239,0.03024 -0.0674,0.137914 -0.20284,0.239274 -0.13547,0.101363 -0.24618,0.216194 -0.24618,0.255119 0,0.03892 -0.0654,0.116806 -0.1454,0.173122 -0.08,0.05631 -0.21919,0.182837 -0.30931,0.281097 -0.0901,0.0983 -0.2528,0.20508 -0.36155,0.23737 -0.12322,0.0366 -0.18057,0.0938 -0.15205,0.15183 0.0305,0.062 0.005,0.081 -0.0747,0.057 -0.13532,-0.0405 -0.17505,0.20327 -0.0435,0.26678 0.0979,0.0472 0.50485,-0.0951 0.50485,-0.17654 0,-0.0652 0.38932,-0.46505 0.76854,-0.789436 0.12568,-0.107494 0.22849,-0.213923 0.22849,-0.236483 0,-0.02256 0.16453,-0.173374 0.36577,-0.335081 0.20124,-0.161716 0.40821,-0.35571 0.45991,-0.431154 0.1143,-0.166789 0.24146,-0.176374 0.31206,-0.02357 0.0289,0.06245 0.20528,0.252071 0.39206,0.421396 0.18678,0.169324 0.54527,0.495074 0.79662,0.723908 0.25132,0.22881 0.51583,0.43374 0.58777,0.45535 0.0719,0.0216 0.30327,0.17765 0.51426,0.34675 0.21098,0.1691 0.46343,0.36586 0.56099,0.43723 0.61269,0.4482 0.99574,0.76216 0.99574,0.81629 0,0.10538 0.83696,1.05284 1.08451,1.22768 0.19462,0.13746 0.49413,0.52459 0.49413,0.63874 0,0.11367 -0.0506,0.14066 -0.27003,0.14409 -1.66683,0.0263 -2.3054,0.0533 -2.40042,0.10114 -0.0622,0.0313 -0.40409,0.0569 -0.75978,0.0569 -0.41242,0 -0.669,0.0281 -0.70835,0.0777 -0.034,0.0427 -0.10716,0.0557 -0.16276,0.0289 -0.1416,-0.0684 -1.55444,-0.0289 -2.05476,0.0574 -0.22849,0.0394 -0.60239,0.0736 -0.83087,0.0755 -0.22848,0.002 -0.69584,0.0283 -1.03857,0.0582 -1.12454,0.098 -3.21922,0.13862 -3.27867,0.0635 -0.0301,-0.038 -0.12496,-0.0692 -0.21096,-0.0692 -0.40868,0 -0.22607,-0.38622 0.4143,-0.87599 0.39909,-0.30524 0.71135,-0.66743 0.63012,-0.73087 -0.081,-0.0633 -0.21355,0.0668 -0.21355,0.20949 0,0.11505 -0.0368,0.14486 -0.15044,0.12167 -0.13611,-0.0278 -0.88544,0.52838 -1.55283,1.15265 -0.17103,0.15996 -0.18182,0.31802 -0.23855,3.49722 -0.003,0.19629 0.0239,0.78028 0.0608,1.29776 0.0919,1.28478 0.0896,1.80644 -0.01,2.08909 -0.0658,0.18762 -0.0573,0.26957 0.0386,0.37652 0.1312,0.14618 0.3381,0.14034 0.2796,-0.008 -0.0193,-0.0491 -0.0239,-0.22062 -0.0101,-0.38121 0.0466,-0.53887 0.0389,-2.42948 -0.0114,-2.80703 -0.0282,-0.21179 -0.0157,-0.39015 0.029,-0.41176 0.0434,-0.021 0.0154,-0.0744 -0.0623,-0.11875 -0.13253,-0.0757 -0.13212,-0.0834 0.005,-0.12433 0.10382,-0.0311 0.12153,-0.0668 0.0617,-0.12407 -0.0533,-0.051 -0.0587,-0.21065 -0.0146,-0.43711 0.0382,-0.19629 0.0887,-0.59047 0.11198,-0.87599 0.0713,-0.87328 0.1533,-1.42212 0.22978,-1.53867 0.074,-0.1128 0.18206,-0.10653 0.55159,0.0321 0.15077,0.0566 0.24156,0.0478 0.43637,-0.0421 0.13528,-0.0624 0.28284,-0.0957 0.32796,-0.0739 0.10862,0.0524 2.07092,0.0599 2.1372,0.008 0.0283,-0.0221 0.16995,-0.0402 0.31466,-0.0402 0.14471,0 0.28853,-0.0199 0.31968,-0.0442 0.0312,-0.0243 0.25232,-0.0378 0.49154,-0.0298 0.23924,0.008 0.64071,-0.0166 0.89205,-0.0546 0.25134,-0.038 0.86825,-0.0829 1.37092,-0.0997 0.50267,-0.0169 1.30653,-0.06 1.78636,-0.0959 1.48095,-0.111 3.7354,-0.14035 4.17167,-0.0542 0.31233,0.0616 0.43814,0.0601 0.62314,-0.008 0.1621,-0.0594 0.19441,-0.0936 0.10728,-0.11368 -0.39708,-0.0914 -0.65921,-0.27869 -0.38996,-0.27869 0.0602,0 0.1436,-0.12306 0.18694,-0.27578 0.043,-0.15167 0.12048,-0.26968 0.17202,-0.26221 0.0526,0.008 0.13571,-0.15332 0.18955,-0.36702 0.053,-0.21025 0.14852,-0.39624 0.21339,-0.41569 0.0645,-0.0193 0.14182,-0.13688 0.17169,-0.2612 0.0299,-0.12431 0.10666,-0.24174 0.17072,-0.26094 0.064,-0.0192 0.11651,-0.0931 0.11651,-0.16438 0,-0.0713 0.10282,-0.22558 0.22849,-0.34281 0.12566,-0.11723 0.29573,-0.30762 0.37794,-0.42316 0.12623,-0.17741 0.12948,-0.20405 0.0207,-0.17147 -0.0708,0.0212 -0.12868,0.0792 -0.12868,0.12888 0,0.0497 -0.0382,0.0905 -0.0849,0.0905 -0.0467,0 -0.1308,0.0799 -0.18694,0.17756 -0.0562,0.0977 -0.1691,0.23016 -0.2509,0.29453 -0.0818,0.0644 -0.18456,0.18157 -0.22832,0.26044 -0.12558,0.22633 -0.27514,0.39363 -0.4375,0.48919 -0.0824,0.0485 -0.23721,0.24244 -0.34386,0.43077 -0.10665,0.18833 -0.23546,0.3624 -0.28626,0.38692 -0.0508,0.0245 -0.0923,0.0977 -0.0923,0.1626 0,0.0649 -0.0561,0.15441 -0.12463,0.19884 -0.0686,0.0444 -0.12462,0.13552 -0.12462,0.20252 0,0.067 -0.035,0.12192 -0.0776,0.12192 -0.0778,0 -0.46997,-0.39348 -0.45276,-0.45421 0.0231,-0.0815 -0.18993,-0.35235 -0.44058,-0.55991 -0.15132,-0.1253 -0.29797,-0.29879 -0.32586,-0.38553 -0.0279,-0.0867 -0.084,-0.15766 -0.12479,-0.15766 -0.0408,0 -0.074,-0.0292 -0.074,-0.0649 0,-0.0357 -0.0654,-0.11853 -0.1454,-0.18401 -0.08,-0.0655 -0.20149,-0.18515 -0.27003,-0.26589 -0.1327,-0.15629 -0.4852,-0.44342 -1.11063,-0.90475 -0.21172,-0.15617 -0.38492,-0.30624 -0.38492,-0.33357 0,-0.0273 -0.0862,-0.0665 -0.19149,-0.0872 -0.24892,-0.0488 -1.38715,-1.001679 -1.38715,-1.161263 0,-0.03037 -0.11205,-0.148547 -0.24893,-0.262589 -0.13689,-0.114059 -0.24926,-0.247021 -0.24926,-0.29542 -2.1e-4,-0.0484 -0.0958,-0.146608 -0.21243,-0.21824 -0.31419,-0.193 -0.234,-0.326139 0.2121,-0.352444 0.82812,-0.04883 1.24602,-0.09956 1.29141,-0.156899 0.0262,-0.03319 0.11366,-0.06033 0.19424,-0.06033 0.2286,0 1.10449,-0.388388 1.38083,-0.61225 0.13709,-0.111062 0.34319,-0.248476 0.4581,-0.305426 0.36609,-0.181421 1.08251,-0.683162 1.29174,-0.90463 0.11123,-0.117745 0.25706,-0.220319 0.32407,-0.227995 0.067,-0.0077 0.23173,-0.07508 0.3661,-0.149801 0.13436,-0.07472 0.27178,-0.135861 0.30524,-0.135861 0.0335,0 0.30813,-0.210473 0.61033,-0.467649 0.30221,-0.25717 0.80185,-0.668962 1.1103,-0.915146 0.30846,-0.246178 0.56083,-0.488125 0.56083,-0.537608 0,-0.04948 0.12152,-0.152707 0.27003,-0.229386 0.41823,-0.215921 0.6499,-0.551969 0.81578,-1.182939 0.0831,-0.316249 0.1664,-0.586963 0.18499,-0.601477 0.0186,-0.01452 0.14213,0.09823 0.27458,0.25055 0.13247,0.15232 0.26903,0.286695 0.3033,0.298589 0.0342,0.01189 0.0623,0.0776 0.0623,0.145998 0,0.06841 0.0373,0.124449 0.0831,0.124449 0.0457,0 0.0831,0.04266 0.0831,0.0948 0,0.09869 0.33547,0.378505 0.3966,0.330773 0.041,-0.03201 -0.22553,-0.416729 -0.37583,-0.542548 -0.057,-0.04775 -0.12753,-0.165047 -0.15677,-0.260693 -0.0292,-0.09565 -0.0939,-0.214161 -0.14377,-0.263354 -0.0498,-0.04919 -0.19187,-0.268186 -0.31547,-0.486658 -0.1236,-0.218473 -0.28609,-0.407042 -0.36107,-0.419106 -0.0114,-0.0017 -0.0231,-0.0027 -0.0353,-0.0028 z m 1.3972,2.068675 c -0.10597,0 -0.0903,0.155581 0.0248,0.245483 0.0541,0.04224 0.10873,0.06869 0.12138,0.05881 0.05,-0.03909 -0.0774,-0.304293 -0.14621,-0.304293 z m 0.35799,0.46271 c -0.0238,-0.0054 -0.0143,0.04921 0.0358,0.151196 0.0285,0.05799 0.0694,0.09172 0.0907,0.07502 0.0214,-0.0167 -6.6e-4,-0.08365 -0.0493,-0.148784 -0.0367,-0.04932 -0.063,-0.07417 -0.0772,-0.07743 z m -5.651,0.0194 c -0.0106,7.14e-4 -0.0225,0.0034 -0.0362,0.0075 -0.0694,0.0208 -0.14948,0.128518 -0.17786,0.239398 -0.072,0.28101 0.0383,1.23991 0.14929,1.297756 0.25095,0.130841 0.30335,0.0191 0.16341,-0.348894 -0.0874,-0.230035 -0.1064,-0.451796 -0.0657,-0.774222 0.0429,-0.340337 0.041,-0.426975 -0.0329,-0.421519 z m -1.65524,0.496924 c -0.0251,1.37e-4 -0.05,0.0019 -0.0742,0.0057 -0.12925,0.01986 -0.14989,0.07204 -0.12511,0.314426 0.0163,0.159832 0.0838,0.372734 0.1501,0.473098 0.16351,0.247593 0.3934,0.208219 0.42809,-0.07325 0.0145,-0.117747 0.0799,-0.230048 0.1454,-0.249663 0.31303,-0.09381 -0.14724,-0.472293 -0.52432,-0.470314 z m -1.11322,0.01813 c -0.0352,4.9e-4 -0.0655,0.0092 -0.0925,0.02636 -0.0569,0.03607 -0.17644,0.07617 -0.26566,0.08909 -0.24456,0.03543 -0.28073,0.594262 -0.0467,0.722261 0.0914,0.05001 0.30672,0.08716 0.47841,0.08263 l 0.31221,-0.0081 0.0246,-0.367149 c 0.0225,-0.332524 0.004,-0.377434 -0.18727,-0.475757 -0.0922,-0.0472 -0.16444,-0.06999 -0.22312,-0.06933 z m -6.59044,0.342431 c -0.16352,-0.0019 -0.17314,0.0381 -0.19457,0.298835 -0.0217,0.264023 -0.004,0.308217 0.12869,0.308217 0.0848,0 0.18962,0.02688 0.23303,0.05982 0.0434,0.03294 0.1912,0.07248 0.32829,0.0877 0.45821,0.05095 0.5299,0.04754 0.58938,-0.02763 0.0325,-0.0411 -0.005,-0.111634 -0.0847,-0.156768 -0.079,-0.04515 -0.13651,-0.13557 -0.12771,-0.201004 0.009,-0.06543 0.0117,-0.152201 0.007,-0.192762 -0.01,-0.07591 -0.36,-0.152045 -0.79889,-0.173627 -0.0301,-0.0015 -0.0567,-0.0025 -0.08,-0.0028 z m 3.75658,0.08821 c -0.18611,2.08e-4 -0.35396,0.06174 -0.54006,0.197955 -0.14852,0.108707 -0.27003,0.21574 -0.27003,0.237878 0,0.08907 0.28387,0.277674 0.41802,0.277674 0.0787,0 0.18655,0.04077 0.23952,0.09062 0.053,0.04984 0.1696,0.07561 0.25932,0.05729 0.18036,-0.03684 0.22304,-0.249819 0.0594,-0.29668 -0.0831,-0.02379 -0.0831,-0.04693 0,-0.115707 0.0571,-0.04728 0.10386,-0.167736 0.10386,-0.267664 0,-0.161798 -0.0296,-0.181357 -0.27003,-0.181357 z m -6.05849,0.194406 c -0.13794,0 -0.48403,0.315062 -0.4414,0.401877 0.0455,0.09271 0.84506,0.112482 1.02559,0.02534 0.12199,-0.05888 -0.0246,-0.232557 -0.19634,-0.232557 -0.0574,0 -0.15083,-0.0438 -0.20772,-0.09733 -0.0569,-0.05353 -0.13795,-0.09733 -0.18013,-0.09733 z m 8.38587,1.511816 c -0.10358,2.5e-5 -0.1763,0.04304 -0.28998,0.153977 -0.26224,0.255931 -0.2317,0.413953 0.12024,0.622522 0.16663,0.09875 0.32893,0.157276 0.36058,0.129899 0.0317,-0.02738 0.0771,-0.22993 0.10093,-0.45003 0.0422,-0.389656 0.0375,-0.401357 -0.17526,-0.443061 -0.044,-0.0086 -0.082,-0.01331 -0.11651,-0.01331 z m -2.84294,0.106962 c -0.16709,0.0015 -0.48111,0.170921 -0.58955,0.375387 -0.10257,0.193341 -0.0972,0.21744 0.0688,0.308217 0.099,0.05416 0.24641,0.09847 0.32764,0.09847 0.0812,0 0.14784,0.0451 0.14784,0.100252 0,0.05516 0.0917,0.171953 0.20382,0.25955 0.37169,0.290263 0.69057,0.151456 0.38752,-0.168682 -0.19384,-0.204746 -0.22489,-0.386569 -0.0847,-0.496042 0.0663,-0.05177 0.0265,-0.09599 -0.14541,-0.161584 -0.14651,-0.05591 -0.22736,-0.132558 -0.21226,-0.201256 0.0179,-0.08109 -0.0277,-0.115013 -0.10369,-0.114311 z m -5.58398,0.635951 c -0.56264,0.0077 -0.60352,0.409366 -0.0216,0.703756 0.27365,0.138432 0.29358,0.139638 0.53357,0.0332 0.51864,-0.230013 0.27587,-0.683371 -0.39255,-0.733153 -0.0421,-0.0031 -0.0819,-0.0043 -0.11944,-0.0038 z m 2.83174,0.02649 c -0.19284,-0.0037 -0.27532,0.02614 -0.345,0.114312 -0.0899,0.113742 -0.0605,0.165141 0.2413,0.424179 0.25398,0.21794 0.40518,0.29491 0.57999,0.29491 0.28136,0 0.31659,-0.143604 0.0685,-0.279317 -0.12267,-0.06711 -0.16195,-0.151351 -0.1454,-0.311897 0.022,-0.213657 0.0132,-0.220443 -0.30963,-0.238638 -0.0323,-0.0017 -0.0623,-0.003 -0.0897,-0.0036 z m 14.58213,0.444074 c -0.049,0 -0.0766,0.05074 -0.0614,0.112793 0.0153,0.06205 -0.0381,0.164251 -0.11863,0.227107 -0.0805,0.06287 -0.14621,0.158112 -0.14621,0.211645 0,0.145764 0.0516,0.119869 0.24244,-0.121281 0.18783,-0.237334 0.22535,-0.430264 0.0837,-0.430264 z m -0.52058,0.713765 c -0.0613,0 -0.15389,0.07301 -0.20593,0.16222 -0.0521,0.08922 -0.13281,0.16222 -0.17948,0.16222 -0.0467,0 -0.0849,0.04655 -0.0849,0.103418 0,0.05688 -0.0748,0.118591 -0.16618,0.137252 -0.0914,0.01866 -0.16617,0.06075 -0.16617,0.09353 0,0.03578 0.0582,0.0363 0.14541,0.0012 0.08,-0.03211 0.19213,-0.04527 0.24925,-0.02928 0.0571,0.01599 0.10386,-0.01297 0.10386,-0.06425 0,-0.0513 0.0935,-0.172025 0.20771,-0.268299 0.23093,-0.194592 0.26437,-0.298083 0.0964,-0.298083 z m -13.56157,0.97193 c -0.0903,2.45e-4 -0.17431,0.0092 -0.24406,0.02889 -0.49617,0.139652 -0.5734,0.271946 -0.21535,0.369425 0.14121,0.03845 0.25689,0.09719 0.25689,0.130542 0,0.03335 0.0841,0.08698 0.18695,0.119128 0.25905,0.081 0.35664,0.04504 0.33234,-0.122554 -0.018,-0.124584 0.0136,-0.14043 0.24682,-0.122677 0.19905,0.01516 0.2748,-0.008 0.29616,-0.09049 0.0394,-0.152585 -0.46837,-0.313493 -0.85975,-0.312274 z m -4.74209,0.02382 c -0.0126,-0.0015 -0.0212,0.0222 -0.0236,0.06946 -0.003,0.06839 0.0161,0.106721 0.0436,0.08517 0.0276,-0.02155 0.0305,-0.07749 0.007,-0.124332 -0.01,-0.0194 -0.0189,-0.02939 -0.0264,-0.03029 z m -0.0548,0.237121 c -0.0395,0 -0.052,0.0803 -0.0279,0.178441 0.0241,0.09814 0.0552,0.426074 0.069,0.728724 0.0212,0.46519 0.004,0.55339 -0.10937,0.57081 -0.10583,0.0162 -0.14318,-0.0499 -0.17526,-0.31075 -0.0224,-0.18226 -0.0857,-0.36608 -0.1407,-0.40859 -0.0778,-0.0602 -0.0879,0.002 -0.0454,0.27957 0.0765,0.5006 0.0992,0.60076 0.16503,0.72999 0.0664,0.13028 0.60724,0.15879 0.87647,0.0463 0.0885,-0.037 0.41309,-0.0795 0.72149,-0.0945 2.38292,-0.11633 2.75378,-0.15124 2.92408,-0.27514 0.16873,-0.12277 0.15172,-0.12401 -1.37773,-0.10468 -0.85178,0.0108 -1.6184,0.0348 -1.70344,0.0535 -0.085,0.0187 -0.22742,0.05 -0.31644,0.0697 -0.21989,0.0486 -0.41104,-0.24979 -0.46249,-0.72188 -0.0381,-0.349734 -0.24797,-0.741396 -0.39726,-0.741396 z m 16.91147,0.102405 c -0.007,0.0052 -0.0111,0.02772 -0.0131,0.06666 -0.004,0.07517 -0.138,0.270479 -0.29794,0.43407 -0.15994,0.16359 -0.29081,0.34213 -0.29081,0.39667 0,0.16012 0.22344,0.0488 0.33884,-0.1688 0.0577,-0.10881 0.17217,-0.2467 0.25429,-0.306452 0.11778,-0.0857 0.13378,-0.149094 0.076,-0.300359 -0.0348,-0.09107 -0.0553,-0.130464 -0.0672,-0.121789 z m -14.71796,0.02737 c -0.0363,0 -0.13361,0.05841 -0.21631,0.129776 -0.0827,0.07138 -0.19861,0.129777 -0.25738,0.129777 -0.14077,0 -0.22565,0.113164 -0.1699,0.226597 0.0341,0.0694 0.10655,0.0767 0.30881,0.0314 0.16424,-0.0368 0.32099,-0.0353 0.4143,0.004 0.21164,0.0885 0.49393,0.078 0.49299,-0.0184 -3.1e-4,-0.0907 -0.46963,-0.502879 -0.57251,-0.502879 z m 16.27826,0.129776 c -0.0893,0 -0.33919,0.378384 -0.38573,0.583994 -0.0121,0.0535 -0.0441,0.19022 -0.0711,0.30378 -0.0373,0.15679 -0.0134,0.22263 0.099,0.27375 0.35863,0.16302 0.48617,0.0476 0.34727,-0.31456 -0.0638,-0.16638 -0.0711,-0.28858 -0.0203,-0.34205 0.11753,-0.12372 0.1408,-0.504914 0.0309,-0.504914 z m -13.73195,1.233004 c -0.0571,9e-5 -0.17864,0.10959 -0.27003,0.24333 -0.11943,0.17474 -0.22943,0.24881 -0.39078,0.26335 -0.12412,0.0112 -0.24511,0.0708 -0.27051,0.13333 -0.0415,0.10214 -0.19384,0.2447 -0.9529,0.8917 -0.13016,0.11095 -0.2612,0.27155 -0.29129,0.35688 -0.0465,0.13198 -0.0126,0.1189 0.22784,-0.0881 0.15545,-0.13383 0.3229,-0.24333 0.37211,-0.24333 0.0492,0 0.11205,-0.0555 0.13956,-0.12318 0.0275,-0.0677 0.32908,-0.34245 0.6702,-0.61061 0.34115,-0.26816 0.62039,-0.52031 0.62039,-0.56029 0,-0.04 0.0561,-0.0895 0.12463,-0.11 0.15087,-0.0452 0.16555,-0.1531 0.0207,-0.1531 z m 12.72209,0.71807 c -0.0618,0.008 -0.15125,0.048 -0.24747,0.118 -0.2521,0.18342 -0.19314,0.60405 0.0922,0.65761 0.25519,0.0479 0.36829,-0.12265 0.27814,-0.41923 -0.0333,-0.10923 -0.0517,-0.2351 -0.0411,-0.27971 0.0143,-0.0597 -0.0199,-0.0844 -0.0818,-0.0767 z m -1.28491,1.10119 c -0.0564,0.005 -0.11954,0.0392 -0.14946,0.10013 -0.0884,0.17998 -0.0541,0.77685 0.0493,0.85761 0.1123,0.0877 0.28688,0.10259 0.34371,0.0293 0.0208,-0.0268 2e-5,-0.22386 -0.0459,-0.438 -0.046,-0.21412 -0.0856,-0.42582 -0.0881,-0.47043 -0.004,-0.0581 -0.0531,-0.0833 -0.10953,-0.0786 z m 2.74688,0.80604 c -0.015,-0.004 -0.0256,0.0329 -0.0256,0.0999 0,0.0892 0.019,0.12572 0.042,0.0811 0.0231,-0.0446 0.0231,-0.11761 0,-0.16222 -0.006,-0.0112 -0.0114,-0.0173 -0.0164,-0.0188 z m -3.57921,0.28806 c -0.0505,-0.006 -0.12671,0.0432 -0.21728,0.15246 -0.26953,0.32509 -0.23945,0.76317 0.0707,1.03086 0.1498,0.12928 0.32516,0.15713 0.39938,0.0634 0.0251,-0.0316 -0.005,-0.0906 -0.0679,-0.13104 -0.15446,-0.10011 -0.22167,-0.49923 -0.14037,-0.83341 0.043,-0.17687 0.0203,-0.27481 -0.0447,-0.28223 z m 3.18779,0.46917 c -0.0106,0.003 -0.0263,0.0209 -0.0477,0.0585 -0.13677,0.24102 -0.34266,0.40249 -0.46606,0.36551 -0.16803,-0.0503 -0.46261,0.19576 -0.44627,0.37285 0.007,0.0745 -0.11008,0.28951 -0.25981,0.47778 -0.21566,0.27119 -0.25191,0.36132 -0.1746,0.43407 0.14165,0.1333 0.32336,0.0518 0.462,-0.20734 0.087,-0.16263 0.15823,-0.2152 0.25299,-0.1868 0.0725,0.0217 0.16608,0.0395 0.20804,0.0395 0.0419,0 0.0764,0.0495 0.0764,0.11001 0,0.0822 0.0744,0.0537 0.29469,-0.11305 0.3468,-0.26251 0.53629,-0.53502 0.53535,-0.76941 -6.3e-4,-0.15355 -0.0195,-0.14402 -0.21242,0.10735 -0.3602,0.46936 -0.57422,0.33032 -0.32456,-0.21089 0.0993,-0.21521 0.14819,-0.49028 0.10192,-0.47816 z m -4.18288,0.44572 c -0.17541,0 -0.20096,0.0303 -0.20478,0.24333 -0.007,0.35505 -0.0646,1.15791 -0.11653,1.60598 -0.0248,0.21413 -0.042,1.00252 -0.0381,1.75197 0.004,0.74946 0.003,1.6378 -0.002,1.97414 -0.006,0.43183 0.0218,0.62682 0.0967,0.66408 h 1.6e-4 c 0.17774,0.088 0.34501,0.0613 0.57187,-0.0915 0.17046,-0.11483 0.22879,-0.22879 0.27393,-0.5352 0.0644,-0.43751 0.17301,-0.69724 0.39822,-0.95291 0.0844,-0.0958 0.14324,-0.19858 0.1308,-0.22837 -0.0123,-0.0298 0.0811,-0.14115 0.20772,-0.24752 0.12662,-0.10635 0.29226,-0.34669 0.3682,-0.53406 0.0759,-0.18735 0.18332,-0.34066 0.23855,-0.34066 0.0552,0 0.15723,-0.11099 0.22671,-0.24662 0.0695,-0.13562 0.29794,-0.41111 0.5076,-0.61212 0.20966,-0.20101 0.38119,-0.39143 0.38119,-0.4233 0,-0.0319 0.0935,-0.12656 0.20772,-0.21038 0.20781,-0.15247 0.28267,-0.38933 0.123,-0.38933 -0.0466,0 -0.2616,0.2082 -0.47774,0.46271 -0.21614,0.25451 -0.51456,0.60529 -0.66307,0.77955 -0.14851,0.17425 -0.27003,0.34564 -0.27003,0.38083 0,0.0352 -0.0304,0.064 -0.0676,0.064 -0.0373,0 -0.14301,0.1095 -0.23514,0.24333 -0.59014,0.85726 -0.82118,1.17436 -0.98081,1.34642 -0.0993,0.10707 -0.23021,0.29061 -0.2908,0.40797 -0.0605,0.11734 -0.17971,0.24247 -0.26484,0.27805 -0.13791,0.0576 -0.15549,0.038 -0.16114,-0.18085 -0.008,-0.30692 0.01,-2.02802 0.0224,-2.15981 0.005,-0.0535 -0.004,-0.12653 -0.0203,-0.16222 -0.0582,-0.12801 0.0987,-1.74474 0.18094,-1.86476 0.0593,-0.0865 0.0544,-0.15066 -0.017,-0.21786 -0.0813,-0.0765 -0.0724,-0.11171 0.0456,-0.17907 0.11859,-0.0677 0.13534,-0.13579 0.088,-0.35486 -0.0499,-0.23057 -0.0885,-0.27096 -0.259,-0.27096 z m -8.76073,0.21722 c -0.0167,0.001 -0.0323,0.003 -0.0469,0.006 -0.17009,0.0333 -0.20552,0.0751 -0.18451,0.21748 0.0227,0.15374 0.0605,0.17487 0.29615,0.16653 l 0.27004,-0.01 -0.003,0.33395 c -0.004,0.42703 -0.14223,0.57699 -0.50923,0.54952 -0.27554,-0.0206 -0.27779,-0.0235 -0.33575,-0.43407 -0.0656,-0.46448 -0.10167,-0.51798 -0.28772,-0.42633 -0.28407,0.13994 -0.19232,0.9802 0.12365,1.13275 h 1.7e-4 c 0.0767,0.0369 0.30321,0.0517 0.50371,0.0329 0.20059,-0.0188 0.47241,-0.0341 0.60399,-0.0341 0.21404,0 0.23367,-0.0172 0.1868,-0.1631 -0.0306,-0.095 -0.008,-0.20451 0.0533,-0.26248 0.0917,-0.0863 0.10086,-0.21382 0.0574,-0.79246 -0.0101,-0.13432 -0.47836,-0.33032 -0.72863,-0.31671 z m -18.33967,0.016 c -0.16611,0.009 -0.54445,0.13793 -1.017,0.35055 -0.0686,0.0309 -0.18071,0.0726 -0.24925,0.0928 -0.0685,0.0202 -0.18072,0.0647 -0.24926,0.0989 -0.23256,0.11599 -1.56164,0.58754 -1.65605,0.58754 -0.0516,0 -0.11535,0.0438 -0.14167,0.0973 -0.0263,0.0535 -0.11977,0.0973 -0.20771,0.0973 -0.0879,-1e-5 -0.17987,0.0406 -0.20431,0.0904 -0.0262,0.0533 -0.22974,0.10849 -0.49592,0.13447 -0.25827,0.0252 -0.45149,0.0768 -0.45244,0.12052 -9.3e-4,0.0766 -1.10946,0.43331 -1.34641,0.43331 -0.0692,-10e-6 -0.22086,0.0584 -0.33706,0.12977 -0.11618,0.0714 -0.27274,0.12978 -0.34792,0.12978 -0.0752,-1e-5 -0.2744,0.073 -0.44253,0.16222 -0.16812,0.0892 -0.37568,0.16222 -0.46136,0.16222 -0.1043,0 -0.13994,0.0321 -0.10791,0.0973 0.0309,0.0628 -0.003,0.0983 -0.0951,0.1 -0.0785,0.002 -0.27215,0.0891 -0.43036,0.19466 -0.15822,0.10562 -0.35451,0.19201 -0.43621,0.19201 -0.0817,0 -0.14865,0.0376 -0.14865,0.0835 0,0.0459 -0.0796,0.0882 -0.17688,0.0939 -0.0973,0.006 -0.25623,0.0662 -0.35311,0.13433 -0.0969,0.0681 -0.371,0.19365 -0.60904,0.27907 -0.23804,0.0854 -0.43431,0.18496 -0.4362,0.22116 -0.004,0.0796 -0.60595,0.29111 -0.82843,0.29111 -0.0876,0 -0.27024,0.073 -0.40602,0.16222 -0.13577,0.0892 -0.30402,0.16222 -0.37388,0.16222 -0.0699,0 -0.23271,0.0662 -0.36189,0.14701 l -0.23497,0.14688 -4.98518,-0.0106 c -2.74185,-0.006 -5.44508,-0.0354 -6.0072,-0.0658 -0.56211,-0.0304 -1.04817,-0.0383 -1.08013,-0.0175 -0.0319,0.0207 -0.86195,0.0136 -1.84445,-0.0158 -0.98249,-0.0295 -1.84243,-0.0346 -1.91098,-0.0113 -0.0685,0.0233 -0.15822,0.0362 -0.19944,0.0288 -0.3239,-0.0587 -0.88737,-0.0912 -1.62846,-0.0938 -1.3317,-0.005 -3.98571,0.0779 -4.0881,0.12737 -0.05,0.0242 -0.30035,0.0524 -0.55629,0.0628 -0.61229,0.0249 -1.5654,0.0865 -1.87788,0.12128 -0.1371,0.0153 -0.62315,-0.001 -1.08013,-0.0362 -1.37905,-0.10634 -2.78339,-0.14247 -2.78339,-0.0716 0,0.0353 -0.15237,0.0755 -0.33867,0.0893 -0.32031,0.0239 -0.34545,0.0128 -0.46298,-0.20404 -0.0884,-0.16297 -0.11659,-0.40142 -0.0975,-0.82416 0.0148,-0.32714 0.003,-0.61326 -0.0257,-0.63582 -0.0289,-0.0226 -0.14173,-0.0235 -0.25072,-0.002 -0.19046,0.0373 -0.1968,0.0577 -0.16666,0.52404 0.0459,0.70924 0.18744,1.09313 0.41268,1.11881 0.10003,0.0114 0.18191,0.0472 0.18191,0.0795 0,0.0742 -0.6869,0.32153 -0.89285,0.32153 -0.0848,0 -0.19796,0.0343 -0.25153,0.0762 -0.0536,0.0418 -0.1825,0.0848 -0.28659,0.0954 -0.88039,0.0901 -0.94354,0.10362 -1.56014,0.33648 -0.20564,0.0777 -0.41906,0.14106 -0.47417,0.14106 -0.0551,-1.1e-4 -0.29035,0.0873 -0.52286,0.1944 -0.23251,0.10707 -0.45856,0.19467 -0.50225,0.19467 -0.0437,0 -0.0794,0.0232 -0.0794,0.0515 0,0.0283 -0.21498,0.10755 -0.47775,0.17603 -0.26276,0.0685 -0.50482,0.15482 -0.53779,0.19188 -0.0711,0.08 -0.36535,-0.0465 -0.33819,-0.14537 0.01,-0.0344 0.0403,-0.14668 0.0685,-0.24941 0.15637,-0.56925 -0.0602,-1.12859 -0.39774,-1.02744 -0.14598,0.0438 -0.14575,0.0571 0.0182,1.58684 0.0862,0.80442 0.19571,2.5792 0.17737,2.87345 -0.0155,0.24806 0.12963,0.43583 0.33672,0.43583 0.17955,0 0.17935,0.003 0.0334,-0.45421 -0.0754,-0.23627 -0.11162,-0.64511 -0.14004,-1.57797 l -0.0253,-0.82719 0.70363,-0.0304 c 0.38697,-0.0167 0.74103,-0.0312 0.78673,-0.0322 0.0839,-0.002 3.09841,0.0638 3.40654,0.0743 0.0914,0.003 0.31534,-0.01 0.4977,-0.0283 0.18236,-0.0186 0.378,-0.004 0.4349,0.0332 0.15075,0.0977 3.5677,0.0477 4.93796,-0.0722 0.33559,-0.0295 0.64302,-0.0301 0.68335,-10e-4 0.0403,0.0288 0.0864,0.41206 0.1024,0.85165 0.016,0.4396 0.0327,0.79919 0.037,0.79919 0.0144,0 0.0712,0.38267 0.12528,0.84354 0.0611,0.52034 0.13995,0.62805 0.34338,0.46917 0.20771,-0.16221 0.18092,-1.62402 -0.044,-2.40414 -0.1432,-0.49667 -0.14794,-0.56735 -0.0368,-0.53406 0.0704,0.0211 0.4728,0.0399 0.89431,0.0416 0.43693,0.002 0.85192,0.0377 0.96523,0.0834 0.14842,0.0598 0.90372,0.0762 2.98218,0.0648 2.8325,-0.0156 4.00732,-0.0506 4.15903,-0.12382 0.0465,-0.0224 0.27949,-0.0385 0.51766,-0.0355 0.23817,0.003 0.52659,0.005 0.64084,0.003 0.11424,-0.001 0.40712,1.1e-4 0.65089,0.003 0.24378,0.003 0.49615,-0.0284 0.56083,-0.0703 0.0781,-0.0506 0.11766,-0.053 0.11766,-0.007 0,0.0419 0.20017,0.0688 0.50549,0.0676 0.27809,-10e-4 0.52241,0.0112 0.54282,0.0271 0.0204,0.0159 -10e-4,0.15706 -0.048,0.31354 -0.0468,0.15648 -0.11334,0.45658 -0.148,0.667 -0.0393,0.23853 -0.10989,0.39973 -0.18759,0.42798 -0.0686,0.0249 -0.20824,0.079 -0.31044,0.12027 -0.10221,0.0412 -0.25391,0.075 -0.33705,0.075 -0.0831,0 -0.26907,0.0679 -0.41316,0.15094 -0.1441,0.083 -0.413,0.1899 -0.59767,0.2375 -0.18466,0.0476 -0.33575,0.11107 -0.33575,0.14106 0,0.03 -0.0946,0.0545 -0.21032,0.0545 -0.11567,0 -0.23261,0.0449 -0.25964,0.1 -0.0692,0.14077 -0.59927,0.33565 -0.92823,0.34117 -0.34875,0.006 -0.69634,0.17269 -1.25847,0.60389 -0.18462,0.14161 -0.42453,0.25134 -0.60773,0.27818 -0.16645,0.0244 -0.32485,0.0724 -0.35198,0.10671 v 2.4e-4 c -0.0704,0.0889 0.35208,0.0773 0.5683,-0.0156 0.0998,-0.0429 0.22745,-0.084 0.28366,-0.0914 0.0562,-0.007 0.16303,-0.0609 0.23725,-0.11888 0.17367,-0.13561 0.78191,-0.3788 0.78348,-0.31328 6.3e-4,0.0275 0.0287,0.0208 0.0623,-0.015 0.0596,-0.0635 0.34954,-0.17992 0.76741,-0.30822 0.11425,-0.0351 0.27264,-0.0895 0.35198,-0.12103 0.0794,-0.0315 0.21292,-0.0574 0.29697,-0.0574 0.084,-10e-6 0.23819,-0.0709 0.34241,-0.15754 0.10423,-0.0866 0.23675,-0.14329 0.29453,-0.12597 0.0578,0.0173 0.12734,-0.014 0.15465,-0.0696 0.0273,-0.0556 0.10885,-0.10113 0.1811,-0.10113 0.13945,0 0.6349,-0.18153 0.70478,-0.25829 0.0228,-0.0251 0.16043,-0.0637 0.30573,-0.0858 0.32694,-0.0496 0.36499,0.0193 0.23076,0.41835 -0.10378,0.30851 -0.0758,0.63951 0.054,0.63951 0.0399,0 0.15706,-0.10282 0.2603,-0.22851 0.14246,-0.17342 0.22997,-0.22056 0.36301,-0.19568 0.17463,0.0327 0.17473,0.0312 0.0451,-0.39186 -0.14812,-0.48347 -0.0891,-0.63129 0.26484,-0.66434 0.12057,-0.0113 0.26628,-0.0712 0.3239,-0.13307 0.0576,-0.0619 0.23569,-0.15197 0.39564,-0.20011 0.15994,-0.0481 0.41239,-0.18708 0.56099,-0.30873 0.14861,-0.12164 0.30328,-0.20518 0.34371,-0.18566 0.0404,0.0195 0.1196,-0.008 0.17607,-0.0611 0.0565,-0.0531 0.15469,-0.0967 0.21826,-0.0967 0.0636,0 0.18046,-0.027 0.25981,-0.0601 0.0794,-0.0331 0.20691,-0.0751 0.28334,-0.0934 0.0854,-0.0204 0.12392,-0.0784 0.0998,-0.15069 -0.0364,-0.10929 0.044,-0.11773 1.14876,-0.12052 0.65344,-0.002 1.82381,-0.0263 2.60067,-0.0547 0.77685,-0.0285 1.88641,-0.0568 2.46581,-0.0629 l 1.05351,-0.0109 -0.0389,0.49223 c -0.0214,0.27071 -0.0687,0.57759 -0.10515,0.68208 -0.0575,0.1646 -0.0728,0.17264 -0.1144,0.0602 -0.0265,-0.0714 -0.0723,-0.26831 -0.10175,-0.43774 -0.0357,-0.20519 -0.1057,-0.32991 -0.20967,-0.37336 -0.0858,-0.0359 -0.17328,-0.0432 -0.1944,-0.0164 -0.0211,0.0269 0.0129,0.44312 0.0755,0.92491 0.16592,1.27726 0.2126,1.15029 -0.44172,1.20144 -0.30847,0.0241 -1.0095,0.11654 -1.55787,0.20543 -0.54837,0.0889 -1.20745,0.18177 -1.46456,0.20633 -0.25712,0.0246 -0.52495,0.0818 -0.59508,0.12724 -0.0951,0.0616 -0.1425,0.0636 -0.18677,0.008 -0.0734,-0.0928 -0.61995,-0.0331 -0.96215,0.10506 -0.13282,0.0536 -0.39992,0.10808 -0.59361,0.12091 -0.43269,0.0287 -0.80941,0.10228 -0.80847,0.15803 3.1e-4,0.0229 0.0938,0.0754 0.20771,0.1166 0.11389,0.0413 0.20707,0.0486 0.20707,0.0162 0,-0.0323 0.10383,-0.0587 0.23076,-0.0587 0.12692,0 0.30452,-0.04 0.39466,-0.0887 0.14937,-0.0808 0.88633,-0.17545 1.34788,-0.17325 0.10282,4.9e-4 0.18692,-0.0206 0.18695,-0.047 1e-5,-0.0264 0.215,-0.0541 0.47774,-0.0617 0.26274,-0.008 0.66469,-0.0567 0.89318,-0.10912 0.67517,-0.15475 1.28454,-0.23545 2.03561,-0.26956 0.82202,-0.0373 1.59051,-0.13613 1.65686,-0.21304 0.0255,-0.0296 0.49508,-0.0892 1.04345,-0.13243 1.68078,-0.13261 2.48691,-0.21514 2.61722,-0.26805 0.0685,-0.0278 0.31156,-0.0691 0.54006,-0.0918 0.22848,-0.0226 0.51732,-0.0727 0.64196,-0.11152 0.12464,-0.0388 0.35832,-0.0587 0.51929,-0.044 0.16097,0.0147 0.29276,0.003 0.29276,-0.0251 0,-0.0285 0.0841,-0.0514 0.18694,-0.0507 0.10282,7.1e-4 0.63561,-0.0716 1.18398,-0.16045 0.54837,-0.0889 1.53917,-0.22294 2.20179,-0.29782 0.66261,-0.0749 1.52255,-0.1788 1.91098,-0.23091 1.84542,-0.24758 1.74843,-0.24133 1.86165,-0.1204 0.0972,0.10376 0.11931,0.10427 0.31093,0.006 0.18211,-0.0932 0.22508,-0.0944 0.3669,-0.0106 0.23395,0.13819 0.36232,0.12019 0.45163,-0.0632 0.0434,-0.0892 0.10789,-0.16328 0.14329,-0.16451 0.0354,-0.001 0.53178,-0.0163 1.103,-0.0331 0.96633,-0.0285 2.20405,-0.1283 2.49226,-0.20099 0.0684,-0.0172 0.55446,-0.034 1.08013,-0.0373 0.52566,-0.003 0.9932,-0.0274 1.0389,-0.0537 0.15185,-0.0875 2.68051,-0.0384 2.7993,0.0544 0.0876,0.0685 0.085,0.0945 -0.0143,0.14244 -0.24538,0.11843 0.0348,0.16024 1.2286,0.18326 1.67081,0.0322 1.75106,0.0321 2.17615,-0.004 0.20564,-0.0175 0.42062,-0.0356 0.47774,-0.0402 0.0571,-0.005 0.10386,-0.0338 0.10386,-0.0649 0,-0.0311 -0.27107,-0.0774 -0.60237,-0.1029 -0.33131,-0.0255 -0.64886,-0.0766 -0.70575,-0.11343 -0.0569,-0.0368 -0.18023,-0.0512 -0.27409,-0.0321 -0.0939,0.0192 -0.51456,-0.0213 -0.93505,-0.0897 -1.29056,-0.21018 -3.2888,-0.33442 -3.94464,-0.24524 -0.30736,0.0418 -0.65854,0.0787 -0.7804,0.0821 -0.12185,0.003 -0.24955,0.028 -0.28382,0.0547 -0.0982,0.0767 -0.43286,0.0568 -0.46898,-0.0279 -0.0208,-0.0489 -0.0909,-0.0578 -0.19377,-0.0247 -0.0887,0.0285 -0.25477,0.061 -0.36902,0.0721 -0.11424,0.0111 -0.37596,0.0393 -0.5816,0.0627 -0.20564,0.0234 -0.64,0.0415 -0.96523,0.0403 -0.32524,-10e-4 -0.96085,0.035 -1.41246,0.0805 -1.09582,0.11045 -1.47591,0.10211 -1.50935,-0.033 -0.0188,-0.0759 0.0569,-0.11787 0.26873,-0.14891 0.33418,-0.049 0.41588,-0.25819 0.12869,-0.32937 -0.20494,-0.0508 -0.21712,-0.19818 -0.0208,-0.25119 0.08,-0.0216 0.25756,-0.0976 0.39466,-0.16881 0.13709,-0.0713 0.32403,-0.16129 0.41543,-0.19999 0.53726,-0.22746 0.6923,-0.30913 0.94706,-0.49933 0.15528,-0.11595 0.35159,-0.21089 0.4362,-0.21089 0.0846,0 0.15383,-0.0258 0.15383,-0.0573 0,-0.0315 0.0786,-0.0733 0.17462,-0.0929 0.18581,-0.0379 0.1448,-0.17425 -0.0524,-0.17425 -0.13994,0 -0.86998,0.39168 -0.86998,0.46676 0,0.0288 -0.0892,0.0523 -0.19814,0.0523 -0.12129,-1e-5 -0.25259,0.065 -0.33851,0.16741 -0.0772,0.092 -0.18618,0.15357 -0.24228,0.13674 -0.0561,-0.0168 -0.18993,0.0406 -0.29729,0.12775 -0.11997,0.0972 -0.22495,0.1352 -0.27231,0.0982 -0.0473,-0.037 -0.16051,2.5e-4 -0.29356,0.0966 -0.13488,0.0976 -0.26545,0.14006 -0.34646,0.11267 -0.36765,-0.12428 -0.57204,-0.10376 -0.7197,0.0722 -0.13942,0.16617 -0.17275,0.17357 -0.60984,0.13496 -0.97867,-0.0864 -1.89771,-0.13459 -2.45641,-0.12875 -0.56602,0.006 -3.01129,0.005 -9.30566,-0.003 -1.69081,-0.002 -3.15673,0.0169 -3.25773,0.0422 -0.26083,0.0654 -2.49348,0.1289 -4.01232,0.11406 -2.08871,-0.0204 -2.24333,-0.0199 -5.16514,0.0171 -1.53846,0.0195 -2.84585,0.0589 -2.90543,0.0877 -0.14,0.0676 -0.74525,0.0857 -3.72768,0.1109 -1.41289,0.0119 -2.5189,-0.005 -2.61122,-0.0401 -0.0881,-0.0334 -0.55589,-0.0668 -1.03971,-0.0743 -0.48384,-0.008 -0.95838,-0.0464 -1.05449,-0.0866 -0.0961,-0.0402 -0.19521,-0.0571 -0.22021,-0.0375 -0.0963,0.0752 -2.20997,0.12047 -4.87856,0.10455 -2.69367,-0.0161 -6.12479,-0.0555 -6.25224,-0.0719 -0.13066,-0.0168 -0.0539,-0.13413 0.14069,-0.21532 0.42222,-0.17613 1.17278,-0.52459 1.29255,-0.60009 0.0686,-0.0432 0.29287,-0.1147 0.49851,-0.1588 0.20564,-0.0441 0.49336,-0.12267 0.63922,-0.17464 0.14587,-0.052 0.42628,-0.12012 0.62314,-0.15145 0.19688,-0.0313 0.60086,-0.12325 0.89789,-0.20429 0.29703,-0.081 0.57745,-0.15681 0.62314,-0.16843 0.0457,-0.0116 0.13917,-0.0472 0.20772,-0.079 0.41072,-0.19041 0.58382,-0.20617 1.95253,-0.1773 0.77686,0.0164 1.43115,0.0348 1.45401,0.0409 0.13805,0.0368 1.69481,-0.002 2.57567,-0.0641 0.57122,-0.0403 1.26291,-0.0875 1.5371,-0.10481 0.64443,-0.0407 5.14053,-0.0409 8.64098,-7.1e-4 3.13507,0.0361 12.64943,0.11993 12.83683,0.11317 0.0685,-0.003 0.33027,-0.019 0.5816,-0.0368 0.25134,-0.0178 1.55995,-0.0474 2.90802,-0.0659 1.34808,-0.0185 2.69408,-0.063 2.99111,-0.0989 0.29703,-0.0359 0.84852,-0.0659 1.22552,-0.0667 0.42939,-7.2e-4 0.68546,-0.0272 0.68546,-0.0706 0,-0.0425 0.0722,-0.051 0.18695,-0.0222 0.10282,0.0259 0.22433,0.0454 0.27003,0.0437 0.0457,-0.002 0.51433,-0.0188 1.04133,-0.0379 0.52702,-0.0191 0.99438,-0.0423 1.03858,-0.0515 0.0442,-0.009 0.43101,0.007 0.85959,0.0354 1.2701,0.0847 1.49833,0.0961 2.57714,0.12863 0.56645,0.0171 1.06943,0.0617 1.11761,0.0994 0.0486,0.038 0.42566,0.0684 0.84774,0.0684 0.41816,-1e-5 0.87811,0.032 1.02203,0.0712 0.27528,0.075 0.34798,0.23142 0.13695,0.29466 -0.17133,0.0513 -0.15699,0.15322 0.0216,0.15322 0.0804,0 0.193,-0.0584 0.25007,-0.12977 0.0571,-0.0714 0.14232,-0.12978 0.18955,-0.12978 0.0472,0 0.16775,-0.0596 0.26775,-0.13231 0.23015,-0.16745 0.5429,-0.2306 0.66599,-0.13447 0.062,0.0484 0.0903,0.33819 0.0816,0.83556 -0.0149,0.85254 0.0899,1.32037 0.32082,1.43299 0.1328,0.0647 0.15514,0.0564 0.15514,-0.0588 0,-0.074 -0.0366,-0.18808 -0.0815,-0.25347 -0.15832,-0.23102 -0.0873,-1.35149 0.13307,-2.10227 0.0496,-0.16913 0.038,-0.18162 -0.12918,-0.14016 -0.12319,0.0305 -0.23646,0.008 -0.34452,-0.0683 -0.14324,-0.10125 -0.18609,-0.1037 -0.38865,-0.0222 -0.12522,0.0504 -0.25425,0.1206 -0.28658,0.15601 -0.0371,0.0406 -0.14444,0.0257 -0.2908,-0.0405 -0.16696,-0.0756 -0.55816,-0.11739 -1.39527,-0.1493 -0.63976,-0.0244 -1.35015,-0.0546 -1.57864,-0.067 -0.22849,-0.0125 -0.82671,-0.0437 -1.32938,-0.0696 -0.90632,-0.0466 -1.10315,-0.0605 -1.74481,-0.12255 -0.18279,-0.0177 -0.51929,-0.004 -0.74778,0.031 -0.22849,0.0347 -0.62107,0.0602 -0.87241,0.0568 -0.25133,-0.003 -0.58783,-0.008 -0.74777,-0.0101 -0.57896,-0.008 -2.53515,0.0956 -2.57568,0.13599 -0.0229,0.0228 -0.49021,0.0469 -1.03858,0.0536 -1.0376,0.0127 -1.8992,0.0388 -3.96737,0.11989 -0.67403,0.0264 -1.22552,0.0318 -1.22552,0.0119 0,-0.10272 0.10935,-0.23628 0.16958,-0.20721 0.0846,0.0408 0.42423,-0.10587 1.25733,-0.54306 0.35066,-0.18402 0.67334,-0.33457 0.71694,-0.33457 0.0436,0 0.12274,-0.041 0.17591,-0.091 0.0532,-0.05 0.19427,-0.11008 0.31353,-0.13345 0.11926,-0.0234 0.28866,-0.11382 0.37648,-0.20101 0.0878,-0.0872 0.20718,-0.15853 0.26533,-0.15853 0.0581,0 0.17335,-0.0584 0.25607,-0.12978 0.0827,-0.0714 0.21947,-0.12978 0.30379,-0.12978 0.0843,0 0.15318,-0.0271 0.15318,-0.0602 0,-0.0752 0.41484,-0.23956 0.74924,-0.29694 0.13878,-0.0238 0.4102,-0.11056 0.60319,-0.19276 0.19299,-0.0822 0.49105,-0.18415 0.66241,-0.22659 0.17137,-0.0424 0.31158,-0.10408 0.31158,-0.13701 0,-0.0329 0.12785,-0.0598 0.28399,-0.0598 0.15612,0 0.29634,-0.0229 0.31157,-0.0508 0.0462,-0.0848 0.65048,-0.3385 0.8062,-0.3385 0.19526,-10e-6 0.78633,-0.22661 0.9206,-0.35296 0.0591,-0.0557 0.1727,-0.10125 0.25234,-0.10125 0.0796,0 0.24087,-0.059 0.35831,-0.13117 0.11745,-0.0722 0.24606,-0.12325 0.28577,-0.11356 0.0397,0.01 0.20101,-0.0308 0.35847,-0.09 0.15748,-0.0592 0.44516,-0.15853 0.63938,-0.22077 0.19421,-0.0622 0.35311,-0.13791 0.35311,-0.16818 0,-0.0303 0.0727,-0.055 0.16147,-0.055 0.0888,0 0.21455,-0.0591 0.27928,-0.1313 0.0698,-0.0778 0.16975,-0.1156 0.24553,-0.0929 0.15737,0.0472 0.27837,-0.0868 0.16114,-0.17831 -0.0143,-0.0112 -0.0413,-0.0155 -0.0797,-0.0134 z m 14.8666,0.0913 c -0.14731,0.002 -0.2887,0.0341 -0.41397,0.10266 -0.17881,0.0978 -0.18543,0.13162 -0.13955,0.71693 0.0265,0.33786 0.0841,0.68813 0.12803,0.77841 0.0696,0.14299 0.1134,0.15836 0.33917,0.11963 0.14252,-0.0245 0.30117,-0.0494 0.35262,-0.0555 0.0514,-0.006 0.14738,-0.0374 0.21324,-0.0695 0.0781,-0.0381 0.1315,-0.0308 0.15352,0.0208 0.0223,0.0521 0.0666,0.0578 0.12982,0.0167 0.0529,-0.0343 0.22694,-0.0719 0.38671,-0.0838 l 0.29047,-0.0215 -0.0179,-0.33432 c -0.0339,-0.63866 -0.78381,-1.19892 -1.4222,-1.19054 z m 9.02217,0.0743 c -0.12248,0.003 -0.15278,0.0348 -0.18354,0.11051 -0.0298,0.0733 -0.0178,0.24424 0.0266,0.37983 0.0445,0.13559 0.10669,0.40709 0.13842,0.60338 0.0317,0.19628 0.0743,0.37878 0.0946,0.40554 0.0819,0.1079 0.37833,0.0365 0.73723,-0.17742 0.62116,-0.37031 0.60765,-0.34849 0.54638,-0.877 -0.0192,-0.16613 -0.52703,-0.37705 -1.01958,-0.42342 -0.15997,-0.0151 -0.26666,-0.0234 -0.34014,-0.0214 z m -2.31636,0.0349 c -0.0521,5e-4 -0.10971,0.002 -0.17363,0.003 -0.32685,0.008 -0.62215,0.0375 -0.65625,0.0649 -0.0878,0.0706 0.0663,1.05025 0.18239,1.15949 0.0653,0.0614 0.27936,0.0907 0.66389,0.0907 h 0.56765 l 0.13906,-0.22888 c 0.18177,-0.29914 0.12064,-0.77132 -0.12462,-0.96267 -0.13389,-0.10445 -0.23321,-0.13061 -0.59849,-0.12686 z m -6.54791,0.11014 c 0.18687,0.007 0.50309,0.20484 0.69098,0.45522 0.24968,0.33275 0.27673,0.56877 0.0799,0.69641 -0.15078,0.0977 -0.78208,0.13417 -0.94689,0.0546 -0.12269,-0.0592 -0.062,-1.07547 0.0704,-1.17889 0.0262,-0.0204 0.0625,-0.029 0.10564,-0.0274 z m 15.99331,0.10518 c 0.0202,0 0.0366,0.0292 0.0366,0.0649 0,0.0357 -0.0397,0.0649 -0.0881,0.0649 -0.0484,0 -0.0648,-0.0292 -0.0365,-0.0649 0.0282,-0.0357 0.0678,-0.0649 0.0879,-0.0649 z m -9.25098,0.0706 c 0.0834,-0.003 0.17457,0.0486 0.26321,0.15424 0.12392,0.14768 0.12344,0.1776 -0.006,0.38933 -0.0986,0.16142 -0.19495,0.22938 -0.32553,0.22938 -0.10206,0 -0.23547,0.0142 -0.29633,0.0317 -0.20283,0.0582 -0.28953,-0.0609 -0.29436,-0.40479 -0.003,-0.18735 0.0102,-0.34066 0.0284,-0.34066 0.0182,0 0.10937,0.0365 0.20267,0.0811 0.14317,0.0684 0.18247,0.0634 0.25219,-0.0324 0.0505,-0.0695 0.11074,-0.10534 0.17559,-0.10785 z m 2.53689,0.0332 c 0.0571,0.004 0.19657,0.0109 0.30994,0.0162 0.2535,0.012 0.39092,0.3109 0.19555,0.42532 -0.12648,0.0741 -0.27154,0.2953 -0.24877,0.37931 0.0271,0.10008 -0.23294,0.0442 -0.302,-0.0649 -0.11249,-0.17771 -0.0774,-0.76362 0.0453,-0.75596 z m 4.95239,0.94657 c -0.19039,0.02 -0.41743,0.37469 -0.26597,0.44965 0.15749,0.0779 0.20637,0.0714 0.35944,-0.0482 0.16714,-0.13052 0.13333,-0.37269 -0.0559,-0.40085 -0.0123,-0.002 -0.0248,-0.002 -0.0375,-7.2e-4 z m -0.85261,0.64698 c -0.0125,1.7e-4 -0.0257,0.001 -0.0392,0.002 -0.13821,0.0154 -0.18182,0.0723 -0.20204,0.26297 -0.0223,0.20982 -0.002,0.24333 0.14735,0.24333 0.10818,0 0.20287,-0.0608 0.25202,-0.16171 0.0995,-0.20442 0.0299,-0.34968 -0.15806,-0.34713 z m -0.75005,0.63861 c -0.15199,0 -0.33785,0.24675 -0.33785,0.44839 0,0.0648 0.10121,0.19703 0.22507,0.29377 0.27526,0.21496 0.32806,0.1445 0.28642,-0.38223 -0.023,-0.29089 -0.0564,-0.35993 -0.17364,-0.35993 z m -3.25789,1.51486 c -0.31906,0.0102 -0.78078,0.19004 -0.90388,0.36968 -0.11126,0.16236 0.10617,1.15989 0.27019,1.23959 0.0581,0.0282 0.3285,0.0449 0.60091,0.0371 0.46386,-0.0133 0.50754,-0.0284 0.68871,-0.23852 0.1745,-0.20233 0.18788,-0.26906 0.13615,-0.67891 -0.0634,-0.50259 -0.19938,-0.65019 -0.66549,-0.72251 -0.0383,-0.006 -0.081,-0.008 -0.12659,-0.007 z m -3.42861,0.2465 c -0.36992,0.0134 -0.61517,0.29611 -0.63402,0.7419 -0.0182,0.432 0.0338,0.57676 0.28577,0.795 0.14248,0.12344 0.22803,0.14386 0.46542,0.11153 0.15996,-0.0218 0.45905,-0.0606 0.66469,-0.0863 l 0.37389,-0.0466 -0.004,-0.29668 c -0.005,-0.30362 -0.23129,-0.77397 -0.37341,-0.77397 -0.0436,0 -0.0792,-0.0387 -0.0792,-0.0861 0,-0.13885 -0.35343,-0.34186 -0.62315,-0.3579 -0.0257,-0.002 -0.051,-0.002 -0.0756,-0.001 z m 3.58262,0.0951 c 0.19692,7.1e-4 0.23847,0.0297 0.25834,0.1389 0.0146,0.0803 0.0626,0.146 0.10678,0.146 0.0472,0 0.0417,0.0563 -0.0136,0.137 -0.0517,0.0754 -0.077,0.20662 -0.0562,0.29161 0.0208,0.085 -0.004,0.17937 -0.0544,0.20975 -0.22515,0.1348 -0.70453,0.12759 -0.81691,-0.0123 -0.0936,-0.11661 -0.0539,-0.67755 0.0563,-0.79526 0.0595,-0.0636 0.22967,-0.10939 0.42533,-0.11444 0.0348,-10e-4 0.0661,-10e-4 0.0943,-10e-4 z m -6.92651,0.12267 c -0.0949,0.006 -0.1586,0.0476 -0.26532,0.14182 -0.17801,0.15716 -0.19005,0.20922 -0.13729,0.59401 0.0318,0.23198 0.0962,0.46971 0.14296,0.52822 0.0951,0.11888 0.45624,0.25867 0.74648,0.28896 0.10494,0.011 0.28431,0.0515 0.39856,0.0902 0.34959,0.11853 0.52687,0.0662 0.62071,-0.18327 0.047,-0.1249 0.11756,-0.26597 0.15676,-0.3134 0.0392,-0.0474 0.0458,-0.27171 0.0148,-0.49845 -0.0676,-0.49296 -0.23052,-0.61299 -0.79921,-0.58893 -0.20184,0.008 -0.49778,-0.008 -0.65771,-0.0371 -0.0954,-0.0173 -0.16376,-0.0259 -0.2207,-0.022 z m 3.47357,0.10228 c 0.18224,0.001 0.40506,0.1903 0.64763,0.56765 0.23406,0.36408 0.19605,0.43443 -0.22182,0.41087 -0.18614,-0.0105 -0.36316,0.012 -0.39337,0.0502 -0.16436,0.20769 -0.50363,-0.15508 -0.43684,-0.46714 0.0804,-0.37547 0.22213,-0.56262 0.4044,-0.56156 z m -2.70032,0.22217 h 0.62721 l -0.0337,0.41417 c -0.0273,0.33542 -0.0701,0.43725 -0.22524,0.53532 -0.10532,0.0666 -0.23404,0.11807 -0.2861,0.11444 -0.17832,-0.0125 -0.60761,-0.10241 -0.69844,-0.14625 -0.13864,-0.0669 -0.22668,-0.74934 -0.10857,-0.84151 0.0576,-0.0449 0.35541,-0.0762 0.7249,-0.0762 z m -3.92096,0.16475 c -0.17739,-0.005 -0.37623,0.0238 -0.431,0.0787 -0.12959,0.12999 -0.055,1.17398 0.10061,1.40903 0.0997,0.15061 0.18387,0.19954 0.31774,0.18465 0.20828,-0.0232 0.24419,-0.18022 0.0657,-0.28731 -0.14451,-0.0867 -0.24178,-0.86838 -0.10807,-0.86838 0.19888,0 0.34922,0.0866 0.34922,0.20151 0,0.0696 0.0578,0.12293 0.13356,0.12293 0.10266,0 0.12093,-0.0394 0.079,-0.16982 -0.03,-0.0934 -0.0773,-0.26128 -0.10516,-0.37311 -0.0279,-0.11182 -0.0914,-0.22484 -0.14134,-0.25106 -0.0551,-0.029 -0.15387,-0.0441 -0.2603,-0.0472 z m 0.67751,0.0717 c -0.27779,0.004 -0.28781,0.0886 0.0225,0.17311 0.23714,0.0646 0.24048,0.0725 0.30054,0.72784 0.0469,0.51132 0.0363,0.67431 -0.0462,0.71415 -0.0849,0.041 -0.0784,0.0856 0.0319,0.21722 0.16827,0.20055 0.38801,0.16082 0.38801,-0.0702 0,-0.10588 0.0562,-0.17289 0.16342,-0.19478 0.23044,-0.0471 0.27534,-0.21927 0.12868,-0.49338 -0.0693,-0.12952 -0.12595,-0.28758 -0.1269,-0.35119 -3.2e-4,-0.0636 -0.0848,-0.24697 -0.18743,-0.40757 -0.17249,-0.26984 -0.21345,-0.29358 -0.53925,-0.31202 -0.0504,-0.003 -0.0956,-0.004 -0.13535,-0.003 z m -26.635,2.04764 c 0.0634,-0.001 0.13167,-4.9e-4 0.20415,0.002 0.86658,0.0285 5.40373,0.0937 7.72703,0.11102 1.5994,0.0119 3.03888,0.0384 3.19882,0.0589 0.15994,0.0206 0.47775,0.0536 0.70623,0.0735 0.56519,0.0492 0.62315,0.0719 0.62315,0.24308 0,0.17545 -0.34087,0.31577 -0.81269,0.3347 -0.17017,0.007 -0.35416,0.0341 -0.40894,0.0606 -0.0548,0.0264 -0.2323,0.0519 -0.3945,0.0567 -0.16219,0.005 -0.29485,0.0358 -0.29485,0.0688 0,0.034 -0.14281,0.0412 -0.32943,0.0166 -0.18111,-0.0239 -0.37713,-0.0203 -0.43571,0.008 -0.0586,0.0283 -0.25629,0.0566 -0.43929,0.0629 -0.36148,0.0124 -1.37622,0.1753 -1.51795,0.24371 -0.0483,0.0233 -0.24876,0.0473 -0.44561,0.0534 -0.19687,0.006 -0.4526,0.0495 -0.5683,0.0967 -0.1157,0.0472 -0.30378,0.0863 -0.41803,0.0871 -0.11424,7.1e-4 -0.35727,0.0435 -0.54006,0.0949 -0.18279,0.0514 -0.50693,0.0948 -0.72019,0.0963 -0.21325,10e-4 -0.40115,0.0343 -0.41754,0.0726 -0.0175,0.0409 -0.33752,0.0772 -0.77536,0.0877 -0.41015,0.01 -0.85104,0.0514 -0.97967,0.0924 -0.12865,0.041 -0.3649,0.0747 -0.52514,0.0747 -0.16024,0 -0.34061,0.0384 -0.40083,0.0854 -0.0787,0.0614 -0.31694,0.0796 -0.84579,0.0644 -0.40491,-0.0117 -0.79217,-0.002 -0.86072,0.0229 -0.0686,0.0243 -0.19941,0.0485 -0.2908,0.0539 -0.0914,0.005 -0.25034,0.0316 -0.35312,0.0582 -0.15492,0.0401 -0.2023,0.0171 -0.27701,-0.13447 -0.0524,-0.10631 -0.067,-0.31851 -0.0347,-0.50719 0.0305,-0.17844 0.0715,-0.49964 0.091,-0.71377 0.0195,-0.21413 0.0554,-0.45781 0.0797,-0.54153 0.0243,-0.0837 -0.002,-0.19544 -0.0578,-0.24828 -0.14353,-0.13505 0.0699,-0.22731 0.51393,-0.23547 z m -9.18395,0.15094 c 0.30176,0.002 0.56887,0.015 0.68871,0.04 0.27676,0.0579 0.1935,0.23346 -0.15011,0.31658 -0.4037,0.0977 -1.41272,0.47916 -1.65134,0.6243 -0.10898,0.0663 -0.27321,0.12052 -0.3648,0.12052 -0.15218,0 -0.16196,-0.0294 -0.11408,-0.34066 0.0288,-0.18737 0.0531,-0.40351 0.0531,-0.48032 6.3e-4,-0.0981 0.0787,-0.16087 0.2624,-0.21089 0.17409,-0.0474 0.77322,-0.0732 1.27616,-0.0696 z m 52.26971,0.26728 c -0.0643,-0.002 -0.16379,0.005 -0.31334,0.0172 -0.244,0.0206 -1.02304,0.067 -1.73135,0.10316 -0.70831,0.0362 -1.71781,0.0955 -2.24333,0.13168 -1.0996,0.0757 -2.36933,0.11991 -4.32828,0.15081 -0.75828,0.012 -1.41259,0.0366 -1.45402,0.0549 -0.0414,0.0182 -0.75199,0.0301 -1.57896,0.0264 -1.14622,-0.005 -1.53643,-0.0282 -1.64176,-0.0964 -0.0921,-0.0597 -0.25241,-0.0777 -0.48083,-0.0537 -0.18849,0.0197 -0.57135,0.008 -0.85082,-0.0264 -0.27949,-0.0343 -0.55997,-0.0686 -0.62332,-0.0762 -0.0633,-0.008 -0.12567,0.0381 -0.13842,0.10139 -0.0127,0.0633 0.0205,0.10934 0.0737,0.10228 0.0532,-0.007 0.3399,0.009 0.63694,0.0351 0.29703,0.0263 0.70831,0.0595 0.91395,0.0739 0.20564,0.0144 0.61691,0.0521 0.91395,0.0839 0.29702,0.0318 0.83917,0.0454 1.20475,0.0303 0.36557,-0.0151 1.48725,-0.0398 2.49259,-0.0549 3.54007,-0.053 5.16243,-0.12584 5.34073,-0.23966 0.0708,-0.0452 0.16787,-0.0467 0.2908,-0.005 0.10147,0.0348 0.27798,0.0419 0.39223,0.016 0.11424,-0.026 0.4899,-0.05 0.83491,-0.0536 0.34502,-0.004 0.66283,-0.0324 0.70624,-0.064 0.0434,-0.0316 0.2748,-0.0368 0.5141,-0.0117 0.62308,0.0655 1.13416,0.001 1.17066,-0.14714 0.0164,-0.0668 0.006,-0.0951 -0.1011,-0.0987 z m -15.57526,0.19885 c -0.0345,-0.002 -0.0848,0.007 -0.1579,0.0238 -0.12567,0.0283 -0.35649,0.0537 -0.5128,0.0564 -0.37519,0.007 -0.43518,0.15048 -0.074,0.17755 0.52905,0.0397 0.81529,-0.015 0.81529,-0.15576 0,-0.0692 -0.0132,-0.0997 -0.0706,-0.10201 z m -7.55225,0.1114 c -0.43781,-0.006 -0.59439,0.024 -0.62819,0.0928 -0.0254,0.0517 -0.0302,0.10649 -0.0107,0.12179 0.0196,0.0153 0.54669,0.0254 1.17133,0.0226 0.78567,-0.004 1.14572,-0.0285 1.16807,-0.0809 0.0219,-0.0511 -0.16454,-0.0866 -0.57462,-0.10938 -0.49928,-0.0277 -0.86321,-0.0436 -1.12589,-0.0469 z m -28.46778,2.8519 c -0.40434,-0.003 -1.04896,0.13741 -1.04896,0.27514 0,0.0357 0.0307,0.0501 0.0683,0.0319 0.0647,-0.0312 1.01415,-0.17266 1.24305,-0.18516 0.066,-0.004 0.077,-0.029 0.0291,-0.0664 -0.0486,-0.0379 -0.15667,-0.0546 -0.29145,-0.0555 z m -1.3951,0.19415 c -0.0717,-10e-4 -0.15266,0.016 -0.23546,0.0503 -0.20146,0.0834 -0.19709,0.086 0.1454,0.0869 0.38257,0.001 0.43408,-0.0277 0.20771,-0.11609 -0.0348,-0.0136 -0.0746,-0.0206 -0.11765,-0.0212 z"
       id="path880"
       inkscape:connector-curvature="0"
       inkscape:export-filename="/Users/jan/Documents/repo/github/microcol/microcol-game/src/main/resources/images/europe.png"
       inkscape:export-xdpi="98.734848"
       inkscape:export-ydpi="98.734848" />
    <path
       style="fill:#000000;stroke-width:0.07342543"
       d="m 146.03768,68.917159 c -0.0884,-0.0025 -0.22893,0.0068 -0.45243,0.02192 -0.33131,0.02247 -0.84541,0.0894 -1.14243,0.148658 -0.43898,0.08756 -0.88996,0.104729 -2.40951,0.09176 -3.26358,-0.02784 -8.42241,-0.01823 -8.72405,0.01622 -0.51775,0.05914 -1.84489,0.163998 -2.86648,0.226601 -0.54837,0.0336 -1.25876,0.09053 -1.57865,0.12648 -0.31988,0.03596 -0.76854,0.06514 -0.99703,0.06514 -0.22849,-1.49e-4 -1.78013,0.0015 -3.44809,0.0039 -1.66795,0.0024 -3.35045,-0.0091 -3.73887,-0.02547 -1.83873,-0.07741 -5.93184,-0.03375 -7.77605,0.08301 -2.31327,0.146471 -2.89084,0.158502 -7.63646,0.157275 -3.95389,-9.28e-4 -6.344154,-0.04291 -8.179794,-0.143337 -0.61459,-0.03363 -1.14738,-0.04668 -1.18398,-0.02903 -0.0366,0.01768 -0.10223,0.01504 -0.14572,-0.0059 -0.0435,-0.02099 -0.70715,-0.05487 -1.47478,-0.07528 -0.76764,-0.02039 -1.42016,-0.04871 -1.45012,-0.06299 -0.03,-0.01428 -1.82464,-0.05669 -3.98814,-0.09417 -2.16352,-0.03747 -4.02709,-0.07775 -4.14133,-0.08947 -0.11425,-0.01173 -0.67508,-0.04261 -1.2463,-0.06869 -0.57122,-0.02609 -1.07597,-0.07011 -1.12167,-0.09784 -0.1255,-0.07613 -1.52716,-0.143655 -2.74184,-0.13206 -0.594071,0.0057 -1.528791,0.01105 -2.077161,0.01179 -0.54837,7.85e-4 -1.57656,0.04149 -2.28487,0.09036 -0.70831,0.04887 -1.69912,0.09204 -2.20179,0.09594 -0.50267,0.0039 -1.04481,0.01786 -1.20475,0.03092 -0.15994,0.01308 -1.1227,0.02671 -2.13947,0.03042 -1.20431,0.0044 -1.84867,0.02982 -1.84867,0.07325 0,0.04089 -0.1365,0.05255 -0.35312,0.03016 -0.19421,-0.02008 -1.71781,-0.04977 -3.38577,-0.06602 -1.667956,-0.01626 -3.593482,-0.0491 -4.278943,-0.07287 -0.79673,-0.02764 -1.531019,-0.01561 -2.035614,0.03333 -0.434126,0.04211 -1.181903,0.07469 -1.661727,0.07224 -0.926555,-0.0046 -2.357573,0.106034 -2.591416,0.200367 -0.0772,0.03109 -0.159422,0.03248 -0.182723,0.0031 -0.0233,-0.02946 -0.277936,-0.0307 -0.565864,-0.0028 -0.598193,0.058 -4.097596,0.125227 -7.752015,0.149034 -5.420854,0.03532 -9.911773,0.111296 -10.385788,0.175658 -0.750785,0.101945 -3.276884,0.169858 -5.192893,0.139658 -4.195586,-0.06612 -7.590948,-0.0037 -9.721097,0.178825 -0.388429,0.03328 -1.04308,0.06108 -1.454659,0.06108 -0.411579,2.94e-4 -0.878939,0.0332 -1.038579,0.07312 -0.200437,0.05012 -1.601376,0.06985 -4.527554,0.06362 -3.3994803,-0.0072 -4.5659963,0.01322 -5.8991263,0.103418 -1.992384,0.134772 -7.36784801,0.158722 -7.851656,0.03497 -0.159941,-0.04091 -1.075967,-0.119998 -2.035612,-0.175782 -0.959648,-0.05578 -1.875673,-0.12498 -2.035615,-0.153726 -0.159941,-0.02877 -0.795551,-0.02993 -1.412467,-0.0026 -0.616916,0.02726 -2.430275,0.05207 -4.0296857,0.05525 -1.599411,0.0031 -3.281913,0.01496 -3.738883,0.02624 -0.80443,0.01983 -1.49113,-0.01928 -2.61722,-0.148911 -1.08364,-0.124741 -2.48044,-0.07152 -3.82197,0.145621 -0.44763,0.07245 -0.54466,0.111575 -0.56668,0.22812 -0.0239,0.126785 0.0109,0.140547 0.35426,0.140547 0.20944,0 0.44578,-0.02561 0.52513,-0.05691 0.56168,-0.221612 2.34634,-0.284962 3.67949,-0.130659 0.70799,0.08195 1.40243,0.08801 3.56865,0.03117 0.845407,-0.02218 1.649267,-0.03844 1.78636,-0.03599 0.137092,0.0024 1.7448127,0.0029 3.5727117,0.0011 1.827897,-0.0016 3.510395,0.02496 3.738883,0.05906 0.228487,0.03409 0.864097,0.08079 1.412467,0.103794 1.329146,0.05576 1.584675,0.07706 2.09581899,0.174517 0.31745,0.06051 1.248296,0.07985 3.46187401,0.07198 1.665202,-0.0059 3.133557,-0.02793 3.263085,-0.04892 0.813591,-0.131923 2.491017,-0.179629 5.7193223,-0.162849 1.964991,0.0102 3.740961,0.01865 3.946599,0.01939 0.205638,4.91e-4 0.766472,-0.03607 1.246295,-0.08124 1.20387,-0.113295 2.978791,-0.21317 4.351482,-0.244848 0.633993,-0.01463 1.437853,-0.05095 1.786355,-0.08073 0.733714,-0.06271 4.655256,-0.0388 6.117391,0.03726 0.878115,0.04568 3.177236,-0.03721 5.52524,-0.199101 0.205636,-0.01418 1.790187,-0.04443 3.521267,-0.06729 1.731077,-0.02285 3.18354,-0.05891 3.227708,-0.08022 0.04417,-0.02133 0.833805,-0.02985 1.754711,-0.01888 4.027759,0.04795 8.224506,-0.01906 10.299295,-0.164504 0.739941,-0.05187 1.868887,-0.113268 2.508654,-0.136492 0.639761,-0.02324 1.192109,-0.05574 1.227469,-0.07224 0.0929,-0.04339 3.944919,-0.02793 6.084129,0.02447 1.00534,0.02458 2.07092,0.03725 2.36796,0.02801 0.29703,-0.0092 1.88606,-0.02788 3.53117,-0.04144 2.68501,-0.02212 4.98517,-0.06818 4.98517,-0.09986 0,-0.01603 0.5819,-0.04827 2.19351,-0.121412 1.8737,-0.08504 5.283461,-0.04814 5.448651,0.05893 0.069,0.04476 0.20213,0.06564 0.29583,0.04651 0.0937,-0.01913 0.40241,-0.01036 0.68595,0.01964 0.28355,0.03001 0.85205,0.07397 1.26333,0.09758 0.41128,0.0236 0.89733,0.05325 1.08012,0.06603 0.18279,0.01277 1.65965,0.03842 3.28191,0.0569 1.62226,0.0185 3.08043,0.0492 3.24037,0.06819 0.24761,0.02938 1.83562,0.101517 4.40357,0.200114 2.40501,0.09234 10.335684,0.209906 10.635054,0.157658 0.0229,-0.004 0.54629,-0.01835 1.16321,-0.03194 2.14878,-0.04731 3.70311,-0.103069 4.56974,-0.163868 0.47983,-0.03366 1.9193,-0.07908 3.19882,-0.101005 1.27954,-0.02193 2.36975,-0.06732 2.42281,-0.100758 0.0611,-0.03849 0.11655,-0.03535 0.15124,0.0085 0.0301,0.03809 0.19246,0.06594 0.36059,0.06185 0.16814,-0.0041 1.12828,0.01722 2.13363,0.0474 2.54719,0.07646 7.02482,0.06033 8.26709,-0.02978 0.57121,-0.04143 1.52463,-0.09106 2.11869,-0.110387 1.15037,-0.03743 2.21533,-0.120705 2.34491,-0.183257 0.12581,-0.06073 6.42119,-0.107155 6.85625,-0.05057 0.21675,0.02821 0.4113,0.03783 0.43231,0.02142 0.0325,-0.02535 0.87693,-0.02282 2.53868,0.0076 0.20564,0.0038 0.673,-0.04512 1.03858,-0.10874 0.36558,-0.06361 0.89837,-0.132753 1.18398,-0.153602 0.48031,-0.03505 0.51929,-0.04966 0.51929,-0.194664 0,-0.09694 -0.003,-0.13376 -0.14995,-0.137886 z"
       id="path4246"
       inkscape:connector-curvature="0"
       inkscape:export-filename="/Users/jan/Documents/repo/github/microcol/microcol-game/src/main/resources/images/europe.png"
       inkscape:export-xdpi="98.734848"
       inkscape:export-ydpi="98.734848" />
  </g>
</svg>
