<?xml version="1.0" encoding="UTF-8" standalone="no"?>
<!-- Created with Inkscape (http://www.inkscape.org/) -->

<svg
   xmlns:dc="http://purl.org/dc/elements/1.1/"
   xmlns:cc="http://creativecommons.org/ns#"
   xmlns:rdf="http://www.w3.org/1999/02/22-rdf-syntax-ns#"
   xmlns:svg="http://www.w3.org/2000/svg"
   xmlns="http://www.w3.org/2000/svg"
   xmlns:sodipodi="http://sodipodi.sourceforge.net/DTD/sodipodi-0.dtd"
   xmlns:inkscape="http://www.inkscape.org/namespaces/inkscape"
   width="210mm"
   height="297mm"
   viewBox="0 0 210 297"
   version="1.1"
   id="svg8"
   inkscape:version="0.92.2 5c3e80d, 2017-08-06"
   sodipodi:docname="kings-seal.svg">
  <defs
     id="defs2" />
  <sodipodi:namedview
     id="base"
     pagecolor="#ffffff"
     bordercolor="#666666"
     borderopacity="1.0"
     inkscape:pageopacity="0.0"
     inkscape:pageshadow="2"
     inkscape:zoom="0.49497475"
     inkscape:cx="439.97114"
     inkscape:cy="674.28571"
     inkscape:document-units="mm"
     inkscape:current-layer="layer1"
     showgrid="false"
     inkscape:window-width="1596"
     inkscape:window-height="1005"
     inkscape:window-x="84"
     inkscape:window-y="1"
     inkscape:window-maximized="1" />
  <metadata
     id="metadata5">
    <rdf:RDF>
      <cc:Work
         rdf:about="">
        <dc:format>image/svg+xml</dc:format>
        <dc:type
           rdf:resource="http://purl.org/dc/dcmitype/StillImage" />
        <dc:title></dc:title>
      </cc:Work>
    </rdf:RDF>
  </metadata>
  <g
     inkscape:label="Layer 1"
     inkscape:groupmode="layer"
     id="layer1">
    <path
       style="fill:#a11010;fill-opacity:1;fill-rule:evenodd;stroke:none;stroke-width:0.26458332px;stroke-linecap:butt;stroke-linejoin:miter;stroke-opacity:1"
       d="m 65.106397,111.60268 12.37872,-16.252978 6.164898,-1.449093 11.565818,3.279626 2.868989,1.382264 3.556608,8.539611 4.46669,10.05653 0.44038,5.82952 -5.69338,7.83847 -10.707799,5.25001 -10.832555,0.0309 -13.07444,-10.04727 z"
       id="path1045"
       inkscape:connector-curvature="0"
       sodipodi:nodetypes="ccccccccccccc"
       inkscape:export-filename="/Users/jan/Documents/repo/github/microcol/microcol-game/src/main/resources/images/kings-seal.png"
       inkscape:export-xdpi="23.560846"
       inkscape:export-ydpi="23.560846" />
    <path
       style="fill:#000000;stroke-width:0.26458332"
       d="m 107.1009,120.3411 c -0.0181,-1.25945 -0.17159,-2.68908 -0.46612,-4.18993 -0.0428,-0.21828 -0.21869,-0.73188 -0.39068,-1.14153 -0.17198,-0.40966 -0.31264,-0.81534 -0.31264,-0.90124 0,-0.0859 -0.27498,-0.52484 -0.61133,-0.97513 -0.33634,-0.45029 -0.77212,-1.23528 -0.96842,-1.7446 -0.1963,-0.50932 -0.45709,-1.03946 -0.57929,-1.1777 -0.12219,-0.13825 -0.22221,-0.56278 -0.22221,-0.94362 0,-0.67632 -1.36956,-3.65784 -1.81436,-3.94962 -0.29868,-0.19593 -1.03692,-2.50863 -1.25832,-3.94188 -0.21589,-1.397611 -0.888252,-2.231009 -3.120737,-3.87005 -0.939959,-0.690091 -1.761332,-1.391107 -1.825213,-1.557528 -0.147087,-0.383249 -3.026523,-0.555439 -3.447333,-0.206189 -0.212161,0.17608 -0.829834,0.08674 -1.898594,-0.274918 -0.87135,-0.294849 -1.800569,-0.578337 -2.064988,-0.629936 -0.26443,-0.05157 -1.097865,-0.483442 -1.852084,-0.959631 -1.171971,-0.73996 -1.632712,-0.871789 -3.168282,-0.905888 -1.96283,-0.04353 -4.154993,0.479888 -5.255493,1.254186 -0.38627,0.271811 -0.822737,0.494027 -0.969967,0.494027 -0.34693,0 -3.096832,3.017163 -3.913974,4.294312 -0.3473,0.542811 -0.631486,1.173565 -0.631486,1.401985 0,0.52628 -0.684842,1.8611 -1.270722,2.47633 -3.17304,3.33209 -6.085218,6.96967 -6.554639,8.18813 -0.44309,1.15012 -0.361519,4.13293 0.266649,9.78287 0.598011,5.37866 1.405975,6.79577 5.535065,9.70431 2.278859,1.60522 2.914727,2.11654 5.203814,4.18786 0.511951,0.46323 1.179224,1.05378 1.483114,1.31207 0.932561,0.79263 4.679823,1.23927 8.924004,1.06401 2.058779,-0.085 4.040582,-0.27646 4.404382,-0.42529 0.363802,-0.1488 0.720949,-0.29041 0.793749,-0.31471 0.07276,-0.0244 0.467808,-0.18325 0.877467,-0.35295 0.409649,-0.16971 0.844767,-0.30851 0.966867,-0.30851 0.122108,0 1.085773,-0.29223 2.141987,-0.64957 1.314572,-0.44477 2.240685,-0.96254 2.935738,-1.64125 0.558453,-0.54531 1.015442,-0.90325 1.015442,-0.7953 0,0.10797 0.26789,-0.0543 0.595312,-0.3607 0.327422,-0.30636 1.012032,-0.80921 1.521352,-1.11724 1.7524,-1.05984 4.49792,-4.39763 4.49792,-5.4684 0,-0.28215 0.19232,-0.70548 0.42736,-0.94051 0.6914,-0.69141 1.03682,-2.31719 1.00666,-4.41627 z m -1.08727,-0.15865 c -0.03,1.37957 -0.45742,2.64114 -1.34979,4.5589 -1.14205,2.45433 -2.90259,4.34976 -5.725231,6.16396 -1.008562,0.64826 -1.98797,1.33272 -2.176094,1.52084 -0.680405,0.6804 -2.107698,1.39322 -3.663345,1.82986 -0.873119,0.24506 -2.123283,0.61782 -2.778124,0.82837 -1.713609,0.551 -9.610543,0.82984 -10.988993,0.38809 -1.123489,-0.36007 -3.018832,-1.68484 -4.78627,-3.34656 -0.600001,-0.56409 -1.964544,-1.62109 -3.032374,-2.3487 -4.393901,-2.99392 -4.838446,-3.78997 -5.438944,-9.73945 -0.67568,-6.69486 -0.681657,-7.31205 -0.08062,-8.63152 0.68325,-1.49995 3.03575,-4.37637 5.204852,-6.36395 1.409927,-1.29193 1.798994,-1.84473 2.330606,-3.31039 0.351038,-0.9678 0.90951,-2.093243 1.24075,-2.500625 0.33124,-0.407408 0.80042,-1.104953 1.042831,-1.550291 1.35436,-2.488171 8.031203,-4.294569 10.190591,-2.756938 0.430012,0.306168 1.54754,0.808967 2.48357,1.116727 0.93603,0.30779 1.922476,0.68054 2.192115,0.82889 0.26964,0.148349 1.400742,0.279021 2.513542,0.290422 l 2.023131,0.02015 1.781805,1.465027 c 1.891588,1.555158 2.073868,1.891128 2.603976,4.805908 0.349655,1.92257 2.922416,7.55227 4.396626,9.6206 0.50433,0.70755 0.95446,1.48194 1.00046,1.72083 0.046,0.23887 0.22384,0.95581 0.39532,1.59267 0.42551,1.58018 0.64296,2.72419 0.6196,3.79718 z m -3.77393,-0.82734 c -0.0431,-2.89162 -0.87342,-6.09447 -2.452564,-9.28935 -2.29575,-4.6447 -3.74854,-6.18064 -7.607805,-8.04241 -1.637419,-0.78991 -4.087014,-0.93733 -5.257044,-0.31626 -0.96978,0.51478 -3.388868,1.4795 -3.710368,1.4795 -0.145449,0 -0.599591,0.1375 -1.00924,0.30541 -0.40966,0.16788 -0.906616,0.33744 -1.104326,0.37724 -0.19771,0.0399 -1.373571,0.55933 -2.61276,1.15393 -1.678379,0.80534 -2.592287,1.45131 -3.582726,2.53266 -0.731271,0.79841 -1.447514,1.45159 -1.591635,1.45159 -1.095129,0 -2.284712,3.72417 -2.535761,7.9375 -0.204881,3.43866 -0.131361,3.81413 1.323948,6.75463 2.070992,4.18446 5.934197,8.67094 8.016565,9.31002 0.98021,0.30081 5.296927,0.28525 7.631576,-0.0274 1.34426,-0.18002 5.255678,-1.41052 6.967016,-2.19212 1.69967,-0.77627 3.872741,-2.32398 5.03587,-3.58583 1.052084,-1.14139 1.848844,-2.32182 1.566824,-2.32182 -0.0743,0 -0.0103,-0.32742 0.14212,-0.7276 0.54892,-1.44162 0.8062,-3.06473 0.78031,-4.79971 z m -1.4304,1.37304 c 0.004,0.29753 -0.0463,0.73085 -0.1726,1.25729 -0.173,0.72112 -0.42153,1.37741 -0.55243,1.45831 -0.311117,0.19228 -0.247911,-0.77934 0.14625,-2.25051 0.29916,-1.11657 0.56999,-1.11963 0.57878,-0.46509 z m -0.45889,-3.93619 c -0.0136,0.13026 -0.0851,0.14528 -0.21911,0.007 -0.134199,-0.13824 -0.313168,-0.72739 -0.397909,-1.30948 l -0.153995,-1.05833 0.377753,0.92604 c 0.277771,0.68061 0.415921,1.21743 0.393261,1.43454 z m -3.244249,-2.69286 c 0.0091,0.68002 -0.01805,1.56394 -0.07131,2.81843 -0.152361,3.5887 -0.225531,4.00504 -1.024226,5.84823 -1.889001,4.35933 -1.930662,4.42056 -3.853511,5.69887 l -1.810742,1.20406 -3.385841,-0.25321 c -1.862281,-0.13923 -3.743548,-0.32748 -4.180107,-0.41858 -1.88399,-0.39312 -3.681106,-1.58263 -4.124296,-2.73007 -0.127479,-0.33004 -0.501444,-0.70418 -0.831475,-0.83147 -0.576627,-0.22238 -1.28942,-1.08168 -2.74815,-3.31349 -1.20922,-1.85013 -1.212675,-1.42508 0.06615,-8.02122 0.0917,-0.47294 0.240112,-0.86895 0.330211,-0.88005 1.34698,-0.16645 1.507492,-0.31785 2.107882,-1.98851 0.433729,-1.20692 0.53126,-1.30008 1.378209,-1.31568 0.501272,-0.009 1.10426,-0.039 1.339972,-0.0661 0.6696,-0.0771 2.613792,-1.90878 2.613792,-2.46239 0,-0.29343 0.189823,-0.50146 0.463021,-0.50746 0.967052,-0.0208 2.631559,-0.31168 3.994589,-0.69866 1.463479,-0.41548 3.556625,-0.29905 4.204393,0.23409 0.18002,0.14818 0.619337,0.19615 0.976686,0.10645 0.99019,-0.24851 1.791597,0.26704 2.653067,1.70688 0.430257,0.71914 0.886839,1.30741 1.01441,1.30741 0.127572,0 0.180919,0.14883 0.118338,0.33073 -0.06257,0.1819 0.105346,0.97311 0.37362,1.75855 0.263962,0.77281 0.380159,1.33986 0.395325,2.47323 z m -1.758032,14.48749 c 0,0.29398 -0.17639,0.52917 -0.396875,0.52917 -0.402805,0 -0.542385,-0.55988 -0.220141,-0.88212 0.335436,-0.33544 0.617016,-0.17415 0.617016,0.35295 z m -2.067573,-14.21464 c -0.0054,-0.4084 -0.09506,-0.75393 -0.280086,-0.93896 -0.24715,-0.24715 -0.521184,-0.10241 -1.234035,0.65319 -0.503909,0.53411 -0.916223,1.06099 -0.916223,1.17047 0,0.27713 -1.102447,1.42369 -1.368906,1.42369 -0.120161,0 -0.218594,-0.65485 -0.218594,-1.45521 0,-1.28633 -0.06234,-1.45521 -0.537435,-1.45521 -0.295608,0 -0.610616,0.20836 -0.700214,0.46302 -0.897649,2.55022 -1.894573,3.63694 -1.577681,1.71979 0.09021,-0.5457 0.164914,-1.19234 0.166915,-1.4366 0.0043,-0.65821 0.777666,-1.31711 1.337384,-1.13947 0.31724,0.1007 0.579606,-0.0219 0.757578,-0.3545 0.29105,-0.54382 -0.143605,-1.11341 -1.112594,-1.45779 -0.37302,-0.13259 -0.443105,-0.35488 -0.325046,-1.03198 0.17793,-1.0205 -0.137421,-1.61345 -0.790133,-1.48518 -0.482878,0.0949 -0.646784,0.31674 -1.241785,1.68 -0.255828,0.58616 -0.553204,0.81615 -1.137914,0.88005 -0.435488,0.0476 -0.899898,0.19172 -1.031978,0.31988 -0.307938,0.2988 0.288903,1.03069 1.088824,1.3348 0.725619,0.27588 0.744069,0.72088 0.105417,2.56987 -0.483089,1.39861 -0.484282,1.39946 -0.765844,0.66146 -0.155048,-0.40646 -0.414409,-1.17283 -0.576707,-1.70274 -0.21305,-0.69561 -0.474596,-0.99724 -0.939996,-1.08624 -0.77979,-0.14906 -1.053031,0.46738 -0.801499,1.80816 0.09319,0.49667 0.0749,0.90372 -0.04083,0.90072 -0.115739,-10e-4 -0.730252,-0.71586 -1.365292,-1.5875 -1.084688,-1.48881 -1.558147,-1.82666 -1.976107,-1.4087 -0.29555,0.29554 -0.201784,1.00906 0.380855,2.89543 0.416652,1.34895 0.485722,1.91885 0.274402,2.25723 -0.321149,0.51424 -0.47098,3.97423 -0.19172,4.42609 0.123942,0.20053 0.844577,0.24694 2.218986,0.14262 1.119561,-0.085 2.452257,-0.16201 2.961577,-0.17001 1.759939,-0.0295 7.013199,0.39717 7.412469,0.60203 0.916098,0.47006 1.186325,-0.28109 1.199925,-3.3352 0.01154,-2.59133 0.08047,-3.02211 0.602549,-3.75533 0.407717,-0.57258 0.632766,-1.42721 0.623734,-2.10788 z m -2.694927,4.66742 v 0.90795 c 0,0.49927 -0.215374,1.17366 -0.478523,1.49862 -0.470199,0.58068 -0.530659,0.58592 -3.505729,0.31316 -1.664999,-0.15314 -3.592745,-0.21898 -4.283977,-0.14728 -1.04303,0.10822 -1.256771,0.0565 -1.256771,-0.30489 0,-0.34619 -0.162719,-0.39956 -0.79375,-0.26097 -0.829839,0.18227 -0.854387,0.14201 -0.559139,-0.91725 0.233291,-0.83702 1.336024,-1.08226 3.998722,-0.88935 1.091401,0.0791 2.162972,0.15324 2.38125,0.16484 0.218281,0.0116 1.319618,-0.0654 2.447396,-0.17156 z M 81.84818,107.50519 c -0.01941,0.31236 -0.327094,0.70848 -0.646991,0.70848 -0.222848,0 -0.405143,-0.1043 -0.405143,-0.23202 0,-0.3335 0.776877,-0.93157 0.965316,-0.74311 0.06774,0.0677 0.09329,0.16253 0.08682,0.26665 z m -0.621152,23.09161 c -0.01899,0.1787 -0.4118,0.25261 -1.024744,0.0966 -1.81306,-0.46135 -2.084261,-0.60855 -2.459281,-1.33377 -0.212461,-0.41085 -0.386541,-0.87421 -0.386541,-1.02991 0,-0.31123 1.996173,0.6278 2.583823,1.21543 0.202369,0.20238 0.600414,0.49202 0.884182,0.64388 0.291087,0.15577 0.413954,0.30052 0.402561,0.40773 z m -4.405416,-3.09387 c -0.0043,0.30721 -0.146822,0.24226 -0.523483,-0.23926 -0.675349,-0.86339 -0.675349,-1.27264 0,-0.66146 0.29105,0.2634 0.526484,0.6686 0.523483,0.90072 z"
       id="path949"
       inkscape:connector-curvature="0"
       inkscape:export-filename="/Users/jan/Documents/repo/github/microcol/microcol-game/src/main/resources/images/kings-seal.png"
       inkscape:export-xdpi="23.560846"
       inkscape:export-ydpi="23.560846" />
  </g>
</svg>
