<?xml version="1.0" encoding="UTF-8" standalone="no"?>
<svg
   xmlns:osb="http://www.openswatchbook.org/uri/2009/osb"
   xmlns:dc="http://purl.org/dc/elements/1.1/"
   xmlns:cc="http://creativecommons.org/ns#"
   xmlns:rdf="http://www.w3.org/1999/02/22-rdf-syntax-ns#"
   xmlns:svg="http://www.w3.org/2000/svg"
   xmlns="http://www.w3.org/2000/svg"
   xmlns:xlink="http://www.w3.org/1999/xlink"
   xmlns:sodipodi="http://sodipodi.sourceforge.net/DTD/sodipodi-0.dtd"
   xmlns:inkscape="http://www.inkscape.org/namespaces/inkscape"
   sodipodi:docname="market.svg"
   inkscape:version="1.0beta1 (32d4812, 2019-09-19)"
   id="svg2688"
   version="1.1"
   viewBox="0 0 210 297"
   height="297mm"
   width="210mm">
  <defs
     id="defs2682">
    <linearGradient
       osb:paint="solid"
       id="linearGradient879">
      <stop
         id="stop877"
         offset="0"
         style="stop-color:#c88f5f;stop-opacity:1;" />
    </linearGradient>
    <linearGradient
       osb:paint="solid"
       id="wood-1">
      <stop
         id="stop871"
         offset="0"
         style="stop-color:#c88f5f;stop-opacity:1;" />
    </linearGradient>
    <linearGradient
       osb:paint="solid"
       id="grass-1">
      <stop
         id="stop865"
         offset="0"
         style="stop-color:#b0cb1f;stop-opacity:1;" />
    </linearGradient>
    <linearGradient
       osb:paint="solid"
       id="sea-1">
      <stop
         id="stop859"
         offset="0"
         style="stop-color:#9babe0;stop-opacity:1;" />
    </linearGradient>
    <linearGradient
       osb:paint="solid"
       id="sky-1">
      <stop
         id="stop853"
         offset="0"
         style="stop-color:#d2d1ee;stop-opacity:1;" />
    </linearGradient>
    <linearGradient
       gradientUnits="userSpaceOnUse"
       y2="0.6582145"
       x2="442.98809"
       y1="0.6582145"
       x1="-68.035714"
       id="linearGradient857"
       xlink:href="#sky-1"
       inkscape:collect="always" />
    <linearGradient
       gradientUnits="userSpaceOnUse"
       y2="93.259328"
       x2="442.98809"
       y1="93.259328"
       x1="-68.035714"
       id="linearGradient863"
       xlink:href="#sea-1"
       inkscape:collect="always" />
    <linearGradient
       gradientUnits="userSpaceOnUse"
       y2="279.94966"
       x2="442.98809"
       y1="279.94966"
       x1="-68.035714"
       id="linearGradient869"
       xlink:href="#grass-1"
       inkscape:collect="always" />
    <linearGradient
       gradientUnits="userSpaceOnUse"
       y2="207.41964"
       x2="330.85686"
       y1="207.41964"
       x1="12.496717"
       id="linearGradient875"
       xlink:href="#wood-1"
       inkscape:collect="always" />
    <linearGradient
       gradientUnits="userSpaceOnUse"
       y2="348.78275"
       x2="160.69197"
       y1="348.78275"
       x1="146.98065"
       id="linearGradient881"
       xlink:href="#wood-1"
       inkscape:collect="always" />
  </defs>
  <sodipodi:namedview
     inkscape:document-rotation="0"
     inkscape:window-maximized="0"
     inkscape:window-y="23"
     inkscape:window-x="93"
     inkscape:window-height="907"
     inkscape:window-width="1587"
     inkscape:guide-bbox="true"
     showguides="true"
     inkscape:snap-global="false"
     showgrid="false"
     inkscape:current-layer="layer2"
     inkscape:document-units="px"
     inkscape:cy="654.28571"
     inkscape:cx="385.71429"
     inkscape:zoom="0.35"
     inkscape:pageshadow="2"
     inkscape:pageopacity="0.0"
     borderopacity="1.0"
     bordercolor="#666666"
     pagecolor="#ffffff"
     id="base">
    <sodipodi:guide
       inkscape:locked="false"
       id="guide4910"
       orientation="1,0"
       position="-68.035714,362.10119" />
    <sodipodi:guide
       inkscape:locked="false"
       id="guide4912"
       orientation="1,0"
       position="442.98809,232.07739" />
    <sodipodi:guide
       inkscape:locked="false"
       id="guide4914"
       orientation="0,1"
       position="319.0119,327.32739" />
    <sodipodi:guide
       inkscape:locked="false"
       id="guide4916"
       orientation="0,1"
       position="136.82738,-109.6131" />
  </sodipodi:namedview>
  <metadata
     id="metadata2685">
    <rdf:RDF>
      <cc:Work
         rdf:about="">
        <dc:format>image/svg+xml</dc:format>
        <dc:type
           rdf:resource="http://purl.org/dc/dcmitype/StillImage" />
        <dc:title></dc:title>
      </cc:Work>
    </rdf:RDF>
  </metadata>
  <g
     style="display:inline"
     inkscape:label="background"
     id="layer2"
     inkscape:groupmode="layer">
    <path
       sodipodi:nodetypes="ccccc"
       inkscape:export-ydpi="34.762627"
       inkscape:export-xdpi="34.762627"
       inkscape:export-filename="/Users/jan/Documents/repo/github/microcol/microcol-game/src/main/resources/images/market.png"
       inkscape:connector-curvature="0"
       id="path817"
       d="M -68.035714,-30.327389 H 442.98809 v 61.331776 l -511.023804,0.639431 z"
       style="display:inline;fill:url(#linearGradient857);fill-opacity:1;stroke:none;stroke-width:0.41988385000000000px;stroke-linecap:butt;stroke-linejoin:miter;stroke-opacity:1" />
    <path
       inkscape:export-ydpi="34.762627"
       inkscape:export-xdpi="34.762627"
       inkscape:export-filename="/Users/jan/Documents/repo/github/microcol/microcol-game/src/main/resources/images/market.png"
       sodipodi:nodetypes="ccccc"
       inkscape:connector-curvature="0"
       id="path815"
       d="M -68.035714,39.963866 442.98809,38.838237 V 146.60444 l -511.023804,1.07598 z"
       style="display:inline;fill:url(#linearGradient863);fill-opacity:1;stroke:none;stroke-width:0.56632680000000002px;stroke-linecap:butt;stroke-linejoin:miter;stroke-opacity:1" />
    <path
       sodipodi:nodetypes="ccccc"
       inkscape:export-ydpi="34.762627"
       inkscape:export-xdpi="34.762627"
       inkscape:export-filename="/Users/jan/Documents/repo/github/microcol/microcol-game/src/main/resources/images/market.png"
       inkscape:connector-curvature="0"
       id="path817-2"
       d="m -68.035714,153.3042 511.023804,-0.018 V 406.61312 H -68.035714 Z"
       style="display:inline;fill:url(#linearGradient869);fill-opacity:1;stroke:none;stroke-width:1.08049785999999992px;stroke-linecap:butt;stroke-linejoin:miter;stroke-opacity:1" />
    <path
       inkscape:export-ydpi="34.762627"
       inkscape:export-xdpi="34.762627"
       inkscape:export-filename="/Users/jan/Documents/repo/github/microcol/microcol-game/src/main/resources/images/market.png"
       sodipodi:nodetypes="ccccc"
       inkscape:connector-curvature="0"
       id="path3972"
       d="M 12.496717,92.166904 H 330.85686 V 322.67238 H 12.496717 Z"
       style="display:inline;fill:url(#linearGradient875);fill-opacity:1;fill-rule:evenodd;stroke:none;stroke-width:0.91132700000000000px;stroke-linecap:butt;stroke-linejoin:miter;stroke-opacity:1" />
    <path
       inkscape:export-ydpi="34.762627"
       inkscape:export-xdpi="34.762627"
       inkscape:export-filename="/Users/jan/Documents/repo/github/microcol/microcol-game/src/main/resources/images/market.png"
       sodipodi:nodetypes="ccccc"
       inkscape:connector-curvature="0"
       id="path3972-1"
       d="m 146.98065,317.06274 h 13.71132 v 63.44 h -13.71132 z"
       style="display:inline;fill:url(#linearGradient881);fill-opacity:1.0;fill-rule:evenodd;stroke:none;stroke-width:0.09921916000000000px;stroke-linecap:butt;stroke-linejoin:miter;stroke-opacity:1" />
  </g>
  <g
     style="display:inline"
     inkscape:label="ptak"
     id="layer3"
     inkscape:groupmode="layer">
    <path
       inkscape:export-ydpi="34.762627"
       inkscape:export-xdpi="34.762627"
       inkscape:export-filename="/Users/jan/Documents/repo/github/microcol/microcol-game/src/main/resources/images/market.png"
       inkscape:connector-curvature="0"
       id="path4960"
       d="m 277.6235,55.662202 9.8274,-5.669642 9.26041,0.944938 5.29167,9.07143 13.60712,11.717261 7.18156,13.04018 -0.94493,5.480653 -28.15923,0.755954 -4.91369,-2.078871 -3.02381,-5.291667 -4.91369,-10.772319 -0.37798,-7.559524 -2.07886,-2.456847 -3.21281,4.157739 1.51191,-6.992559 z"
       style="display:inline;fill:#e9ebaa;fill-opacity:1;fill-rule:evenodd;stroke:#000000;stroke-width:0.26458332px;stroke-linecap:butt;stroke-linejoin:miter;stroke-opacity:1" />
    <path
       inkscape:export-ydpi="34.762627"
       inkscape:export-xdpi="34.762627"
       inkscape:export-filename="/Users/jan/Documents/repo/github/microcol/microcol-game/src/main/resources/images/market.png"
       inkscape:connector-curvature="0"
       id="path4964"
       d="m 332.61905,122.56399 4.34671,6.80357 3.4018,0.75595 c 0,0 4.15774,-3.2128 4.15774,-3.96875 0,-0.75595 -2.45686,-6.99256 -2.45686,-6.99256 L 331.4851,104.04315 Z"
       style="fill:#e9ebaa;fill-opacity:1;fill-rule:evenodd;stroke:#000000;stroke-width:0.26458332px;stroke-linecap:butt;stroke-linejoin:miter;stroke-opacity:1" />
  </g>
  <g
     style="display:inline"
     id="layer1"
     inkscape:groupmode="layer"
     inkscape:label="lines">
    <path
       inkscape:connector-curvature="0"
       inkscape:export-ydpi="34.762627"
       inkscape:export-xdpi="34.762627"
       inkscape:export-filename="/Users/jan/Documents/repo/github/microcol/microcol-game/src/main/resources/images/market.png"
       id="path3365"
       transform="scale(0.26458333)"
       d="m 1110.9141,181.21289 -13.4219,0.60156 c -11.1692,0.5006 -14.175,0.98089 -17.9199,2.86328 -2.4751,1.24412 -6.7139,3.05359 -9.42,4.02149 -6.1087,2.1849 -17.2847,11.0259 -20.8828,16.52148 -1.4842,2.26692 -2.6972,4.45019 -2.6972,4.85157 0,0.4015 -1.125,1.70867 -2.5,2.90429 -1.3751,1.1955 -2.5,2.98965 -2.5,3.98828 0,0.99848 -0.6613,2.69011 -1.4688,3.75782 -0.8075,1.06761 -1.4811,3.17887 -1.5,4.6914 -0.019,1.51249 -0.5173,2.75 -1.1094,2.75 -1.6141,0 -0.8365,8.19191 0.9805,10.33203 1.414,1.66549 1.3983,1.91903 -0.1738,2.79883 -1.1088,0.62048 -1.7285,2.18487 -1.7285,4.35938 0,1.8652 -0.45,3.66998 -1,4.00976 -0.55,0.3399 -1,1.66033 -1,2.93555 0,1.27517 -0.6134,2.82644 -1.3614,3.44727 -1.5197,1.26126 -1.0123,6.16895 0.7598,7.35156 0.6056,0.40415 1.4597,0.73867 1.8984,0.75 1.1077,0.0212 5.5022,-4.78778 8.209,-8.98438 4.2489,-6.58689 6.2969,-8.40918 7.9336,-7.05078 1.5628,1.29698 3.5606,0.65345 3.5606,-1.14844 0,-0.59441 0.6978,-1.59362 1.5527,-2.21875 2.0137,-1.47247 0.9025,-4.45906 -2.082,-5.59375 -2.574,-0.97871 -6.4707,-0.24041 -6.4707,1.22657 0,1.4239 -6.9528,8.16438 -7.6758,7.4414 -0.3353,-0.33501 -0.1584,-1.18201 0.3926,-1.88281 0.5511,-0.7008 1.7632,-3.31565 2.6953,-5.81055 0.9823,-2.62918 2.6155,-4.94142 3.8847,-5.5 3.4918,-1.53671 3.1972,-3.88305 -0.664,-5.27929 l -3.4317,-1.24024 1.584,-4.95703 c 0.8851,-2.7676 4.4841,-8.79161 8.1504,-13.64648 6.9199,-9.16308 7.7484,-9.7323 28.0645,-19.24219 4.966,-2.3246 23.8072,-4.87061 28.082,-3.79492 3.4863,0.87741 11.3715,7.9549 13.9316,12.5039 2.7763,4.933 8.0255,8.44481 9.793,6.55274 1.0381,-1.11122 0.6362,-1.90975 -2.2227,-4.41992 -1.9188,-1.68511 -3.8012,-4.04837 -4.1816,-5.25196 -1.2685,-4.01291 -5.5712,-8.63759 -10.8437,-11.65429 z m -36.1075,20.20703 c -0.4668,0.002 -0.9595,0.052 -1.4746,0.15235 -4.2474,0.82719 -7.3522,3.41914 -8.1425,6.79687 -0.4988,2.13146 0.026,3.45851 2.4785,6.25 3.4861,3.9705 4.8552,4.27766 8.4863,1.89844 7.1283,-4.67061 5.6549,-15.13097 -1.3477,-15.09766 z m 54.0157,12.75196 c -3.1234,-0.0136 -2.8501,2.5591 0.5,4.70898 3.7861,2.4297 24.4379,20.009 31.75,27.02539 3.2999,3.1666 9.5459,8.23279 13.8808,11.25781 4.3349,3.02498 9.7349,7.49936 12,9.94336 2.2651,2.44399 5.5131,5.81902 7.2188,7.5 7.3687,7.26191 17.4005,22.73225 19.166,29.55664 4.5139,17.44713 4.6782,18.90383 2.8711,25.68555 -0.9371,3.51768 -1.4639,6.78703 -1.168,7.26562 1.1919,1.92833 5.7216,-0.2897 4.9102,-2.40429 -0.344,-0.89658 0.2907,-1.5052 1.7929,-1.71875 1.892,-0.26892 2.2864,-0.87853 2.1133,-3.26172 -0.1417,-1.95072 0.4433,-3.39135 1.75,-4.30664 2.3354,-1.6357 2.5512,-4.52826 0.4649,-6.25977 -0.8251,-0.6847 -1.5,-1.82369 -1.5,-2.52929 0,-2.24939 -10.3208,-21.66365 -16.2364,-30.54297 -5.8687,-8.8086 -19.228,-23.46853 -26.2832,-28.8418 -2.1896,-1.66761 -7.2157,-5.33167 -11.1699,-8.14258 -3.9541,-2.8108 -7.9165,-6.21866 -8.8047,-7.57422 -0.8882,-1.3556 -2.9315,-3.26458 -4.539,-4.24218 -1.6075,-0.97761 -6.4013,-5.11943 -10.6543,-9.20313 -10.6521,-10.2279 -15.4233,-13.90472 -18.0625,-13.91601 z m -71.5039,35.98632 c -1.1855,-0.0379 -2.8416,0.349 -3.2403,0.99414 -1.569,2.53878 -0.6172,12.92316 1.8692,20.38868 1.443,4.33269 2.625,8.57834 2.625,9.43554 0,2.39939 2.9729,14.472 4.0449,16.42383 0.5246,0.95508 0.9551,2.53341 0.9551,3.50781 0,0.97429 1.2045,4.01801 2.6777,6.76368 3.4832,6.49155 9.7729,18.05237 12.2363,22.49218 2.3788,4.28712 8.295,9.05403 12.4766,10.05274 v -0.002 c 4.9222,1.1757 10.1852,1.12462 8.9726,-0.0879 -0.5701,-0.5701 -2.2233,-1.25256 -3.6738,-1.51562 -1.4505,-0.26302 -3.8872,-0.95271 -5.414,-1.53321 -2.4607,-0.93558 -2.5766,-1.16706 -1.0254,-2.03515 2.4556,-1.37431 2.1761,-2.76577 -0.7774,-3.88867 -1.3891,-0.52822 -2.8256,-1.74464 -3.1933,-2.70313 -0.3678,-0.95849 -2.044,-3.14432 -3.7246,-4.85742 -5.9074,-6.0217 -16.4623,-30.31282 -17.3301,-39.88281 -0.428,-4.721 -1.047,-6.40602 -2.8848,-7.85156 -1.4947,-1.17582 -2.3398,-2.89116 -2.3398,-4.74805 0,-1.599 -0.7272,-4.72364 -1.6153,-6.94336 -1.3247,-3.31079 -1.4145,-4.83099 -0.5,-8.46289 0.6131,-2.43499 1.1153,-4.67786 1.1153,-4.98438 0,-0.36408 -0.5426,-0.53979 -1.2539,-0.5625 z m 117.9101,84.09571 c -1.3326,-0.0844 -2.6615,0.98102 -3.7148,3.11914 -2.0395,4.13952 -4.4157,5.04704 -3.7227,1.42187 0.2767,-1.44681 0.1536,-2.63086 -0.2754,-2.63086 -2.134,0 -3.9433,1.40977 -3.9433,3.07227 0,2.87309 -2.6695,3.62762 -13.5508,3.83398 -9.8252,0.18633 -10.1387,0.12264 -13.8887,-2.85742 -4.2359,-3.3662 -8.795,-3.94316 -12.0019,-1.51758 -2.5333,1.91614 -4.5586,1.86901 -4.5586,-0.10547 0,-3.0579 -3.4036,-1.00066 -4.1172,2.48828 -0.3826,1.87092 -1.4841,3.84262 -2.4492,4.38282 -3.7158,2.07939 -21.0816,2.30152 -56.4336,0.7207 -11.825,-0.5288 -29.6001,-1.18409 -39.5,-1.45508 -22.64126,-0.61969 -47.22733,-1.6276 -49.36722,-2.02539 -7.05698,-1.3118 -26.11848,-2.56797 -46.63281,-3.07226 -9.35003,-0.22987 -19.92502,-0.63589 -23.5,-0.90235 -6.56251,-0.48941 -19.46582,-1.39641 -30.5,-2.14453 -3.30002,-0.22378 -17.70001,-0.65013 -32,-0.94531 -14.3,-0.29552 -27.12497,-0.5673 -28.5,-0.60547 -1.375,-0.0378 -5.87499,0.17201 -10,0.4668 -11.51112,0.82243 -52.72803,1.93005 -80,2.15039 -22.9211,0.18519 -33.57243,0.52614 -70,2.23437 -18.7242,0.8767 -66.07692,0.85304 -76.8711,-0.0391 -10.72804,-0.88672 -122.25205,-0.81499 -171.1289,0.10937 -20.62501,0.39006 -39.12315,0.445 -41.10547,0.1211 -3.51183,-0.57389 -19.45755,0.0731 -48.89453,1.98437 -10.56068,0.68572 -23.46532,0.52968 -47.5,-0.57031 -19.21374,-0.87984 -38.0132,-1.22405 -45,-0.82617 -6.6,0.3758 -36.75001,0.85506 -67,1.06445 -30.25001,0.2095 -57.025003,0.81514 -59.500004,1.34571 -2.474998,0.53061 -7.978124,1.23493 -12.228516,1.5664 -6.831859,0.53261 -8.33934,0.32074 -13,-1.83398 -4.125513,-1.90722 -6.181429,-2.29583 -9.455078,-1.78907 -5.024251,0.77779 -9.316406,4.24077 -9.316406,7.51758 0,1.31127 -0.675009,2.94417 -1.5,3.62891 -0.825007,0.68469 -1.5,2.12064 -1.5,3.18945 0,1.06882 -0.380101,2.70063 -0.84375,3.62696 -0.46368,0.9264 -0.547686,2.80859 -0.1875,4.18359 l 0.654296,2.5 0.707032,-2.75 c 0.858459,-3.33854 2.21348,-3.47941 4.80664,-0.5 l 1.958985,2.25 -0.607422,-3.1543 c -0.335736,-1.74598 -0.153522,-3.43429 0.408203,-3.78125 0.55821,-0.34503 0.773576,-1.25648 0.478516,-2.02539 -0.581549,-1.51552 2.361617,-8.57884 4.072265,-9.77344 1.758652,-1.22812 4.79558,-0.85509 6.642578,0.81641 1.331229,1.20472 4.566103,1.66688 13.552735,1.9375 6.491588,0.19548 12.264997,-0.003 12.830078,-0.44141 2.506843,-1.9446 10.749954,-2.36113 53.527348,-2.70507 25.025,-0.20123 50.44999,-0.60717 56.5,-0.90235 20.20126,-0.98502 57.49094,-0.36022 79.88671,1.33789 14.30812,1.08487 43.1695,0.20172 45.76172,-1.40039 0.55897,-0.34548 27.86628,-0.81839 60.6836,-1.05273 32.81726,-0.23422 61.01798,-0.48564 62.66797,-0.5586 1.64999,-0.0707 11.99998,-0.10854 23,-0.082 10.99997,0.0276 30.8,-0.037 44,-0.14453 13.19996,-0.1073 32.99998,0.13478 44,0.53906 21.32602,0.78376 71.11931,0.94013 88.5,0.27735 5.775,-0.22031 15.00003,-0.58283 20.5,-0.80469 30.86275,-1.24449 46.02939,-1.65007 84.5,-2.26758 23.37498,-0.37508 47.22499,-0.68516 53,-0.67383 35.52642,0.0314 57.62509,0.49069 65.5,1.35938 11.4856,1.26712 38.44798,2.89506 59,3.56445 8.79998,0.2866 19.82498,0.95897 24.5,1.49219 7.98958,0.91128 28.66806,1.75586 58.50003,2.38867 18.8832,0.40059 51.1207,2.38685 57.5,3.54297 3.5537,0.64395 12.2235,0.67863 24.5,0.0996 10.4499,-0.49278 19.3375,-0.68638 19.75,-0.43164 0.4125,0.25478 0.75,1.92063 0.75,3.70312 0,3.34261 1.4788,5.64063 3.6289,5.64063 2.1702,0 4.3711,-3.05614 4.3711,-6.07031 0,-1.61072 0.5625,-2.99037 1.25,-3.06446 0.6875,-0.0744 4.0903,-0.20611 7.5625,-0.29296 4.1356,-0.10341 6.6053,-0.63221 7.1621,-1.53321 0.9648,-1.56098 8.6434,-2.85712 17.5566,-2.96484 5.8089,-0.0703 6.0714,0.0359 7.1621,2.92578 1.3681,3.6246 5.5927,4.20273 7.3067,1 1.3195,-2.4655 5.8388,-2.65167 10.1582,-0.41797 2.9618,1.53157 3.1525,1.49542 5.9257,-1.16211 l 2.8653,-2.74609 4.0273,1.8164 c 3.842,1.73266 4.1164,1.73505 5.9668,0.0606 2.0884,-1.89003 15.3727,-3.42196 30.3828,-3.50586 7.2378,-0.0403 8.0321,0.1621 10.5586,2.70508 2.2845,2.29942 2.9393,4.22458 3.9961,11.75 0.6951,4.95001 1.9625,12.21117 2.8145,16.13477 0.852,3.92365 1.3285,7.7487 1.0605,8.5 -0.2676,0.75136 -0.1014,2.11364 0.3672,3.02734 0.469,0.91381 1.1151,5.39241 1.4375,9.95312 0.3224,4.5608 0.9587,8.98957 1.4121,9.83985 0.4535,0.85043 0.8145,6.49492 0.8145,12.54492 0,6.05 0.062,16.4 0.1484,23 0.087,6.6 -0.2898,13.49375 -0.8379,15.31836 -0.6084,2.02617 -0.6471,4.23603 -0.1,5.67773 1.1576,3.04498 1.279,17.68551 0.2344,28.31641 -0.449,4.5719 -0.7236,12.44692 -0.6113,17.5 1.0061,45.20848 1.8165,161.06931 1.4218,203.1875 -0.077,8.24999 0.1293,19.72499 0.459,25.5 0.33,5.775 0.8232,21.975 1.0957,36 0.2725,14.02499 0.6803,29.32499 0.9063,34 2.1032,43.46861 2.7241,61.64124 2.6152,76.5 -0.052,7.15007 0.2638,14.57501 0.7012,16.5 0.4374,1.92499 0.3754,5.5249 -0.1367,8 -1.0618,5.1323 -1.334,10.86859 -1.6036,33.75586 -0.1054,8.94092 0.051,16.64761 0.3457,17.125 0.2952,0.4775 0.5515,6.88736 0.5704,14.24414 0.04,16.10517 0.074,23.82146 0.3066,70.37496 0.1735,34.8167 -0.5669,57.6957 -2.1348,66 -0.4153,2.2 -0.4674,5.641 -0.1152,7.6465 0.3523,2.0054 0.4843,13.7454 0.293,26.0879 -0.2722,17.5513 -0.034,23.4933 1.1054,27.2734 0.8002,2.6584 1.2775,5.1216 1.0606,5.4727 -0.217,0.3507 -0.4366,3.0874 -0.4902,6.0801 -0.087,4.883 -0.2414,23.1387 -0.2266,26.9394 0,0.825 0.3334,3.8143 0.7324,6.6426 0.6795,4.8153 0.5749,5.1982 -1.6504,5.9961 -1.3072,0.4687 -12.052,0.8951 -23.8769,0.9492 -11.825,0.054 -22.175,0.1779 -23,0.2754 -0.825,0.098 -6,-0.2737 -11.5,-0.8262 -5.5,-0.5525 -12.4751,-1.2372 -15.5,-1.5215 -3.0251,-0.2842 -7.1663,-0.9151 -9.2012,-1.4004 -2.035,-0.4849 -3.8348,-0.7517 -4,-0.5937 -1.2674,1.2145 -31.2962,2.1882 -47.2988,1.5332 -3.8501,-0.1576 -12.8501,0.401 -20,1.2422 -11.7636,1.3838 -23.4848,1.4462 -35.295,0.1875 -2.362,-0.2517 -16.762,-0.03 -32,0.4922 -60.94109,2.0905 -102.38665,2.6488 -104.40035,1.4043 -1.5123,-0.9347 -147.84798,-1.4784 -149.30468,-0.5547 -0.55019,0.3488 -4.59999,0.7512 -9,0.8945 -4.40005,0.1433 -13.4,0.5079 -20,0.8106 -6.6,0.3027 -27.75,0.7458 -47,0.9843 -33.13119,0.4108 -46.86082,0.8255 -66.5,2.0137 -24.69842,1.4944 -72.22319,0.1119 -74.10547,-2.1562 -1.66356,-2.0046 -5.57148,-1.7159 -6.13868,0.4531 -0.44711,1.71 -1.89572,1.8076 -22.86718,1.5351 -12.31408,-0.1602 -27.56367,-0.5414 -33.88867,-0.8457 -25.33811,-1.2192 -35.46192,-1.5666 -57.5,-1.9726 -12.65001,-0.2328 -24.68748,-0.7335 -26.75,-1.1133 -3.15969,-0.5819 -3.75,-0.4173 -3.75,1.0469 0,1.1164 0.52323,1.5358 1.46679,1.1738 0.80742,-0.3099 1.7474,-0.111 2.08789,0.4395 0.62071,1.0043 -84.14808,0.2807 -85.78711,-0.7325 -0.42455,-0.2623 -17.98316,-0.6472 -39.01953,-0.8535 -21.03635,-0.2063 -53.99804,-0.6545 -73.24804,-0.9961 -94.34817,-1.6749 -125.033935,-1.7871 -129.60352,-0.4765 -4.848881,1.3904 -28.8086,1.1464 -32.042969,-0.3262 -6.165672,-2.8072 -9.478736,-10.0611 -10.371093,-22.7051 -1.978878,-28.0391 -2.679702,-48.0594 -1.720704,-49.2148 0.693971,-0.8363 0.784038,-2.8739 0.253907,-5.7871 -0.450142,-2.4737 -0.61727,-15.5231 -0.371094,-28.9981 0.246161,-13.475 0.557724,-30.8 0.691406,-38.5 0.133682,-7.7 -0.03996,-15.6178 -0.384765,-17.5957 -0.344807,-1.9781 -0.264445,-6.703 0.179687,-10.5 0.44414,-3.7971 1.036314,-14.5544 1.314453,-23.9043 0.278136,-9.3501 0.576431,-17.675 0.66211,-18.5 0.0856,-0.825 0.07978,-3.075 -0.01172,-5 -0.0915,-1.925 0.117052,-24.64996 0.46289,-50.49996 0.345827,-25.85 0.777496,-58.70001 0.958985,-73 0.181455,-14.29999 0.558659,-31.175 0.83789,-37.5 0.479229,-10.85779 0.624432,-34.5701 0.462891,-75.5 -0.03908,-9.89998 0.217883,-22.95 0.570313,-29 1.773777,-30.4489 1.88748,-40.73082 1.226562,-109.5 -0.689163,-71.70781 -1.252402,-98.8537 -2.5625,-123.5 -0.613962,-11.54997 -1.303264,-30.79387 -1.533203,-42.76367 -0.229947,-11.9698 -0.715253,-22.24297 -1.078125,-22.83008 -0.36291,-0.58719 -0.546341,-8.79322 -0.408203,-18.23633 0.334148,-22.84021 0.343264,-22.08556 -0.357422,-30.73633 -0.555587,-6.85973 -0.06674,-12.04559 1.919922,-20.33789 0.626732,-2.6157 0.483469,-2.84915 -1.449219,-2.34375 -1.252052,0.32739 -2.146484,0.0952 -2.146484,-0.55859 0,-0.6503 -0.641514,-0.4814 -1.527344,0.4043 -1.984751,1.9848 -2.179815,12.85753 -0.408203,22.73242 1.005789,5.60632 1.061105,8.8979 0.234375,14 -1.465901,9.0469 -1.626754,28.43371 -0.291016,35.16992 1.215708,6.13077 1.681737,14.5323 2.548828,46 0.325833,11.82489 0.73532,25.10002 0.910156,29.5 1.573743,39.60042 1.71818,47.26683 0.898438,47.77344 -0.505028,0.31219 -2.707047,0.16472 -4.892578,-0.32813 -4.028899,-0.90871 -22.240584,-2.83906 -30.472656,-3.23047 -2.4750101,-0.11754 -9.67501041,0.63227 -16.0000004,1.66797 -8.8507506,1.44919 -18.2958996,1.9723 -40.9999996,2.26563 -16.22501,0.20938 -37.825014,0.83283 -48,1.38672 -10.175005,0.55392 -36.724995,1.04684 -58.999995,1.09375 -22.27501,0.0465 -46.35,0.0962 -53.5,0.11132 -7.15002,0.0151 -19.29998,0.0977 -27,0.18164 -7.14825,0.0783 -17.08483,-0.21481 -23.21485,-0.65429 v 4.25586 c 13.71568,0.20229 37.92852,0.26236 47.71485,0.0508 6.32499,-0.13682 19.82499,-0.0989 30,0.084 10.17499,0.18293 35.14999,-0.0525 55.5,-0.52148 20.34998,-0.469 52.524986,-0.97929 71.499995,-1.13281 28.619669,-0.23169 36.394904,-0.60467 45.6210934,-2.20118 10.8599085,-1.87933 11.4133786,-1.88483 23.4999996,-0.10546 6.80799,1.00225 15.942972,2.04585 20.300782,2.31835 4.357808,0.27251 8.177087,0.74947 8.486328,1.0586 0.908001,0.90799 1.106478,5.70519 1.154297,27.92383 0.02495,11.54989 0.108637,23.02501 0.185546,25.5 0.0768,2.47502 0.07309,14.84999 -0.0078,27.5 -0.08084,12.65 -0.07239,25.0249 0.01953,27.5 0.31801,8.5706 -0.01702,35.53771 -0.546875,44 -0.676501,10.80291 -1.920954,64.35341 -1.603515,69 0.43034,6.29941 0.13568,47.82679 -0.578125,81.5 -0.384749,18.15001 -0.8351,50.9999 -1,73 -0.164901,22.00002 -0.597007,51.92474 -0.960938,66.50007 -0.674389,27.0086 -1.466922,79.569 -1.945312,129 -0.146381,15.1249 0.109045,31.7749 0.566406,37 0.457349,5.225 0.860193,14.45 0.896484,20.5 0.08674,14.4195 0.702954,18.6325 2.802735,19.1816 0.920587,0.2408 2.297388,1.8742 3.060547,3.6289 0.763165,1.7547 1.649682,3.4143 1.96875,3.6895 0.319063,0.2751 1.065436,1.3812 1.660156,2.457 2.308301,4.1758 27.331656,5.7946 38.496094,2.4902 4.564595,-1.3509 18.500392,-2.2612 34.423832,-2.2461 23.47618,0.023 102.60383,1.1155 122,1.6875 10.45,0.3081 28.225,0.8303 39.5,1.1621 11.275,0.3319 21.175,0.5772 22,0.5469 4.55024,-0.1712 10.87212,0.048 13.5,0.4668 7.11378,1.135 10.91735,1.3069 27,1.2207 9.34998,-0.05 26.22501,0.089 37.5,0.3106 36.87431,0.7259 37.04898,0.7202 38.75,-1.8438 1.64296,-2.4765 4.59734,-2.853 8.93359,-1.1367 1.54832,0.6129 9.34141,1.2508 17.31641,1.416 7.97499,0.1652 23.49998,0.78 34.5,1.3672 10.99997,0.5869 31.37532,1.0726 45.27929,1.084 l 25.2793,0.02 -0.2793,5.252 c -0.24,4.4974 -0.0264,5.2284 1.48438,5.1074 1.62077,-0.1297 1.72653,0.8751 1.30859,12.375 -0.89246,24.5542 -1.66121,38.9051 -2.58398,48.2676 -0.93884,9.5259 -2.17293,44.0311 -2.37891,66.5 -0.0605,6.5999 -0.50164,12.6073 -0.98047,13.3496 -0.47886,0.7423 -0.92894,9.9673 -1,20.5 -0.10658,15.7862 0.21733,20.6874 1.84571,27.9004 h -0.002 c 1.08646,4.8124 2.32397,8.75 2.75,8.75 0.42618,0 0.77539,-2.2138 0.77539,-4.918 0,-3.0195 0.47784,-5.0745 1.23828,-5.3281 0.96492,-0.3217 0.93029,-1.0583 -0.15039,-3.334 -0.80069,-1.6862 -1.5841,-7.5949 -1.85547,-13.9805 -0.39409,-9.2762 -0.21054,-11.3207 1.14454,-12.6758 0.88868,-0.8886 1.34028,-2.3341 1.0039,-3.2109 -0.7666,-1.9978 1.32356,-75.6809 2.625,-92.5527 0.53035,-6.875 1.43415,-24.875 2.00977,-40 0.57566,-15.125 1.19072,-28.4 1.36718,-29.5 0.3001,-1.8694 1.00087,-1.9855 10.71876,-1.7637 5.71846,0.1304 16.47344,0.3076 23.89843,0.3926 7.42507,0.085 12.78175,0.3355 11.9043,0.5566 -2.14069,0.5389 -3.18994,22.4383 -3.41406,71.3145 -0.0922,20.075 -0.51412,39.6499 -0.9375,43.5 -2.63932,23.9994 -1.41829,56.7688 2.26757,60.8632 1.58915,1.7653 1.70627,1.4199 2.17969,-6.5 0.27666,-4.6004 0.26982,-11.1247 -0.0117,-14.498 -0.28195,-3.3735 -0.26357,-12.8235 0.041,-21 0.30614,-8.1767 0.4389,-33.7653 0.29883,-56.8652 -0.14022,-23.1001 0.14136,-43.35 0.62695,-45 0.48567,-1.65 1.42258,-9.5803 2.08203,-17.6211 l 1.19922,-14.6192 6.13281,-0.6738 c 3.37278,-0.3704 18.73088,-0.8783 34.13086,-1.1289 28.16516,-0.4583 44.11728,-0.9167 69.98633,-2.0117 7.70759,-0.3262 20.3303,-0.7511 28.05078,-0.9434 7.72041,-0.1924 17.62044,-0.8045 22,-1.3613 4.37953,-0.5565 14.26286,-1.0432 21.96289,-1.082 7.70003,-0.039 24.125,-0.3384 36.5,-0.6641 12.37501,-0.3258 25.87499,-0.2069 30,0.2637 4.12498,0.4706 13.80001,0.627 21.5,0.3476 7.7,-0.2793 19.175,0.015 25.5,0.6543 15.64683,1.5789 28.3149,1.8161 42,0.7871 11.97271,-0.9003 13.26577,-0.9335 21.5,-0.5586 2.75002,0.1251 18.5,-0.019 35.00002,-0.3222 16.5,-0.3024 34.95,-0.5346 41,-0.5157 6.05,0.019 11.675,-2e-4 12.5,-0.037 0.825,-0.04 7.4561,-0.2668 14.7344,-0.5039 7.2783,-0.2369 16.9533,-0.9237 21.5,-1.5254 4.5467,-0.6015 15.9156,-0.9222 25.2656,-0.7109 9.35,0.2109 21.844,0.072 27.7637,-0.3125 5.9196,-0.3837 12.8946,-0.2903 15.5,0.209 2.6053,0.4994 6.9863,1.139 9.7363,1.4199 2.75,0.2808 6.35,0.6849 8,0.8984 11.0206,1.4258 17.0199,1.6902 42.5,1.877 15.675,0.1149 29.2225,0.045 30.1035,-0.1563 1.8145,-0.414 4.8965,-6.2563 4.8965,-9.2792 0,-1.1008 -0.7044,-3.0771 -1.5664,-4.3926 -1.1095,-1.6931 -1.4996,-4.3849 -1.3359,-9.2149 0.1273,-3.7526 -0.1316,-27.0722 -0.5742,-51.8222 -0.5698,-31.8256 -0.4819,-46.6102 0.2988,-50.5 1.2301,-6.1303 1.5723,-24.4816 1.3418,-72 -0.011,-2.475 -0.3046,-21.15 -0.6485,-41.50007 -0.7488,-44.2964 -0.7398,-47.08258 0.1953,-65 0.4019,-7.69999 0.6258,-19.17503 0.4981,-25.5 -0.3492,-17.31942 -2.154,-68.46979 -2.7168,-77 -0.2721,-4.12501 -0.7185,-23.475 -0.9922,-43 -0.2732,-19.525 -0.6878,-39.77503 -0.9219,-45 -0.4277,-9.56553 -0.7966,-30.64179 -0.5683,-32.5 0.068,-0.54999 0.03,-5.04999 -0.082,-10 -0.1145,-4.94997 -0.1541,-9.9 -0.092,-11 0.3981,-6.9908 0.2071,-45.513 -0.3828,-77.25 -0.58,-31.19883 -0.4703,-37.26656 0.6778,-37.35156 3.0478,-0.22564 10.1524,-0.8889 25.3711,-2.36719 15.8915,-1.54359 24.5998,-2.0676 50.5,-3.04101 7.425,-0.27931 15.525,-0.72447 18,-0.98828 3.9875,-0.42509 47.564,-1.92364 54,-1.85743 1.375,0.0151 9.9249,0.57802 19,1.25391 9.075,0.6757 34.2013,1.44565 55.8379,1.71094 61.1545,0.7497 86.0613,1.42903 93.6621,2.55468 3.8728,0.57351 33.0228,1.24859 65.25,1.51172 58.0995,0.47467 31.9863,0.47186 31.9863,-1.56054 0,-2.30249 24.5759,-2.36453 -52.6191,-2.90625 -20.0108,-0.14022 -36.6773,-0.43714 -37.0352,-0.65821 -0.3579,-0.2211 -8.0608,-0.67192 -17.1172,-1.00195 -9.0565,-0.32995 -21.8648,-0.86107 -28.4648,-1.17969 -6.6,-0.31861 -24.15,-0.69666 -39,-0.84179 -14.8501,-0.14514 -37.8,-0.6615 -51,-1.14649 -37.064,-1.3618 -95.3109,-0.75573 -100.6133,1.04688 -0.7634,0.25965 -10.1617,0.71093 -20.8867,1.00195 -10.725,0.29102 -26.7,1.20743 -35.5,2.03711 -20.0676,1.89199 -27.5722,1.93249 -29.9961,0.16016 -2.5961,-1.89823 -3.0117,-8.55055 -2.4766,-39.62696 0.1089,-6.325 -0.1278,-12.29567 -0.5273,-13.26758 -0.8494,-2.06539 0.079,-17.55827 1.375,-22.93359 0.49,-2.03497 0.6771,-3.91262 0.416,-4.17383 -0.2612,-0.26116 -0.1626,-1.4571 0.2187,-2.6582 0.6591,-2.07659 0.9091,-1.97217 5.0918,2.13281 2.419,2.37411 4.4146,4.78452 4.4297,5.35742 0.1213,3.99931 11.7396,11.88372 17.4629,11.85352 6.2652,-0.034 16.203,-6.97558 21.834,-15.24609 l 2.3398,-3.4336 -2.5,-7.0664 c -1.3742,-3.88611 -3.3246,-8.13761 -4.334,-9.44922 -1.0088,-1.31169 -1.8521,-2.8867 -1.871,-3.5 -0.019,-0.61342 -2.2529,-4.26522 -4.9629,-8.11524 -8.3669,-11.88608 -9.5384,-13.68893 -15.7168,-24.17968 -3.2972,-5.59851 -7.0337,-12.79867 -8.3047,-16 -1.271,-3.20153 -3.5842,-7.62033 -5.1406,-9.82032 -1.5563,-2.19998 -4.0692,-5.88332 -5.584,-8.18554 -1.5149,-2.3023 -3.7244,-4.71858 -4.9102,-5.36914 -2.5656,-1.40761 -3.4532,-5.07646 -2.2461,-9.28516 0.6469,-2.2556 0.4639,-3.67887 -0.6972,-5.45117 -0.9238,-1.4099 -1.327,-3.37117 -0.9786,-4.75977 0.5661,-2.25536 -0.054,-5.65679 -3.1211,-17.0918 -1.1047,-4.1184 -2.1662,-5.68543 -5.3339,-7.88086 -3.7488,-2.59784 -4.3589,-2.70592 -11.711,-2.08203 -4.2656,0.36212 -13.431,0.90471 -20.3672,1.20703 -11.3532,0.49512 -12.9874,0.35067 -16.3671,-1.46093 -3.0321,-1.62508 -4.1172,-1.78615 -5.6387,-0.83594 -1.4549,0.90871 -2.3353,0.89363 -3.8692,-0.0645 -1.0926,-0.68231 -2.6138,-1.24024 -3.3789,-1.24024 -0.7651,0 -1.95,-0.67501 -2.6347,-1.5 -0.7429,-0.8951 -1.5442,-1.35952 -2.3438,-1.41015 z m 77.1367,57.82226 3.459,3.29297 c 5.1626,4.91501 8.3979,9.7649 9.8692,14.79492 1.0947,3.74287 5.7246,12.75472 11.5605,22.5 0.6587,1.1 1.862,3.42582 2.6738,5.16992 0.812,1.74429 2.9161,4.6692 4.6758,6.5 4.0418,4.20511 9.9907,13.26188 11.7129,17.83008 5.198,13.78689 5.1704,16.30032 -0.2226,20.41406 -1.8422,1.40501 -3.9548,3.1598 -4.6954,3.9004 -0.7406,0.74059 -2.5381,1.64623 -3.9941,2.01171 -1.456,0.36548 -3.2516,0.86237 -3.9902,1.10547 -3.3606,1.1054 -11.4972,-4.45127 -15.6309,-10.67578 -7.4429,-11.20758 -8.5,-13.75586 -5.7109,-13.75586 2.361,0 1.7517,-3.33787 -0.9844,-5.39258 -1.3663,-1.02591 -3.1527,-2.3692 -3.9707,-2.98632 -1.9115,-1.44201 -2.9394,-17.19548 -1.4082,-21.58789 0.7696,-2.208 0.7357,-6.2166 -0.1211,-14.30079 -0.6549,-6.17831 -1.3076,-12.35743 -1.4512,-13.73242 -0.1436,-1.37503 -0.6025,-5.3334 -1.0176,-8.79492 z M 599.57227,1394.6641 c -1.1136,0 -1.45449,1.0308 -1.32032,4 0.84892,18.7768 0.94946,28.9676 0.33789,34.5 -0.39537,3.575 -0.32116,7.2874 0.16602,8.25 0.97739,1.931 2.55895,2.1967 4.75976,0.8047 1.17672,-0.7447 1.22117,-1.3959 0.24805,-3.5313 -0.74831,-1.6424 -1.22453,-8.4735 -1.27929,-18.3223 -0.10697,-19.1923 -0.84452,-25.7011 -2.91211,-25.7011 z"
       style="fill:#000000;stroke-width:1" />
    <path
       inkscape:export-ydpi="34.762627"
       inkscape:export-xdpi="34.762627"
       inkscape:export-filename="/Users/jan/Documents/repo/github/microcol/microcol-game/src/main/resources/images/market.png"
       id="path3365-4"
       d="m 414.46251,33.080095 c -13.87758,-0.03765 -36.2336,0.254064 -39.83114,0.621152 -1.30969,0.13367 -4.10766,0.307853 -6.21771,0.387056 -2.11005,0.07927 -5.41237,0.26683 -7.33806,0.417029 -1.92572,0.150172 -3.61858,0.200318 -3.76206,0.111619 -0.2503,-0.15468 -1.62145,-0.06245 -11.91863,0.798402 -2.54662,0.21291 -5.7613,0.450865 -7.14375,0.529166 -1.38245,0.07826 -3.82323,0.259086 -5.42396,0.402043 -1.60073,0.142949 -4.93451,0.306922 -7.40833,0.36432 -2.47386,0.05741 -6.64107,0.18111 -9.26042,0.2744 -2.6194,0.09331 -7.44141,0.219286 -10.71563,0.280088 -3.27421,0.06083 -8.09625,0.231714 -10.71562,0.379822 -5.77858,0.326821 -9.56726,0.381995 -11.50938,0.166913 -1.90844,-0.211321 -16.69555,-0.815875 -25.53231,-1.043864 -4.93917,-0.12742 -10.20559,-0.404452 -11.77396,-0.619082 -0.65485,-0.08961 -2.38125,-0.184759 -3.83646,-0.211358 -1.45521,-0.02659 -5.02706,-0.13935 -7.9375,-0.250629 -3.63723,-0.139088 -6.16024,-0.103534 -8.06979,0.113686 -1.52797,0.17384 -3.37344,0.360882 -4.10104,0.415481 -0.72761,0.05463 -2.69214,0.231457 -4.36563,0.393255 -4.74377,0.45865 -11.47508,0.556335 -14.81667,0.214974 -6.26332,-0.639831 -18.64908,-0.622445 -23.28332,0.03256 -1.09141,0.15425 -3.175,0.335561 -4.6302,0.402559 -1.45522,0.06702 -4.49132,0.239151 -6.74688,0.382923 -5.16614,0.32933 -14.85247,0.647073 -17.4625,0.572574 -1.09142,-0.03112 -2.93397,-0.170807 -4.09432,-0.310057 -1.16035,-0.139218 -2.95852,-0.253214 -3.99614,-0.253214 -1.03762,0 -3.48183,-0.244673 -5.43119,-0.544153 -4.12035,-0.632989 -13.99347,-0.771808 -30.66377,-0.430466 -10.696342,0.21899 -28.227892,0.263525 -28.537272,0.07235 -0.10907,-0.06743 -3.42323,-0.248491 -7.36493,-0.402558 -3.94169,-0.154072 -8.34077,-0.406897 -9.77563,-0.561208 -1.43486,-0.154299 -3.20394,-0.275751 -3.93154,-0.26975 -0.72761,0.0058 -2.75167,-0.101783 -4.49792,-0.239263 -1.74625,-0.137451 -5.73484,-0.315224 -8.86354,-0.395324 -3.1287,-0.08009 -7.36517,-0.275945 -9.41441,-0.435116 -3.629188,-0.28194 -15.57546,-0.198426 -24.8491304,0.173633 -2.44011,0.09787 -6.69902,0.03028 -10.05416998,-0.159163 C -6.7160824,34.127544 -19.293532,34.07476 -19.789532,34.381315 c -0.14902,0.0921 -2.90542,0.196961 -6.12521,0.233061 -13.37932,0.14991 -25.53229,0.489294 -38.79453,1.083654 -0.99941,0.04478 -1.90611,0.112704 -2.57039,0.182935 v 1.351855 c 3.44064,-0.500298 9.83997,-0.891077 17.3669,-1.054198 3.55438,-0.07702 6.55574,-0.197483 6.66936,-0.267685 0.11363,-0.07025 5.25263,-0.164391 11.41997,-0.20929 6.16736,-0.0449 11.33832,-0.159129 11.49129,-0.25373 0.37112,-0.229339 14.1593596,-0.332383 14.5215996,-0.108522 0.29182,0.180369 9.58148,0.571548 12.40648,0.522449 3.14529,-0.05461 7.8489104,-0.322273 8.0708204,-0.459404 0.25712,-0.15888 16.83318,-0.151826 18.25522,0.0078 1.71259,0.19227 10.41701,0.665271 14.2875,0.776179 2.11005,0.06051 3.83646,0.123661 3.83646,0.14056 0,0.02577 5.74427,0.277257 7.01145,0.306959 0.21828,0.0051 1.70656,0.171918 3.3073,0.37052 1.60072,0.19857 5.47025,0.433647 8.59895,0.522449 3.1287,0.0888 6.70619,0.26276 7.95042,0.38654 2.36918,0.235691 13.99488,0.174892 28.562082,-0.149347 4.72943,-0.105291 12.52802,-0.190685 17.33021,-0.190685 7.50336,5.29e-4 9.25217,0.07839 12.43542,0.554487 2.03729,0.304689 5.49011,0.691756 7.67292,0.859896 2.18281,0.168119 4.74266,0.39388 5.68854,0.50178 0.94589,0.107902 1.80909,0.214712 1.91823,0.237712 0.10913,0.02289 0.19843,-0.05346 0.19843,-0.1695 0,-0.23758 3.31255,-0.163311 3.7114,0.0832 0.14149,0.08742 0.25735,0.03849 0.25735,-0.109037 0,-0.403323 1.19072,-0.516022 7.27605,-0.687811 7.38292,-0.208391 14.72173,-0.573265 15.21354,-0.756544 1.37782,-0.513401 18.05918,-0.781786 22.35728,-0.359667 2.92687,0.28743 14.61928,0.351621 17.3302,0.09508 1.09144,-0.103301 3.47266,-0.372623 5.29167,-0.598413 3.84008,-0.47665 10.60596,-0.615932 16.27188,-0.334862 4.11421,0.204131 4.67661,0.247377 9.525,0.733287 1.60072,0.160438 7.85153,0.41044 13.89062,0.555522 11.65495,0.279979 12.52106,0.316709 18.52086,0.785998 3.99307,0.312308 13.77302,0.174894 18.12396,-0.254765 1.30969,-0.129347 4.03352,-0.244181 6.05337,-0.255281 2.01989,-0.01106 3.74627,-0.06457 3.83646,-0.119372 0.0902,-0.05477 4.45059,-0.175598 9.68934,-0.2682 8.40771,-0.148669 13.31888,-0.369041 18.78541,-0.843359 0.8731,-0.07575 3.31391,-0.250836 5.42396,-0.389126 2.11005,-0.1383 4.55081,-0.379994 5.42396,-0.536916 0.8731,-0.156932 4.26641,-0.391279 7.54062,-0.520898 10.00948,-0.39624 16.37972,-0.735103 19.84375,-1.055751 4.09583,-0.379122 44.85556,-0.483786 52.5198,-0.134874 2.91041,0.1325 6.18463,0.265821 7.27604,0.296621 2.06536,0.05837 5.21914,0.180367 7.86154,0.29559 v -1.089853 c -0.0814,-0.0019 -0.10489,-0.0024 -0.18863,-0.0041 -2.72372,-0.0586 -13.03303,-0.5174 -19.05,-0.847492 -1.73302,-0.09508 -5.41689,-0.144029 -10.04281,-0.156578 z m -277.79028,6.224942 c -0.90581,-0.0027 -1.28971,0.07925 -1.05833,0.225827 0.44041,0.279019 1.23663,0.27477 1.95079,-0.01034 0.36376,-0.145248 0.0846,-0.212489 -0.89246,-0.215492 z m 1.70791,0.05426 c -0.0613,0.0123 -0.0723,0.06343 -0.0202,0.147796 0.0889,0.143844 0.2739,0.261483 0.41083,0.261483 0.38059,0 0.29662,-0.189452 -0.16175,-0.365353 -0.0589,-0.0226 -0.10979,-0.03669 -0.15141,-0.04289 -0.0312,-0.0047 -0.0571,-0.0051 -0.0775,-0.0011 z m 3.34915,0.0041 c -0.41318,-0.0051 -0.46852,0.155858 -0.0563,0.41651 0.49435,0.312539 0.97823,0.320659 1.16427,0.01963 0.0797,-0.128881 -0.1808,-0.297122 -0.57929,-0.373621 -0.21329,-0.04098 -0.39092,-0.06084 -0.52865,-0.06253 z m -7.73958,0.03617 c -0.41074,-0.0055 -0.79066,0.05022 -0.79065,0.171051 0,0.109138 0.43639,0.198437 0.96997,0.198437 0.53357,0 0.8915,-0.07898 0.7953,-0.175183 -0.12245,-0.122476 -0.56388,-0.188815 -0.97462,-0.194305 z m 13.2917,0.104937 c -0.30671,0 -0.63121,0.11915 -0.72141,0.265099 -0.094,0.15212 0.0654,0.23055 0.37414,0.183452 0.75966,-0.115941 1.01719,-0.448551 0.34727,-0.448551 z m 44.21487,0.122481 c -0.1079,0.02323 -0.11161,0.156461 0.0326,0.389641 h -5.3e-4 c 0.0959,0.155199 0.37612,0.278366 0.62219,0.273368 0.39287,-0.0074 0.3851,-0.0551 -0.0625,-0.393775 -0.27188,-0.205673 -0.4838,-0.292457 -0.5917,-0.269234 z m -1.80196,0.02946 c -0.21705,0.01513 -0.21524,0.167232 0.1204,0.374652 0.20711,0.128 0.49332,0.160131 0.63614,0.07183 0.1428,-0.08827 0.0297,-0.244072 -0.25166,-0.346233 -0.15815,-0.05742 -0.2933,-0.08841 -0.39894,-0.09818 -0.0396,-0.0037 -0.0749,-0.0042 -0.10594,-0.0021 z m 15.36908,0.282151 c -0.0957,0.0044 -0.2141,0.02278 -0.36068,0.05271 -0.50295,0.102709 -0.58462,0.17933 -0.26458,0.247531 0.25463,0.05426 0.46302,0.20882 0.46302,0.343649 0,0.134861 0.11906,0.245462 0.26458,0.245462 0.14552,0 0.26458,-0.221626 0.26458,-0.492477 0,-0.297659 -0.0798,-0.410017 -0.36692,-0.396875 z m -6.17532,0.07545 c -0.10549,-0.0109 -0.23419,0.108162 -0.28631,0.264584 -0.0559,0.167558 0.29464,0.28422 0.8532,0.28422 0.52144,0 0.94827,-0.119065 0.94827,-0.264583 0,-0.145521 -0.29768,-0.264583 -0.66146,-0.264583 -0.36383,0 -0.74819,-0.0088 -0.8537,-0.01963 z m 9.51052,0.113689 c -0.42709,0.0035 -0.98517,0.0646 -1.64536,0.182933 -0.21828,0.03913 0.19841,0.145246 0.92604,0.235646 v -5.29e-4 c 0.72758,0.09039 2.69211,0.136199 4.36563,0.101801 3.70006,-0.07615 3.69075,-0.07519 3.07887,-0.315743 -0.51752,-0.203452 -3.52589,-0.154557 -4.80851,0.07803 -0.41275,0.07485 -0.88921,0.02088 -1.05883,-0.119888 -0.13476,-0.111781 -0.43074,-0.165778 -0.85784,-0.162264 z m -11.19725,0.01188 c -0.40113,-0.009 -0.76687,0.05167 -0.76687,0.189654 0,0.12851 0.43638,0.234092 0.96997,0.234092 0.53356,0 0.88268,-0.08777 0.77566,-0.19482 -0.14113,-0.141129 -0.57762,-0.219964 -0.97876,-0.228926 z m -3.20755,0.04754 c -0.0633,0.0044 -0.1324,0.01561 -0.20516,0.03462 -0.29104,0.0761 -0.52916,0.183981 -0.52916,0.239779 0,0.05585 0.23812,0.101801 0.52916,0.101801 0.29104,0 0.52917,-0.107889 0.52917,-0.239779 0,-0.09894 -0.13425,-0.149518 -0.32401,-0.136424 z m 22.38519,0.11162 c -0.3638,0 -0.60637,0.0893 -0.53898,0.198437 0.0674,0.109141 0.42066,0.198438 0.78444,0.198438 0.36383,0 0.60587,-0.0893 0.53848,-0.198438 -0.0674,-0.10914 -0.42013,-0.198437 -0.78394,-0.198437 z m -20.4959,0.03256 c -0.0919,-0.0038 -0.19646,0.01296 -0.29197,0.05116 -0.21105,0.08447 -0.14856,0.146979 0.15968,0.159679 0.27886,0.01148 0.43516,-0.05111 0.34726,-0.13901 -0.044,-0.044 -0.12305,-0.06806 -0.21497,-0.07183 z m -9.00565,0.0011 c -0.14386,-0.0019 -0.29761,0.014 -0.42633,0.04754 -0.25743,0.06709 -0.11048,0.126775 0.32608,0.131776 0.43654,0.0054 0.64682,-0.04946 0.46767,-0.121957 -0.0896,-0.03635 -0.22355,-0.05556 -0.36742,-0.05736 z"
       style="display:inline;fill:#000000;stroke-width:0.264583"
       inkscape:connector-curvature="0" />
  </g>
</svg>
