<?xml version="1.0" encoding="UTF-8" standalone="no"?>
<!-- Created with Inkscape (http://www.inkscape.org/) -->

<svg
   xmlns:dc="http://purl.org/dc/elements/1.1/"
   xmlns:cc="http://creativecommons.org/ns#"
   xmlns:rdf="http://www.w3.org/1999/02/22-rdf-syntax-ns#"
   xmlns:svg="http://www.w3.org/2000/svg"
   xmlns="http://www.w3.org/2000/svg"
   xmlns:sodipodi="http://sodipodi.sourceforge.net/DTD/sodipodi-0.dtd"
   xmlns:inkscape="http://www.inkscape.org/namespaces/inkscape"
   width="210mm"
   height="297mm"
   viewBox="0 0 210 297"
   version="1.1"
   id="svg2688"
   inkscape:version="0.92.2 5c3e80d, 2017-08-06"
   sodipodi:docname="market.svg">
  <defs
     id="defs2682" />
  <sodipodi:namedview
     id="base"
     pagecolor="#ffffff"
     bordercolor="#666666"
     borderopacity="1.0"
     inkscape:pageopacity="0.0"
     inkscape:pageshadow="2"
     inkscape:zoom="0.35"
     inkscape:cx="631.30312"
     inkscape:cy="383.48422"
     inkscape:document-units="mm"
     inkscape:current-layer="layer1"
     showgrid="false"
     inkscape:snap-global="false"
     showguides="true"
     inkscape:guide-bbox="true"
     inkscape:window-width="1596"
     inkscape:window-height="1005"
     inkscape:window-x="84"
     inkscape:window-y="1"
     inkscape:window-maximized="1">
    <sodipodi:guide
       position="-68.035714,362.10119"
       orientation="1,0"
       id="guide4910"
       inkscape:locked="false" />
    <sodipodi:guide
       position="442.98809,232.07739"
       orientation="1,0"
       id="guide4912"
       inkscape:locked="false" />
    <sodipodi:guide
       position="319.0119,327.32739"
       orientation="0,1"
       id="guide4914"
       inkscape:locked="false" />
    <sodipodi:guide
       position="136.82738,-109.6131"
       orientation="0,1"
       id="guide4916"
       inkscape:locked="false" />
  </sodipodi:namedview>
  <metadata
     id="metadata2685">
    <rdf:RDF>
      <cc:Work
         rdf:about="">
        <dc:format>image/svg+xml</dc:format>
        <dc:type
           rdf:resource="http://purl.org/dc/dcmitype/StillImage" />
        <dc:title />
      </cc:Work>
    </rdf:RDF>
  </metadata>
  <g
     inkscape:groupmode="layer"
     id="layer2"
     inkscape:label="background"
     style="display:inline">
    <path
       style="display:inline;fill:#d2d1ee;fill-opacity:1;stroke:none;stroke-width:0.41988385px;stroke-linecap:butt;stroke-linejoin:miter;stroke-opacity:1"
       d="M -68.035714,-30.327389 H 442.98809 v 61.331776 l -511.023804,0.639431 z"
       id="path817"
       inkscape:connector-curvature="0"
       inkscape:export-filename="/Users/jan/Documents/repo/github/microcol/microcol-game/src/main/resources/images/market.png"
       inkscape:export-xdpi="34.762627"
       inkscape:export-ydpi="34.762627"
       sodipodi:nodetypes="ccccc" />
    <path
       style="display:inline;fill:#9babe0;fill-opacity:1;stroke:none;stroke-width:0.5663268px;stroke-linecap:butt;stroke-linejoin:miter;stroke-opacity:1"
       d="M -68.035714,39.963866 442.98809,38.838237 V 146.60444 l -511.023804,1.07598 z"
       id="path815"
       inkscape:connector-curvature="0"
       sodipodi:nodetypes="ccccc"
       inkscape:export-filename="/Users/jan/Documents/repo/github/microcol/microcol-game/src/main/resources/images/market.png"
       inkscape:export-xdpi="34.762627"
       inkscape:export-ydpi="34.762627" />
    <path
       style="display:inline;fill:#b0cb1f;fill-opacity:1;stroke:none;stroke-width:1.08049786px;stroke-linecap:butt;stroke-linejoin:miter;stroke-opacity:1"
       d="m -68.035714,153.3042 511.023804,-0.018 V 406.61312 H -68.035714 Z"
       id="path817-2"
       inkscape:connector-curvature="0"
       inkscape:export-filename="/Users/jan/Documents/repo/github/microcol/microcol-game/src/main/resources/images/market.png"
       inkscape:export-xdpi="34.762627"
       inkscape:export-ydpi="34.762627"
       sodipodi:nodetypes="ccccc" />
    <path
       style="display:inline;fill:#c88f5f;fill-opacity:1;fill-rule:evenodd;stroke:none;stroke-width:0.911327px;stroke-linecap:butt;stroke-linejoin:miter;stroke-opacity:1"
       d="M 12.496717,92.166904 H 330.85686 V 322.67238 H 12.496717 Z"
       id="path3972"
       inkscape:connector-curvature="0"
       sodipodi:nodetypes="ccccc"
       inkscape:export-filename="/Users/jan/Documents/repo/github/microcol/microcol-game/src/main/resources/images/market.png"
       inkscape:export-xdpi="34.762627"
       inkscape:export-ydpi="34.762627" />
    <path
       style="display:inline;fill:#c88f5f;fill-opacity:1;fill-rule:evenodd;stroke:none;stroke-width:0.09921916px;stroke-linecap:butt;stroke-linejoin:miter;stroke-opacity:1"
       d="m 146.98065,317.06274 h 13.71132 v 63.44 h -13.71132 z"
       id="path3972-1"
       inkscape:connector-curvature="0"
       sodipodi:nodetypes="ccccc"
       inkscape:export-filename="/Users/jan/Documents/repo/github/microcol/microcol-game/src/main/resources/images/market.png"
       inkscape:export-xdpi="34.762627"
       inkscape:export-ydpi="34.762627" />
  </g>
  <g
     inkscape:groupmode="layer"
     id="layer3"
     inkscape:label="ptak"
     style="display:inline">
    <path
       style="display:inline;fill:#e9ebaa;fill-opacity:1;fill-rule:evenodd;stroke:#000000;stroke-width:0.26458332px;stroke-linecap:butt;stroke-linejoin:miter;stroke-opacity:1"
       d="m 277.6235,55.662202 9.8274,-5.669642 9.26041,0.944938 5.29167,9.07143 13.60712,11.717261 7.18156,13.04018 -0.94493,5.480653 -28.15923,0.755954 -4.91369,-2.078871 -3.02381,-5.291667 -4.91369,-10.772319 -0.37798,-7.559524 -2.07886,-2.456847 -3.21281,4.157739 1.51191,-6.992559 z"
       id="path4960"
       inkscape:connector-curvature="0"
       inkscape:export-filename="/Users/jan/Documents/repo/github/microcol/microcol-game/src/main/resources/images/market.png"
       inkscape:export-xdpi="34.762627"
       inkscape:export-ydpi="34.762627" />
    <path
       style="fill:#e9ebaa;fill-opacity:1;fill-rule:evenodd;stroke:#000000;stroke-width:0.26458332px;stroke-linecap:butt;stroke-linejoin:miter;stroke-opacity:1"
       d="m 332.61905,122.56399 4.34671,6.80357 3.4018,0.75595 c 0,0 4.15774,-3.2128 4.15774,-3.96875 0,-0.75595 -2.45686,-6.99256 -2.45686,-6.99256 L 331.4851,104.04315 Z"
       id="path4964"
       inkscape:connector-curvature="0"
       inkscape:export-filename="/Users/jan/Documents/repo/github/microcol/microcol-game/src/main/resources/images/market.png"
       inkscape:export-xdpi="34.762627"
       inkscape:export-ydpi="34.762627" />
  </g>
  <g
     inkscape:label="lines"
     inkscape:groupmode="layer"
     id="layer1"
     style="display:inline">
    <path
       style="fill:#000000;stroke-width:0.99999994"
       d="M 1110.9141 181.21289 L 1097.4922 181.81445 C 1086.323 182.31505 1083.3172 182.79534 1079.5723 184.67773 C 1077.0972 185.92185 1072.8584 187.73132 1070.1523 188.69922 C 1064.0436 190.88412 1052.8676 199.72512 1049.2695 205.2207 C 1047.7853 207.48762 1046.5723 209.67089 1046.5723 210.07227 C 1046.5723 210.47377 1045.4473 211.78094 1044.0723 212.97656 C 1042.6972 214.17206 1041.5723 215.96621 1041.5723 216.96484 C 1041.5723 217.96332 1040.911 219.65495 1040.1035 220.72266 C 1039.296 221.79027 1038.6224 223.90153 1038.6035 225.41406 C 1038.5845 226.92655 1038.0862 228.16406 1037.4941 228.16406 C 1035.88 228.16406 1036.6576 236.35597 1038.4746 238.49609 C 1039.8886 240.16158 1039.8729 240.41512 1038.3008 241.29492 C 1037.192 241.9154 1036.5723 243.47979 1036.5723 245.6543 C 1036.5723 247.5195 1036.1223 249.32428 1035.5723 249.66406 C 1035.0223 250.00396 1034.5723 251.32439 1034.5723 252.59961 C 1034.5723 253.87478 1033.9589 255.42605 1033.2109 256.04688 C 1031.6912 257.30814 1032.1986 262.21583 1033.9707 263.39844 C 1034.5763 263.80259 1035.4304 264.13711 1035.8691 264.14844 C 1036.9768 264.16964 1041.3713 259.36066 1044.0781 255.16406 C 1048.327 248.57717 1050.375 246.75488 1052.0117 248.11328 C 1053.5745 249.41026 1055.5723 248.76673 1055.5723 246.96484 C 1055.5723 246.37043 1056.2701 245.37122 1057.125 244.74609 C 1059.1387 243.27362 1058.0275 240.28703 1055.043 239.15234 C 1052.469 238.17363 1048.5723 238.91193 1048.5723 240.37891 C 1048.5723 241.80281 1041.6195 248.54329 1040.8965 247.82031 C 1040.5612 247.4853 1040.7381 246.6383 1041.2891 245.9375 C 1041.8402 245.2367 1043.0523 242.62185 1043.9844 240.12695 C 1044.9667 237.49777 1046.5999 235.18553 1047.8691 234.62695 C 1051.3609 233.09024 1051.0663 230.7439 1047.2051 229.34766 L 1043.7734 228.10742 L 1045.3574 223.15039 C 1046.2425 220.38279 1049.8415 214.35878 1053.5078 209.50391 C 1060.4277 200.34083 1061.2562 199.77161 1081.5723 190.26172 C 1086.5383 187.93712 1105.3795 185.39111 1109.6543 186.4668 C 1113.1406 187.34421 1121.0258 194.4217 1123.5859 198.9707 C 1126.3622 203.9037 1131.6114 207.41551 1133.3789 205.52344 C 1134.417 204.41222 1134.0151 203.61369 1131.1562 201.10352 C 1129.2374 199.41841 1127.355 197.05515 1126.9746 195.85156 C 1125.7061 191.83865 1121.4034 187.21397 1116.1309 184.19727 L 1110.9141 181.21289 z M 1074.8066 201.41992 C 1074.3398 201.42192 1073.8471 201.47192 1073.332 201.57227 C 1069.0846 202.39946 1065.9798 204.99141 1065.1895 208.36914 C 1064.6907 210.5006 1065.2155 211.82765 1067.668 214.61914 C 1071.1541 218.58964 1072.5232 218.8968 1076.1543 216.51758 C 1083.2826 211.84697 1081.8092 201.38661 1074.8066 201.41992 z M 1128.8223 214.17188 C 1125.6989 214.15828 1125.9722 216.73098 1129.3223 218.88086 C 1133.1084 221.31056 1153.7602 238.88986 1161.0723 245.90625 C 1164.3722 249.07285 1170.6182 254.13904 1174.9531 257.16406 C 1179.288 260.18904 1184.688 264.66342 1186.9531 267.10742 C 1189.2182 269.55141 1192.4662 272.92644 1194.1719 274.60742 C 1201.5406 281.86933 1211.5724 297.33967 1213.3379 304.16406 C 1217.8518 321.61119 1218.0161 323.06789 1216.209 329.84961 C 1215.2719 333.36729 1214.7451 336.63664 1215.041 337.11523 C 1216.2329 339.04356 1220.7626 336.82553 1219.9512 334.71094 C 1219.6072 333.81436 1220.2419 333.20574 1221.7441 332.99219 C 1223.6361 332.72327 1224.0305 332.11366 1223.8574 329.73047 C 1223.7157 327.77975 1224.3007 326.33912 1225.6074 325.42383 C 1227.9428 323.78813 1228.1586 320.89557 1226.0723 319.16406 C 1225.2472 318.47936 1224.5723 317.34037 1224.5723 316.63477 C 1224.5723 314.38538 1214.2515 294.97112 1208.3359 286.0918 C 1202.4672 277.2832 1189.1079 262.62327 1182.0527 257.25 C 1179.8631 255.58239 1174.837 251.91833 1170.8828 249.10742 C 1166.9287 246.29662 1162.9663 242.88876 1162.0781 241.5332 C 1161.1899 240.1776 1159.1466 238.26862 1157.5391 237.29102 C 1155.9316 236.31341 1151.1378 232.17159 1146.8848 228.08789 C 1136.2327 217.85999 1131.4615 214.18317 1128.8223 214.17188 z M 1057.3184 250.1582 C 1056.1329 250.1203 1054.4768 250.5072 1054.0781 251.15234 C 1052.5091 253.69112 1053.4609 264.0755 1055.9473 271.54102 C 1057.3903 275.87371 1058.5723 280.11936 1058.5723 280.97656 C 1058.5723 283.37595 1061.5452 295.44856 1062.6172 297.40039 C 1063.1418 298.35547 1063.5723 299.9338 1063.5723 300.9082 C 1063.5723 301.88249 1064.7768 304.92621 1066.25 307.67188 C 1069.7332 314.16343 1076.0229 325.72425 1078.4863 330.16406 C 1080.8651 334.45118 1086.7813 339.21809 1090.9629 340.2168 L 1090.9629 340.21484 C 1095.8851 341.39054 1101.1481 341.33946 1099.9355 340.12695 C 1099.3654 339.55685 1097.7122 338.87439 1096.2617 338.61133 C 1094.8112 338.34831 1092.3745 337.65862 1090.8477 337.07812 C 1088.387 336.14254 1088.2711 335.91106 1089.8223 335.04297 C 1092.2779 333.66866 1091.9984 332.2772 1089.0449 331.1543 C 1087.6558 330.62608 1086.2193 329.40966 1085.8516 328.45117 C 1085.4838 327.49268 1083.8076 325.30685 1082.127 323.59375 C 1076.2196 317.57205 1065.6647 293.28093 1064.7969 283.71094 C 1064.3689 278.98994 1063.7499 277.30492 1061.9121 275.85938 C 1060.4174 274.68356 1059.5723 272.96822 1059.5723 271.11133 C 1059.5723 269.51233 1058.8451 266.38769 1057.957 264.16797 C 1056.6323 260.85718 1056.5425 259.33698 1057.457 255.70508 C 1058.0701 253.27009 1058.5723 251.02722 1058.5723 250.7207 C 1058.5723 250.35662 1058.0297 250.18091 1057.3184 250.1582 z M 1175.2285 334.25391 C 1173.8959 334.16951 1172.567 335.23493 1171.5137 337.37305 C 1169.4742 341.51257 1167.098 342.42009 1167.791 338.79492 C 1168.0677 337.34811 1167.9446 336.16406 1167.5156 336.16406 C 1165.3816 336.16406 1163.5723 337.57383 1163.5723 339.23633 C 1163.5723 342.10942 1160.9028 342.86395 1150.0215 343.07031 C 1140.1963 343.25664 1139.8828 343.19295 1136.1328 340.21289 C 1131.8969 336.84669 1127.3378 336.26973 1124.1309 338.69531 C 1121.5976 340.61145 1119.5723 340.56432 1119.5723 338.58984 C 1119.5723 335.53194 1116.1687 337.58918 1115.4551 341.07812 C 1115.0725 342.94904 1113.971 344.92074 1113.0059 345.46094 C 1109.2901 347.54033 1091.9243 347.76246 1056.5723 346.18164 C 1044.7473 345.65284 1026.9722 344.99755 1017.0723 344.72656 C 994.43104 344.10687 969.84497 343.09896 967.70508 342.70117 C 960.6481 341.38937 941.5866 340.1332 921.07227 339.62891 C 911.72224 339.39904 901.14725 338.99302 897.57227 338.72656 C 891.00976 338.23715 878.10645 337.33015 867.07227 336.58203 C 863.77225 336.35825 849.37226 335.9319 835.07227 335.63672 C 820.77227 335.3412 807.9473 335.06942 806.57227 335.03125 C 805.19727 334.99345 800.69728 335.20326 796.57227 335.49805 C 785.06115 336.32048 743.84424 337.4281 716.57227 337.64844 C 693.65117 337.83363 682.99984 338.17458 646.57227 339.88281 C 627.84807 340.75951 580.49535 340.73585 569.70117 339.84375 C 558.97313 338.95703 447.44912 339.02876 398.57227 339.95312 C 377.94726 340.34318 359.44912 340.39812 357.4668 340.07422 C 353.95497 339.50033 338.00925 340.14732 308.57227 342.05859 C 298.01159 342.74431 285.10695 342.58827 261.07227 341.48828 C 241.85853 340.60844 223.05907 340.26423 216.07227 340.66211 C 209.47227 341.03791 179.32226 341.51717 149.07227 341.72656 C 118.82226 341.93606 92.047267 342.5417 89.572266 343.07227 C 87.097268 343.60288 81.594142 344.3072 77.34375 344.63867 C 70.511891 345.17128 69.00441 344.95941 64.34375 342.80469 C 60.218237 340.89747 58.162321 340.50886 54.888672 341.01562 C 49.864421 341.79341 45.572266 345.25639 45.572266 348.5332 C 45.572266 349.84447 44.897257 351.47737 44.072266 352.16211 C 43.247259 352.8468 42.572266 354.28275 42.572266 355.35156 C 42.572266 356.42038 42.192165 358.05219 41.728516 358.97852 C 41.264836 359.90492 41.18083 361.78711 41.541016 363.16211 L 42.195312 365.66211 L 42.902344 362.91211 C 43.760803 359.57357 45.115824 359.4327 47.708984 362.41211 L 49.667969 364.66211 L 49.060547 361.50781 C 48.724811 359.76183 48.907025 358.07352 49.46875 357.72656 C 50.02696 357.38153 50.242326 356.47008 49.947266 355.70117 C 49.365717 354.18565 52.308883 347.12233 54.019531 345.92773 C 55.778183 344.69961 58.815111 345.07264 60.662109 346.74414 C 61.993338 347.94886 65.228212 348.41102 74.214844 348.68164 C 80.706432 348.87712 86.479841 348.67864 87.044922 348.24023 C 89.551765 346.29563 97.794876 345.8791 140.57227 345.53516 C 165.59727 345.33393 191.02226 344.92799 197.07227 344.63281 C 217.27353 343.64779 254.56321 344.27259 276.95898 345.9707 C 291.2671 347.05557 320.12848 346.17242 322.7207 344.57031 C 323.27967 344.22483 350.58698 343.75192 383.4043 343.51758 C 416.22156 343.28336 444.42228 343.03194 446.07227 342.95898 C 447.72226 342.88828 458.07225 342.85044 469.07227 342.87695 C 480.07224 342.90455 499.87227 342.83995 513.07227 342.73242 C 526.27223 342.62512 546.07225 342.8672 557.07227 343.27148 C 578.39829 344.05524 628.19158 344.21161 645.57227 343.54883 C 651.34727 343.32852 660.5723 342.966 666.07227 342.74414 C 696.93502 341.49965 712.10166 341.09407 750.57227 340.47656 C 773.94725 340.10148 797.79726 339.7914 803.57227 339.80273 C 839.09869 339.83413 861.19736 340.29342 869.07227 341.16211 C 880.55787 342.42923 907.52025 344.05717 928.07227 344.72656 C 936.87225 345.01316 947.89725 345.68553 952.57227 346.21875 C 960.56185 347.13003 981.24033 347.97461 1011.0723 348.60742 C 1029.9555 349.00801 1062.193 350.99427 1068.5723 352.15039 C 1072.126 352.79434 1080.7958 352.82902 1093.0723 352.25 C 1103.5222 351.75722 1112.4098 351.56362 1112.8223 351.81836 C 1113.2348 352.07314 1113.5723 353.73899 1113.5723 355.52148 C 1113.5723 358.86409 1115.0511 361.16211 1117.2012 361.16211 C 1119.3714 361.16211 1121.5723 358.10597 1121.5723 355.0918 C 1121.5723 353.48108 1122.1348 352.10143 1122.8223 352.02734 C 1123.5098 351.95294 1126.9126 351.82123 1130.3848 351.73438 C 1134.5204 351.63097 1136.9901 351.10217 1137.5469 350.20117 C 1138.5117 348.64019 1146.1903 347.34405 1155.1035 347.23633 C 1160.9124 347.16603 1161.1749 347.27223 1162.2656 350.16211 C 1163.6337 353.78671 1167.8583 354.36484 1169.5723 351.16211 C 1170.8918 348.69661 1175.4111 348.51044 1179.7305 350.74414 C 1182.6923 352.27571 1182.883 352.23956 1185.6562 349.58203 L 1188.5215 346.83594 L 1192.5488 348.65234 C 1196.3908 350.385 1196.6652 350.38739 1198.5156 348.71289 C 1200.604 346.82286 1213.8883 345.29093 1228.8984 345.20703 C 1236.1362 345.16673 1236.9305 345.36913 1239.457 347.91211 C 1241.7415 350.21153 1242.3963 352.13669 1243.4531 359.66211 C 1244.1482 364.61212 1245.4156 371.87328 1246.2676 375.79688 C 1247.1196 379.72053 1247.5961 383.54558 1247.3281 384.29688 C 1247.0605 385.04824 1247.2267 386.41052 1247.6953 387.32422 C 1248.1643 388.23803 1248.8104 392.71663 1249.1328 397.27734 C 1249.4552 401.83814 1250.0915 406.26691 1250.5449 407.11719 C 1250.9984 407.96762 1251.3594 413.61211 1251.3594 419.66211 C 1251.3594 425.71211 1251.4214 436.06211 1251.5078 442.66211 C 1251.5948 449.26211 1251.218 456.15586 1250.6699 457.98047 C 1250.0615 460.00664 1250.0228 462.2165 1250.5703 463.6582 C 1251.7279 466.70318 1251.8493 481.34371 1250.8047 491.97461 C 1250.3557 496.54651 1250.0811 504.42153 1250.1934 509.47461 C 1251.1995 554.68309 1252.0099 670.54392 1251.6152 712.66211 C 1251.5382 720.9121 1251.7445 732.3871 1252.0742 738.16211 C 1252.4042 743.93711 1252.8974 760.13711 1253.1699 774.16211 C 1253.4424 788.1871 1253.8502 803.4871 1254.0762 808.16211 C 1256.1794 851.63072 1256.8003 869.80335 1256.6914 884.66211 C 1256.6394 891.81218 1256.9552 899.23712 1257.3926 901.16211 C 1257.83 903.0871 1257.768 906.68701 1257.2559 909.16211 C 1256.1941 914.29441 1255.9219 920.0307 1255.6523 942.91797 C 1255.5469 951.85889 1255.7033 959.56558 1255.998 960.04297 C 1256.2932 960.52047 1256.5495 966.93033 1256.5684 974.28711 C 1256.6084 990.39228 1256.6424 998.10857 1256.875 1044.6621 C 1257.0485 1079.4788 1256.3081 1102.3578 1254.7402 1110.6621 C 1254.3249 1112.8621 1254.2728 1116.3031 1254.625 1118.3086 C 1254.9773 1120.314 1255.1093 1132.054 1254.918 1144.3965 C 1254.6458 1161.9478 1254.884 1167.8898 1256.0234 1171.6699 C 1256.8236 1174.3283 1257.3009 1176.7915 1257.084 1177.1426 C 1256.867 1177.4933 1256.6474 1180.23 1256.5938 1183.2227 C 1256.5068 1188.1057 1256.3524 1206.3614 1256.3672 1210.1621 C 1256.3672 1210.9871 1256.7006 1213.9764 1257.0996 1216.8047 C 1257.7791 1221.62 1257.6745 1222.0029 1255.4492 1222.8008 C 1254.142 1223.2695 1243.3972 1223.6959 1231.5723 1223.75 C 1219.7473 1223.804 1209.3973 1223.9279 1208.5723 1224.0254 C 1207.7473 1224.1234 1202.5723 1223.7517 1197.0723 1223.1992 C 1191.5723 1222.6467 1184.5972 1221.962 1181.5723 1221.6777 C 1178.5472 1221.3935 1174.406 1220.7626 1172.3711 1220.2773 C 1170.3361 1219.7924 1168.5363 1219.5256 1168.3711 1219.6836 C 1167.1037 1220.8981 1137.0749 1221.8718 1121.0723 1221.2168 C 1117.2222 1221.0592 1108.2222 1221.6178 1101.0723 1222.459 C 1089.3087 1223.8428 1077.5875 1223.9052 1065.7773 1222.6465 C 1063.4153 1222.3948 1049.0153 1222.6165 1033.7773 1223.1387 C 972.83621 1225.2292 931.39065 1225.7875 929.37695 1224.543 C 927.86465 1223.6083 781.52897 1223.0646 780.07227 1223.9883 C 779.52208 1224.3371 775.47228 1224.7395 771.07227 1224.8828 C 766.67222 1225.0261 757.67227 1225.3907 751.07227 1225.6934 C 744.47227 1225.9961 723.32227 1226.4392 704.07227 1226.6777 C 670.94108 1227.0885 657.21145 1227.5032 637.57227 1228.6914 C 612.87385 1230.1858 565.34908 1228.8033 563.4668 1226.5352 C 561.80324 1224.5306 557.89532 1224.8193 557.32812 1226.9883 C 556.88101 1228.6983 555.4324 1228.7959 534.46094 1228.5234 C 522.14686 1228.3632 506.89727 1227.982 500.57227 1227.6777 C 475.23416 1226.4585 465.11035 1226.1111 443.07227 1225.7051 C 430.42226 1225.4723 418.38479 1224.9716 416.32227 1224.5918 C 413.16258 1224.0099 412.57227 1224.1745 412.57227 1225.6387 C 412.57227 1226.7551 413.0955 1227.1745 414.03906 1226.8125 C 414.84648 1226.5026 415.78646 1226.7015 416.12695 1227.252 C 416.74766 1228.2563 331.97887 1227.5327 330.33984 1226.5195 C 329.91529 1226.2572 312.35668 1225.8723 291.32031 1225.666 C 270.28396 1225.4597 237.32227 1225.0115 218.07227 1224.6699 C 123.7241 1222.995 93.038335 1222.8828 88.46875 1224.1934 C 83.619869 1225.5838 59.66015 1225.3398 56.425781 1223.8672 C 50.260109 1221.06 46.947045 1213.8061 46.054688 1201.1621 C 44.07581 1173.123 43.374986 1153.1027 44.333984 1151.9473 C 45.027955 1151.111 45.118022 1149.0734 44.587891 1146.1602 C 44.137749 1143.6865 43.970621 1130.6371 44.216797 1117.1621 C 44.462958 1103.6871 44.774521 1086.3621 44.908203 1078.6621 C 45.041885 1070.9621 44.868242 1063.0443 44.523438 1061.0664 C 44.178631 1059.0883 44.258993 1054.3634 44.703125 1050.5664 C 45.147265 1046.7693 45.739439 1036.012 46.017578 1026.6621 C 46.295714 1017.312 46.594009 1008.9871 46.679688 1008.1621 C 46.765287 1007.3371 46.759469 1005.0871 46.667969 1003.1621 C 46.576469 1001.2371 46.785021 978.51211 47.130859 952.66211 C 47.476686 926.81211 47.908355 893.9621 48.089844 879.66211 C 48.271299 865.36212 48.648503 848.48711 48.927734 842.16211 C 49.406963 831.30432 49.552166 807.59201 49.390625 766.66211 C 49.351545 756.76213 49.608508 743.71211 49.960938 737.66211 C 51.734715 707.21321 51.848418 696.93129 51.1875 628.16211 C 50.498337 556.4543 49.935098 529.30841 48.625 504.66211 C 48.011038 493.11214 47.321736 473.86824 47.091797 461.89844 C 46.86185 449.92864 46.376544 439.65547 46.013672 439.06836 C 45.650762 438.48117 45.467331 430.27514 45.605469 420.83203 C 45.939617 397.99182 45.948733 398.74647 45.248047 390.0957 C 44.69246 383.23597 45.181307 378.05011 47.167969 369.75781 C 47.794701 367.14211 47.651438 366.90866 45.71875 367.41406 C 44.466698 367.74145 43.572266 367.50926 43.572266 366.85547 C 43.572266 366.20517 42.930752 366.37407 42.044922 367.25977 C 40.060171 369.24457 39.865107 380.1173 41.636719 389.99219 C 42.642508 395.59851 42.697824 398.89009 41.871094 403.99219 C 40.405193 413.03909 40.24434 432.4259 41.580078 439.16211 C 42.795786 445.29288 43.261815 453.69441 44.128906 485.16211 C 44.454739 496.987 44.864226 510.26213 45.039062 514.66211 C 46.612805 554.26253 46.757242 561.92894 45.9375 562.43555 C 45.432472 562.74774 43.230453 562.60027 41.044922 562.10742 C 37.016023 561.19871 18.804338 559.26836 10.572266 558.87695 C 8.0972559 558.75941 0.89725559 559.50922 -5.4277344 560.54492 C -14.278485 561.99411 -23.723634 562.51722 -46.427734 562.81055 C -62.652744 563.01993 -84.252748 563.64338 -94.427734 564.19727 C -104.60274 564.75119 -131.15273 565.24411 -153.42773 565.29102 C -175.70274 565.33752 -199.77773 565.38722 -206.92773 565.40234 C -214.07775 565.41744 -226.22771 565.50004 -233.92773 565.58398 C -241.07598 565.66228 -251.01256 565.36917 -257.14258 564.92969 L -257.14258 569.18555 C -243.4269 569.38784 -219.21406 569.44791 -209.42773 569.23633 C -203.10274 569.09951 -189.60274 569.13741 -179.42773 569.32031 C -169.25274 569.50324 -144.27774 569.26781 -123.92773 568.79883 C -103.57775 568.32983 -71.402743 567.81954 -52.427734 567.66602 C -23.808065 567.43433 -16.03283 567.06135 -6.8066406 565.46484 C 4.0532679 563.58551 4.606738 563.58001 16.693359 565.35938 C 23.501349 566.36163 32.636331 567.40523 36.994141 567.67773 C 41.351949 567.95024 45.171228 568.4272 45.480469 568.73633 C 46.38847 569.64432 46.586947 574.44152 46.634766 596.66016 C 46.659716 608.21005 46.743403 619.68517 46.820312 622.16016 C 46.897112 624.63518 46.8934 637.01015 46.8125 649.66016 C 46.73166 662.31016 46.740111 674.68506 46.832031 677.16016 C 47.150041 685.73076 46.815011 712.69787 46.285156 721.16016 C 45.608655 731.96307 44.364202 785.51357 44.681641 790.16016 C 45.111981 796.45957 44.817321 837.98695 44.103516 871.66016 C 43.718767 889.81017 43.268416 922.66006 43.103516 944.66016 C 42.938615 966.66018 42.506509 996.5849 42.142578 1011.1602 C 41.468189 1038.1688 40.675656 1090.7292 40.197266 1140.1602 C 40.050885 1155.2851 40.306311 1171.9351 40.763672 1177.1602 C 41.221021 1182.3852 41.623865 1191.6102 41.660156 1197.6602 C 41.746896 1212.0797 42.36311 1216.2927 44.462891 1216.8418 C 45.383478 1217.0826 46.760279 1218.716 47.523438 1220.4707 C 48.286603 1222.2254 49.17312 1223.885 49.492188 1224.1602 C 49.811251 1224.4353 50.557624 1225.5414 51.152344 1226.6172 C 53.460645 1230.793 78.484 1232.4118 89.648438 1229.1074 C 94.213033 1227.7565 108.14883 1226.8462 124.07227 1226.8613 C 147.54845 1226.8843 226.6761 1227.9768 246.07227 1228.5488 C 256.52227 1228.8569 274.29727 1229.3791 285.57227 1229.7109 C 296.84727 1230.0428 306.74727 1230.2881 307.57227 1230.2578 C 312.12251 1230.0866 318.44439 1230.3058 321.07227 1230.7246 C 328.18605 1231.8596 331.98962 1232.0315 348.07227 1231.9453 C 357.42225 1231.8953 374.29728 1232.0343 385.57227 1232.2559 C 422.44658 1232.9818 422.62125 1232.9761 424.32227 1230.4121 C 425.96523 1227.9356 428.91961 1227.5591 433.25586 1229.2754 C 434.80418 1229.8883 442.59727 1230.5262 450.57227 1230.6914 C 458.54726 1230.8566 474.07225 1231.4714 485.07227 1232.0586 C 496.07224 1232.6455 516.44759 1233.1312 530.35156 1233.1426 L 555.63086 1233.1621 L 555.35156 1238.4141 C 555.11156 1242.9115 555.32516 1243.6425 556.83594 1243.5215 C 558.45671 1243.3918 558.56247 1244.3966 558.14453 1255.8965 C 557.25207 1280.4507 556.48332 1294.8016 555.56055 1304.1641 C 554.62171 1313.69 553.38762 1348.1952 553.18164 1370.6641 C 553.12114 1377.264 552.68 1383.2714 552.20117 1384.0137 C 551.72231 1384.756 551.27223 1393.981 551.20117 1404.5137 C 551.09459 1420.2999 551.4185 1425.2011 553.04688 1432.4141 L 553.04492 1432.4141 C 554.13138 1437.2265 555.36889 1441.1641 555.79492 1441.1641 C 556.2211 1441.1641 556.57031 1438.9503 556.57031 1436.2461 C 556.57031 1433.2266 557.04815 1431.1716 557.80859 1430.918 C 558.77351 1430.5963 558.73888 1429.8597 557.6582 1427.584 C 556.85751 1425.8978 556.0741 1419.9891 555.80273 1413.6035 C 555.40864 1404.3273 555.59219 1402.2828 556.94727 1400.9277 C 557.83595 1400.0391 558.28755 1398.5936 557.95117 1397.7168 C 557.18457 1395.719 559.27473 1322.0359 560.57617 1305.1641 C 561.10652 1298.2891 562.01032 1280.2891 562.58594 1265.1641 C 563.1616 1250.0391 563.77666 1236.7641 563.95312 1235.6641 C 564.25322 1233.7947 564.95399 1233.6786 574.67188 1233.9004 C 580.39034 1234.0308 591.14532 1234.208 598.57031 1234.293 C 605.99538 1234.378 611.35206 1234.6285 610.47461 1234.8496 C 608.33392 1235.3885 607.28467 1257.2879 607.06055 1306.1641 C 606.96835 1326.2391 606.54643 1345.814 606.12305 1349.6641 C 603.48373 1373.6635 604.70476 1406.4329 608.39062 1410.5273 C 609.97977 1412.2926 610.09689 1411.9472 610.57031 1404.0273 C 610.84697 1399.4269 610.84013 1392.9026 610.55859 1389.5293 C 610.27664 1386.1558 610.29502 1376.7058 610.59961 1368.5293 C 610.90575 1360.3526 611.03851 1334.764 610.89844 1311.6641 C 610.75822 1288.564 611.0398 1268.3141 611.52539 1266.6641 C 612.01106 1265.0141 612.94797 1257.0838 613.60742 1249.043 L 614.80664 1234.4238 L 620.93945 1233.75 C 624.31223 1233.3796 639.67033 1232.8717 655.07031 1232.6211 C 683.23547 1232.1628 699.18759 1231.7044 725.05664 1230.6094 C 732.76423 1230.2832 745.38694 1229.8583 753.10742 1229.666 C 760.82783 1229.4736 770.72786 1228.8615 775.10742 1228.3047 C 779.48695 1227.7482 789.37028 1227.2615 797.07031 1227.2227 C 804.77034 1227.1837 821.19531 1226.8843 833.57031 1226.5586 C 845.94532 1226.2328 859.4453 1226.3517 863.57031 1226.8223 C 867.69529 1227.2929 877.37032 1227.4493 885.07031 1227.1699 C 892.77031 1226.8906 904.24531 1227.1849 910.57031 1227.8242 C 926.21714 1229.4031 938.88521 1229.6403 952.57031 1228.6113 C 964.54302 1227.711 965.83608 1227.6778 974.07031 1228.0527 C 976.82033 1228.1778 992.57031 1228.0337 1009.0703 1227.7305 C 1025.5703 1227.4281 1044.0203 1227.1959 1050.0703 1227.2148 C 1056.1203 1227.2338 1061.7453 1227.2146 1062.5703 1227.1777 C 1063.3953 1227.1377 1070.0264 1226.9109 1077.3047 1226.6738 C 1084.583 1226.4369 1094.258 1225.7501 1098.8047 1225.1484 C 1103.3514 1224.5469 1114.7203 1224.2262 1124.0703 1224.4375 C 1133.4203 1224.6484 1145.9143 1224.5095 1151.834 1224.125 C 1157.7536 1223.7413 1164.7286 1223.8347 1167.334 1224.334 C 1169.9393 1224.8334 1174.3203 1225.473 1177.0703 1225.7539 C 1179.8203 1226.0347 1183.4203 1226.4388 1185.0703 1226.6523 C 1196.0909 1228.0781 1202.0902 1228.3425 1227.5703 1228.5293 C 1243.2453 1228.6442 1256.7928 1228.5743 1257.6738 1228.373 C 1259.4883 1227.959 1262.5703 1222.1167 1262.5703 1219.0938 C 1262.5703 1217.993 1261.8659 1216.0167 1261.0039 1214.7012 C 1259.8944 1213.0081 1259.5043 1210.3163 1259.668 1205.4863 C 1259.7953 1201.7337 1259.5364 1178.4141 1259.0938 1153.6641 C 1258.524 1121.8385 1258.6119 1107.0539 1259.3926 1103.1641 C 1260.6227 1097.0338 1260.9649 1078.6825 1260.7344 1031.1641 C 1260.7234 1028.6891 1260.4298 1010.0141 1260.0859 989.66406 C 1259.3371 945.36766 1259.3461 942.58148 1260.2812 924.66406 C 1260.6831 916.96407 1260.907 905.48903 1260.7793 899.16406 C 1260.4301 881.84464 1258.6253 830.69427 1258.0625 822.16406 C 1257.7904 818.03905 1257.344 798.68906 1257.0703 779.16406 C 1256.7971 759.63906 1256.3825 739.38903 1256.1484 734.16406 C 1255.7207 724.59853 1255.3518 703.52227 1255.5801 701.66406 C 1255.6481 701.11407 1255.61 696.61407 1255.498 691.66406 C 1255.3835 686.71409 1255.3439 681.76406 1255.4062 680.66406 C 1255.8043 673.67326 1255.6133 635.15106 1255.0234 603.41406 C 1254.4434 572.21523 1254.5531 566.1475 1255.7012 566.0625 C 1258.749 565.83686 1265.8536 565.1736 1281.0723 563.69531 C 1296.9638 562.15172 1305.6721 561.62771 1331.5723 560.6543 C 1338.9973 560.37499 1347.0973 559.92983 1349.5723 559.66602 C 1353.5598 559.24093 1397.1363 557.74238 1403.5723 557.80859 C 1404.9473 557.82369 1413.4972 558.38661 1422.5723 559.0625 C 1431.6473 559.7382 1456.7736 560.50815 1478.4102 560.77344 C 1539.5647 561.52314 1564.4715 562.20247 1572.0723 563.32812 C 1575.9451 563.90163 1605.0951 564.57671 1637.3223 564.83984 C 1695.4218 565.31451 1669.3086 565.3117 1669.3086 563.2793 C 1669.3086 560.97681 1693.8845 560.91477 1616.6895 560.37305 C 1596.6787 560.23283 1580.0122 559.93591 1579.6543 559.71484 C 1579.2964 559.49374 1571.5935 559.04292 1562.5371 558.71289 C 1553.4806 558.38294 1540.6723 557.85182 1534.0723 557.5332 C 1527.4723 557.21459 1509.9223 556.83654 1495.0723 556.69141 C 1480.2222 556.54627 1457.2723 556.02991 1444.0723 555.54492 C 1407.0083 554.18312 1348.7614 554.78919 1343.459 556.5918 C 1342.6956 556.85145 1333.2973 557.30273 1322.5723 557.59375 C 1311.8473 557.88477 1295.8723 558.80118 1287.0723 559.63086 C 1267.0047 561.52285 1259.5001 561.56335 1257.0762 559.79102 C 1254.4801 557.89279 1254.0645 551.24047 1254.5996 520.16406 C 1254.7085 513.83906 1254.4718 507.86839 1254.0723 506.89648 C 1253.2229 504.83109 1254.1513 489.33821 1255.4473 483.96289 C 1255.9373 481.92792 1256.1244 480.05027 1255.8633 479.78906 C 1255.6021 479.5279 1255.7007 478.33196 1256.082 477.13086 C 1256.7411 475.05427 1256.9911 475.15869 1261.1738 479.26367 C 1263.5928 481.63778 1265.5884 484.04819 1265.6035 484.62109 C 1265.7248 488.6204 1277.3431 496.50481 1283.0664 496.47461 C 1289.3316 496.44061 1299.2694 489.49903 1304.9004 481.22852 L 1307.2402 477.79492 L 1304.7402 470.72852 C 1303.366 466.84241 1301.4156 462.59091 1300.4062 461.2793 C 1299.3974 459.96761 1298.5541 458.3926 1298.5352 457.7793 C 1298.5162 457.16588 1296.2823 453.51408 1293.5723 449.66406 C 1285.2054 437.77798 1284.0339 435.97513 1277.8555 425.48438 C 1274.5583 419.88587 1270.8218 412.68571 1269.5508 409.48438 C 1268.2798 406.28285 1265.9666 401.86405 1264.4102 399.66406 C 1262.8539 397.46408 1260.341 393.78074 1258.8262 391.47852 C 1257.3113 389.17622 1255.1018 386.75994 1253.916 386.10938 C 1251.3504 384.70177 1250.4628 381.03292 1251.6699 376.82422 C 1252.3168 374.56862 1252.1338 373.14535 1250.9727 371.37305 C 1250.0489 369.96315 1249.6457 368.00188 1249.9941 366.61328 C 1250.5602 364.35792 1249.9401 360.95649 1246.873 349.52148 C 1245.7683 345.40308 1244.7068 343.83605 1241.5391 341.64062 C 1237.7903 339.04278 1237.1802 338.9347 1229.8281 339.55859 C 1225.5625 339.92071 1216.3971 340.4633 1209.4609 340.76562 C 1198.1077 341.26074 1196.4735 341.11629 1193.0938 339.30469 C 1190.0617 337.67961 1188.9766 337.51854 1187.4551 338.46875 C 1186.0002 339.37746 1185.1198 339.36238 1183.5859 338.4043 C 1182.4933 337.72199 1180.9721 337.16406 1180.207 337.16406 C 1179.4419 337.16406 1178.257 336.48905 1177.5723 335.66406 C 1176.8294 334.76896 1176.0281 334.30454 1175.2285 334.25391 z M 1252.3652 392.07617 L 1255.8242 395.36914 C 1260.9868 400.28415 1264.2221 405.13404 1265.6934 410.16406 C 1266.7881 413.90693 1271.418 422.91878 1277.2539 432.66406 C 1277.9126 433.76406 1279.1159 436.08988 1279.9277 437.83398 C 1280.7397 439.57827 1282.8438 442.50318 1284.6035 444.33398 C 1288.6453 448.53909 1294.5942 457.59586 1296.3164 462.16406 C 1301.5144 475.95095 1301.4868 478.46438 1296.0938 482.57812 C 1294.2516 483.98313 1292.139 485.73792 1291.3984 486.47852 C 1290.6578 487.21911 1288.8603 488.12475 1287.4043 488.49023 C 1285.9483 488.85571 1284.1527 489.3526 1283.4141 489.5957 C 1280.0535 490.7011 1271.9169 485.14443 1267.7832 478.91992 C 1260.3403 467.71234 1259.2832 465.16406 1262.0723 465.16406 C 1264.4333 465.16406 1263.824 461.82619 1261.0879 459.77148 C 1259.7216 458.74557 1257.9352 457.40228 1257.1172 456.78516 C 1255.2057 455.34315 1254.1778 439.58968 1255.709 435.19727 C 1256.4786 432.98927 1256.4447 428.98067 1255.5879 420.89648 C 1254.933 414.71817 1254.2803 408.53905 1254.1367 407.16406 C 1253.9931 405.78903 1253.5342 401.83066 1253.1191 398.36914 L 1252.3652 392.07617 z M 599.57227 1394.6641 C 598.45867 1394.6641 598.11778 1395.6949 598.25195 1398.6641 C 599.10087 1417.4409 599.20141 1427.6317 598.58984 1433.1641 C 598.19447 1436.7391 598.26868 1440.4515 598.75586 1441.4141 C 599.73325 1443.3451 601.31481 1443.6108 603.51562 1442.2188 C 604.69234 1441.4741 604.73679 1440.8229 603.76367 1438.6875 C 603.01536 1437.0451 602.53914 1430.214 602.48438 1420.3652 C 602.37741 1401.1729 601.63986 1394.6641 599.57227 1394.6641 z "
       transform="scale(0.26458333)"
       id="path3365"
       inkscape:export-filename="/Users/jan/Documents/repo/github/microcol/microcol-game/src/main/resources/images/market.png"
       inkscape:export-xdpi="34.762627"
       inkscape:export-ydpi="34.762627" />
    <path
       inkscape:connector-curvature="0"
       style="display:inline;fill:#000000;stroke-width:0.26458332"
       d="m 414.46251,33.080095 c -13.87758,-0.03765 -36.2336,0.254064 -39.83114,0.621152 -1.30969,0.13367 -4.10766,0.307853 -6.21771,0.387056 -2.11005,0.07927 -5.41237,0.26683 -7.33806,0.417029 -1.92572,0.150172 -3.61858,0.200318 -3.76206,0.111619 -0.2503,-0.15468 -1.62145,-0.06245 -11.91863,0.798402 -2.54662,0.21291 -5.7613,0.450865 -7.14375,0.529166 -1.38245,0.07826 -3.82323,0.259086 -5.42396,0.402043 -1.60073,0.142949 -4.93451,0.306922 -7.40833,0.36432 -2.47386,0.05741 -6.64107,0.18111 -9.26042,0.2744 -2.6194,0.09331 -7.44141,0.219286 -10.71563,0.280088 -3.27421,0.06083 -8.09625,0.231714 -10.71562,0.379822 -5.77858,0.326821 -9.56726,0.381995 -11.50938,0.166913 -1.90844,-0.211321 -16.69555,-0.815875 -25.53231,-1.043864 -4.93917,-0.12742 -10.20559,-0.404452 -11.77396,-0.619082 -0.65485,-0.08961 -2.38125,-0.184759 -3.83646,-0.211358 -1.45521,-0.02659 -5.02706,-0.13935 -7.9375,-0.250629 -3.63723,-0.139088 -6.16024,-0.103534 -8.06979,0.113686 -1.52797,0.17384 -3.37344,0.360882 -4.10104,0.415481 -0.72761,0.05463 -2.69214,0.231457 -4.36563,0.393255 -4.74377,0.45865 -11.47508,0.556335 -14.81667,0.214974 -6.26332,-0.639831 -18.64908,-0.622445 -23.28332,0.03256 -1.09141,0.15425 -3.175,0.335561 -4.6302,0.402559 -1.45522,0.06702 -4.49132,0.239151 -6.74688,0.382923 -5.16614,0.32933 -14.85247,0.647073 -17.4625,0.572574 -1.09142,-0.03112 -2.93397,-0.170807 -4.09432,-0.310057 -1.16035,-0.139218 -2.95852,-0.253214 -3.99614,-0.253214 -1.03762,0 -3.48183,-0.244673 -5.43119,-0.544153 -4.12035,-0.632989 -13.99347,-0.771808 -30.66377,-0.430466 -10.696342,0.21899 -28.227892,0.263525 -28.537272,0.07235 -0.10907,-0.06743 -3.42323,-0.248491 -7.36493,-0.402558 -3.94169,-0.154072 -8.34077,-0.406897 -9.77563,-0.561208 -1.43486,-0.154299 -3.20394,-0.275751 -3.93154,-0.26975 -0.72761,0.0058 -2.75167,-0.101783 -4.49792,-0.239263 -1.74625,-0.137451 -5.73484,-0.315224 -8.86354,-0.395324 -3.1287,-0.08009 -7.36517,-0.275945 -9.41441,-0.435116 -3.629188,-0.28194 -15.57546,-0.198426 -24.8491304,0.173633 -2.44011,0.09787 -6.69902,0.03028 -10.05416998,-0.159163 C -6.7160824,34.127544 -19.293532,34.07476 -19.789532,34.381315 c -0.14902,0.0921 -2.90542,0.196961 -6.12521,0.233061 -13.37932,0.14991 -25.53229,0.489294 -38.79453,1.083654 -0.99941,0.04478 -1.90611,0.112704 -2.57039,0.182935 v 1.351855 c 3.44064,-0.500298 9.83997,-0.891077 17.3669,-1.054198 3.55438,-0.07702 6.55574,-0.197483 6.66936,-0.267685 0.11363,-0.07025 5.25263,-0.164391 11.41997,-0.20929 6.16736,-0.0449 11.33832,-0.159129 11.49129,-0.25373 0.37112,-0.229339 14.1593596,-0.332383 14.5215996,-0.108522 0.29182,0.180369 9.58148,0.571548 12.40648,0.522449 3.14529,-0.05461 7.8489104,-0.322273 8.0708204,-0.459404 0.25712,-0.15888 16.83318,-0.151826 18.25522,0.0078 1.71259,0.19227 10.41701,0.665271 14.2875,0.776179 2.11005,0.06051 3.83646,0.123661 3.83646,0.14056 0,0.02577 5.74427,0.277257 7.01145,0.306959 0.21828,0.0051 1.70656,0.171918 3.3073,0.37052 1.60072,0.19857 5.47025,0.433647 8.59895,0.522449 3.1287,0.0888 6.70619,0.26276 7.95042,0.38654 2.36918,0.235691 13.99488,0.174892 28.562082,-0.149347 4.72943,-0.105291 12.52802,-0.190685 17.33021,-0.190685 7.50336,5.29e-4 9.25217,0.07839 12.43542,0.554487 2.03729,0.304689 5.49011,0.691756 7.67292,0.859896 2.18281,0.168119 4.74266,0.39388 5.68854,0.50178 0.94589,0.107902 1.80909,0.214712 1.91823,0.237712 0.10913,0.02289 0.19843,-0.05346 0.19843,-0.1695 0,-0.23758 3.31255,-0.163311 3.7114,0.0832 0.14149,0.08742 0.25735,0.03849 0.25735,-0.109037 0,-0.403323 1.19072,-0.516022 7.27605,-0.687811 7.38292,-0.208391 14.72173,-0.573265 15.21354,-0.756544 1.37782,-0.513401 18.05918,-0.781786 22.35728,-0.359667 2.92687,0.28743 14.61928,0.351621 17.3302,0.09508 1.09144,-0.103301 3.47266,-0.372623 5.29167,-0.598413 3.84008,-0.47665 10.60596,-0.615932 16.27188,-0.334862 4.11421,0.204131 4.67661,0.247377 9.525,0.733287 1.60072,0.160438 7.85153,0.41044 13.89062,0.555522 11.65495,0.279979 12.52106,0.316709 18.52086,0.785998 3.99307,0.312308 13.77302,0.174894 18.12396,-0.254765 1.30969,-0.129347 4.03352,-0.244181 6.05337,-0.255281 2.01989,-0.01106 3.74627,-0.06457 3.83646,-0.119372 0.0902,-0.05477 4.45059,-0.175598 9.68934,-0.2682 8.40771,-0.148669 13.31888,-0.369041 18.78541,-0.843359 0.8731,-0.07575 3.31391,-0.250836 5.42396,-0.389126 2.11005,-0.1383 4.55081,-0.379994 5.42396,-0.536916 0.8731,-0.156932 4.26641,-0.391279 7.54062,-0.520898 10.00948,-0.39624 16.37972,-0.735103 19.84375,-1.055751 4.09583,-0.379122 44.85556,-0.483786 52.5198,-0.134874 2.91041,0.1325 6.18463,0.265821 7.27604,0.296621 2.06536,0.05837 5.21914,0.180367 7.86154,0.29559 v -1.089853 c -0.0814,-0.0019 -0.10489,-0.0024 -0.18863,-0.0041 -2.72372,-0.0586 -13.03303,-0.5174 -19.05,-0.847492 -1.73302,-0.09508 -5.41689,-0.144029 -10.04281,-0.156578 z m -277.79028,6.224942 c -0.90581,-0.0027 -1.28971,0.07925 -1.05833,0.225827 0.44041,0.279019 1.23663,0.27477 1.95079,-0.01034 0.36376,-0.145248 0.0846,-0.212489 -0.89246,-0.215492 z m 1.70791,0.05426 c -0.0613,0.0123 -0.0723,0.06343 -0.0202,0.147796 0.0889,0.143844 0.2739,0.261483 0.41083,0.261483 0.38059,0 0.29662,-0.189452 -0.16175,-0.365353 -0.0589,-0.0226 -0.10979,-0.03669 -0.15141,-0.04289 -0.0312,-0.0047 -0.0571,-0.0051 -0.0775,-0.0011 z m 3.34915,0.0041 c -0.41318,-0.0051 -0.46852,0.155858 -0.0563,0.41651 0.49435,0.312539 0.97823,0.320659 1.16427,0.01963 0.0797,-0.128881 -0.1808,-0.297122 -0.57929,-0.373621 -0.21329,-0.04098 -0.39092,-0.06084 -0.52865,-0.06253 z m -7.73958,0.03617 c -0.41074,-0.0055 -0.79066,0.05022 -0.79065,0.171051 0,0.109138 0.43639,0.198437 0.96997,0.198437 0.53357,0 0.8915,-0.07898 0.7953,-0.175183 -0.12245,-0.122476 -0.56388,-0.188815 -0.97462,-0.194305 z m 13.2917,0.104937 c -0.30671,0 -0.63121,0.11915 -0.72141,0.265099 -0.094,0.15212 0.0654,0.23055 0.37414,0.183452 0.75966,-0.115941 1.01719,-0.448551 0.34727,-0.448551 z m 44.21487,0.122481 c -0.1079,0.02323 -0.11161,0.156461 0.0326,0.389641 h -5.3e-4 c 0.0959,0.155199 0.37612,0.278366 0.62219,0.273368 0.39287,-0.0074 0.3851,-0.0551 -0.0625,-0.393775 -0.27188,-0.205673 -0.4838,-0.292457 -0.5917,-0.269234 z m -1.80196,0.02946 c -0.21705,0.01513 -0.21524,0.167232 0.1204,0.374652 0.20711,0.128 0.49332,0.160131 0.63614,0.07183 0.1428,-0.08827 0.0297,-0.244072 -0.25166,-0.346233 -0.15815,-0.05742 -0.2933,-0.08841 -0.39894,-0.09818 -0.0396,-0.0037 -0.0749,-0.0042 -0.10594,-0.0021 z m 15.36908,0.282151 c -0.0957,0.0044 -0.2141,0.02278 -0.36068,0.05271 -0.50295,0.102709 -0.58462,0.17933 -0.26458,0.247531 0.25463,0.05426 0.46302,0.20882 0.46302,0.343649 0,0.134861 0.11906,0.245462 0.26458,0.245462 0.14552,0 0.26458,-0.221626 0.26458,-0.492477 0,-0.297659 -0.0798,-0.410017 -0.36692,-0.396875 z m -6.17532,0.07545 c -0.10549,-0.0109 -0.23419,0.108162 -0.28631,0.264584 -0.0559,0.167558 0.29464,0.28422 0.8532,0.28422 0.52144,0 0.94827,-0.119065 0.94827,-0.264583 0,-0.145521 -0.29768,-0.264583 -0.66146,-0.264583 -0.36383,0 -0.74819,-0.0088 -0.8537,-0.01963 z m 9.51052,0.113689 c -0.42709,0.0035 -0.98517,0.0646 -1.64536,0.182933 -0.21828,0.03913 0.19841,0.145246 0.92604,0.235646 v -5.29e-4 c 0.72758,0.09039 2.69211,0.136199 4.36563,0.101801 3.70006,-0.07615 3.69075,-0.07519 3.07887,-0.315743 -0.51752,-0.203452 -3.52589,-0.154557 -4.80851,0.07803 -0.41275,0.07485 -0.88921,0.02088 -1.05883,-0.119888 -0.13476,-0.111781 -0.43074,-0.165778 -0.85784,-0.162264 z m -11.19725,0.01188 c -0.40113,-0.009 -0.76687,0.05167 -0.76687,0.189654 0,0.12851 0.43638,0.234092 0.96997,0.234092 0.53356,0 0.88268,-0.08777 0.77566,-0.19482 -0.14113,-0.141129 -0.57762,-0.219964 -0.97876,-0.228926 z m -3.20755,0.04754 c -0.0633,0.0044 -0.1324,0.01561 -0.20516,0.03462 -0.29104,0.0761 -0.52916,0.183981 -0.52916,0.239779 0,0.05585 0.23812,0.101801 0.52916,0.101801 0.29104,0 0.52917,-0.107889 0.52917,-0.239779 0,-0.09894 -0.13425,-0.149518 -0.32401,-0.136424 z m 22.38519,0.11162 c -0.3638,0 -0.60637,0.0893 -0.53898,0.198437 0.0674,0.109141 0.42066,0.198438 0.78444,0.198438 0.36383,0 0.60587,-0.0893 0.53848,-0.198438 -0.0674,-0.10914 -0.42013,-0.198437 -0.78394,-0.198437 z m -20.4959,0.03256 c -0.0919,-0.0038 -0.19646,0.01296 -0.29197,0.05116 -0.21105,0.08447 -0.14856,0.146979 0.15968,0.159679 0.27886,0.01148 0.43516,-0.05111 0.34726,-0.13901 -0.044,-0.044 -0.12305,-0.06806 -0.21497,-0.07183 z m -9.00565,0.0011 c -0.14386,-0.0019 -0.29761,0.014 -0.42633,0.04754 -0.25743,0.06709 -0.11048,0.126775 0.32608,0.131776 0.43654,0.0054 0.64682,-0.04946 0.46767,-0.121957 -0.0896,-0.03635 -0.22355,-0.05556 -0.36742,-0.05736 z"
       id="path3365-4"
       inkscape:export-filename="/Users/jan/Documents/repo/github/microcol/microcol-game/src/main/resources/images/market.png"
       inkscape:export-xdpi="34.762627"
       inkscape:export-ydpi="34.762627" />
  </g>
</svg>
